<svg width="110" height="24" viewBox="0 0 110 24" fill="none" xmlns="http://www.w3.org/2000/svg">
<path d="M76.6902 23.992H66.6679V22.7922C66.9479 22.7682 67.3558 22.7282 67.8877 22.6882C68.4236 22.6482 68.7996 22.5722 69.0155 22.4883C69.3635 22.3363 69.6154 22.1363 69.7754 21.8804C69.9314 21.6284 70.0074 21.2765 70.0074 20.8205V3.47942C70.0074 3.07949 69.9514 2.75554 69.8354 2.48759C69.7234 2.21963 69.4514 1.99567 69.0195 1.8157C68.7076 1.67972 68.3156 1.54774 67.8397 1.43576C67.3638 1.31578 66.9759 1.24779 66.6719 1.2278V0.0159973H76.6942V1.2278C76.3703 1.23979 75.9824 1.27979 75.5304 1.35177C75.0825 1.42776 74.6906 1.51975 74.3546 1.63173C73.9587 1.76771 73.6908 1.99167 73.5588 2.29162C73.4188 2.59557 73.3508 2.93551 73.3508 3.30745V20.6366C73.3508 21.0085 73.4268 21.3444 73.5828 21.6324C73.7307 21.9123 73.9907 22.1523 74.3546 22.3163C74.5746 22.4043 74.9345 22.5042 75.4305 22.6162C75.9264 22.7202 76.3503 22.7842 76.6942 22.7962V23.996L76.6902 23.992Z" fill="#2C2A29"/>
<path d="M46.2073 23.992H36.9569V22.8122C37.7727 22.7562 38.4486 22.6482 38.9885 22.4803C39.5284 22.3123 39.7964 22.1083 39.7964 21.8684C39.7964 21.7684 39.7884 21.6444 39.7644 21.4964C39.7484 21.3524 39.7124 21.2285 39.6724 21.1165L37.8247 15.8134H30.01C29.7141 16.5892 29.4741 17.2771 29.2941 17.853C29.1142 18.4289 28.9502 18.9648 28.8022 19.4488C28.6622 19.9247 28.5703 20.3126 28.5183 20.6206C28.4663 20.9205 28.4423 21.1605 28.4423 21.3484C28.4423 21.7884 28.7702 22.1283 29.4301 22.3803C30.086 22.6282 30.8299 22.7682 31.6537 22.8122V23.992H23.2711V22.8122C23.5431 22.7922 23.883 22.7322 24.291 22.6202C24.6989 22.5122 25.0308 22.3763 25.2948 22.2003C25.7107 21.8963 26.0387 21.5764 26.2666 21.2525C26.4946 20.9285 26.7186 20.4726 26.9385 19.8927C28.0583 16.9332 29.2901 13.5977 30.6379 9.90235C31.9857 6.20697 33.1935 2.91151 34.2453 0.023996H35.5051L42.9239 20.4126C43.0798 20.8485 43.2598 21.2005 43.4558 21.4724C43.6557 21.7364 43.9357 22.0003 44.2916 22.2523C44.5276 22.4083 44.8435 22.5442 45.2275 22.6402C45.6154 22.7482 45.9434 22.8042 46.2033 22.8162V23.996L46.2073 23.992ZM37.2528 14.3296L33.8774 5.15514L30.5579 14.3296H37.2528Z" fill="#2C2A29"/>
<path d="M64.8162 16.4773L64.0683 23.992H45.8994V23.4001L60.129 1.35977H54.9139C54.31 1.35977 53.8061 1.37177 53.3941 1.38777C52.9862 1.41176 52.6143 1.45576 52.2743 1.53174C51.5664 1.67172 50.7826 2.29162 49.9067 3.37944C49.0269 4.46326 48.367 5.61906 47.923 6.81886H46.8072L47.4911 0.0159973H64.4323V0.615897L50.2027 22.6562H55.5698C56.4736 22.6562 57.4334 22.5802 58.4533 22.4523C59.4731 22.3083 60.137 22.0803 60.4449 21.7484C61.1368 21.0445 61.7767 20.1846 62.3766 19.1728C62.9725 18.157 63.4125 17.2571 63.6964 16.4733H64.8122L64.8162 16.4773Z" fill="#2C2A29"/>
<path d="M109.749 23.992H99.7264V22.7922C100.006 22.7682 100.414 22.7282 100.95 22.6882C101.482 22.6482 101.862 22.5722 102.078 22.4883C102.422 22.3363 102.674 22.1363 102.83 21.8804C102.986 21.6284 103.062 21.2765 103.062 20.8205V3.47942C103.062 3.07949 103.006 2.75554 102.89 2.48759C102.774 2.21963 102.502 1.99567 102.078 1.8157C101.762 1.67972 101.366 1.54774 100.894 1.43576C100.414 1.31578 100.026 1.24779 99.7264 1.2278V0.0159973H109.749V1.2278C109.421 1.23979 109.037 1.27979 108.585 1.35177C108.137 1.42776 107.741 1.51975 107.405 1.63173C107.009 1.76771 106.741 1.99167 106.605 2.29162C106.473 2.59557 106.409 2.93551 106.409 3.30745V20.6366C106.409 21.0085 106.481 21.3444 106.633 21.6324C106.785 21.9123 107.041 22.1523 107.405 22.3163C107.625 22.4043 107.985 22.5042 108.481 22.6162C108.977 22.7202 109.405 22.7842 109.745 22.7962V23.996L109.749 23.992Z" fill="#2C2A29"/>
<path d="M97.8827 16.4773L97.1468 23.992H79.2658V23.4001L93.2715 1.35977H88.1443C87.5444 1.35977 87.0485 1.37177 86.6446 1.38777C86.2407 1.41176 85.8767 1.45576 85.5448 1.53174C84.8489 1.67172 84.073 2.29162 83.2092 3.37944C82.3493 4.46326 81.6974 5.61906 81.2575 6.81886H80.1617L80.8336 0.0159973H97.5108V0.615897L83.5011 22.6562H88.7882C89.6761 22.6562 90.6199 22.5802 91.6238 22.4523C92.6276 22.3083 93.2835 22.0803 93.5874 21.7484C94.2713 21.0445 94.8992 20.1846 95.4831 19.1728C96.071 18.157 96.5029 17.2571 96.7829 16.4733H97.8827V16.4773Z" fill="#2C2A29"/>
<path d="M20.8715 0H0.250977V2.81953H20.8715V0Z" fill="#2C2A29"/>
<path d="M20.8715 5.29512H0.250977V8.11465H20.8715V5.29512Z" fill="#2C2A29"/>
<path d="M20.8715 10.5902H0.250977V13.4098H20.8715V10.5902Z" fill="#2C2A29"/>
<path d="M20.8715 15.8854H0.250977V18.7049H20.8715V15.8854Z" fill="#2C2A29"/>
<path d="M20.8715 21.1805H0.250977V24H20.8715V21.1805Z" fill="#2C2A29"/>
</svg>
