<svg width="272" height="543" viewBox="0 0 272 543" fill="none" xmlns="http://www.w3.org/2000/svg">
<path d="M152.371 288.822C196.999 293.164 229.896 330.883 228.772 375.708C227.249 436.362 167.351 480.096 147.504 538.651C146.31 542.172 141.412 542.2 140.22 538.679C120.126 479.355 58.9131 435.246 58.9131 373.35C58.9131 323.63 101.634 283.885 152.371 288.822Z" fill="#0488DB"/>
<path d="M143.851 439.63C180.194 439.63 209.656 410.168 209.656 373.825C209.656 337.482 180.194 308.02 143.851 308.02C107.508 308.02 78.0464 337.482 78.0464 373.825C78.0464 410.168 107.508 439.63 143.851 439.63Z" fill="#E3F6FF"/>
<path d="M159.775 417.026C159.534 417.026 159.289 417.003 159.047 416.958C157.774 416.717 156.707 415.865 156.187 414.68L144.469 387.883C144.202 387.276 143.68 386.861 143.028 386.737C142.384 386.613 141.741 386.813 141.271 387.279L134.072 394.476C133.468 395.08 133.249 395.959 133.499 396.774L135.635 403.782C135.972 404.895 135.671 406.101 134.848 406.924L132.049 409.723C131.324 410.445 130.29 410.774 129.281 410.597C128.272 410.42 127.41 409.762 126.974 408.835L121.548 397.263L109.754 391.733C108.827 391.298 108.167 390.438 107.993 389.429C107.816 388.42 108.144 387.386 108.866 386.661L111.665 383.862C112.489 383.039 113.694 382.738 114.807 383.078L121.815 385.214C122.63 385.461 123.509 385.242 124.114 384.641L131.372 377.382C131.838 376.916 132.038 376.275 131.914 375.623C131.79 374.974 131.375 374.449 130.768 374.185L103.971 362.467C102.786 361.947 101.934 360.879 101.693 359.606C101.451 358.333 101.855 357.027 102.772 356.111L105.483 353.399C106.422 352.458 107.759 352.062 109.06 352.337L145.27 359.991C147.077 360.376 148.931 359.823 150.235 358.519L168.014 340.74C170.695 338.062 174.955 337.857 177.717 340.282C179.192 341.577 180.038 343.367 180.103 345.32C180.165 347.248 179.42 349.133 178.057 350.499L160.138 368.416C158.834 369.722 158.283 371.577 158.665 373.384L166.32 409.591C166.595 410.892 166.199 412.229 165.258 413.171L162.543 415.882C161.801 416.621 160.804 417.026 159.775 417.026Z" fill="#0488DB"/>
<path d="M38.5217 35H35.1978L44.8114 8.81818H48.0842L57.6978 35H54.3739L46.5501 12.9602H46.3455L38.5217 35ZM39.7489 24.7727H53.1467V27.5852H39.7489V24.7727ZM64.3839 8.81818V35H61.3668V8.81818H64.3839ZM80.4439 8.81818H84.228L93.1257 30.5511H93.4325L102.33 8.81818H106.114V35H103.148V15.108H102.893L94.7109 35H91.8473L83.6655 15.108H83.4098V35H80.4439V8.81818ZM117.841 35.4602C116.596 35.4602 115.467 35.2259 114.453 34.7571C113.439 34.2798 112.633 33.5938 112.037 32.6989C111.44 31.7955 111.142 30.7045 111.142 29.4261C111.142 28.3011 111.363 27.3892 111.806 26.6903C112.25 25.983 112.842 25.429 113.583 25.0284C114.325 24.6278 115.143 24.3295 116.038 24.1335C116.941 23.929 117.849 23.767 118.761 23.6477C119.954 23.4943 120.922 23.3793 121.663 23.3026C122.413 23.2173 122.958 23.0767 123.299 22.8807C123.649 22.6847 123.824 22.3437 123.824 21.858V21.7557C123.824 20.4943 123.478 19.5142 122.788 18.8153C122.106 18.1165 121.071 17.767 119.681 17.767C118.241 17.767 117.112 18.0824 116.294 18.7131C115.475 19.3437 114.9 20.017 114.568 20.733L111.704 19.7102C112.216 18.517 112.897 17.5881 113.75 16.9233C114.61 16.25 115.548 15.7812 116.562 15.517C117.585 15.2443 118.591 15.108 119.579 15.108C120.21 15.108 120.934 15.1847 121.752 15.3381C122.579 15.483 123.376 15.7855 124.143 16.2457C124.919 16.706 125.562 17.4006 126.074 18.3295C126.585 19.2585 126.841 20.5028 126.841 22.0625V35H123.824V32.3409H123.67C123.466 32.767 123.125 33.223 122.647 33.7088C122.17 34.1946 121.535 34.608 120.743 34.9489C119.95 35.2898 118.983 35.4602 117.841 35.4602ZM118.301 32.75C119.494 32.75 120.5 32.5156 121.318 32.0469C122.145 31.5781 122.767 30.973 123.184 30.2315C123.61 29.4901 123.824 28.7102 123.824 27.892V25.1307C123.696 25.2841 123.414 25.4247 122.98 25.5526C122.554 25.6719 122.059 25.7784 121.497 25.8722C120.943 25.9574 120.402 26.0341 119.873 26.1023C119.353 26.1619 118.931 26.2131 118.608 26.2557C117.824 26.358 117.091 26.5241 116.409 26.7543C115.735 26.9759 115.19 27.3125 114.772 27.7642C114.363 28.2074 114.159 28.8125 114.159 29.5795C114.159 30.6278 114.547 31.4205 115.322 31.9574C116.106 32.4858 117.099 32.75 118.301 32.75ZM135.16 27.8409L135.109 24.108H135.722L144.313 15.3636H148.046L138.893 24.6193H138.637L135.16 27.8409ZM132.347 35V8.81818H135.364V35H132.347ZM144.825 35L137.154 25.2841L139.302 23.1875L148.66 35H144.825ZM160.469 15.3636V17.9205H150.293V15.3636H160.469ZM153.259 10.6591H156.276V29.375C156.276 30.2273 156.4 30.8665 156.647 31.2926C156.902 31.7102 157.226 31.9915 157.618 32.1364C158.019 32.2727 158.441 32.3409 158.884 32.3409C159.216 32.3409 159.489 32.3239 159.702 32.2898C159.915 32.2472 160.086 32.2131 160.213 32.1875L160.827 34.8977C160.623 34.9744 160.337 35.0511 159.971 35.1278C159.604 35.2131 159.14 35.2557 158.577 35.2557C157.725 35.2557 156.89 35.0724 156.071 34.706C155.262 34.3395 154.588 33.7812 154.051 33.0312C153.523 32.2812 153.259 31.3352 153.259 30.1932V10.6591ZM172.774 35.4091C171.001 35.4091 169.446 34.9872 168.108 34.1435C166.778 33.2997 165.738 32.1193 164.988 30.6023C164.247 29.0852 163.876 27.3125 163.876 25.2841C163.876 23.2386 164.247 21.4531 164.988 19.9276C165.738 18.402 166.778 17.2173 168.108 16.3736C169.446 15.5298 171.001 15.108 172.774 15.108C174.547 15.108 176.098 15.5298 177.427 16.3736C178.765 17.2173 179.805 18.402 180.547 19.9276C181.297 21.4531 181.672 23.2386 181.672 25.2841C181.672 27.3125 181.297 29.0852 180.547 30.6023C179.805 32.1193 178.765 33.2997 177.427 34.1435C176.098 34.9872 174.547 35.4091 172.774 35.4091ZM172.774 32.6989C174.12 32.6989 175.228 32.3537 176.098 31.6634C176.967 30.973 177.61 30.0653 178.028 28.9403C178.446 27.8153 178.654 26.5966 178.654 25.2841C178.654 23.9716 178.446 22.7486 178.028 21.6151C177.61 20.4815 176.967 19.5653 176.098 18.8665C175.228 18.1676 174.12 17.8182 172.774 17.8182C171.427 17.8182 170.319 18.1676 169.45 18.8665C168.581 19.5653 167.937 20.4815 167.52 21.6151C167.102 22.7486 166.893 23.9716 166.893 25.2841C166.893 26.5966 167.102 27.8153 167.52 28.9403C167.937 30.0653 168.581 30.973 169.45 31.6634C170.319 32.3537 171.427 32.6989 172.774 32.6989ZM198.652 26.9716V15.3636H201.669V35H198.652V31.6761H198.447C197.987 32.6733 197.271 33.5213 196.3 34.2202C195.328 34.9105 194.101 35.2557 192.618 35.2557C191.391 35.2557 190.3 34.9872 189.345 34.4503C188.391 33.9048 187.641 33.0866 187.095 31.9957C186.55 30.8963 186.277 29.5114 186.277 27.8409V15.3636H189.294V27.6364C189.294 29.0682 189.695 30.2102 190.496 31.0625C191.305 31.9148 192.337 32.3409 193.589 32.3409C194.339 32.3409 195.102 32.1491 195.878 31.7656C196.662 31.3821 197.318 30.794 197.847 30.0014C198.384 29.2088 198.652 28.1989 198.652 26.9716ZM207.195 35V15.3636H210.11V18.4318H210.365C210.775 17.3835 211.435 16.5696 212.347 15.9901C213.259 15.402 214.354 15.108 215.632 15.108C216.928 15.108 218.006 15.402 218.867 15.9901C219.736 16.5696 220.414 17.3835 220.9 18.4318H221.104C221.607 17.4176 222.361 16.6122 223.367 16.0156C224.373 15.4105 225.578 15.108 226.985 15.108C228.74 15.108 230.176 15.6577 231.293 16.7571C232.409 17.848 232.968 19.5483 232.968 21.858V35H229.951V21.858C229.951 20.4091 229.554 19.3736 228.762 18.7514C227.969 18.1293 227.036 17.8182 225.962 17.8182C224.581 17.8182 223.512 18.2358 222.753 19.071C221.995 19.8977 221.615 20.946 221.615 22.2159V35H218.547V21.5511C218.547 20.4347 218.185 19.5355 217.461 18.8537C216.736 18.1634 215.803 17.8182 214.661 17.8182C213.877 17.8182 213.144 18.027 212.462 18.4446C211.789 18.8622 211.243 19.4418 210.826 20.1832C210.417 20.9162 210.212 21.7642 210.212 22.7273V35H207.195ZM35.2745 52.8182V79H32.104V52.8182H35.2745ZM44.2393 67.1875V79H41.2223V59.3636H44.1371V62.4318H44.3928C44.853 61.4347 45.5518 60.6335 46.4893 60.0284C47.4268 59.4148 48.6371 59.108 50.12 59.108C51.4496 59.108 52.6129 59.3807 53.6101 59.9261C54.6072 60.4631 55.3828 61.2812 55.9368 62.3807C56.4908 63.4716 56.7678 64.8523 56.7678 66.5227V79H53.7507V66.7273C53.7507 65.1847 53.3501 63.983 52.549 63.1222C51.7479 62.2528 50.6484 61.8182 49.2507 61.8182C48.2876 61.8182 47.4268 62.027 46.6683 62.4446C45.9183 62.8622 45.326 63.4716 44.8913 64.2727C44.4567 65.0739 44.2393 66.0455 44.2393 67.1875ZM70.8207 59.3636V61.9205H60.6445V59.3636H70.8207ZM63.6104 54.6591H66.6275V73.375C66.6275 74.2273 66.7511 74.8665 66.9982 75.2926C67.2539 75.7102 67.5778 75.9915 67.9698 76.1364C68.3704 76.2727 68.7923 76.3409 69.2354 76.3409C69.5678 76.3409 69.8406 76.3239 70.0536 76.2898C70.2667 76.2472 70.4371 76.2131 70.565 76.1875L71.1786 78.8977C70.9741 78.9744 70.6886 79.0511 70.3221 79.1278C69.9556 79.2131 69.4911 79.2557 68.9286 79.2557C68.0763 79.2557 67.2411 79.0724 66.4229 78.706C65.6133 78.3395 64.94 77.7812 64.4031 77.0312C63.8746 76.2812 63.6104 75.3352 63.6104 74.1932V54.6591ZM83.381 79.4091C81.489 79.4091 79.8569 78.9915 78.4847 78.1562C77.1211 77.3125 76.0685 76.1364 75.3271 74.6278C74.5941 73.1108 74.2276 71.3466 74.2276 69.3352C74.2276 67.3239 74.5941 65.5511 75.3271 64.017C76.0685 62.4744 77.0998 61.2727 78.4208 60.4119C79.7504 59.5426 81.3015 59.108 83.0742 59.108C84.0969 59.108 85.1069 59.2784 86.104 59.6193C87.1012 59.9602 88.0089 60.5142 88.8271 61.2812C89.6452 62.0398 90.2972 63.0455 90.783 64.2983C91.2688 65.5511 91.5117 67.0937 91.5117 68.9261V70.2045H76.3754V67.5966H88.4435C88.4435 66.4886 88.2219 65.5 87.7788 64.6307C87.3441 63.7614 86.7219 63.0753 85.9123 62.5724C85.1112 62.0696 84.1651 61.8182 83.0742 61.8182C81.8725 61.8182 80.8327 62.1165 79.9549 62.7131C79.0856 63.3011 78.4165 64.0682 77.9478 65.0142C77.479 65.9602 77.2447 66.9744 77.2447 68.0568V69.7955C77.2447 71.2784 77.5004 72.5355 78.0117 73.5668C78.5316 74.5895 79.2518 75.3693 80.1722 75.9062C81.0927 76.4347 82.1623 76.6989 83.381 76.6989C84.1737 76.6989 84.8896 76.5881 85.5288 76.3665C86.1765 76.1364 86.7347 75.7955 87.2035 75.3438C87.6722 74.8835 88.0344 74.3125 88.2901 73.6307L91.2049 74.4489C90.8981 75.4375 90.3825 76.3068 89.658 77.0568C88.9336 77.7983 88.0387 78.3778 86.9734 78.7955C85.908 79.2045 84.7106 79.4091 83.381 79.4091ZM96.1012 79V59.3636H99.016V62.3295H99.2205C99.5785 61.358 100.226 60.5696 101.164 59.9645C102.101 59.3594 103.158 59.0568 104.334 59.0568C104.556 59.0568 104.833 59.0611 105.165 59.0696C105.498 59.0781 105.749 59.0909 105.919 59.108V62.1761C105.817 62.1506 105.583 62.1122 105.216 62.0611C104.858 62.0014 104.479 61.9716 104.078 61.9716C103.124 61.9716 102.272 62.1719 101.522 62.5724C100.78 62.9645 100.192 63.5099 99.7575 64.2088C99.3313 64.8991 99.1183 65.6875 99.1183 66.5739V79H96.1012ZM112.513 67.1875V79H109.496V59.3636H112.411V62.4318H112.666C113.126 61.4347 113.825 60.6335 114.763 60.0284C115.7 59.4148 116.911 59.108 118.393 59.108C119.723 59.108 120.886 59.3807 121.884 59.9261C122.881 60.4631 123.656 61.2812 124.21 62.3807C124.764 63.4716 125.041 64.8523 125.041 66.5227V79H122.024V66.7273C122.024 65.1847 121.624 63.983 120.822 63.1222C120.021 62.2528 118.922 61.8182 117.524 61.8182C116.561 61.8182 115.7 62.027 114.942 62.4446C114.192 62.8622 113.599 63.4716 113.165 64.2727C112.73 65.0739 112.513 66.0455 112.513 67.1875ZM136.333 79.4602C135.088 79.4602 133.959 79.2259 132.945 78.7571C131.931 78.2798 131.125 77.5938 130.529 76.6989C129.932 75.7955 129.634 74.7045 129.634 73.4261C129.634 72.3011 129.855 71.3892 130.299 70.6903C130.742 69.983 131.334 69.429 132.076 69.0284C132.817 68.6278 133.635 68.3295 134.53 68.1335C135.434 67.929 136.341 67.767 137.253 67.6477C138.446 67.4943 139.414 67.3793 140.155 67.3026C140.905 67.2173 141.451 67.0767 141.792 66.8807C142.141 66.6847 142.316 66.3437 142.316 65.858V65.7557C142.316 64.4943 141.971 63.5142 141.28 62.8153C140.598 62.1165 139.563 61.767 138.174 61.767C136.733 61.767 135.604 62.0824 134.786 62.7131C133.968 63.3437 133.392 64.017 133.06 64.733L130.196 63.7102C130.708 62.517 131.39 61.5881 132.242 60.9233C133.103 60.25 134.04 59.7812 135.054 59.517C136.077 59.2443 137.083 59.108 138.071 59.108C138.702 59.108 139.426 59.1847 140.245 59.3381C141.071 59.483 141.868 59.7855 142.635 60.2457C143.411 60.706 144.054 61.4006 144.566 62.3295C145.077 63.2585 145.333 64.5028 145.333 66.0625V79H142.316V76.3409H142.162C141.958 76.767 141.617 77.223 141.14 77.7088C140.662 78.1946 140.027 78.608 139.235 78.9489C138.442 79.2898 137.475 79.4602 136.333 79.4602ZM136.793 76.75C137.986 76.75 138.992 76.5156 139.81 76.0469C140.637 75.5781 141.259 74.973 141.676 74.2315C142.103 73.4901 142.316 72.7102 142.316 71.892V69.1307C142.188 69.2841 141.907 69.4247 141.472 69.5526C141.046 69.6719 140.551 69.7784 139.989 69.8722C139.435 69.9574 138.894 70.0341 138.365 70.1023C137.846 70.1619 137.424 70.2131 137.1 70.2557C136.316 70.358 135.583 70.5241 134.901 70.7543C134.228 70.9759 133.682 71.3125 133.265 71.7642C132.855 72.2074 132.651 72.8125 132.651 73.5795C132.651 74.6278 133.039 75.4205 133.814 75.9574C134.598 76.4858 135.591 76.75 136.793 76.75ZM159.379 59.3636V61.9205H149.203V59.3636H159.379ZM152.169 54.6591H155.186V73.375C155.186 74.2273 155.31 74.8665 155.557 75.2926C155.813 75.7102 156.136 75.9915 156.528 76.1364C156.929 76.2727 157.351 76.3409 157.794 76.3409C158.126 76.3409 158.399 76.3239 158.612 76.2898C158.825 76.2472 158.996 76.2131 159.124 76.1875L159.737 78.8977C159.533 78.9744 159.247 79.0511 158.881 79.1278C158.514 79.2131 158.05 79.2557 157.487 79.2557C156.635 79.2557 155.8 79.0724 154.982 78.706C154.172 78.3395 153.499 77.7812 152.962 77.0312C152.433 76.2812 152.169 75.3352 152.169 74.1932V54.6591ZM163.918 79V59.3636H166.935V79H163.918ZM165.452 56.0909C164.864 56.0909 164.357 55.8906 163.93 55.4901C163.513 55.0895 163.304 54.608 163.304 54.0455C163.304 53.483 163.513 53.0014 163.93 52.6009C164.357 52.2003 164.864 52 165.452 52C166.04 52 166.543 52.2003 166.96 52.6009C167.386 53.0014 167.599 53.483 167.599 54.0455C167.599 54.608 167.386 55.0895 166.96 55.4901C166.543 55.8906 166.04 56.0909 165.452 56.0909ZM180.438 79.4091C178.665 79.4091 177.11 78.9872 175.772 78.1435C174.442 77.2997 173.402 76.1193 172.652 74.6023C171.911 73.0852 171.54 71.3125 171.54 69.2841C171.54 67.2386 171.911 65.4531 172.652 63.9276C173.402 62.402 174.442 61.2173 175.772 60.3736C177.11 59.5298 178.665 59.108 180.438 59.108C182.211 59.108 183.762 59.5298 185.091 60.3736C186.429 61.2173 187.469 62.402 188.211 63.9276C188.961 65.4531 189.336 67.2386 189.336 69.2841C189.336 71.3125 188.961 73.0852 188.211 74.6023C187.469 76.1193 186.429 77.2997 185.091 78.1435C183.762 78.9872 182.211 79.4091 180.438 79.4091ZM180.438 76.6989C181.784 76.6989 182.892 76.3537 183.762 75.6634C184.631 74.973 185.275 74.0653 185.692 72.9403C186.11 71.8153 186.319 70.5966 186.319 69.2841C186.319 67.9716 186.11 66.7486 185.692 65.6151C185.275 64.4815 184.631 63.5653 183.762 62.8665C182.892 62.1676 181.784 61.8182 180.438 61.8182C179.091 61.8182 177.983 62.1676 177.114 62.8665C176.245 63.5653 175.601 64.4815 175.184 65.6151C174.766 66.7486 174.557 67.9716 174.557 69.2841C174.557 70.5966 174.766 71.8153 175.184 72.9403C175.601 74.0653 176.245 74.973 177.114 75.6634C177.983 76.3537 179.091 76.6989 180.438 76.6989ZM196.958 67.1875V79H193.941V59.3636H196.856V62.4318H197.112C197.572 61.4347 198.271 60.6335 199.208 60.0284C200.146 59.4148 201.356 59.108 202.839 59.108C204.168 59.108 205.332 59.3807 206.329 59.9261C207.326 60.4631 208.102 61.2812 208.656 62.3807C209.21 63.4716 209.487 64.8523 209.487 66.5227V79H206.469V66.7273C206.469 65.1847 206.069 63.983 205.268 63.1222C204.467 62.2528 203.367 61.8182 201.969 61.8182C201.006 61.8182 200.146 62.027 199.387 62.4446C198.637 62.8622 198.045 63.4716 197.61 64.2727C197.175 65.0739 196.958 66.0455 196.958 67.1875ZM220.778 79.4602C219.534 79.4602 218.404 79.2259 217.39 78.7571C216.376 78.2798 215.571 77.5938 214.974 76.6989C214.377 75.7955 214.079 74.7045 214.079 73.4261C214.079 72.3011 214.301 71.3892 214.744 70.6903C215.187 69.983 215.779 69.429 216.521 69.0284C217.262 68.6278 218.081 68.3295 218.975 68.1335C219.879 67.929 220.787 67.767 221.699 67.6477C222.892 67.4943 223.859 67.3793 224.6 67.3026C225.35 67.2173 225.896 67.0767 226.237 66.8807C226.586 66.6847 226.761 66.3437 226.761 65.858V65.7557C226.761 64.4943 226.416 63.5142 225.725 62.8153C225.044 62.1165 224.008 61.767 222.619 61.767C221.179 61.767 220.049 62.0824 219.231 62.7131C218.413 63.3437 217.838 64.017 217.505 64.733L214.642 63.7102C215.153 62.517 215.835 61.5881 216.687 60.9233C217.548 60.25 218.485 59.7812 219.5 59.517C220.522 59.2443 221.528 59.108 222.517 59.108C223.147 59.108 223.872 59.1847 224.69 59.3381C225.517 59.483 226.314 59.7855 227.081 60.2457C227.856 60.706 228.5 61.4006 229.011 62.3295C229.522 63.2585 229.778 64.5028 229.778 66.0625V79H226.761V76.3409H226.608C226.403 76.767 226.062 77.223 225.585 77.7088C225.108 78.1946 224.473 78.608 223.68 78.9489C222.887 79.2898 221.92 79.4602 220.778 79.4602ZM221.238 76.75C222.431 76.75 223.437 76.5156 224.255 76.0469C225.082 75.5781 225.704 74.973 226.122 74.2315C226.548 73.4901 226.761 72.7102 226.761 71.892V69.1307C226.633 69.2841 226.352 69.4247 225.917 69.5526C225.491 69.6719 224.997 69.7784 224.434 69.8722C223.88 69.9574 223.339 70.0341 222.811 70.1023C222.291 70.1619 221.869 70.2131 221.545 70.2557C220.761 70.358 220.028 70.5241 219.346 70.7543C218.673 70.9759 218.127 71.3125 217.71 71.7642C217.301 72.2074 217.096 72.8125 217.096 73.5795C217.096 74.6278 217.484 75.4205 218.26 75.9574C219.044 76.4858 220.037 76.75 221.238 76.75ZM238.302 52.8182V79H235.285V52.8182H238.302ZM19.8361 123H16.5123L26.1259 96.8182H29.3986L39.0123 123H35.6884L27.8645 100.96H27.66L19.8361 123ZM21.0634 112.773H34.4611V115.585H21.0634V112.773ZM42.8922 123V103.364H45.9093V123H42.8922ZM44.4263 100.091C43.8382 100.091 43.3311 99.8906 42.905 99.4901C42.4874 99.0895 42.2786 98.608 42.2786 98.0455C42.2786 97.483 42.4874 97.0014 42.905 96.6009C43.3311 96.2003 43.8382 96 44.4263 96C45.0144 96 45.5172 96.2003 45.9348 96.6009C46.361 97.0014 46.574 97.483 46.574 98.0455C46.574 98.608 46.361 99.0895 45.9348 99.4901C45.5172 99.8906 45.0144 100.091 44.4263 100.091ZM51.4352 123V103.364H54.35V106.33H54.5545C54.9125 105.358 55.5602 104.57 56.4977 103.964C57.4352 103.359 58.492 103.057 59.6681 103.057C59.8897 103.057 60.1667 103.061 60.4991 103.07C60.8315 103.078 61.0829 103.091 61.2534 103.108V106.176C61.1511 106.151 60.9167 106.112 60.5502 106.061C60.1923 106.001 59.813 105.972 59.4125 105.972C58.4579 105.972 57.6056 106.172 56.8556 106.572C56.1142 106.964 55.5261 107.51 55.0914 108.209C54.6653 108.899 54.4522 109.687 54.4522 110.574V123H51.4352ZM64.8297 130.364V103.364H67.7445V106.483H68.1025C68.324 106.142 68.6309 105.707 69.0229 105.179C69.4235 104.642 69.9945 104.165 70.736 103.747C71.486 103.321 72.5002 103.108 73.7786 103.108C75.432 103.108 76.8894 103.521 78.1507 104.348C79.4121 105.175 80.3965 106.347 81.1039 107.864C81.8113 109.381 82.1649 111.17 82.1649 113.233C82.1649 115.312 81.8113 117.115 81.1039 118.641C80.3965 120.158 79.4164 121.334 78.1635 122.169C76.9107 122.996 75.4661 123.409 73.8297 123.409C72.5684 123.409 71.5584 123.2 70.7999 122.783C70.0414 122.357 69.4576 121.875 69.0485 121.338C68.6394 120.793 68.324 120.341 68.1025 119.983H67.8468V130.364H64.8297ZM67.7956 113.182C67.7956 114.665 68.013 115.973 68.4476 117.107C68.8823 118.232 69.5172 119.114 70.3525 119.753C71.1877 120.384 72.2104 120.699 73.4206 120.699C74.682 120.699 75.7346 120.366 76.5783 119.702C77.4306 119.028 78.0698 118.125 78.4959 116.991C78.9306 115.849 79.1479 114.58 79.1479 113.182C79.1479 111.801 78.9348 110.557 78.5087 109.449C78.0911 108.332 77.4561 107.45 76.6039 106.803C75.7601 106.146 74.699 105.818 73.4206 105.818C72.1934 105.818 71.1621 106.129 70.3269 106.751C69.4917 107.365 68.861 108.226 68.4348 109.334C68.0087 110.433 67.7956 111.716 67.7956 113.182ZM94.7445 123.409C92.9718 123.409 91.4164 122.987 90.0783 122.143C88.7488 121.3 87.709 120.119 86.959 118.602C86.2175 117.085 85.8468 115.312 85.8468 113.284C85.8468 111.239 86.2175 109.453 86.959 107.928C87.709 106.402 88.7488 105.217 90.0783 104.374C91.4164 103.53 92.9718 103.108 94.7445 103.108C96.5172 103.108 98.0684 103.53 99.3979 104.374C100.736 105.217 101.776 106.402 102.517 107.928C103.267 109.453 103.642 111.239 103.642 113.284C103.642 115.312 103.267 117.085 102.517 118.602C101.776 120.119 100.736 121.3 99.3979 122.143C98.0684 122.987 96.5172 123.409 94.7445 123.409ZM94.7445 120.699C96.0911 120.699 97.199 120.354 98.0684 119.663C98.9377 118.973 99.5811 118.065 99.9988 116.94C100.416 115.815 100.625 114.597 100.625 113.284C100.625 111.972 100.416 110.749 99.9988 109.615C99.5811 108.482 98.9377 107.565 98.0684 106.866C97.199 106.168 96.0911 105.818 94.7445 105.818C93.3979 105.818 92.29 106.168 91.4206 106.866C90.5513 107.565 89.9078 108.482 89.4902 109.615C89.0726 110.749 88.8638 111.972 88.8638 113.284C88.8638 114.597 89.0726 115.815 89.4902 116.94C89.9078 118.065 90.5513 118.973 91.4206 119.663C92.29 120.354 93.3979 120.699 94.7445 120.699ZM108.248 123V103.364H111.162V106.33H111.367C111.725 105.358 112.373 104.57 113.31 103.964C114.248 103.359 115.305 103.057 116.481 103.057C116.702 103.057 116.979 103.061 117.312 103.07C117.644 103.078 117.895 103.091 118.066 103.108V106.176C117.964 106.151 117.729 106.112 117.363 106.061C117.005 106.001 116.626 105.972 116.225 105.972C115.27 105.972 114.418 106.172 113.668 106.572C112.927 106.964 112.339 107.51 111.904 108.209C111.478 108.899 111.265 109.687 111.265 110.574V123H108.248ZM131.412 103.364V105.92H121.236V103.364H131.412ZM124.202 98.6591H127.219V117.375C127.219 118.227 127.343 118.866 127.59 119.293C127.846 119.71 128.17 119.991 128.562 120.136C128.962 120.273 129.384 120.341 129.827 120.341C130.16 120.341 130.432 120.324 130.645 120.29C130.858 120.247 131.029 120.213 131.157 120.188L131.77 122.898C131.566 122.974 131.28 123.051 130.914 123.128C130.547 123.213 130.083 123.256 129.52 123.256C128.668 123.256 127.833 123.072 127.015 122.706C126.205 122.339 125.532 121.781 124.995 121.031C124.466 120.281 124.202 119.335 124.202 118.193V98.6591ZM147.15 109.909C147.15 106.687 147.567 103.726 148.403 101.024C149.246 98.3139 150.448 95.821 152.008 93.5455H154.667C154.053 94.3892 153.478 95.429 152.941 96.6648C152.412 97.892 151.948 99.2429 151.547 100.717C151.147 102.183 150.831 103.7 150.601 105.268C150.38 106.837 150.269 108.384 150.269 109.909C150.269 111.938 150.465 113.996 150.857 116.084C151.249 118.172 151.778 120.111 152.442 121.901C153.107 123.69 153.849 125.148 154.667 126.273H152.008C150.448 123.997 149.246 121.509 148.403 118.807C147.567 116.097 147.15 113.131 147.15 109.909ZM167.607 123H159.528V96.8182H167.965C170.505 96.8182 172.678 97.3423 174.485 98.3906C176.292 99.4304 177.677 100.926 178.64 102.878C179.603 104.821 180.085 107.148 180.085 109.858C180.085 112.585 179.599 114.933 178.627 116.902C177.656 118.862 176.241 120.371 174.383 121.428C172.525 122.476 170.267 123 167.607 123ZM162.698 120.188H167.403C169.568 120.188 171.362 119.77 172.785 118.935C174.208 118.099 175.269 116.911 175.968 115.368C176.667 113.825 177.017 111.989 177.017 109.858C177.017 107.744 176.671 105.925 175.981 104.399C175.291 102.865 174.259 101.689 172.887 100.871C171.515 100.044 169.806 99.6307 167.761 99.6307H162.698V120.188ZM190.159 123L182.999 96.8182H186.221L191.693 118.142H191.948L197.522 96.8182H201.102L206.676 118.142H206.931L212.403 96.8182H215.624L208.465 123H205.193L199.414 102.136H199.21L193.431 123H190.159ZM239.412 105H236.242C236.055 104.088 235.726 103.287 235.258 102.597C234.797 101.906 234.235 101.327 233.57 100.858C232.914 100.381 232.185 100.023 231.384 99.7841C230.583 99.5455 229.748 99.4261 228.878 99.4261C227.293 99.4261 225.857 99.8267 224.57 100.628C223.292 101.429 222.273 102.609 221.515 104.169C220.765 105.729 220.39 107.642 220.39 109.909C220.39 112.176 220.765 114.089 221.515 115.649C222.273 117.209 223.292 118.389 224.57 119.19C225.857 119.991 227.293 120.392 228.878 120.392C229.748 120.392 230.583 120.273 231.384 120.034C232.185 119.795 232.914 119.442 233.57 118.973C234.235 118.496 234.797 117.912 235.258 117.222C235.726 116.523 236.055 115.722 236.242 114.818H239.412C239.174 116.156 238.739 117.354 238.108 118.411C237.478 119.467 236.694 120.366 235.756 121.108C234.819 121.841 233.766 122.399 232.599 122.783C231.439 123.166 230.199 123.358 228.878 123.358C226.645 123.358 224.66 122.812 222.921 121.722C221.182 120.631 219.814 119.08 218.817 117.068C217.82 115.057 217.322 112.67 217.322 109.909C217.322 107.148 217.82 104.761 218.817 102.75C219.814 100.739 221.182 99.1875 222.921 98.0966C224.66 97.0057 226.645 96.4602 228.878 96.4602C230.199 96.4602 231.439 96.652 232.599 97.0355C233.766 97.419 234.819 97.9815 235.756 98.723C236.694 99.456 237.478 100.351 238.108 101.408C238.739 102.456 239.174 103.653 239.412 105ZM250.57 109.909C250.57 113.131 250.148 116.097 249.304 118.807C248.469 121.509 247.271 123.997 245.712 126.273H243.053C243.666 125.429 244.237 124.389 244.766 123.153C245.303 121.926 245.771 120.58 246.172 119.114C246.573 117.639 246.884 116.118 247.105 114.55C247.335 112.973 247.45 111.426 247.45 109.909C247.45 107.881 247.254 105.822 246.862 103.734C246.47 101.646 245.942 99.7074 245.277 97.9176C244.612 96.1278 243.871 94.6705 243.053 93.5455H245.712C247.271 95.821 248.469 98.3139 249.304 101.024C250.148 103.726 250.57 106.687 250.57 109.909ZM34.1288 181.148C33.7208 179.564 33.3608 178.016 33.0488 176.504C32.7608 174.992 32.5448 173.6 32.4008 172.328C32.2568 171.056 32.1848 170.012 32.1848 169.196C32.1848 167.732 32.4488 166.52 32.9768 165.56C33.5048 164.576 34.2128 163.82 35.1008 163.292C35.9888 162.74 36.9728 162.368 38.0528 162.176C39.1568 161.984 40.2848 161.924 41.4368 161.996C42.6128 162.044 43.7168 162.188 44.7488 162.428C44.8208 161.612 44.7728 160.832 44.6048 160.088C44.4608 159.32 44.2088 158.648 43.8488 158.072C43.5128 157.472 43.0808 157.004 42.5528 156.668C42.0248 156.332 41.4248 156.164 40.7528 156.164C40.1528 156.164 39.5888 156.296 39.0608 156.56C38.5328 156.824 38.0288 157.232 37.5488 157.784C37.0928 158.312 36.6488 158.972 36.2168 159.764L33.9848 158.54C34.6088 157.244 35.2928 156.212 36.0368 155.444C36.8048 154.676 37.6088 154.124 38.4488 153.788C39.2888 153.428 40.1168 153.248 40.9328 153.248C42.1568 153.248 43.1888 153.512 44.0288 154.04C44.8688 154.544 45.5288 155.216 46.0088 156.056C46.5128 156.872 46.8728 157.76 47.0888 158.72C47.3288 159.656 47.4488 160.556 47.4488 161.42C47.4488 162.02 47.3768 162.62 47.2328 163.22C47.0888 163.82 46.9088 164.36 46.6928 164.84C46.5008 165.32 46.3088 165.692 46.1168 165.956C44.8208 165.572 43.6088 165.296 42.4808 165.128C41.3528 164.96 40.3328 164.912 39.4208 164.984C38.5328 165.032 37.7648 165.224 37.1168 165.56C36.4688 165.896 35.9768 166.376 35.6408 167C35.3048 167.624 35.1368 168.416 35.1368 169.376C35.1368 170.264 35.2088 171.32 35.3528 172.544C35.4968 173.768 35.7008 175.052 35.9648 176.396C36.2288 177.764 36.5408 179.108 36.9008 180.428L34.1288 181.148ZM50.9903 175.28L50.3423 172.328C51.7823 172.136 53.1023 171.86 54.3023 171.5C55.5263 171.164 56.5703 170.672 57.4343 170.024C58.3223 169.376 59.0063 168.524 59.4863 167.468C59.9663 166.412 60.2063 165.092 60.2063 163.508C60.2063 161.876 59.9063 160.52 59.3063 159.44C58.7063 158.36 57.9263 157.82 56.9663 157.82C56.4623 157.82 55.9943 158.012 55.5623 158.396C55.1303 158.78 54.7703 159.296 54.4823 159.944C54.2183 160.592 54.0863 161.3 54.0863 162.068C54.0863 162.5 54.1823 162.86 54.3743 163.148C54.5663 163.412 54.8423 163.628 55.2023 163.796C55.5863 163.94 56.0663 164.048 56.6423 164.12C57.2183 164.192 57.8903 164.228 58.6583 164.228H66.2543C66.7583 164.228 67.1183 164.372 67.3343 164.66C67.5743 164.924 67.6943 165.248 67.6943 165.632C67.6943 166.016 67.5263 166.376 67.1903 166.712C66.8543 167.024 66.4223 167.18 65.8943 167.18H57.2903C56.2103 167.18 55.2023 167.024 54.2663 166.712C53.3543 166.4 52.6103 165.92 52.0343 165.272C51.4823 164.6 51.2063 163.724 51.2063 162.644C51.2063 161.636 51.3623 160.676 51.6743 159.764C51.9863 158.828 52.4063 158 52.9343 157.28C53.4863 156.536 54.1223 155.948 54.8423 155.516C55.5863 155.084 56.3903 154.868 57.2543 154.868C58.3583 154.868 59.3423 155.192 60.2063 155.84C61.0703 156.488 61.7543 157.472 62.2583 158.792C62.7623 160.088 63.0143 161.732 63.0143 163.724C63.0143 165.956 62.5583 167.876 61.6463 169.484C60.7583 171.116 59.4143 172.412 57.6143 173.372C55.8383 174.332 53.6303 174.968 50.9903 175.28ZM65.8828 167.18L66.2428 164.228C67.4428 164.228 68.3788 164.144 69.0508 163.976C69.7228 163.784 70.2268 163.436 70.5628 162.932C70.9228 162.404 71.2108 161.648 71.4268 160.664C71.6428 159.68 71.9068 158.396 72.2188 156.812L75.0268 157.352C74.9308 157.784 74.8228 158.264 74.7028 158.792C74.5828 159.32 74.4748 159.848 74.3788 160.376C74.3068 160.88 74.2708 161.324 74.2708 161.708C74.2708 162.068 74.2948 162.404 74.3428 162.716C74.3908 163.028 74.5708 163.292 74.8828 163.508C75.1948 163.724 75.7228 163.904 76.4668 164.048C77.2108 164.168 78.2788 164.228 79.6708 164.228C80.1748 164.228 80.5348 164.372 80.7508 164.66C80.9908 164.924 81.1108 165.248 81.1108 165.632C81.1108 166.016 80.9428 166.376 80.6068 166.712C80.2708 167.024 79.8388 167.18 79.3108 167.18C77.8468 167.18 76.6828 167.108 75.8188 166.964C74.9548 166.796 74.2948 166.556 73.8388 166.244C73.4068 165.932 73.0948 165.548 72.9028 165.092C72.7348 164.612 72.6028 164.06 72.5068 163.436L73.5868 163.508C73.2028 164.276 72.7828 164.9 72.3268 165.38C71.8948 165.86 71.3908 166.232 70.8148 166.496C70.2388 166.76 69.5428 166.94 68.7268 167.036C67.9348 167.132 66.9868 167.18 65.8828 167.18ZM75.4948 153.104C74.9908 153.104 74.5588 152.936 74.1988 152.6C73.8628 152.24 73.6948 151.82 73.6948 151.34C73.6948 150.86 73.8628 150.44 74.1988 150.08C74.5588 149.72 74.9908 149.54 75.4948 149.54C75.9748 149.54 76.3828 149.72 76.7188 150.08C77.0788 150.44 77.2588 150.86 77.2588 151.34C77.2588 151.82 77.0788 152.24 76.7188 152.6C76.3828 152.936 75.9748 153.104 75.4948 153.104ZM70.5628 153.104C70.0588 153.104 69.6268 152.936 69.2668 152.6C68.9308 152.24 68.7628 151.82 68.7628 151.34C68.7628 150.86 68.9308 150.44 69.2668 150.08C69.6268 149.72 70.0588 149.54 70.5628 149.54C71.0428 149.54 71.4508 149.72 71.7868 150.08C72.1468 150.44 72.3268 150.86 72.3268 151.34C72.3268 151.82 72.1468 152.24 71.7868 152.6C71.4508 152.936 71.0428 153.104 70.5628 153.104ZM79.3125 167.18L79.6725 164.228H82.4445C84.4365 164.228 85.9125 164.12 86.8725 163.904C87.8325 163.688 88.4565 163.4 88.7445 163.04C89.0565 162.68 89.2125 162.308 89.2125 161.924C89.2125 161.348 88.9965 160.712 88.5645 160.016C88.1325 159.32 87.5805 158.612 86.9085 157.892C86.2365 157.148 85.5165 156.416 84.7485 155.696C84.0045 154.976 83.2965 154.316 82.6245 153.716C81.9525 153.116 81.4005 152.6 80.9685 152.168C80.5365 151.712 80.3205 151.388 80.3205 151.196C80.3205 150.836 80.3445 150.488 80.3925 150.152C80.4645 149.816 80.5485 149.504 80.6445 149.216C80.7645 148.928 80.9085 148.7 81.0765 148.532C81.5565 148.028 82.2165 147.5 83.0565 146.948C83.8965 146.372 84.8685 145.796 85.9725 145.22C87.0765 144.62 88.2525 144.02 89.5005 143.42C90.7485 142.796 92.0085 142.172 93.2805 141.548L94.5045 144.212C93.3525 144.788 92.2005 145.364 91.0485 145.94C89.8965 146.492 88.7805 147.044 87.7005 147.596C86.6205 148.148 85.6005 148.712 84.6405 149.288C83.7045 149.84 82.8525 150.404 82.0845 150.98L82.3005 149.756C83.3805 150.668 84.4005 151.544 85.3605 152.384C86.3205 153.224 87.2325 154.088 88.0965 154.976C88.9605 155.84 89.7645 156.776 90.5085 157.784C91.2525 158.792 91.9485 159.908 92.5965 161.132C93.1005 162.068 93.6885 162.752 94.3605 163.184C95.0325 163.616 95.6925 163.904 96.3405 164.048C97.0125 164.168 97.5525 164.228 97.9605 164.228C98.4645 164.228 98.8245 164.372 99.0405 164.66C99.2805 164.924 99.4005 165.248 99.4005 165.632C99.4005 166.016 99.2325 166.376 98.8965 166.712C98.5605 167.024 98.1285 167.18 97.6005 167.18C96.9525 167.18 96.1845 167.084 95.2965 166.892C94.4325 166.676 93.5805 166.268 92.7405 165.668C91.9005 165.068 91.2045 164.156 90.6525 162.932L91.7325 163.364C91.3725 164.012 90.9525 164.576 90.4725 165.056C90.0165 165.512 89.4285 165.908 88.7085 166.244C87.9885 166.556 87.1125 166.796 86.0805 166.964C85.0485 167.108 83.7885 167.18 82.3005 167.18H79.3125ZM97.5938 167.18L97.9538 164.228C98.6258 164.228 99.1898 164.084 99.6458 163.796C100.102 163.508 100.546 163.028 100.978 162.356C101.41 161.684 101.878 160.784 102.382 159.656C103.078 158.12 103.762 156.956 104.434 156.164C105.13 155.372 105.814 154.832 106.486 154.544C107.182 154.256 107.866 154.112 108.538 154.112C109.354 154.112 110.11 154.328 110.806 154.76C111.502 155.168 112.114 155.72 112.642 156.416C113.17 157.112 113.578 157.88 113.866 158.72C114.178 159.536 114.334 160.352 114.334 161.168C114.334 162.608 114.082 163.76 113.578 164.624C113.074 165.464 112.426 166.076 111.634 166.46C110.866 166.82 110.062 167 109.222 167C108.478 167 107.518 166.856 106.342 166.568C105.19 166.28 103.726 165.548 101.95 164.372L103.354 162.104C104.53 162.848 105.586 163.364 106.522 163.652C107.482 163.916 108.274 164.048 108.898 164.048C109.594 164.048 110.146 163.952 110.554 163.76C110.962 163.544 111.262 163.244 111.454 162.86C111.646 162.476 111.742 162.044 111.742 161.564C111.742 160.868 111.574 160.172 111.238 159.476C110.902 158.78 110.47 158.204 109.942 157.748C109.438 157.292 108.898 157.064 108.322 157.064C107.89 157.064 107.47 157.184 107.062 157.424C106.654 157.664 106.234 158.108 105.802 158.756C105.37 159.404 104.878 160.34 104.326 161.564C103.75 162.86 103.198 163.892 102.67 164.66C102.166 165.404 101.65 165.956 101.122 166.316C100.594 166.676 100.042 166.904 99.4658 167C98.9138 167.12 98.2898 167.18 97.5938 167.18ZM127.713 167.036C127.713 166.46 127.761 165.848 127.857 165.2C127.977 164.528 128.145 163.82 128.361 163.076C128.601 162.308 128.889 161.504 129.225 160.664L131.817 161.672C131.577 162.344 131.361 162.98 131.169 163.58C131.001 164.18 130.869 164.744 130.773 165.272C130.701 165.8 130.665 166.304 130.665 166.784C130.665 167.936 130.965 168.932 131.565 169.772C132.189 170.612 133.041 171.26 134.121 171.716C135.201 172.172 136.461 172.4 137.901 172.4C139.653 172.4 141.093 172.148 142.221 171.644C143.373 171.14 144.261 170.372 144.885 169.34C145.533 168.308 145.965 167 146.181 165.416C146.397 163.808 146.469 161.924 146.397 159.764L145.713 141.296H148.701L149.313 160.52C149.361 162.128 149.289 163.676 149.097 165.164C148.929 166.628 148.593 167.972 148.089 169.196C147.585 170.444 146.889 171.524 146.001 172.436C145.113 173.372 143.997 174.092 142.653 174.596C141.309 175.1 139.689 175.352 137.793 175.352C136.521 175.352 135.285 175.184 134.085 174.848C132.885 174.512 131.805 174.008 130.845 173.336C129.885 172.664 129.117 171.8 128.541 170.744C127.989 169.712 127.713 168.476 127.713 167.036ZM154.976 167L154.256 141.296H157.172L157.892 167H154.976ZM170.511 175.28L169.467 172.544C171.891 171.776 173.751 170.852 175.047 169.772C176.367 168.716 177.267 167.612 177.747 166.46C178.251 165.308 178.503 164.204 178.503 163.148C178.503 162.476 178.431 161.828 178.287 161.204C178.143 160.58 177.891 159.872 177.531 159.08C177.171 158.288 176.667 157.304 176.019 156.128L178.647 154.796C179.559 156.356 180.207 157.832 180.591 159.224C180.999 160.616 181.203 161.84 181.203 162.896C181.203 164.408 180.951 165.776 180.447 167C179.967 168.224 179.319 169.304 178.503 170.24C177.711 171.2 176.835 172.016 175.875 172.688C174.939 173.36 173.991 173.912 173.031 174.344C172.095 174.776 171.255 175.088 170.511 175.28ZM194.062 167.18C192.142 167.18 190.666 166.964 189.634 166.532C188.626 166.1 187.93 165.428 187.546 164.516C187.162 163.604 186.946 162.428 186.898 160.988L186.178 141.296H189.13L189.85 159.836C189.898 161.012 190.006 161.924 190.174 162.572C190.366 163.196 190.774 163.628 191.398 163.868C192.046 164.108 193.054 164.228 194.422 164.228C194.926 164.228 195.286 164.372 195.502 164.66C195.742 164.924 195.862 165.248 195.862 165.632C195.862 166.016 195.694 166.376 195.358 166.712C195.022 167.024 194.59 167.18 194.062 167.18ZM219.623 167.18C218.999 167.18 218.207 167.12 217.247 167C216.311 166.856 215.351 166.616 214.367 166.28C213.407 165.944 212.591 165.476 211.919 164.876L214.871 163.4C215.711 163.736 216.575 163.964 217.463 164.084C218.375 164.18 219.215 164.228 219.983 164.228C220.487 164.228 220.847 164.372 221.063 164.66C221.303 164.924 221.423 165.248 221.423 165.632C221.423 166.016 221.255 166.376 220.919 166.712C220.583 167.024 220.151 167.18 219.623 167.18ZM194.062 167.18L194.423 164.228H201.947C204.035 164.228 205.835 164.144 207.347 163.976C208.883 163.784 210.143 163.508 211.127 163.148C212.111 162.788 212.843 162.332 213.323 161.78C213.803 161.204 214.043 160.532 214.043 159.764C214.043 159.356 213.911 158.912 213.647 158.432C213.383 157.952 212.975 157.544 212.423 157.208C211.871 156.848 211.139 156.668 210.227 156.668C209.075 156.668 207.923 156.968 206.771 157.568C205.643 158.168 204.563 158.924 203.531 159.836C202.523 160.724 201.623 161.636 200.831 162.572C200.039 163.508 199.403 164.324 198.923 165.02L195.791 164.912C196.559 163.664 197.471 162.392 198.527 161.096C199.607 159.776 200.783 158.564 202.055 157.46C203.351 156.332 204.707 155.432 206.123 154.76C207.539 154.064 208.979 153.716 210.443 153.716C211.763 153.716 212.891 153.992 213.827 154.544C214.787 155.072 215.519 155.792 216.023 156.704C216.551 157.616 216.815 158.648 216.815 159.8C216.815 160.928 216.407 162.068 215.591 163.22C214.775 164.348 213.371 165.236 211.379 165.884C210.371 166.22 209.219 166.484 207.923 166.676C206.627 166.868 205.151 167 203.495 167.072C201.839 167.144 199.955 167.18 197.843 167.18H194.062ZM197.483 163.616L196.763 141.296H199.679L200.399 161.096L197.483 163.616ZM219.621 167.18L219.981 164.228C220.653 164.228 221.217 164.084 221.673 163.796C222.129 163.508 222.573 163.028 223.005 162.356C223.437 161.684 223.905 160.784 224.409 159.656C225.105 158.12 225.789 156.956 226.461 156.164C227.157 155.372 227.841 154.832 228.513 154.544C229.209 154.256 229.893 154.112 230.565 154.112C231.381 154.112 232.137 154.328 232.833 154.76C233.529 155.168 234.141 155.72 234.669 156.416C235.197 157.112 235.605 157.88 235.893 158.72C236.205 159.536 236.361 160.352 236.361 161.168C236.361 162.608 236.109 163.76 235.605 164.624C235.101 165.464 234.453 166.076 233.661 166.46C232.893 166.82 232.089 167 231.249 167C230.505 167 229.545 166.856 228.369 166.568C227.217 166.28 225.753 165.548 223.977 164.372L225.381 162.104C226.557 162.848 227.613 163.364 228.549 163.652C229.509 163.916 230.301 164.048 230.925 164.048C231.621 164.048 232.173 163.952 232.581 163.76C232.989 163.544 233.289 163.244 233.481 162.86C233.673 162.476 233.769 162.044 233.769 161.564C233.769 160.868 233.601 160.172 233.265 159.476C232.929 158.78 232.497 158.204 231.969 157.748C231.465 157.292 230.925 157.064 230.349 157.064C229.917 157.064 229.497 157.184 229.089 157.424C228.681 157.664 228.261 158.108 227.829 158.756C227.397 159.404 226.905 160.34 226.353 161.564C225.777 162.86 225.225 163.892 224.697 164.66C224.193 165.404 223.677 165.956 223.149 166.316C222.621 166.676 222.069 166.904 221.493 167C220.941 167.12 220.317 167.18 219.621 167.18ZM33.4589 211.036C33.4589 210.46 33.5069 209.848 33.6029 209.2C33.7229 208.528 33.8909 207.82 34.1069 207.076C34.3469 206.308 34.6349 205.504 34.9709 204.664L37.5629 205.672C37.3229 206.344 37.1069 206.98 36.9149 207.58C36.7469 208.18 36.6149 208.744 36.5189 209.272C36.4469 209.8 36.4109 210.304 36.4109 210.784C36.4109 211.792 36.6269 212.644 37.0589 213.34C37.5149 214.06 38.1389 214.648 38.9309 215.104C39.7229 215.56 40.6229 215.896 41.6309 216.112C42.6629 216.328 43.7549 216.436 44.9069 216.436C46.2989 216.436 47.5949 216.316 48.7949 216.076C50.0189 215.836 51.0869 215.488 51.9989 215.032C52.9349 214.6 53.6669 214.096 54.1949 213.52C54.7229 212.968 54.9869 212.368 54.9869 211.72C54.9869 211.408 54.8669 211.12 54.6269 210.856C54.3869 210.592 54.0269 210.34 53.5469 210.1C53.0669 209.86 52.4909 209.632 51.8189 209.416C51.1469 209.176 50.3789 208.936 49.5149 208.696L50.1989 205.708C51.4469 206.188 52.5509 206.596 53.5109 206.932C54.4709 207.244 55.3109 207.496 56.0309 207.688C56.7509 207.88 57.3749 208.024 57.9029 208.12C58.4309 208.192 58.8749 208.228 59.2349 208.228C59.7389 208.228 60.0989 208.372 60.3149 208.66C60.5549 208.924 60.6749 209.248 60.6749 209.632C60.6749 210.016 60.5069 210.376 60.1709 210.712C59.8349 211.024 59.4029 211.18 58.8749 211.18C58.7309 211.18 58.5869 211.18 58.4429 211.18C58.2989 211.18 58.1429 211.18 57.9749 211.18C57.8309 211.18 57.6869 211.18 57.5429 211.18C57.5909 211.396 57.6269 211.564 57.6509 211.684C57.6749 211.828 57.6869 212.008 57.6869 212.224C57.6869 213.112 57.3749 213.976 56.7509 214.816C56.1509 215.656 55.2629 216.412 54.0869 217.084C52.9109 217.78 51.4829 218.332 49.8029 218.74C48.1469 219.148 46.2509 219.352 44.1149 219.352C42.2189 219.352 40.4549 219.04 38.8229 218.416C37.2149 217.816 35.9189 216.904 34.9349 215.68C33.9509 214.456 33.4589 212.908 33.4589 211.036ZM46.7069 226.156C46.2029 226.156 45.7709 225.976 45.4109 225.616C45.0749 225.28 44.9069 224.872 44.9069 224.392C44.9069 223.912 45.0749 223.492 45.4109 223.132C45.7709 222.772 46.2029 222.592 46.7069 222.592C47.1869 222.592 47.5949 222.772 47.9309 223.132C48.2909 223.492 48.4709 223.912 48.4709 224.392C48.4709 224.872 48.2909 225.28 47.9309 225.616C47.5949 225.976 47.1869 226.156 46.7069 226.156ZM41.7749 226.156C41.2709 226.156 40.8389 225.976 40.4789 225.616C40.1429 225.28 39.9749 224.872 39.9749 224.392C39.9749 223.912 40.1429 223.492 40.4789 223.132C40.8389 222.772 41.2709 222.592 41.7749 222.592C42.2549 222.592 42.6629 222.772 42.9989 223.132C43.3589 223.492 43.5389 223.912 43.5389 224.392C43.5389 224.872 43.3589 225.28 42.9989 225.616C42.6629 225.976 42.2549 226.156 41.7749 226.156ZM58.8867 211.18L59.2467 208.228C60.4227 208.228 61.3587 208.156 62.0547 208.012C62.7507 207.868 63.2547 207.58 63.5667 207.148C63.8787 206.692 64.0347 206.02 64.0347 205.132C64.0347 204.532 63.9387 203.824 63.7467 203.008C63.5547 202.168 63.3027 201.28 62.9907 200.344C62.6787 199.408 62.3427 198.484 61.9827 197.572L64.8987 196.492C65.2107 197.26 65.4987 198.136 65.7627 199.12C66.0507 200.104 66.2907 201.076 66.4827 202.036C66.6747 202.996 66.7707 203.836 66.7707 204.556C66.7707 205.516 66.6627 206.368 66.4467 207.112C66.2547 207.832 65.9547 208.456 65.5467 208.984C65.1387 209.488 64.6107 209.908 63.9627 210.244C63.3387 210.556 62.6067 210.796 61.7667 210.964C60.9267 211.108 59.9667 211.18 58.8867 211.18ZM62.7387 217.876C62.2347 217.876 61.8027 217.696 61.4427 217.336C61.1067 217 60.9387 216.592 60.9387 216.112C60.9387 215.632 61.1067 215.212 61.4427 214.852C61.8027 214.492 62.2347 214.312 62.7387 214.312C63.2187 214.312 63.6267 214.492 63.9627 214.852C64.3227 215.212 64.5027 215.632 64.5027 216.112C64.5027 216.592 64.3227 217 63.9627 217.336C63.6267 217.696 63.2187 217.876 62.7387 217.876ZM69.8147 209.38L71.2547 206.896C71.7347 207.208 72.4067 207.508 73.2707 207.796C74.1347 208.084 75.1427 208.228 76.2947 208.228C77.4947 208.228 78.4427 208.108 79.1387 207.868C79.8587 207.628 80.3747 207.28 80.6867 206.824C81.0227 206.344 81.1907 205.792 81.1907 205.168C81.1907 204.688 81.0827 204.1 80.8667 203.404C80.6747 202.684 80.2427 201.724 79.5707 200.524C78.8987 199.3 77.8667 197.704 76.4747 195.736L78.9587 194.116C80.2307 195.868 81.2387 197.452 81.9827 198.868C82.7507 200.284 83.2907 201.532 83.6027 202.612C83.9387 203.668 84.1067 204.58 84.1067 205.348C84.1067 206.308 83.8667 207.244 83.3867 208.156C82.9067 209.044 82.1027 209.776 80.9747 210.352C79.8467 210.928 78.2867 211.216 76.2947 211.216C75.4307 211.216 74.5907 211.144 73.7747 211C72.9827 210.856 72.2507 210.652 71.5787 210.388C70.9067 210.1 70.3187 209.764 69.8147 209.38ZM96.9159 211.036C96.9159 210.46 96.9639 209.848 97.0599 209.2C97.1799 208.528 97.3479 207.82 97.5639 207.076C97.8039 206.308 98.0919 205.504 98.4279 204.664L101.02 205.672C100.78 206.344 100.564 206.98 100.372 207.58C100.204 208.18 100.072 208.744 99.9759 209.272C99.9039 209.8 99.8679 210.304 99.8679 210.784C99.8679 211.792 100.084 212.644 100.516 213.34C100.972 214.06 101.596 214.648 102.388 215.104C103.18 215.56 104.08 215.896 105.088 216.112C106.12 216.328 107.212 216.436 108.364 216.436C109.756 216.436 111.052 216.316 112.252 216.076C113.476 215.836 114.544 215.488 115.456 215.032C116.392 214.6 117.124 214.096 117.652 213.52C118.18 212.968 118.444 212.368 118.444 211.72C118.444 211.408 118.324 211.12 118.084 210.856C117.844 210.592 117.484 210.34 117.004 210.1C116.524 209.86 115.948 209.632 115.276 209.416C114.604 209.176 113.836 208.936 112.972 208.696L113.656 205.708C114.904 206.188 116.008 206.596 116.968 206.932C117.928 207.244 118.768 207.496 119.488 207.688C120.208 207.88 120.832 208.024 121.36 208.12C121.888 208.192 122.332 208.228 122.692 208.228C123.196 208.228 123.556 208.372 123.772 208.66C124.012 208.924 124.132 209.248 124.132 209.632C124.132 210.016 123.964 210.376 123.628 210.712C123.292 211.024 122.86 211.18 122.332 211.18C122.188 211.18 122.044 211.18 121.9 211.18C121.756 211.18 121.6 211.18 121.432 211.18C121.288 211.18 121.144 211.18 121 211.18C121.048 211.396 121.084 211.564 121.108 211.684C121.132 211.828 121.144 212.008 121.144 212.224C121.144 213.112 120.832 213.976 120.208 214.816C119.608 215.656 118.72 216.412 117.544 217.084C116.368 217.78 114.94 218.332 113.26 218.74C111.604 219.148 109.708 219.352 107.572 219.352C105.676 219.352 103.912 219.04 102.28 218.416C100.672 217.816 99.3759 216.904 98.3919 215.68C97.4079 214.456 96.9159 212.908 96.9159 211.036ZM110.164 226.156C109.66 226.156 109.228 225.976 108.868 225.616C108.532 225.28 108.364 224.872 108.364 224.392C108.364 223.912 108.532 223.492 108.868 223.132C109.228 222.772 109.66 222.592 110.164 222.592C110.644 222.592 111.052 222.772 111.388 223.132C111.748 223.492 111.928 223.912 111.928 224.392C111.928 224.872 111.748 225.28 111.388 225.616C111.052 225.976 110.644 226.156 110.164 226.156ZM105.232 226.156C104.728 226.156 104.296 225.976 103.936 225.616C103.6 225.28 103.432 224.872 103.432 224.392C103.432 223.912 103.6 223.492 103.936 223.132C104.296 222.772 104.728 222.592 105.232 222.592C105.712 222.592 106.12 222.772 106.456 223.132C106.816 223.492 106.996 223.912 106.996 224.392C106.996 224.872 106.816 225.28 106.456 225.616C106.12 225.976 105.712 226.156 105.232 226.156ZM122.344 211.18L122.704 208.228C123.304 208.228 123.964 208.228 124.684 208.228C125.428 208.204 126.172 208.18 126.916 208.156C127.684 208.132 128.392 208.084 129.04 208.012C129.688 207.916 130.228 207.796 130.66 207.652C131.524 207.34 132.196 206.956 132.676 206.5C133.156 206.02 133.492 205.396 133.684 204.628C133.9 203.836 134.008 202.828 134.008 201.604C134.008 200.596 133.876 199.66 133.612 198.796C133.348 197.932 132.976 197.236 132.496 196.708C132.016 196.18 131.44 195.916 130.768 195.916C130.216 195.916 129.712 196.132 129.256 196.564C128.824 196.972 128.476 197.5 128.212 198.148C127.972 198.796 127.852 199.444 127.852 200.092C127.852 200.596 127.948 201.028 128.14 201.388C128.356 201.748 128.704 202.036 129.184 202.252C129.664 202.444 130.288 202.54 131.056 202.54C131.752 202.54 132.448 202.468 133.144 202.324C133.864 202.18 134.476 201.988 134.98 201.748L135.124 204.268C134.74 204.532 134.308 204.748 133.828 204.916C133.348 205.084 132.844 205.204 132.316 205.276C131.788 205.348 131.26 205.384 130.732 205.384C129.508 205.384 128.464 205.192 127.6 204.808C126.76 204.4 126.112 203.86 125.656 203.188C125.224 202.492 125.008 201.7 125.008 200.812C125.008 199.9 125.152 198.988 125.44 198.076C125.728 197.14 126.136 196.288 126.664 195.52C127.192 194.752 127.828 194.14 128.572 193.684C129.316 193.204 130.144 192.964 131.056 192.964C132.352 192.964 133.42 193.384 134.26 194.224C135.124 195.064 135.76 196.168 136.168 197.536C136.6 198.88 136.816 200.308 136.816 201.82C136.816 203.62 136.504 205.168 135.88 206.464C135.28 207.736 134.272 208.792 132.856 209.632C132.304 209.944 131.632 210.208 130.84 210.424C130.072 210.616 129.22 210.772 128.284 210.892C127.372 211.012 126.412 211.084 125.404 211.108C124.396 211.156 123.376 211.18 122.344 211.18ZM130.372 189.256C129.868 189.256 129.436 189.088 129.076 188.752C128.74 188.392 128.572 187.972 128.572 187.492C128.572 187.012 128.74 186.592 129.076 186.232C129.436 185.872 129.868 185.692 130.372 185.692C130.852 185.692 131.26 185.872 131.596 186.232C131.956 186.592 132.136 187.012 132.136 187.492C132.136 187.972 131.956 188.392 131.596 188.752C131.26 189.088 130.852 189.256 130.372 189.256ZM149.65 211.036C149.65 210.46 149.698 209.848 149.794 209.2C149.914 208.528 150.082 207.82 150.298 207.076C150.538 206.308 150.826 205.504 151.162 204.664L153.754 205.672C153.514 206.344 153.298 206.98 153.106 207.58C152.938 208.18 152.806 208.744 152.71 209.272C152.638 209.8 152.602 210.304 152.602 210.784C152.602 211.792 152.818 212.644 153.25 213.34C153.706 214.06 154.33 214.648 155.122 215.104C155.914 215.56 156.814 215.896 157.822 216.112C158.854 216.328 159.946 216.436 161.098 216.436C162.49 216.436 163.786 216.316 164.986 216.076C166.21 215.836 167.278 215.488 168.19 215.032C169.126 214.6 169.858 214.096 170.386 213.52C170.914 212.968 171.178 212.368 171.178 211.72C171.178 211.408 171.058 211.12 170.818 210.856C170.578 210.592 170.218 210.34 169.738 210.1C169.258 209.86 168.682 209.632 168.01 209.416C167.338 209.176 166.57 208.936 165.706 208.696L166.39 205.708C167.638 206.188 168.742 206.596 169.702 206.932C170.662 207.244 171.502 207.496 172.222 207.688C172.942 207.88 173.566 208.024 174.094 208.12C174.622 208.192 175.066 208.228 175.426 208.228C175.93 208.228 176.29 208.372 176.506 208.66C176.746 208.924 176.866 209.248 176.866 209.632C176.866 210.016 176.698 210.376 176.362 210.712C176.026 211.024 175.594 211.18 175.066 211.18C174.922 211.18 174.778 211.18 174.634 211.18C174.49 211.18 174.334 211.18 174.166 211.18C174.022 211.18 173.878 211.18 173.734 211.18C173.782 211.396 173.818 211.564 173.842 211.684C173.866 211.828 173.878 212.008 173.878 212.224C173.878 213.112 173.566 213.976 172.942 214.816C172.342 215.656 171.454 216.412 170.278 217.084C169.102 217.78 167.674 218.332 165.994 218.74C164.338 219.148 162.442 219.352 160.306 219.352C158.41 219.352 156.646 219.04 155.014 218.416C153.406 217.816 152.11 216.904 151.126 215.68C150.142 214.456 149.65 212.908 149.65 211.036ZM162.898 226.156C162.394 226.156 161.962 225.976 161.602 225.616C161.266 225.28 161.098 224.872 161.098 224.392C161.098 223.912 161.266 223.492 161.602 223.132C161.962 222.772 162.394 222.592 162.898 222.592C163.378 222.592 163.786 222.772 164.122 223.132C164.482 223.492 164.662 223.912 164.662 224.392C164.662 224.872 164.482 225.28 164.122 225.616C163.786 225.976 163.378 226.156 162.898 226.156ZM157.966 226.156C157.462 226.156 157.03 225.976 156.67 225.616C156.334 225.28 156.166 224.872 156.166 224.392C156.166 223.912 156.334 223.492 156.67 223.132C157.03 222.772 157.462 222.592 157.966 222.592C158.446 222.592 158.854 222.772 159.19 223.132C159.55 223.492 159.73 223.912 159.73 224.392C159.73 224.872 159.55 225.28 159.19 225.616C158.854 225.976 158.446 226.156 157.966 226.156ZM175.078 211.18L175.402 208.228C176.77 208.228 177.73 208.096 178.282 207.832C178.834 207.568 179.146 207.1 179.218 206.428C179.314 205.756 179.338 204.82 179.29 203.62L178.606 185.296H181.522L182.242 203.296C182.29 204.568 182.242 205.696 182.098 206.68C181.978 207.664 181.666 208.492 181.162 209.164C180.682 209.836 179.95 210.34 178.966 210.676C178.006 211.012 176.71 211.18 175.078 211.18ZM186.518 219.28L185.87 216.328C187.31 216.136 188.63 215.86 189.83 215.5C191.054 215.164 192.098 214.672 192.962 214.024C193.85 213.376 194.534 212.524 195.014 211.468C195.494 210.412 195.734 209.092 195.734 207.508C195.734 206.764 195.662 206.056 195.518 205.384C195.374 204.688 195.158 204.076 194.87 203.548C194.582 203.02 194.234 202.6 193.826 202.288C193.442 201.976 192.998 201.82 192.494 201.82C191.942 201.82 191.438 202.036 190.982 202.468C190.55 202.876 190.202 203.404 189.938 204.052C189.698 204.7 189.578 205.348 189.578 205.996C189.578 206.5 189.674 206.944 189.866 207.328C190.082 207.688 190.43 207.964 190.91 208.156C191.39 208.348 192.014 208.444 192.782 208.444C193.478 208.444 194.174 208.372 194.87 208.228C195.59 208.084 196.202 207.892 196.706 207.652L196.85 210.172C196.274 210.58 195.59 210.868 194.798 211.036C194.03 211.204 193.25 211.288 192.458 211.288C191.546 211.288 190.73 211.192 190.01 211C189.314 210.808 188.714 210.532 188.21 210.172C187.73 209.788 187.358 209.308 187.094 208.732C186.854 208.156 186.734 207.484 186.734 206.716C186.734 205.804 186.878 204.892 187.166 203.98C187.454 203.044 187.862 202.192 188.39 201.424C188.918 200.656 189.554 200.044 190.298 199.588C191.042 199.108 191.87 198.868 192.782 198.868C193.742 198.868 194.582 199.12 195.302 199.624C196.022 200.104 196.622 200.764 197.102 201.604C197.582 202.444 197.942 203.392 198.182 204.448C198.422 205.504 198.542 206.596 198.542 207.724C198.542 209.956 198.086 211.876 197.174 213.484C196.286 215.116 194.942 216.412 193.142 217.372C191.366 218.332 189.158 218.968 186.518 219.28ZM208.271 208.228C209.471 208.228 210.419 208.108 211.115 207.868C211.835 207.628 212.351 207.28 212.663 206.824C212.999 206.344 213.167 205.792 213.167 205.168C213.167 204.688 213.035 204.112 212.771 203.44C212.531 202.768 212.195 202.024 211.763 201.208C211.331 200.368 210.827 199.492 210.251 198.58C209.699 197.644 209.099 196.696 208.451 195.736L210.935 194.116C211.871 195.532 212.687 196.876 213.383 198.148C214.079 199.396 214.667 200.572 215.147 201.676C215.627 202.756 216.011 203.776 216.299 204.736C216.635 205.792 217.007 206.572 217.415 207.076C217.847 207.58 218.291 207.904 218.747 208.048C219.203 208.168 219.623 208.228 220.007 208.228C220.511 208.228 220.883 208.372 221.123 208.66C221.363 208.924 221.483 209.248 221.483 209.632C221.483 210.016 221.315 210.376 220.979 210.712C220.643 211.024 220.211 211.18 219.683 211.18C218.891 211.18 218.111 211.036 217.343 210.748C216.599 210.436 215.951 209.944 215.399 209.272C214.847 208.576 214.463 207.652 214.247 206.5L215.687 205.348C215.687 206.308 215.483 207.244 215.075 208.156C214.667 209.044 213.923 209.776 212.843 210.352C211.787 210.928 210.263 211.216 208.271 211.216C207.407 211.216 206.567 211.144 205.751 211C204.959 210.856 204.227 210.652 203.555 210.388C202.883 210.1 202.295 209.764 201.791 209.38L203.231 206.896C203.711 207.208 204.383 207.508 205.247 207.796C206.111 208.084 207.119 208.228 208.271 208.228ZM219.691 211.18L220.015 208.228C221.383 208.228 222.343 208.096 222.895 207.832C223.447 207.568 223.759 207.1 223.831 206.428C223.927 205.756 223.951 204.82 223.903 203.62L223.219 185.296H226.135L226.855 203.296C226.903 204.568 226.855 205.696 226.711 206.68C226.591 207.664 226.279 208.492 225.775 209.164C225.295 209.836 224.563 210.34 223.579 210.676C222.619 211.012 221.323 211.18 219.691 211.18ZM232.355 211L231.635 185.296H234.551L235.271 211H232.355ZM44.0234 255.036C44.0234 254.46 44.0714 253.848 44.1674 253.2C44.2874 252.528 44.4554 251.82 44.6714 251.076C44.9114 250.308 45.1994 249.504 45.5354 248.664L48.1274 249.672C47.8874 250.344 47.6714 250.98 47.4794 251.58C47.3114 252.18 47.1794 252.744 47.0834 253.272C47.0114 253.8 46.9754 254.304 46.9754 254.784C46.9754 255.936 47.2754 256.932 47.8754 257.772C48.4994 258.612 49.3514 259.26 50.4314 259.716C51.5114 260.172 52.7714 260.4 54.2114 260.4C55.9634 260.4 57.4034 260.148 58.5314 259.644C59.6834 259.14 60.5714 258.372 61.1954 257.34C61.8434 256.308 62.2754 255 62.4914 253.416C62.7074 251.808 62.7794 249.924 62.7074 247.764L62.0234 229.296H65.0114L65.6234 248.52C65.6714 250.128 65.5994 251.676 65.4074 253.164C65.2394 254.628 64.9034 255.972 64.3994 257.196C63.8954 258.444 63.1994 259.524 62.3114 260.436C61.4234 261.372 60.3074 262.092 58.9634 262.596C57.6194 263.1 55.9994 263.352 54.1034 263.352C52.8314 263.352 51.5954 263.184 50.3954 262.848C49.1954 262.512 48.1154 262.008 47.1554 261.336C46.1954 260.664 45.4274 259.8 44.8514 258.744C44.2994 257.712 44.0234 256.476 44.0234 255.036ZM71.2866 255L70.5666 229.296H73.4826L74.2026 255H71.2866ZM75.7827 263.352L74.7387 260.616C76.4907 260.04 77.9427 259.38 79.0947 258.636C80.2707 257.892 81.1947 257.1 81.8667 256.26C82.5627 255.42 83.0547 254.568 83.3427 253.704C83.6307 252.816 83.7747 251.964 83.7747 251.148C83.7747 249.972 83.5107 248.784 82.9827 247.584C82.4787 246.36 81.9147 245.208 81.2907 244.128L83.9187 242.796C84.3747 243.636 84.7707 244.464 85.1067 245.28C85.4667 246.096 85.7787 246.864 86.0427 247.584C86.3307 248.304 86.5587 248.964 86.7267 249.564C87.0627 250.596 87.4947 251.304 88.0227 251.688C88.5747 252.048 89.3187 252.228 90.2547 252.228C90.7587 252.228 91.1187 252.372 91.3347 252.66C91.5747 252.924 91.6947 253.248 91.6947 253.632C91.6947 254.016 91.5267 254.376 91.1907 254.712C90.8547 255.024 90.4227 255.18 89.8947 255.18C88.8387 255.18 87.9747 255 87.3027 254.64C86.6547 254.256 86.1627 253.764 85.8267 253.164C85.4907 252.54 85.2627 251.892 85.1427 251.22L86.2947 251.868C86.2947 253.452 85.9347 254.892 85.2147 256.188C84.5187 257.508 83.6187 258.648 82.5147 259.608C81.4107 260.592 80.2587 261.396 79.0587 262.02C77.8587 262.644 76.7667 263.088 75.7827 263.352ZM89.9121 255.18L90.2721 252.228C91.4721 252.228 92.4081 252.144 93.0801 251.976C93.7521 251.784 94.2561 251.436 94.5921 250.932C94.9521 250.404 95.2401 249.648 95.4561 248.664C95.6721 247.68 95.9361 246.396 96.2481 244.812L99.0561 245.352C98.9601 245.784 98.8521 246.264 98.7321 246.792C98.6121 247.32 98.5041 247.848 98.4081 248.376C98.3361 248.88 98.3001 249.324 98.3001 249.708C98.3001 250.068 98.3241 250.404 98.3721 250.716C98.4201 251.028 98.6001 251.292 98.9121 251.508C99.2241 251.724 99.7521 251.904 100.496 252.048C101.24 252.168 102.308 252.228 103.7 252.228C104.204 252.228 104.564 252.372 104.78 252.66C105.02 252.924 105.14 253.248 105.14 253.632C105.14 254.016 104.972 254.376 104.636 254.712C104.3 255.024 103.868 255.18 103.34 255.18C101.876 255.18 100.712 255.108 99.8481 254.964C98.9841 254.796 98.3241 254.556 97.8681 254.244C97.4361 253.932 97.1241 253.548 96.9321 253.092C96.7641 252.612 96.6321 252.06 96.5361 251.436L97.6161 251.508C97.2321 252.276 96.8121 252.9 96.3561 253.38C95.9241 253.86 95.4201 254.232 94.8441 254.496C94.2681 254.76 93.5721 254.94 92.7561 255.036C91.9641 255.132 91.0161 255.18 89.9121 255.18ZM99.5241 241.104C99.0201 241.104 98.5881 240.936 98.2281 240.6C97.8921 240.24 97.7241 239.82 97.7241 239.34C97.7241 238.86 97.8921 238.44 98.2281 238.08C98.5881 237.72 99.0201 237.54 99.5241 237.54C100.004 237.54 100.412 237.72 100.748 238.08C101.108 238.44 101.288 238.86 101.288 239.34C101.288 239.82 101.108 240.24 100.748 240.6C100.412 240.936 100.004 241.104 99.5241 241.104ZM94.5921 241.104C94.0881 241.104 93.6561 240.936 93.2961 240.6C92.9601 240.24 92.7921 239.82 92.7921 239.34C92.7921 238.86 92.9601 238.44 93.2961 238.08C93.6561 237.72 94.0881 237.54 94.5921 237.54C95.0721 237.54 95.4801 237.72 95.8161 238.08C96.1761 238.44 96.3561 238.86 96.3561 239.34C96.3561 239.82 96.1761 240.24 95.8161 240.6C95.4801 240.936 95.0721 241.104 94.5921 241.104ZM103.342 255.18L103.702 252.228C104.71 252.228 105.502 252.144 106.078 251.976C106.654 251.784 107.086 251.436 107.374 250.932C107.686 250.404 107.95 249.648 108.166 248.664C108.382 247.68 108.646 246.396 108.958 244.812L111.766 245.352C111.67 245.784 111.562 246.264 111.442 246.792C111.322 247.32 111.214 247.848 111.118 248.376C111.046 248.88 111.01 249.324 111.01 249.708C111.01 250.188 111.118 250.62 111.334 251.004C111.55 251.388 112.018 251.688 112.738 251.904C113.458 252.12 114.562 252.228 116.05 252.228C116.554 252.228 116.914 252.372 117.13 252.66C117.37 252.924 117.49 253.248 117.49 253.632C117.49 254.016 117.322 254.376 116.986 254.712C116.65 255.024 116.218 255.18 115.69 255.18C114.13 255.18 112.906 255.048 112.018 254.784C111.13 254.496 110.482 254.076 110.074 253.524C109.666 252.948 109.39 252.252 109.246 251.436L110.326 251.508C109.942 252.276 109.522 252.9 109.066 253.38C108.634 253.86 108.154 254.232 107.626 254.496C107.098 254.76 106.486 254.94 105.79 255.036C105.094 255.132 104.278 255.18 103.342 255.18ZM108.958 241.104C108.454 241.104 108.022 240.936 107.662 240.6C107.326 240.24 107.158 239.82 107.158 239.34C107.158 238.86 107.326 238.44 107.662 238.08C108.022 237.72 108.454 237.54 108.958 237.54C109.438 237.54 109.846 237.72 110.182 238.08C110.542 238.44 110.722 238.86 110.722 239.34C110.722 239.82 110.542 240.24 110.182 240.6C109.846 240.936 109.438 241.104 108.958 241.104ZM115.682 255.18L116.042 252.228C116.81 252.228 117.434 252.18 117.914 252.084C118.394 251.964 118.79 251.688 119.102 251.256C119.438 250.8 119.75 250.092 120.038 249.132C120.326 248.172 120.662 246.828 121.046 245.1L123.746 245.856C123.65 246.264 123.542 246.732 123.422 247.26C123.302 247.764 123.194 248.292 123.098 248.844C123.002 249.372 122.954 249.864 122.954 250.32C122.954 250.92 123.182 251.388 123.638 251.724C124.094 252.06 124.922 252.228 126.122 252.228C126.842 252.228 127.43 252.168 127.886 252.048C128.342 251.928 128.714 251.64 129.002 251.184C129.314 250.728 129.59 249.996 129.83 248.988C130.07 247.98 130.322 246.6 130.586 244.848L133.322 245.352C133.25 245.784 133.166 246.312 133.07 246.936C132.974 247.56 132.878 248.184 132.782 248.808C132.71 249.408 132.674 249.912 132.674 250.32C132.674 250.656 132.746 250.98 132.89 251.292C133.058 251.58 133.37 251.808 133.826 251.976C134.306 252.144 135.014 252.228 135.95 252.228C136.646 252.228 137.246 252.144 137.75 251.976C138.278 251.808 138.674 251.496 138.938 251.04C139.226 250.584 139.37 249.948 139.37 249.132C139.37 248.22 139.154 247.08 138.722 245.712C138.314 244.32 137.846 242.94 137.318 241.572L140.234 240.492C140.546 241.26 140.834 242.136 141.098 243.12C141.386 244.104 141.626 245.076 141.818 246.036C142.01 246.996 142.106 247.836 142.106 248.556C142.106 249.66 141.962 250.632 141.674 251.472C141.386 252.312 140.978 253.008 140.45 253.56C139.922 254.088 139.274 254.496 138.506 254.784C137.738 255.048 136.874 255.18 135.914 255.18C134.786 255.18 133.862 255.048 133.142 254.784C132.422 254.52 131.87 254.124 131.486 253.596C131.102 253.044 130.85 252.348 130.73 251.508H131.954C131.498 252.54 131.018 253.32 130.514 253.848C130.01 254.376 129.386 254.736 128.642 254.928C127.898 255.096 126.914 255.18 125.69 255.18C125.09 255.18 124.442 255.084 123.746 254.892C123.074 254.7 122.486 254.328 121.982 253.776C121.478 253.2 121.178 252.348 121.082 251.22L122.162 251.004C121.754 252.228 121.25 253.14 120.65 253.74C120.074 254.316 119.378 254.7 118.562 254.892C117.746 255.084 116.786 255.18 115.682 255.18ZM161.777 252.228C162.977 252.228 163.925 252.108 164.621 251.868C165.341 251.628 165.857 251.28 166.169 250.824C166.505 250.344 166.673 249.792 166.673 249.168C166.673 248.688 166.541 248.112 166.277 247.44C166.037 246.768 165.701 246.024 165.269 245.208C164.837 244.368 164.333 243.492 163.757 242.58C163.205 241.644 162.605 240.696 161.957 239.736L164.441 238.116C165.377 239.532 166.193 240.876 166.889 242.148C167.585 243.396 168.173 244.572 168.653 245.676C169.133 246.756 169.517 247.776 169.805 248.736C170.141 249.792 170.513 250.572 170.921 251.076C171.353 251.58 171.797 251.904 172.253 252.048C172.709 252.168 173.129 252.228 173.513 252.228C174.017 252.228 174.389 252.372 174.629 252.66C174.869 252.924 174.989 253.248 174.989 253.632C174.989 254.016 174.821 254.376 174.485 254.712C174.149 255.024 173.717 255.18 173.189 255.18C172.397 255.18 171.617 255.036 170.849 254.748C170.105 254.436 169.457 253.944 168.905 253.272C168.353 252.576 167.969 251.652 167.753 250.5L169.193 249.348C169.193 250.308 168.989 251.244 168.581 252.156C168.173 253.044 167.429 253.776 166.349 254.352C165.293 254.928 163.769 255.216 161.777 255.216C160.913 255.216 160.073 255.144 159.257 255C158.465 254.856 157.733 254.652 157.061 254.388C156.389 254.1 155.801 253.764 155.297 253.38L156.737 250.896C157.217 251.208 157.889 251.508 158.753 251.796C159.617 252.084 160.625 252.228 161.777 252.228ZM173.197 255.18L173.521 252.228C174.889 252.228 175.849 252.096 176.401 251.832C176.953 251.568 177.265 251.1 177.337 250.428C177.433 249.756 177.457 248.82 177.409 247.62L176.725 229.296H179.641L180.361 247.296C180.409 248.568 180.361 249.696 180.217 250.68C180.097 251.664 179.785 252.492 179.281 253.164C178.801 253.836 178.069 254.34 177.085 254.676C176.125 255.012 174.829 255.18 173.197 255.18ZM181.779 263.28L180.735 260.544C183.159 259.776 185.019 258.852 186.315 257.772C187.635 256.716 188.535 255.612 189.015 254.46C189.519 253.308 189.771 252.204 189.771 251.148C189.771 250.476 189.699 249.828 189.555 249.204C189.411 248.58 189.159 247.872 188.799 247.08C188.439 246.288 187.935 245.304 187.287 244.128L189.915 242.796C190.827 244.356 191.475 245.832 191.859 247.224C192.267 248.616 192.471 249.84 192.471 250.896C192.471 252.408 192.219 253.776 191.715 255C191.235 256.224 190.587 257.304 189.771 258.24C188.979 259.2 188.103 260.016 187.143 260.688C186.207 261.36 185.259 261.912 184.299 262.344C183.363 262.776 182.523 263.088 181.779 263.28ZM196.942 263.28L196.294 260.328C197.734 260.136 199.054 259.86 200.254 259.5C201.478 259.164 202.522 258.672 203.386 258.024C204.274 257.376 204.958 256.524 205.438 255.468C205.918 254.412 206.158 253.092 206.158 251.508C206.158 250.764 206.086 250.056 205.942 249.384C205.798 248.688 205.582 248.076 205.294 247.548C205.006 247.02 204.658 246.6 204.25 246.288C203.866 245.976 203.422 245.82 202.918 245.82C202.366 245.82 201.862 246.036 201.406 246.468C200.974 246.876 200.626 247.404 200.362 248.052C200.122 248.7 200.002 249.348 200.002 249.996C200.002 250.5 200.098 250.944 200.29 251.328C200.506 251.688 200.854 251.964 201.334 252.156C201.814 252.348 202.438 252.444 203.206 252.444C203.902 252.444 204.598 252.372 205.294 252.228C206.014 252.084 206.626 251.892 207.13 251.652L207.274 254.172C206.698 254.58 206.014 254.868 205.222 255.036C204.454 255.204 203.674 255.288 202.882 255.288C201.97 255.288 201.154 255.192 200.434 255C199.738 254.808 199.138 254.532 198.634 254.172C198.154 253.788 197.782 253.308 197.518 252.732C197.278 252.156 197.158 251.484 197.158 250.716C197.158 249.804 197.302 248.892 197.59 247.98C197.878 247.044 198.286 246.192 198.814 245.424C199.342 244.656 199.978 244.044 200.722 243.588C201.466 243.108 202.294 242.868 203.206 242.868C204.166 242.868 205.006 243.12 205.726 243.624C206.446 244.104 207.046 244.764 207.526 245.604C208.006 246.444 208.366 247.392 208.606 248.448C208.846 249.504 208.966 250.596 208.966 251.724C208.966 253.956 208.51 255.876 207.598 257.484C206.71 259.116 205.366 260.412 203.566 261.372C201.79 262.332 199.582 262.968 196.942 263.28ZM213.043 263.28L212.395 260.328C213.835 260.136 215.155 259.86 216.355 259.5C217.579 259.164 218.623 258.672 219.487 258.024C220.375 257.376 221.059 256.524 221.539 255.468C222.019 254.412 222.259 253.092 222.259 251.508C222.259 250.764 222.187 250.056 222.043 249.384C221.899 248.688 221.683 248.076 221.395 247.548C221.107 247.02 220.759 246.6 220.351 246.288C219.967 245.976 219.523 245.82 219.019 245.82C218.467 245.82 217.963 246.036 217.507 246.468C217.075 246.876 216.727 247.404 216.463 248.052C216.223 248.7 216.103 249.348 216.103 249.996C216.103 250.5 216.199 250.944 216.391 251.328C216.607 251.688 216.955 251.964 217.435 252.156C217.915 252.348 218.539 252.444 219.307 252.444C220.003 252.444 220.699 252.372 221.395 252.228C222.115 252.084 222.727 251.892 223.231 251.652L223.375 254.172C222.799 254.58 222.115 254.868 221.323 255.036C220.555 255.204 219.775 255.288 218.983 255.288C218.071 255.288 217.255 255.192 216.535 255C215.839 254.808 215.239 254.532 214.735 254.172C214.255 253.788 213.883 253.308 213.619 252.732C213.379 252.156 213.259 251.484 213.259 250.716C213.259 249.804 213.403 248.892 213.691 247.98C213.979 247.044 214.387 246.192 214.915 245.424C215.443 244.656 216.079 244.044 216.823 243.588C217.567 243.108 218.395 242.868 219.307 242.868C220.267 242.868 221.107 243.12 221.827 243.624C222.547 244.104 223.147 244.764 223.627 245.604C224.107 246.444 224.467 247.392 224.707 248.448C224.947 249.504 225.067 250.596 225.067 251.724C225.067 253.956 224.611 255.876 223.699 257.484C222.811 259.116 221.467 260.412 219.667 261.372C217.891 262.332 215.683 262.968 213.043 263.28Z" fill="#0488DB"/>
</svg>
