<svg width="272" height="543" viewBox="0 0 272 543" fill="none" xmlns="http://www.w3.org/2000/svg">
<path d="M152.226 290.315L152.371 288.822L152.226 290.315C196.059 294.58 228.377 331.62 227.272 375.67C226.523 405.517 211.412 431.292 193.771 457.121C190.896 461.33 187.952 465.542 184.995 469.773C169.893 491.383 154.454 513.475 146.083 538.169C145.34 540.362 142.363 540.332 141.641 538.198L141.641 538.198C133.273 513.492 117.824 491.387 102.713 469.764C99.5275 465.206 96.3573 460.67 93.2715 456.135C75.4647 429.967 60.4131 403.801 60.4131 373.35C60.4131 324.507 102.378 285.465 152.226 290.315Z" fill="#EA4335" stroke="#B41412" stroke-width="3"/>
<circle cx="144" cy="374" r="50" fill="#B41412"/>
<path d="M36.9396 198H33.6158L43.2294 171.818H46.5021L56.1158 198H52.7919L44.968 175.96H44.7635L36.9396 198ZM38.1669 187.773H51.5646V190.585H38.1669V187.773ZM59.2223 198V195.699L70.37 181.381V181.176H59.5803V178.364H74.2564V180.767L63.4155 194.983V195.188H74.6143V198H59.2223ZM79.2614 198V178.364H82.2784V198H79.2614ZM80.7955 175.091C80.2074 175.091 79.7003 174.891 79.2741 174.49C78.8565 174.089 78.6477 173.608 78.6477 173.045C78.6477 172.483 78.8565 172.001 79.2741 171.601C79.7003 171.2 80.2074 171 80.7955 171C81.3835 171 81.8864 171.2 82.304 171.601C82.7301 172.001 82.9432 172.483 82.9432 173.045C82.9432 173.608 82.7301 174.089 82.304 174.49C81.8864 174.891 81.3835 175.091 80.7955 175.091ZM87.2418 198V195.699L98.3896 181.381V181.176H87.5998V178.364H102.276V180.767L91.435 194.983V195.188H102.634V198H87.2418ZM107.281 198V178.364H110.298V198H107.281ZM108.815 175.091C108.227 175.091 107.72 174.891 107.294 174.49C106.876 174.089 106.667 173.608 106.667 173.045C106.667 172.483 106.876 172.001 107.294 171.601C107.72 171.2 108.227 171 108.815 171C109.403 171 109.906 171.2 110.324 171.601C110.75 172.001 110.963 172.483 110.963 173.045C110.963 173.608 110.75 174.089 110.324 174.49C109.906 174.891 109.403 175.091 108.815 175.091ZM127.432 171.818L135.205 193.858H135.511L143.284 171.818H146.608L136.994 198H133.722L124.108 171.818H127.432ZM156.682 198.409C154.79 198.409 153.158 197.991 151.786 197.156C150.422 196.312 149.369 195.136 148.628 193.628C147.895 192.111 147.528 190.347 147.528 188.335C147.528 186.324 147.895 184.551 148.628 183.017C149.369 181.474 150.401 180.273 151.722 179.412C153.051 178.543 154.602 178.108 156.375 178.108C157.398 178.108 158.408 178.278 159.405 178.619C160.402 178.96 161.31 179.514 162.128 180.281C162.946 181.04 163.598 182.045 164.084 183.298C164.57 184.551 164.812 186.094 164.812 187.926V189.205H149.676V186.597H161.744C161.744 185.489 161.523 184.5 161.08 183.631C160.645 182.761 160.023 182.075 159.213 181.572C158.412 181.07 157.466 180.818 156.375 180.818C155.173 180.818 154.134 181.116 153.256 181.713C152.386 182.301 151.717 183.068 151.249 184.014C150.78 184.96 150.545 185.974 150.545 187.057V188.795C150.545 190.278 150.801 191.536 151.312 192.567C151.832 193.589 152.553 194.369 153.473 194.906C154.393 195.435 155.463 195.699 156.682 195.699C157.474 195.699 158.19 195.588 158.83 195.366C159.477 195.136 160.036 194.795 160.504 194.344C160.973 193.884 161.335 193.312 161.591 192.631L164.506 193.449C164.199 194.438 163.683 195.307 162.959 196.057C162.234 196.798 161.339 197.378 160.274 197.795C159.209 198.205 158.011 198.409 156.682 198.409ZM172.419 186.188V198H169.402V178.364H172.317V181.432H172.572C173.033 180.435 173.732 179.634 174.669 179.028C175.607 178.415 176.817 178.108 178.3 178.108C179.629 178.108 180.793 178.381 181.79 178.926C182.787 179.463 183.563 180.281 184.116 181.381C184.67 182.472 184.947 183.852 184.947 185.523V198H181.93V185.727C181.93 184.185 181.53 182.983 180.729 182.122C179.928 181.253 178.828 180.818 177.43 180.818C176.467 180.818 175.607 181.027 174.848 181.445C174.098 181.862 173.506 182.472 173.071 183.273C172.636 184.074 172.419 185.045 172.419 186.188ZM190.461 198V178.364H193.478V198H190.461ZM191.995 175.091C191.407 175.091 190.9 174.891 190.473 174.49C190.056 174.089 189.847 173.608 189.847 173.045C189.847 172.483 190.056 172.001 190.473 171.601C190.9 171.2 191.407 171 191.995 171C192.583 171 193.086 171.2 193.503 171.601C193.929 172.001 194.142 172.483 194.142 173.045C194.142 173.608 193.929 174.089 193.503 174.49C193.086 174.891 192.583 175.091 191.995 175.091ZM206.981 198.409C205.14 198.409 203.555 197.974 202.225 197.105C200.896 196.236 199.873 195.038 199.157 193.513C198.441 191.987 198.083 190.244 198.083 188.284C198.083 186.29 198.45 184.53 199.183 183.004C199.924 181.47 200.955 180.273 202.276 179.412C203.606 178.543 205.157 178.108 206.93 178.108C208.31 178.108 209.555 178.364 210.663 178.875C211.771 179.386 212.678 180.102 213.386 181.023C214.093 181.943 214.532 183.017 214.702 184.244H211.685C211.455 183.349 210.944 182.557 210.151 181.866C209.367 181.168 208.31 180.818 206.981 180.818C205.805 180.818 204.773 181.125 203.887 181.739C203.009 182.344 202.323 183.2 201.829 184.308C201.343 185.408 201.1 186.699 201.1 188.182C201.1 189.699 201.339 191.02 201.816 192.145C202.302 193.27 202.984 194.143 203.862 194.766C204.748 195.388 205.788 195.699 206.981 195.699C207.765 195.699 208.477 195.562 209.116 195.29C209.755 195.017 210.296 194.625 210.739 194.114C211.183 193.602 211.498 192.989 211.685 192.273H214.702C214.532 193.432 214.11 194.476 213.437 195.405C212.772 196.325 211.89 197.058 210.79 197.604C209.7 198.141 208.43 198.409 206.981 198.409ZM227.346 198.409C225.454 198.409 223.822 197.991 222.45 197.156C221.086 196.312 220.033 195.136 219.292 193.628C218.559 192.111 218.192 190.347 218.192 188.335C218.192 186.324 218.559 184.551 219.292 183.017C220.033 181.474 221.065 180.273 222.386 179.412C223.715 178.543 225.266 178.108 227.039 178.108C228.062 178.108 229.072 178.278 230.069 178.619C231.066 178.96 231.974 179.514 232.792 180.281C233.61 181.04 234.262 182.045 234.748 183.298C235.234 184.551 235.477 186.094 235.477 187.926V189.205H220.34V186.597H232.408C232.408 185.489 232.187 184.5 231.744 183.631C231.309 182.761 230.687 182.075 229.877 181.572C229.076 181.07 228.13 180.818 227.039 180.818C225.837 180.818 224.798 181.116 223.92 181.713C223.05 182.301 222.381 183.068 221.913 184.014C221.444 184.96 221.21 185.974 221.21 187.057V188.795C221.21 190.278 221.465 191.536 221.977 192.567C222.496 193.589 223.217 194.369 224.137 194.906C225.058 195.435 226.127 195.699 227.346 195.699C228.138 195.699 228.854 195.588 229.494 195.366C230.141 195.136 230.7 194.795 231.168 194.344C231.637 193.884 231.999 193.312 232.255 192.631L235.17 193.449C234.863 194.438 234.347 195.307 233.623 196.057C232.898 196.798 232.004 197.378 230.938 197.795C229.873 198.205 228.675 198.409 227.346 198.409ZM50.7954 242C49.6194 242 48.5634 241.796 47.6274 241.388C46.6914 240.98 45.9474 240.356 45.3954 239.516C44.8674 238.676 44.6034 237.608 44.6034 236.312C44.6034 235.28 44.9994 233.996 45.7914 232.46C46.5834 230.9 47.9634 229.256 49.9314 227.528L50.6154 229.472L48.1674 227.276L50.0394 225.044C51.2874 226.028 52.4394 227.084 53.4954 228.212C54.5514 229.34 55.4034 230.54 56.0514 231.812C56.6994 233.084 57.0234 234.428 57.0234 235.844C57.0234 236.396 56.9274 237.02 56.7354 237.716C56.5434 238.412 56.2194 239.096 55.7634 239.768C55.3074 240.416 54.6714 240.956 53.8554 241.388C53.0394 241.796 52.0194 242 50.7954 242ZM50.7954 239.048C51.6114 239.048 52.2834 238.916 52.8114 238.652C53.3634 238.364 53.7714 237.968 54.0354 237.464C54.3234 236.96 54.4674 236.372 54.4674 235.7C54.4674 235.1 54.3594 234.476 54.1434 233.828C53.9514 233.156 53.5434 232.436 52.9194 231.668C52.3194 230.876 51.3954 229.988 50.1474 229.004L51.7314 228.932C50.8434 229.7 50.0754 230.516 49.4274 231.38C48.7794 232.22 48.2874 233.048 47.9514 233.864C47.6154 234.656 47.4474 235.376 47.4474 236.024C47.4474 237.032 47.7594 237.788 48.3834 238.292C49.0314 238.796 49.8354 239.048 50.7954 239.048ZM53.5314 221.84C53.0274 221.84 52.5954 221.672 52.2354 221.336C51.8994 220.976 51.7314 220.556 51.7314 220.076C51.7314 219.596 51.8994 219.176 52.2354 218.816C52.5954 218.456 53.0274 218.276 53.5314 218.276C54.0114 218.276 54.4194 218.456 54.7554 218.816C55.1154 219.176 55.2954 219.596 55.2954 220.076C55.2954 220.556 55.1154 220.976 54.7554 221.336C54.4194 221.672 54.0114 221.84 53.5314 221.84ZM48.5994 221.84C48.0954 221.84 47.6634 221.672 47.3034 221.336C46.9674 220.976 46.7994 220.556 46.7994 220.076C46.7994 219.596 46.9674 219.176 47.3034 218.816C47.6634 218.456 48.0954 218.276 48.5994 218.276C49.0794 218.276 49.4874 218.456 49.8234 218.816C50.1834 219.176 50.3634 219.596 50.3634 220.076C50.3634 220.556 50.1834 220.976 49.8234 221.336C49.4874 221.672 49.0794 221.84 48.5994 221.84ZM59.3733 240.38L60.8133 237.896C61.2933 238.208 61.9653 238.508 62.8293 238.796C63.6933 239.084 64.7013 239.228 65.8533 239.228C67.0533 239.228 68.0013 239.108 68.6973 238.868C69.4173 238.628 69.9333 238.28 70.2453 237.824C70.5813 237.344 70.7493 236.792 70.7493 236.168C70.7493 235.688 70.6413 235.1 70.4253 234.404C70.2333 233.684 69.8013 232.724 69.1293 231.524C68.4573 230.3 67.4253 228.704 66.0333 226.736L68.5173 225.116C69.7893 226.868 70.7973 228.452 71.5413 229.868C72.3093 231.284 72.8493 232.532 73.1613 233.612C73.4973 234.668 73.6653 235.58 73.6653 236.348C73.6653 237.308 73.4253 238.244 72.9453 239.156C72.4653 240.044 71.6613 240.776 70.5333 241.352C69.4053 241.928 67.8453 242.216 65.8533 242.216C64.9893 242.216 64.1493 242.144 63.3333 242C62.5413 241.856 61.8093 241.652 61.1373 241.388C60.4653 241.1 59.8773 240.764 59.3733 240.38ZM74.3237 250.28L73.2797 247.544C75.7037 246.776 77.5637 245.852 78.8597 244.772C80.1797 243.716 81.0797 242.612 81.5597 241.46C82.0637 240.308 82.3157 239.204 82.3157 238.148C82.3157 237.476 82.2437 236.828 82.0997 236.204C81.9557 235.58 81.7037 234.872 81.3437 234.08C80.9837 233.288 80.4797 232.304 79.8317 231.128L82.4597 229.796C83.3717 231.356 84.0197 232.832 84.4037 234.224C84.8117 235.616 85.0157 236.84 85.0157 237.896C85.0157 239.408 84.7637 240.776 84.2597 242C83.7797 243.224 83.1317 244.304 82.3157 245.24C81.5237 246.2 80.6477 247.016 79.6877 247.688C78.7517 248.36 77.8037 248.912 76.8437 249.344C75.9077 249.776 75.0677 250.088 74.3237 250.28ZM97.8744 242.18C95.9544 242.18 94.4784 241.964 93.4464 241.532C92.4384 241.1 91.7424 240.428 91.3584 239.516C90.9744 238.604 90.7584 237.428 90.7104 235.988L89.9904 216.296H92.9424L93.6624 234.836C93.7104 236.012 93.8184 236.924 93.9864 237.572C94.1784 238.196 94.5864 238.628 95.2104 238.868C95.8584 239.108 96.8664 239.228 98.2344 239.228C98.7384 239.228 99.0984 239.372 99.3144 239.66C99.5544 239.924 99.6744 240.248 99.6744 240.632C99.6744 241.016 99.5064 241.376 99.1704 241.712C98.8344 242.024 98.4024 242.18 97.8744 242.18ZM97.875 242.18L98.235 239.228C99.411 239.228 100.347 239.156 101.043 239.012C101.739 238.868 102.243 238.58 102.555 238.148C102.867 237.692 103.023 237.02 103.023 236.132C103.023 235.532 102.927 234.824 102.735 234.008C102.543 233.168 102.291 232.28 101.979 231.344C101.667 230.408 101.331 229.484 100.971 228.572L103.887 227.492C104.199 228.26 104.487 229.136 104.751 230.12C105.039 231.104 105.279 232.076 105.471 233.036C105.663 233.996 105.759 234.836 105.759 235.556C105.759 236.516 105.651 237.368 105.435 238.112C105.243 238.832 104.943 239.456 104.535 239.984C104.127 240.488 103.599 240.908 102.951 241.244C102.327 241.556 101.595 241.796 100.755 241.964C99.915 242.108 98.955 242.18 97.875 242.18ZM101.727 248.876C101.223 248.876 100.791 248.696 100.431 248.336C100.095 248 99.927 247.592 99.927 247.112C99.927 246.632 100.095 246.212 100.431 245.852C100.791 245.492 101.223 245.312 101.727 245.312C102.207 245.312 102.615 245.492 102.951 245.852C103.311 246.212 103.491 246.632 103.491 247.112C103.491 247.592 103.311 248 102.951 248.336C102.615 248.696 102.207 248.876 101.727 248.876ZM135.164 242.18C133.868 242.18 132.716 242 131.708 241.64C130.724 241.256 129.932 240.62 129.332 239.732C128.756 238.82 128.432 237.56 128.36 235.952L127.784 223.424H130.7L131.276 235.304C131.348 236.432 131.552 237.284 131.888 237.86C132.224 238.412 132.692 238.784 133.292 238.976C133.916 239.144 134.66 239.228 135.524 239.228C136.028 239.228 136.388 239.372 136.604 239.66C136.844 239.924 136.964 240.248 136.964 240.632C136.964 241.016 136.796 241.376 136.46 241.712C136.124 242.024 135.692 242.18 135.164 242.18ZM129.728 238.22C128.36 238.652 127.028 238.868 125.732 238.868C124.436 238.868 123.26 238.676 122.204 238.292C121.148 237.908 120.308 237.356 119.684 236.636C119.06 235.892 118.748 235.004 118.748 233.972C118.748 232.964 119 232.016 119.504 231.128C120.032 230.24 120.74 229.448 121.628 228.752C122.54 228.056 123.584 227.48 124.76 227.024C125.96 226.544 127.232 226.22 128.576 226.052L129.08 229.076C127.88 229.124 126.812 229.292 125.876 229.58C124.964 229.844 124.184 230.192 123.536 230.624C122.912 231.056 122.432 231.524 122.096 232.028C121.76 232.532 121.592 233.024 121.592 233.504C121.592 234.032 121.784 234.464 122.168 234.8C122.552 235.136 123.044 235.4 123.644 235.592C124.244 235.76 124.904 235.868 125.624 235.916C126.344 235.94 127.04 235.916 127.712 235.844C128.384 235.748 128.96 235.616 129.44 235.448L129.728 238.22ZM128.972 219.284C128.468 219.284 128.036 219.116 127.676 218.78C127.34 218.42 127.172 218 127.172 217.52C127.172 217.04 127.34 216.62 127.676 216.26C128.036 215.9 128.468 215.72 128.972 215.72C129.452 215.72 129.86 215.9 130.196 216.26C130.556 216.62 130.736 217.04 130.736 217.52C130.736 218 130.556 218.42 130.196 218.78C129.86 219.116 129.452 219.284 128.972 219.284ZM124.04 219.284C123.536 219.284 123.104 219.116 122.744 218.78C122.408 218.42 122.24 218 122.24 217.52C122.24 217.04 122.408 216.62 122.744 216.26C123.104 215.9 123.536 215.72 124.04 215.72C124.52 215.72 124.928 215.9 125.264 216.26C125.624 216.62 125.804 217.04 125.804 217.52C125.804 218 125.624 218.42 125.264 218.78C124.928 219.116 124.52 219.284 124.04 219.284ZM135.176 242.18L135.536 239.228C136.736 239.228 137.672 239.144 138.344 238.976C139.016 238.784 139.52 238.436 139.856 237.932C140.216 237.404 140.504 236.648 140.72 235.664C140.936 234.68 141.2 233.396 141.512 231.812L144.32 232.352C144.224 232.784 144.116 233.264 143.996 233.792C143.876 234.32 143.768 234.848 143.672 235.376C143.6 235.88 143.564 236.324 143.564 236.708C143.564 237.068 143.588 237.404 143.636 237.716C143.684 238.028 143.864 238.292 144.176 238.508C144.488 238.724 145.016 238.904 145.76 239.048C146.504 239.168 147.572 239.228 148.964 239.228C149.468 239.228 149.828 239.372 150.044 239.66C150.284 239.924 150.404 240.248 150.404 240.632C150.404 241.016 150.236 241.376 149.9 241.712C149.564 242.024 149.132 242.18 148.604 242.18C147.14 242.18 145.976 242.108 145.112 241.964C144.248 241.796 143.588 241.556 143.132 241.244C142.7 240.932 142.388 240.548 142.196 240.092C142.028 239.612 141.896 239.06 141.8 238.436L142.88 238.508C142.496 239.276 142.076 239.9 141.62 240.38C141.188 240.86 140.684 241.232 140.108 241.496C139.532 241.76 138.836 241.94 138.02 242.036C137.228 242.132 136.28 242.18 135.176 242.18ZM144.248 248.984C143.744 248.984 143.312 248.804 142.952 248.444C142.616 248.108 142.448 247.7 142.448 247.22C142.448 246.74 142.616 246.32 142.952 245.96C143.312 245.6 143.744 245.42 144.248 245.42C144.728 245.42 145.136 245.6 145.472 245.96C145.832 246.32 146.012 246.74 146.012 247.22C146.012 247.7 145.832 248.108 145.472 248.444C145.136 248.804 144.728 248.984 144.248 248.984ZM139.316 248.984C138.812 248.984 138.38 248.804 138.02 248.444C137.684 248.108 137.516 247.7 137.516 247.22C137.516 246.74 137.684 246.32 138.02 245.96C138.38 245.6 138.812 245.42 139.316 245.42C139.796 245.42 140.204 245.6 140.54 245.96C140.9 246.32 141.08 246.74 141.08 247.22C141.08 247.7 140.9 248.108 140.54 248.444C140.204 248.804 139.796 248.984 139.316 248.984ZM148.605 242.18L148.965 239.228C149.565 239.228 150.225 239.228 150.945 239.228C151.689 239.204 152.433 239.18 153.177 239.156C153.945 239.132 154.653 239.084 155.301 239.012C155.949 238.916 156.489 238.796 156.921 238.652C157.785 238.34 158.457 237.956 158.937 237.5C159.417 237.02 159.753 236.396 159.945 235.628C160.161 234.836 160.269 233.828 160.269 232.604C160.269 231.596 160.137 230.66 159.873 229.796C159.609 228.932 159.237 228.236 158.757 227.708C158.277 227.18 157.701 226.916 157.029 226.916C156.477 226.916 155.973 227.132 155.517 227.564C155.085 227.972 154.737 228.5 154.473 229.148C154.233 229.796 154.113 230.444 154.113 231.092C154.113 231.596 154.209 232.028 154.401 232.388C154.617 232.748 154.965 233.036 155.445 233.252C155.925 233.444 156.549 233.54 157.317 233.54C158.013 233.54 158.709 233.468 159.405 233.324C160.125 233.18 160.737 232.988 161.241 232.748L161.385 235.268C161.001 235.532 160.569 235.748 160.089 235.916C159.609 236.084 159.105 236.204 158.577 236.276C158.049 236.348 157.521 236.384 156.993 236.384C155.769 236.384 154.725 236.192 153.861 235.808C153.021 235.4 152.373 234.86 151.917 234.188C151.485 233.492 151.269 232.7 151.269 231.812C151.269 230.9 151.413 229.988 151.701 229.076C151.989 228.14 152.397 227.288 152.925 226.52C153.453 225.752 154.089 225.14 154.833 224.684C155.577 224.204 156.405 223.964 157.317 223.964C158.613 223.964 159.681 224.384 160.521 225.224C161.385 226.064 162.021 227.168 162.429 228.536C162.861 229.88 163.077 231.308 163.077 232.82C163.077 234.62 162.765 236.168 162.141 237.464C161.541 238.736 160.533 239.792 159.117 240.632C158.565 240.944 157.893 241.208 157.101 241.424C156.333 241.616 155.481 241.772 154.545 241.892C153.633 242.012 152.673 242.084 151.665 242.108C150.657 242.156 149.637 242.18 148.605 242.18ZM159.153 220.256C158.649 220.256 158.217 220.088 157.857 219.752C157.521 219.392 157.353 218.972 157.353 218.492C157.353 218.012 157.521 217.592 157.857 217.232C158.217 216.872 158.649 216.692 159.153 216.692C159.633 216.692 160.041 216.872 160.377 217.232C160.737 217.592 160.917 218.012 160.917 218.492C160.917 218.972 160.737 219.392 160.377 219.752C160.041 220.088 159.633 220.256 159.153 220.256ZM154.221 220.256C153.717 220.256 153.285 220.088 152.925 219.752C152.589 219.392 152.421 218.972 152.421 218.492C152.421 218.012 152.589 217.592 152.925 217.232C153.285 216.872 153.717 216.692 154.221 216.692C154.701 216.692 155.109 216.872 155.445 217.232C155.805 217.592 155.985 218.012 155.985 218.492C155.985 218.972 155.805 219.392 155.445 219.752C155.109 220.088 154.701 220.256 154.221 220.256ZM172.447 239.228C173.647 239.228 174.595 239.108 175.291 238.868C176.011 238.628 176.527 238.28 176.839 237.824C177.175 237.344 177.343 236.792 177.343 236.168C177.343 235.688 177.211 235.112 176.947 234.44C176.707 233.768 176.371 233.024 175.939 232.208C175.507 231.368 175.003 230.492 174.427 229.58C173.875 228.644 173.275 227.696 172.627 226.736L175.111 225.116C176.047 226.532 176.863 227.876 177.559 229.148C178.255 230.396 178.843 231.572 179.323 232.676C179.803 233.756 180.187 234.776 180.475 235.736C180.811 236.792 181.183 237.572 181.591 238.076C182.023 238.58 182.467 238.904 182.923 239.048C183.379 239.168 183.799 239.228 184.183 239.228C184.687 239.228 185.059 239.372 185.299 239.66C185.539 239.924 185.659 240.248 185.659 240.632C185.659 241.016 185.491 241.376 185.155 241.712C184.819 242.024 184.387 242.18 183.859 242.18C183.067 242.18 182.287 242.036 181.519 241.748C180.775 241.436 180.127 240.944 179.575 240.272C179.023 239.576 178.639 238.652 178.423 237.5L179.863 236.348C179.863 237.308 179.659 238.244 179.251 239.156C178.843 240.044 178.099 240.776 177.019 241.352C175.963 241.928 174.439 242.216 172.447 242.216C171.583 242.216 170.743 242.144 169.927 242C169.135 241.856 168.403 241.652 167.731 241.388C167.059 241.1 166.471 240.764 165.967 240.38L167.407 237.896C167.887 238.208 168.559 238.508 169.423 238.796C170.287 239.084 171.295 239.228 172.447 239.228ZM183.867 242.18L184.227 239.228C185.235 239.228 186.027 239.144 186.603 238.976C187.179 238.784 187.611 238.436 187.899 237.932C188.211 237.404 188.475 236.648 188.691 235.664C188.907 234.68 189.171 233.396 189.483 231.812L192.291 232.352C192.195 232.784 192.087 233.264 191.967 233.792C191.847 234.32 191.739 234.848 191.643 235.376C191.571 235.88 191.535 236.324 191.535 236.708C191.535 237.188 191.643 237.62 191.859 238.004C192.075 238.388 192.543 238.688 193.263 238.904C193.983 239.12 195.087 239.228 196.575 239.228C197.079 239.228 197.439 239.372 197.655 239.66C197.895 239.924 198.015 240.248 198.015 240.632C198.015 241.016 197.847 241.376 197.511 241.712C197.175 242.024 196.743 242.18 196.215 242.18C194.655 242.18 193.431 242.048 192.543 241.784C191.655 241.496 191.007 241.076 190.599 240.524C190.191 239.948 189.915 239.252 189.771 238.436L190.851 238.508C190.467 239.276 190.047 239.9 189.591 240.38C189.159 240.86 188.679 241.232 188.151 241.496C187.623 241.76 187.011 241.94 186.315 242.036C185.619 242.132 184.803 242.18 183.867 242.18ZM189.483 228.104C188.979 228.104 188.547 227.936 188.187 227.6C187.851 227.24 187.683 226.82 187.683 226.34C187.683 225.86 187.851 225.44 188.187 225.08C188.547 224.72 188.979 224.54 189.483 224.54C189.963 224.54 190.371 224.72 190.707 225.08C191.067 225.44 191.247 225.86 191.247 226.34C191.247 226.82 191.067 227.24 190.707 227.6C190.371 227.936 189.963 228.104 189.483 228.104ZM196.207 242.18L196.567 239.228C197.575 239.228 198.367 239.144 198.943 238.976C199.519 238.784 199.951 238.436 200.239 237.932C200.551 237.404 200.815 236.648 201.031 235.664C201.247 234.68 201.511 233.396 201.823 231.812L204.631 232.352C204.535 232.784 204.427 233.264 204.307 233.792C204.187 234.32 204.079 234.848 203.983 235.376C203.911 235.88 203.875 236.324 203.875 236.708C203.875 237.188 203.983 237.62 204.199 238.004C204.415 238.388 204.883 238.688 205.603 238.904C206.323 239.12 207.427 239.228 208.915 239.228C209.419 239.228 209.779 239.372 209.995 239.66C210.235 239.924 210.355 240.248 210.355 240.632C210.355 241.016 210.187 241.376 209.851 241.712C209.515 242.024 209.083 242.18 208.555 242.18C206.995 242.18 205.771 242.048 204.883 241.784C203.995 241.496 203.347 241.076 202.939 240.524C202.531 239.948 202.255 239.252 202.111 238.436L203.191 238.508C202.807 239.276 202.387 239.9 201.931 240.38C201.499 240.86 201.019 241.232 200.491 241.496C199.963 241.76 199.351 241.94 198.655 242.036C197.959 242.132 197.143 242.18 196.207 242.18ZM202.327 248.876C201.823 248.876 201.391 248.696 201.031 248.336C200.695 248 200.527 247.592 200.527 247.112C200.527 246.632 200.695 246.212 201.031 245.852C201.391 245.492 201.823 245.312 202.327 245.312C202.807 245.312 203.215 245.492 203.551 245.852C203.911 246.212 204.091 246.632 204.091 247.112C204.091 247.592 203.911 248 203.551 248.336C203.215 248.696 202.807 248.876 202.327 248.876ZM208.547 242.18L208.871 239.228C210.239 239.228 211.199 239.096 211.751 238.832C212.303 238.568 212.615 238.1 212.687 237.428C212.783 236.756 212.807 235.82 212.759 234.62L212.075 216.296H214.991L215.711 234.296C215.759 235.568 215.711 236.696 215.567 237.68C215.447 238.664 215.135 239.492 214.631 240.164C214.151 240.836 213.419 241.34 212.435 241.676C211.475 242.012 210.179 242.18 208.547 242.18ZM221.21 242L220.49 216.296H223.406L224.126 242H221.21Z" fill="#0488DB"/>
</svg>
