<svg width="272" height="380" viewBox="0 0 272 380" fill="none" xmlns="http://www.w3.org/2000/svg">
<path d="M152.226 127.315L152.371 125.822L152.226 127.315C196.059 131.58 228.377 168.62 227.272 212.67C226.523 242.517 211.412 268.292 193.771 294.121C190.896 298.33 187.952 302.542 184.995 306.773C169.893 328.383 154.454 350.475 146.083 375.169C145.34 377.362 142.363 377.332 141.641 375.198L141.641 375.198C133.273 350.492 117.824 328.387 102.713 306.764C99.5275 302.206 96.3573 297.67 93.2715 293.135C75.4647 266.967 60.4131 240.801 60.4131 210.35C60.4131 161.507 102.378 122.465 152.226 127.315Z" fill="#EA4335" stroke="#B41412" stroke-width="3"/>
<circle cx="144" cy="211" r="50" fill="#B41412"/>
<path d="M36.9396 35H33.6158L43.2294 8.81818H46.5021L56.1158 35H52.7919L44.968 12.9602H44.7635L36.9396 35ZM38.1669 24.7727H51.5646V27.5852H38.1669V24.7727ZM59.2223 35V32.6989L70.37 18.3807V18.1761H59.5803V15.3636H74.2564V17.767L63.4155 31.983V32.1875H74.6143V35H59.2223ZM79.2614 35V15.3636H82.2784V35H79.2614ZM80.7955 12.0909C80.2074 12.0909 79.7003 11.8906 79.2741 11.4901C78.8565 11.0895 78.6477 10.608 78.6477 10.0455C78.6477 9.48295 78.8565 9.00142 79.2741 8.60085C79.7003 8.20028 80.2074 8 80.7955 8C81.3835 8 81.8864 8.20028 82.304 8.60085C82.7301 9.00142 82.9432 9.48295 82.9432 10.0455C82.9432 10.608 82.7301 11.0895 82.304 11.4901C81.8864 11.8906 81.3835 12.0909 80.7955 12.0909ZM87.2418 35V32.6989L98.3896 18.3807V18.1761H87.5998V15.3636H102.276V17.767L91.435 31.983V32.1875H102.634V35H87.2418ZM107.281 35V15.3636H110.298V35H107.281ZM108.815 12.0909C108.227 12.0909 107.72 11.8906 107.294 11.4901C106.876 11.0895 106.667 10.608 106.667 10.0455C106.667 9.48295 106.876 9.00142 107.294 8.60085C107.72 8.20028 108.227 8 108.815 8C109.403 8 109.906 8.20028 110.324 8.60085C110.75 9.00142 110.963 9.48295 110.963 10.0455C110.963 10.608 110.75 11.0895 110.324 11.4901C109.906 11.8906 109.403 12.0909 108.815 12.0909ZM127.432 8.81818L135.205 30.858H135.511L143.284 8.81818H146.608L136.994 35H133.722L124.108 8.81818H127.432ZM156.682 35.4091C154.79 35.4091 153.158 34.9915 151.786 34.1562C150.422 33.3125 149.369 32.1364 148.628 30.6278C147.895 29.1108 147.528 27.3466 147.528 25.3352C147.528 23.3239 147.895 21.5511 148.628 20.017C149.369 18.4744 150.401 17.2727 151.722 16.4119C153.051 15.5426 154.602 15.108 156.375 15.108C157.398 15.108 158.408 15.2784 159.405 15.6193C160.402 15.9602 161.31 16.5142 162.128 17.2812C162.946 18.0398 163.598 19.0455 164.084 20.2983C164.57 21.5511 164.812 23.0937 164.812 24.9261V26.2045H149.676V23.5966H161.744C161.744 22.4886 161.523 21.5 161.08 20.6307C160.645 19.7614 160.023 19.0753 159.213 18.5724C158.412 18.0696 157.466 17.8182 156.375 17.8182C155.173 17.8182 154.134 18.1165 153.256 18.7131C152.386 19.3011 151.717 20.0682 151.249 21.0142C150.78 21.9602 150.545 22.9744 150.545 24.0568V25.7955C150.545 27.2784 150.801 28.5355 151.312 29.5668C151.832 30.5895 152.553 31.3693 153.473 31.9062C154.393 32.4347 155.463 32.6989 156.682 32.6989C157.474 32.6989 158.19 32.5881 158.83 32.3665C159.477 32.1364 160.036 31.7955 160.504 31.3438C160.973 30.8835 161.335 30.3125 161.591 29.6307L164.506 30.4489C164.199 31.4375 163.683 32.3068 162.959 33.0568C162.234 33.7983 161.339 34.3778 160.274 34.7955C159.209 35.2045 158.011 35.4091 156.682 35.4091ZM172.419 23.1875V35H169.402V15.3636H172.317V18.4318H172.572C173.033 17.4347 173.732 16.6335 174.669 16.0284C175.607 15.4148 176.817 15.108 178.3 15.108C179.629 15.108 180.793 15.3807 181.79 15.9261C182.787 16.4631 183.563 17.2812 184.116 18.3807C184.67 19.4716 184.947 20.8523 184.947 22.5227V35H181.93V22.7273C181.93 21.1847 181.53 19.983 180.729 19.1222C179.928 18.2528 178.828 17.8182 177.43 17.8182C176.467 17.8182 175.607 18.027 174.848 18.4446C174.098 18.8622 173.506 19.4716 173.071 20.2727C172.636 21.0739 172.419 22.0455 172.419 23.1875ZM190.461 35V15.3636H193.478V35H190.461ZM191.995 12.0909C191.407 12.0909 190.9 11.8906 190.473 11.4901C190.056 11.0895 189.847 10.608 189.847 10.0455C189.847 9.48295 190.056 9.00142 190.473 8.60085C190.9 8.20028 191.407 8 191.995 8C192.583 8 193.086 8.20028 193.503 8.60085C193.929 9.00142 194.142 9.48295 194.142 10.0455C194.142 10.608 193.929 11.0895 193.503 11.4901C193.086 11.8906 192.583 12.0909 191.995 12.0909ZM206.981 35.4091C205.14 35.4091 203.555 34.9744 202.225 34.1051C200.896 33.2358 199.873 32.0384 199.157 30.5128C198.441 28.9872 198.083 27.2443 198.083 25.2841C198.083 23.2898 198.45 21.5298 199.183 20.0043C199.924 18.4702 200.955 17.2727 202.276 16.4119C203.606 15.5426 205.157 15.108 206.93 15.108C208.31 15.108 209.555 15.3636 210.663 15.875C211.771 16.3864 212.678 17.1023 213.386 18.0227C214.093 18.9432 214.532 20.017 214.702 21.2443H211.685C211.455 20.3494 210.944 19.5568 210.151 18.8665C209.367 18.1676 208.31 17.8182 206.981 17.8182C205.805 17.8182 204.773 18.125 203.887 18.7386C203.009 19.3437 202.323 20.2003 201.829 21.3082C201.343 22.4077 201.1 23.6989 201.1 25.1818C201.1 26.6989 201.339 28.0199 201.816 29.1449C202.302 30.2699 202.984 31.1435 203.862 31.7656C204.748 32.3878 205.788 32.6989 206.981 32.6989C207.765 32.6989 208.477 32.5625 209.116 32.2898C209.755 32.017 210.296 31.625 210.739 31.1136C211.183 30.6023 211.498 29.9886 211.685 29.2727H214.702C214.532 30.4318 214.11 31.4759 213.437 32.4048C212.772 33.3253 211.89 34.0582 210.79 34.6037C209.7 35.1406 208.43 35.4091 206.981 35.4091ZM227.346 35.4091C225.454 35.4091 223.822 34.9915 222.45 34.1562C221.086 33.3125 220.033 32.1364 219.292 30.6278C218.559 29.1108 218.192 27.3466 218.192 25.3352C218.192 23.3239 218.559 21.5511 219.292 20.017C220.033 18.4744 221.065 17.2727 222.386 16.4119C223.715 15.5426 225.266 15.108 227.039 15.108C228.062 15.108 229.072 15.2784 230.069 15.6193C231.066 15.9602 231.974 16.5142 232.792 17.2812C233.61 18.0398 234.262 19.0455 234.748 20.2983C235.234 21.5511 235.477 23.0937 235.477 24.9261V26.2045H220.34V23.5966H232.408C232.408 22.4886 232.187 21.5 231.744 20.6307C231.309 19.7614 230.687 19.0753 229.877 18.5724C229.076 18.0696 228.13 17.8182 227.039 17.8182C225.837 17.8182 224.798 18.1165 223.92 18.7131C223.05 19.3011 222.381 20.0682 221.913 21.0142C221.444 21.9602 221.21 22.9744 221.21 24.0568V25.7955C221.21 27.2784 221.465 28.5355 221.977 29.5668C222.496 30.5895 223.217 31.3693 224.137 31.9062C225.058 32.4347 226.127 32.6989 227.346 32.6989C228.138 32.6989 228.854 32.5881 229.494 32.3665C230.141 32.1364 230.7 31.7955 231.168 31.3438C231.637 30.8835 231.999 30.3125 232.255 29.6307L235.17 30.4489C234.863 31.4375 234.347 32.3068 233.623 33.0568C232.898 33.7983 232.004 34.3778 230.938 34.7955C229.873 35.2045 228.675 35.4091 227.346 35.4091ZM50.7954 79C49.6194 79 48.5634 78.796 47.6274 78.388C46.6914 77.98 45.9474 77.356 45.3954 76.516C44.8674 75.676 44.6034 74.608 44.6034 73.312C44.6034 72.28 44.9994 70.996 45.7914 69.46C46.5834 67.9 47.9634 66.256 49.9314 64.528L50.6154 66.472L48.1674 64.276L50.0394 62.044C51.2874 63.028 52.4394 64.084 53.4954 65.212C54.5514 66.34 55.4034 67.54 56.0514 68.812C56.6994 70.084 57.0234 71.428 57.0234 72.844C57.0234 73.396 56.9274 74.02 56.7354 74.716C56.5434 75.412 56.2194 76.096 55.7634 76.768C55.3074 77.416 54.6714 77.956 53.8554 78.388C53.0394 78.796 52.0194 79 50.7954 79ZM50.7954 76.048C51.6114 76.048 52.2834 75.916 52.8114 75.652C53.3634 75.364 53.7714 74.968 54.0354 74.464C54.3234 73.96 54.4674 73.372 54.4674 72.7C54.4674 72.1 54.3594 71.476 54.1434 70.828C53.9514 70.156 53.5434 69.436 52.9194 68.668C52.3194 67.876 51.3954 66.988 50.1474 66.004L51.7314 65.932C50.8434 66.7 50.0754 67.516 49.4274 68.38C48.7794 69.22 48.2874 70.048 47.9514 70.864C47.6154 71.656 47.4474 72.376 47.4474 73.024C47.4474 74.032 47.7594 74.788 48.3834 75.292C49.0314 75.796 49.8354 76.048 50.7954 76.048ZM53.5314 58.84C53.0274 58.84 52.5954 58.672 52.2354 58.336C51.8994 57.976 51.7314 57.556 51.7314 57.076C51.7314 56.596 51.8994 56.176 52.2354 55.816C52.5954 55.456 53.0274 55.276 53.5314 55.276C54.0114 55.276 54.4194 55.456 54.7554 55.816C55.1154 56.176 55.2954 56.596 55.2954 57.076C55.2954 57.556 55.1154 57.976 54.7554 58.336C54.4194 58.672 54.0114 58.84 53.5314 58.84ZM48.5994 58.84C48.0954 58.84 47.6634 58.672 47.3034 58.336C46.9674 57.976 46.7994 57.556 46.7994 57.076C46.7994 56.596 46.9674 56.176 47.3034 55.816C47.6634 55.456 48.0954 55.276 48.5994 55.276C49.0794 55.276 49.4874 55.456 49.8234 55.816C50.1834 56.176 50.3634 56.596 50.3634 57.076C50.3634 57.556 50.1834 57.976 49.8234 58.336C49.4874 58.672 49.0794 58.84 48.5994 58.84ZM59.3733 77.38L60.8133 74.896C61.2933 75.208 61.9653 75.508 62.8293 75.796C63.6933 76.084 64.7013 76.228 65.8533 76.228C67.0533 76.228 68.0013 76.108 68.6973 75.868C69.4173 75.628 69.9333 75.28 70.2453 74.824C70.5813 74.344 70.7493 73.792 70.7493 73.168C70.7493 72.688 70.6413 72.1 70.4253 71.404C70.2333 70.684 69.8013 69.724 69.1293 68.524C68.4573 67.3 67.4253 65.704 66.0333 63.736L68.5173 62.116C69.7893 63.868 70.7973 65.452 71.5413 66.868C72.3093 68.284 72.8493 69.532 73.1613 70.612C73.4973 71.668 73.6653 72.58 73.6653 73.348C73.6653 74.308 73.4253 75.244 72.9453 76.156C72.4653 77.044 71.6613 77.776 70.5333 78.352C69.4053 78.928 67.8453 79.216 65.8533 79.216C64.9893 79.216 64.1493 79.144 63.3333 79C62.5413 78.856 61.8093 78.652 61.1373 78.388C60.4653 78.1 59.8773 77.764 59.3733 77.38ZM74.3237 87.28L73.2797 84.544C75.7037 83.776 77.5637 82.852 78.8597 81.772C80.1797 80.716 81.0797 79.612 81.5597 78.46C82.0637 77.308 82.3157 76.204 82.3157 75.148C82.3157 74.476 82.2437 73.828 82.0997 73.204C81.9557 72.58 81.7037 71.872 81.3437 71.08C80.9837 70.288 80.4797 69.304 79.8317 68.128L82.4597 66.796C83.3717 68.356 84.0197 69.832 84.4037 71.224C84.8117 72.616 85.0157 73.84 85.0157 74.896C85.0157 76.408 84.7637 77.776 84.2597 79C83.7797 80.224 83.1317 81.304 82.3157 82.24C81.5237 83.2 80.6477 84.016 79.6877 84.688C78.7517 85.36 77.8037 85.912 76.8437 86.344C75.9077 86.776 75.0677 87.088 74.3237 87.28ZM97.8744 79.18C95.9544 79.18 94.4784 78.964 93.4464 78.532C92.4384 78.1 91.7424 77.428 91.3584 76.516C90.9744 75.604 90.7584 74.428 90.7104 72.988L89.9904 53.296H92.9424L93.6624 71.836C93.7104 73.012 93.8184 73.924 93.9864 74.572C94.1784 75.196 94.5864 75.628 95.2104 75.868C95.8584 76.108 96.8664 76.228 98.2344 76.228C98.7384 76.228 99.0984 76.372 99.3144 76.66C99.5544 76.924 99.6744 77.248 99.6744 77.632C99.6744 78.016 99.5064 78.376 99.1704 78.712C98.8344 79.024 98.4024 79.18 97.8744 79.18ZM97.875 79.18L98.235 76.228C99.411 76.228 100.347 76.156 101.043 76.012C101.739 75.868 102.243 75.58 102.555 75.148C102.867 74.692 103.023 74.02 103.023 73.132C103.023 72.532 102.927 71.824 102.735 71.008C102.543 70.168 102.291 69.28 101.979 68.344C101.667 67.408 101.331 66.484 100.971 65.572L103.887 64.492C104.199 65.26 104.487 66.136 104.751 67.12C105.039 68.104 105.279 69.076 105.471 70.036C105.663 70.996 105.759 71.836 105.759 72.556C105.759 73.516 105.651 74.368 105.435 75.112C105.243 75.832 104.943 76.456 104.535 76.984C104.127 77.488 103.599 77.908 102.951 78.244C102.327 78.556 101.595 78.796 100.755 78.964C99.915 79.108 98.955 79.18 97.875 79.18ZM101.727 85.876C101.223 85.876 100.791 85.696 100.431 85.336C100.095 85 99.927 84.592 99.927 84.112C99.927 83.632 100.095 83.212 100.431 82.852C100.791 82.492 101.223 82.312 101.727 82.312C102.207 82.312 102.615 82.492 102.951 82.852C103.311 83.212 103.491 83.632 103.491 84.112C103.491 84.592 103.311 85 102.951 85.336C102.615 85.696 102.207 85.876 101.727 85.876ZM135.164 79.18C133.868 79.18 132.716 79 131.708 78.64C130.724 78.256 129.932 77.62 129.332 76.732C128.756 75.82 128.432 74.56 128.36 72.952L127.784 60.424H130.7L131.276 72.304C131.348 73.432 131.552 74.284 131.888 74.86C132.224 75.412 132.692 75.784 133.292 75.976C133.916 76.144 134.66 76.228 135.524 76.228C136.028 76.228 136.388 76.372 136.604 76.66C136.844 76.924 136.964 77.248 136.964 77.632C136.964 78.016 136.796 78.376 136.46 78.712C136.124 79.024 135.692 79.18 135.164 79.18ZM129.728 75.22C128.36 75.652 127.028 75.868 125.732 75.868C124.436 75.868 123.26 75.676 122.204 75.292C121.148 74.908 120.308 74.356 119.684 73.636C119.06 72.892 118.748 72.004 118.748 70.972C118.748 69.964 119 69.016 119.504 68.128C120.032 67.24 120.74 66.448 121.628 65.752C122.54 65.056 123.584 64.48 124.76 64.024C125.96 63.544 127.232 63.22 128.576 63.052L129.08 66.076C127.88 66.124 126.812 66.292 125.876 66.58C124.964 66.844 124.184 67.192 123.536 67.624C122.912 68.056 122.432 68.524 122.096 69.028C121.76 69.532 121.592 70.024 121.592 70.504C121.592 71.032 121.784 71.464 122.168 71.8C122.552 72.136 123.044 72.4 123.644 72.592C124.244 72.76 124.904 72.868 125.624 72.916C126.344 72.94 127.04 72.916 127.712 72.844C128.384 72.748 128.96 72.616 129.44 72.448L129.728 75.22ZM128.972 56.284C128.468 56.284 128.036 56.116 127.676 55.78C127.34 55.42 127.172 55 127.172 54.52C127.172 54.04 127.34 53.62 127.676 53.26C128.036 52.9 128.468 52.72 128.972 52.72C129.452 52.72 129.86 52.9 130.196 53.26C130.556 53.62 130.736 54.04 130.736 54.52C130.736 55 130.556 55.42 130.196 55.78C129.86 56.116 129.452 56.284 128.972 56.284ZM124.04 56.284C123.536 56.284 123.104 56.116 122.744 55.78C122.408 55.42 122.24 55 122.24 54.52C122.24 54.04 122.408 53.62 122.744 53.26C123.104 52.9 123.536 52.72 124.04 52.72C124.52 52.72 124.928 52.9 125.264 53.26C125.624 53.62 125.804 54.04 125.804 54.52C125.804 55 125.624 55.42 125.264 55.78C124.928 56.116 124.52 56.284 124.04 56.284ZM135.176 79.18L135.536 76.228C136.736 76.228 137.672 76.144 138.344 75.976C139.016 75.784 139.52 75.436 139.856 74.932C140.216 74.404 140.504 73.648 140.72 72.664C140.936 71.68 141.2 70.396 141.512 68.812L144.32 69.352C144.224 69.784 144.116 70.264 143.996 70.792C143.876 71.32 143.768 71.848 143.672 72.376C143.6 72.88 143.564 73.324 143.564 73.708C143.564 74.068 143.588 74.404 143.636 74.716C143.684 75.028 143.864 75.292 144.176 75.508C144.488 75.724 145.016 75.904 145.76 76.048C146.504 76.168 147.572 76.228 148.964 76.228C149.468 76.228 149.828 76.372 150.044 76.66C150.284 76.924 150.404 77.248 150.404 77.632C150.404 78.016 150.236 78.376 149.9 78.712C149.564 79.024 149.132 79.18 148.604 79.18C147.14 79.18 145.976 79.108 145.112 78.964C144.248 78.796 143.588 78.556 143.132 78.244C142.7 77.932 142.388 77.548 142.196 77.092C142.028 76.612 141.896 76.06 141.8 75.436L142.88 75.508C142.496 76.276 142.076 76.9 141.62 77.38C141.188 77.86 140.684 78.232 140.108 78.496C139.532 78.76 138.836 78.94 138.02 79.036C137.228 79.132 136.28 79.18 135.176 79.18ZM144.248 85.984C143.744 85.984 143.312 85.804 142.952 85.444C142.616 85.108 142.448 84.7 142.448 84.22C142.448 83.74 142.616 83.32 142.952 82.96C143.312 82.6 143.744 82.42 144.248 82.42C144.728 82.42 145.136 82.6 145.472 82.96C145.832 83.32 146.012 83.74 146.012 84.22C146.012 84.7 145.832 85.108 145.472 85.444C145.136 85.804 144.728 85.984 144.248 85.984ZM139.316 85.984C138.812 85.984 138.38 85.804 138.02 85.444C137.684 85.108 137.516 84.7 137.516 84.22C137.516 83.74 137.684 83.32 138.02 82.96C138.38 82.6 138.812 82.42 139.316 82.42C139.796 82.42 140.204 82.6 140.54 82.96C140.9 83.32 141.08 83.74 141.08 84.22C141.08 84.7 140.9 85.108 140.54 85.444C140.204 85.804 139.796 85.984 139.316 85.984ZM148.605 79.18L148.965 76.228C149.565 76.228 150.225 76.228 150.945 76.228C151.689 76.204 152.433 76.18 153.177 76.156C153.945 76.132 154.653 76.084 155.301 76.012C155.949 75.916 156.489 75.796 156.921 75.652C157.785 75.34 158.457 74.956 158.937 74.5C159.417 74.02 159.753 73.396 159.945 72.628C160.161 71.836 160.269 70.828 160.269 69.604C160.269 68.596 160.137 67.66 159.873 66.796C159.609 65.932 159.237 65.236 158.757 64.708C158.277 64.18 157.701 63.916 157.029 63.916C156.477 63.916 155.973 64.132 155.517 64.564C155.085 64.972 154.737 65.5 154.473 66.148C154.233 66.796 154.113 67.444 154.113 68.092C154.113 68.596 154.209 69.028 154.401 69.388C154.617 69.748 154.965 70.036 155.445 70.252C155.925 70.444 156.549 70.54 157.317 70.54C158.013 70.54 158.709 70.468 159.405 70.324C160.125 70.18 160.737 69.988 161.241 69.748L161.385 72.268C161.001 72.532 160.569 72.748 160.089 72.916C159.609 73.084 159.105 73.204 158.577 73.276C158.049 73.348 157.521 73.384 156.993 73.384C155.769 73.384 154.725 73.192 153.861 72.808C153.021 72.4 152.373 71.86 151.917 71.188C151.485 70.492 151.269 69.7 151.269 68.812C151.269 67.9 151.413 66.988 151.701 66.076C151.989 65.14 152.397 64.288 152.925 63.52C153.453 62.752 154.089 62.14 154.833 61.684C155.577 61.204 156.405 60.964 157.317 60.964C158.613 60.964 159.681 61.384 160.521 62.224C161.385 63.064 162.021 64.168 162.429 65.536C162.861 66.88 163.077 68.308 163.077 69.82C163.077 71.62 162.765 73.168 162.141 74.464C161.541 75.736 160.533 76.792 159.117 77.632C158.565 77.944 157.893 78.208 157.101 78.424C156.333 78.616 155.481 78.772 154.545 78.892C153.633 79.012 152.673 79.084 151.665 79.108C150.657 79.156 149.637 79.18 148.605 79.18ZM159.153 57.256C158.649 57.256 158.217 57.088 157.857 56.752C157.521 56.392 157.353 55.972 157.353 55.492C157.353 55.012 157.521 54.592 157.857 54.232C158.217 53.872 158.649 53.692 159.153 53.692C159.633 53.692 160.041 53.872 160.377 54.232C160.737 54.592 160.917 55.012 160.917 55.492C160.917 55.972 160.737 56.392 160.377 56.752C160.041 57.088 159.633 57.256 159.153 57.256ZM154.221 57.256C153.717 57.256 153.285 57.088 152.925 56.752C152.589 56.392 152.421 55.972 152.421 55.492C152.421 55.012 152.589 54.592 152.925 54.232C153.285 53.872 153.717 53.692 154.221 53.692C154.701 53.692 155.109 53.872 155.445 54.232C155.805 54.592 155.985 55.012 155.985 55.492C155.985 55.972 155.805 56.392 155.445 56.752C155.109 57.088 154.701 57.256 154.221 57.256ZM172.447 76.228C173.647 76.228 174.595 76.108 175.291 75.868C176.011 75.628 176.527 75.28 176.839 74.824C177.175 74.344 177.343 73.792 177.343 73.168C177.343 72.688 177.211 72.112 176.947 71.44C176.707 70.768 176.371 70.024 175.939 69.208C175.507 68.368 175.003 67.492 174.427 66.58C173.875 65.644 173.275 64.696 172.627 63.736L175.111 62.116C176.047 63.532 176.863 64.876 177.559 66.148C178.255 67.396 178.843 68.572 179.323 69.676C179.803 70.756 180.187 71.776 180.475 72.736C180.811 73.792 181.183 74.572 181.591 75.076C182.023 75.58 182.467 75.904 182.923 76.048C183.379 76.168 183.799 76.228 184.183 76.228C184.687 76.228 185.059 76.372 185.299 76.66C185.539 76.924 185.659 77.248 185.659 77.632C185.659 78.016 185.491 78.376 185.155 78.712C184.819 79.024 184.387 79.18 183.859 79.18C183.067 79.18 182.287 79.036 181.519 78.748C180.775 78.436 180.127 77.944 179.575 77.272C179.023 76.576 178.639 75.652 178.423 74.5L179.863 73.348C179.863 74.308 179.659 75.244 179.251 76.156C178.843 77.044 178.099 77.776 177.019 78.352C175.963 78.928 174.439 79.216 172.447 79.216C171.583 79.216 170.743 79.144 169.927 79C169.135 78.856 168.403 78.652 167.731 78.388C167.059 78.1 166.471 77.764 165.967 77.38L167.407 74.896C167.887 75.208 168.559 75.508 169.423 75.796C170.287 76.084 171.295 76.228 172.447 76.228ZM183.867 79.18L184.227 76.228C185.235 76.228 186.027 76.144 186.603 75.976C187.179 75.784 187.611 75.436 187.899 74.932C188.211 74.404 188.475 73.648 188.691 72.664C188.907 71.68 189.171 70.396 189.483 68.812L192.291 69.352C192.195 69.784 192.087 70.264 191.967 70.792C191.847 71.32 191.739 71.848 191.643 72.376C191.571 72.88 191.535 73.324 191.535 73.708C191.535 74.188 191.643 74.62 191.859 75.004C192.075 75.388 192.543 75.688 193.263 75.904C193.983 76.12 195.087 76.228 196.575 76.228C197.079 76.228 197.439 76.372 197.655 76.66C197.895 76.924 198.015 77.248 198.015 77.632C198.015 78.016 197.847 78.376 197.511 78.712C197.175 79.024 196.743 79.18 196.215 79.18C194.655 79.18 193.431 79.048 192.543 78.784C191.655 78.496 191.007 78.076 190.599 77.524C190.191 76.948 189.915 76.252 189.771 75.436L190.851 75.508C190.467 76.276 190.047 76.9 189.591 77.38C189.159 77.86 188.679 78.232 188.151 78.496C187.623 78.76 187.011 78.94 186.315 79.036C185.619 79.132 184.803 79.18 183.867 79.18ZM189.483 65.104C188.979 65.104 188.547 64.936 188.187 64.6C187.851 64.24 187.683 63.82 187.683 63.34C187.683 62.86 187.851 62.44 188.187 62.08C188.547 61.72 188.979 61.54 189.483 61.54C189.963 61.54 190.371 61.72 190.707 62.08C191.067 62.44 191.247 62.86 191.247 63.34C191.247 63.82 191.067 64.24 190.707 64.6C190.371 64.936 189.963 65.104 189.483 65.104ZM196.207 79.18L196.567 76.228C197.575 76.228 198.367 76.144 198.943 75.976C199.519 75.784 199.951 75.436 200.239 74.932C200.551 74.404 200.815 73.648 201.031 72.664C201.247 71.68 201.511 70.396 201.823 68.812L204.631 69.352C204.535 69.784 204.427 70.264 204.307 70.792C204.187 71.32 204.079 71.848 203.983 72.376C203.911 72.88 203.875 73.324 203.875 73.708C203.875 74.188 203.983 74.62 204.199 75.004C204.415 75.388 204.883 75.688 205.603 75.904C206.323 76.12 207.427 76.228 208.915 76.228C209.419 76.228 209.779 76.372 209.995 76.66C210.235 76.924 210.355 77.248 210.355 77.632C210.355 78.016 210.187 78.376 209.851 78.712C209.515 79.024 209.083 79.18 208.555 79.18C206.995 79.18 205.771 79.048 204.883 78.784C203.995 78.496 203.347 78.076 202.939 77.524C202.531 76.948 202.255 76.252 202.111 75.436L203.191 75.508C202.807 76.276 202.387 76.9 201.931 77.38C201.499 77.86 201.019 78.232 200.491 78.496C199.963 78.76 199.351 78.94 198.655 79.036C197.959 79.132 197.143 79.18 196.207 79.18ZM202.327 85.876C201.823 85.876 201.391 85.696 201.031 85.336C200.695 85 200.527 84.592 200.527 84.112C200.527 83.632 200.695 83.212 201.031 82.852C201.391 82.492 201.823 82.312 202.327 82.312C202.807 82.312 203.215 82.492 203.551 82.852C203.911 83.212 204.091 83.632 204.091 84.112C204.091 84.592 203.911 85 203.551 85.336C203.215 85.696 202.807 85.876 202.327 85.876ZM208.547 79.18L208.871 76.228C210.239 76.228 211.199 76.096 211.751 75.832C212.303 75.568 212.615 75.1 212.687 74.428C212.783 73.756 212.807 72.82 212.759 71.62L212.075 53.296H214.991L215.711 71.296C215.759 72.568 215.711 73.696 215.567 74.68C215.447 75.664 215.135 76.492 214.631 77.164C214.151 77.836 213.419 78.34 212.435 78.676C211.475 79.012 210.179 79.18 208.547 79.18ZM221.21 79L220.49 53.296H223.406L224.126 79H221.21Z" fill="#0488DB"/>
</svg>
