<svg width="272" height="543" viewBox="0 0 272 543" fill="none" xmlns="http://www.w3.org/2000/svg">
<path d="M152.226 290.315C196.059 294.58 228.377 331.62 227.272 375.67C226.523 405.517 211.412 431.292 193.771 457.121C190.896 461.33 187.952 465.542 184.995 469.773C169.893 491.383 154.454 513.475 146.083 538.169C145.34 540.362 142.363 540.332 141.641 538.198C133.273 513.492 117.824 491.387 102.713 469.764C99.5275 465.206 96.3573 460.67 93.2715 456.135C75.4647 429.967 60.4131 403.801 60.4131 373.35C60.4131 324.507 102.378 285.465 152.226 290.315Z" fill="#8AB5BF"/>
<path d="M152.226 290.315L152.371 288.822M152.226 290.315C196.059 294.58 228.377 331.62 227.272 375.67C226.523 405.517 211.412 431.292 193.771 457.121C190.896 461.33 187.952 465.542 184.995 469.773C169.893 491.383 154.454 513.475 146.083 538.169C145.34 540.362 142.363 540.332 141.641 538.198C133.273 513.492 117.824 491.387 102.713 469.764C99.5275 465.206 96.3573 460.67 93.2715 456.135C75.4647 429.967 60.4131 403.801 60.4131 373.35C60.4131 324.507 102.378 285.465 152.226 290.315Z" stroke="#6C919A" stroke-width="3"/>
<path d="M144 424C171.614 424 194 401.614 194 374C194 346.386 171.614 324 144 324C116.386 324 94 346.386 94 374C94 401.614 116.386 424 144 424Z" fill="#6C919A"/>
</svg>
