<svg width="24" height="25" viewBox="0 0 24 25" fill="none" xmlns="http://www.w3.org/2000/svg">
<path fill-rule="evenodd" clip-rule="evenodd" d="M12 2.99219C9.284 2.99219 8.944 3.00352 7.87733 3.05219C6.81267 3.10085 6.08533 3.27019 5.44933 3.51752C4.78267 3.76819 4.178 4.16152 3.678 4.67085C3.16948 5.17028 2.77591 5.77452 2.52467 6.44152C2.27867 7.07752 2.10867 7.80552 2.06 8.87019C2.012 9.93619 2 10.2755 2 12.9922C2 15.7089 2.01133 16.0482 2.06 17.1149C2.10867 18.1795 2.278 18.9069 2.52533 19.5429C2.776 20.2095 3.16933 20.8142 3.67867 21.3142C4.1781 21.8227 4.78234 22.2163 5.44933 22.4675C6.08533 22.7142 6.81267 22.8835 7.87733 22.9322C8.944 22.9809 9.284 22.9922 12 22.9922C14.716 22.9922 15.056 22.9809 16.1227 22.9322C17.1873 22.8835 17.9147 22.7142 18.5507 22.4669C19.2173 22.2162 19.822 21.8229 20.322 21.3135C20.8305 20.8141 21.2241 20.2099 21.4753 19.5429C21.722 18.9069 21.8913 18.1795 21.94 17.1149C21.9887 16.0482 22 15.7082 22 12.9922C22 10.2762 21.9887 9.93619 21.94 8.86952C21.8913 7.80485 21.722 7.07752 21.4747 6.44152C21.2236 5.77423 20.83 5.16973 20.3213 4.67019C19.8219 4.16167 19.2177 3.76809 18.5507 3.51685C17.9147 3.27085 17.1867 3.10085 16.122 3.05219C15.056 3.00419 14.7167 2.99219 12 2.99219ZM12 4.79419C14.67 4.79419 14.9867 4.80419 16.0413 4.85219C17.016 4.89685 17.5453 5.05885 17.898 5.19685C18.3647 5.37752 18.698 5.59485 19.048 5.94419C19.398 6.29419 19.6147 6.62752 19.7953 7.09419C19.9327 7.44685 20.0953 7.97619 20.14 8.95085C20.188 10.0055 20.198 10.3222 20.198 12.9922C20.198 15.6622 20.188 15.9789 20.14 17.0335C20.0953 18.0082 19.9333 18.5375 19.7953 18.8902C19.6353 19.3246 19.3799 19.7175 19.048 20.0402C18.7254 20.3722 18.3324 20.6276 17.898 20.7875C17.5453 20.9249 17.016 21.0875 16.0413 21.1322C14.9867 21.1802 14.6707 21.1902 12 21.1902C9.32933 21.1902 9.01333 21.1802 7.95867 21.1322C6.984 21.0875 6.45467 20.9255 6.102 20.7875C5.66764 20.6275 5.27467 20.3721 4.952 20.0402C4.62012 19.7175 4.36475 19.3245 4.20467 18.8902C4.06733 18.5375 3.90467 18.0082 3.86 17.0335C3.812 15.9789 3.802 15.6622 3.802 12.9922C3.802 10.3222 3.812 10.0055 3.86 8.95085C3.90467 7.97619 4.06667 7.44685 4.20467 7.09419C4.38533 6.62752 4.60267 6.29419 4.952 5.94419C5.27463 5.61222 5.66761 5.35684 6.102 5.19685C6.45467 5.05952 6.984 4.89685 7.95867 4.85219C9.01333 4.80419 9.33 4.79419 12 4.79419Z" fill="white"/>
<path fill-rule="evenodd" clip-rule="evenodd" d="M12 16.3289C11.5618 16.3289 11.128 16.2425 10.7231 16.0749C10.3183 15.9072 9.95047 15.6614 9.64064 15.3516C9.3308 15.0417 9.08502 14.6739 8.91734 14.2691C8.74965 13.8643 8.66335 13.4304 8.66335 12.9922C8.66335 12.554 8.74965 12.1201 8.91734 11.7153C9.08502 11.3105 9.3308 10.9426 9.64064 10.6328C9.95047 10.323 10.3183 10.0772 10.7231 9.90951C11.128 9.74183 11.5618 9.65552 12 9.65552C12.885 9.65552 13.7336 10.0071 14.3594 10.6328C14.9851 11.2586 15.3367 12.1072 15.3367 12.9922C15.3367 13.8771 14.9851 14.7258 14.3594 15.3516C13.7336 15.9773 12.885 16.3289 12 16.3289ZM12 7.85219C10.6368 7.85219 9.32942 8.39372 8.36549 9.35766C7.40155 10.3216 6.86002 11.629 6.86002 12.9922C6.86002 14.3554 7.40155 15.6628 8.36549 16.6267C9.32942 17.5907 10.6368 18.1322 12 18.1322C13.3632 18.1322 14.6706 17.5907 15.6345 16.6267C16.5985 15.6628 17.14 14.3554 17.14 12.9922C17.14 11.629 16.5985 10.3216 15.6345 9.35766C14.6706 8.39372 13.3632 7.85219 12 7.85219ZM18.6353 7.75885C18.6353 8.08109 18.5073 8.39013 18.2795 8.61799C18.0516 8.84585 17.7426 8.97385 17.4204 8.97385C17.0981 8.97385 16.7891 8.84585 16.5612 8.61799C16.3334 8.39013 16.2053 8.08109 16.2053 7.75885C16.2053 7.43662 16.3334 7.12758 16.5612 6.89972C16.7891 6.67186 17.0981 6.54385 17.4204 6.54385C17.7426 6.54385 18.0516 6.67186 18.2795 6.89972C18.5073 7.12758 18.6353 7.43662 18.6353 7.75885Z" fill="white"/>
</svg>
