<svg width="24" height="25" viewBox="0 0 24 25" fill="none" xmlns="http://www.w3.org/2000/svg">
<path d="M22 4.46278V21.5216C22 21.9116 21.8451 22.2857 21.5693 22.5615C21.2935 22.8373 20.9194 22.9922 20.5294 22.9922H3.47059C3.08056 22.9922 2.70651 22.8373 2.43073 22.5615C2.15494 22.2857 2 21.9116 2 21.5216V4.46278C2 4.07275 2.15494 3.6987 2.43073 3.42291C2.70651 3.14712 3.08056 2.99219 3.47059 2.99219H20.5294C20.9194 2.99219 21.2935 3.14712 21.5693 3.42291C21.8451 3.6987 22 4.07275 22 4.46278ZM7.88235 10.6392H4.94118V20.051H7.88235V10.6392ZM8.14706 7.40395C8.14861 7.18148 8.10632 6.96087 8.02261 6.75474C7.93891 6.54861 7.81542 6.36098 7.65919 6.20257C7.50297 6.04417 7.31708 5.91808 7.11213 5.83152C6.90718 5.74496 6.68718 5.69961 6.46471 5.69807H6.41177C5.95934 5.69807 5.52544 5.8778 5.20552 6.19771C4.88561 6.51763 4.70588 6.95152 4.70588 7.40395C4.70588 7.85638 4.88561 8.29028 5.20552 8.61019C5.52544 8.93011 5.95934 9.10983 6.41177 9.10983C6.63426 9.11531 6.85565 9.07689 7.06328 8.99677C7.27092 8.91665 7.46074 8.79641 7.62189 8.64291C7.78304 8.4894 7.91237 8.30565 8.00248 8.10215C8.09259 7.89865 8.14172 7.67939 8.14706 7.45689V7.40395ZM19.0588 14.3334C19.0588 11.504 17.2588 10.404 15.4706 10.404C14.8851 10.3746 14.3021 10.4993 13.7799 10.7656C13.2576 11.0319 12.8143 11.4305 12.4941 11.9216H12.4118V10.6392H9.64706V20.051H12.5882V15.0451C12.5457 14.5324 12.7072 14.0237 13.0376 13.6294C13.3681 13.2351 13.8407 12.9871 14.3529 12.9392H14.4647C15.4 12.9392 16.0941 13.5275 16.0941 15.0098V20.051H19.0353L19.0588 14.3334Z" fill="white"/>
</svg>
