<svg width="24" height="25" viewBox="0 0 24 25" fill="none" xmlns="http://www.w3.org/2000/svg">
<path d="M22 6.91679C21.2645 7.24269 20.4744 7.4629 19.6438 7.56243C20.4911 7.05508 21.1412 6.25 21.4477 5.29167C20.655 5.76203 19.7768 6.10379 18.8422 6.287C18.0935 5.49073 17.0277 4.99219 15.8474 4.99219C13.582 4.99219 11.7446 6.82959 11.7446 9.09683C11.7446 9.41745 11.7816 9.72926 11.8503 10.0305C8.43883 9.85874 5.41672 8.22481 3.39258 5.74265C3.04025 6.35042 2.83766 7.05508 2.83766 7.80554C2.83766 9.22895 3.56258 10.4859 4.66273 11.2214C3.98978 11.1994 3.35735 11.0153 2.80419 10.7079V10.7607C2.80419 12.7487 4.21792 14.4073 6.09583 14.7843C5.75055 14.8777 5.38853 14.927 5.01506 14.927C4.75081 14.927 4.49273 14.9023 4.24258 14.8548C4.76491 16.4843 6.27993 17.6717 8.07593 17.7034C6.67101 18.8044 4.90144 19.4606 2.97948 19.4606C2.64829 19.4606 2.3215 19.4412 2 19.4034C3.81626 20.5687 5.97252 21.2469 8.28909 21.2469C15.8378 21.2469 19.9644 14.9948 19.9644 9.57247C19.9644 9.39631 19.96 9.21838 19.9521 9.04222C20.7536 8.46264 21.4495 7.74124 21.9982 6.91943L22 6.91679Z" fill="white"/>
</svg>
