<svg width="24" height="24" viewBox="0 0 24 24" fill="none" xmlns="http://www.w3.org/2000/svg">
<path d="M16.5153 13.9842C16.2682 13.8602 15.0499 13.2601 14.8229 13.178C14.5958 13.095 14.4308 13.054 14.2657 13.3021C14.1007 13.5491 13.6256 14.1082 13.4806 14.2733C13.3365 14.4383 13.1915 14.4583 12.9445 14.3343C12.2143 14.0436 11.5405 13.628 10.953 13.106C10.4112 12.6052 9.94671 12.0268 9.5747 11.3896C9.43066 11.1416 9.55969 11.0075 9.68372 10.8845C9.79475 10.7735 9.93178 10.5955 10.0548 10.4504C10.1567 10.3252 10.2402 10.1861 10.3029 10.0373C10.3358 9.96896 10.3512 9.89343 10.3475 9.81762C10.3438 9.7418 10.3213 9.66811 10.2819 9.60323C10.2198 9.47921 9.72473 8.25993 9.51868 7.76382C9.31764 7.28171 9.11359 7.34673 8.96056 7.33873C8.81653 7.33173 8.65149 7.32973 8.48645 7.32973C8.36091 7.33323 8.23745 7.36267 8.12384 7.4162C8.01023 7.46974 7.90893 7.54621 7.8263 7.6408C7.54627 7.90599 7.32453 8.22661 7.17523 8.58222C7.02592 8.93783 6.95232 9.32064 6.95911 9.70626C7.03943 10.6407 7.39089 11.5314 7.97034 12.2688C9.03249 13.8612 10.4905 15.15 12.2013 16.0087C12.6628 16.2069 13.1342 16.3812 13.6136 16.5308C14.1191 16.6842 14.6534 16.7175 15.174 16.6278C15.5187 16.558 15.8453 16.4174 16.133 16.2149C16.4206 16.0124 16.6632 15.7525 16.8453 15.4515C17.0078 15.0814 17.0579 14.6717 16.9894 14.2733C16.9283 14.1693 16.7633 14.1082 16.5153 13.9842ZM19.0078 4.90318C17.3074 3.20315 15.0471 2.17898 12.6478 2.02134C10.2485 1.8637 7.87362 2.58334 5.96537 4.04627C4.05713 5.5092 2.74553 7.61573 2.27476 9.97369C1.80399 12.3316 2.20613 14.7803 3.40631 16.8639L2 22L7.25518 20.6227C8.70866 21.4141 10.3372 21.8288 11.9922 21.829H11.9962C13.9568 21.828 15.873 21.2459 17.5029 20.1563C19.1328 19.0667 20.4031 17.5185 21.1534 15.7072C21.9038 13.8959 22.1004 11.9029 21.7185 9.9799C21.3366 8.05692 20.3933 6.29029 19.0078 4.90318ZM16.3742 18.8953C15.0621 19.7178 13.5449 20.1542 11.9962 20.1546H11.9922C10.5168 20.1545 9.06857 19.7575 7.7993 19.0053L7.49823 18.8273L4.37953 19.6455L5.21172 16.6048L5.01668 16.2927C4.15103 14.9123 3.71417 13.3061 3.76133 11.6773C3.8085 10.0486 4.33757 8.47042 5.28166 7.14236C6.22574 5.81429 7.54243 4.796 9.06523 4.21624C10.588 3.63649 12.2485 3.5213 13.8368 3.88525C15.4251 4.2492 16.8698 5.07594 17.9882 6.26093C19.1066 7.44593 19.8485 8.93595 20.1201 10.5426C20.3917 12.1492 20.1808 13.8003 19.514 15.2871C18.8472 16.7738 17.7546 18.0295 16.3742 18.8953Z" fill="white"/>
</svg>
