<svg width="110" height="25" viewBox="0 0 110 25" fill="none" xmlns="http://www.w3.org/2000/svg">
<g clip-path="url(#clip0_713_25696)">
<path d="M76.4403 24.9838H66.418V23.784C66.6979 23.76 67.1058 23.72 67.6378 23.68C68.1737 23.64 68.5496 23.5641 68.7656 23.4801C69.1135 23.3281 69.3655 23.1281 69.5254 22.8722C69.6814 22.6202 69.7574 22.2683 69.7574 21.8123V4.47124C69.7574 4.0713 69.7014 3.74736 69.5854 3.4794C69.4735 3.21145 69.2015 2.98748 68.7696 2.80751C68.4576 2.67154 68.0657 2.53956 67.5898 2.42758C67.1138 2.3076 66.7259 2.23961 66.422 2.21961V1.00781H76.4443V2.21961C76.1203 2.23161 75.7324 2.2716 75.2805 2.34359C74.8326 2.41958 74.4406 2.51156 74.1047 2.62354C73.7087 2.75952 73.4408 2.98348 73.3088 3.28343C73.1688 3.58738 73.1009 3.92733 73.1009 4.29926V21.6284C73.1009 22.0003 73.1768 22.3363 73.3328 22.6242C73.4808 22.9042 73.7407 23.1441 74.1047 23.3081C74.3246 23.3961 74.6846 23.4961 75.1805 23.608C75.6764 23.712 76.1004 23.776 76.4443 23.788V24.9878L76.4403 24.9838Z" fill="white"/>
<path d="M45.9557 24.9836H36.7052V23.8038C37.5211 23.7478 38.197 23.6399 38.7369 23.4719C39.2768 23.3039 39.5448 23.0999 39.5448 22.86C39.5448 22.76 39.5368 22.636 39.5128 22.488C39.4968 22.3441 39.4608 22.2201 39.4208 22.1081L37.5731 16.805H29.7584C29.4625 17.5809 29.2225 18.2687 29.0425 18.8447C28.8626 19.4206 28.6986 19.9565 28.5506 20.4404C28.4106 20.9163 28.3186 21.3042 28.2667 21.6122C28.2147 21.9121 28.1907 22.1521 28.1907 22.3401C28.1907 22.78 28.5186 23.1199 29.1785 23.3719C29.8344 23.6199 30.5783 23.7598 31.4021 23.8038V24.9836H23.0195V23.8038C23.2915 23.7838 23.6314 23.7238 24.0394 23.6119C24.4473 23.5039 24.7792 23.3679 25.0432 23.1919C25.4591 22.888 25.7871 22.568 26.015 22.2441C26.243 21.9201 26.467 21.4642 26.6869 20.8843C27.8067 17.9248 29.0385 14.5894 30.3863 10.894C31.7341 7.19859 32.9419 3.90314 33.9937 1.01562H35.2535L42.6723 21.4042C42.8282 21.8402 43.0082 22.1921 43.2042 22.464C43.4041 22.728 43.6841 22.992 44.04 23.2439C44.276 23.3999 44.5919 23.5359 44.9759 23.6319C45.3638 23.7398 45.6918 23.7958 45.9517 23.8078V24.9876L45.9557 24.9836ZM37.0012 15.3212L33.6258 6.14677L30.3063 15.3212H37.0012Z" fill="white"/>
<path d="M64.5653 17.4691L63.8174 24.9838H45.6484V24.3919L59.8781 2.35159H54.6629C54.059 2.35159 53.5551 2.36359 53.1432 2.37958C52.7353 2.40358 52.3633 2.44757 52.0234 2.52356C51.3155 2.66354 50.5316 3.28343 49.6558 4.37125C48.7759 5.45507 48.116 6.61088 47.6721 7.81068H46.5563L47.2402 1.00781H64.1813V1.60771L49.9517 23.648H55.3188C56.2227 23.648 57.1825 23.5721 58.2023 23.4441C59.2222 23.3001 59.8861 23.0721 60.194 22.7402C60.8859 22.0363 61.5258 21.1765 62.1257 20.1646C62.7216 19.1488 63.1615 18.2489 63.4455 17.4651H64.5613L64.5653 17.4691Z" fill="white"/>
<path d="M109.499 24.9838H99.4766V23.784C99.7565 23.76 100.164 23.72 100.7 23.68C101.232 23.64 101.612 23.5641 101.828 23.4801C102.172 23.3281 102.424 23.1281 102.58 22.8722C102.736 22.6202 102.812 22.2683 102.812 21.8123V4.47124C102.812 4.0713 102.756 3.74736 102.64 3.4794C102.524 3.21145 102.252 2.98748 101.828 2.80751C101.512 2.67154 101.116 2.53956 100.644 2.42758C100.164 2.3076 99.7765 2.23961 99.4766 2.21961V1.00781H109.499V2.21961C109.171 2.23161 108.787 2.2716 108.335 2.34359C107.887 2.41958 107.491 2.51156 107.155 2.62354C106.759 2.75952 106.491 2.98348 106.355 3.28343C106.223 3.58738 106.159 3.92733 106.159 4.29926V21.6284C106.159 22.0003 106.231 22.3363 106.383 22.6242C106.535 22.9042 106.791 23.1441 107.155 23.3081C107.375 23.3961 107.735 23.4961 108.231 23.608C108.727 23.712 109.155 23.776 109.495 23.788V24.9878L109.499 24.9838Z" fill="white"/>
<path d="M97.6325 17.4691L96.8966 24.9838H79.0156V24.3919L93.0213 2.35159H87.8941C87.2942 2.35159 86.7983 2.36359 86.3944 2.37958C85.9905 2.40358 85.6265 2.44757 85.2946 2.52356C84.5987 2.66354 83.8228 3.28343 82.959 4.37125C82.0991 5.45507 81.4472 6.61088 81.0073 7.81068H79.9115L80.5834 1.00781H97.2606V1.60771L83.2509 23.648H88.538C89.4259 23.648 90.3697 23.5721 91.3736 23.4441C92.3774 23.3001 93.0333 23.0721 93.3372 22.7402C94.0211 22.0363 94.649 21.1765 95.2329 20.1646C95.8208 19.1488 96.2527 18.2489 96.5327 17.4651H97.6325V17.4691Z" fill="white"/>
<path d="M20.6206 0.992188H0V3.81172H20.6206V0.992188Z" fill="white"/>
<path d="M20.6206 6.28711H0V9.10664H20.6206V6.28711Z" fill="white"/>
<path d="M20.6206 11.582H0V14.4016H20.6206V11.582Z" fill="white"/>
<path d="M20.6206 16.877H0V19.6965H20.6206V16.877Z" fill="white"/>
<path d="M20.6206 22.1719H0V24.9914H20.6206V22.1719Z" fill="white"/>
</g>
<defs>
<clipPath id="clip0_713_25696">
<rect width="109.498" height="24" fill="white" transform="translate(0 0.992188)"/>
</clipPath>
</defs>
</svg>
