<svg width="1153" height="1583" viewBox="0 0 1153 1583" fill="none" xmlns="http://www.w3.org/2000/svg">
<g opacity="0.05">
<path d="M1233.22 1583C1220.58 1583 1207.93 1581.25 1195.44 1577.86C1141.7 1563.16 1092.9 1518.04 1054.27 1447.23C1029.06 1401.08 1010.71 1351.54 991.206 1299.22C920.814 1109.8 848.033 913.792 446.808 848.526C413.039 843.078 382.122 839.995 352.13 837.014C244.191 823.447 63.625 800.63 10.1181 518.393C-5.22462 437.401 -36.1414 163.798 210.962 40.7685C316.588 -12.575 423.91 -4.04412 524.216 13.1203C635.393 32.1349 699.385 70.8834 792.753 145.194C833.461 177.673 866.382 214.88 899.304 265.859C928.987 311.7 951.885 364.426 969.387 427.02C973.704 442.335 977.868 458.163 981.954 473.374L982.108 473.991C999.379 538.743 1017.19 605.654 1047.26 661.875C1083.57 729.813 1130.22 773.598 1179.71 819.953C1213.41 851.609 1248.18 884.294 1282.33 926.742C1321.11 974.947 1353.19 1028.91 1380.33 1091.71C1420.65 1184.83 1435.53 1278.97 1423.42 1363.87C1412.71 1439 1381.48 1502.32 1335.45 1542.2C1307.62 1566.35 1275.63 1580.22 1243.01 1582.59C1239.77 1582.79 1236.46 1582.9 1233.22 1582.9V1583ZM392.222 4.89784C332.701 4.89784 272.178 15.0732 212.272 45.3936C-31.9781 166.984 -1.44676 437.298 13.6647 517.262C36.5632 637.927 83.3624 720.872 156.838 770.823C218.132 812.45 287.059 824.064 352.439 832.286C382.43 835.267 413.501 838.35 447.271 843.798C850.423 909.372 923.667 1106.51 994.444 1297.17C1013.87 1349.38 1032.15 1398.71 1057.2 1444.55C1095.29 1514.34 1143.32 1558.85 1196.14 1573.24C1211.56 1577.45 1227.28 1578.99 1242.78 1577.96C1274.78 1575.7 1306.16 1562.03 1333.45 1538.39C1378.55 1499.34 1409.24 1437.05 1419.8 1363.25C1431.75 1279.49 1417.03 1186.57 1377.16 1094.38C1350.18 1031.99 1318.34 978.441 1279.79 930.545C1245.79 888.302 1211.17 855.72 1177.55 824.269C1127.83 777.607 1080.87 733.514 1044.17 664.959C1013.8 608.121 995.909 540.902 978.562 475.841L978.408 475.122C974.321 459.91 970.158 444.185 965.84 428.87C948.493 366.79 925.749 314.578 896.374 269.148C863.684 218.58 831.071 181.681 790.671 149.511C697.766 75.5085 634.082 36.9656 523.522 18.0538C480.732 10.7564 436.631 5.00062 391.991 5.00062L392.222 4.89784Z" fill="url(#paint0_linear_657_17148)"/>
<path d="M1413.15 1209.58C1406.52 1170.63 1394.96 1130.96 1378.84 1091.59C1322.25 953.658 1253.87 884.898 1187.64 818.398C1156.8 787.358 1127.58 758.066 1100.75 722.812C1087.49 705.339 1075.46 686.941 1064.13 666.488C1050.09 641.306 1039.84 619.414 1031.67 597.419C1020.64 567.509 1012.55 535.442 1006.15 507.896C1004.68 501.524 1003.22 495.049 1001.75 488.779L1001.29 486.826C996.278 464.934 991.112 442.425 984.79 420.635C966.98 359.891 944.005 308.912 914.476 264.922C887.26 224.323 853.721 187.939 808.85 150.423C726.199 81.2517 633.68 39.6253 541.238 30.2723C533.682 29.2444 524.199 29.45 512.326 29.7584C493.822 30.2723 470.384 30.7862 442.32 26.8805C401.303 21.2275 338.853 12.5939 256.434 41.7838C50.964 114.347 28.7594 322.582 26.3694 363.592C20.2014 459.795 47.1091 726.615 243.095 804.831C271.93 818.398 339.547 828.265 399.221 837.002C426.283 840.907 451.803 844.71 469.536 848.205C846.32 917.89 919.333 1104.75 990.033 1285.54C1010.08 1336.72 1028.97 1385.13 1054.64 1430.05C1080.08 1474.66 1109.15 1508.16 1140.99 1529.54C1169.21 1548.45 1198.82 1558.11 1228.96 1558.11C1232.2 1558.11 1235.44 1558.01 1238.76 1557.81C1246.39 1557.29 1254.1 1556.06 1261.65 1554.31C1300.43 1545.06 1335.67 1519.88 1363.5 1481.54C1395.34 1437.65 1414.54 1380.51 1419.01 1316.37C1421.4 1281.94 1419.48 1245.97 1413.23 1209.48L1413.15 1209.58ZM1415.31 1316.06C1410.92 1379.07 1392.11 1435.19 1360.8 1478.25C1333.51 1515.87 1299.05 1540.54 1260.96 1549.58C1253.56 1551.33 1246 1552.56 1238.52 1553.08C1205.76 1555.44 1173.3 1545.99 1142.61 1525.33C1111.31 1504.15 1082.63 1471.16 1057.49 1427.17C1032.05 1382.56 1013.16 1334.36 993.194 1283.28C922.108 1101.46 848.633 913.471 469.998 843.477C452.266 839.88 426.669 836.18 399.607 832.274C340.163 823.64 272.779 813.773 244.252 800.309C50.5014 722.915 23.9022 459.178 29.993 364.003C32.306 323.61 54.2794 118.15 257.359 46.5117C339.161 17.6302 401.226 26.161 441.934 31.814C470.23 35.7197 493.822 35.2058 512.403 34.6918C524.199 34.3835 533.528 34.1779 540.93 35.103C632.755 44.4561 724.734 85.7741 806.922 154.535C851.486 191.844 884.792 228.023 911.777 268.211C940.998 311.79 963.742 362.255 981.398 422.485C987.72 444.069 992.886 466.578 997.897 488.573L998.283 490.321C999.747 496.693 1001.21 503.168 1002.68 509.438C1009.15 537.086 1017.25 569.462 1028.43 599.68C1036.68 621.881 1047.09 644.081 1061.2 669.468C1072.68 690.127 1084.79 708.731 1098.2 726.409C1125.19 761.971 1154.49 791.367 1185.48 822.407C1251.4 888.598 1319.48 956.947 1375.68 1094.06C1391.64 1133.01 1403.05 1172.27 1409.68 1210.82C1415.85 1246.79 1417.7 1282.25 1415.39 1316.17L1415.31 1316.06Z" fill="url(#paint1_linear_657_17148)"/>
<path d="M1377.34 1092.34C1324.75 955.742 1258.45 884.617 1194.38 815.651C1167.16 786.461 1141.49 758.813 1117.05 726.643C1104.64 710.3 1092.84 692.417 1080.97 671.86C1067.78 649.043 1055.14 626.534 1045.5 601.147C1033.86 570.415 1026.69 537.731 1020.6 507.102C1019.44 501.244 1018.28 495.282 1017.13 489.115C1012.43 464.653 1007.57 439.267 1000.17 415.216C965.703 302.465 914.895 227.537 824.843 156.618C736.872 87.2411 642.195 50.651 558.311 53.3233C551.063 53.5288 544.51 53.94 538.342 54.2483C512.745 55.6872 492.545 56.7151 443.972 47.9787C345.594 32.5615 299.488 46.5397 280.753 52.1927C144.442 94.9496 62.4854 209.345 54.6983 368.039C50.1495 505.458 91.3976 627.664 177.595 725.82C213.831 766.83 241.818 784.2 275.202 799.103C309.357 814.212 356.465 826.34 415.369 835.18C440.58 838.88 465.714 843.402 492.159 848.952C844.195 922.749 920.831 1108.47 988.447 1272.51C1009.11 1322.67 1028.62 1369.95 1054.91 1413.73C1080.27 1456.08 1108.57 1487.63 1139.02 1507.37C1166.62 1525.15 1195.38 1534.19 1224.68 1534.19C1227.92 1534.19 1231.16 1534.09 1234.47 1533.89C1242.18 1533.37 1249.97 1532.14 1257.52 1530.29C1295.38 1521.14 1329.77 1496.78 1356.83 1459.78C1387.2 1418.36 1405.94 1364.4 1410.95 1303.96C1416.5 1237.26 1404.86 1164.08 1377.18 1092.24L1377.34 1092.34ZM1407.48 1303.55C1402.55 1362.96 1384.12 1415.89 1354.36 1456.49C1327.76 1492.77 1294.15 1516.62 1256.98 1525.66C1249.51 1527.41 1241.95 1528.64 1234.32 1529.16C1202.47 1531.42 1170.79 1522.58 1140.72 1503.15C1110.73 1483.73 1082.89 1452.59 1057.84 1410.86C1031.78 1367.38 1012.35 1320.2 991.685 1270.15C923.684 1105.29 846.585 918.329 492.776 844.224C466.254 838.674 441.043 834.152 415.754 830.349C357.159 821.612 310.205 809.587 276.359 794.478C243.36 779.78 215.759 762.616 179.985 722.12C94.7129 624.992 53.8503 504.019 58.322 368.245C66.109 212.017 146.986 99.0609 281.524 56.9206C293.629 53.2205 318.84 45.6147 360.705 45.6147C382.678 45.6147 409.895 47.5675 443.51 52.8094C492.391 61.6486 512.668 60.518 538.496 59.079C544.664 58.7707 551.14 58.3596 558.388 58.154C641.655 55.4817 735.562 91.8662 822.992 160.73C912.273 231.135 962.619 305.343 996.774 416.963C1004.02 440.705 1008.88 465.887 1013.58 490.246C1014.74 496.413 1015.89 502.477 1017.05 508.233C1023.14 539.17 1030.39 572.06 1042.19 603.202C1051.9 628.898 1064.7 651.612 1077.96 674.635C1089.99 695.294 1101.86 713.384 1114.35 729.932C1138.94 762.308 1164.7 789.956 1191.99 819.248C1255.83 887.803 1321.75 958.62 1374.02 1094.29C1401.39 1165.31 1412.88 1237.57 1407.4 1303.35L1407.48 1303.55Z" fill="url(#paint2_linear_657_17148)"/>
<path d="M1374.39 1093.66C1328.9 954.595 1264.06 875.454 1201.38 798.984L1201 798.573C1184.03 777.914 1166.53 756.536 1149.65 734.232C1138.85 719.946 1127.67 703.501 1114.64 682.533C1112.41 678.833 1110.02 675.236 1107.63 671.33L1106.78 669.994C1094.68 650.877 1082.11 631.143 1073.17 608.531C1060.21 575.744 1054.2 539.565 1049.57 505.339C1048.88 500.2 1048.26 495.061 1047.57 489.819C1043.94 461.246 1040.17 431.645 1031.07 404.099C1012.8 348.906 989.667 303.271 960.446 264.831C933.153 228.96 900.309 198.434 856.979 168.73C781.962 117.34 698.463 90.1029 615.427 90.1029C602.706 89.8973 588.828 92.6724 574.179 95.4475C546.501 100.689 506.871 104.081 473.873 93.2891C447.351 84.6555 394.615 67.5938 331.317 73.8634C234.017 88.7667 179.817 148.791 151.444 196.584C110.427 265.653 100.713 344.897 105.262 395.98C117.752 538.64 185.291 667.527 295.465 758.9C355.063 808.338 479.347 835.677 480.581 835.986C498.853 840.405 517.743 844.928 537.788 850.375C839.863 931.469 916.654 1098.08 984.501 1245.16C1006.86 1293.67 1027.99 1339.41 1055.9 1381.45C1081.18 1419.37 1107.94 1446.92 1135.62 1463.26C1161.91 1478.78 1189.12 1486.69 1216.49 1486.69C1219.73 1486.69 1223.05 1486.59 1226.28 1486.38C1234.07 1485.87 1241.78 1484.64 1249.41 1482.79C1285.34 1474.05 1317.96 1451.44 1343.78 1417.21C1371.39 1380.62 1389.43 1333.04 1395.75 1279.69C1402.76 1220.7 1395.67 1158.1 1374.55 1093.66H1374.39ZM1391.97 1278.87C1385.73 1331.19 1368.15 1377.85 1341.01 1413.72C1315.8 1447.12 1283.8 1469.32 1248.57 1477.96C1241.16 1479.81 1233.53 1480.94 1225.9 1481.45C1195.91 1483.61 1165.76 1475.9 1136.85 1458.74C1109.71 1442.7 1083.27 1415.57 1058.36 1378.05C1030.68 1336.43 1009.64 1290.79 987.354 1242.49C919.198 1094.58 841.945 927.05 538.328 845.544C518.282 840.2 499.316 835.575 481.043 831.155C479.81 830.847 356.22 803.61 297.239 754.789C187.989 664.238 121.067 536.584 108.731 395.466C104.259 345.308 113.897 267.503 154.143 199.668C194.234 132.14 255.528 90.3084 331.548 78.6942C342.111 77.6663 352.133 77.1524 361.694 77.1524C408.57 77.1524 451.129 90.8223 472.948 98.017C506.563 109.015 546.655 105.623 574.642 100.278C589.214 97.5031 603.091 95.0364 615.35 95.0364C697.769 95.0364 780.728 122.068 855.283 173.047C898.227 202.443 930.84 232.763 957.825 268.325C986.737 306.354 1009.64 351.475 1027.68 406.155C1036.54 433.084 1040.32 462.376 1043.94 490.744C1044.64 495.986 1045.26 501.227 1045.95 506.367C1050.58 541.004 1056.74 577.594 1069.93 610.895C1079.02 633.918 1091.67 653.96 1103.93 673.18L1104.78 674.517C1107.24 678.319 1109.56 682.02 1111.79 685.72C1124.9 706.893 1136.16 723.338 1147.03 737.727C1163.99 760.133 1181.49 781.512 1198.45 802.171L1198.84 802.582C1261.29 878.743 1325.82 957.473 1371 1095.61C1391.82 1159.23 1398.83 1220.9 1391.89 1278.97L1391.97 1278.87Z" fill="url(#paint3_linear_657_17148)"/>
<path d="M1198.06 1390.69C1174.86 1390.69 1151.34 1385.24 1128.14 1374.56C1105.01 1363.87 1082.49 1345.37 1057.28 1316.28C1022.43 1276.09 995.524 1230.05 967.075 1181.33C901.386 1068.99 827.063 941.744 628.455 852.941L626.759 852.119C524.911 806.587 457.68 776.472 377.189 670.402C361.383 649.64 345.038 629.906 329.233 610.789C295.463 570.088 263.698 531.75 240.337 487.349C235.789 478.612 231.548 469.67 227.693 461.242C207.416 416.944 198.858 363.395 204.178 314.471C210.885 253.008 238.872 200.281 285.132 161.841C316.743 135.632 351.206 122.887 390.527 122.887C421.829 122.887 452.283 131.006 475.259 138.098C495.305 144.265 512.343 156.393 528.843 168.008C543.492 178.389 558.603 189.078 576.105 195.861C583.66 198.842 591.833 200.384 600.314 200.384C622.827 200.384 644.26 190.208 663.227 181.369C674.098 176.23 683.427 171.811 691.522 169.96C718.661 163.691 746.185 160.607 773.479 160.607C824.672 160.607 874.247 171.502 920.969 193.086C1004.93 231.835 1057.9 290.112 1092.67 382.101C1104.93 414.477 1105.93 450.861 1106.86 486.013V487.554C1107.01 492.488 1107.16 497.216 1107.32 501.841C1108.71 540.487 1112.33 585.094 1128.44 623.431C1138.08 646.248 1152.42 664.955 1166.3 683.044C1171.23 689.416 1176.78 696.714 1181.87 703.909L1186.58 710.589C1196.14 724.054 1205.16 736.799 1214.64 749.338C1255.66 803.606 1285.96 852.941 1310.01 904.846C1337.61 964.459 1356.73 1027.16 1368.3 1096.64C1376.16 1143.81 1375.16 1189.04 1365.45 1230.97C1356.35 1270.13 1339.54 1305.08 1316.87 1332C1287.19 1367.26 1249.64 1387.51 1208.24 1390.38C1204.85 1390.59 1201.38 1390.8 1197.91 1390.8L1198.06 1390.69ZM390.604 127.82C351.977 127.82 318.13 140.36 287.137 166.055C241.802 203.673 214.355 255.269 207.879 315.293C202.636 363.189 211.04 415.505 230.931 458.878C234.786 467.204 238.872 476.146 243.421 484.779C266.474 528.77 298.162 566.901 331.623 607.294C347.582 626.514 363.927 646.248 379.81 667.113C459.685 772.361 526.607 802.373 627.992 847.7L629.689 848.522C829.298 937.839 904.085 1065.7 970.005 1178.45C998.377 1227.06 1025.21 1272.91 1059.75 1312.78C1084.57 1341.46 1106.7 1359.65 1129.37 1370.14C1155.58 1382.26 1182.26 1387.51 1208.24 1385.66C1248.8 1382.78 1285.57 1363.04 1314.64 1328.51C1336.84 1302.09 1353.26 1267.97 1362.21 1229.63C1371.77 1188.52 1372.69 1144.12 1364.98 1097.77C1353.5 1028.9 1334.61 966.617 1307.16 907.518C1283.26 855.922 1253.11 806.793 1212.33 752.832C1202.77 740.19 1193.75 727.445 1184.19 713.981L1179.48 707.3C1174.47 700.208 1168.92 693.014 1163.99 686.641C1149.88 668.346 1135.31 649.332 1125.44 625.898C1108.94 586.635 1105.24 541.309 1103.85 502.149C1103.69 497.524 1103.54 492.693 1103.39 487.863V486.321C1102.38 451.684 1101.38 415.916 1089.51 384.465C1055.2 293.606 1002.93 236.049 919.89 197.814C873.553 176.436 824.364 165.644 773.556 165.644C746.494 165.644 719.124 168.83 692.216 174.997C684.429 176.744 675.177 181.164 664.537 186.2C645.34 195.245 623.521 205.523 600.391 205.523C591.601 205.523 583.121 203.981 575.179 200.898C557.369 193.909 542.104 183.116 527.301 172.633C511.033 161.121 494.225 149.199 474.642 143.135C451.821 136.043 421.675 128.026 390.681 128.026L390.604 127.82Z" fill="url(#paint4_linear_657_17148)"/>
<path d="M1366.9 1097.45C1359.19 1029.31 1343.93 967.74 1320.18 909.052C1297.97 854.064 1268.75 803.084 1231.05 753.133C1223.65 743.369 1216.09 732.988 1208.77 722.915L1198.75 709.245C1193.35 701.948 1187.65 694.753 1181.94 687.558C1167.37 669.366 1152.26 650.454 1142.31 627.123C1125.27 587.141 1122.34 540.89 1121.8 500.908C1121.73 495.563 1121.65 490.219 1121.65 484.155C1121.34 447.667 1121.03 409.947 1108.08 376.645C1090.11 330.394 1067.06 293.598 1037.69 264.1C1010.39 236.658 977.473 215.485 936.996 199.245C897.752 183.52 856.196 175.605 813.406 175.605C780.099 175.605 746.329 180.539 713.022 190.098C705.467 192.256 696.677 197.087 686.5 202.637C666.84 213.326 644.481 225.454 620.889 225.454C612.254 225.454 603.927 223.707 596.217 220.418C578.33 212.709 562.987 200.376 548.184 188.35C531.993 175.297 515.34 161.73 495.294 154.535C468.387 144.771 426.522 134.493 391.364 135.212C360.139 135.932 330.687 148.266 301.313 173.139C279.879 191.228 262.609 212.709 250.119 236.76C238.708 258.55 231.152 282.703 227.606 308.399C219.973 363.695 231.384 425.261 258.214 473.054C262.609 480.968 267.389 489.294 272.632 497.516C295.068 532.976 323.132 563.502 352.969 595.98C374.094 619.003 395.99 642.951 416.884 669.777C493.829 768.756 556.742 805.346 651.189 853.756C822.889 941.942 895.285 1058.8 959.123 1162C990.271 1212.26 1019.65 1259.74 1057.81 1300.24C1082.71 1326.65 1104.46 1343.3 1126.43 1352.55C1148.71 1362.01 1171.07 1366.84 1192.81 1366.84C1196.28 1366.84 1199.75 1366.74 1203.22 1366.43C1211.55 1365.81 1219.95 1364.48 1228.2 1362.52C1259.04 1354.92 1287.49 1337.03 1310.46 1310.93C1355.88 1259.23 1376.46 1181.52 1366.98 1097.55L1366.9 1097.45ZM1308 1307.12C1285.48 1332.72 1257.57 1350.19 1227.43 1357.59C1219.33 1359.54 1211.08 1360.88 1202.91 1361.39C1178.24 1363.14 1152.8 1358.51 1127.35 1347.72C1105.84 1338.57 1084.41 1322.23 1059.89 1296.23C1022.04 1256.04 992.738 1208.76 961.745 1158.71C897.598 1055.1 824.893 937.625 652.268 849.028C558.207 800.721 495.603 764.336 419.197 666.077C398.226 639.149 376.33 615.201 354.974 591.972C325.445 559.801 297.535 529.275 275.253 494.227C270.164 486.107 265.384 477.782 260.99 469.971C234.776 423.205 223.597 363.078 231.075 309.015C234.545 284.04 241.869 260.503 252.971 239.227C265.23 215.69 282.115 194.723 303.163 176.942C331.998 152.582 362.606 140.454 393.138 139.735C427.061 139.735 468.464 149.705 494.215 158.955C513.721 166.047 530.22 179.408 546.257 192.359C561.214 204.487 576.634 217.026 594.984 224.838C603.156 228.332 611.791 230.079 620.812 230.079C645.098 230.079 667.765 217.746 687.811 206.851C697.834 201.404 706.469 196.676 713.716 194.62C746.792 185.061 780.33 180.231 813.406 180.231C855.81 180.231 896.981 188.145 935.916 203.665C976.008 219.699 1008.62 240.666 1035.53 267.697C1064.44 296.784 1087.11 333.066 1104.84 378.701C1117.41 410.974 1117.72 448.078 1117.95 484.463C1117.95 490.116 1118.02 495.46 1118.1 500.805C1118.64 541.404 1121.65 588.375 1139.07 629.282C1149.33 653.332 1164.59 672.45 1179.55 691.156C1185.1 698.042 1190.73 705.134 1196.05 712.432L1206.07 726.101C1213.4 736.174 1220.95 746.555 1228.35 756.319C1265.82 805.962 1294.81 856.634 1316.86 911.108C1340.38 969.282 1355.49 1030.33 1363.12 1097.96C1372.45 1180.29 1352.25 1256.45 1307.84 1306.92L1308 1307.12Z" fill="url(#paint5_linear_657_17148)"/>
<path d="M1365.43 1098.26C1358.65 966.499 1318.94 851.59 1247.4 756.825C1242.46 750.247 1237.45 743.567 1232.36 736.783C1226.89 729.486 1221.34 721.983 1215.71 714.479C1210 706.977 1203.91 699.576 1197.82 692.279C1182.48 673.881 1166.59 654.764 1156.19 630.713C1138.22 589.086 1136.14 538.929 1136.3 499.872C1136.3 494.425 1136.29 489.08 1136.45 482.811C1136.83 446.529 1137.37 405.417 1123.57 371.088C1089.26 285.574 1035.14 232.95 953.03 205.302C884.797 182.279 808.546 183.923 734.531 210.03C727.669 212.496 719.419 217.533 709.859 223.391C690.507 235.314 666.529 250.114 641.318 250.114C632.606 250.114 624.202 248.264 616.415 244.667C598.065 236.136 582.646 222.055 567.765 208.488C551.883 193.996 535.461 178.99 515.338 170.664C486.349 158.742 451.037 146.511 415.957 146.1C380.106 146.1 347.339 158.536 317.578 184.129C277.795 218.355 253.894 265.017 248.497 319.08C241.713 387.121 264.842 449.099 288.743 484.558C293.446 491.444 298.997 499.564 304.857 507.375C326.445 535.743 351.579 560.205 378.333 586.003C404.392 611.287 431.3 637.394 456.434 668.845C528.907 759.703 586.423 802.666 673.777 854.467C818.184 940.187 887.419 1046.36 948.481 1139.99C983.022 1192.93 1015.63 1242.98 1058.12 1284.09C1082.56 1307.73 1103.68 1322.53 1124.5 1330.55C1145.62 1338.67 1166.9 1342.78 1187.72 1342.78C1191.34 1342.78 1195.04 1342.68 1198.59 1342.37C1238.3 1339.59 1274.77 1321.4 1303.99 1289.95C1346.93 1243.7 1369.29 1174.01 1365.43 1098.47V1098.26ZM1301.67 1285.94C1272.99 1316.78 1237.29 1334.56 1198.36 1337.33C1174.61 1338.98 1149.94 1335.07 1125.42 1325.62C1104.99 1317.8 1084.25 1303.21 1060.2 1279.98C1018.02 1239.18 985.566 1189.33 951.18 1136.6C889.886 1042.56 820.342 935.973 675.165 849.842C588.274 798.246 530.912 755.489 458.824 665.145C433.536 633.385 406.474 607.176 380.337 581.892C353.815 556.197 328.681 531.837 307.324 503.778C301.465 496.069 295.991 488.053 291.288 481.166C267.926 446.632 245.259 385.991 251.89 319.594C257.133 266.97 280.494 221.541 319.352 188.034C348.495 162.956 380.646 150.828 415.726 150.828C450.343 151.239 485.346 163.367 514.027 175.187C533.61 183.306 549.801 198.107 565.529 212.393C580.564 226.166 596.138 240.35 614.95 249.189C623.123 252.992 631.912 254.945 641.087 254.945C667.069 254.945 691.51 239.939 711.17 227.811C720.576 222.055 728.671 217.019 735.302 214.655C808.778 188.754 884.335 187.109 952.028 209.927C1032.98 237.267 1086.49 289.171 1120.26 373.349C1133.6 406.65 1133.13 447.043 1132.75 482.708C1132.75 488.978 1132.59 494.425 1132.59 499.872C1132.44 539.546 1134.6 590.525 1152.95 633.18C1163.59 657.847 1179.7 677.17 1195.43 696.082C1201.29 703.174 1207.38 710.471 1213.01 717.871C1218.64 725.271 1224.27 732.775 1229.66 740.072C1234.75 746.856 1239.76 753.639 1244.7 760.114C1315.63 854.056 1354.95 967.835 1361.66 1098.47C1365.43 1172.37 1343.54 1240.62 1301.52 1285.84L1301.67 1285.94Z" fill="url(#paint6_linear_657_17148)"/>
<path d="M1181.78 1318.43C1162.5 1318.43 1142.61 1314.93 1122.64 1308.15C1102.52 1301.26 1082.7 1288.72 1058.49 1267.65C1010.15 1225.51 973.376 1171.45 934.441 1114.2C877.619 1030.54 813.164 935.875 696.281 854.883C616.021 799.278 563.594 750.354 495.978 667.821C467.22 632.67 435.686 605.947 405.232 580.046C380.791 559.284 357.739 539.756 337.076 516.938C331.756 511.08 326.051 504.399 319.189 495.766C285.034 453.42 265.297 388.154 268.997 329.466C272.39 275.505 294.749 228.946 333.607 194.925C362.673 169.435 393.744 157.102 428.593 157.102C465.755 157.102 501.76 171.285 535.144 186.703C555.421 196.056 571.612 212.603 587.34 228.637C602.22 243.849 617.563 259.472 636.375 268.927C644.394 272.936 652.952 274.992 661.895 274.992C688.109 274.992 713.012 257.93 732.981 244.157C741.924 237.99 749.711 232.646 755.956 230.076C801.445 210.959 847.242 201.297 892.113 201.297C918.481 201.297 944.31 204.689 968.981 211.473C1008.61 222.265 1041.3 239.326 1068.82 263.48C1098.28 289.381 1121.18 322.785 1138.91 365.645C1153.56 401.104 1152.32 443.861 1151.17 481.582C1151.01 487.954 1150.78 493.504 1150.7 499.055C1149.78 539.55 1151.24 591.455 1169.98 634.52C1180.77 659.29 1197.5 678.613 1213.62 697.319C1219.63 704.206 1226.34 712.017 1232.43 719.828C1243.3 733.704 1253.86 747.579 1263.58 760.53C1297.73 805.754 1323.64 858.378 1340.68 916.86C1357.33 973.904 1365.04 1035.26 1363.81 1099.09C1362.5 1165.9 1338.36 1227.67 1297.66 1268.58C1275.3 1291.09 1248.31 1306.61 1219.55 1313.7C1210.84 1315.86 1201.9 1317.19 1193.03 1317.81C1189.25 1318.12 1185.48 1318.22 1181.7 1318.22L1181.78 1318.43ZM428.67 161.932C394.592 161.932 364.138 174.06 335.688 199.036C297.755 232.235 276.013 277.561 272.698 329.979C269.075 387.229 288.349 450.953 321.733 492.271C328.595 500.802 334.223 507.483 339.466 513.238C359.975 535.85 382.873 555.276 407.159 575.832C437.845 601.836 469.456 628.764 498.522 664.121C565.907 746.346 618.18 795.167 698.055 850.463C815.554 931.866 880.163 1026.94 937.216 1110.81C975.997 1167.85 1012.62 1221.71 1060.58 1263.44C1084.48 1284.2 1103.9 1296.53 1123.64 1303.32C1147.16 1311.33 1170.44 1314.62 1192.95 1313.08C1201.74 1312.46 1210.53 1311.13 1219.01 1308.97C1247.23 1301.98 1273.75 1286.77 1295.65 1264.67C1335.43 1224.69 1359.03 1164.25 1360.34 1098.89C1361.65 1035.57 1353.94 974.931 1337.44 918.505C1320.63 860.639 1294.96 808.631 1261.19 763.922C1251.4 750.971 1240.91 737.096 1230.04 723.22C1224.03 715.512 1217.32 707.7 1211.38 700.917C1194.96 681.902 1178 662.271 1166.97 636.884C1147.7 592.688 1146.31 539.961 1147.16 498.849C1147.23 493.299 1147.47 487.749 1147.62 481.89C1148.78 444.272 1150.01 402.132 1135.82 367.906C1118.4 325.765 1095.89 292.876 1066.9 267.489C1039.76 243.643 1007.45 226.787 968.287 216.098C943.847 209.417 918.25 206.025 892.113 206.025C847.627 206.025 802.216 215.584 757.036 234.599C751.099 237.065 743.466 242.307 734.677 248.371C714.323 262.349 689.034 279.822 661.895 279.822C652.566 279.822 643.546 277.664 635.065 273.45C615.79 263.788 600.216 247.857 585.104 232.44C569.684 216.715 553.648 200.372 533.91 191.225C500.835 176.013 465.215 161.932 428.516 161.932H428.67Z" fill="url(#paint7_linear_657_17148)"/>
<path d="M1175.84 1294.29C1157.87 1294.29 1139.37 1291.51 1120.87 1285.96C1101.59 1280.21 1082.55 1269.52 1058.95 1251.43C1002.67 1207.95 960.73 1147.72 916.398 1083.89C865.821 1011.13 808.536 928.797 718.947 855.412C646.397 796.004 597.207 739.783 535.682 666.808C503.686 628.882 467.912 602.673 433.294 577.286C410.704 560.738 389.348 545.115 369.456 526.717C363.288 521.065 356.889 514.692 349.796 507.189C332.294 488.894 316.72 463.096 306.004 434.728C294.362 403.894 288.656 371.107 289.581 339.964C291.123 286.107 312.017 239.752 349.95 205.937C378.4 180.551 408.777 168.217 442.701 168.217C481.867 168.217 519.954 184.867 555.266 202.751C575.697 213.132 591.733 231.222 607.23 248.694C622.11 265.448 637.453 282.818 656.651 293.096C664.901 297.515 673.69 299.777 682.788 299.777C710.081 299.777 735.755 280.248 756.34 264.523C764.667 258.15 771.837 252.703 777.543 249.928C828.891 224.644 880.239 211.899 930.276 211.899C948.934 211.899 967.361 213.749 985.094 217.346C1065.2 233.791 1120.63 280.454 1154.48 359.904C1169.98 396.391 1167.9 440.792 1166.12 479.952C1165.81 486.222 1165.58 492.08 1165.35 497.939C1163.73 539.771 1164.43 593.525 1184.01 638.029C1195.27 663.622 1212.84 683.253 1229.88 702.37C1236.51 709.771 1243.22 717.274 1249.47 724.982C1260.49 738.549 1270.44 751.397 1280.08 764.142C1345.69 851.3 1375.76 973.61 1362.42 1099.93C1356.33 1158.1 1330.58 1211.96 1291.95 1247.73C1262.34 1275.07 1226.41 1290.9 1188.1 1293.67C1184.16 1293.98 1180.08 1294.08 1175.91 1294.08L1175.84 1294.29ZM442.546 173.15C409.317 173.15 379.633 185.176 351.801 210.049C314.87 242.939 294.516 287.957 293.051 340.272C292.203 370.593 297.754 402.558 309.088 432.673C319.573 460.526 334.762 485.605 351.878 503.592C358.971 510.992 365.293 517.262 371.384 522.915C391.121 541.21 412.401 556.73 434.914 573.277C469.685 598.767 505.691 625.079 537.995 663.416C599.443 736.185 648.478 792.304 720.797 851.506C810.772 925.303 868.288 1007.84 918.943 1080.71C963.198 1144.33 1004.91 1204.35 1060.73 1247.42C1083.93 1265.3 1102.75 1275.89 1121.56 1281.44C1139.83 1286.89 1158.03 1289.66 1175.76 1289.66C1179.77 1289.66 1183.78 1289.56 1187.71 1289.25C1225.41 1286.58 1260.65 1271.06 1289.71 1244.23C1327.57 1209.29 1352.7 1156.66 1358.64 1099.72C1371.75 974.946 1342.14 854.076 1277.3 768.048C1267.74 755.303 1257.72 742.558 1246.77 728.991C1240.52 721.282 1233.89 713.882 1227.42 706.584C1210.07 687.159 1192.18 667.117 1180.62 640.907C1160.49 595.272 1159.8 540.593 1161.42 498.144C1161.65 492.286 1161.88 486.427 1162.19 480.158C1163.96 441.615 1166.05 397.933 1151.09 362.782C1117.78 284.668 1063.27 238.725 984.323 222.588C966.821 218.991 948.549 217.141 930.045 217.141C880.47 217.141 829.507 229.885 778.545 254.861C773.148 257.534 766.055 262.878 757.959 269.045C736.911 285.079 710.775 304.916 682.556 304.916C672.996 304.916 663.744 302.552 655.032 297.927C635.372 287.34 619.72 269.765 604.686 252.806C589.42 235.538 573.615 217.757 553.801 207.685C518.798 189.904 481.096 173.459 442.546 173.459V173.15Z" fill="url(#paint8_linear_657_17148)"/>
<path d="M1169.52 1270.33C1153.1 1270.33 1136.14 1268.17 1119.02 1263.86C1100.44 1259.23 1082.02 1250.39 1059.43 1235.18C992.659 1190.47 944.626 1120.99 893.818 1047.3C850.102 983.984 804.845 918.512 741.47 855.918C699.682 814.703 666.298 774.413 630.909 731.861C613.254 710.586 594.981 688.59 575.244 665.979C540.472 626.1 500.766 601.329 462.447 577.381C441.168 564.122 421.045 551.48 401.693 536.577C394.677 531.13 387.661 525.271 380.26 518.693C360.908 501.529 343.329 476.039 330.685 446.952C317.192 415.809 309.945 382.405 309.791 350.338C309.637 312.925 319.274 259.376 365.996 217.031C394.06 191.541 423.744 179.207 456.742 179.207C461.599 179.207 466.611 179.515 471.622 180.029C507.936 183.935 544.327 202.024 575.089 219.086C595.752 230.495 611.557 250.126 626.9 269.141C641.703 287.538 657.046 306.45 676.552 317.55C684.879 322.278 693.745 324.642 702.997 324.642C731.986 324.642 759.434 301.722 779.479 284.969C787.112 278.596 793.743 273.046 798.908 270.168C866.91 231.523 937.687 215.078 1000.99 223.711C1079.55 234.401 1136.29 278.391 1169.83 354.654C1186.26 392.067 1183.33 438.113 1180.78 478.814C1180.4 485.187 1180.01 491.251 1179.7 497.315C1177.39 540.586 1177.31 596.087 1197.74 642.133C1209.46 668.548 1228.04 688.693 1246.01 708.119C1252.87 715.519 1259.81 723.022 1266.21 730.731C1278.54 745.428 1287.79 757.043 1296.28 768.349C1328.5 811.106 1351.4 865.169 1362.5 924.782C1373.38 982.853 1372.76 1043.9 1360.73 1101.36C1349.47 1155.01 1319.41 1203.32 1278.23 1234.05C1249.94 1255.12 1216.79 1267.56 1182.48 1270.02C1178.24 1270.33 1173.84 1270.43 1169.45 1270.43L1169.52 1270.33ZM456.742 184.038C424.515 184.038 395.448 196.166 368.001 221.039C322.589 262.254 313.183 314.056 313.337 350.338C313.492 381.583 320.508 414.165 333.692 444.588C346.028 473.058 363.221 497.931 382.11 514.685C389.434 521.16 396.45 527.018 403.389 532.363C422.587 547.266 442.633 559.703 463.912 572.962C502.539 597.012 542.399 621.988 577.557 662.279C597.371 684.993 615.644 706.988 633.299 728.264C668.611 770.815 701.995 811.003 743.628 852.115C807.312 915.017 852.647 980.592 896.439 1044.11C947.016 1117.39 994.818 1186.67 1060.97 1230.97C1083.33 1245.87 1101.37 1254.61 1119.64 1259.23C1141 1264.58 1162.2 1266.63 1182.25 1265.19C1216.02 1262.83 1248.55 1250.6 1276.46 1229.84C1316.78 1199.82 1346.24 1152.54 1357.18 1100.13C1369.06 1043.49 1369.67 983.264 1358.96 926.015C1347.93 867.327 1325.42 813.983 1293.65 771.843C1285.17 760.64 1276 749.026 1263.74 734.431C1257.42 726.825 1250.48 719.322 1243.77 712.025C1225.5 692.188 1206.61 671.837 1194.58 644.703C1173.61 597.629 1173.61 541.1 1176 497.109C1176.31 491.045 1176.69 484.981 1177.08 478.609C1179.62 438.627 1182.48 393.403 1166.59 357.327C1133.75 282.502 1077.85 239.231 1000.52 228.748C937.841 220.319 867.604 236.456 800.219 274.896C795.285 277.671 788.808 283.119 781.33 289.388C760.899 306.45 732.989 329.781 702.997 329.781C693.283 329.781 683.876 327.212 675.087 322.278C654.964 310.87 639.39 291.547 624.356 272.943C609.244 254.237 593.67 235.017 573.624 223.814C543.093 206.855 507.088 188.971 471.237 185.168C466.379 184.654 461.445 184.346 456.665 184.346L456.742 184.038Z" fill="url(#paint9_linear_657_17148)"/>
<path d="M1162.05 1246.17C1147.4 1246.17 1132.29 1244.63 1117.25 1241.65C1099.29 1238.05 1081.01 1230.86 1059.89 1218.93C979.629 1173.71 925.351 1090.76 867.912 1002.99C836.225 954.579 803.535 904.628 764.06 856.321C741.238 828.364 720.73 800.613 700.993 773.787C673.006 735.758 646.56 699.888 614.95 664.942C577.788 623.83 534.458 601.115 492.593 579.12C473.087 568.842 452.887 558.255 433.998 546.127C426.057 540.988 418.27 535.54 410.791 529.887C389.589 513.956 369.851 488.775 355.28 458.968C339.86 427.517 331.07 393.394 329.991 360.299C328.757 322.989 336.776 269.851 382.264 227.814C415.109 197.596 450.035 185.571 489.972 191.121C526.671 196.157 562.214 215.171 595.135 235.008C616.029 247.548 631.68 268.618 646.792 289.071C661.595 309.011 676.86 329.567 696.752 341.592C705.31 346.731 714.408 349.404 723.891 349.404C753.96 349.404 782.178 323.708 802.764 304.899C809.702 298.527 815.716 293.08 820.419 289.996C886.725 246.725 955.035 225.758 1017.02 229.664C1054.65 232.028 1087.88 243.025 1115.71 262.142C1144.85 282.185 1168.29 311.477 1185.25 348.993C1202.6 387.33 1198.82 435.02 1195.58 477.161V477.777C1195.04 484.355 1194.58 490.317 1194.2 496.175C1191.19 540.885 1190.42 598.237 1211.7 645.619C1224.03 673.062 1243.62 693.618 1262.58 713.557C1269.52 720.855 1276.69 728.358 1283.17 735.861C1292.88 747.064 1303.14 759.192 1312.7 771.937C1344.54 814.283 1365.9 868.654 1374.3 928.884C1382.63 988.189 1377.23 1049.75 1359.19 1102.28C1343.46 1148.12 1312.54 1187.79 1272.3 1213.79C1243.39 1232.5 1211.39 1243.19 1177 1245.55C1172.07 1245.86 1167.06 1246.07 1162.12 1246.07L1162.05 1246.17ZM471.468 194.821C439.857 194.821 411.254 206.949 384.192 231.925C340.014 272.626 332.227 324.12 333.461 360.196C334.54 392.366 343.098 425.667 358.209 456.399C372.473 485.486 391.748 510.154 412.487 525.776C419.889 531.326 427.676 536.774 435.54 541.81C454.352 553.938 474.475 564.422 493.904 574.7C536 596.798 579.561 619.615 617.263 661.242C649.028 696.393 675.55 732.264 703.537 770.293C723.351 797.221 743.783 824.87 766.527 852.723C806.156 901.133 838.923 951.29 870.611 999.7C927.819 1087.06 981.865 1169.6 1061.35 1214.41C1082.25 1226.13 1100.14 1233.32 1117.87 1236.82C1137.76 1240.82 1157.5 1242.16 1176.85 1240.72C1210.7 1238.36 1242.31 1227.77 1270.76 1209.37C1310.23 1183.78 1340.53 1145.03 1355.87 1100.12C1373.61 1048.52 1378.85 987.983 1370.75 929.604C1362.43 870.299 1341.53 816.853 1310.15 775.123C1300.67 762.481 1290.42 750.456 1280.78 739.253C1274.38 731.853 1267.21 724.349 1260.35 717.155C1241.07 697.01 1221.18 676.145 1208.54 647.88C1186.72 599.265 1187.49 540.988 1190.57 495.559C1190.96 489.597 1191.42 483.636 1191.96 477.058V476.441C1195.28 435.123 1198.9 388.255 1182.17 351.254C1165.52 314.458 1142.62 285.885 1114.09 266.151C1086.72 247.239 1053.95 236.55 1016.87 234.186C955.574 230.383 887.727 251.248 822.038 294.107C817.567 296.985 811.707 302.433 804.845 308.6C783.874 327.717 755.116 354.029 723.891 354.029C713.945 354.029 704.308 351.254 695.287 345.806C674.856 333.473 659.282 312.505 644.248 292.257C629.29 272.112 613.87 251.35 593.67 239.222C560.98 219.591 525.746 200.782 489.586 195.746C483.496 194.924 477.482 194.512 471.622 194.512L471.468 194.821Z" fill="url(#paint10_linear_657_17148)"/>
<path d="M1153.97 1222.34C1141.33 1222.34 1128.37 1221.41 1115.58 1219.56C1097.84 1216.99 1079.8 1211.44 1060.53 1202.81C963.15 1158.71 904.015 1056.65 841.488 948.63C823.832 918.104 805.714 886.859 786.67 856.847C776.647 841.018 766.701 824.779 757.912 810.39L757.604 809.876C724.682 756.121 693.611 705.45 654.599 664.132C615.278 622.506 568.865 602.36 523.916 582.832C504.795 574.507 485.135 565.976 466.323 555.903C457.688 551.381 449.284 546.448 441.343 541.308C392.616 510.063 354.143 438.219 349.903 370.383C347.59 333.382 354.143 280.553 398.475 239.029C431.936 207.681 467.479 195.861 508.265 202.645C545.349 208.811 581.586 229.779 615.124 251.363C636.172 264.93 651.669 287.542 666.627 309.537C681.353 331.121 696.618 353.424 716.818 366.067C725.453 371.514 734.705 374.392 744.343 374.392C776.107 374.392 806.176 344.585 826.068 324.851C832.467 318.582 837.864 313.237 841.95 310.154C906.482 262.258 972.556 236.562 1033.08 235.843H1035.78C1071.78 235.843 1103.93 244.579 1131.46 261.744C1160.68 280.039 1184.04 307.584 1200.85 343.557C1219.12 382.82 1214.57 432.155 1210.48 475.631V476.454C1209.79 483.237 1209.25 489.198 1208.71 495.262C1204.93 541.308 1203.47 600.51 1225.6 649.331C1238.47 677.802 1259.21 698.975 1279.26 719.325C1286.35 726.52 1293.52 733.818 1300.07 741.218C1310.17 752.524 1320.04 763.727 1329.06 775.752C1360.37 817.379 1380.8 873.703 1386.58 934.241C1392.52 996.321 1382.18 1056.45 1357.51 1103.52C1337.7 1141.24 1305.39 1173.62 1266.54 1194.59C1237.62 1210.21 1205.78 1219.36 1171.86 1221.72C1166 1222.13 1160.06 1222.34 1154.13 1222.34H1153.97ZM486.523 205.625C455.375 205.625 427.156 217.856 400.403 242.935C357.536 283.122 351.137 334.204 353.372 369.972C357.459 436.163 395.083 506.466 442.73 536.992C450.595 542.028 458.921 546.859 467.556 551.381C486.291 561.351 505.875 569.882 524.841 578.104C570.253 597.838 617.052 618.086 656.835 660.329C696.079 701.955 727.304 752.832 760.379 806.792L760.688 807.306C769.477 821.695 779.423 837.935 789.446 853.66C808.566 883.878 826.685 915.124 844.186 945.341C906.559 1053.06 965.309 1154.5 1061.68 1198.18C1080.73 1206.82 1098.46 1212.26 1115.96 1214.73C1134.7 1217.4 1153.59 1218.23 1171.55 1216.89C1205.09 1214.53 1236.54 1205.48 1264.99 1190.06C1303.24 1169.4 1335 1137.64 1354.35 1100.64C1378.56 1054.6 1388.66 995.601 1382.8 934.755C1377.1 875.244 1357.05 820.051 1326.29 779.144C1317.34 767.221 1307.55 756.121 1297.53 744.918C1290.98 737.62 1283.88 730.426 1277.02 723.437C1256.51 702.572 1235.54 681.194 1222.28 651.901C1199.61 601.847 1201.08 541.617 1204.93 494.749C1205.4 488.685 1206.01 482.62 1206.63 475.837V475.015C1210.72 432.258 1215.19 383.848 1197.53 346.024C1181.11 310.77 1158.29 283.842 1129.68 266.061C1102.7 249.204 1071.01 240.571 1035.55 240.571H1032.85C973.019 241.29 907.485 266.78 843.492 314.265C839.56 317.143 834.318 322.385 828.15 328.449C807.795 348.697 777.11 379.017 744.188 379.017C734.011 379.017 724.297 376.036 715.122 370.281C694.228 357.125 678.808 334.513 663.774 312.62C648.971 291.036 633.705 268.733 613.351 255.577C580.044 234.096 544.193 213.437 507.571 207.27C500.401 206.036 493.307 205.42 486.446 205.42L486.523 205.625Z" fill="url(#paint11_linear_657_17148)"/>
<path d="M1144.63 1198.71C1134.46 1198.71 1124.05 1198.3 1113.72 1197.37C1043.94 1191.31 984.729 1155.44 932.764 1087.7C886.967 1027.99 852.118 951.416 818.426 877.414C779.953 792.928 743.717 713.169 694.142 663.218C652.585 621.283 605.015 604.632 554.669 586.851C535.934 580.273 516.891 573.593 498.387 565.576C488.441 561.259 479.652 557.045 471.557 552.625C446.576 539.058 422.444 514.391 403.786 483.248C384.666 451.489 372.484 414.796 369.4 380.158C366.162 343.363 371.327 291.047 414.349 250.038C448.35 217.661 484.586 205.944 526.143 213.961C563.767 221.362 600.543 244.076 634.698 267.51C655.978 282.105 671.398 306.362 686.201 329.796C700.927 352.921 716.038 376.767 736.547 390.334C745.413 396.192 754.973 399.276 764.765 399.276C797.763 399.276 828.603 366.283 848.957 344.391C854.585 338.429 859.366 333.29 862.989 330.207C898.609 300.297 934.923 277.48 970.774 262.371C1005.7 247.674 1039.39 240.479 1070.93 241.301C1102.46 242.021 1130.91 250.551 1155.43 266.585C1180.64 283.133 1200.92 307.184 1215.87 338.121C1235.15 378.103 1229.67 429.082 1224.89 474.1C1224.12 481.295 1223.43 487.873 1222.81 494.451C1218.34 541.936 1216.18 602.885 1239.08 653.248C1252.57 682.952 1274.54 704.639 1295.75 725.606C1302.92 732.698 1310.01 739.687 1316.56 746.779C1326.2 757.16 1336.07 767.849 1345.01 779.669C1361.9 802.178 1375.85 830.957 1385.26 862.819C1394.59 894.373 1399.45 928.496 1399.14 961.386C1398.67 1018.33 1383.1 1069.2 1355.27 1104.66C1331.29 1135.29 1298.37 1159.96 1260.05 1176.2C1231.52 1188.33 1200.45 1195.62 1167.69 1197.89C1160.13 1198.4 1152.34 1198.71 1144.48 1198.71H1144.63ZM501.779 216.325C471.017 216.325 443.107 228.659 416.585 253.943C374.951 293.617 369.94 344.185 373.101 379.645C376.108 413.46 387.981 449.227 406.716 480.267C425.066 510.793 448.581 534.844 473.021 548.103C481.04 552.42 489.752 556.634 499.543 560.848C517.97 568.865 536.937 575.545 555.286 581.918C606.326 599.802 654.205 616.658 696.301 659.209C746.338 709.675 782.806 789.844 821.433 874.741C854.971 948.538 889.743 1024.8 935.231 1084.11C986.579 1151.02 1045.02 1186.48 1113.95 1192.34C1132.14 1193.88 1150.42 1194.08 1167.69 1192.85C1200.14 1190.59 1230.91 1183.29 1259.13 1171.37C1296.9 1155.33 1329.36 1130.97 1352.95 1100.86C1380.09 1066.33 1395.28 1016.68 1395.74 961.078C1396.05 928.804 1391.27 895.298 1382.1 864.258C1372.85 833.012 1359.2 804.747 1342.62 782.752C1333.83 771.035 1323.97 760.449 1314.48 750.171C1308.01 743.182 1300.91 736.192 1294.13 729.409C1272.39 707.928 1250.1 685.932 1236.23 655.406C1212.71 603.81 1214.95 541.833 1219.42 493.526C1220.04 486.948 1220.73 480.37 1221.5 473.381C1226.28 428.98 1231.6 378.925 1213.02 340.485C1198.45 310.267 1178.63 286.833 1154.04 270.697C1129.98 254.971 1102.07 246.543 1071.08 245.926C1039.85 245.207 1006.63 252.299 972.085 266.791C936.542 281.797 900.536 304.409 865.148 334.112C861.678 336.99 856.975 342.129 851.424 347.988C830.608 370.291 799.228 403.901 764.919 403.901C754.511 403.901 744.488 400.715 735.082 394.548C713.956 380.57 698.537 356.313 683.579 332.776C668.931 309.651 653.742 285.805 633.156 271.622C599.233 248.29 562.765 225.781 525.68 218.586C517.508 216.942 509.412 216.223 501.702 216.223L501.779 216.325Z" fill="url(#paint12_linear_657_17148)"/>
<path d="M1220.65 1510.53C1192.28 1510.53 1164.29 1502.1 1137.3 1485.35C1108.32 1467.36 1080.71 1437.87 1055.42 1397.58C1028.44 1354.72 1008.16 1308.26 986.729 1259.03C918.959 1103.52 842.246 927.249 515.036 849.649C500.079 846.155 485.662 843.174 471.784 840.296C463.688 838.652 455.747 837.007 447.883 835.26C299.852 803.192 260.994 766.088 244.341 750.26C159.532 669.371 108.955 597.835 84.7455 451.167C62.5409 316.729 118.361 163.688 211.805 102.739C319.359 32.5391 430.073 64.1957 442.332 67.9986C500.31 86.088 525.368 82.3879 554.511 78.1739C564.611 76.735 575.097 75.1932 587.741 74.371C669.081 69.0264 754.352 98.7301 841.012 162.66C884.804 194.933 917.88 227.412 945.096 264.927C974.394 305.217 997.523 352.6 1015.64 409.643C1023.81 435.338 1028.21 462.781 1032.37 489.298L1032.6 490.532C1033.45 495.671 1034.3 501.016 1035.15 506.257C1040.47 538.633 1047.02 573.065 1059.36 604.825C1068.61 628.67 1081.41 649.945 1093.74 670.399L1097.75 677.08C1110.09 697.636 1121.73 715.109 1133.3 730.32C1154.5 758.277 1177.16 784.28 1199.14 809.462C1261.97 881.614 1326.97 956.233 1375.85 1092.83C1400.06 1160.56 1409.54 1229.32 1403.3 1291.81C1397.59 1348.75 1379.24 1399.43 1350.18 1438.48C1323.73 1474.04 1290.27 1497.58 1253.34 1506.52C1245.78 1508.37 1238 1509.5 1230.36 1510.12C1227.12 1510.33 1223.89 1510.43 1220.65 1510.43V1510.53ZM365.464 62.4484C322.828 62.4484 267.702 71.5959 213.347 107.158C121.368 167.182 66.3959 317.86 88.215 450.242C112.193 595.369 162.307 666.288 246.346 746.457C262.768 762.08 301.163 798.773 448.345 830.635C456.21 832.382 464.151 833.924 472.246 835.671C486.201 838.549 500.619 841.529 515.576 845.024C844.404 923.035 921.658 1100.23 989.736 1256.66C1011.09 1305.79 1031.29 1352.04 1058.05 1394.59C1083.03 1434.27 1110.17 1463.36 1138.69 1481.03C1168.22 1499.33 1199.14 1507.65 1230.05 1505.39C1237.61 1504.88 1245.17 1503.65 1252.57 1501.9C1288.73 1493.16 1321.57 1470.14 1347.48 1435.3C1375.93 1396.96 1393.97 1347.21 1399.52 1291.3C1405.69 1229.84 1396.36 1161.9 1372.38 1095.09C1323.81 959.317 1259.12 885.109 1196.59 813.265C1174.62 788.083 1151.88 761.977 1130.6 733.918C1118.95 718.603 1107.24 701.028 1094.75 680.266L1090.74 673.688C1078.17 652.926 1065.29 631.445 1055.89 607.188C1043.32 574.812 1036.69 540.072 1031.37 507.388C1030.52 502.249 1029.67 496.904 1028.83 491.663L1028.59 490.429C1024.43 464.117 1020.11 436.983 1012.02 411.699C994.054 355.169 971.155 308.301 942.166 268.422C915.181 231.318 882.337 199.045 838.853 166.977C752.81 103.458 668.155 73.9599 587.51 79.3045C575.02 80.1267 564.611 81.6685 554.511 83.1074C525.136 87.4242 499.694 91.1243 441.175 72.8293C435.239 70.9792 405.941 62.5512 365.155 62.5512L365.464 62.4484Z" fill="url(#paint13_linear_657_17148)"/>
<path d="M1369.92 1095.83C1354.81 1025.22 1331.99 961.286 1300.14 900.542C1269 841.134 1231.29 788.922 1198.53 745.548C1187.19 730.542 1176.48 715.022 1165.14 698.577C1160.52 691.896 1155.66 685.318 1150.96 678.843C1137.7 660.856 1123.97 642.15 1114.72 619.744C1099.38 582.845 1095.14 539.883 1092.98 502.779C1092.75 498.257 1092.52 493.529 1092.21 488.903V487.156C1090.43 453.547 1088.74 418.91 1077.25 387.664C1059.05 337.918 1035.92 297.628 1006.7 264.532C979.643 233.903 946.336 208.619 905.011 187.035C850.81 158.873 793.14 144.587 733.542 144.587C712.417 144.587 691.137 146.437 670.166 150.137C661.3 151.679 647.807 157.126 636.859 161.546C606.482 173.879 577.03 185.905 536.091 164.012C532.081 161.854 527.147 158.668 521.519 154.968C494.611 137.392 449.585 107.997 379.888 111.08C275.033 113.547 211.657 198.238 189.144 270.082C167.788 343.057 180.201 428.571 223.993 510.899C238.025 537.211 286.058 614.091 338.948 680.385C389.062 743.287 474.411 801.975 567.316 837.229L605.866 852.44C830.918 940.627 906.552 1077.94 973.243 1199.12C999.611 1247.12 1024.59 1292.34 1056.97 1332.63C1082.11 1363.88 1106.01 1384.85 1130.06 1396.77C1154.12 1408.69 1178.64 1414.76 1203 1414.76C1206.39 1414.76 1209.71 1414.65 1213.1 1414.45C1221.04 1413.93 1228.98 1412.6 1236.77 1410.75C1269.69 1402.63 1299.76 1382.79 1323.74 1353.29C1347.56 1323.9 1364.6 1285.87 1373 1243.21C1382.1 1197.07 1381.1 1147.53 1370.07 1096.03L1369.92 1095.83ZM1369.38 1241.88C1361.13 1283.61 1344.48 1320.92 1321.19 1349.7C1297.75 1378.58 1268.3 1398.11 1236 1406.02C1228.44 1407.87 1220.65 1409.1 1212.79 1409.62C1185.73 1411.57 1158.05 1405.61 1131.22 1392.25C1107.63 1380.53 1084.11 1359.87 1059.36 1329.04C1027.21 1289.05 1002.39 1243.93 976.019 1196.14C908.943 1074.34 833 936.31 606.714 847.712L568.164 832.501C475.799 797.452 390.99 739.278 341.261 676.787C284.439 605.354 237.485 528.063 226.846 508.021C183.747 427.029 171.565 343.057 192.459 271.727C214.51 201.322 276.806 118.275 379.888 115.808C383.28 115.602 386.672 115.602 389.988 115.602C452.978 115.602 494.534 142.737 519.823 159.182C525.528 162.882 530.462 166.171 534.626 168.329C576.722 190.838 606.714 178.71 637.785 166.068C648.578 161.751 661.994 156.304 670.552 154.865C691.369 151.267 712.571 149.417 733.465 149.417C792.6 149.417 849.885 163.601 903.623 191.558C944.562 212.833 977.561 237.912 1004.31 268.232C1033.23 300.917 1055.97 340.693 1073.94 389.822C1085.04 420.246 1086.73 454.472 1088.43 487.567V489.315C1088.74 493.94 1088.97 498.668 1089.28 503.19C1091.44 540.808 1095.75 584.387 1111.48 622.108C1121.04 645.131 1134.92 663.94 1148.34 682.235C1153.04 688.607 1157.9 695.185 1162.44 701.866C1173.78 718.414 1184.5 733.934 1195.91 749.043C1228.6 792.211 1266.14 844.321 1297.06 903.317C1328.67 963.65 1351.34 1027.07 1366.37 1097.16C1377.24 1147.83 1378.17 1196.55 1369.3 1241.88H1369.38Z" fill="url(#paint14_linear_657_17148)"/>
<path d="M1372.85 1094.36C1330.29 949.439 1266.46 867.42 1198.84 780.673L1198.07 779.748C1187.51 766.181 1176.64 752.202 1165.92 738.019C1153.12 721.163 1141.32 703.176 1131.46 687.861C1128.29 682.928 1124.98 677.892 1121.74 673.061L1120.97 671.93C1108.63 653.533 1095.91 634.415 1086.97 612.214C1073.25 578.194 1067.85 540.268 1063.99 504.5C1063.53 499.977 1063.07 495.352 1062.53 490.213V489.083C1059.37 458.762 1056.28 427.414 1046.42 398.635C1011.41 296.471 959.525 229.56 872.942 174.778C813.19 137.057 743.724 116.193 654.366 109.101C644.651 108.278 618.361 107.867 592.609 117.015C551.053 133.871 517.746 126.779 497.854 117.734C384.827 66.0353 316.131 89.7778 293.618 97.4863C292.616 97.7947 193.158 134.59 149.212 245.286C124.154 308.393 122.766 382.396 145.125 465.135C166.173 549.004 267.251 739.56 405.721 799.996C455.141 822.196 558.531 850.564 560.459 851.078C837.168 935.153 913.882 1092.1 981.498 1230.65C1004.94 1278.65 1027.06 1323.97 1056.13 1365.19C1081.57 1401.37 1106.94 1426.14 1133.61 1441.14C1159.21 1455.53 1185.58 1462.83 1211.95 1462.83C1215.26 1462.83 1218.5 1462.73 1221.82 1462.52C1229.6 1462.01 1237.39 1460.78 1245.02 1458.93C1279.95 1450.39 1311.71 1428.61 1336.85 1396.02C1363.14 1361.8 1380.79 1317.4 1387.81 1267.65C1395.52 1212.97 1390.51 1154.69 1372.85 1094.57V1094.36ZM1384.26 1266.52C1377.4 1315.34 1360.13 1358.82 1334.38 1392.32C1309.79 1424.29 1278.64 1445.67 1244.41 1453.99C1236.93 1455.84 1229.22 1456.97 1221.66 1457.59C1192.6 1459.65 1163.3 1452.55 1135 1436.62C1108.79 1421.92 1083.89 1397.46 1058.75 1361.8C1029.92 1320.89 1007.87 1275.77 984.505 1227.98C916.503 1088.71 839.404 930.836 561.153 846.35C560.073 846.042 456.298 817.571 406.8 795.37C269.563 735.552 169.334 546.743 148.441 463.593C126.467 382.19 127.778 309.524 152.296 247.65C195.471 138.804 293.387 102.625 294.389 102.317C305.877 98.4114 329.315 90.2917 364.627 90.2917C398.088 90.2917 442.112 97.5891 496.544 122.462C516.975 131.815 550.976 139.01 593.535 121.845C618.746 112.904 644.497 113.417 654.057 114.137C742.953 121.126 811.957 141.888 871.323 179.3C957.057 233.466 1008.48 299.76 1043.02 400.794C1052.66 428.956 1055.74 459.893 1058.75 489.905L1058.91 491.549C1059.37 496.175 1059.83 500.8 1060.29 505.322C1064.15 541.604 1069.7 579.941 1083.65 614.681C1092.75 637.396 1105.63 656.616 1118.12 675.322L1118.89 676.453C1122.13 681.283 1125.37 686.217 1128.6 691.15C1138.55 706.568 1150.42 724.554 1163.3 741.513C1174.09 755.697 1184.96 769.778 1195.53 783.242L1196.3 784.167C1263.6 870.606 1327.21 952.215 1369.46 1096.21C1386.89 1155.52 1391.82 1212.87 1384.26 1266.62V1266.52Z" fill="url(#paint15_linear_657_17148)"/>
<path d="M1371.39 1095.09C1331.29 938.55 1261.67 846.664 1188.04 749.433L1182.18 741.725C1170.08 725.793 1158.82 708.937 1148.26 693.109C1144.17 686.942 1139.93 680.878 1135.77 674.917C1123.05 656.827 1109.86 638.018 1100.84 615.818C1086.35 580.255 1081.41 539.04 1078.49 503.478C1078.1 498.544 1077.71 493.508 1077.33 488.061C1074.94 456.096 1072.55 423.103 1061.91 392.988C1043.64 341.392 1020.51 299.354 991.286 264.512C964.301 232.238 930.84 204.898 889.052 180.848C814.729 137.988 730.151 120.104 648.657 130.074C639.097 131.204 628.148 134.802 616.506 138.707C599.159 144.463 579.499 150.938 559.761 150.938C551.28 150.938 543.493 149.808 535.938 147.444C519.824 142.51 505.329 135.11 491.143 127.915C474.104 119.282 453.827 109.826 433.01 105.304C426.38 103.865 391.916 96.7727 365.78 100.164C264.471 109.004 213.586 166.561 188.837 213.224C152.215 282.19 151.29 364.107 162.546 417.656C183.209 515.503 218.135 567.51 249.129 613.659C280.893 661.247 325.996 715.001 357.067 740.902C390.76 772.764 456.603 806.682 547.503 839.161C549.507 839.88 550.895 840.394 551.743 840.703C558.296 842.861 564.002 844.917 570.093 847.075C574.179 848.514 578.419 849.953 583.2 851.598C834.312 938.139 910.563 1085.32 977.948 1215.24C1002.7 1263.03 1026.13 1308.15 1056.59 1348.75C1081.95 1382.46 1106.55 1405.38 1131.84 1418.85C1156.66 1432 1182.11 1438.68 1207.55 1438.68C1210.86 1438.68 1214.18 1438.58 1217.5 1438.38C1225.36 1437.86 1233.3 1436.63 1240.93 1434.68C1274.86 1426.35 1305.77 1405.49 1330.29 1374.45C1355.35 1342.69 1372.62 1301.47 1380.33 1255.22C1388.73 1204.75 1385.73 1150.9 1371.46 1095.09H1371.39ZM1376.7 1254.19C1369.15 1299.42 1352.19 1339.81 1327.67 1370.95C1303.61 1401.48 1273.39 1421.83 1240.09 1429.95C1232.61 1431.8 1224.9 1433.03 1217.11 1433.54C1189.05 1435.6 1160.52 1429.02 1132.99 1414.43C1108.17 1401.27 1083.88 1378.66 1058.98 1345.46C1028.68 1305.17 1005.39 1260.15 980.723 1212.57C913.03 1082.03 836.316 934.028 583.893 847.075C579.113 845.431 574.95 843.992 570.864 842.553C564.85 840.394 559.067 838.442 552.591 836.18C551.82 835.872 550.355 835.358 548.351 834.639C459.147 802.776 391.916 768.139 358.995 736.997C328.155 711.198 283.361 657.855 251.75 610.576C221.064 564.838 186.37 513.242 166.016 416.422C154.913 363.901 155.916 283.629 191.767 216.102C226.693 150.322 286.907 111.882 366.088 104.995C370.945 104.379 376.034 104.07 381.2 104.07C403.635 104.07 427.074 108.901 432.393 110.031C452.902 114.554 472.948 123.907 489.909 132.438C504.096 139.632 518.745 147.033 535.09 152.069C542.877 154.536 550.972 155.666 559.684 155.666C579.884 155.666 599.776 149.088 617.354 143.333C628.842 139.53 639.636 135.932 648.888 134.802C729.688 124.935 813.649 142.716 887.51 185.267C928.913 209.113 962.065 236.247 988.741 268.109C1017.65 302.541 1040.48 344.167 1058.52 395.044C1068.85 424.336 1071.31 456.918 1073.63 488.677C1074.01 493.919 1074.4 498.955 1074.78 503.889C1077.71 539.965 1082.73 581.797 1097.53 618.079C1106.78 640.793 1120.12 659.808 1132.99 678.103C1137.16 683.961 1141.4 690.026 1145.48 696.193C1156.05 712.021 1167.38 728.877 1179.56 745.014L1185.42 752.722C1258.82 849.542 1328.06 941.017 1367.92 1096.53C1382.02 1151.51 1384.95 1204.55 1376.7 1254.09V1254.19Z" fill="url(#paint16_linear_657_17148)"/>
</g>
<defs>
<linearGradient id="paint0_linear_657_17148" x1="139.182" y1="-0.96066" x2="1590.8" y2="1124.02" gradientUnits="userSpaceOnUse">
<stop stop-color="#AFB388"/>
<stop offset="0.31" stop-color="#41929E"/>
<stop offset="0.49" stop-color="#27758D"/>
<stop offset="0.68" stop-color="#115C7E"/>
<stop offset="0.86" stop-color="#044D76"/>
<stop offset="1" stop-color="#004873"/>
</linearGradient>
<linearGradient id="paint1_linear_657_17148" x1="151.501" y1="-16.8015" x2="1603.12" y2="1108.18" gradientUnits="userSpaceOnUse">
<stop stop-color="#AFB388"/>
<stop offset="0.31" stop-color="#41929E"/>
<stop offset="0.49" stop-color="#27758D"/>
<stop offset="0.68" stop-color="#115C7E"/>
<stop offset="0.86" stop-color="#044D76"/>
<stop offset="1" stop-color="#004873"/>
</linearGradient>
<linearGradient id="paint2_linear_657_17148" x1="166.492" y1="-36.0963" x2="1618.11" y2="1088.89" gradientUnits="userSpaceOnUse">
<stop stop-color="#AFB388"/>
<stop offset="0.31" stop-color="#41929E"/>
<stop offset="0.49" stop-color="#27758D"/>
<stop offset="0.68" stop-color="#115C7E"/>
<stop offset="0.86" stop-color="#044D76"/>
<stop offset="1" stop-color="#004873"/>
</linearGradient>
<linearGradient id="paint3_linear_657_17148" x1="193.926" y1="-71.5719" x2="1645.54" y2="1053.41" gradientUnits="userSpaceOnUse">
<stop stop-color="#AFB388"/>
<stop offset="0.31" stop-color="#41929E"/>
<stop offset="0.49" stop-color="#27758D"/>
<stop offset="0.68" stop-color="#115C7E"/>
<stop offset="0.86" stop-color="#044D76"/>
<stop offset="1" stop-color="#004873"/>
</linearGradient>
<linearGradient id="paint4_linear_657_17148" x1="251.363" y1="-145.68" x2="1702.98" y2="979.302" gradientUnits="userSpaceOnUse">
<stop stop-color="#AFB388"/>
<stop offset="0.31" stop-color="#41929E"/>
<stop offset="0.49" stop-color="#27758D"/>
<stop offset="0.68" stop-color="#115C7E"/>
<stop offset="0.86" stop-color="#044D76"/>
<stop offset="1" stop-color="#004873"/>
</linearGradient>
<linearGradient id="paint5_linear_657_17148" x1="263.303" y1="-161.106" x2="1714.92" y2="963.877" gradientUnits="userSpaceOnUse">
<stop stop-color="#AFB388"/>
<stop offset="0.31" stop-color="#41929E"/>
<stop offset="0.49" stop-color="#27758D"/>
<stop offset="0.68" stop-color="#115C7E"/>
<stop offset="0.86" stop-color="#044D76"/>
<stop offset="1" stop-color="#004873"/>
</linearGradient>
<linearGradient id="paint6_linear_657_17148" x1="274.403" y1="-175.503" x2="1726.09" y2="949.458" gradientUnits="userSpaceOnUse">
<stop stop-color="#AFB388"/>
<stop offset="0.31" stop-color="#41929E"/>
<stop offset="0.49" stop-color="#27758D"/>
<stop offset="0.68" stop-color="#115C7E"/>
<stop offset="0.86" stop-color="#044D76"/>
<stop offset="1" stop-color="#004873"/>
</linearGradient>
<linearGradient id="paint7_linear_657_17148" x1="284.726" y1="-188.757" x2="1736.34" y2="936.225" gradientUnits="userSpaceOnUse">
<stop stop-color="#AFB388"/>
<stop offset="0.31" stop-color="#41929E"/>
<stop offset="0.49" stop-color="#27758D"/>
<stop offset="0.68" stop-color="#115C7E"/>
<stop offset="0.86" stop-color="#044D76"/>
<stop offset="1" stop-color="#004873"/>
</linearGradient>
<linearGradient id="paint8_linear_657_17148" x1="294.593" y1="-201.487" x2="1746.21" y2="923.496" gradientUnits="userSpaceOnUse">
<stop stop-color="#AFB388"/>
<stop offset="0.31" stop-color="#41929E"/>
<stop offset="0.49" stop-color="#27758D"/>
<stop offset="0.68" stop-color="#115C7E"/>
<stop offset="0.86" stop-color="#044D76"/>
<stop offset="1" stop-color="#004873"/>
</linearGradient>
<linearGradient id="paint9_linear_657_17148" x1="304.24" y1="-213.931" x2="1755.86" y2="911.052" gradientUnits="userSpaceOnUse">
<stop stop-color="#AFB388"/>
<stop offset="0.31" stop-color="#41929E"/>
<stop offset="0.49" stop-color="#27758D"/>
<stop offset="0.68" stop-color="#115C7E"/>
<stop offset="0.86" stop-color="#044D76"/>
<stop offset="1" stop-color="#004873"/>
</linearGradient>
<linearGradient id="paint10_linear_657_17148" x1="313.646" y1="-226.068" x2="1765.26" y2="898.914" gradientUnits="userSpaceOnUse">
<stop stop-color="#AFB388"/>
<stop offset="0.31" stop-color="#41929E"/>
<stop offset="0.49" stop-color="#27758D"/>
<stop offset="0.68" stop-color="#115C7E"/>
<stop offset="0.86" stop-color="#044D76"/>
<stop offset="1" stop-color="#004873"/>
</linearGradient>
<linearGradient id="paint11_linear_657_17148" x1="322.918" y1="-237.978" x2="1774.54" y2="887.004" gradientUnits="userSpaceOnUse">
<stop stop-color="#AFB388"/>
<stop offset="0.31" stop-color="#41929E"/>
<stop offset="0.49" stop-color="#27758D"/>
<stop offset="0.68" stop-color="#115C7E"/>
<stop offset="0.86" stop-color="#044D76"/>
<stop offset="1" stop-color="#004873"/>
</linearGradient>
<linearGradient id="paint12_linear_657_17148" x1="331.93" y1="-249.684" x2="1783.62" y2="875.276" gradientUnits="userSpaceOnUse">
<stop stop-color="#AFB388"/>
<stop offset="0.31" stop-color="#41929E"/>
<stop offset="0.49" stop-color="#27758D"/>
<stop offset="0.68" stop-color="#115C7E"/>
<stop offset="0.86" stop-color="#044D76"/>
<stop offset="1" stop-color="#004873"/>
</linearGradient>
<linearGradient id="paint13_linear_657_17148" x1="179.809" y1="-53.386" x2="1631.43" y2="1071.6" gradientUnits="userSpaceOnUse">
<stop stop-color="#AFB388"/>
<stop offset="0.31" stop-color="#41929E"/>
<stop offset="0.49" stop-color="#27758D"/>
<stop offset="0.68" stop-color="#115C7E"/>
<stop offset="0.86" stop-color="#044D76"/>
<stop offset="1" stop-color="#004873"/>
</linearGradient>
<linearGradient id="paint14_linear_657_17148" x1="237.331" y1="-127.578" x2="1688.95" y2="997.405" gradientUnits="userSpaceOnUse">
<stop stop-color="#AFB388"/>
<stop offset="0.31" stop-color="#41929E"/>
<stop offset="0.49" stop-color="#27758D"/>
<stop offset="0.68" stop-color="#115C7E"/>
<stop offset="0.86" stop-color="#044D76"/>
<stop offset="1" stop-color="#004873"/>
</linearGradient>
<linearGradient id="paint15_linear_657_17148" x1="208.809" y1="-90.8087" x2="1660.43" y2="1034.17" gradientUnits="userSpaceOnUse">
<stop stop-color="#AFB388"/>
<stop offset="0.31" stop-color="#41929E"/>
<stop offset="0.49" stop-color="#27758D"/>
<stop offset="0.68" stop-color="#115C7E"/>
<stop offset="0.86" stop-color="#044D76"/>
<stop offset="1" stop-color="#004873"/>
</linearGradient>
<linearGradient id="paint16_linear_657_17148" x1="222.606" y1="-108.584" x2="1674.22" y2="1016.4" gradientUnits="userSpaceOnUse">
<stop stop-color="#AFB388"/>
<stop offset="0.31" stop-color="#41929E"/>
<stop offset="0.49" stop-color="#27758D"/>
<stop offset="0.68" stop-color="#115C7E"/>
<stop offset="0.86" stop-color="#044D76"/>
<stop offset="1" stop-color="#004873"/>
</linearGradient>
</defs>
</svg>
