<svg width="393" height="957" viewBox="0 0 393 957" fill="none" xmlns="http://www.w3.org/2000/svg">
<g opacity="0.05">
<path d="M969.279 1087.6C945.08 1087.6 920.559 1083.34 896.361 1074.98C872.242 1066.62 848.767 1052.15 822.478 1029.41C786.139 997.978 758.081 961.967 728.416 923.867C659.919 836.01 582.418 736.499 375.321 667.05L373.552 666.407C267.351 630.798 197.246 607.246 113.314 524.293C96.8332 508.056 79.7894 492.623 63.3085 477.672C28.0955 445.841 -5.02719 415.859 -29.3868 381.134C-34.1301 374.302 -38.5519 367.309 -42.5716 360.718C-63.7155 326.073 -72.6393 284.195 -67.0921 245.934C-60.0977 197.866 -30.9144 156.63 17.3226 126.568C50.2845 106.071 86.221 96.1035 127.222 96.1035C159.863 96.1035 191.619 102.454 215.576 108C236.479 112.823 254.246 122.308 271.451 131.391C286.726 139.509 302.483 147.869 320.733 153.174C328.612 155.505 337.134 156.711 345.977 156.711C369.452 156.711 391.802 148.753 411.579 141.84C422.915 137.821 432.643 134.365 441.084 132.918C469.383 128.015 498.084 125.603 526.544 125.603C579.926 125.603 631.62 134.124 680.339 151.004C767.889 181.307 823.121 226.883 859.379 298.824C872.162 324.144 873.207 352.599 874.172 380.089V381.295C874.332 385.154 874.493 388.851 874.654 392.468C876.101 422.691 879.879 457.577 896.682 487.559C906.731 505.403 921.685 520.033 936.156 534.18C941.301 539.163 947.09 544.871 952.396 550.497L957.3 555.722C967.269 566.252 976.675 576.219 986.564 586.026C1029.33 628.467 1060.93 667.05 1086.01 707.642C1114.79 754.263 1134.73 803.295 1146.79 857.633C1154.99 894.528 1153.95 929.895 1143.82 962.691C1134.33 993.316 1116.8 1020.65 1093.17 1041.71C1062.22 1069.28 1023.06 1085.11 979.891 1087.36C976.353 1087.52 972.736 1087.68 969.118 1087.68L969.279 1087.6ZM127.303 99.9618C87.025 99.9618 51.7316 109.768 19.4128 129.864C-27.8594 159.283 -56.48 199.634 -63.2332 246.577C-68.7 284.034 -59.9369 324.948 -39.195 358.869C-35.1753 365.38 -30.9144 372.373 -26.1711 379.125C-2.13302 413.528 30.9093 443.349 65.8007 474.939C82.4424 489.97 99.4862 505.403 116.048 521.721C199.337 604.031 269.119 627.502 374.839 662.95L376.607 663.593C584.75 733.444 662.733 833.438 731.471 921.616C761.056 959.636 789.033 995.486 825.05 1026.67C850.938 1049.1 874.011 1063.33 897.647 1071.53C924.981 1081.01 952.798 1085.11 979.891 1083.66C1022.18 1081.41 1060.53 1065.98 1090.84 1038.97C1113.99 1018.31 1131.11 991.628 1140.44 961.646C1150.41 929.493 1151.37 894.769 1143.33 858.517C1131.35 804.662 1111.66 755.951 1083.04 709.732C1058.12 669.381 1026.68 630.958 984.152 588.758C974.183 578.872 964.777 568.904 954.808 558.374L949.904 553.15C944.678 547.603 938.889 541.977 933.744 536.993C919.032 522.685 903.837 507.815 893.547 489.488C876.342 458.782 872.483 423.334 871.036 392.709C870.875 389.092 870.714 385.314 870.554 381.536V380.331C869.509 353.242 868.464 325.27 856.083 300.673C820.307 229.616 765.799 184.603 679.214 154.701C630.897 137.982 579.605 129.542 526.624 129.542C498.406 129.542 469.866 132.034 441.808 136.857C433.688 138.223 424.04 141.68 412.946 145.618C392.928 152.692 370.176 160.73 346.057 160.73C336.892 160.73 328.049 159.524 319.768 157.113C301.197 151.647 285.279 143.207 269.843 135.008C252.88 126.005 235.354 116.681 214.933 111.939C191.136 106.392 159.702 100.123 127.383 100.123L127.303 99.9618Z" fill="url(#paint0_linear_713_26042)"/>
<path d="M1145.33 858.27C1137.29 804.978 1121.38 756.83 1096.61 710.932C1073.46 667.928 1042.99 628.059 1003.68 588.994C995.96 581.358 988.081 573.24 980.443 565.362L969.992 554.671C964.365 548.964 958.415 543.338 952.466 537.711C937.271 523.484 921.514 508.694 911.143 490.447C893.376 459.179 890.321 423.007 889.758 391.739C889.678 387.559 889.597 383.38 889.597 378.637C889.276 350.102 888.954 320.602 875.448 294.559C856.716 258.387 832.678 229.611 802.047 206.542C773.587 185.08 739.259 168.521 697.051 155.821C656.13 143.523 612.798 137.333 568.178 137.333C533.448 137.333 498.235 141.192 463.504 148.667C455.626 150.355 446.46 154.133 435.848 158.474C415.348 166.833 392.033 176.318 367.432 176.318C358.428 176.318 349.745 174.952 341.706 172.38C323.054 166.351 307.056 156.705 291.62 147.301C274.737 137.092 257.372 126.482 236.469 120.855C208.411 113.219 164.757 105.181 128.097 105.744C95.5367 106.306 64.8259 115.952 34.1955 135.404C11.8457 149.551 -6.16277 166.351 -19.1867 185.16C-31.0852 202.201 -38.9639 221.09 -42.662 241.186C-50.6211 284.431 -38.7228 332.579 -10.7454 369.956C-6.16287 376.145 -1.17831 382.656 4.28855 389.087C27.6835 416.818 56.9472 440.691 88.06 466.092C110.088 484.097 132.92 502.826 154.707 523.805C234.941 601.212 300.544 629.828 399.027 667.687C578.067 736.654 653.558 828.047 720.125 908.75C752.604 948.056 783.235 985.192 823.03 1016.86C848.998 1037.52 871.669 1050.54 894.582 1057.78C917.816 1065.17 941.13 1068.95 963.802 1068.95C967.419 1068.95 971.037 1068.87 974.655 1068.63C983.338 1068.15 992.101 1067.1 1000.7 1065.57C1032.86 1059.62 1062.53 1045.64 1086.48 1025.22C1133.84 984.79 1155.3 924.022 1145.41 858.351L1145.33 858.27ZM1083.91 1022.25C1060.44 1042.26 1031.33 1055.93 999.899 1061.71C991.458 1063.24 982.855 1064.29 974.333 1064.69C948.607 1066.06 922.077 1062.44 895.547 1054C873.116 1046.84 850.767 1034.06 825.201 1013.73C785.727 982.298 755.177 945.323 722.858 906.178C655.97 825.154 580.157 733.278 400.153 663.99C302.071 626.211 236.791 597.756 157.119 520.911C135.252 499.852 112.42 481.123 90.1503 462.957C59.359 437.798 30.2561 413.924 7.02195 386.514C1.71588 380.164 -3.26865 373.654 -7.85116 367.545C-35.1854 330.971 -46.8426 283.948 -39.0443 241.668C-35.4265 222.135 -27.789 203.728 -16.2122 187.089C-3.42939 168.682 14.1771 152.284 36.1249 138.378C66.1926 119.328 98.1093 109.843 129.946 109.281C165.319 109.281 208.492 117.077 235.343 124.312C255.683 129.858 272.888 140.308 289.61 150.436C305.207 159.921 321.286 169.727 340.42 175.836C348.941 178.569 357.946 179.935 367.352 179.935C392.676 179.935 416.312 170.29 437.215 161.769C447.666 157.509 456.671 153.812 464.228 152.204C498.717 144.729 533.689 140.951 568.178 140.951C612.396 140.951 655.326 147.14 695.926 159.277C737.731 171.817 771.738 188.215 799.796 209.355C829.944 232.103 853.58 260.477 872.071 296.166C885.175 321.406 885.497 350.423 885.738 378.878C885.738 383.299 885.819 387.479 885.899 391.659C886.462 423.409 889.597 460.143 907.766 492.135C918.459 510.944 934.377 525.895 949.974 540.524C955.762 545.91 961.631 551.456 967.178 557.163L977.63 567.854C985.267 575.731 993.146 583.85 1000.86 591.486C1039.94 630.31 1070.16 669.938 1093.16 712.54C1117.68 758.035 1133.43 805.782 1141.39 858.672C1151.12 923.057 1130.06 982.62 1083.75 1022.09L1083.91 1022.25Z" fill="url(#paint1_linear_713_26042)"/>
<path d="M1143.8 858.908C1136.73 755.86 1095.32 665.994 1020.72 591.883C1015.57 586.738 1010.34 581.513 1005.04 576.208C999.33 570.501 993.542 564.633 987.673 558.766C981.724 552.898 975.372 547.11 969.021 541.403C953.023 527.015 936.461 512.064 925.608 493.255C906.876 460.701 904.706 421.475 904.866 390.93C904.866 386.67 904.866 382.49 905.027 377.587C905.429 349.212 905.992 317.06 891.601 290.213C855.825 223.336 799.388 182.181 713.768 160.558C642.618 142.553 563.108 143.839 485.929 164.256C478.773 166.185 470.171 170.124 460.202 174.705C440.023 184.029 415.02 195.604 388.731 195.604C379.646 195.604 370.883 194.157 362.764 191.344C343.63 184.673 327.551 173.66 312.034 163.05C295.473 151.716 278.349 139.981 257.366 133.47C227.137 124.146 190.316 114.58 153.737 114.259C116.353 114.259 82.1854 123.985 51.153 144C9.66919 170.767 -15.2533 207.26 -20.8809 249.54C-27.9557 302.752 -3.83719 351.222 21.0852 378.953C25.9893 384.339 31.7777 390.689 37.8877 396.798C60.3983 418.983 86.607 438.114 114.504 458.289C141.678 478.063 169.735 498.48 195.944 523.076C271.515 594.133 331.49 627.732 422.577 668.245C573.157 735.282 645.352 818.316 709.024 891.543C745.041 932.939 779.048 972.085 823.346 1004.24C848.831 1022.72 870.859 1034.3 892.566 1040.57C914.594 1046.92 936.783 1050.13 958.49 1050.13C962.268 1050.13 966.127 1050.05 969.825 1049.81C1011.23 1047.64 1049.26 1033.42 1079.73 1008.82C1124.51 972.647 1147.82 918.149 1143.8 859.069V858.908ZM1077.31 1005.68C1047.41 1029.8 1010.18 1043.7 969.584 1045.87C944.822 1047.16 919.096 1044.11 893.531 1036.71C872.226 1030.6 850.6 1019.19 825.517 1001.02C781.541 969.111 747.694 930.126 711.838 888.89C647.924 815.342 575.408 731.987 424.024 664.627C333.419 624.276 273.606 590.838 198.436 520.183C172.067 495.345 143.848 474.848 116.594 455.074C88.9385 434.979 62.7298 415.929 40.4604 393.985C34.3504 387.956 28.6424 381.686 23.7383 376.301C-0.621384 349.293 -24.2575 301.868 -17.3435 249.942C-11.8767 208.787 12.483 173.258 53.002 147.054C83.3913 127.441 116.916 117.956 153.496 117.956C189.593 118.278 226.092 127.763 255.999 137.007C276.419 143.357 293.302 154.932 309.703 166.105C325.38 176.876 341.62 187.968 361.236 194.881C369.758 197.855 378.923 199.382 388.49 199.382C415.583 199.382 441.068 187.647 461.569 178.162C471.377 173.66 479.818 169.722 486.732 167.873C563.349 147.617 642.136 146.331 712.722 164.175C797.137 185.557 852.931 226.149 888.144 291.981C902.052 318.025 901.57 349.614 901.168 377.507C901.168 382.41 901.007 386.67 901.007 390.93C900.846 421.957 903.098 461.826 922.232 495.184C933.326 514.476 950.128 529.587 966.529 544.377C972.639 549.924 978.99 555.631 984.859 561.418C990.728 567.206 996.597 573.073 1002.22 578.78C1007.53 584.086 1012.76 589.391 1017.9 594.455C1091.86 667.923 1132.87 756.905 1139.86 859.069C1143.8 916.863 1120.97 970.236 1077.15 1005.6L1077.31 1005.68Z" fill="url(#paint2_linear_713_26042)"/>
<path d="M952.288 1031.09C932.189 1031.09 911.447 1028.35 890.625 1023.05C869.642 1017.66 848.981 1007.86 823.737 991.379C773.329 958.423 734.981 916.143 694.381 871.37C635.13 805.94 567.92 731.909 446.041 668.569C362.35 625.083 307.682 586.822 237.176 522.276C207.188 494.786 174.307 473.887 142.551 453.631C117.066 437.394 93.0275 422.121 71.4817 404.277C65.9344 399.695 59.9851 394.47 52.83 387.718C17.2151 354.601 -3.36599 303.559 0.492969 257.662C4.03034 215.462 27.3449 179.049 67.8639 152.443C98.1728 132.509 130.572 122.863 166.91 122.863C205.661 122.863 243.205 133.955 278.016 146.013C299.16 153.327 316.043 166.269 332.443 178.808C347.96 190.704 363.958 202.922 383.575 210.317C391.936 213.452 400.859 215.06 410.185 215.06C437.52 215.06 463.487 201.717 484.309 190.945C493.635 186.123 501.755 181.943 508.267 179.933C555.7 164.982 603.455 157.427 650.245 157.427C677.74 157.427 704.672 160.079 730.398 165.384C771.721 173.824 805.809 187.168 834.51 206.057C865.221 226.313 889.098 252.437 907.589 285.956C922.864 313.687 921.577 347.126 920.371 376.626C920.211 381.609 919.969 385.95 919.889 390.29C918.924 421.96 920.452 462.553 939.988 496.232C951.243 515.604 968.689 530.716 985.491 545.345C991.762 550.731 998.756 556.84 1005.11 562.949C1016.44 573.8 1027.46 584.651 1037.59 594.779C1073.2 630.147 1100.21 671.302 1117.98 717.039C1135.35 761.65 1143.39 809.638 1142.1 859.554C1140.73 911.802 1115.57 960.111 1073.12 992.103C1049.81 1009.71 1021.67 1021.84 991.682 1027.39C982.597 1029.08 973.271 1030.12 964.026 1030.61C960.086 1030.85 956.147 1030.93 952.208 1030.93L952.288 1031.09ZM166.991 126.641C131.456 126.641 99.7002 136.126 70.0345 155.658C30.4802 181.621 7.80887 217.069 4.35189 258.064C0.57333 302.836 20.6721 352.672 55.483 384.985C62.6382 391.657 68.507 396.882 73.9739 401.383C95.3589 419.067 119.236 434.259 144.561 450.335C176.558 470.671 209.52 491.731 239.829 519.382C310.094 583.687 364.601 621.868 447.891 665.113C570.412 728.775 637.783 803.127 697.276 868.718C737.714 913.329 775.902 955.449 825.907 988.084C850.83 1004.32 871.089 1013.97 891.67 1019.27C916.191 1025.54 940.47 1028.11 963.946 1026.91C973.111 1026.43 982.275 1025.38 991.119 1023.69C1020.54 1018.23 1048.2 1006.33 1071.03 989.048C1112.52 957.78 1137.12 910.516 1138.48 859.394C1139.85 809.879 1131.81 762.454 1114.61 718.325C1097.08 673.071 1070.31 632.398 1035.09 597.432C1024.88 587.304 1013.95 576.453 1002.62 565.601C996.345 559.573 989.35 553.464 983.16 548.159C966.036 533.288 948.349 517.935 936.852 498.081C916.754 463.517 915.307 422.282 916.191 390.13C916.271 385.789 916.513 381.448 916.673 376.867C917.879 347.447 919.166 314.491 904.373 287.724C886.204 254.768 862.728 229.046 832.5 209.192C804.201 190.544 770.515 177.361 729.675 169.001C704.19 163.777 677.498 161.124 650.245 161.124C603.857 161.124 556.504 168.6 509.393 183.47C503.202 185.399 495.243 189.499 486.078 194.241C464.854 205.173 438.484 218.838 410.185 218.838C400.458 218.838 391.051 217.15 382.208 213.854C362.109 206.298 345.869 193.839 330.112 181.782C314.033 169.484 297.311 156.703 276.73 149.549C242.24 137.653 205.098 126.641 166.83 126.641H166.991Z" fill="url(#paint3_linear_713_26042)"/>
<path d="M946.092 1012.21C927.36 1012.21 908.066 1010.04 888.771 1005.7C868.672 1001.2 848.815 992.837 824.214 978.69C765.525 944.689 721.791 897.585 675.563 847.669C622.824 790.759 563.091 726.374 469.672 668.982C394.02 622.522 342.728 578.553 278.573 521.483C245.209 491.822 207.906 471.325 171.809 451.471C148.253 438.53 125.984 426.312 105.242 411.924C98.8103 407.503 92.1375 402.519 84.7412 396.651C66.4915 382.343 50.2518 362.168 39.0769 339.983C26.9373 315.868 20.988 290.227 21.9528 265.871C23.5607 223.752 45.3477 187.5 84.902 161.055C114.568 141.2 146.243 131.555 181.617 131.555C222.458 131.555 262.173 144.576 298.994 158.563C320.298 166.681 337.02 180.828 353.18 194.493C368.696 207.595 384.695 221.179 404.713 229.218C413.315 232.674 422.48 234.442 431.967 234.442C460.427 234.442 487.198 219.17 508.664 206.872C517.346 201.888 524.823 197.628 530.772 195.458C584.315 175.684 637.858 165.717 690.035 165.717C709.49 165.717 728.705 167.163 747.195 169.977C830.726 182.838 888.53 219.331 923.823 281.465C939.982 310 937.812 344.725 935.963 375.35C935.641 380.253 935.4 384.835 935.159 389.417C933.47 422.132 934.194 464.171 954.614 498.976C966.352 518.991 984.682 534.344 1002.45 549.295C1009.36 555.082 1016.36 560.95 1022.87 566.978C1034.37 577.589 1044.74 587.636 1054.79 597.604C1123.2 665.767 1154.56 761.42 1140.65 860.208C1134.3 905.704 1107.45 947.823 1067.17 975.796C1036.3 997.177 998.831 1009.56 958.875 1011.73C954.775 1011.97 950.514 1012.05 946.173 1012.05L946.092 1012.21ZM181.456 135.413C146.806 135.413 115.854 144.818 86.8315 164.27C48.3224 189.992 27.098 225.199 25.5705 266.112C24.6862 289.825 30.4746 314.823 42.2927 338.375C53.2264 360.158 69.0642 379.771 86.9119 393.838C94.3082 399.625 100.901 404.528 107.252 408.949C127.833 423.257 150.022 435.395 173.497 448.336C209.755 468.271 247.3 488.848 280.985 518.83C345.06 575.74 396.191 619.628 471.601 665.927C565.422 723.641 625.397 788.187 678.216 845.177C724.363 894.933 767.857 941.875 826.063 975.555C850.261 989.541 869.878 997.82 889.494 1002.16C908.548 1006.42 927.521 1008.59 946.012 1008.59C950.193 1008.59 954.373 1008.51 958.473 1008.27C997.786 1006.18 1034.53 994.043 1064.84 973.063C1104.31 945.734 1130.52 904.578 1136.71 860.047C1150.38 762.465 1119.5 667.937 1051.89 600.658C1041.92 590.691 1031.47 580.724 1020.06 570.113C1013.54 564.085 1006.63 558.297 999.877 552.59C981.788 537.398 963.136 521.724 951.077 501.227C930.094 465.538 929.37 422.775 931.058 389.578C931.3 384.996 931.541 380.414 931.862 375.511C933.711 345.368 935.882 311.206 920.285 283.716C885.555 222.626 828.716 186.696 746.391 174.076C728.142 171.263 709.088 169.816 689.793 169.816C638.099 169.816 584.958 179.783 531.817 199.316C526.19 201.406 518.793 205.586 510.352 210.408C488.404 222.948 461.15 238.461 431.726 238.461C421.757 238.461 412.109 236.613 403.025 232.995C382.524 224.716 366.204 210.971 350.527 197.708C334.609 184.204 318.128 170.298 297.466 162.421C260.967 148.515 221.654 135.654 181.456 135.654V135.413Z" fill="url(#paint4_linear_713_26042)"/>
<path d="M939.517 993.474C922.393 993.474 904.706 991.786 886.858 988.41C867.483 984.793 848.269 977.88 824.713 965.984C755.091 931.018 705.005 876.68 652.025 819.047C606.441 769.532 559.249 718.33 493.164 669.378C449.59 637.145 414.779 605.636 377.878 572.358C359.468 555.719 340.414 538.518 319.833 520.834C283.575 489.646 242.171 470.274 202.215 451.545C180.026 441.176 159.043 431.289 138.864 419.634C131.548 415.374 124.232 410.792 116.514 405.648C96.335 392.224 78.005 372.29 64.8202 349.542C50.7511 325.186 43.1939 299.063 43.0331 273.984C42.8723 244.725 52.9218 202.847 101.641 169.73C130.905 149.795 161.857 140.149 196.266 140.149C201.331 140.149 206.556 140.391 211.782 140.792C249.648 143.847 287.594 157.994 319.672 171.337C341.218 180.26 357.699 195.612 373.697 210.483C389.133 224.871 405.132 239.661 425.472 248.342C434.154 252.04 443.4 253.888 453.047 253.888C483.276 253.888 511.896 235.964 532.799 222.861C540.758 217.878 547.672 213.537 553.059 211.287C623.967 181.063 697.769 168.202 763.774 174.954C845.696 183.314 904.867 217.717 939.839 277.36C956.963 306.618 953.908 342.629 951.255 374.46C950.853 379.444 950.451 384.186 950.129 388.929C947.717 422.769 947.637 466.175 968.942 502.185C981.162 522.843 1000.54 538.598 1019.27 553.79C1026.42 559.577 1033.66 565.445 1040.33 571.474C1053.2 582.968 1062.84 592.051 1071.69 600.893C1105.29 634.332 1129.17 676.612 1140.75 723.233C1152.08 768.648 1151.44 816.395 1138.9 861.328C1127.16 903.286 1095.8 941.065 1052.87 965.099C1023.37 981.577 988.799 991.304 953.023 993.233C948.602 993.474 944.019 993.554 939.436 993.554L939.517 993.474ZM196.266 143.927C162.661 143.927 132.352 153.412 103.731 172.864C56.3787 205.097 46.5706 245.609 46.7314 273.984C46.8921 298.42 54.2081 323.9 67.9556 347.693C80.8188 369.959 98.7469 389.411 118.444 402.513C126.081 407.577 133.397 412.159 140.633 416.338C160.651 427.994 181.554 437.72 203.743 448.089C244.02 466.898 285.585 486.431 322.245 517.94C342.906 535.704 361.96 552.906 380.37 569.545C417.191 602.822 452.002 634.251 495.415 666.404C561.822 715.597 609.094 766.88 654.758 816.555C707.497 873.867 757.342 928.044 826.321 962.688C849.635 974.343 868.448 981.176 887.501 984.793C909.771 988.973 931.879 990.58 952.782 989.455C987.995 987.606 1021.92 978.041 1051.02 961.804C1093.07 938.333 1123.78 901.357 1135.2 860.363C1147.58 816.073 1148.22 768.97 1137.05 724.198C1125.55 678.3 1102.08 636.582 1068.95 603.626C1060.11 594.865 1050.54 585.781 1037.76 574.367C1031.17 568.419 1023.93 562.551 1016.94 556.844C997.884 541.331 978.187 525.415 965.645 504.195C943.778 467.38 943.778 423.171 946.27 388.768C946.592 384.025 946.994 379.283 947.396 374.299C950.049 343.031 953.023 307.663 936.462 279.45C902.214 220.932 843.927 187.092 763.291 178.893C697.93 172.302 624.69 184.922 554.425 214.984C549.28 217.154 542.527 221.415 534.728 226.318C513.424 239.661 484.321 257.908 453.047 257.908C442.917 257.908 433.109 255.898 423.944 252.04C402.961 243.117 386.721 228.006 371.044 213.457C355.287 198.828 339.047 183.796 318.145 175.035C286.308 161.772 248.764 147.786 211.38 144.812C206.315 144.41 201.17 144.168 196.185 144.168L196.266 143.927Z" fill="url(#paint5_linear_713_26042)"/>
<path d="M931.712 974.579C916.437 974.579 900.679 973.373 885.002 971.042C866.27 968.229 847.217 962.602 825.188 953.278C741.497 917.91 684.899 853.043 625.005 784.398C591.963 746.538 557.875 707.473 516.713 669.694C492.916 647.83 471.531 626.127 450.95 605.148C421.767 575.407 394.191 547.354 361.229 520.024C322.479 487.872 277.297 470.108 233.643 452.906C213.303 444.868 192.239 436.589 172.542 427.104C164.262 423.085 156.142 418.825 148.344 414.404C126.235 401.945 105.654 382.251 90.4593 358.941C74.3803 334.344 65.2153 307.658 64.0898 281.775C62.8035 252.597 71.1645 211.04 118.598 178.164C152.846 154.532 189.265 145.127 230.909 149.468C269.177 153.407 306.239 168.277 340.568 183.791C362.355 193.597 378.675 210.075 394.432 226.071C409.868 241.665 425.786 257.741 446.528 267.146C455.452 271.165 464.939 273.255 474.827 273.255C506.181 273.255 535.606 253.16 557.071 238.45C564.307 233.466 570.578 229.206 575.482 226.795C644.621 192.954 715.851 176.556 780.489 179.611C819.722 181.46 854.372 190.06 883.394 205.011C913.784 220.686 938.224 243.594 955.911 272.933C974 302.915 970.06 340.212 966.684 373.168V373.651C966.121 378.795 965.638 383.457 965.236 388.039C962.101 423.005 961.297 467.857 983.486 504.913C996.349 526.375 1016.77 542.451 1036.55 558.045C1043.78 563.752 1051.26 569.619 1058.01 575.487C1068.14 584.249 1078.83 593.734 1088.8 603.701C1122.01 636.818 1144.28 679.34 1153.04 726.443C1161.72 772.823 1156.09 820.971 1137.28 862.046C1120.88 897.895 1088.64 928.922 1046.68 949.259C1016.53 963.888 983.164 972.248 947.308 974.097C942.163 974.338 936.937 974.499 931.792 974.499L931.712 974.579ZM211.614 152.362C178.652 152.362 148.826 161.847 120.607 181.379C74.5411 213.21 66.4212 253.481 67.7075 281.695C68.833 306.854 77.7568 332.897 93.5142 356.931C108.387 379.679 128.486 398.971 150.112 411.189C157.83 415.529 165.95 419.789 174.15 423.728C193.767 433.213 214.75 441.412 235.009 449.45C278.905 466.732 324.328 484.576 363.641 517.131C396.764 544.621 424.42 572.674 453.603 602.415C474.265 623.475 495.569 645.097 519.286 666.88C560.609 704.74 594.777 743.966 627.819 781.825C687.472 850.149 743.829 914.695 826.716 949.741C848.503 958.905 867.154 964.531 885.645 967.264C906.387 970.399 926.968 971.444 947.147 970.319C982.441 968.47 1015.4 960.191 1045.07 945.803C1086.23 925.788 1117.83 895.484 1133.82 860.358C1152.32 820.006 1157.78 772.662 1149.34 727.005C1140.66 680.626 1118.87 638.828 1086.15 606.193C1076.26 596.306 1065.57 586.901 1055.52 578.14C1048.85 572.352 1041.37 566.485 1034.22 560.858C1014.12 545.103 993.375 528.786 980.19 506.681C957.438 468.661 958.242 423.085 961.458 387.557C961.86 382.894 962.342 378.232 962.905 373.088V372.606C966.362 340.292 970.14 303.639 952.695 274.702C935.329 245.925 911.452 223.579 881.706 208.146C853.166 193.356 818.998 184.996 780.328 183.148C716.414 180.174 645.667 196.491 577.17 230.01C572.507 232.26 566.397 236.521 559.242 241.344C537.375 256.294 507.387 276.872 474.827 276.872C464.456 276.872 454.407 274.702 445.001 270.441C423.696 260.796 407.456 244.398 391.779 228.563C376.183 212.808 360.104 196.571 339.04 187.086C304.953 171.734 268.212 157.024 230.507 153.085C224.156 152.442 217.885 152.121 211.775 152.121L211.614 152.362Z" fill="url(#paint6_linear_713_26042)"/>
<path d="M923.296 955.939C910.111 955.939 896.605 955.216 883.26 953.769C864.769 951.76 845.956 947.419 825.858 940.667C724.319 906.183 662.656 826.365 597.456 741.885C579.045 718.012 560.152 693.576 540.295 670.105C529.844 657.726 519.473 645.026 510.308 633.772L509.986 633.371C475.657 591.331 443.258 551.703 402.578 519.39C361.577 486.836 313.179 471.081 266.309 455.809C246.371 449.298 225.87 442.626 206.254 434.749C197.25 431.212 188.487 427.354 180.206 423.335C129.396 398.899 89.2794 342.713 84.8577 289.661C82.4458 260.724 89.2793 219.408 135.506 186.935C170.398 162.418 207.46 153.175 249.989 158.48C288.659 163.303 326.444 179.7 361.416 196.58C383.364 207.191 399.523 224.874 415.12 242.076C430.475 258.956 446.394 276.399 467.457 286.285C476.461 290.546 486.109 292.796 496.158 292.796C529.281 292.796 560.635 269.486 581.377 254.053C588.049 249.149 593.677 244.97 597.938 242.558C665.229 205.101 734.127 185.005 797.237 184.443H800.051C837.595 184.443 871.12 191.275 899.821 204.699C930.291 219.007 954.65 240.549 972.176 268.682C991.23 299.388 986.487 337.97 982.226 371.972V372.615C981.502 377.92 980.939 382.582 980.377 387.324C976.437 423.335 974.91 469.634 997.983 507.815C1011.41 530.081 1033.04 546.639 1053.94 562.555C1061.33 568.182 1068.81 573.889 1075.64 579.676C1086.18 588.518 1096.47 597.279 1105.87 606.684C1138.51 639.238 1159.82 683.287 1165.85 730.631C1172.04 779.182 1161.27 826.204 1135.54 863.019C1114.88 892.519 1081.19 917.839 1040.67 934.237C1010.52 946.454 977.322 953.608 941.948 955.457C935.838 955.779 929.647 955.939 923.457 955.939H923.296ZM227.317 160.811C194.838 160.811 165.413 170.376 137.516 189.989C92.8167 221.418 86.144 261.367 88.4754 289.34C92.7364 341.105 131.969 396.086 181.653 419.959C189.853 423.898 198.536 427.676 207.54 431.212C227.076 439.009 247.497 445.681 267.274 452.111C314.626 467.545 363.426 483.38 404.91 516.416C445.831 548.97 478.391 588.759 512.88 630.959L513.202 631.361C522.367 642.614 532.738 655.315 543.189 667.613C563.127 691.245 582.02 715.681 600.269 739.313C665.309 823.552 726.57 902.888 827.064 937.05C846.921 943.802 865.412 948.062 883.661 949.991C903.197 952.081 922.894 952.724 941.626 951.679C976.598 949.83 1009.4 942.757 1039.07 930.7C1078.94 914.543 1112.06 889.705 1132.24 860.768C1157.49 824.758 1168.02 778.619 1161.91 731.033C1155.96 684.493 1135.06 641.328 1102.98 609.337C1093.65 600.012 1083.44 591.331 1072.99 582.57C1066.16 576.863 1058.76 571.236 1051.61 565.77C1030.22 549.453 1008.35 532.733 994.526 509.825C970.89 470.679 972.418 423.576 976.437 386.922C976.92 382.18 977.563 377.437 978.206 372.132V371.489C982.467 338.051 987.13 300.191 968.719 270.611C951.595 243.04 927.798 221.981 897.972 208.075C869.834 194.892 836.791 188.14 799.81 188.14H796.996C734.609 188.703 666.274 208.637 599.546 245.773C595.446 248.024 589.979 252.124 583.547 256.866C562.323 272.701 530.326 296.413 495.997 296.413C485.385 296.413 475.255 294.082 465.688 289.581C443.901 279.292 427.822 261.608 412.145 244.487C396.71 227.607 380.791 210.165 359.567 199.876C324.837 183.076 287.453 166.92 249.265 162.097C241.789 161.132 234.392 160.65 227.237 160.65L227.317 160.811Z" fill="url(#paint7_linear_713_26042)"/>
<path d="M913.555 937.46C902.942 937.46 892.089 937.138 881.316 936.415C808.559 931.673 746.816 903.62 692.629 850.649C644.875 803.947 608.536 744.063 573.404 686.189C533.287 620.116 495.501 557.74 443.807 518.675C400.474 485.88 350.871 472.858 298.373 458.952C278.837 453.808 258.979 448.583 239.685 442.313C229.314 438.937 220.149 435.642 211.707 432.185C185.659 421.575 160.495 402.284 141.04 377.928C121.102 353.09 108.4 324.394 105.184 297.306C101.807 268.53 107.194 227.616 152.054 195.544C187.508 170.224 225.294 161.06 268.627 167.33C307.859 173.117 346.208 190.882 381.823 209.209C404.012 220.623 420.091 239.593 435.526 257.919C450.882 276.005 466.639 294.654 488.024 305.264C497.27 309.846 507.239 312.257 517.449 312.257C551.858 312.257 584.016 286.455 605.24 269.333C611.109 264.671 616.093 260.652 619.872 258.241C657.014 234.85 694.88 217.006 732.264 205.19C768.683 193.695 803.816 188.068 836.697 188.711C869.579 189.274 899.244 195.946 924.81 208.485C951.099 221.426 972.243 240.236 987.84 264.43C1007.94 295.698 1002.23 335.567 997.246 370.774C996.442 376.401 995.718 381.545 995.075 386.69C990.412 423.826 988.161 471.492 1012.04 510.878C1026.11 534.108 1049.02 551.069 1071.13 567.466C1078.61 573.013 1086 578.479 1092.84 584.025C1102.88 592.143 1113.18 600.503 1122.5 609.747C1140.11 627.35 1154.66 649.857 1164.47 674.775C1174.19 699.452 1179.26 726.138 1178.94 751.86C1178.46 796.391 1162.22 836.18 1133.19 863.911C1108.19 887.865 1073.86 907.156 1033.91 919.857C1004.16 929.342 971.761 935.049 937.593 936.817C929.714 937.219 921.594 937.46 913.394 937.46H913.555ZM243.222 169.179C211.144 169.179 182.041 178.825 154.386 198.598C110.972 229.625 105.747 269.173 109.043 296.904C112.178 323.35 124.559 351.322 144.095 375.597C163.229 399.47 187.749 418.279 213.235 428.649C221.596 432.025 230.68 435.32 240.89 438.616C260.105 444.885 279.882 450.11 299.016 455.094C352.237 469.08 402.163 482.263 446.058 515.54C498.234 555.007 536.261 617.705 576.539 684.099C611.511 741.813 647.769 801.455 695.202 847.835C748.745 900.163 809.685 927.895 881.558 932.476C900.531 933.682 919.584 933.843 937.593 932.878C971.439 931.11 1003.52 925.403 1032.94 916.079C1072.33 903.539 1106.18 884.489 1130.78 860.937C1159.08 833.929 1174.92 795.105 1175.4 751.619C1175.72 726.38 1170.74 700.175 1161.17 675.9C1151.52 651.465 1137.29 629.36 1120.01 612.158C1110.84 602.995 1100.55 594.716 1090.66 586.678C1083.91 581.212 1076.52 575.746 1069.44 570.441C1046.77 553.641 1023.53 536.439 1009.06 512.566C984.543 472.215 986.875 423.745 991.538 385.966C992.181 380.822 992.904 375.678 993.708 370.212C998.693 335.487 1004.24 296.341 984.865 266.279C969.67 242.647 949.009 224.32 923.363 211.7C898.28 199.402 869.177 192.811 836.858 192.329C804.298 191.766 769.648 197.312 733.631 208.646C696.569 220.382 659.024 238.065 622.123 261.295C618.505 263.546 613.601 267.565 607.813 272.147C586.106 289.589 553.385 315.874 517.61 315.874C506.756 315.874 496.305 313.382 486.497 308.559C464.469 297.628 448.39 278.658 432.793 260.25C417.518 242.165 401.68 223.516 380.215 212.424C344.841 194.177 306.814 176.574 268.144 170.947C259.622 169.661 251.181 169.098 243.141 169.098L243.222 169.179Z" fill="url(#paint8_linear_713_26042)"/>
<path d="M992.826 1181.33C963.24 1181.33 934.057 1174.73 905.919 1161.63C875.69 1147.57 846.909 1124.5 820.539 1092.99C792.401 1059.47 771.257 1023.14 748.907 984.633C678.24 863.016 598.247 725.163 257.051 664.476C241.455 661.743 226.421 659.411 211.95 657.161C203.508 655.875 195.228 654.589 187.027 653.222C32.6692 628.143 -7.84978 599.126 -25.2151 586.747C-113.649 523.487 -166.389 467.542 -191.633 352.839C-214.786 247.7 -156.58 128.013 -59.1417 80.3471C53.0092 25.4469 168.456 50.2042 181.239 53.1783C241.696 67.3254 267.824 64.4316 298.214 61.136C308.745 60.0107 319.679 58.805 332.864 58.1619C417.68 53.9821 506.597 77.2122 596.961 127.209C642.625 152.449 677.115 177.849 705.494 207.188C736.044 238.698 760.163 275.753 779.055 320.365C787.577 340.46 792.16 361.922 796.501 382.66L796.742 383.624C797.627 387.644 798.511 391.823 799.395 395.923C804.943 421.243 811.776 448.17 824.639 473.008C834.287 491.656 847.632 508.295 860.495 524.291L864.676 529.516C877.539 545.592 889.679 559.257 901.738 571.153C923.847 593.017 947.483 613.353 970.395 633.047C1035.92 689.474 1103.69 747.831 1154.66 854.657C1179.9 907.628 1189.79 961.403 1183.28 1010.27C1177.33 1054.81 1158.2 1094.43 1127.89 1124.98C1100.31 1152.79 1065.42 1171.2 1026.91 1178.19C1019.03 1179.64 1010.91 1180.52 1002.96 1181C999.579 1181.16 996.202 1181.24 992.826 1181.24V1181.33ZM101.085 48.8377C56.6268 48.8377 -0.855453 55.9916 -57.5339 83.8035C-153.445 130.746 -210.766 248.584 -188.015 352.115C-163.012 465.613 -110.755 521.076 -23.1248 583.773C-6.00073 595.991 34.0359 624.687 187.51 649.605C195.71 650.971 203.991 652.177 212.432 653.544C226.984 655.794 242.017 658.125 257.614 660.858C600.498 721.868 681.054 860.444 752.043 982.784C774.312 1021.21 795.376 1057.38 823.273 1090.66C849.321 1121.68 877.62 1144.43 907.366 1158.26C938.157 1172.56 970.395 1179.07 1002.63 1177.31C1010.51 1176.9 1018.39 1175.94 1026.11 1174.57C1063.81 1167.74 1098.06 1149.74 1125.08 1122.49C1154.74 1092.5 1173.55 1053.6 1179.34 1009.87C1185.77 961.805 1176.05 908.673 1151.04 856.425C1100.39 750.242 1032.94 692.207 967.742 636.021C944.83 616.327 921.113 595.911 898.924 573.967C886.785 561.99 874.565 548.245 861.541 532.008L857.36 526.863C844.256 510.626 830.83 493.827 821.022 474.857C807.917 449.537 801.003 422.368 795.456 396.807C794.572 392.788 793.687 388.608 792.803 384.509L792.562 383.544C788.221 362.967 783.718 341.746 775.277 321.972C756.545 277.763 732.668 241.109 702.439 209.921C674.301 180.904 640.053 155.664 594.71 130.585C504.989 80.9097 416.716 57.8404 332.623 62.0202C319.599 62.6633 308.745 63.869 298.214 64.9943C267.583 68.3703 241.053 71.264 180.033 56.9562C173.843 55.5094 143.293 48.9181 100.764 48.9181L101.085 48.8377Z" fill="url(#paint9_linear_713_26042)"/>
<path d="M1005.94 1238C992.751 1238 979.566 1236.63 966.542 1233.98C910.507 1222.49 859.617 1187.2 819.339 1131.82C793.05 1095.73 773.916 1056.98 753.576 1016.07C680.175 867.926 604.282 714.639 185.907 663.598C150.694 659.337 118.456 656.926 87.1824 654.595C-25.3704 643.985 -213.655 626.14 -269.449 405.414C-285.448 342.074 -317.686 128.099 -60.0206 31.8834C50.1204 -9.83436 162.03 -3.16274 266.624 10.2609C382.553 25.1314 449.281 55.435 546.639 113.55C589.088 138.951 623.417 168.049 657.745 207.918C688.697 243.768 712.574 285.003 730.824 333.955C735.326 345.932 739.668 358.311 743.928 370.207L744.089 370.689C762.098 421.329 780.669 473.657 812.023 517.626C849.889 570.757 898.528 605 950.141 641.252C985.274 666.009 1021.53 691.57 1057.15 724.767C1097.59 762.466 1131.03 804.666 1159.33 853.779C1201.38 926.604 1216.89 1000.23 1204.27 1066.63C1193.09 1125.39 1160.53 1174.9 1112.54 1206.09C1083.52 1224.98 1050.15 1235.83 1016.15 1237.68C1012.77 1237.84 1009.31 1237.92 1005.94 1237.92V1238ZM128.988 3.8304C66.9229 3.8304 3.81293 11.7881 -58.6539 35.5005C-313.345 130.591 -281.509 341.993 -265.751 404.53C-241.874 498.897 -193.074 563.764 -116.458 602.829C-52.5439 635.384 19.3291 644.467 87.504 650.897C118.778 653.228 151.177 655.64 186.39 659.9C606.775 711.183 683.15 865.354 756.952 1014.46C777.212 1055.29 796.266 1093.88 822.394 1129.73C862.109 1184.31 912.195 1219.11 967.265 1230.36C983.344 1233.66 999.745 1234.87 1015.9 1234.06C1049.27 1232.29 1081.99 1221.6 1110.45 1203.11C1157.48 1172.57 1189.48 1123.86 1200.49 1066.15C1212.95 1000.64 1197.6 927.971 1156.03 855.869C1127.89 807.078 1094.69 765.199 1054.49 727.742C1019.04 694.705 982.943 669.224 947.89 644.628C896.036 608.135 847.075 573.651 808.807 520.037C777.131 475.586 758.48 423.017 740.391 372.136L740.23 371.573C735.969 359.677 731.628 347.379 727.126 335.402C709.037 286.852 685.321 246.018 654.69 210.49C620.603 170.942 586.596 142.086 544.469 116.926C447.593 59.0521 381.187 28.9093 265.9 14.1192C221.281 8.41212 175.295 3.91078 128.747 3.91078L128.988 3.8304Z" fill="url(#paint10_linear_713_26042)"/>
<path d="M1193.58 945.966C1186.66 915.501 1174.6 884.474 1157.8 853.688C1098.79 745.817 1027.48 692.042 958.421 640.036C926.263 615.76 895.793 592.852 867.815 565.281C853.987 551.616 841.446 537.228 829.628 521.232C814.996 501.539 804.303 484.418 795.781 467.216C784.285 443.826 775.844 418.747 769.171 397.205C767.643 392.221 766.116 387.157 764.588 382.254L764.106 380.726C758.88 363.605 753.494 346.002 746.901 328.961C728.33 281.456 704.372 241.587 673.581 207.184C645.202 175.433 610.23 146.979 563.44 117.64C477.257 63.5431 380.783 30.9889 284.389 23.6742C276.511 22.8704 266.622 23.0311 254.241 23.2723C234.946 23.6742 210.506 24.0761 181.243 21.0216C138.472 16.6007 73.3525 9.84865 -12.5896 32.6768C-226.842 89.4258 -249.996 252.278 -252.488 284.35C-258.92 359.586 -230.862 568.255 -26.4979 629.425C3.56979 640.036 74.0761 647.752 136.302 654.584C164.52 657.639 191.131 660.613 209.622 663.346C602.512 717.844 678.646 863.977 752.368 1005.37C773.271 1045.4 792.968 1083.26 819.739 1118.38C846.27 1153.27 876.578 1179.47 909.781 1196.19C939.206 1210.98 970.078 1218.54 1001.51 1218.54C1004.89 1218.54 1008.27 1218.46 1011.72 1218.3C1019.68 1217.89 1027.72 1216.93 1035.6 1215.56C1076.04 1208.33 1112.78 1188.64 1141.8 1158.65C1175 1124.33 1195.02 1079.64 1199.69 1029.48C1202.18 1002.55 1200.17 974.42 1193.66 945.885L1193.58 945.966ZM1195.83 1029.24C1191.24 1078.51 1171.63 1122.4 1138.99 1156.08C1110.53 1185.5 1074.59 1204.79 1034.88 1211.87C1027.16 1213.23 1019.28 1214.2 1011.48 1214.6C977.313 1216.45 943.467 1209.05 911.47 1192.9C878.83 1176.34 848.923 1150.54 822.714 1116.13C796.183 1081.25 776.487 1043.55 755.664 1003.6C681.54 861.405 604.924 714.388 210.104 659.648C191.613 656.835 164.922 653.941 136.704 650.887C74.7193 644.135 4.45407 636.418 -25.2921 625.888C-227.325 565.362 -255.061 359.104 -248.71 284.671C-246.298 253.081 -223.385 92.3999 -11.6248 36.3744C73.6742 13.7873 138.392 20.4589 180.841 24.8799C210.345 27.9344 234.946 27.5325 254.322 27.1306C266.622 26.8894 276.35 26.7287 284.068 27.4521C379.818 34.7668 475.729 67.0799 561.43 120.855C607.899 150.033 642.629 178.327 670.767 209.756C701.237 243.838 724.953 283.305 743.364 330.408C749.956 347.288 755.343 364.891 760.568 382.093L760.97 383.459C762.498 388.443 764.026 393.507 765.553 398.41C772.306 420.033 780.748 445.353 792.405 468.985C801.007 486.347 811.86 503.709 826.573 523.563C838.552 539.72 851.174 554.269 865.162 568.095C893.301 595.906 923.851 618.895 956.169 643.17C1024.91 694.936 1095.9 748.389 1154.5 855.617C1171.15 886.082 1183.04 916.787 1189.96 946.93C1196.39 975.063 1198.32 1002.79 1195.91 1029.32L1195.83 1029.24Z" fill="url(#paint11_linear_713_26042)"/>
<path d="M1156.22 854.273C1101.39 747.447 1032.25 691.823 965.439 637.888C937.059 615.06 910.288 593.437 884.802 568.278C871.859 555.497 859.559 541.511 847.178 525.435C833.43 507.59 820.245 489.987 810.196 470.133C798.056 446.099 790.58 420.538 784.229 396.584C783.023 392.002 781.817 387.34 780.611 382.518C775.707 363.387 770.642 343.533 762.924 324.724C726.987 236.546 674.007 177.948 580.106 122.485C488.375 68.2279 389.65 39.6123 302.181 41.7022C294.624 41.863 287.79 42.1845 281.358 42.4256C254.667 43.551 233.604 44.3548 182.955 37.5224C80.371 25.4652 32.2949 36.3971 12.7589 40.818C-129.379 74.2565 -214.839 163.721 -222.959 287.829C-227.702 395.298 -184.691 490.871 -94.8095 567.635C-57.0239 599.707 -27.8405 613.291 6.97047 624.946C42.5854 636.762 91.7066 646.247 153.128 653.16C179.418 656.054 205.626 659.591 233.202 663.931C600.285 721.645 680.197 866.893 750.704 995.181C772.25 1034.41 792.59 1071.38 820.004 1105.62C846.454 1138.74 875.959 1163.42 907.715 1178.85C936.497 1192.76 966.484 1199.83 997.034 1199.83C1000.41 1199.83 1003.79 1199.75 1007.24 1199.59C1015.28 1199.19 1023.4 1198.22 1031.28 1196.78C1070.76 1189.62 1106.61 1170.57 1134.83 1141.64C1166.51 1109.24 1186.04 1067.04 1191.27 1019.78C1197.06 967.611 1184.92 910.379 1156.05 854.193L1156.22 854.273ZM1187.65 1019.46C1182.5 1065.92 1163.29 1107.31 1132.26 1139.06C1104.52 1167.44 1069.47 1186.09 1030.72 1193.16C1022.92 1194.53 1015.04 1195.49 1007.08 1195.89C973.88 1197.66 940.838 1190.75 909.484 1175.56C878.21 1160.36 849.188 1136.01 823.059 1103.37C795.886 1069.37 775.626 1032.48 754.08 993.332C683.172 864.401 602.777 718.188 233.845 660.234C206.189 655.893 179.9 652.356 153.53 649.382C92.4302 642.55 43.4697 633.145 8.17635 621.329C-26.2327 609.835 -55.0141 596.411 -92.3173 564.741C-181.234 488.781 -223.843 394.173 -219.18 287.989C-211.061 165.81 -126.726 77.4717 13.5628 44.5155C26.1848 41.6218 52.474 35.6736 96.1284 35.6736C119.041 35.6736 147.42 37.2009 182.473 41.3003C233.443 48.2131 254.587 47.3289 281.519 46.2035C287.951 45.9624 294.704 45.6409 302.261 45.4801C389.088 43.3902 487.008 71.8451 578.176 125.7C671.274 180.761 723.772 238.796 759.386 326.09C766.944 344.658 772.008 364.351 776.913 383.402C778.118 388.225 779.324 392.967 780.53 397.468C786.882 421.663 794.438 447.385 806.739 471.74C816.869 491.836 830.214 509.6 844.042 527.605C856.584 543.762 868.965 557.909 881.989 570.85C907.635 596.17 934.487 617.793 962.946 640.701C1029.51 694.315 1098.25 749.698 1152.76 855.801C1181.3 911.344 1193.28 967.852 1187.57 1019.3L1187.65 1019.46Z" fill="url(#paint12_linear_713_26042)"/>
<path d="M1153.15 855.305C1105.71 746.549 1038.1 684.656 972.741 624.853L972.339 624.531C954.652 608.374 936.402 591.655 918.796 574.212C907.54 563.04 895.883 550.179 882.297 533.781C879.965 530.887 877.473 528.074 874.981 525.019L874.096 523.974C861.474 509.023 848.37 493.59 839.044 475.907C825.538 450.265 819.267 421.971 814.443 395.204C813.72 391.185 813.076 387.166 812.353 383.067C808.574 360.721 804.635 337.571 795.149 316.029C776.095 272.864 751.976 237.175 721.507 207.113C693.047 179.06 658.799 155.186 613.617 131.956C535.393 91.7659 448.325 70.4649 361.74 70.4649C348.474 70.3041 334.003 72.4744 318.728 74.6447C289.867 78.7441 248.543 81.3967 214.134 72.9567C186.479 66.2047 131.489 52.8615 65.4844 57.7647C-35.974 69.42 -92.4916 116.362 -122.077 153.74C-164.847 207.756 -174.977 269.729 -170.234 309.679C-157.21 421.247 -86.7836 522.045 28.1007 593.504C90.2459 632.167 219.843 653.549 221.129 653.79C240.182 657.246 259.879 660.783 280.782 665.043C595.769 728.464 675.842 858.761 746.59 973.786C769.904 1011.73 791.933 1047.5 821.036 1080.37C847.405 1110.03 875.302 1131.57 904.164 1144.35C931.579 1156.49 959.958 1162.68 988.498 1162.68C991.875 1162.68 995.332 1162.6 998.708 1162.44C1006.83 1162.04 1014.87 1161.07 1022.83 1159.63C1060.29 1152.79 1094.3 1135.11 1121.23 1108.34C1150.01 1079.73 1168.82 1042.51 1175.42 1000.79C1182.73 954.656 1175.34 905.704 1153.31 855.305H1153.15ZM1171.48 1000.15C1164.97 1041.07 1146.63 1077.56 1118.34 1105.61C1092.05 1131.73 1058.68 1149.1 1021.94 1155.85C1014.22 1157.3 1006.27 1158.18 998.306 1158.58C967.033 1160.27 935.599 1154.24 905.45 1140.82C877.151 1128.28 849.576 1107.06 823.608 1077.72C794.746 1045.16 772.799 1009.48 749.565 971.696C678.495 856.028 597.94 725.007 281.345 661.265C260.442 657.085 240.665 653.468 221.611 650.012C220.325 649.771 91.452 628.47 29.9499 590.289C-83.9697 519.473 -153.753 419.64 -166.616 309.277C-171.279 270.051 -161.229 209.202 -119.263 156.151C-77.4578 103.341 -13.5438 70.6257 65.7256 61.5426C76.7397 60.7388 87.191 60.3369 97.16 60.3369C146.04 60.3369 190.418 71.0276 213.17 76.6542C248.222 85.255 290.027 82.6024 319.211 78.4226C334.405 76.2523 348.876 74.3232 361.659 74.3232C447.601 74.3232 534.106 95.4634 611.848 135.332C656.628 158.321 690.635 182.034 718.773 209.846C748.921 239.586 772.799 274.874 791.611 317.636C800.857 338.696 804.796 361.605 808.574 383.79C809.298 387.889 809.941 391.989 810.665 396.008C815.488 423.096 821.92 451.712 835.667 477.755C845.154 495.761 858.339 511.435 871.122 526.466L872.006 527.511C874.579 530.485 876.991 533.379 879.322 536.273C892.989 552.831 904.727 565.692 916.062 576.945C933.749 594.468 951.999 611.188 969.686 627.344L970.088 627.666C1035.21 687.228 1102.5 748.8 1149.61 856.832C1171.32 906.588 1178.63 954.816 1171.4 1000.23L1171.48 1000.15Z" fill="url(#paint13_linear_713_26042)"/>
<path d="M1148.48 857C1132.72 801.779 1108.92 751.782 1075.72 704.277C1043.24 657.816 1003.93 616.983 969.759 583.062C957.941 571.326 946.766 559.189 934.948 546.328C930.124 541.103 925.059 535.959 920.155 530.895C906.327 516.828 892.017 502.199 882.37 484.676C866.371 455.819 861.95 422.22 859.698 393.202C859.457 389.665 859.216 385.968 858.894 382.351V380.984C857.045 354.7 855.277 327.611 843.298 303.176C824.325 264.271 800.206 232.762 769.736 206.879C741.518 182.926 706.787 163.152 663.696 146.272C607.178 124.248 547.043 113.075 484.897 113.075C462.869 113.075 440.68 114.521 418.813 117.415C409.567 118.621 395.498 122.881 384.082 126.337C352.406 135.983 321.696 145.388 279.006 128.267C274.825 126.579 269.68 124.087 263.811 121.193C235.753 107.448 188.803 84.459 116.126 86.8704C6.78877 88.7996 -59.2959 155.033 -82.7712 211.22C-105.041 268.29 -92.097 335.167 -46.4327 399.552C-31.8008 420.13 18.2851 480.255 73.4361 532.101C125.693 581.294 214.69 627.191 311.566 654.762L351.763 666.658C586.436 735.625 665.303 843.014 734.845 937.783C762.34 975.321 788.388 1010.69 822.154 1042.2C848.363 1066.63 873.285 1083.03 898.368 1092.36C923.452 1101.68 949.017 1106.42 974.422 1106.42C977.959 1106.42 981.416 1106.34 984.954 1106.18C993.234 1105.78 1001.52 1104.73 1009.64 1103.29C1043.96 1096.94 1075.32 1081.42 1100.32 1058.35C1125.16 1035.37 1142.93 1005.62 1151.69 972.267C1161.18 936.176 1160.13 897.432 1148.64 857.161L1148.48 857ZM1147.91 971.222C1139.31 1003.86 1121.95 1033.03 1097.67 1055.54C1073.23 1078.13 1042.52 1093.4 1008.83 1099.59C1000.95 1101.04 992.832 1102 984.632 1102.4C956.413 1103.93 927.552 1099.27 899.574 1088.82C874.973 1079.66 850.453 1063.5 824.646 1039.38C791.122 1008.12 765.234 972.829 737.739 935.452C667.796 840.201 588.607 732.249 352.648 662.961L312.45 651.064C216.137 623.654 127.703 578.159 75.8479 529.287C16.5969 473.422 -32.3636 412.976 -43.4581 397.302C-88.3989 333.961 -101.101 268.29 -79.3143 212.506C-56.3213 157.445 8.63786 92.4971 116.126 90.5679C119.663 90.4072 123.201 90.4072 126.658 90.4072C192.34 90.4072 235.673 111.628 262.043 124.489C267.992 127.382 273.137 129.955 277.478 131.643C321.374 149.246 352.648 139.761 385.047 129.874C396.302 126.498 410.291 122.238 419.215 121.113C440.921 118.299 463.03 116.853 484.817 116.853C546.48 116.853 606.213 127.945 662.248 149.809C704.938 166.448 739.347 186.061 767.244 209.773C797.392 235.334 821.109 266.441 839.841 304.864C851.418 328.656 853.186 355.423 854.955 381.306V382.672C855.277 386.289 855.518 389.987 855.839 393.524C858.091 422.943 862.593 457.025 878.993 486.525C888.962 504.53 903.433 519.24 917.422 533.547C922.326 538.531 927.391 543.675 932.134 548.9C943.952 561.841 955.127 573.979 967.026 585.795C1001.11 619.555 1040.27 660.308 1072.5 706.447C1105.47 753.63 1129.1 803.225 1144.78 858.045C1156.11 897.673 1157.08 935.774 1147.83 971.222H1147.91Z" fill="url(#paint14_linear_713_26042)"/>
<path d="M1151.53 855.855C1107.15 742.518 1040.59 678.374 970.081 610.532L969.277 609.809C958.263 599.199 946.928 588.267 935.753 577.174C922.407 563.992 910.107 549.925 899.816 537.948C896.52 534.09 893.063 530.152 889.687 526.374L888.882 525.489C876.019 511.101 862.754 496.15 853.429 478.788C839.118 452.182 833.49 422.521 829.471 394.549C828.988 391.012 828.506 387.395 827.943 383.376V382.492C824.647 358.779 821.431 334.263 811.141 311.756C774.641 231.858 720.536 179.53 630.252 136.687C567.946 107.187 495.51 90.8695 402.332 85.3232C392.203 84.6801 364.788 84.3586 337.936 91.5125C294.603 104.695 259.873 99.1487 239.131 92.0752C121.272 51.6435 49.64 70.2115 26.1647 76.2401C25.1195 76.4813 -78.59 105.258 -124.415 191.828C-150.543 241.182 -151.991 299.056 -128.676 363.763C-106.728 429.354 -1.33044 578.38 143.059 625.644C194.592 643.006 302.402 665.192 304.411 665.593C592.949 731.345 672.942 854.087 743.448 962.44C767.888 999.978 790.962 1035.43 821.271 1067.66C847.801 1095.95 874.251 1115.32 902.067 1127.06C928.758 1138.31 956.254 1144.02 983.749 1144.02C987.206 1144.02 990.582 1143.94 994.039 1143.78C1002.16 1143.38 1010.28 1142.41 1018.24 1140.97C1054.66 1134.29 1087.78 1117.25 1113.99 1091.77C1141.4 1065.01 1159.81 1030.28 1167.13 991.378C1175.17 948.615 1169.94 903.039 1151.53 856.016V855.855ZM1163.43 990.493C1156.28 1028.67 1138.27 1062.68 1111.42 1088.88C1085.77 1113.88 1053.29 1130.6 1017.59 1137.11C1009.8 1138.56 1001.76 1139.44 993.878 1139.92C963.57 1141.53 933.019 1135.98 903.514 1123.52C876.18 1112.03 850.213 1092.9 824.004 1065.01C793.936 1033.01 770.943 997.728 746.584 960.35C675.675 851.434 595.28 727.969 305.135 661.896C304.009 661.655 195.798 639.389 144.184 622.027C1.08139 575.245 -103.432 427.585 -125.219 362.557C-148.132 298.895 -146.765 242.066 -121.199 193.677C-76.1781 108.553 25.9234 80.2592 26.9685 80.018C38.9474 76.9635 63.3875 70.6134 100.208 70.6134C135.1 70.6134 181.005 76.3205 237.764 95.7727C259.069 103.087 294.523 108.714 338.901 95.2904C365.19 88.2973 392.042 88.6992 402.011 89.2618C494.706 94.7277 566.66 110.965 628.564 140.223C717.963 182.584 771.586 234.43 807.603 313.444C817.653 335.469 820.869 359.663 824.004 383.135L824.165 384.421C824.647 388.038 825.129 391.655 825.612 395.192C829.631 423.566 835.42 453.548 849.971 480.717C859.458 498.481 872.884 513.513 885.908 528.142L886.712 529.026C890.089 532.804 893.465 536.662 896.842 540.521C907.213 552.578 919.594 566.644 933.019 579.907C944.275 591 955.61 602.012 966.625 612.542L967.428 613.265C1037.61 680.866 1103.94 744.688 1148 857.302C1166.16 903.682 1171.31 948.534 1163.43 990.574V990.493Z" fill="url(#paint15_linear_713_26042)"/>
<path d="M1150.01 856.422C1108.2 734.002 1035.61 662.141 958.829 586.101L952.719 580.072C940.097 567.613 928.36 554.431 917.346 542.052C913.085 537.229 908.663 532.487 904.322 527.825C891.056 513.677 877.309 498.968 867.903 481.605C852.789 453.794 847.643 421.561 844.588 393.749C844.186 389.891 843.784 385.952 843.382 381.692C840.89 356.693 838.398 330.891 827.303 307.339C808.25 266.988 784.131 234.112 753.661 206.863C725.523 181.624 690.632 160.242 647.058 141.433C569.557 107.914 481.364 93.928 396.387 101.725C386.418 102.609 375.001 105.423 362.862 108.477C344.773 112.978 324.272 118.042 303.691 118.042C294.848 118.042 286.728 117.158 278.849 115.309C262.047 111.451 246.932 105.664 232.14 100.037C214.372 93.285 193.229 85.8899 171.522 82.3532C164.608 81.2278 128.672 75.6816 101.418 78.3341C-4.2213 85.2469 -57.282 130.26 -83.0888 166.753C-121.276 220.689 -122.241 284.752 -110.503 326.631C-88.9575 403.154 -52.5387 443.826 -20.2199 479.917C12.9028 517.134 59.9338 559.173 92.333 579.429C127.466 604.347 196.123 630.873 290.908 656.273C292.999 656.836 294.446 657.238 295.33 657.479C302.164 659.167 308.113 660.775 314.464 662.463C318.725 663.588 323.147 664.713 328.131 665.999C589.977 733.68 669.488 848.786 739.753 950.387C765.56 987.764 790 1023.05 821.756 1054.8C848.206 1081.17 873.852 1099.09 900.221 1109.62C926.109 1119.91 952.639 1125.14 979.169 1125.14C982.626 1125.14 986.083 1125.06 989.54 1124.89C997.741 1124.49 1006.02 1123.53 1013.98 1122C1049.35 1115.49 1081.59 1099.17 1107.16 1074.9C1133.29 1050.06 1151.29 1017.83 1159.33 981.655C1168.1 942.188 1164.96 900.069 1150.09 856.422H1150.01ZM1155.56 980.852C1147.68 1016.22 1129.99 1047.81 1104.42 1072.16C1079.34 1096.04 1047.83 1111.95 1013.1 1118.3C1005.3 1119.75 997.258 1120.71 989.138 1121.12C959.875 1122.72 930.129 1117.58 901.427 1106.17C875.54 1095.88 850.216 1078.19 824.248 1052.23C792.653 1020.72 768.374 985.514 742.647 948.297C672.061 846.214 592.068 730.465 328.855 662.463C323.87 661.177 319.529 660.051 315.268 658.926C308.997 657.238 302.968 655.711 296.214 653.942C295.411 653.701 293.883 653.299 291.793 652.736C198.776 627.818 128.671 600.73 94.3428 576.375C62.1849 556.199 15.4754 514.481 -17.4865 477.506C-49.4837 441.736 -85.6614 401.385 -106.886 325.666C-118.462 284.592 -117.417 221.814 -80.0338 169.004C-43.6149 117.56 19.1736 87.4976 101.739 82.112C106.804 81.6298 112.11 81.3886 117.497 81.3886C140.892 81.3886 165.332 85.1665 170.879 86.0507C192.264 89.5875 213.166 96.9021 230.853 103.574C245.646 109.2 260.921 114.988 277.965 118.927C286.085 120.856 294.526 121.74 303.611 121.74C324.674 121.74 345.416 116.595 363.746 112.094C375.725 109.12 386.98 106.307 396.628 105.423C480.882 97.7059 568.432 111.612 645.45 144.89C688.622 163.538 723.192 184.759 751.008 209.677C781.157 236.604 804.954 269.159 823.766 308.947C834.539 331.856 837.112 357.336 839.523 382.174C839.925 386.274 840.327 390.212 840.729 394.071C843.784 422.284 849.01 454.999 864.446 483.374C874.093 501.138 888.002 516.008 901.427 530.316C905.769 534.898 910.191 539.641 914.452 544.463C925.466 556.842 937.284 570.025 949.986 582.644L956.096 588.673C1032.63 664.392 1104.83 735.931 1146.39 857.547C1161.1 900.551 1164.16 942.028 1155.56 980.771V980.852Z" fill="url(#paint16_linear_713_26042)"/>
</g>
<defs>
<linearGradient id="paint0_linear_713_26042" x1="-17.8904" y1="-113.932" x2="1153.82" y2="1096.81" gradientUnits="userSpaceOnUse">
<stop stop-color="#AFB388"/>
<stop offset="0.31" stop-color="#41929E"/>
<stop offset="0.49" stop-color="#27758D"/>
<stop offset="0.68" stop-color="#115C7E"/>
<stop offset="0.86" stop-color="#044D76"/>
<stop offset="1" stop-color="#004873"/>
</linearGradient>
<linearGradient id="paint1_linear_713_26042" x1="-5.43923" y1="-125.995" x2="1166.27" y2="1084.75" gradientUnits="userSpaceOnUse">
<stop stop-color="#AFB388"/>
<stop offset="0.31" stop-color="#41929E"/>
<stop offset="0.49" stop-color="#27758D"/>
<stop offset="0.68" stop-color="#115C7E"/>
<stop offset="0.86" stop-color="#044D76"/>
<stop offset="1" stop-color="#004873"/>
</linearGradient>
<linearGradient id="paint2_linear_713_26042" x1="6.13175" y1="-137.253" x2="1177.92" y2="1073.49" gradientUnits="userSpaceOnUse">
<stop stop-color="#AFB388"/>
<stop offset="0.31" stop-color="#41929E"/>
<stop offset="0.49" stop-color="#27758D"/>
<stop offset="0.68" stop-color="#115C7E"/>
<stop offset="0.86" stop-color="#044D76"/>
<stop offset="1" stop-color="#004873"/>
</linearGradient>
<linearGradient id="paint3_linear_713_26042" x1="16.8935" y1="-147.619" x2="1188.6" y2="1063.12" gradientUnits="userSpaceOnUse">
<stop stop-color="#AFB388"/>
<stop offset="0.31" stop-color="#41929E"/>
<stop offset="0.49" stop-color="#27758D"/>
<stop offset="0.68" stop-color="#115C7E"/>
<stop offset="0.86" stop-color="#044D76"/>
<stop offset="1" stop-color="#004873"/>
</linearGradient>
<linearGradient id="paint4_linear_713_26042" x1="27.1785" y1="-157.576" x2="1198.89" y2="1053.16" gradientUnits="userSpaceOnUse">
<stop stop-color="#AFB388"/>
<stop offset="0.31" stop-color="#41929E"/>
<stop offset="0.49" stop-color="#27758D"/>
<stop offset="0.68" stop-color="#115C7E"/>
<stop offset="0.86" stop-color="#044D76"/>
<stop offset="1" stop-color="#004873"/>
</linearGradient>
<linearGradient id="paint5_linear_713_26042" x1="37.2447" y1="-167.308" x2="1208.95" y2="1043.43" gradientUnits="userSpaceOnUse">
<stop stop-color="#AFB388"/>
<stop offset="0.31" stop-color="#41929E"/>
<stop offset="0.49" stop-color="#27758D"/>
<stop offset="0.68" stop-color="#115C7E"/>
<stop offset="0.86" stop-color="#044D76"/>
<stop offset="1" stop-color="#004873"/>
</linearGradient>
<linearGradient id="paint6_linear_713_26042" x1="47.046" y1="-176.798" x2="1218.75" y2="1033.94" gradientUnits="userSpaceOnUse">
<stop stop-color="#AFB388"/>
<stop offset="0.31" stop-color="#41929E"/>
<stop offset="0.49" stop-color="#27758D"/>
<stop offset="0.68" stop-color="#115C7E"/>
<stop offset="0.86" stop-color="#044D76"/>
<stop offset="1" stop-color="#004873"/>
</linearGradient>
<linearGradient id="paint7_linear_713_26042" x1="56.7195" y1="-186.114" x2="1228.43" y2="1024.63" gradientUnits="userSpaceOnUse">
<stop stop-color="#AFB388"/>
<stop offset="0.31" stop-color="#41929E"/>
<stop offset="0.49" stop-color="#27758D"/>
<stop offset="0.68" stop-color="#115C7E"/>
<stop offset="0.86" stop-color="#044D76"/>
<stop offset="1" stop-color="#004873"/>
</linearGradient>
<linearGradient id="paint8_linear_713_26042" x1="66.1119" y1="-195.268" x2="1237.9" y2="1015.47" gradientUnits="userSpaceOnUse">
<stop stop-color="#AFB388"/>
<stop offset="0.31" stop-color="#41929E"/>
<stop offset="0.49" stop-color="#27758D"/>
<stop offset="0.68" stop-color="#115C7E"/>
<stop offset="0.86" stop-color="#044D76"/>
<stop offset="1" stop-color="#004873"/>
</linearGradient>
<linearGradient id="paint9_linear_713_26042" x1="-92.5057" y1="-41.7516" x2="1079.2" y2="1168.99" gradientUnits="userSpaceOnUse">
<stop stop-color="#AFB388"/>
<stop offset="0.31" stop-color="#41929E"/>
<stop offset="0.49" stop-color="#27758D"/>
<stop offset="0.68" stop-color="#115C7E"/>
<stop offset="0.86" stop-color="#044D76"/>
<stop offset="1" stop-color="#004873"/>
</linearGradient>
<linearGradient id="paint10_linear_713_26042" x1="-134.868" y1="-0.751293" x2="1036.84" y2="1209.99" gradientUnits="userSpaceOnUse">
<stop stop-color="#AFB388"/>
<stop offset="0.31" stop-color="#41929E"/>
<stop offset="0.49" stop-color="#27758D"/>
<stop offset="0.68" stop-color="#115C7E"/>
<stop offset="0.86" stop-color="#044D76"/>
<stop offset="1" stop-color="#004873"/>
</linearGradient>
<linearGradient id="paint11_linear_713_26042" x1="-122.007" y1="-13.1403" x2="1049.7" y2="1197.6" gradientUnits="userSpaceOnUse">
<stop stop-color="#AFB388"/>
<stop offset="0.31" stop-color="#41929E"/>
<stop offset="0.49" stop-color="#27758D"/>
<stop offset="0.68" stop-color="#115C7E"/>
<stop offset="0.86" stop-color="#044D76"/>
<stop offset="1" stop-color="#004873"/>
</linearGradient>
<linearGradient id="paint12_linear_713_26042" x1="-106.386" y1="-28.2292" x2="1065.32" y2="1182.51" gradientUnits="userSpaceOnUse">
<stop stop-color="#AFB388"/>
<stop offset="0.31" stop-color="#41929E"/>
<stop offset="0.49" stop-color="#27758D"/>
<stop offset="0.68" stop-color="#115C7E"/>
<stop offset="0.86" stop-color="#044D76"/>
<stop offset="1" stop-color="#004873"/>
</linearGradient>
<linearGradient id="paint13_linear_713_26042" x1="-77.7794" y1="-55.9744" x2="1093.93" y2="1154.77" gradientUnits="userSpaceOnUse">
<stop stop-color="#AFB388"/>
<stop offset="0.31" stop-color="#41929E"/>
<stop offset="0.49" stop-color="#27758D"/>
<stop offset="0.68" stop-color="#115C7E"/>
<stop offset="0.86" stop-color="#044D76"/>
<stop offset="1" stop-color="#004873"/>
</linearGradient>
<linearGradient id="paint14_linear_713_26042" x1="-32.5244" y1="-99.7741" x2="1139.18" y2="1110.97" gradientUnits="userSpaceOnUse">
<stop stop-color="#AFB388"/>
<stop offset="0.31" stop-color="#41929E"/>
<stop offset="0.49" stop-color="#27758D"/>
<stop offset="0.68" stop-color="#115C7E"/>
<stop offset="0.86" stop-color="#044D76"/>
<stop offset="1" stop-color="#004873"/>
</linearGradient>
<linearGradient id="paint15_linear_713_26042" x1="-62.2699" y1="-71.0178" x2="1109.44" y2="1139.72" gradientUnits="userSpaceOnUse">
<stop stop-color="#AFB388"/>
<stop offset="0.31" stop-color="#41929E"/>
<stop offset="0.49" stop-color="#27758D"/>
<stop offset="0.68" stop-color="#115C7E"/>
<stop offset="0.86" stop-color="#044D76"/>
<stop offset="1" stop-color="#004873"/>
</linearGradient>
<linearGradient id="paint16_linear_713_26042" x1="-47.8757" y1="-84.9196" x2="1123.83" y2="1125.82" gradientUnits="userSpaceOnUse">
<stop stop-color="#AFB388"/>
<stop offset="0.31" stop-color="#41929E"/>
<stop offset="0.49" stop-color="#27758D"/>
<stop offset="0.68" stop-color="#115C7E"/>
<stop offset="0.86" stop-color="#044D76"/>
<stop offset="1" stop-color="#004873"/>
</linearGradient>
</defs>
</svg>
