<svg width="1500" height="1584" viewBox="0 0 1500 1584" fill="none" xmlns="http://www.w3.org/2000/svg">
<g opacity="0.05">
<path d="M-98.062 1391.19C-67.1195 1391.19 -35.766 1385.74 -4.82349 1375.05C26.0162 1364.37 56.0336 1345.86 89.6488 1316.78C136.114 1276.59 171.991 1230.54 209.924 1181.83C297.508 1069.49 396.607 942.243 661.417 853.44L663.678 852.618C799.476 807.086 889.117 776.971 996.439 670.901C1017.51 650.139 1039.31 630.405 1060.38 611.288C1105.41 570.587 1147.76 532.249 1178.91 487.848C1184.97 479.111 1190.63 470.169 1195.77 461.741C1222.8 417.443 1234.21 363.894 1227.12 314.97C1218.18 253.507 1180.86 200.78 1119.18 162.34C1077.03 136.131 1031.08 123.386 978.655 123.386C936.918 123.386 896.313 131.505 865.678 138.597C838.951 144.764 816.232 156.892 794.233 168.507C774.701 178.888 754.553 189.577 731.217 196.36C721.143 199.341 710.246 200.883 698.938 200.883C668.921 200.883 640.343 190.707 615.054 181.868C600.56 176.729 588.121 172.31 577.327 170.46C541.142 164.19 504.443 161.106 468.052 161.106C399.793 161.106 333.694 172.001 271.397 193.585C159.449 232.334 88.8264 290.611 42.4641 382.6C26.119 414.976 24.7827 451.36 23.5491 486.512V488.053C23.3435 492.987 23.1379 497.715 22.9324 502.34C21.0819 540.986 16.2505 585.593 -5.2345 623.93C-18.0844 646.747 -37.205 665.454 -55.7089 683.543C-62.288 689.915 -69.6897 697.213 -76.4744 704.408L-82.745 711.088C-95.4921 724.553 -107.52 737.298 -120.164 749.837C-174.853 804.105 -215.253 853.44 -247.326 905.345C-284.128 964.958 -309.622 1027.65 -325.042 1097.13C-335.528 1144.31 -334.191 1189.53 -321.239 1231.47C-309.109 1270.63 -286.698 1305.57 -256.475 1332.5C-216.898 1367.76 -166.835 1388.01 -111.631 1390.88C-107.108 1391.09 -102.482 1391.29 -97.8564 1391.29L-98.062 1391.19ZM978.552 128.319C1030.05 128.319 1075.18 140.859 1116.51 166.554C1176.95 204.172 1213.55 255.768 1222.19 315.792C1229.18 363.688 1217.97 416.004 1191.45 459.377C1186.31 467.703 1180.86 476.645 1174.8 485.278C1144.06 529.269 1101.81 567.4 1057.19 607.793C1035.91 627.013 1014.12 646.747 992.944 667.612C886.444 772.86 797.214 802.872 662.034 848.199L659.772 849.021C393.625 938.338 293.91 1066.2 206.017 1178.95C168.187 1227.56 132.413 1273.4 86.3591 1313.28C53.2578 1341.96 23.7545 1360.15 -6.46838 1370.64C-41.42 1382.76 -76.9883 1388.01 -111.631 1386.16C-165.704 1383.28 -214.739 1363.54 -253.494 1329.01C-283.1 1302.59 -304.996 1268.47 -316.921 1230.13C-329.668 1189.02 -330.902 1144.62 -320.622 1098.27C-305.305 1029.4 -280.119 967.116 -243.523 908.017C-211.655 856.421 -171.46 807.292 -117.08 753.331C-104.333 740.689 -92.3053 727.945 -79.5582 714.48L-73.2877 707.799C-66.6057 700.708 -59.2041 693.513 -52.625 687.14C-33.8127 668.845 -14.3838 649.831 -1.22546 626.397C20.7736 587.134 25.708 541.808 27.5585 502.648C27.764 498.023 27.9696 493.192 28.1752 488.362V486.82C29.5116 452.183 30.8478 416.415 46.6788 384.964C92.4244 294.105 162.122 236.548 272.837 198.313C334.619 176.935 400.205 166.143 467.949 166.143C504.032 166.143 540.525 169.329 576.402 175.496C586.785 177.243 599.121 181.663 613.307 186.699C638.904 195.744 667.996 206.022 698.836 206.022C710.555 206.022 721.863 204.48 732.451 201.397C756.198 194.408 776.552 183.616 796.289 173.132C817.98 161.62 840.39 149.698 866.501 143.634C896.929 136.542 937.124 128.525 978.449 128.525L978.552 128.319Z" fill="url(#paint0_linear_713_25534)"/>
<path d="M-323.176 1097.95C-312.896 1029.81 -292.542 968.24 -260.88 909.552C-231.273 854.564 -192.312 803.584 -142.044 753.633C-132.175 743.869 -122.101 733.488 -112.335 723.415L-98.9711 709.745C-91.7751 702.448 -84.1678 695.253 -76.5607 688.058C-57.1317 669.866 -36.9833 650.954 -23.7222 627.623C-1.00354 587.641 2.90283 541.39 3.62244 501.408C3.72522 496.063 3.82788 490.719 3.82788 484.655C4.23914 448.167 4.65039 410.447 21.9207 377.145C45.8728 330.894 76.6097 294.098 115.776 264.6C152.167 237.158 196.062 215.985 250.032 199.745C302.356 184.02 357.765 176.105 414.818 176.105C459.228 176.105 504.253 181.039 548.663 190.598C558.737 192.756 570.456 197.587 584.026 203.137C610.239 213.826 640.051 225.954 671.507 225.954C683.021 225.954 694.123 224.207 704.403 220.918C728.252 213.209 748.71 200.876 768.447 188.85C790.035 175.797 812.239 162.23 838.967 155.035C874.844 145.271 930.664 134.993 977.54 135.712C1019.17 136.432 1058.44 148.766 1097.61 173.639C1126.19 191.728 1149.21 213.209 1165.87 237.26C1181.08 259.05 1191.16 283.203 1195.89 308.899C1206.06 364.195 1190.85 425.761 1155.07 473.554C1149.21 481.468 1142.84 489.794 1135.85 498.016C1105.94 533.476 1068.52 564.002 1028.73 596.48C1000.57 619.503 971.372 643.451 943.514 670.277C840.92 769.256 757.036 805.846 631.107 854.256C402.174 942.442 305.646 1059.3 220.528 1162.5C178.998 1212.76 139.831 1260.24 88.9454 1300.74C55.7413 1327.15 26.7521 1343.8 -2.54565 1353.05C-32.2545 1362.51 -62.066 1367.34 -91.0554 1367.34C-95.6813 1367.34 -100.307 1367.24 -104.933 1366.93C-116.036 1366.31 -127.241 1364.98 -138.24 1363.02C-179.36 1355.42 -217.293 1337.53 -247.927 1311.43C-308.475 1259.73 -335.922 1182.02 -323.278 1098.05L-323.176 1097.95ZM-244.637 1307.62C-214.62 1333.22 -177.407 1350.69 -137.212 1358.09C-126.418 1360.04 -115.419 1361.38 -104.522 1361.89C-71.6263 1363.64 -37.7028 1359.01 -3.77917 1348.22C24.9017 1339.07 53.4799 1322.73 86.1699 1296.73C136.644 1256.54 175.708 1209.26 217.033 1159.21C302.562 1055.6 399.501 938.125 629.668 849.528C755.083 801.221 838.556 764.836 940.43 666.577C968.391 639.649 997.586 615.701 1026.06 592.472C1065.43 560.301 1102.65 529.775 1132.36 494.727C1139.14 486.607 1145.51 478.282 1151.37 470.471C1186.32 423.705 1201.23 363.578 1191.26 309.515C1186.63 284.54 1176.87 261.003 1162.06 239.727C1145.72 216.19 1123.21 195.223 1095.14 177.442C1056.7 153.082 1015.88 140.954 975.176 140.235C929.944 140.235 874.741 150.205 840.406 159.455C814.398 166.547 792.399 179.908 771.017 192.859C751.074 204.987 730.514 217.526 706.048 225.338C695.151 228.832 683.638 230.579 671.61 230.579C639.229 230.579 609.006 218.246 582.278 207.351C568.914 201.904 557.401 197.176 547.737 195.12C503.637 185.561 458.919 180.731 414.818 180.731C358.279 180.731 303.384 188.645 251.471 204.165C198.015 220.199 154.531 241.166 118.655 268.197C80.1049 297.284 49.8821 333.566 26.2383 379.201C9.48206 411.474 9.0708 448.578 8.76233 484.963C8.76233 490.616 8.65967 495.96 8.55688 501.305C7.83728 541.904 3.82812 588.875 -19.4044 629.782C-33.0768 653.832 -53.4309 672.95 -73.3739 691.656C-80.7755 698.542 -88.2799 705.634 -95.373 712.932L-108.737 726.601C-118.503 736.674 -128.577 747.055 -138.446 756.819C-188.406 806.462 -227.058 857.134 -256.459 911.608C-287.813 969.782 -307.961 1030.83 -318.138 1098.46C-330.577 1180.79 -303.644 1256.95 -244.432 1307.42L-244.637 1307.62Z" fill="url(#paint1_linear_713_25534)"/>
<path d="M-321.232 1098.76C-312.186 966.999 -259.244 852.09 -163.847 757.325C-157.268 750.747 -150.586 744.067 -143.801 737.283C-136.502 729.986 -129.101 722.483 -121.596 714.979C-113.989 707.477 -105.868 700.076 -97.7471 692.779C-77.29 674.381 -56.1135 655.264 -42.2356 631.213C-18.2834 589.586 -15.5081 539.429 -15.7136 500.372C-15.7136 494.925 -15.7135 489.58 -15.9192 483.311C-16.4331 447.029 -17.153 405.917 1.24817 371.588C46.9937 286.074 119.159 233.45 228.64 205.802C319.617 182.779 421.285 184.423 519.972 210.53C529.121 212.996 540.12 218.033 552.867 223.891C578.67 235.814 610.641 250.614 644.256 250.614C655.872 250.614 667.077 248.764 677.46 245.167C701.926 236.636 722.486 222.555 742.326 208.988C763.502 194.496 785.399 179.49 812.229 171.164C850.882 159.242 897.964 147.011 944.737 146.6C992.539 146.6 1036.23 159.036 1075.91 184.629C1128.95 218.855 1160.82 265.517 1168.02 319.58C1177.06 387.621 1146.22 449.599 1114.36 485.058C1108.08 491.944 1100.68 500.064 1092.87 507.875C1064.09 536.243 1030.57 560.705 994.903 586.503C960.157 611.787 924.28 637.894 890.768 669.345C794.137 760.203 717.449 803.166 600.977 854.967C408.435 940.687 316.121 1046.86 234.705 1140.49C188.651 1193.43 145.167 1243.48 88.5247 1284.59C55.9374 1308.23 27.7703 1323.03 0.0145264 1331.05C-28.1523 1339.17 -56.5247 1343.28 -84.2804 1343.28C-89.1119 1343.28 -94.0463 1343.18 -98.775 1342.87C-151.717 1340.09 -200.341 1321.9 -239.301 1290.45C-296.56 1244.2 -326.372 1174.51 -321.232 1098.97V1098.76ZM-236.217 1286.44C-197.976 1317.28 -150.38 1335.06 -98.4667 1337.83C-66.8046 1339.48 -33.9091 1335.57 -1.21899 1326.12C26.0227 1318.3 53.6755 1303.71 85.7489 1280.48C141.98 1239.68 185.258 1189.83 231.107 1137.1C312.832 1043.06 405.557 936.473 599.127 850.342C714.981 798.746 791.464 755.989 887.581 665.645C921.299 633.885 957.381 607.676 992.23 582.392C1027.59 556.697 1061.11 532.337 1089.58 504.278C1097.39 496.569 1104.69 488.553 1110.96 481.666C1142.11 447.132 1172.33 386.491 1163.49 320.094C1156.5 267.47 1125.35 222.041 1073.54 188.534C1034.69 163.456 991.819 151.328 945.045 151.328C898.889 151.739 852.218 163.867 813.977 175.687C787.866 183.806 766.278 198.607 745.307 212.893C725.261 226.666 704.496 240.85 679.413 249.689C668.516 253.492 656.797 255.445 644.564 255.445C609.921 255.445 577.334 240.439 551.12 228.311C538.578 222.555 527.784 217.519 518.944 215.155C420.976 189.254 320.233 187.609 229.976 210.427C122.037 237.767 50.6947 289.671 5.6687 373.849C-12.1155 407.15 -11.4987 447.543 -10.9846 483.208C-10.9846 489.478 -10.7792 494.925 -10.7792 500.372C-10.5736 540.046 -13.4521 591.025 -37.9182 633.68C-52.1045 658.347 -73.5892 677.67 -94.5603 696.582C-102.373 703.674 -110.494 710.971 -117.998 718.371C-125.503 725.771 -133.007 733.275 -140.203 740.572C-146.988 747.356 -153.67 754.139 -160.249 760.614C-254.824 854.556 -307.251 968.335 -316.195 1098.97C-321.232 1172.87 -292.037 1241.12 -236.012 1286.34L-236.217 1286.44Z" fill="url(#paint2_linear_713_25534)"/>
<path d="M-76.354 1318.93C-50.6543 1318.93 -24.1321 1315.43 2.49292 1308.65C29.3234 1301.76 55.7426 1289.22 88.0214 1268.15C152.476 1226.01 201.512 1171.95 253.425 1114.7C329.188 1031.04 415.128 936.375 570.971 855.383C677.985 799.778 747.888 750.854 838.043 668.321C876.387 633.17 918.432 606.447 959.037 580.546C991.625 559.784 1022.36 540.256 1049.91 517.438C1057 511.58 1064.61 504.899 1073.76 496.266C1119.3 453.92 1145.62 388.654 1140.68 329.966C1136.16 276.005 1106.35 229.446 1054.54 195.425C1015.78 169.935 974.354 157.602 927.889 157.602C878.34 157.602 830.333 171.785 785.821 187.203C758.785 196.556 737.197 213.103 716.226 229.137C696.386 244.349 675.929 259.972 650.846 269.427C640.155 273.436 628.744 275.492 616.82 275.492C581.868 275.492 548.664 258.43 522.039 244.657C510.114 238.49 499.731 233.146 491.405 230.576C430.753 211.459 369.691 201.797 309.862 201.797C274.705 201.797 240.267 205.189 207.371 211.973C154.533 222.765 110.946 239.826 74.2463 263.98C34.9772 289.881 4.44592 323.285 -19.1979 366.145C-38.7296 401.604 -37.0848 444.361 -35.5428 482.082C-35.3373 488.454 -35.0289 494.004 -34.926 499.555C-33.6925 540.05 -35.6456 591.955 -60.6259 635.02C-75.0177 659.79 -97.3251 679.113 -118.81 697.819C-126.828 704.706 -135.772 712.517 -143.893 720.328C-158.388 734.204 -172.471 748.079 -185.424 761.03C-230.964 806.254 -265.504 858.878 -288.223 917.36C-310.427 974.404 -320.707 1035.76 -319.062 1099.59C-317.315 1166.4 -285.139 1228.17 -230.861 1269.08C-201.049 1291.59 -165.069 1307.11 -126.725 1314.2C-115.109 1316.36 -103.184 1317.69 -91.3627 1318.31C-86.3254 1318.62 -81.2883 1318.72 -76.2512 1318.72L-76.354 1318.93ZM927.786 162.432C973.224 162.432 1013.83 174.56 1051.76 199.536C1102.34 232.735 1131.33 278.061 1135.75 330.479C1140.58 387.729 1114.88 451.453 1070.37 492.771C1061.22 501.302 1053.72 507.983 1046.72 513.738C1019.38 536.35 988.849 555.776 956.467 576.332C915.553 602.336 873.406 629.264 834.65 664.621C744.804 746.846 675.107 795.667 568.607 850.963C411.941 932.366 325.796 1027.44 249.724 1111.31C198.016 1168.35 149.187 1222.21 85.246 1263.94C53.3783 1284.7 27.473 1297.03 1.15649 1303.82C-30.1973 1311.83 -61.2427 1315.12 -91.26 1313.58C-102.979 1312.96 -114.698 1311.63 -126.006 1309.47C-163.63 1302.48 -198.993 1287.27 -228.188 1265.17C-281.232 1225.19 -312.689 1164.75 -314.437 1099.39C-316.184 1036.07 -305.904 975.431 -283.905 919.005C-261.495 861.139 -227.263 809.131 -182.237 764.422C-169.181 751.471 -155.201 737.596 -140.706 723.72C-132.688 716.012 -123.744 708.2 -115.829 701.417C-93.9326 682.402 -71.3168 662.771 -56.6166 637.384C-30.9167 593.188 -29.0667 540.461 -30.1974 499.349C-30.3002 493.799 -30.6086 488.249 -30.8142 482.39C-32.3562 444.772 -34.001 402.632 -15.0859 368.406C8.14661 326.265 38.1639 293.376 76.8164 267.989C113.002 244.143 156.074 227.287 208.296 216.598C240.884 209.917 275.013 206.525 309.862 206.525C369.177 206.525 429.725 216.084 489.966 235.099C497.881 237.565 508.058 242.807 519.777 248.871C546.916 262.849 580.634 280.322 616.82 280.322C629.258 280.322 641.286 278.164 652.594 273.95C678.293 264.288 699.059 248.357 719.207 232.94C739.767 217.215 761.149 200.872 787.466 191.725C831.567 176.513 879.06 162.432 927.992 162.432H927.786Z" fill="url(#paint3_linear_713_25534)"/>
<path d="M-68.4211 1294.79C-44.469 1294.79 -19.7972 1292.01 4.87451 1286.46C30.5743 1280.71 55.9657 1270.02 87.4221 1251.93C162.465 1208.45 218.388 1148.22 277.498 1084.39C344.934 1011.63 421.313 929.297 540.766 855.912C637.5 796.504 703.085 740.283 785.119 667.308C827.781 629.382 875.479 603.173 921.636 577.786C951.756 561.238 980.231 545.615 1006.75 527.217C1014.98 521.565 1023.51 515.192 1032.97 507.689C1056.3 489.394 1077.07 463.596 1091.36 435.228C1106.88 404.394 1114.49 371.607 1113.25 340.464C1111.2 286.607 1083.34 240.252 1032.76 206.437C994.829 181.051 954.326 168.717 909.095 168.717C856.873 168.717 806.09 185.367 759.008 203.251C731.766 213.632 710.384 231.722 689.722 249.194C669.881 265.948 649.424 283.318 623.827 293.596C612.828 298.015 601.109 300.277 588.979 300.277C552.588 300.277 518.356 280.748 490.908 265.023C479.806 258.65 470.246 253.203 462.639 250.428C394.174 225.144 325.71 212.399 258.994 212.399C234.116 212.399 209.547 214.249 185.904 217.846C79.0955 234.291 5.18311 280.954 -39.9457 360.404C-60.6083 396.891 -57.8328 441.292 -55.4684 480.452C-55.0573 486.722 -54.7488 492.58 -54.4403 498.439C-52.2816 540.271 -53.2069 594.025 -79.3179 638.529C-94.3265 664.122 -117.765 683.753 -140.483 702.87C-149.324 710.271 -158.267 717.774 -166.594 725.482C-181.294 739.049 -194.555 751.897 -207.405 764.642C-294.887 851.8 -334.979 974.11 -317.195 1100.43C-309.073 1158.6 -274.739 1212.46 -223.236 1248.23C-183.762 1275.57 -135.857 1291.4 -84.7662 1294.17C-79.5234 1294.48 -74.075 1294.58 -68.5238 1294.58L-68.4211 1294.79ZM909.3 173.65C953.607 173.65 993.184 185.676 1030.29 210.549C1079.54 243.439 1106.67 288.457 1108.63 340.772C1109.76 371.093 1102.36 403.058 1087.25 433.173C1073.26 461.026 1053.01 486.105 1030.19 504.092C1020.73 511.492 1012.3 517.762 1004.18 523.415C977.867 541.71 949.495 557.23 919.477 573.777C873.115 599.267 825.108 625.579 782.035 663.916C700.104 736.685 634.724 792.804 538.299 852.006C418.332 925.803 341.644 1008.34 274.105 1081.21C215.099 1144.83 159.484 1204.85 85.058 1247.92C54.1155 1265.8 29.0323 1276.39 3.94934 1281.94C-20.4139 1287.39 -44.6746 1290.16 -68.3182 1290.16C-73.6638 1290.16 -79.0093 1290.06 -84.252 1289.75C-134.521 1287.08 -181.5 1271.56 -220.255 1244.73C-270.729 1209.79 -304.242 1157.16 -312.157 1100.22C-329.633 975.446 -290.158 854.576 -203.704 768.548C-190.957 755.803 -177.594 743.058 -162.996 729.491C-154.669 721.782 -145.829 714.382 -137.194 707.084C-114.064 687.659 -90.2145 667.617 -74.7947 641.407C-47.9641 595.772 -47.0387 541.093 -49.1975 498.644C-49.5059 492.786 -49.8143 486.927 -50.2256 480.658C-52.59 442.115 -55.3655 398.433 -35.4225 363.282C8.98669 285.168 81.6655 239.225 186.932 223.088C210.267 219.491 234.63 217.641 259.302 217.641C325.402 217.641 393.352 230.385 461.302 255.361C468.498 258.034 477.956 263.378 488.75 269.545C516.814 285.579 551.662 305.416 589.287 305.416C602.034 305.416 614.37 303.052 625.986 298.427C652.2 287.84 673.068 270.265 693.114 253.306C713.468 236.038 734.542 218.257 760.961 208.185C807.632 190.404 857.901 173.959 909.3 173.959V173.65Z" fill="url(#paint4_linear_713_25534)"/>
<path d="M-60.0094 1270.83C-38.1132 1270.83 -15.4972 1268.67 7.32422 1264.36C32.0988 1259.73 56.6675 1250.89 86.7876 1235.68C175.812 1190.97 239.855 1121.49 307.6 1047.8C365.887 984.484 426.23 919.012 510.731 856.418C566.448 815.203 610.96 774.913 658.144 732.361C681.685 711.086 706.049 689.09 732.365 666.479C778.728 626.6 831.669 601.829 882.76 577.881C911.133 564.622 937.963 551.98 963.766 537.077C973.121 531.63 982.475 525.771 992.344 519.193C1018.15 502.029 1041.58 476.539 1058.44 447.452C1076.43 416.309 1086.1 382.905 1086.3 350.838C1086.51 313.425 1073.66 259.876 1011.36 217.531C973.943 192.041 934.365 179.707 890.367 179.707C883.891 179.707 877.209 180.015 870.527 180.529C822.109 184.435 773.588 202.524 732.571 219.586C705.021 230.995 683.947 250.626 663.49 269.641C643.753 288.038 623.296 306.95 597.287 318.05C586.185 322.778 574.363 325.142 562.027 325.142C523.375 325.142 486.779 302.222 460.051 285.469C449.874 279.096 441.033 273.546 434.146 270.668C343.477 232.023 249.107 215.578 164.709 224.211C59.957 234.901 -15.7031 278.891 -60.4207 355.154C-82.3168 392.567 -78.4103 438.613 -75.0179 479.314C-74.5039 485.687 -73.9901 491.751 -73.5789 497.815C-70.4949 541.086 -70.3921 596.587 -97.6338 642.633C-113.259 669.048 -138.034 689.193 -161.986 708.619C-171.135 716.019 -180.387 723.522 -188.919 731.231C-205.367 745.928 -217.703 757.543 -229.011 768.849C-271.981 811.606 -302.512 865.669 -317.315 925.282C-331.81 983.353 -330.987 1044.4 -314.951 1101.86C-299.942 1155.51 -259.851 1203.82 -204.956 1234.55C-167.229 1255.62 -123.025 1268.06 -77.2795 1270.52C-71.6256 1270.83 -65.766 1270.93 -59.9065 1270.93L-60.0094 1270.83ZM890.367 184.538C933.337 184.538 972.093 196.666 1008.69 221.539C1069.24 262.754 1081.78 314.556 1081.57 350.838C1081.37 382.083 1072.01 414.665 1054.43 445.088C1037.99 473.558 1015.06 498.431 989.877 515.185C980.111 521.66 970.756 527.518 961.504 532.863C935.907 547.766 909.18 560.203 880.807 573.462C829.305 597.512 776.158 622.488 729.281 662.779C702.862 685.493 678.499 707.488 654.958 728.764C607.876 771.315 563.364 811.503 507.852 852.615C422.94 915.517 362.494 981.092 304.105 1044.61C236.669 1117.89 172.933 1187.17 84.7318 1231.47C54.92 1246.37 30.865 1255.11 6.50159 1259.73C-21.9738 1265.08 -50.2434 1267.13 -76.9711 1265.69C-121.997 1263.33 -165.378 1251.1 -202.591 1230.34C-256.355 1200.32 -295.625 1153.04 -310.222 1100.63C-326.053 1043.99 -326.875 983.764 -312.586 926.515C-297.886 867.827 -267.869 814.483 -225.516 772.343C-214.208 761.14 -201.975 749.526 -185.63 734.931C-177.2 727.325 -167.948 719.822 -159.005 712.525C-134.641 692.688 -109.456 672.337 -93.4191 645.203C-65.4576 598.129 -65.4576 541.6 -68.6444 497.609C-69.0557 491.545 -69.5695 485.481 -70.0835 479.109C-73.4758 439.127 -77.2795 393.903 -56.1029 357.827C-12.3105 283.002 62.2186 239.731 165.326 229.248C248.902 220.819 342.552 236.956 432.398 275.396C438.977 278.171 447.612 283.619 457.584 289.888C484.825 306.95 522.039 330.281 562.027 330.281C574.98 330.281 587.522 327.712 599.241 322.778C626.071 311.37 646.837 292.047 666.882 273.443C687.031 254.737 707.796 235.517 734.524 224.314C775.233 207.355 823.24 189.471 871.041 185.668C877.518 185.154 884.097 184.846 890.47 184.846L890.367 184.538Z" fill="url(#paint5_linear_713_25534)"/>
<path d="M-50.038 1246.67C-30.5061 1246.67 -10.3575 1245.13 9.68823 1242.15C33.6404 1238.55 58.0038 1231.36 86.1707 1219.43C193.184 1174.21 265.555 1091.27 342.14 1003.49C384.391 955.08 427.977 905.129 480.611 856.822C511.039 828.865 538.383 801.114 564.7 774.288C602.016 736.259 637.276 700.389 679.424 665.443C728.973 624.331 786.746 601.616 842.566 579.621C868.574 569.343 895.507 558.756 920.693 546.628C931.281 541.489 941.664 536.041 951.635 530.388C979.905 514.457 1006.22 489.276 1025.65 459.469C1046.21 428.018 1057.93 393.895 1059.37 360.799C1061.01 323.49 1050.32 270.352 989.671 228.315C945.879 198.097 899.311 186.071 846.061 191.622C797.128 196.658 749.738 215.672 705.843 235.509C677.984 248.049 657.116 269.119 636.968 289.572C617.23 309.512 596.876 330.068 570.354 342.093C558.943 347.232 546.813 349.905 534.169 349.905C494.077 349.905 456.453 324.209 429.005 305.4C419.753 299.028 411.735 293.581 405.464 290.497C317.057 247.226 225.977 226.259 143.327 230.165C93.161 232.529 48.8548 243.526 11.7444 262.643C-27.1136 282.686 -58.3647 311.978 -80.9806 349.494C-104.11 387.831 -99.0731 435.521 -94.7556 477.662V478.278C-94.036 484.856 -93.4189 490.818 -92.9049 496.676C-88.8958 541.386 -87.868 598.738 -116.24 646.12C-132.688 673.563 -158.799 694.119 -184.088 714.058C-193.34 721.356 -202.9 728.859 -211.535 736.362C-224.488 747.565 -238.16 759.693 -250.907 772.438C-293.363 814.784 -321.839 869.155 -333.044 929.385C-344.146 988.69 -336.95 1050.26 -312.895 1102.78C-291.924 1148.62 -250.701 1188.29 -197.04 1214.29C-158.491 1233 -115.829 1243.69 -69.981 1246.05C-63.4019 1246.36 -56.72 1246.57 -50.1409 1246.57L-50.038 1246.67ZM870.733 195.322C912.88 195.322 951.019 207.45 987.101 232.426C1046 273.127 1056.39 324.621 1054.74 360.697C1053.3 392.867 1041.89 426.168 1021.74 456.9C1002.73 485.987 977.027 510.654 949.374 526.277C939.505 531.827 929.122 537.275 918.637 542.311C893.554 554.439 866.723 564.923 840.818 575.201C784.69 597.299 726.608 620.116 676.34 661.743C633.987 696.894 598.624 732.765 561.308 770.794C534.888 797.722 507.647 825.37 477.321 853.224C424.482 901.634 380.793 951.791 338.542 1000.2C262.265 1087.57 190.203 1170.1 84.2175 1214.91C56.359 1226.63 32.5098 1233.82 8.86597 1237.32C-17.6561 1241.33 -43.9727 1242.66 -69.7751 1241.22C-114.904 1238.86 -157.052 1228.27 -194.985 1209.87C-247.618 1184.28 -288.017 1145.53 -308.474 1100.62C-332.118 1049.02 -339.109 988.484 -328.315 930.105C-317.213 870.8 -289.354 817.354 -247.515 775.624C-234.87 762.982 -221.198 750.957 -208.348 739.754C-199.816 732.354 -190.256 724.85 -181.107 717.656C-155.407 697.511 -128.885 676.646 -112.026 648.381C-82.9336 599.766 -83.9614 541.489 -88.0734 496.06C-88.5874 490.098 -89.2045 484.137 -89.924 477.559V476.942C-94.3444 435.624 -99.1757 388.756 -76.8683 351.755C-54.6637 314.959 -24.1326 286.386 13.9031 266.652C50.3967 247.74 94.0862 237.051 143.533 234.687C225.258 230.884 315.721 251.749 403.306 294.608C409.268 297.486 417.081 302.934 426.23 309.101C454.191 328.218 492.535 354.53 534.169 354.53C547.43 354.53 560.28 351.755 572.307 346.307C599.549 333.974 620.314 313.006 640.36 292.758C660.303 272.613 680.863 251.851 707.796 239.723C751.383 220.092 798.362 201.283 846.575 196.247C854.696 195.425 862.714 195.013 870.527 195.013L870.733 195.322Z" fill="url(#paint6_linear_713_25534)"/>
<path d="M-39.2761 1222.84C-22.4171 1222.84 -5.14709 1221.91 11.9175 1220.06C35.5613 1217.49 59.6164 1211.94 85.3162 1203.31C215.151 1159.21 293.998 1057.15 377.368 949.13C400.909 918.604 425.067 887.359 450.458 857.347C463.822 841.518 477.083 825.279 488.802 810.89L489.213 810.376C533.109 756.621 574.536 705.95 626.553 664.632C678.98 623.006 740.865 602.86 800.797 583.332C826.291 575.007 852.505 566.476 877.588 556.403C889.101 551.881 900.307 546.948 910.895 541.808C975.864 510.563 1027.16 438.719 1032.81 370.883C1035.9 333.882 1027.16 281.053 968.051 239.529C923.436 208.181 876.046 196.361 821.665 203.145C772.219 209.311 723.903 230.279 679.186 251.863C651.122 265.43 630.459 288.042 610.516 310.037C590.882 331.621 570.527 353.924 543.594 366.567C532.08 372.014 519.745 374.892 506.895 374.892C464.542 374.892 424.45 345.085 397.928 325.351C389.396 319.082 382.2 313.737 376.751 310.654C290.708 262.758 202.61 237.062 121.913 236.343H118.315C70.3074 236.343 27.4402 245.079 -9.25903 262.244C-48.2198 280.539 -79.3679 308.084 -101.778 344.057C-126.141 383.32 -120.076 432.655 -114.628 476.131V476.954C-113.703 483.737 -112.983 489.698 -112.264 495.762C-107.226 541.808 -105.273 601.01 -134.776 649.831C-151.944 678.302 -179.597 699.475 -206.324 719.825C-215.782 727.02 -225.342 734.318 -234.08 741.718C-247.547 753.024 -260.705 764.227 -272.733 776.252C-314.469 817.879 -341.711 874.203 -349.421 934.741C-357.336 996.821 -343.561 1056.95 -310.666 1104.02C-284.246 1141.74 -241.173 1174.12 -189.363 1195.09C-150.813 1210.71 -108.357 1219.86 -63.1256 1222.22C-55.3129 1222.63 -47.3975 1222.84 -39.4819 1222.84H-39.2761ZM850.655 206.125C892.185 206.125 929.81 218.356 965.481 243.435C1022.64 283.622 1031.17 334.704 1028.19 370.472C1022.74 436.663 972.574 506.966 909.044 537.492C898.559 542.528 887.457 547.359 875.943 551.881C850.963 561.851 824.852 570.382 799.564 578.604C739.015 598.338 676.616 618.586 623.572 660.829C571.247 702.455 529.613 753.332 485.513 807.292L485.101 807.806C473.382 822.195 460.121 838.435 446.757 854.16C421.263 884.378 397.105 915.624 373.77 945.841C290.606 1053.56 212.273 1155 83.7739 1198.68C58.3826 1207.32 34.739 1212.76 11.4037 1215.23C-13.5765 1217.9 -38.7625 1218.73 -62.7146 1217.39C-107.432 1215.03 -149.374 1205.98 -187.307 1190.56C-238.295 1169.9 -280.648 1138.14 -306.451 1101.14C-338.73 1055.1 -352.196 996.101 -344.384 935.255C-336.777 875.744 -310.049 820.551 -269.032 779.644C-257.107 767.721 -244.052 756.621 -230.688 745.418C-221.95 738.12 -212.493 730.926 -203.344 723.937C-175.999 703.072 -148.038 681.694 -130.356 652.401C-100.133 602.347 -102.087 542.117 -107.226 495.249C-107.843 489.185 -108.666 483.12 -109.488 476.337V475.515C-114.936 432.758 -120.899 384.348 -97.3578 346.524C-75.4617 311.27 -45.033 284.342 -6.89453 266.561C29.0851 249.704 71.3354 241.071 118.623 241.071H122.221C201.993 241.79 289.372 267.28 374.695 314.765C379.938 317.643 386.928 322.885 395.152 328.949C422.291 349.197 463.205 379.517 507.1 379.517C520.67 379.517 533.622 376.536 545.856 370.781C573.714 357.625 594.274 335.013 614.32 313.12C634.057 291.536 654.411 269.233 681.55 256.077C725.959 234.596 773.761 213.937 822.59 207.77C832.151 206.536 841.608 205.92 850.757 205.92L850.655 206.125Z" fill="url(#paint7_linear_713_25534)"/>
<path d="M-26.8228 1199.21C-13.2533 1199.21 0.62439 1198.8 14.3994 1197.87C107.432 1191.81 186.382 1155.94 255.669 1088.2C316.731 1028.49 363.197 951.916 408.12 877.914C459.416 793.428 507.732 713.669 573.832 663.718C629.24 621.783 692.667 605.132 759.795 587.351C784.775 580.773 810.166 574.093 834.838 566.076C848.099 561.759 859.818 557.545 870.612 553.125C903.919 539.558 936.095 514.891 960.972 483.748C986.467 451.989 1002.71 415.296 1006.82 380.658C1011.14 343.863 1004.25 291.547 946.889 250.538C901.555 218.161 853.239 206.444 797.831 214.461C747.665 221.862 698.63 244.576 653.09 268.01C624.717 282.605 604.157 306.862 584.42 330.296C564.785 353.421 544.637 377.267 517.292 390.834C505.47 396.692 492.723 399.776 479.668 399.776C435.67 399.776 394.55 366.783 367.411 344.891C359.907 338.929 353.533 333.79 348.702 330.707C301.209 300.797 252.79 277.98 204.989 262.871C158.421 248.174 113.498 240.979 71.4531 241.801C29.4083 242.521 -8.52448 251.051 -41.2145 267.085C-74.8298 283.633 -101.866 307.684 -121.809 338.621C-147.509 378.603 -140.21 429.582 -133.837 474.6C-132.808 481.795 -131.883 488.373 -131.061 494.951C-125.099 542.436 -122.22 603.385 -152.751 653.748C-170.741 683.452 -200.039 705.139 -228.309 726.106C-237.869 733.198 -247.327 740.187 -256.065 747.279C-268.915 757.66 -282.073 768.349 -293.997 780.169C-316.51 802.678 -335.117 831.457 -347.658 863.319C-360.097 894.873 -366.573 928.996 -366.162 961.886C-365.545 1018.83 -344.78 1069.7 -307.67 1105.16C-275.699 1135.79 -231.804 1160.46 -180.713 1176.7C-142.677 1188.83 -101.249 1196.12 -57.5598 1198.39C-47.4856 1198.9 -37.1028 1199.21 -26.6173 1199.21H-26.8228ZM830.315 216.825C871.332 216.825 908.545 229.159 943.908 254.443C999.419 294.117 1006.1 344.685 1001.89 380.145C997.877 413.96 982.046 449.727 957.066 480.767C932.6 511.293 901.246 535.344 868.659 548.603C857.968 552.92 846.352 557.134 833.296 561.348C808.727 569.365 783.439 576.045 758.972 582.418C690.919 600.302 627.081 617.158 570.953 659.709C504.237 710.175 455.613 790.344 404.111 875.241C359.393 949.038 313.031 1025.3 252.379 1084.61C183.915 1151.52 105.993 1186.98 14.0911 1192.84C-10.1695 1194.38 -34.5328 1194.58 -57.5598 1193.35C-100.838 1191.09 -141.855 1183.79 -179.479 1171.87C-229.851 1155.83 -273.129 1131.47 -304.586 1101.36C-340.771 1066.83 -361.022 1017.18 -361.639 961.578C-362.05 929.304 -355.677 895.798 -343.444 864.758C-331.108 833.512 -312.912 805.247 -290.81 783.252C-279.091 771.535 -265.933 760.949 -253.289 750.671C-244.654 743.682 -235.196 736.692 -226.15 729.909C-197.161 708.428 -167.452 686.432 -148.948 655.906C-117.594 604.31 -120.576 542.333 -126.538 494.026C-127.36 487.448 -128.285 480.87 -129.313 473.881C-135.687 429.48 -142.78 379.425 -118.005 340.985C-98.5764 310.767 -72.1571 287.333 -39.3643 271.197C-7.29095 255.471 29.9224 247.043 71.2476 246.426C112.881 245.707 157.187 252.799 203.241 267.291C250.632 282.297 298.639 304.909 345.824 334.612C350.449 337.49 356.72 342.629 364.122 348.488C391.877 370.791 433.717 404.401 479.462 404.401C493.34 404.401 506.704 401.215 519.245 395.048C547.412 381.07 567.972 356.813 587.915 333.276C607.447 310.151 627.698 286.305 655.146 272.122C700.377 248.79 749.001 226.281 798.447 219.086C809.344 217.442 820.138 216.723 830.418 216.723L830.315 216.825Z" fill="url(#paint8_linear_713_25534)"/>
<path d="M-128.177 1511.03C-90.3473 1511.03 -53.0314 1502.6 -17.0516 1485.85C21.6007 1467.86 58.4031 1438.37 92.1212 1398.08C128.101 1355.22 155.137 1308.76 183.715 1259.53C274.075 1104.02 376.36 927.749 812.639 850.149C832.582 846.655 851.805 843.674 870.309 840.796C881.103 839.152 891.691 837.507 902.177 835.76C1099.55 803.692 1151.36 766.588 1173.57 750.76C1286.65 669.871 1354.08 598.335 1386.36 451.667C1415.97 317.229 1341.54 164.188 1216.95 103.239C1073.54 33.0391 925.924 64.6957 909.579 68.4986C832.274 86.588 798.864 82.8879 760.006 78.6739C746.539 77.235 732.559 75.6932 715.7 74.871C607.247 69.5264 493.551 99.2301 378.005 163.16C319.615 195.433 275.514 227.912 239.226 265.427C200.163 305.717 169.323 353.1 145.165 410.143C134.269 435.838 128.409 463.281 122.858 489.798L122.55 491.032C121.419 496.171 120.288 501.516 119.157 506.757C112.064 539.133 103.326 573.565 86.8783 605.325C74.5425 629.17 57.4778 650.445 41.03 670.899L35.6842 677.58C19.2365 698.136 3.71387 715.609 -11.7059 730.82C-39.9757 758.777 -70.1986 784.78 -99.4963 809.962C-183.277 882.114 -269.937 956.733 -335.112 1093.33C-367.391 1161.06 -380.035 1229.82 -371.708 1292.31C-364.101 1349.25 -339.635 1399.93 -300.88 1438.98C-265.62 1474.54 -221.005 1498.08 -171.764 1507.02C-161.69 1508.87 -151.307 1510 -141.13 1510.62C-136.812 1510.83 -132.495 1510.93 -128.177 1510.93V1511.03ZM1012.07 62.9484C1068.92 62.9484 1142.42 72.0959 1214.89 107.658C1337.53 167.682 1410.83 318.36 1381.73 450.742C1349.76 595.869 1282.94 666.788 1170.89 746.957C1149 762.58 1097.8 799.273 901.56 831.135C891.075 832.882 880.486 834.424 869.692 836.171C851.086 839.049 831.862 842.029 811.919 845.524C373.482 923.535 270.477 1100.73 179.706 1257.16C151.23 1306.29 124.297 1352.54 88.6257 1395.09C55.3188 1434.77 19.1337 1463.86 -18.902 1481.53C-58.274 1499.83 -99.4965 1508.15 -140.719 1505.89C-150.793 1505.38 -160.867 1504.15 -170.736 1502.4C-218.949 1493.66 -262.741 1470.64 -297.281 1435.8C-335.214 1397.46 -359.269 1347.71 -366.671 1291.8C-374.895 1230.34 -362.456 1162.4 -330.486 1095.59C-265.722 959.817 -179.474 885.609 -96.1041 813.765C-66.8064 788.583 -36.4805 762.477 -8.10791 734.418C7.41479 719.103 23.0402 701.528 39.6936 680.766L45.0389 674.188C61.7952 653.426 78.9626 631.945 91.504 607.688C108.26 575.312 117.101 540.572 124.194 507.888C125.325 502.749 126.456 497.404 127.587 492.163L127.895 490.929C133.446 464.617 139.203 437.483 149.997 412.199C173.949 355.669 204.48 308.801 243.133 268.922C279.112 231.818 322.905 199.545 380.883 167.477C495.607 103.958 608.48 74.4599 716.008 79.8045C732.661 80.6267 746.539 82.1685 760.006 83.6074C799.172 87.9242 833.096 91.6243 911.12 73.3293C919.036 71.4792 958.1 63.0512 1012.48 63.0512L1012.07 62.9484Z" fill="url(#paint9_linear_713_25534)"/>
<path d="M-144.943 1583.5C-128.083 1583.5 -111.224 1581.75 -94.5708 1578.36C-22.9199 1563.66 42.1519 1518.54 93.6542 1447.73C127.269 1401.58 151.735 1352.04 177.744 1299.72C271.599 1110.3 368.641 914.292 903.607 849.026C948.633 843.578 989.856 840.495 1029.84 837.514C1173.76 823.947 1414.52 801.13 1485.86 518.893C1506.32 437.901 1547.54 164.298 1218.07 41.2685C1077.23 -12.075 934.139 -3.54412 800.397 13.6203C652.161 32.6349 566.838 71.3834 442.348 145.694C388.07 178.173 344.175 215.38 300.28 266.359C260.702 312.2 230.171 364.926 206.836 427.52C201.079 442.835 195.528 458.663 190.079 473.874L189.874 474.491C166.847 539.243 143.1 606.154 103.009 662.375C54.5906 730.313 -7.60303 774.098 -73.6 820.453C-118.523 852.109 -164.885 884.794 -210.425 927.242C-262.133 975.447 -304.898 1029.41 -341.083 1092.21C-394.847 1185.33 -414.687 1279.47 -398.547 1364.37C-384.258 1439.5 -342.625 1502.82 -281.254 1542.7C-244.143 1566.85 -201.482 1580.72 -157.998 1583.09C-153.68 1583.29 -149.26 1583.4 -144.943 1583.4V1583.5ZM976.389 5.39784C1055.75 5.39784 1136.45 15.5732 1216.32 45.8936C1541.99 167.484 1501.28 437.798 1481.13 517.762C1450.6 638.427 1388.2 721.372 1290.23 771.323C1208.51 812.95 1116.61 824.564 1029.43 832.786C989.444 835.767 948.016 838.85 902.99 844.298C365.455 909.872 267.796 1107.01 173.426 1297.67C147.521 1349.88 123.157 1399.21 89.7478 1445.05C38.9651 1514.84 -25.0786 1559.35 -95.4958 1573.74C-116.056 1577.95 -137.027 1579.49 -157.689 1578.46C-200.351 1576.2 -242.19 1562.53 -278.581 1538.89C-338.719 1499.84 -379.632 1437.55 -393.716 1363.75C-409.65 1279.99 -390.015 1187.07 -336.868 1094.88C-300.888 1032.49 -258.432 978.941 -207.033 931.045C-161.698 888.802 -115.542 856.22 -70.7217 824.769C-4.41626 778.107 58.1885 734.014 107.121 665.459C147.624 608.621 171.473 541.402 194.603 476.341L194.808 475.622C200.257 460.41 205.808 444.685 211.564 429.37C234.694 367.29 265.02 315.078 304.186 269.648C347.773 219.08 391.257 182.181 445.124 150.011C568.996 76.0085 653.909 37.4656 801.322 18.5538C858.376 11.2564 917.177 5.50062 976.697 5.50062L976.389 5.39784Z" fill="url(#paint10_linear_713_25534)"/>
<path d="M-384.861 1210.08C-376.021 1171.13 -360.601 1131.46 -339.116 1092.09C-263.661 954.158 -172.479 885.398 -84.1742 818.898C-43.0546 787.858 -4.09351 758.566 31.6805 723.312C49.3619 705.839 65.3986 687.441 80.51 666.988C99.2195 641.806 112.892 619.914 123.788 597.919C138.489 568.009 149.282 535.942 157.815 508.396C159.768 502.024 161.721 495.549 163.674 489.279L164.291 487.326C170.973 465.434 177.861 442.925 186.29 421.135C210.037 360.391 240.671 309.412 280.043 265.422C316.331 224.823 361.048 188.439 420.877 150.923C531.078 81.7517 654.437 40.1253 777.693 30.7723C787.767 29.7444 800.411 29.95 816.242 30.2584C840.914 30.7723 872.165 31.2862 909.584 27.3805C964.273 21.7275 1047.54 13.0939 1157.43 42.2838C1431.39 114.847 1461 323.082 1464.18 364.092C1472.41 460.295 1436.53 727.115 1175.22 805.331C1136.77 818.898 1046.62 828.765 967.049 837.502C930.966 841.407 896.94 845.21 873.296 848.705C370.917 918.39 273.566 1105.25 179.3 1286.04C152.572 1337.22 127.386 1385.63 93.1542 1430.55C59.2305 1475.16 20.4755 1508.66 -21.9806 1530.04C-59.605 1548.95 -99.0798 1558.61 -139.274 1558.61C-143.592 1558.61 -147.909 1558.51 -152.33 1558.31C-162.507 1557.79 -172.787 1556.56 -182.861 1554.81C-234.569 1545.56 -281.548 1520.38 -318.659 1482.04C-361.115 1438.15 -386.711 1381.01 -392.674 1316.87C-395.86 1282.44 -393.291 1246.47 -384.964 1209.98L-384.861 1210.08ZM-387.74 1316.56C-381.88 1379.57 -356.797 1435.69 -315.061 1478.75C-278.67 1516.37 -232.719 1541.04 -181.936 1550.08C-172.067 1551.83 -161.993 1553.06 -152.021 1553.58C-108.332 1555.94 -65.0536 1546.49 -24.1395 1525.83C17.5968 1504.65 55.8381 1471.66 89.3506 1427.67C123.274 1383.06 148.46 1334.86 175.085 1283.78C269.866 1101.96 367.833 913.971 872.679 843.977C896.323 840.38 930.452 836.68 966.535 832.774C1045.79 824.14 1135.64 814.273 1173.67 800.809C1432.01 723.415 1467.47 459.678 1459.35 364.503C1456.27 324.11 1426.97 118.65 1156.2 47.0117C1047.13 18.1302 964.376 26.661 910.098 32.314C872.371 36.2197 840.914 35.7058 816.14 35.1918C800.411 34.8835 787.973 34.6779 778.104 35.603C655.67 44.9561 533.031 86.2741 423.447 155.035C364.03 192.344 319.62 228.523 283.641 268.711C244.68 312.29 214.354 362.755 190.813 422.985C182.384 444.569 175.496 467.078 168.814 489.073L168.3 490.821C166.347 497.193 164.394 503.668 162.441 509.938C153.806 537.586 143.012 569.962 128.106 600.18C117.107 622.381 103.229 644.581 84.4165 669.968C69.0994 690.627 52.9598 709.231 35.0728 726.909C-0.90686 762.471 -39.9706 791.867 -81.2958 822.907C-169.189 889.098 -259.96 957.447 -334.901 1094.56C-356.18 1133.51 -371.394 1172.77 -380.235 1211.32C-388.459 1247.29 -390.926 1282.75 -387.842 1316.67L-387.74 1316.56Z" fill="url(#paint11_linear_713_25534)"/>
<path d="M-337.093 1092.84C-266.984 956.242 -178.577 885.117 -93.1515 816.151C-56.8634 786.961 -22.6313 759.313 9.95593 727.143C26.5066 710.8 42.2347 692.917 58.0658 672.36C75.6444 649.543 92.5034 627.034 105.353 601.647C120.876 570.915 130.436 538.231 138.557 507.602C140.099 501.744 141.641 495.782 143.183 489.615C149.454 465.153 155.93 439.767 165.799 415.716C211.75 302.965 279.495 228.037 399.564 157.118C516.858 87.7411 643.095 51.151 754.94 53.8233C764.603 54.0288 773.341 54.44 781.565 54.7483C815.694 56.1872 842.628 57.2151 907.391 48.4787C1038.56 33.0615 1100.04 47.0397 1125.02 52.6927C1306.76 95.4496 1416.04 209.845 1426.42 368.539C1432.49 505.958 1377.49 628.164 1262.56 726.32C1214.25 767.33 1176.93 784.7 1132.42 799.603C1086.88 814.712 1024.07 826.84 945.529 835.68C911.914 839.38 878.402 843.902 843.142 849.452C373.761 923.249 271.579 1108.97 181.425 1273.01C153.875 1323.17 127.866 1370.45 92.8119 1414.23C58.991 1456.58 21.2637 1488.13 -19.3419 1507.87C-56.1439 1525.65 -94.4878 1534.69 -133.551 1534.69C-137.869 1534.69 -142.186 1534.59 -146.607 1534.39C-156.887 1533.87 -167.27 1532.64 -177.344 1530.79C-227.818 1521.64 -273.667 1497.28 -309.749 1460.28C-350.252 1418.86 -375.232 1364.9 -381.914 1304.46C-389.315 1237.76 -373.793 1164.58 -336.888 1092.74L-337.093 1092.84ZM-377.288 1304.05C-370.708 1363.46 -346.14 1416.39 -306.459 1456.99C-270.994 1493.27 -226.173 1517.12 -176.624 1526.16C-166.653 1527.91 -156.578 1529.14 -146.401 1529.66C-103.945 1531.92 -61.6951 1523.08 -21.6035 1503.65C18.3854 1484.23 55.4957 1453.09 88.9054 1411.36C123.651 1367.88 149.557 1320.7 177.107 1270.65C267.776 1105.79 370.575 918.829 842.319 844.724C877.682 839.174 911.297 834.652 945.015 830.849C1023.14 822.112 1085.75 810.087 1130.88 794.978C1174.87 780.28 1211.68 763.116 1259.37 722.62C1373.07 625.492 1427.55 504.519 1421.59 368.745C1411.21 212.517 1303.37 99.5609 1123.99 57.4206C1107.85 53.7205 1074.23 46.1147 1018.41 46.1147C989.116 46.1147 952.828 48.0675 908.008 53.3094C842.833 62.1486 815.797 61.018 781.359 59.579C773.136 59.2707 764.5 58.8596 754.837 58.654C643.814 55.9817 518.605 92.3662 402.031 161.23C282.99 231.635 215.862 305.843 170.322 417.463C160.659 441.205 154.183 466.387 147.912 490.746C146.37 496.913 144.828 502.977 143.286 508.733C135.165 539.67 125.502 572.56 109.774 603.702C96.8213 629.398 79.7565 652.112 62.0751 675.135C46.0385 695.794 30.2074 713.884 13.554 730.432C-19.2389 762.808 -53.5739 790.456 -89.9647 819.748C-175.082 888.303 -262.975 959.12 -332.673 1094.79C-369.167 1165.81 -384.484 1238.07 -377.185 1303.85L-377.288 1304.05Z" fill="url(#paint12_linear_713_25534)"/>
<path d="M-333.169 1094.16C-272.517 955.094 -186.063 875.953 -102.488 799.484L-101.974 799.072C-79.3578 778.413 -56.0223 757.035 -33.5094 734.731C-19.1176 720.445 -4.21191 704 13.1611 683.032C16.1422 679.332 19.3291 675.735 22.5159 671.829L23.6467 670.493C39.7863 651.376 56.5424 631.642 68.467 609.03C85.7372 576.243 93.7555 540.064 99.9235 505.838C100.849 500.699 101.671 495.56 102.596 490.318C107.428 461.745 112.465 432.144 124.595 404.598C148.958 349.405 179.798 303.77 218.759 265.33C255.15 229.459 298.942 198.933 356.715 169.229C456.739 117.839 568.07 90.6019 678.785 90.6019C695.746 90.3963 714.25 93.1714 733.782 95.9465C770.687 101.188 823.526 104.58 867.523 93.7881C902.886 85.1545 973.201 68.0928 1057.6 74.3625C1187.33 89.2657 1259.6 149.29 1297.43 197.083C1352.12 266.152 1365.07 345.396 1359.01 396.479C1342.35 539.139 1252.3 668.026 1105.4 759.399C1025.94 808.837 860.225 836.176 858.58 836.485C834.216 840.904 809.031 845.427 782.303 850.874C379.537 931.968 277.149 1098.58 186.686 1245.66C156.874 1294.17 128.707 1339.91 91.4939 1381.94C57.7758 1419.87 22.1046 1447.42 -14.8003 1463.76C-49.8547 1479.28 -86.1426 1487.19 -122.636 1487.19C-126.954 1487.19 -131.374 1487.09 -135.692 1486.88C-146.074 1486.37 -156.354 1485.14 -166.531 1483.29C-214.436 1474.55 -257.92 1451.94 -292.357 1417.71C-329.159 1381.12 -353.214 1333.53 -361.644 1280.19C-370.999 1221.19 -361.541 1158.6 -333.374 1094.16H-333.169ZM-356.607 1279.37C-348.28 1331.68 -324.842 1378.35 -288.656 1414.22C-255.041 1447.62 -212.38 1469.82 -165.401 1478.46C-155.532 1480.31 -145.355 1481.44 -135.178 1481.95C-95.189 1484.11 -54.9946 1476.4 -16.4451 1459.24C19.7402 1443.2 55.0005 1416.07 88.2045 1378.55C125.109 1336.93 153.173 1291.29 182.882 1242.98C273.757 1095.08 376.761 927.549 781.584 846.043C808.311 840.699 833.6 836.074 857.963 831.654C859.608 831.346 1024.39 804.109 1103.04 755.288C1248.7 664.737 1337.93 537.083 1354.38 395.965C1360.34 345.807 1347.49 268.002 1293.83 200.167C1240.38 132.639 1158.65 90.8075 1057.29 79.1932C1043.21 78.1654 1029.84 77.6515 1017.1 77.6515C954.594 77.6515 897.849 91.3214 868.757 98.516C823.937 109.514 770.481 106.122 733.165 100.777C713.736 98.0021 695.232 95.5354 678.887 95.5354C568.995 95.5354 458.384 122.567 358.977 173.546C301.718 202.942 258.234 233.262 222.254 268.824C183.705 306.853 153.173 351.974 129.118 406.654C117.296 433.583 112.259 462.875 107.428 491.243C106.503 496.485 105.68 501.727 104.755 506.866C98.587 541.503 90.3633 578.093 72.7847 611.394C60.6544 634.417 43.7953 654.459 27.4503 673.679L26.3193 675.016C23.0298 678.818 19.9458 682.519 16.9646 686.219C-0.51123 707.392 -15.5197 723.837 -30.0143 738.226C-52.63 760.632 -75.9656 782.011 -98.5813 802.67L-99.0952 803.081C-182.362 879.242 -268.405 957.972 -328.646 1096.11C-356.401 1159.73 -365.756 1221.4 -356.504 1279.47L-356.607 1279.37Z" fill="url(#paint13_linear_713_25534)"/>
<path d="M-327.202 1096.33C-307.053 1025.72 -276.625 961.786 -234.169 901.042C-192.638 841.634 -142.37 789.422 -98.6799 746.048C-83.5685 731.042 -69.2792 715.522 -54.1677 699.077C-47.9999 692.396 -41.5236 685.818 -35.2528 679.343C-17.5714 661.356 0.726929 642.65 13.0629 620.244C33.5199 583.345 39.1736 540.383 42.0519 503.279C42.3604 498.757 42.6688 494.029 43.08 489.403V487.656C45.4443 454.047 47.7059 419.41 63.0231 388.164C87.2836 338.418 118.123 298.128 157.084 265.032C193.167 234.403 237.576 209.119 292.676 187.535C364.944 159.373 441.837 145.087 521.301 145.087C549.468 145.087 577.84 146.937 605.802 150.637C617.624 152.179 635.614 157.626 650.211 162.046C690.714 174.379 729.983 186.405 784.569 164.512C789.915 162.354 796.494 159.168 803.998 155.468C839.875 137.892 899.91 108.497 992.84 111.58C1132.65 114.047 1217.15 198.738 1247.16 270.582C1275.64 343.557 1259.09 429.071 1200.7 511.399C1181.99 537.711 1117.95 614.591 1047.43 680.885C980.607 743.787 866.808 802.475 742.936 837.729L691.536 852.94C391.466 941.127 290.62 1078.44 201.699 1199.62C166.542 1247.62 133.235 1292.84 90.0592 1333.13C56.5468 1364.38 24.679 1385.35 -7.39441 1397.27C-39.4677 1409.19 -72.1576 1415.26 -104.642 1415.26C-109.165 1415.26 -113.586 1415.15 -118.109 1414.95C-128.697 1414.43 -139.285 1413.1 -149.668 1411.25C-193.563 1403.13 -233.655 1383.29 -265.625 1353.79C-297.39 1324.4 -320.109 1286.37 -331.314 1243.71C-343.444 1197.57 -342.108 1148.03 -327.408 1096.53L-327.202 1096.33ZM-326.482 1242.38C-315.483 1284.11 -293.278 1321.42 -262.233 1350.2C-230.982 1379.08 -191.713 1398.61 -148.64 1406.52C-138.566 1408.37 -128.183 1409.6 -117.698 1410.12C-81.615 1412.07 -44.7103 1406.11 -8.93628 1392.75C22.5203 1381.03 53.874 1360.37 86.8724 1329.54C129.74 1289.55 162.841 1244.43 197.998 1196.64C287.433 1074.84 388.69 936.81 690.405 848.212L741.805 833.001C864.958 797.952 978.037 739.778 1044.34 677.287C1120.11 605.854 1182.71 528.563 1196.9 508.521C1254.36 427.529 1270.6 343.557 1242.74 272.227C1213.34 201.822 1130.28 118.775 992.84 116.308C988.317 116.102 983.794 116.102 979.373 116.102C895.386 116.102 839.978 143.237 806.26 159.682C798.653 163.382 792.074 166.671 786.522 168.829C730.394 191.338 690.405 179.21 648.977 166.568C634.585 162.251 616.698 156.804 605.288 155.365C577.532 151.767 549.262 149.917 521.404 149.917C442.557 149.917 366.177 164.101 294.526 192.058C239.94 213.333 195.942 238.412 160.271 268.732C121.721 301.417 91.3955 341.193 67.4434 390.322C52.6403 420.746 50.3789 454.972 48.1173 488.067V489.815C47.7062 494.44 47.3976 499.168 46.9865 503.69C44.108 541.308 38.3512 584.887 17.3802 622.608C4.63318 645.631 -13.8706 664.44 -31.7577 682.735C-38.0284 689.107 -44.5046 695.685 -50.5697 702.366C-65.6812 718.914 -79.9702 734.434 -95.1844 749.543C-138.771 792.711 -188.835 844.821 -230.057 903.817C-272.205 964.15 -302.427 1027.57 -322.473 1097.66C-336.968 1148.33 -338.202 1197.05 -326.38 1242.38H-326.482Z" fill="url(#paint14_linear_713_25534)"/>
<path d="M-331.112 1094.86C-274.367 949.939 -189.25 867.92 -99.0948 781.173L-98.0668 780.248C-83.9833 766.681 -69.4889 752.702 -55.1998 738.519C-38.1351 721.663 -22.4069 703.676 -9.24866 688.361C-5.03381 683.428 -0.613403 678.392 3.70422 673.561L4.73218 672.43C21.1801 654.033 38.1416 634.915 50.0663 612.714C68.3645 578.694 75.5605 540.768 80.7006 505C81.3173 500.477 81.9341 495.852 82.6537 490.713V489.583C86.8685 459.262 90.9803 427.914 104.139 399.135C150.809 296.971 219.993 230.06 335.436 175.278C415.106 137.557 507.728 116.693 626.872 109.601C639.824 108.778 674.879 108.367 709.214 117.515C764.622 134.371 809.031 127.279 835.554 118.234C986.257 66.5353 1077.85 90.2778 1107.87 97.9863C1109.2 98.2947 1241.82 135.09 1300.41 245.786C1333.82 308.893 1335.67 382.896 1305.86 465.635C1277.79 549.504 1143.03 740.06 958.398 800.496C892.504 822.696 754.651 851.064 752.081 851.578C383.135 935.653 280.85 1092.6 190.695 1231.15C159.444 1279.15 129.941 1324.47 91.1859 1365.69C57.2622 1401.87 23.4415 1426.64 -12.127 1441.64C-46.2562 1456.03 -81.4136 1463.33 -116.571 1463.33C-120.991 1463.33 -125.309 1463.23 -129.729 1463.02C-140.112 1462.51 -150.495 1461.28 -160.672 1459.43C-207.24 1450.89 -249.593 1429.11 -283.105 1396.52C-318.159 1362.3 -341.701 1317.9 -351.055 1268.15C-361.335 1213.47 -354.653 1155.19 -331.112 1095.07V1094.86ZM-346.327 1267.02C-337.177 1315.84 -314.151 1359.32 -279.816 1392.82C-247.023 1424.79 -205.492 1446.17 -159.849 1454.49C-149.878 1456.34 -139.598 1457.47 -129.524 1458.09C-90.7683 1460.15 -51.7045 1453.05 -13.9773 1437.12C20.9744 1422.42 54.1783 1397.96 87.6908 1362.3C126.138 1321.39 155.538 1276.27 186.686 1228.48C277.355 1089.21 380.154 931.336 751.156 846.85C752.595 846.542 890.962 818.071 956.959 795.87C1139.94 736.052 1273.58 547.243 1301.44 464.093C1330.74 382.69 1328.99 310.024 1296.3 248.15C1238.73 139.304 1108.18 103.125 1106.84 102.817C1091.52 98.9114 1060.27 90.7917 1013.19 90.7917C968.576 90.7917 909.877 98.0891 837.301 122.962C810.059 132.315 764.725 139.51 707.98 122.345C674.365 113.404 640.03 113.917 627.283 114.637C508.755 121.626 416.75 142.388 337.595 179.8C223.283 233.966 154.716 300.26 108.662 401.294C95.812 429.456 91.7 460.393 87.6908 490.405L87.4852 492.049C86.8685 496.675 86.2518 501.3 85.635 505.822C80.495 542.104 73.0935 580.441 54.4869 615.181C42.3566 637.896 25.1892 657.116 8.53577 675.822L7.50769 676.953C3.19006 681.783 -1.12756 686.717 -5.44507 691.65C-18.7062 707.068 -34.5372 725.054 -51.7046 742.013C-66.0966 756.197 -80.5911 770.278 -94.6746 783.742L-95.7026 784.667C-185.446 871.106 -270.255 952.715 -326.589 1096.71C-349.822 1156.02 -356.401 1213.37 -346.327 1267.12V1267.02Z" fill="url(#paint15_linear_713_25534)"/>
<path d="M-329.154 1095.59C-275.699 939.05 -182.871 847.164 -84.6981 749.933L-76.8854 742.225C-60.7458 726.293 -45.7373 709.437 -31.6538 693.609C-26.2054 687.442 -20.5515 681.378 -15.0004 675.417C1.96143 657.327 19.54 638.518 31.5676 616.318C50.8938 580.755 57.4729 539.54 61.3792 503.978C61.8932 499.044 62.4071 494.008 62.9211 488.561C66.1079 456.596 69.2947 423.603 83.481 393.488C107.844 341.892 138.684 299.854 177.645 265.012C213.625 232.738 258.239 205.398 313.956 181.348C413.055 138.488 525.825 120.604 634.484 130.574C647.231 131.704 661.828 135.302 677.351 139.207C700.481 144.963 726.694 151.438 753.011 151.438C764.319 151.438 774.701 150.308 784.776 147.944C806.261 143.01 825.587 135.61 844.502 128.415C867.221 119.782 894.257 110.326 922.012 105.804C930.853 104.365 976.804 97.2727 1011.65 100.664C1146.73 109.504 1214.58 167.061 1247.58 213.724C1296.41 282.69 1297.64 364.607 1282.63 418.156C1255.08 516.003 1208.51 568.01 1167.19 614.159C1124.83 661.747 1064.7 715.501 1023.27 741.402C978.346 773.264 890.556 807.182 769.356 839.661C766.683 840.38 764.833 840.894 763.702 841.203C754.964 843.361 747.357 845.417 739.236 847.575C733.787 849.014 728.133 850.453 721.76 852.098C386.944 938.639 285.276 1085.82 195.429 1215.74C162.431 1263.53 131.18 1308.65 90.5741 1349.25C56.7532 1382.96 23.9606 1405.88 -9.75757 1419.35C-42.8588 1432.5 -76.7826 1439.18 -110.706 1439.18C-115.127 1439.18 -119.547 1439.08 -123.967 1438.88C-134.453 1438.36 -145.041 1437.13 -155.218 1435.18C-200.45 1426.85 -241.672 1405.99 -274.362 1374.95C-307.772 1343.19 -330.799 1301.97 -341.079 1255.72C-352.284 1205.25 -348.275 1151.4 -329.257 1095.59H-329.154ZM-336.247 1254.69C-326.173 1299.92 -303.557 1340.31 -270.867 1371.45C-238.794 1401.98 -198.497 1422.33 -154.087 1430.45C-144.116 1432.3 -133.836 1433.53 -123.453 1434.04C-86.0344 1436.1 -47.999 1429.52 -11.2998 1414.93C21.8015 1401.77 54.1832 1379.16 87.3873 1345.96C127.787 1305.67 158.833 1260.65 191.728 1213.07C281.986 1082.53 384.271 934.528 720.835 847.575C727.208 845.931 732.76 844.492 738.208 843.053C746.226 840.894 753.936 838.942 762.571 836.68C763.599 836.372 765.552 835.858 768.225 835.139C887.164 803.276 976.804 768.639 1020.7 737.497C1061.82 711.698 1121.55 658.355 1163.69 611.076C1204.61 565.338 1250.87 513.742 1278.01 416.922C1292.81 364.401 1291.47 284.129 1243.67 216.602C1197.1 150.822 1116.82 112.382 1011.24 105.495C1004.77 104.879 997.981 104.57 991.093 104.57C961.179 104.57 929.928 109.401 922.835 110.531C895.49 115.054 868.763 124.407 846.147 132.938C827.232 140.132 807.7 147.533 785.907 152.569C775.524 155.036 764.73 156.166 753.114 156.166C726.18 156.166 699.658 149.588 676.22 143.833C660.903 140.03 646.511 136.432 634.175 135.302C526.442 125.435 414.494 143.216 316.012 185.767C260.809 209.613 216.606 236.747 181.037 268.609C142.488 303.041 112.059 344.667 88.0042 395.544C74.229 424.836 70.9396 457.418 67.8556 489.177C67.3416 494.419 66.8276 499.455 66.3137 504.389C62.4073 540.465 55.7252 582.297 35.9878 618.579C23.652 641.293 5.86768 660.308 -11.2998 678.603C-16.851 684.461 -22.5049 690.526 -27.9532 696.693C-42.0366 712.521 -57.1479 729.377 -73.3901 745.514L-81.203 753.222C-179.068 850.042 -271.381 941.517 -324.528 1097.03C-343.34 1152.01 -347.247 1205.05 -336.247 1254.59V1254.69Z" fill="url(#paint16_linear_713_25534)"/>
</g>
<defs>
<linearGradient id="paint0_linear_713_25534" x1="1164.21" y1="-145.181" x2="-334.026" y2="1402.96" gradientUnits="userSpaceOnUse">
<stop stop-color="#AFB388"/>
<stop offset="0.31" stop-color="#41929E"/>
<stop offset="0.49" stop-color="#27758D"/>
<stop offset="0.68" stop-color="#115C7E"/>
<stop offset="0.86" stop-color="#044D76"/>
<stop offset="1" stop-color="#004873"/>
</linearGradient>
<linearGradient id="paint1_linear_713_25534" x1="1148.29" y1="-160.606" x2="-349.943" y2="1387.54" gradientUnits="userSpaceOnUse">
<stop stop-color="#AFB388"/>
<stop offset="0.31" stop-color="#41929E"/>
<stop offset="0.49" stop-color="#27758D"/>
<stop offset="0.68" stop-color="#115C7E"/>
<stop offset="0.86" stop-color="#044D76"/>
<stop offset="1" stop-color="#004873"/>
</linearGradient>
<linearGradient id="paint2_linear_713_25534" x1="1133.48" y1="-175.003" x2="-364.859" y2="1373.14" gradientUnits="userSpaceOnUse">
<stop stop-color="#AFB388"/>
<stop offset="0.31" stop-color="#41929E"/>
<stop offset="0.49" stop-color="#27758D"/>
<stop offset="0.68" stop-color="#115C7E"/>
<stop offset="0.86" stop-color="#044D76"/>
<stop offset="1" stop-color="#004873"/>
</linearGradient>
<linearGradient id="paint3_linear_713_25534" x1="1119.71" y1="-188.257" x2="-378.521" y2="1359.89" gradientUnits="userSpaceOnUse">
<stop stop-color="#AFB388"/>
<stop offset="0.31" stop-color="#41929E"/>
<stop offset="0.49" stop-color="#27758D"/>
<stop offset="0.68" stop-color="#115C7E"/>
<stop offset="0.86" stop-color="#044D76"/>
<stop offset="1" stop-color="#004873"/>
</linearGradient>
<linearGradient id="paint4_linear_713_25534" x1="1106.57" y1="-200.987" x2="-391.661" y2="1347.16" gradientUnits="userSpaceOnUse">
<stop stop-color="#AFB388"/>
<stop offset="0.31" stop-color="#41929E"/>
<stop offset="0.49" stop-color="#27758D"/>
<stop offset="0.68" stop-color="#115C7E"/>
<stop offset="0.86" stop-color="#044D76"/>
<stop offset="1" stop-color="#004873"/>
</linearGradient>
<linearGradient id="paint5_linear_713_25534" x1="1093.7" y1="-213.431" x2="-404.529" y2="1334.71" gradientUnits="userSpaceOnUse">
<stop stop-color="#AFB388"/>
<stop offset="0.31" stop-color="#41929E"/>
<stop offset="0.49" stop-color="#27758D"/>
<stop offset="0.68" stop-color="#115C7E"/>
<stop offset="0.86" stop-color="#044D76"/>
<stop offset="1" stop-color="#004873"/>
</linearGradient>
<linearGradient id="paint6_linear_713_25534" x1="1081.16" y1="-225.567" x2="-417.071" y2="1322.58" gradientUnits="userSpaceOnUse">
<stop stop-color="#AFB388"/>
<stop offset="0.31" stop-color="#41929E"/>
<stop offset="0.49" stop-color="#27758D"/>
<stop offset="0.68" stop-color="#115C7E"/>
<stop offset="0.86" stop-color="#044D76"/>
<stop offset="1" stop-color="#004873"/>
</linearGradient>
<linearGradient id="paint7_linear_713_25534" x1="1068.79" y1="-237.478" x2="-429.439" y2="1310.67" gradientUnits="userSpaceOnUse">
<stop stop-color="#AFB388"/>
<stop offset="0.31" stop-color="#41929E"/>
<stop offset="0.49" stop-color="#27758D"/>
<stop offset="0.68" stop-color="#115C7E"/>
<stop offset="0.86" stop-color="#044D76"/>
<stop offset="1" stop-color="#004873"/>
</linearGradient>
<linearGradient id="paint8_linear_713_25534" x1="1056.78" y1="-249.184" x2="-441.554" y2="1298.96" gradientUnits="userSpaceOnUse">
<stop stop-color="#AFB388"/>
<stop offset="0.31" stop-color="#41929E"/>
<stop offset="0.49" stop-color="#27758D"/>
<stop offset="0.68" stop-color="#115C7E"/>
<stop offset="0.86" stop-color="#044D76"/>
<stop offset="1" stop-color="#004873"/>
</linearGradient>
<linearGradient id="paint9_linear_713_25534" x1="1259.61" y1="-52.886" x2="-238.623" y2="1495.26" gradientUnits="userSpaceOnUse">
<stop stop-color="#AFB388"/>
<stop offset="0.31" stop-color="#41929E"/>
<stop offset="0.49" stop-color="#27758D"/>
<stop offset="0.68" stop-color="#115C7E"/>
<stop offset="0.86" stop-color="#044D76"/>
<stop offset="1" stop-color="#004873"/>
</linearGradient>
<linearGradient id="paint10_linear_713_25534" x1="1313.78" y1="-0.46066" x2="-184.457" y2="1547.68" gradientUnits="userSpaceOnUse">
<stop stop-color="#AFB388"/>
<stop offset="0.31" stop-color="#41929E"/>
<stop offset="0.49" stop-color="#27758D"/>
<stop offset="0.68" stop-color="#115C7E"/>
<stop offset="0.86" stop-color="#044D76"/>
<stop offset="1" stop-color="#004873"/>
</linearGradient>
<linearGradient id="paint11_linear_713_25534" x1="1297.34" y1="-16.3015" x2="-200.891" y2="1531.84" gradientUnits="userSpaceOnUse">
<stop stop-color="#AFB388"/>
<stop offset="0.31" stop-color="#41929E"/>
<stop offset="0.49" stop-color="#27758D"/>
<stop offset="0.68" stop-color="#115C7E"/>
<stop offset="0.86" stop-color="#044D76"/>
<stop offset="1" stop-color="#004873"/>
</linearGradient>
<linearGradient id="paint12_linear_713_25534" x1="1277.36" y1="-35.5963" x2="-220.868" y2="1512.55" gradientUnits="userSpaceOnUse">
<stop stop-color="#AFB388"/>
<stop offset="0.31" stop-color="#41929E"/>
<stop offset="0.49" stop-color="#27758D"/>
<stop offset="0.68" stop-color="#115C7E"/>
<stop offset="0.86" stop-color="#044D76"/>
<stop offset="1" stop-color="#004873"/>
</linearGradient>
<linearGradient id="paint13_linear_713_25534" x1="1240.79" y1="-71.0729" x2="-257.446" y2="1477.07" gradientUnits="userSpaceOnUse">
<stop stop-color="#AFB388"/>
<stop offset="0.31" stop-color="#41929E"/>
<stop offset="0.49" stop-color="#27758D"/>
<stop offset="0.68" stop-color="#115C7E"/>
<stop offset="0.86" stop-color="#044D76"/>
<stop offset="1" stop-color="#004873"/>
</linearGradient>
<linearGradient id="paint14_linear_713_25534" x1="1182.92" y1="-127.078" x2="-315.317" y2="1421.07" gradientUnits="userSpaceOnUse">
<stop stop-color="#AFB388"/>
<stop offset="0.31" stop-color="#41929E"/>
<stop offset="0.49" stop-color="#27758D"/>
<stop offset="0.68" stop-color="#115C7E"/>
<stop offset="0.86" stop-color="#044D76"/>
<stop offset="1" stop-color="#004873"/>
</linearGradient>
<linearGradient id="paint15_linear_713_25534" x1="1220.95" y1="-90.3087" x2="-277.286" y2="1457.84" gradientUnits="userSpaceOnUse">
<stop stop-color="#AFB388"/>
<stop offset="0.31" stop-color="#41929E"/>
<stop offset="0.49" stop-color="#27758D"/>
<stop offset="0.68" stop-color="#115C7E"/>
<stop offset="0.86" stop-color="#044D76"/>
<stop offset="1" stop-color="#004873"/>
</linearGradient>
<linearGradient id="paint16_linear_713_25534" x1="1202.55" y1="-108.084" x2="-295.682" y2="1440.06" gradientUnits="userSpaceOnUse">
<stop stop-color="#AFB388"/>
<stop offset="0.31" stop-color="#41929E"/>
<stop offset="0.49" stop-color="#27758D"/>
<stop offset="0.68" stop-color="#115C7E"/>
<stop offset="0.86" stop-color="#044D76"/>
<stop offset="1" stop-color="#004873"/>
</linearGradient>
</defs>
</svg>
