<svg width="1146" height="1453" viewBox="0 0 1146 1453" fill="none" xmlns="http://www.w3.org/2000/svg">
<g opacity="0.05">
<path d="M1508.47 1453C1493.01 1453 1477.54 1451.4 1462.26 1448.28C1396.53 1434.79 1336.83 1393.38 1289.59 1328.38C1258.75 1286.02 1236.3 1240.55 1212.44 1192.53C1126.34 1018.66 1037.31 838.749 546.535 778.843C505.229 773.843 467.411 771.012 430.726 768.276C298.695 755.824 77.8261 734.88 12.3765 475.821C-6.39075 401.481 -44.2081 150.346 258.048 37.4205C387.25 -11.5423 518.526 -3.71201 641.22 12.0429C777.212 29.4959 855.488 65.0622 969.694 133.27C1019.49 163.082 1059.76 197.233 1100.03 244.026C1136.34 286.102 1164.35 334.499 1185.75 391.952C1191.03 406.009 1196.13 420.537 1201.13 434.5L1201.31 435.066C1222.44 494.5 1244.22 555.916 1281 607.52C1325.42 669.879 1382.48 710.068 1443.02 752.616C1484.24 781.673 1526.77 811.673 1568.55 850.636C1615.99 894.882 1655.22 944.41 1688.41 1002.05C1737.74 1087.52 1755.94 1173.94 1741.13 1251.87C1728.02 1320.83 1689.83 1378.94 1633.53 1415.55C1599.48 1437.72 1560.34 1450.45 1520.45 1452.62C1516.49 1452.81 1512.44 1452.91 1508.47 1452.91V1453ZM479.766 4.49562C406.96 4.49562 332.928 13.8353 259.651 41.6658C-39.1155 153.271 -1.76968 401.386 16.7146 474.783C44.724 585.539 101.969 661.672 191.844 707.521C266.819 745.729 351.13 756.39 431.103 763.937C467.788 766.673 505.794 769.503 547.101 774.503C1040.24 834.692 1129.83 1015.64 1216.4 1190.64C1240.17 1238.56 1262.52 1283.85 1293.17 1325.92C1339.76 1389.98 1398.51 1430.83 1463.11 1444.04C1481.97 1447.91 1501.21 1449.32 1520.17 1448.38C1559.31 1446.3 1597.69 1433.75 1631.07 1412.06C1686.24 1376.21 1723.78 1319.04 1736.7 1251.3C1751.32 1174.41 1733.3 1089.13 1684.55 1004.51C1651.54 947.24 1612.59 898.089 1565.44 854.126C1523.85 815.352 1481.5 785.447 1440.38 756.578C1379.56 713.748 1322.12 673.276 1277.23 610.35C1240.07 558.18 1218.2 496.481 1196.98 436.764L1196.79 436.104C1191.79 422.141 1186.7 407.707 1181.42 393.65C1160.2 336.669 1132.38 288.744 1096.44 247.045C1056.46 200.63 1016.57 166.761 967.148 137.233C853.507 69.3075 775.609 33.9299 640.372 16.5712C588.031 9.87303 534.087 4.58996 479.483 4.58996L479.766 4.49562Z" fill="url(#paint0_linear_713_25514)"/>
<path d="M1728.57 1110.25C1720.46 1074.49 1706.32 1038.08 1686.61 1001.95C1617.39 875.341 1533.74 812.228 1452.72 751.189C1415 722.699 1379.26 695.812 1346.44 663.453C1330.22 647.415 1315.51 630.528 1301.64 611.754C1284.48 588.641 1271.94 568.546 1261.94 548.357C1248.45 520.904 1238.55 491.47 1230.72 466.187C1228.93 460.338 1227.14 454.394 1225.35 448.639L1224.78 446.847C1218.65 426.752 1212.33 406.092 1204.6 386.092C1182.82 330.336 1154.71 283.543 1118.59 243.166C1085.3 205.901 1044.28 172.505 989.391 138.07C888.293 74.5792 775.123 36.3713 662.048 27.7863C652.806 26.8429 641.206 27.0316 626.683 27.3146C604.049 27.7863 575.38 28.258 541.052 24.6731C490.88 19.4844 414.491 11.5598 313.676 38.3525C62.3454 104.957 35.1848 296.091 32.2612 333.733C24.7166 422.035 57.63 666.943 297.36 738.737C332.631 751.189 415.339 760.246 488.334 768.265C521.436 771.85 552.651 775.341 574.342 778.548C1035.22 842.511 1124.53 1014.02 1211.01 1179.97C1235.53 1226.95 1258.64 1271.38 1290.04 1312.61C1321.17 1353.55 1356.72 1384.31 1395.67 1403.93C1430.18 1421.29 1466.4 1430.16 1503.27 1430.16C1507.23 1430.16 1511.2 1430.06 1515.25 1429.88C1524.59 1429.4 1534.02 1428.27 1543.26 1426.67C1590.7 1418.18 1633.8 1395.06 1667.84 1359.87C1706.79 1319.59 1730.27 1267.14 1735.74 1208.27C1738.67 1176.67 1736.31 1143.65 1728.67 1110.16L1728.57 1110.25ZM1731.22 1207.99C1725.84 1265.82 1702.83 1317.33 1664.54 1356.86C1631.15 1391.38 1589 1414.03 1542.41 1422.33C1533.36 1423.93 1524.12 1425.06 1514.97 1425.54C1474.89 1427.71 1435.18 1419.03 1397.65 1400.06C1359.36 1380.63 1324.28 1350.35 1293.53 1309.97C1262.41 1269.02 1239.31 1224.78 1214.88 1177.89C1127.93 1011 1038.05 838.454 574.908 774.208C553.217 770.907 521.907 767.51 488.805 763.925C416.094 756.001 333.669 746.944 298.775 734.586C61.7795 663.547 29.2434 421.469 36.6937 334.11C39.5229 297.034 66.4007 108.447 314.807 42.6921C414.868 16.1824 490.785 24.0127 540.58 29.2014C575.191 32.7864 604.049 32.3147 626.777 31.843C641.206 31.5599 652.618 31.3713 661.671 32.2203C773.992 40.8053 886.501 78.7302 987.033 141.844C1041.54 176.09 1082.28 209.297 1115.29 246.185C1151.03 286.185 1178.85 332.506 1200.45 387.79C1208.18 407.601 1214.5 428.262 1220.63 448.451L1221.1 450.054C1222.9 455.904 1224.69 461.847 1226.48 467.602C1234.4 492.979 1244.3 522.697 1257.98 550.433C1268.07 570.81 1280.8 591.188 1298.06 614.49C1312.11 633.452 1326.92 650.528 1343.33 666.755C1376.34 699.396 1412.17 726.378 1450.08 754.869C1530.72 815.624 1613.99 878.36 1682.74 1004.21C1702.26 1039.97 1716.22 1076 1724.33 1111.38C1731.88 1144.4 1734.14 1176.95 1731.31 1208.08L1731.22 1207.99Z" fill="url(#paint1_linear_713_25514)"/>
<path d="M1684.75 1002.63C1620.43 877.254 1539.33 811.97 1460.96 748.667C1427.67 721.875 1396.26 696.497 1366.37 666.969C1351.18 651.968 1336.75 635.553 1322.23 616.685C1306.1 595.742 1290.64 575.081 1278.85 551.779C1264.61 523.571 1255.84 493.571 1248.39 465.457C1246.97 460.08 1245.56 454.608 1244.14 448.948C1238.39 426.495 1232.45 403.193 1223.39 381.117C1181.24 277.625 1119.09 208.851 1008.94 143.756C901.334 80.0763 785.524 46.4911 682.917 48.944C674.052 49.1326 666.036 49.51 658.491 49.793C627.181 51.1138 602.473 52.0572 543.059 44.0382C422.722 29.8872 366.326 42.7175 343.409 47.9062C176.673 87.1519 76.4241 192.153 66.899 337.815C61.3348 463.948 111.789 576.119 217.226 666.214C261.55 703.856 295.784 719.799 336.619 733.479C378.397 747.347 436.019 758.479 508.07 766.592C538.909 769.988 569.654 774.139 602.001 779.234C1032.61 846.97 1126.35 1017.44 1209.06 1168.01C1234.33 1214.05 1258.19 1257.45 1290.35 1297.63C1321.38 1336.5 1355.99 1365.47 1393.24 1383.58C1427.01 1399.9 1462.18 1408.2 1498.02 1408.2C1501.98 1408.2 1505.94 1408.11 1510 1407.92C1519.43 1407.45 1528.95 1406.32 1538.19 1404.62C1584.5 1396.22 1626.56 1373.86 1659.66 1339.9C1696.82 1301.88 1719.74 1252.35 1725.87 1196.88C1732.66 1135.65 1718.42 1068.48 1684.56 1002.54L1684.75 1002.63ZM1721.62 1196.5C1715.59 1251.03 1693.05 1299.62 1656.64 1336.88C1624.11 1370.18 1582.99 1392.07 1537.53 1400.37C1528.39 1401.98 1519.14 1403.11 1509.81 1403.58C1470.86 1405.65 1432.1 1397.54 1395.32 1379.71C1358.63 1361.88 1324.59 1333.3 1293.94 1294.99C1262.06 1255.09 1238.3 1211.79 1213.02 1165.84C1129.84 1014.52 1035.53 842.914 602.755 774.894C570.314 769.8 539.475 765.649 508.542 762.158C436.868 754.139 379.435 743.101 338.034 729.233C297.67 715.743 263.908 699.988 220.149 662.818C115.845 573.666 65.8616 462.627 71.3315 338.003C80.8566 194.606 179.785 90.9255 344.352 52.2459C359.159 48.8496 389.997 41.8684 441.206 41.8684C468.084 41.8684 501.375 43.6609 542.493 48.4723C602.284 56.5855 627.087 55.5478 658.68 54.227C666.225 53.944 674.146 53.5666 683.011 53.378C784.864 50.9251 899.73 84.3217 1006.68 147.53C1115.88 212.153 1177.47 280.267 1219.25 382.721C1228.11 404.513 1234.05 427.627 1239.8 449.985C1241.22 455.646 1242.63 461.212 1244.05 466.495C1251.5 494.892 1260.36 525.081 1274.79 553.666C1286.67 577.251 1302.33 598.1 1318.55 619.232C1333.26 638.195 1347.79 654.799 1363.06 669.987C1393.15 699.705 1424.65 725.082 1458.03 751.969C1536.12 814.894 1616.75 879.895 1680.69 1004.42C1714.17 1069.61 1728.22 1135.94 1721.53 1196.31L1721.62 1196.5Z" fill="url(#paint2_linear_713_25514)"/>
<path d="M1681.16 1003.84C1625.51 876.201 1546.2 803.559 1469.53 733.37L1469.06 732.992C1448.31 714.03 1426.9 694.407 1406.25 673.935C1393.05 660.822 1379.37 645.727 1363.43 626.482C1360.7 623.085 1357.77 619.784 1354.85 616.199L1353.81 614.972C1339.01 597.425 1323.64 579.311 1312.7 558.557C1296.85 528.462 1289.5 495.254 1283.84 463.839C1282.99 459.122 1282.23 454.405 1281.39 449.593C1276.95 423.367 1272.33 396.197 1261.2 370.913C1238.85 320.252 1210.56 278.365 1174.82 243.082C1141.43 210.157 1101.26 182.138 1048.26 154.873C956.495 107.703 854.36 82.703 752.791 82.703C737.23 82.5143 720.255 85.0615 702.336 87.6087C668.48 92.4201 620.005 95.5333 579.642 85.6276C547.2 77.7029 482.693 62.0424 405.267 67.7972C286.251 81.4766 219.952 136.571 185.247 180.44C135.075 243.837 123.192 316.573 128.757 363.46C144.034 494.405 226.648 612.708 361.414 696.577C434.314 741.954 586.338 767.049 587.847 767.332C610.197 771.389 633.303 775.54 657.823 780.54C1027.32 854.974 1121.25 1007.9 1204.24 1142.9C1231.59 1187.43 1257.43 1229.41 1291.57 1268C1322.5 1302.81 1355.23 1328.09 1389.08 1343.09C1421.24 1357.34 1454.53 1364.6 1488.01 1364.6C1491.97 1364.6 1496.03 1364.51 1499.99 1364.32C1509.52 1363.85 1518.95 1362.71 1528.28 1361.02C1572.23 1353 1612.12 1332.24 1643.72 1300.83C1677.48 1267.24 1699.55 1223.56 1707.28 1174.6C1715.86 1120.45 1707.18 1063 1681.34 1003.84H1681.16ZM1702.66 1173.85C1695.02 1221.86 1673.52 1264.7 1640.32 1297.62C1609.48 1328.28 1570.34 1348.66 1527.25 1356.58C1518.19 1358.28 1508.86 1359.32 1499.52 1359.79C1462.83 1361.77 1425.96 1354.7 1390.59 1338.94C1357.4 1324.22 1325.05 1299.32 1294.59 1264.88C1260.73 1226.68 1234.99 1184.79 1207.73 1140.45C1124.36 1004.69 1029.87 850.918 658.483 776.106C633.963 771.2 610.763 766.955 588.412 762.898C586.903 762.615 435.728 737.615 363.583 692.803C229.949 609.689 148.09 492.518 133 362.989C127.531 316.95 139.319 245.535 188.548 183.27C237.588 121.288 312.562 82.8917 405.55 72.2312C418.47 71.2878 430.73 70.8161 442.424 70.8161C499.763 70.8161 551.821 83.3634 578.51 89.9672C619.628 100.062 668.668 96.9484 702.902 92.0427C720.726 89.4955 737.701 87.2313 752.696 87.2313C853.511 87.2313 954.986 112.043 1046.18 158.836C1098.71 185.817 1138.6 213.648 1171.61 246.289C1206.98 281.195 1234.99 322.611 1257.05 372.8C1267.9 397.517 1272.52 424.404 1276.95 450.442C1277.8 455.254 1278.56 460.065 1279.41 464.782C1285.06 496.575 1292.61 530.16 1308.73 560.726C1319.86 581.859 1335.33 600.255 1350.32 617.897L1351.36 619.123C1354.38 622.614 1357.21 626.01 1359.94 629.406C1375.98 648.84 1389.74 663.935 1403.04 677.143C1423.79 697.709 1445.2 717.332 1465.95 736.294L1466.42 736.671C1542.81 806.578 1621.74 878.843 1677.01 1005.64C1702.47 1064.03 1711.05 1120.64 1702.56 1173.94L1702.66 1173.85Z" fill="url(#paint3_linear_713_25514)"/>
<path d="M1465.47 1276.49C1437.08 1276.49 1408.32 1271.49 1379.93 1261.67C1351.64 1251.86 1324.1 1234.88 1293.26 1208.18C1250.64 1171.3 1217.72 1129.03 1182.92 1084.31C1102.57 981.199 1011.66 864.406 768.725 782.896L766.65 782.141C642.069 740.348 559.833 712.706 461.376 615.347C442.043 596.29 422.049 578.177 402.716 560.629C361.41 523.27 322.555 488.081 293.98 447.326C288.415 439.307 283.228 431.1 278.513 423.364C253.71 382.703 243.242 333.552 249.749 288.646C257.954 232.23 292.188 183.833 348.772 148.55C387.439 124.493 429.594 112.795 477.691 112.795C515.98 112.795 553.232 120.248 581.335 126.757C605.855 132.418 626.697 143.55 646.879 154.21C664.798 163.739 683.282 173.55 704.69 179.777C713.932 182.513 723.928 183.928 734.302 183.928C761.84 183.928 788.058 174.588 811.258 166.475C824.555 161.758 835.966 157.701 845.868 156.003C879.065 150.248 912.733 147.418 946.117 147.418C1008.74 147.418 1069.38 157.418 1126.53 177.229C1229.23 212.796 1294.02 266.287 1336.55 350.722C1351.55 380.439 1352.77 413.835 1353.9 446.1V447.515C1354.09 452.043 1354.28 456.383 1354.47 460.628C1356.17 496.1 1360.6 537.044 1380.31 572.233C1392.1 593.177 1409.64 610.347 1426.62 626.951C1432.65 632.8 1439.44 639.498 1445.67 646.102L1451.42 652.234C1463.11 664.593 1474.15 676.291 1485.75 687.8C1535.92 737.612 1572.98 782.896 1602.41 830.538C1636.17 885.255 1659.56 942.803 1673.7 1006.58C1683.32 1049.88 1682.1 1091.39 1670.21 1129.88C1659.08 1165.82 1638.52 1197.9 1610.8 1222.62C1574.49 1254.98 1528.56 1273.56 1477.92 1276.2C1473.77 1276.39 1469.53 1276.58 1465.28 1276.58L1465.47 1276.49ZM477.785 117.323C430.537 117.323 389.136 128.833 351.224 152.418C295.771 186.947 262.198 234.306 254.276 289.4C247.863 333.363 258.143 381.382 282.474 421.194C287.189 428.836 292.188 437.043 297.752 444.968C325.95 485.346 364.71 520.346 405.64 557.422C425.162 575.063 445.155 593.177 464.582 612.328C562.285 708.933 644.144 736.48 768.159 778.084L770.234 778.839C1014.4 860.821 1105.87 978.18 1186.51 1081.67C1221.21 1126.3 1254.03 1168.37 1296.28 1204.98C1326.65 1231.3 1353.72 1247.99 1381.44 1257.62C1413.51 1268.75 1446.14 1273.56 1477.92 1271.86C1527.52 1269.22 1572.51 1251.11 1608.06 1219.41C1635.22 1195.16 1655.31 1163.84 1666.25 1128.65C1677.95 1090.92 1679.08 1050.16 1669.65 1007.61C1655.59 944.407 1632.49 887.236 1598.92 832.99C1569.68 785.632 1532.81 740.537 1482.92 691.008C1471.22 679.404 1460.19 667.706 1448.49 655.347L1442.74 649.215C1436.61 642.706 1429.82 636.102 1423.79 630.253C1406.53 613.46 1388.7 596.007 1376.63 574.497C1356.45 538.459 1351.92 496.855 1350.23 460.911C1350.04 456.666 1349.85 452.232 1349.66 447.798V446.383C1348.43 414.59 1347.21 381.76 1332.68 352.892C1290.72 269.495 1226.78 216.664 1125.21 181.569C1068.53 161.946 1008.36 152.041 946.212 152.041C913.11 152.041 879.631 154.965 846.717 160.626C837.192 162.229 825.875 166.286 812.861 170.909C789.378 179.211 762.689 188.645 734.397 188.645C723.646 188.645 713.272 187.23 703.558 184.399C681.773 177.984 663.1 168.078 644.993 158.456C625.094 147.89 604.535 136.946 580.581 131.38C552.666 124.871 515.791 117.512 477.88 117.512L477.785 117.323Z" fill="url(#paint4_linear_713_25514)"/>
<path d="M1671.99 1007.32C1662.56 944.777 1643.89 888.267 1614.84 834.399C1587.68 783.927 1551.94 737.134 1505.82 691.284C1496.77 682.322 1487.53 672.793 1478.57 663.548L1466.31 651.001C1459.7 644.303 1452.73 637.699 1445.75 631.095C1427.92 614.397 1409.44 597.038 1397.27 575.623C1376.43 538.924 1372.85 496.471 1372.19 459.773C1372.09 454.867 1372 449.961 1372 444.395C1371.62 410.904 1371.24 376.281 1355.4 345.715C1333.43 303.262 1305.23 269.488 1269.3 242.412C1235.91 217.223 1195.64 197.789 1146.13 182.883C1098.13 168.449 1047.3 161.185 994.956 161.185C954.215 161.185 912.908 165.713 872.167 174.487C862.925 176.468 852.174 180.902 839.725 185.996C815.677 195.808 788.328 206.94 759.469 206.94C748.907 206.94 738.722 205.336 729.291 202.317C707.412 195.242 688.644 183.921 670.537 172.883C650.733 160.902 630.362 148.449 605.842 141.845C572.929 132.883 521.72 123.449 478.715 124.109C440.521 124.769 404.495 136.09 368.564 158.921C342.346 175.525 321.222 195.242 305.944 217.317C291.986 237.318 282.744 259.488 278.406 283.073C269.069 333.828 283.027 390.338 315.846 434.206C321.221 441.47 327.069 449.112 333.482 456.659C360.925 489.207 395.253 517.226 431.75 547.038C457.59 568.17 484.374 590.151 509.931 614.774C604.05 705.624 681.005 739.209 796.532 783.644C1006.56 864.588 1095.11 971.853 1173.2 1066.57C1211.3 1112.7 1247.23 1156.29 1293.91 1193.46C1324.37 1217.7 1350.97 1232.99 1377.85 1241.48C1405.1 1250.16 1432.45 1254.59 1459.04 1254.59C1463.29 1254.59 1467.53 1254.5 1471.78 1254.21C1481.96 1253.65 1492.24 1252.42 1502.33 1250.63C1540.05 1243.65 1574.85 1227.23 1602.96 1203.27C1658.51 1155.82 1683.69 1084.5 1672.09 1007.42L1671.99 1007.32ZM1599.94 1199.78C1572.4 1223.27 1538.26 1239.31 1501.39 1246.1C1491.49 1247.89 1481.4 1249.12 1471.4 1249.59C1441.22 1251.2 1410.1 1246.95 1378.98 1237.04C1352.67 1228.65 1326.45 1213.65 1296.46 1189.78C1250.15 1152.89 1214.32 1109.5 1176.4 1063.55C1097.94 968.457 1009.01 860.625 797.853 779.304C682.797 734.964 606.219 701.567 512.76 611.378C487.109 586.661 460.325 564.679 434.202 543.358C398.082 513.83 363.943 485.811 336.688 453.64C330.464 446.188 324.617 438.546 319.241 431.376C287.176 388.451 273.502 333.262 282.65 283.639C286.894 260.714 295.853 239.11 309.433 219.582C324.428 197.978 345.081 178.732 370.827 162.411C406.098 140.052 443.539 128.92 480.884 128.26C522.38 128.26 573.023 137.411 604.522 145.902C628.382 152.411 648.564 164.675 668.18 176.562C686.475 187.694 705.337 199.204 727.782 206.374C737.779 209.581 748.341 211.185 759.375 211.185C789.082 211.185 816.809 199.864 841.328 189.864C853.589 184.864 864.151 180.525 873.016 178.638C913.474 169.864 954.498 165.43 994.956 165.43C1046.83 165.43 1097.19 172.694 1144.81 186.94C1193.85 201.657 1233.74 220.902 1266.66 245.714C1302.02 272.412 1329.75 305.714 1351.44 347.602C1366.81 377.225 1367.19 411.282 1367.47 444.678C1367.47 449.867 1367.57 454.772 1367.66 459.678C1368.32 496.943 1372 540.056 1393.31 577.604C1405.85 599.68 1424.53 617.227 1442.82 634.397C1449.61 640.718 1456.5 647.227 1463.01 653.925L1475.27 666.473C1484.22 675.718 1493.47 685.246 1502.52 694.209C1548.35 739.775 1583.81 786.285 1610.79 836.286C1639.55 889.682 1658.03 945.721 1667.37 1007.8C1678.78 1083.36 1654.07 1153.27 1599.75 1199.59L1599.94 1199.78Z" fill="url(#paint5_linear_713_25514)"/>
<path d="M1670.2 1008.07C1661.91 887.129 1613.34 781.656 1525.82 694.674C1519.78 688.636 1513.65 682.504 1507.43 676.278C1500.73 669.579 1493.94 662.693 1487.06 655.806C1480.08 648.919 1472.63 642.126 1465.18 635.428C1446.41 618.541 1426.98 600.994 1414.25 578.918C1392.28 540.71 1389.73 494.672 1389.92 458.823C1389.92 453.823 1389.92 448.917 1390.11 443.162C1390.58 409.86 1391.24 372.124 1374.36 340.614C1332.39 262.123 1266.19 213.82 1165.75 188.443C1082.29 167.31 989.02 168.82 898.484 192.782C890.091 195.047 880 199.669 868.306 205.047C844.635 215.99 815.305 229.575 784.466 229.575C773.81 229.575 763.53 227.877 754.005 224.575C731.56 216.745 712.698 203.82 694.497 191.367C675.069 178.065 654.982 164.292 630.368 156.65C594.908 145.706 551.715 134.48 508.805 134.103C464.952 134.103 424.871 145.518 388.468 169.009C339.806 200.424 310.57 243.255 303.969 292.878C295.669 355.331 323.962 412.218 353.197 444.766C358.95 451.087 365.74 458.54 372.907 465.71C399.314 491.747 430.058 514.201 462.783 537.88C494.659 561.088 527.572 585.05 558.316 613.918C646.966 697.315 717.319 736.75 824.17 784.297C1000.81 862.977 1085.5 960.431 1160.19 1046.38C1202.44 1094.96 1242.33 1140.9 1294.29 1178.64C1324.19 1200.34 1350.03 1213.92 1375.49 1221.28C1401.33 1228.74 1427.36 1232.51 1452.82 1232.51C1457.26 1232.51 1461.78 1232.42 1466.12 1232.13C1514.69 1229.58 1559.3 1212.89 1595.04 1184.02C1647.57 1141.57 1674.92 1077.6 1670.2 1008.26V1008.07ZM1592.21 1180.34C1557.13 1208.64 1513.46 1224.96 1465.84 1227.51C1436.79 1229.02 1406.61 1225.43 1376.62 1216.75C1351.63 1209.58 1326.26 1196.19 1296.84 1174.87C1245.25 1137.41 1205.55 1091.66 1163.49 1043.26C1088.51 956.941 1003.45 859.109 825.867 780.052C719.583 732.693 649.418 693.448 561.24 610.522C530.307 581.371 497.205 557.314 465.235 534.106C432.793 510.521 402.049 488.163 375.925 462.408C368.758 455.332 362.062 447.973 356.309 441.653C327.734 409.954 300.008 354.293 308.118 293.349C314.531 245.047 343.106 203.348 390.637 172.593C426.286 149.574 465.612 138.442 508.522 138.442C550.866 138.82 593.682 149.952 628.764 160.801C652.718 168.254 672.523 181.839 691.762 194.952C710.152 207.594 729.202 220.613 752.213 228.726C762.21 232.217 772.961 234.009 784.183 234.009C815.965 234.009 845.861 220.235 869.909 209.103C881.415 203.82 891.317 199.197 899.427 197.028C989.303 173.254 1081.72 171.744 1164.53 192.688C1263.55 217.783 1329 265.425 1370.31 342.689C1386.62 373.256 1386.06 410.332 1385.58 443.068C1385.58 448.823 1385.4 453.823 1385.4 458.823C1385.21 495.238 1387.85 542.031 1410.29 581.182C1423.31 603.824 1443.02 621.56 1462.26 638.919C1469.42 645.428 1476.87 652.126 1483.76 658.919C1490.64 665.711 1497.53 672.598 1504.13 679.296C1510.35 685.523 1516.48 691.749 1522.52 697.693C1609.28 783.92 1657.38 888.355 1665.58 1008.26C1670.2 1076.09 1643.42 1138.73 1592.02 1180.24L1592.21 1180.34Z" fill="url(#paint6_linear_713_25514)"/>
<path d="M1445.55 1210.15C1421.97 1210.15 1397.64 1206.95 1373.22 1200.72C1348.6 1194.4 1324.37 1182.89 1294.75 1163.55C1235.62 1124.87 1190.64 1075.25 1143.01 1022.7C1073.51 945.906 994.665 859.018 851.695 784.678C753.521 733.64 689.391 688.734 606.684 612.978C571.507 580.714 532.935 556.185 495.683 532.411C465.788 513.355 437.59 495.43 412.315 474.486C405.808 469.109 398.829 462.977 390.436 455.052C348.658 416.184 324.515 356.278 329.042 302.409C333.191 252.88 360.54 210.144 408.072 178.918C443.626 155.521 481.631 144.2 524.259 144.2C569.715 144.2 613.757 157.219 654.592 171.37C679.395 179.955 699.199 195.144 718.438 209.861C736.639 223.824 755.407 238.163 778.418 246.843C788.226 250.522 798.694 252.409 809.634 252.409C841.698 252.409 872.16 236.748 896.585 224.107C907.525 218.446 917.05 213.54 924.689 211.182C980.331 193.635 1036.35 184.767 1091.24 184.767C1123.49 184.767 1155.08 187.88 1185.26 194.106C1233.74 204.012 1273.72 219.673 1307.39 241.843C1343.42 265.616 1371.42 296.277 1393.12 335.617C1411.03 368.165 1409.53 407.41 1408.11 442.033C1407.92 447.882 1407.64 452.977 1407.54 458.071C1406.41 495.241 1408.2 542.883 1431.12 582.412C1444.32 605.148 1464.79 622.884 1484.5 640.054C1491.86 646.375 1500.06 653.545 1507.51 660.715C1520.81 673.451 1533.73 686.187 1545.61 698.073C1587.39 739.583 1619.08 787.886 1639.92 841.565C1660.29 893.924 1669.72 950.246 1668.21 1008.83C1666.61 1070.15 1637.09 1126.85 1587.3 1164.4C1559.95 1185.06 1526.94 1199.3 1491.76 1205.81C1481.1 1207.8 1470.16 1209.02 1459.32 1209.59C1454.7 1209.87 1450.08 1209.97 1445.46 1209.97L1445.55 1210.15ZM524.353 148.634C482.669 148.634 445.417 159.766 410.618 182.691C364.218 213.163 337.624 254.767 333.568 302.881C329.136 355.429 352.713 413.92 393.548 451.845C401.941 459.675 408.826 465.807 415.239 471.09C440.325 491.845 468.334 509.675 498.041 528.544C535.576 552.412 574.242 577.129 609.796 609.582C692.221 685.054 756.161 729.866 853.864 780.621C997.589 855.339 1076.62 942.604 1146.41 1019.59C1193.84 1071.94 1238.64 1121.38 1297.3 1159.68C1326.53 1178.74 1350.3 1190.06 1374.44 1196.29C1403.21 1203.64 1431.69 1206.66 1459.23 1205.25C1469.98 1204.68 1480.73 1203.46 1491.1 1201.47C1525.62 1195.06 1558.06 1181.1 1584.84 1160.81C1633.51 1124.12 1662.36 1068.64 1663.97 1008.64C1665.57 950.529 1656.14 894.868 1635.96 843.075C1615.4 789.961 1583.99 742.225 1542.69 701.187C1530.71 689.3 1517.88 676.564 1504.59 663.828C1497.23 656.752 1489.03 649.582 1481.76 643.356C1461.68 625.903 1440.93 607.884 1427.44 584.582C1403.87 544.015 1402.17 495.619 1403.21 457.882C1403.3 452.788 1403.58 447.694 1403.77 442.316C1405.19 407.788 1406.7 369.108 1389.34 337.693C1368.03 299.013 1340.49 268.824 1305.03 245.522C1271.84 223.635 1232.32 208.163 1184.41 198.352C1154.52 192.22 1123.21 189.106 1091.24 189.106C1036.82 189.106 981.274 197.88 926.01 215.333C918.748 217.597 909.411 222.408 898.66 227.975C873.763 240.805 842.83 256.843 809.634 256.843C798.222 256.843 787.188 254.862 776.815 250.994C753.238 242.126 734.188 227.503 715.703 213.352C696.842 198.918 677.226 183.918 653.083 175.521C612.625 161.559 569.055 148.634 524.164 148.634H524.353Z" fill="url(#paint7_linear_713_25514)"/>
<path d="M1438.28 1188C1416.31 1188 1393.67 1185.45 1371.04 1180.36C1347.46 1175.07 1324.17 1165.26 1295.31 1148.66C1226.46 1108.75 1175.16 1053.47 1120.93 994.882C1059.07 928.089 988.998 852.522 879.412 785.163C790.669 730.634 730.5 679.03 655.243 612.048C616.105 577.237 572.346 553.18 530.002 529.878C502.37 514.689 476.247 500.349 451.915 483.462C444.371 478.273 436.543 472.424 427.867 465.537C406.459 448.745 387.409 425.065 374.3 399.027C360.06 370.725 353.081 340.631 354.212 312.045C356.099 262.611 381.656 220.063 428.055 189.025C462.855 165.723 500.012 154.402 541.508 154.402C589.416 154.402 636.004 169.685 679.197 186.101C704.189 195.629 723.805 212.233 742.76 228.271C760.962 243.648 779.729 259.592 803.212 269.026C813.303 273.083 824.054 275.158 835.182 275.158C868.567 275.158 899.971 257.234 925.151 242.799C935.337 236.95 944.107 231.95 951.086 229.403C1013.9 206.195 1076.7 194.497 1137.91 194.497C1160.73 194.497 1183.27 196.195 1204.96 199.497C1302.95 214.592 1370.76 257.422 1412.16 330.347C1431.11 363.838 1428.57 404.593 1426.4 440.537C1426.02 446.292 1425.74 451.669 1425.45 457.047C1423.47 495.443 1424.32 544.783 1448.28 585.633C1462.05 609.124 1483.55 627.143 1504.39 644.69C1512.5 651.483 1520.7 658.369 1528.34 665.445C1541.83 677.898 1554 689.69 1565.78 701.389C1646.04 781.389 1682.82 893.655 1666.5 1009.6C1659.05 1063 1627.56 1112.43 1580.31 1145.26C1544.09 1170.36 1500.15 1184.88 1453.28 1187.43C1448.47 1187.71 1443.47 1187.81 1438.37 1187.81L1438.28 1188ZM541.319 158.931C500.672 158.931 464.364 169.969 430.319 192.799C385.145 222.988 360.248 264.309 358.456 312.328C357.419 340.159 364.209 369.499 378.072 397.141C390.898 422.707 409.477 445.726 430.413 462.235C439.089 469.028 446.823 474.783 454.273 479.971C478.416 496.764 504.445 511.01 531.983 526.198C574.515 549.595 618.557 573.746 658.072 608.935C733.235 675.728 793.215 727.238 881.676 781.578C991.733 849.315 1062.09 925.07 1124.05 991.958C1178.18 1050.35 1229.2 1105.45 1297.48 1144.98C1325.87 1161.39 1348.88 1171.11 1371.89 1176.2C1394.24 1181.2 1416.49 1183.75 1438.19 1183.75C1443.09 1183.75 1447.99 1183.66 1452.8 1183.37C1498.92 1180.92 1542.02 1166.68 1577.57 1142.05C1623.88 1109.98 1654.62 1061.68 1661.88 1009.41C1677.92 894.881 1641.7 783.937 1562.39 704.974C1550.69 693.275 1538.43 681.577 1525.04 669.124C1517.4 662.049 1509.29 655.256 1501.37 648.558C1480.15 630.728 1458.27 612.331 1444.13 588.274C1419.51 546.387 1418.66 496.198 1420.64 457.235C1420.93 451.858 1421.21 446.481 1421.59 440.726C1423.76 405.348 1426.3 365.253 1408.01 332.989C1367.27 261.29 1300.59 219.12 1204.02 204.308C1182.61 201.007 1160.26 199.308 1137.63 199.308C1076.99 199.308 1014.65 211.007 952.312 233.931C945.711 236.384 937.034 241.29 927.132 246.95C901.386 261.668 869.416 279.875 834.899 279.875C823.205 279.875 811.888 277.705 801.231 273.46C777.183 263.743 758.038 247.611 739.648 232.045C720.975 216.195 701.642 199.874 677.405 190.629C634.589 174.308 588.473 159.214 541.319 159.214V158.931Z" fill="url(#paint8_linear_713_25514)"/>
<path d="M1430.56 1166.01C1410.47 1166.01 1389.72 1164.03 1368.79 1160.07C1346.06 1155.82 1323.52 1147.71 1295.89 1133.74C1214.22 1092.71 1155.46 1028.93 1093.31 961.29C1039.84 903.176 984.482 843.081 906.961 785.628C855.846 747.798 815.011 710.816 771.724 671.759C750.127 652.231 727.776 632.042 703.633 611.287C661.101 574.683 612.532 551.947 565.661 529.965C539.632 517.795 515.018 506.192 491.347 492.512C482.765 487.512 474.183 482.135 465.129 476.097C441.458 460.342 419.956 436.946 404.489 410.247C387.986 381.662 379.121 351.001 378.932 321.567C378.743 287.227 390.532 238.076 447.682 199.208C482.01 175.811 518.319 164.49 558.682 164.49C564.624 164.49 570.754 164.773 576.884 165.245C621.303 168.83 665.816 185.434 703.445 201.094C728.719 211.566 748.052 229.585 766.82 247.038C784.927 263.925 803.694 281.284 827.554 291.473C837.739 295.812 848.584 297.982 859.901 297.982C895.361 297.982 928.935 276.944 953.455 261.567C962.791 255.717 970.901 250.623 977.22 247.982C1060.4 212.51 1146.97 197.415 1224.4 205.34C1320.5 215.151 1389.91 255.529 1430.93 325.529C1451.02 359.869 1447.44 402.134 1444.33 439.493C1443.85 445.342 1443.38 450.908 1443.01 456.474C1440.18 496.191 1440.08 547.135 1465.07 589.4C1479.41 613.645 1502.14 632.136 1524.11 649.966C1532.5 656.759 1540.99 663.646 1548.82 670.721C1563.91 684.212 1575.23 694.873 1585.6 705.25C1625.02 744.496 1653.03 794.119 1666.61 848.836C1679.91 902.139 1679.15 958.177 1664.44 1010.91C1650.67 1060.16 1613.89 1104.5 1563.53 1132.71C1528.92 1152.05 1488.37 1163.46 1446.4 1165.73C1441.21 1166.01 1435.84 1166.1 1430.46 1166.1L1430.56 1166.01ZM558.682 168.924C519.262 168.924 483.708 180.056 450.134 202.887C394.587 240.717 383.082 288.265 383.27 321.567C383.459 350.247 392.041 380.153 408.167 408.077C423.257 434.21 444.287 457.04 467.393 472.418C476.352 478.361 484.934 483.739 493.421 488.644C516.904 502.324 541.424 513.739 567.453 525.909C614.701 547.984 663.458 570.909 706.463 607.891C730.7 628.74 753.051 648.929 774.647 668.457C817.84 707.514 858.675 744.401 909.602 782.138C987.5 839.874 1042.95 900.063 1096.52 958.366C1158.39 1025.63 1216.86 1089.22 1297.77 1129.88C1325.12 1143.56 1347.19 1151.57 1369.54 1155.82C1395.66 1160.73 1421.6 1162.61 1446.12 1161.29C1487.42 1159.12 1527.22 1147.9 1561.36 1128.84C1610.69 1101.29 1646.71 1057.89 1660.1 1009.78C1674.63 957.799 1675.38 902.516 1662.27 849.968C1648.79 796.1 1621.25 747.137 1582.39 708.458C1572.02 698.174 1560.8 687.514 1545.8 674.118C1538.07 667.136 1529.58 660.25 1521.38 653.551C1499.02 635.344 1475.92 616.664 1461.21 591.758C1435.56 548.55 1435.56 496.663 1438.48 456.285C1438.86 450.719 1439.33 445.153 1439.8 439.304C1442.91 402.606 1446.4 361.096 1426.97 327.982C1386.8 259.302 1318.43 219.585 1223.83 209.962C1147.16 202.226 1061.25 217.038 978.823 252.321C972.788 254.868 964.866 259.868 955.718 265.623C930.726 281.284 896.587 302.699 859.901 302.699C848.019 302.699 836.513 300.341 825.762 295.812C801.148 285.34 782.097 267.604 763.707 250.529C745.223 233.359 726.173 215.717 701.653 205.434C664.307 189.868 620.265 173.453 576.412 169.962C570.471 169.49 564.435 169.207 558.588 169.207L558.682 168.924Z" fill="url(#paint9_linear_713_25514)"/>
<path d="M1421.41 1143.83C1403.49 1143.83 1385.01 1142.42 1366.62 1139.68C1344.64 1136.38 1322.29 1129.77 1296.45 1118.83C1198.28 1077.32 1131.89 1001.19 1061.63 920.622C1022.87 876.188 982.88 830.338 934.594 785.998C906.679 760.337 881.594 734.865 857.451 710.242C823.217 675.336 790.869 642.412 752.203 610.336C706.747 572.6 653.746 551.75 602.537 531.562C578.677 522.127 553.968 512.41 530.863 501.278C521.149 496.561 511.624 491.561 502.476 486.372C476.542 471.75 452.399 448.636 434.575 421.277C415.713 392.409 404.962 361.088 403.642 330.711C402.133 296.465 411.941 247.691 467.583 209.106C507.758 181.369 550.479 170.332 599.331 175.426C644.221 180.049 687.697 197.502 727.966 215.709C753.524 227.219 772.668 246.559 791.152 265.333C809.259 283.635 827.932 302.503 852.264 313.541C862.732 318.258 873.86 320.71 885.46 320.71C922.24 320.71 956.757 297.125 981.937 279.861C990.425 274.012 997.781 269.012 1003.53 266.182C1084.64 226.464 1168.19 207.219 1244.02 210.804C1290.04 212.974 1330.69 223.068 1364.73 240.615C1400.38 259.012 1429.05 285.899 1449.8 320.333C1471.02 355.522 1466.4 399.296 1462.43 437.976V438.542C1461.77 444.58 1461.21 450.051 1460.74 455.429C1457.06 496.467 1456.12 549.109 1482.15 592.6C1497.23 617.789 1521.19 636.657 1544.39 654.959C1552.88 661.657 1561.65 668.544 1569.57 675.431C1581.45 685.714 1593.99 696.846 1605.69 708.544C1644.64 747.413 1670.76 797.319 1681.04 852.602C1691.23 907.037 1684.62 963.547 1662.56 1011.75C1643.32 1053.83 1605.5 1090.25 1556.27 1114.11C1520.91 1131.28 1481.77 1141.1 1439.71 1143.27C1433.67 1143.55 1427.54 1143.74 1421.51 1143.74L1421.41 1143.83ZM576.697 178.822C538.03 178.822 503.042 189.954 469.94 212.879C415.902 250.238 406.377 297.503 407.886 330.616C409.206 360.145 419.674 390.711 438.158 418.919C455.605 445.617 479.182 468.259 504.551 482.599C513.605 487.693 523.13 492.693 532.749 497.316C555.76 508.448 580.375 518.071 604.14 527.505C655.632 547.788 708.916 568.732 755.033 606.94C793.887 639.204 826.329 672.129 860.563 707.035C884.8 731.752 909.792 757.13 937.612 782.696C986.086 827.13 1026.17 873.169 1064.93 917.603C1134.9 997.792 1201.01 1073.55 1298.25 1114.68C1323.8 1125.44 1345.68 1132.04 1367.37 1135.25C1391.7 1138.93 1415.85 1140.15 1439.52 1138.83C1480.92 1136.66 1519.59 1126.94 1554.39 1110.06C1602.67 1086.57 1639.73 1051 1658.5 1009.77C1680.19 962.415 1686.6 906.848 1676.7 853.263C1666.52 798.828 1640.96 749.771 1602.58 711.469C1590.98 699.865 1578.43 688.827 1566.64 678.544C1558.82 671.752 1550.05 664.865 1541.65 658.261C1518.08 639.77 1493.75 620.619 1478.28 594.675C1451.59 550.052 1452.53 496.561 1456.3 454.863C1456.78 449.391 1457.34 443.919 1458 437.881V437.315C1462.06 399.39 1466.49 356.371 1446.03 322.409C1425.65 288.635 1397.65 262.408 1362.75 244.295C1329.27 226.936 1289.19 217.125 1243.83 214.955C1168.85 211.464 1085.86 230.615 1005.51 269.955C1000.04 272.597 992.877 277.597 984.483 283.257C958.832 300.805 923.655 324.956 885.46 324.956C873.294 324.956 861.506 322.409 850.472 317.409C825.48 306.088 806.43 286.842 788.04 268.257C769.745 249.766 750.883 230.71 726.174 219.577C686.188 201.558 643.089 184.294 598.859 179.671C591.409 178.917 584.053 178.539 576.885 178.539L576.697 178.822Z" fill="url(#paint10_linear_713_25514)"/>
<path d="M1411.54 1121.96C1396.07 1121.96 1380.23 1121.11 1364.57 1119.41C1342.88 1117.05 1320.81 1111.96 1297.23 1104.03C1178.12 1063.56 1105.79 969.878 1029.31 870.727C1007.71 842.707 985.548 814.028 962.254 786.481C949.994 771.952 937.828 757.046 927.077 743.839L926.7 743.367C886.43 694.027 848.424 647.517 800.705 609.592C752.608 571.384 695.835 552.893 640.853 534.969C617.465 527.327 593.416 519.497 570.405 510.251C559.843 506.101 549.563 501.572 539.85 496.855C480.247 468.176 433.188 402.232 428.001 339.967C425.171 306.004 433.188 257.513 487.414 219.4C528.344 190.626 571.82 179.777 621.709 186.003C667.071 191.664 711.395 210.909 752.419 230.721C778.165 243.173 797.121 263.928 815.417 284.117C833.43 303.929 852.103 324.401 876.811 336.005C887.374 341.005 898.69 343.646 910.479 343.646C949.334 343.646 986.114 316.287 1010.45 298.174C1018.27 292.419 1024.87 287.514 1029.87 284.683C1108.81 240.721 1189.63 217.136 1263.66 216.475H1266.96C1311 216.475 1350.33 224.494 1384 240.249C1419.74 257.042 1448.32 282.325 1468.88 315.344C1491.23 351.382 1485.66 396.665 1480.66 436.572V437.326C1479.81 443.553 1479.15 449.024 1478.49 454.591C1473.87 496.855 1472.08 551.195 1499.15 596.007C1514.9 622.139 1540.27 641.574 1564.79 660.253C1573.46 666.857 1582.23 673.555 1590.25 680.347C1602.6 690.725 1614.67 701.008 1625.71 712.046C1664 750.254 1688.99 801.952 1696.06 857.519C1703.32 914.501 1690.69 969.69 1660.51 1012.9C1636.27 1047.52 1596.76 1077.24 1549.23 1096.48C1513.86 1110.82 1474.91 1119.22 1433.42 1121.39C1426.25 1121.77 1418.99 1121.96 1411.72 1121.96H1411.54ZM595.114 188.739C557.014 188.739 522.497 199.966 489.772 222.985C437.337 259.872 429.51 306.759 432.245 339.59C437.243 400.345 483.265 464.874 541.547 492.893C551.167 497.516 561.352 501.949 571.914 506.1C594.831 515.252 618.785 523.082 641.985 530.629C697.532 548.742 754.777 567.327 803.44 606.101C851.442 644.309 889.637 691.008 930.095 740.537L930.472 741.008C941.223 754.216 953.389 769.122 965.649 783.556C989.037 811.292 1011.2 839.972 1032.61 867.708C1108.9 966.577 1180.77 1059.69 1298.65 1099.79C1321.94 1107.71 1343.63 1112.71 1365.04 1114.97C1387.96 1117.43 1411.06 1118.18 1433.04 1116.96C1474.06 1114.79 1512.54 1106.48 1547.34 1092.33C1594.12 1073.37 1632.97 1044.22 1656.64 1010.26C1686.25 967.992 1698.61 913.84 1691.44 857.991C1684.46 803.367 1659.94 752.707 1622.31 715.159C1611.37 704.216 1599.4 694.027 1587.14 683.744C1579.12 677.046 1570.44 670.442 1562.05 664.026C1536.97 644.875 1511.31 625.253 1495.09 598.366C1467.37 552.422 1469.16 497.138 1473.87 454.119C1474.44 448.553 1475.19 442.987 1475.95 436.76V436.005C1480.95 396.76 1486.42 352.325 1464.82 317.608C1444.73 285.249 1416.82 260.532 1381.83 244.211C1348.82 228.739 1310.06 220.815 1266.68 220.815H1263.38C1190.2 221.475 1110.03 244.872 1031.76 288.457C1026.95 291.098 1020.54 295.91 1012.99 301.476C988.094 320.061 950.56 347.891 910.29 347.891C897.842 347.891 885.959 345.156 874.736 339.873C849.179 327.797 830.317 307.042 811.927 286.947C793.82 267.136 775.147 246.664 750.25 234.589C709.509 214.871 665.656 195.909 620.86 190.248C612.089 189.116 603.413 188.55 595.02 188.55L595.114 188.739Z" fill="url(#paint11_linear_713_25514)"/>
<path d="M1400.11 1100.27C1387.66 1100.27 1374.93 1099.89 1362.29 1099.04C1276.94 1093.47 1204.51 1060.55 1140.95 998.379C1084.93 943.567 1042.3 873.283 1001.09 805.358C954.031 727.81 909.706 654.602 849.066 608.753C798.234 570.262 740.047 554.979 678.464 538.658C655.547 532.62 632.253 526.488 609.619 519.129C597.453 515.167 586.702 511.299 576.8 507.242C546.244 494.789 516.726 472.148 493.903 443.562C470.515 414.411 455.614 380.732 451.842 348.939C447.881 315.165 454.2 267.146 506.823 229.504C548.413 199.787 592.738 189.032 643.57 196.39C689.592 203.183 734.577 224.032 776.355 245.542C802.384 258.938 821.245 281.202 839.353 302.712C857.365 323.939 875.85 345.826 900.935 358.279C911.781 363.656 923.475 366.486 935.452 366.486C975.816 366.486 1013.54 336.203 1038.44 316.108C1045.32 310.637 1051.17 305.92 1055.6 303.089C1099.17 275.636 1143.59 254.693 1187.44 240.825C1230.16 227.334 1271.38 220.73 1309.95 221.485C1348.52 222.145 1383.32 229.975 1413.31 244.693C1444.15 259.881 1468.95 281.957 1487.25 310.354C1510.82 347.052 1504.13 393.845 1498.28 435.166C1497.34 441.77 1496.49 447.808 1495.73 453.846C1490.26 497.431 1487.62 553.375 1515.63 599.602C1532.14 626.866 1559.01 646.772 1584.95 666.017C1593.72 672.527 1602.4 678.942 1610.41 685.451C1622.2 694.98 1634.27 704.791 1645.21 715.64C1665.87 736.301 1682.93 762.716 1694.44 791.962C1705.85 820.924 1711.79 852.245 1711.42 882.434C1710.85 934.699 1691.8 981.398 1657.75 1013.95C1628.43 1042.06 1588.16 1064.7 1541.28 1079.61C1506.39 1090.74 1468.39 1097.44 1428.3 1099.51C1419.06 1099.98 1409.54 1100.27 1399.92 1100.27H1400.11ZM613.769 198.56C576.14 198.56 542 209.881 509.558 233.089C458.632 269.504 452.502 315.92 456.369 348.467C460.047 379.505 474.57 412.336 497.487 440.827C519.932 468.846 548.696 490.921 578.592 503.091C588.4 507.054 599.056 510.922 611.033 514.789C633.573 522.148 656.773 528.28 679.218 534.129C741.65 550.545 800.215 566.016 851.707 605.073C912.913 651.395 957.52 724.98 1004.77 802.905C1045.79 870.642 1088.32 940.643 1143.97 995.077C1206.78 1056.49 1278.26 1089.04 1362.57 1094.42C1384.83 1095.83 1407.18 1096.02 1428.3 1094.89C1468.01 1092.81 1505.64 1086.12 1540.15 1075.17C1586.36 1060.45 1626.07 1038.1 1654.93 1010.45C1688.12 978.756 1706.7 933.19 1707.27 882.151C1707.64 852.529 1701.8 821.773 1690.57 793.283C1679.26 764.603 1662.56 738.659 1642.29 718.471C1631.54 707.716 1619.47 697.999 1607.87 688.565C1599.94 682.15 1591.27 675.734 1582.97 669.508C1556.37 649.791 1529.12 629.602 1512.14 601.583C1483.38 554.224 1486.11 497.336 1491.58 452.996C1492.34 446.959 1493.19 440.921 1494.13 434.506C1499.98 393.751 1506.49 347.807 1483.76 312.523C1465.93 284.787 1441.7 263.278 1411.61 248.466C1382.19 234.032 1348.05 226.296 1310.14 225.73C1271.94 225.07 1231.3 231.579 1189.05 244.881C1145.57 258.655 1101.53 279.41 1058.24 306.674C1054 309.316 1048.24 314.033 1041.45 319.41C1015.99 339.882 977.608 370.732 935.641 370.732C922.909 370.732 910.649 367.807 899.144 362.147C873.303 349.316 854.442 327.052 836.146 305.448C818.228 284.221 799.649 262.334 774.469 249.315C732.973 227.9 688.366 207.239 643.004 200.636C633.007 199.126 623.105 198.466 613.674 198.466L613.769 198.56Z" fill="url(#paint12_linear_713_25514)"/>
<path d="M1493.09 1386.48C1458.39 1386.48 1424.16 1378.75 1391.15 1363.37C1355.69 1346.86 1321.93 1319.78 1290.99 1282.8C1257.99 1243.46 1233.18 1200.82 1206.97 1155.63C1124.07 1012.9 1030.23 851.101 629.99 779.874C611.695 776.667 594.059 773.931 577.084 771.289C567.182 769.78 557.468 768.27 547.848 766.666C366.778 737.232 319.247 703.175 298.876 688.647C195.138 614.401 133.272 548.74 103.659 414.116C76.4983 290.719 144.777 150.246 259.078 94.3017C390.637 29.8671 526.063 58.924 541.058 62.4146C611.978 79.0185 642.628 75.6223 678.276 71.7543C690.63 70.4335 703.456 69.0184 718.923 68.2637C818.417 63.358 922.722 90.6224 1028.72 149.302C1082.29 178.925 1122.75 208.737 1156.04 243.171C1191.88 280.152 1220.17 323.643 1242.33 376.002C1252.33 399.588 1257.7 424.776 1262.8 449.116L1263.08 450.248C1264.12 454.965 1265.15 459.871 1266.19 464.683C1272.7 494.4 1280.71 526.004 1295.8 555.155C1307.12 577.042 1322.77 596.571 1337.86 615.344L1342.77 621.476C1357.86 640.345 1372.1 656.382 1386.24 670.345C1412.18 696.005 1439.91 719.874 1466.78 742.987C1543.64 809.214 1623.15 877.705 1682.94 1003.08C1712.55 1065.25 1724.15 1128.37 1716.51 1185.73C1709.53 1237.99 1687.09 1284.5 1651.53 1320.35C1619.18 1352.99 1578.25 1374.6 1533.08 1382.8C1523.84 1384.5 1514.31 1385.54 1504.98 1386.11C1501.02 1386.29 1497.06 1386.39 1493.09 1386.39V1386.48ZM447.033 57.3202C394.881 57.3202 327.451 65.7165 260.964 98.3583C148.455 153.453 81.2138 291.756 107.903 413.267C137.233 546.476 198.533 611.571 301.328 685.156C321.416 699.496 368.381 733.176 548.414 762.421C558.034 764.025 567.747 765.44 577.65 767.044C594.719 769.685 612.355 772.421 630.651 775.629C1032.87 847.233 1127.37 1009.88 1210.64 1153.46C1236.77 1198.56 1261.48 1241.01 1294.2 1280.07C1324.76 1316.48 1357.95 1343.18 1392.85 1359.41C1428.97 1376.2 1466.78 1383.84 1504.6 1381.77C1513.84 1381.29 1523.08 1380.16 1532.14 1378.56C1576.37 1370.54 1616.54 1349.41 1648.23 1317.43C1683.03 1282.24 1705.1 1236.58 1711.89 1185.26C1719.43 1128.84 1708.02 1066.48 1678.69 1005.16C1619.28 880.535 1540.15 812.422 1463.67 746.478C1436.79 723.364 1408.97 699.402 1382.94 673.647C1368.7 659.59 1354.37 643.458 1339.09 624.401L1334.19 618.363C1318.81 599.306 1303.06 579.589 1291.56 557.325C1276.19 527.608 1268.08 495.721 1261.57 465.72C1260.53 461.003 1259.49 456.098 1258.46 451.286L1258.17 450.154C1253.08 426.003 1247.8 401.097 1237.9 377.889C1215.92 326.002 1187.91 282.983 1152.46 246.379C1119.45 212.322 1079.27 182.699 1026.08 153.264C920.836 94.9621 817.286 67.8863 718.64 72.792C703.362 73.5468 690.63 74.9619 678.276 76.2826C642.345 80.2449 611.223 83.6412 539.644 66.8486C532.382 65.1505 496.545 57.4145 446.656 57.4145L447.033 57.3202Z" fill="url(#paint13_linear_713_25514)"/>
<path d="M1675.68 1005.83C1657.2 941.022 1629.28 882.343 1590.33 826.587C1552.23 772.059 1506.12 724.134 1466.04 684.322C1452.17 670.548 1439.06 656.303 1425.2 641.208C1419.54 635.076 1413.6 629.038 1407.85 623.095C1391.63 606.585 1374.84 589.415 1363.52 568.849C1344.76 534.981 1339.57 495.547 1336.93 461.49C1336.65 457.339 1336.36 452.999 1335.99 448.754V447.15C1333.82 416.301 1331.74 384.508 1317.69 355.828C1295.43 310.167 1267.14 273.186 1231.4 242.808C1198.3 214.695 1157.56 191.487 1107.01 171.676C1040.71 145.826 970.167 132.713 897.267 132.713C871.426 132.713 845.397 134.411 819.746 137.807C808.9 139.223 792.396 144.223 779.005 148.279C741.847 159.6 705.822 170.638 655.744 150.543C650.84 148.562 644.805 145.638 637.92 142.241C605.007 126.109 549.931 99.1278 464.677 101.958C336.419 104.222 258.898 181.959 231.36 247.903C205.236 314.885 220.42 393.376 273.987 468.943C291.151 493.094 349.904 563.66 414.6 624.51C475.9 682.246 580.298 736.115 693.939 768.474L741.093 782.436C1016.38 863.38 1108.89 989.419 1190.47 1100.65C1222.72 1144.7 1253.28 1186.21 1292.89 1223.19C1323.63 1251.87 1352.87 1271.12 1382.29 1282.06C1411.72 1293.01 1441.71 1298.57 1471.51 1298.57C1475.66 1298.57 1479.71 1298.48 1483.86 1298.29C1493.57 1297.82 1503.29 1296.59 1512.81 1294.89C1553.08 1287.44 1589.86 1269.23 1619.19 1242.16C1648.33 1215.18 1669.18 1180.27 1679.45 1141.12C1690.58 1098.76 1689.36 1053.29 1675.87 1006.02L1675.68 1005.83ZM1675.02 1139.89C1664.93 1178.19 1644.56 1212.44 1616.08 1238.86C1587.41 1265.36 1551.39 1283.29 1511.87 1290.55C1502.63 1292.25 1493.1 1293.38 1483.48 1293.86C1450.38 1295.65 1416.53 1290.18 1383.71 1277.91C1354.85 1267.16 1326.08 1248.19 1295.81 1219.89C1256.48 1183.19 1226.12 1141.78 1193.86 1097.91C1111.82 986.117 1018.92 859.418 742.13 778.096L694.977 764.134C581.996 731.964 478.257 678.567 417.429 621.208C347.924 555.641 290.491 484.697 277.476 466.301C224.758 391.961 209.857 314.885 235.415 249.412C262.387 184.789 338.588 108.562 464.677 106.298C468.827 106.109 472.976 106.109 477.031 106.109C554.081 106.109 604.913 131.015 635.846 146.109C642.824 149.506 648.86 152.525 653.953 154.506C705.445 175.166 742.13 164.034 780.136 152.43C793.339 148.468 809.749 143.468 820.217 142.147C845.68 138.845 871.615 137.147 897.172 137.147C969.506 137.147 1039.58 150.166 1105.31 175.827C1155.39 195.355 1195.75 218.374 1228.48 246.205C1263.84 276.205 1291.66 312.715 1313.64 357.809C1327.22 385.734 1329.29 417.15 1331.36 447.527V449.131C1331.74 453.376 1332.03 457.716 1332.4 461.867C1335.04 496.396 1340.32 536.396 1359.56 571.019C1371.26 592.151 1388.23 609.416 1404.64 626.208C1410.4 632.057 1416.34 638.095 1421.9 644.227C1435.76 659.416 1448.87 673.661 1462.83 687.529C1502.82 727.152 1548.74 774.983 1586.56 829.135C1625.23 884.512 1652.95 942.72 1671.34 1007.06C1684.64 1053.57 1685.77 1098.29 1674.93 1139.89H1675.02Z" fill="url(#paint14_linear_713_25514)"/>
<path d="M1679.27 1004.49C1627.21 871.469 1549.12 796.186 1466.41 716.562L1465.47 715.713C1452.55 703.26 1439.25 690.43 1426.14 677.411C1410.49 661.939 1396.06 645.429 1383.99 631.373C1380.12 626.844 1376.07 622.222 1372.11 617.788L1371.16 616.75C1356.07 599.863 1340.51 582.316 1329.57 561.938C1312.79 530.711 1306.19 495.9 1301.47 463.069C1300.9 458.918 1300.34 454.673 1299.68 449.956V448.918C1295.81 421.088 1292.04 392.314 1279.97 365.898C1237.15 272.124 1173.68 210.708 1067.78 160.425C994.687 125.802 909.716 106.651 800.413 100.141C788.53 99.3866 756.371 99.0092 724.873 107.406C674.041 122.877 633.3 116.368 608.968 108.066C470.713 60.6126 386.685 82.4053 359.147 89.4808C357.921 89.7638 236.264 123.538 182.509 225.142C151.859 283.068 150.161 350.993 177.511 426.937C203.257 503.919 326.894 678.826 496.271 734.298C556.722 754.676 683.189 780.714 685.546 781.185C1024.02 858.356 1117.85 1002.41 1200.56 1129.58C1229.23 1173.64 1256.3 1215.25 1291.85 1253.08C1322.97 1286.28 1354 1309.02 1386.63 1322.79C1417.94 1336 1450.19 1342.7 1482.45 1342.7C1486.5 1342.7 1490.46 1342.61 1494.52 1342.42C1504.04 1341.95 1513.57 1340.81 1522.9 1339.12C1565.63 1331.28 1604.48 1311.28 1635.22 1281.38C1667.38 1249.96 1688.98 1209.21 1697.56 1163.55C1706.99 1113.36 1700.86 1059.87 1679.27 1004.68V1004.49ZM1693.22 1162.51C1684.83 1207.32 1663.71 1247.23 1632.21 1277.98C1602.12 1307.32 1564.02 1326.95 1522.15 1334.59C1513 1336.28 1503.57 1337.32 1494.33 1337.89C1458.78 1339.78 1422.94 1333.27 1388.33 1318.64C1356.26 1305.15 1325.8 1282.7 1295.06 1249.96C1259.79 1212.42 1232.81 1171 1204.24 1127.13C1121.06 999.301 1026.75 854.394 686.395 776.846C685.075 776.563 558.137 750.43 497.591 730.053C329.723 675.147 207.123 501.843 181.566 425.522C154.688 350.804 156.291 284.105 186.281 227.312C239.094 127.406 358.864 94.1978 360.09 93.9148C374.142 90.3299 402.812 82.877 446.005 82.877C486.934 82.877 540.784 89.5752 607.365 112.406C632.357 120.991 673.946 127.594 726.004 111.84C756.843 103.632 788.342 104.104 800.036 104.764C908.773 111.179 993.178 130.236 1065.8 164.576C1170.67 214.293 1233.57 275.143 1275.82 367.88C1287.61 393.729 1291.38 422.125 1295.06 449.673L1295.25 451.182C1295.81 455.428 1296.38 459.673 1296.94 463.824C1301.66 497.126 1308.45 532.315 1325.52 564.202C1336.65 585.051 1352.4 602.693 1367.67 619.863L1368.62 620.901C1372.58 625.335 1376.54 629.863 1380.5 634.392C1392.67 648.543 1407.19 665.052 1422.94 680.618C1436.14 693.637 1449.44 706.562 1462.36 718.921L1463.3 719.77C1545.63 799.11 1623.44 874.016 1675.12 1006.19C1696.43 1060.62 1702.47 1113.26 1693.22 1162.6V1162.51Z" fill="url(#paint15_linear_713_25514)"/>
<path d="M1677.48 1005.15C1628.44 861.474 1543.28 777.134 1453.21 687.888L1446.05 680.812C1431.24 666.189 1417.47 650.717 1404.55 636.189C1399.55 630.529 1394.37 624.962 1389.27 619.491C1373.71 602.887 1357.59 585.622 1346.55 565.245C1328.82 532.603 1322.79 494.772 1319.2 462.131C1318.73 457.602 1318.26 452.98 1317.79 447.98C1314.87 418.64 1311.94 388.356 1298.93 360.715C1276.58 313.356 1248.28 274.77 1212.54 242.789C1179.53 213.166 1138.6 188.071 1087.49 165.996C996.576 126.656 893.121 110.241 793.438 119.392C781.743 120.429 768.352 123.731 754.111 127.316C732.892 132.599 708.843 138.543 684.701 138.543C674.327 138.543 664.802 137.505 655.56 135.335C635.849 130.807 618.119 124.014 600.767 117.41C579.925 109.486 555.122 100.807 529.659 96.6555C521.548 95.3348 479.393 88.8253 447.423 91.9385C323.502 100.052 261.259 152.882 230.986 195.713C186.19 259.016 185.058 334.205 198.827 383.356C224.102 473.169 266.823 520.905 304.735 563.264C343.59 606.943 398.76 656.284 436.766 680.057C477.978 709.303 558.517 740.435 669.706 770.247C672.158 770.907 673.855 771.379 674.893 771.662C682.909 773.643 689.888 775.53 697.338 777.511C702.336 778.832 707.523 780.153 713.37 781.662C1020.53 861.097 1113.8 996.192 1196.23 1115.44C1226.5 1159.31 1255.17 1200.72 1292.42 1237.99C1323.45 1268.93 1353.53 1289.97 1384.46 1302.33C1414.83 1314.4 1445.95 1320.54 1477.07 1320.54C1481.13 1320.54 1485.18 1320.44 1489.24 1320.25C1498.86 1319.78 1508.57 1318.65 1517.91 1316.86C1559.41 1309.21 1597.22 1290.06 1627.21 1261.57C1657.86 1232.42 1678.99 1194.59 1688.42 1152.14C1698.7 1105.82 1695.02 1056.38 1677.57 1005.15H1677.48ZM1683.99 1151.19C1674.74 1192.7 1654 1229.78 1624.01 1258.36C1594.58 1286.38 1557.61 1305.06 1516.87 1312.52C1507.72 1314.21 1498.29 1315.35 1488.77 1315.82C1454.44 1317.7 1419.55 1311.67 1385.88 1298.27C1355.51 1286.2 1325.8 1265.44 1295.34 1234.97C1258.28 1197.99 1229.8 1156.67 1199.62 1112.99C1116.82 993.173 1022.98 857.323 714.219 777.511C708.372 776.002 703.279 774.681 698.281 773.36C690.925 771.379 683.852 769.586 675.93 767.511C674.987 767.228 673.195 766.756 670.743 766.096C561.629 736.85 479.393 705.057 439.123 676.472C401.4 652.793 346.607 603.83 307.941 560.434C270.407 518.452 227.968 471.093 203.071 382.224C189.491 334.016 190.717 260.336 234.57 198.355C277.291 137.977 350.946 102.693 447.8 96.3725C453.741 95.8065 459.965 95.5234 466.284 95.5234C493.728 95.5234 522.397 99.9574 528.904 100.995C553.99 105.146 578.51 113.731 599.258 121.561C616.61 128.165 634.529 134.958 654.522 139.58C664.047 141.845 673.95 142.882 684.606 142.882C709.315 142.882 733.646 136.845 755.148 131.562C769.2 128.071 782.404 124.769 793.721 123.731C892.555 114.675 995.256 130.995 1085.6 170.052C1136.25 191.939 1176.8 216.845 1209.43 246.091C1244.79 277.695 1272.71 315.903 1294.78 362.601C1307.41 389.488 1310.43 419.394 1313.26 448.546C1313.73 453.357 1314.2 457.98 1314.68 462.508C1318.26 495.622 1324.39 534.018 1342.5 567.32C1353.81 588.17 1370.13 605.623 1385.88 622.415C1390.97 627.793 1396.16 633.359 1401.16 639.019C1414.08 653.548 1427.94 669.019 1442.84 683.831L1450.01 690.906C1539.79 779.775 1624.48 863.738 1673.23 1006.48C1690.49 1056.95 1694.08 1105.63 1683.99 1151.1V1151.19Z" fill="url(#paint16_linear_713_25514)"/>
</g>
<defs>
<linearGradient id="paint0_linear_713_25514" x1="170.248" y1="-0.881768" x2="1545.46" y2="1419.41" gradientUnits="userSpaceOnUse">
<stop stop-color="#AFB388"/>
<stop offset="0.31" stop-color="#41929E"/>
<stop offset="0.49" stop-color="#27758D"/>
<stop offset="0.68" stop-color="#115C7E"/>
<stop offset="0.86" stop-color="#044D76"/>
<stop offset="1" stop-color="#004873"/>
</linearGradient>
<linearGradient id="paint1_linear_713_25514" x1="185.323" y1="-15.4216" x2="1560.54" y2="1404.87" gradientUnits="userSpaceOnUse">
<stop stop-color="#AFB388"/>
<stop offset="0.31" stop-color="#41929E"/>
<stop offset="0.49" stop-color="#27758D"/>
<stop offset="0.68" stop-color="#115C7E"/>
<stop offset="0.86" stop-color="#044D76"/>
<stop offset="1" stop-color="#004873"/>
</linearGradient>
<linearGradient id="paint2_linear_713_25514" x1="203.645" y1="-33.1322" x2="1578.86" y2="1387.16" gradientUnits="userSpaceOnUse">
<stop stop-color="#AFB388"/>
<stop offset="0.31" stop-color="#41929E"/>
<stop offset="0.49" stop-color="#27758D"/>
<stop offset="0.68" stop-color="#115C7E"/>
<stop offset="0.86" stop-color="#044D76"/>
<stop offset="1" stop-color="#004873"/>
</linearGradient>
<linearGradient id="paint3_linear_713_25514" x1="237.21" y1="-65.6946" x2="1612.43" y2="1354.6" gradientUnits="userSpaceOnUse">
<stop stop-color="#AFB388"/>
<stop offset="0.31" stop-color="#41929E"/>
<stop offset="0.49" stop-color="#27758D"/>
<stop offset="0.68" stop-color="#115C7E"/>
<stop offset="0.86" stop-color="#044D76"/>
<stop offset="1" stop-color="#004873"/>
</linearGradient>
<linearGradient id="paint4_linear_713_25514" x1="307.466" y1="-133.717" x2="1682.68" y2="1286.57" gradientUnits="userSpaceOnUse">
<stop stop-color="#AFB388"/>
<stop offset="0.31" stop-color="#41929E"/>
<stop offset="0.49" stop-color="#27758D"/>
<stop offset="0.68" stop-color="#115C7E"/>
<stop offset="0.86" stop-color="#044D76"/>
<stop offset="1" stop-color="#004873"/>
</linearGradient>
<linearGradient id="paint5_linear_713_25514" x1="322.07" y1="-147.875" x2="1697.29" y2="1272.42" gradientUnits="userSpaceOnUse">
<stop stop-color="#AFB388"/>
<stop offset="0.31" stop-color="#41929E"/>
<stop offset="0.49" stop-color="#27758D"/>
<stop offset="0.68" stop-color="#115C7E"/>
<stop offset="0.86" stop-color="#044D76"/>
<stop offset="1" stop-color="#004873"/>
</linearGradient>
<linearGradient id="paint6_linear_713_25514" x1="335.656" y1="-161.089" x2="1710.97" y2="1259.2" gradientUnits="userSpaceOnUse">
<stop stop-color="#AFB388"/>
<stop offset="0.31" stop-color="#41929E"/>
<stop offset="0.49" stop-color="#27758D"/>
<stop offset="0.68" stop-color="#115C7E"/>
<stop offset="0.86" stop-color="#044D76"/>
<stop offset="1" stop-color="#004873"/>
</linearGradient>
<linearGradient id="paint7_linear_713_25514" x1="348.28" y1="-173.256" x2="1723.5" y2="1247.03" gradientUnits="userSpaceOnUse">
<stop stop-color="#AFB388"/>
<stop offset="0.31" stop-color="#41929E"/>
<stop offset="0.49" stop-color="#27758D"/>
<stop offset="0.68" stop-color="#115C7E"/>
<stop offset="0.86" stop-color="#044D76"/>
<stop offset="1" stop-color="#004873"/>
</linearGradient>
<linearGradient id="paint8_linear_713_25514" x1="360.343" y1="-184.941" x2="1735.56" y2="1235.35" gradientUnits="userSpaceOnUse">
<stop stop-color="#AFB388"/>
<stop offset="0.31" stop-color="#41929E"/>
<stop offset="0.49" stop-color="#27758D"/>
<stop offset="0.68" stop-color="#115C7E"/>
<stop offset="0.86" stop-color="#044D76"/>
<stop offset="1" stop-color="#004873"/>
</linearGradient>
<linearGradient id="paint9_linear_713_25514" x1="372.142" y1="-196.362" x2="1747.36" y2="1223.93" gradientUnits="userSpaceOnUse">
<stop stop-color="#AFB388"/>
<stop offset="0.31" stop-color="#41929E"/>
<stop offset="0.49" stop-color="#27758D"/>
<stop offset="0.68" stop-color="#115C7E"/>
<stop offset="0.86" stop-color="#044D76"/>
<stop offset="1" stop-color="#004873"/>
</linearGradient>
<linearGradient id="paint10_linear_713_25514" x1="383.649" y1="-207.502" x2="1758.87" y2="1212.79" gradientUnits="userSpaceOnUse">
<stop stop-color="#AFB388"/>
<stop offset="0.31" stop-color="#41929E"/>
<stop offset="0.49" stop-color="#27758D"/>
<stop offset="0.68" stop-color="#115C7E"/>
<stop offset="0.86" stop-color="#044D76"/>
<stop offset="1" stop-color="#004873"/>
</linearGradient>
<linearGradient id="paint11_linear_713_25514" x1="394.993" y1="-218.435" x2="1770.21" y2="1201.86" gradientUnits="userSpaceOnUse">
<stop stop-color="#AFB388"/>
<stop offset="0.31" stop-color="#41929E"/>
<stop offset="0.49" stop-color="#27758D"/>
<stop offset="0.68" stop-color="#115C7E"/>
<stop offset="0.86" stop-color="#044D76"/>
<stop offset="1" stop-color="#004873"/>
</linearGradient>
<linearGradient id="paint12_linear_713_25514" x1="406.009" y1="-229.18" x2="1781.32" y2="1191.11" gradientUnits="userSpaceOnUse">
<stop stop-color="#AFB388"/>
<stop offset="0.31" stop-color="#41929E"/>
<stop offset="0.49" stop-color="#27758D"/>
<stop offset="0.68" stop-color="#115C7E"/>
<stop offset="0.86" stop-color="#044D76"/>
<stop offset="1" stop-color="#004873"/>
</linearGradient>
<linearGradient id="paint13_linear_713_25514" x1="219.94" y1="-49.0016" x2="1595.16" y2="1371.29" gradientUnits="userSpaceOnUse">
<stop stop-color="#AFB388"/>
<stop offset="0.31" stop-color="#41929E"/>
<stop offset="0.49" stop-color="#27758D"/>
<stop offset="0.68" stop-color="#115C7E"/>
<stop offset="0.86" stop-color="#044D76"/>
<stop offset="1" stop-color="#004873"/>
</linearGradient>
<linearGradient id="paint14_linear_713_25514" x1="290.302" y1="-117.101" x2="1665.52" y2="1303.19" gradientUnits="userSpaceOnUse">
<stop stop-color="#AFB388"/>
<stop offset="0.31" stop-color="#41929E"/>
<stop offset="0.49" stop-color="#27758D"/>
<stop offset="0.68" stop-color="#115C7E"/>
<stop offset="0.86" stop-color="#044D76"/>
<stop offset="1" stop-color="#004873"/>
</linearGradient>
<linearGradient id="paint15_linear_713_25514" x1="255.409" y1="-83.351" x2="1630.63" y2="1336.94" gradientUnits="userSpaceOnUse">
<stop stop-color="#AFB388"/>
<stop offset="0.31" stop-color="#41929E"/>
<stop offset="0.49" stop-color="#27758D"/>
<stop offset="0.68" stop-color="#115C7E"/>
<stop offset="0.86" stop-color="#044D76"/>
<stop offset="1" stop-color="#004873"/>
</linearGradient>
<linearGradient id="paint16_linear_713_25514" x1="272.293" y1="-99.6671" x2="1647.51" y2="1320.62" gradientUnits="userSpaceOnUse">
<stop stop-color="#AFB388"/>
<stop offset="0.31" stop-color="#41929E"/>
<stop offset="0.49" stop-color="#27758D"/>
<stop offset="0.68" stop-color="#115C7E"/>
<stop offset="0.86" stop-color="#044D76"/>
<stop offset="1" stop-color="#004873"/>
</linearGradient>
</defs>
</svg>
