<svg width="393" height="641" viewBox="0 0 393 641" fill="none" xmlns="http://www.w3.org/2000/svg">
<g opacity="0.05">
<path d="M550.198 640.735C543.378 640.735 536.557 640.028 529.82 638.655C500.834 632.706 474.509 614.443 453.674 585.78C440.075 567.1 430.177 547.048 419.656 525.873C381.686 449.201 342.428 369.867 126.008 343.449C107.793 341.245 91.1163 339.996 74.9388 338.79C16.7167 333.299 -80.6807 324.063 -109.542 209.825C-117.818 177.043 -134.495 66.2987 -1.20744 16.5015C55.7671 -5.08984 113.657 -1.6369 167.762 5.31059C227.73 13.0069 262.248 28.6908 312.61 58.7688C334.568 71.915 352.326 86.9748 370.084 107.609C386.095 126.164 398.446 147.505 407.886 172.841C410.215 179.039 412.461 185.446 414.665 191.603L414.748 191.853C424.064 218.062 433.671 245.145 449.89 267.901C469.477 295.399 494.638 313.122 521.337 331.884C539.51 344.697 558.266 357.927 576.689 375.108C597.608 394.62 614.908 416.46 629.547 441.879C651.297 479.57 659.323 517.677 652.794 552.041C647.013 582.451 630.17 608.078 605.343 624.219C590.33 633.996 573.071 639.612 555.48 640.569C553.733 640.652 551.945 640.694 550.198 640.694V640.735ZM96.5642 1.98245C64.4588 1.98245 31.8128 6.10102 -0.500473 18.3735C-132.249 67.5884 -115.78 177.001 -107.629 209.367C-95.2779 258.207 -70.0344 291.78 -30.4017 311.999C2.66015 328.847 39.8391 333.548 75.1051 336.876C91.2826 338.083 108.042 339.331 126.258 341.536C343.717 368.078 383.225 447.87 421.402 525.041C431.882 546.175 441.738 566.143 455.254 584.698C475.798 612.945 501.707 630.959 530.195 636.783C538.512 638.489 546.996 639.113 555.355 638.697C572.614 637.782 589.54 632.249 604.262 622.68C628.59 606.872 645.142 581.661 650.839 551.791C657.285 517.885 649.342 480.278 627.841 442.961C613.286 417.709 596.11 396.034 575.317 376.648C556.977 359.549 538.304 346.362 520.172 333.631C493.348 314.744 468.022 296.897 448.226 269.149C431.841 246.143 422.193 218.935 412.835 192.602L412.752 192.31C410.548 186.153 408.302 179.788 405.974 173.59C396.616 148.462 384.348 127.328 368.503 108.94C350.87 88.4725 333.279 73.5374 311.487 60.5161C261.375 30.5628 227.023 14.9622 167.387 7.30747C144.306 4.35375 120.518 2.02405 96.4394 2.02405L96.5642 1.98245Z" fill="url(#paint0_linear_713_26015)"/>
<path d="M647.253 489.592C643.677 473.824 637.439 457.766 628.747 441.833C598.222 386.003 561.334 358.172 525.611 331.255C508.976 318.692 493.214 306.835 478.742 292.566C471.589 285.493 465.101 278.047 458.988 269.768C451.419 259.576 445.888 250.714 441.48 241.812C435.533 229.706 431.166 216.726 427.714 205.577C426.924 202.997 426.134 200.376 425.344 197.839L425.094 197.048C422.391 188.187 419.605 179.076 416.194 170.257C406.588 145.67 394.195 125.036 378.267 107.23C363.587 90.7973 345.496 76.0703 321.292 60.8857C276.711 32.8877 226.806 16.039 176.943 12.2533C172.867 11.8373 167.752 11.9205 161.348 12.0453C151.367 12.2533 138.724 12.4613 123.586 10.8804C101.462 8.59232 67.7763 5.09778 23.3195 16.9127C-87.5106 46.2835 -99.4877 130.569 -100.777 147.168C-104.104 186.107 -89.59 294.105 16.1249 325.764C31.6785 331.255 68.1506 335.249 100.339 338.785C114.936 340.366 128.702 341.905 138.267 343.32C341.504 371.526 380.887 447.158 419.022 520.335C429.835 541.053 440.024 560.647 453.873 578.827C467.596 596.882 483.275 610.445 500.45 619.098C515.671 626.752 531.641 630.663 547.901 630.663C549.648 630.663 551.395 630.621 553.183 630.538C557.3 630.33 561.459 629.831 565.534 629.124C586.453 625.38 605.458 615.187 620.471 599.67C637.647 581.906 648.002 558.775 650.414 532.816C651.703 518.879 650.664 504.319 647.295 489.55L647.253 489.592ZM648.418 532.691C646.047 558.193 635.9 580.907 619.016 598.338C604.294 613.565 585.704 623.549 565.16 627.21C561.168 627.917 557.092 628.417 553.058 628.625C535.384 629.581 517.875 625.754 501.324 617.392C484.439 608.822 468.969 595.468 455.411 577.662C441.688 559.607 431.499 540.096 420.727 519.42C382.384 445.827 342.751 369.737 138.516 341.406C128.951 339.95 115.144 338.452 100.547 336.872C68.4833 333.377 32.136 329.383 16.7487 323.933C-87.7601 292.607 -102.108 185.857 -98.8223 147.334C-97.5747 130.985 -85.7223 47.8228 23.8186 18.8263C67.9427 7.13626 101.42 10.5892 123.378 12.8773C138.641 14.4582 151.367 14.2502 161.389 14.0421C167.752 13.9173 172.784 13.8341 176.777 14.2086C226.307 17.9943 275.921 34.7182 320.253 62.5498C344.29 77.6512 362.256 92.295 376.811 108.561C392.573 126.2 404.841 146.627 414.365 171.005C417.775 179.742 420.561 188.853 423.264 197.755L423.472 198.463C424.262 201.042 425.053 203.663 425.843 206.201C429.336 217.391 433.703 230.496 439.733 242.727C444.183 251.713 449.797 260.699 457.407 270.974C463.604 279.336 470.133 286.866 477.369 294.022C491.925 308.416 507.728 320.314 524.446 332.878C560.003 359.669 596.725 387.335 627.042 442.831C635.651 458.598 641.805 474.49 645.382 490.091C648.709 504.651 649.707 519.004 648.459 532.733L648.418 532.691Z" fill="url(#paint1_linear_713_26015)"/>
<path d="M627.94 442.135C599.578 386.846 563.813 358.058 529.254 330.143C514.574 318.328 500.725 307.137 487.542 294.116C480.846 287.501 474.484 280.263 468.079 271.942C460.968 262.707 454.147 253.596 448.949 243.32C442.669 230.881 438.802 217.652 435.516 205.255C434.892 202.883 434.269 200.471 433.645 197.974C431.108 188.073 428.488 177.798 424.496 168.063C405.906 122.426 378.5 92.098 329.926 63.3928C282.475 35.3116 231.406 20.5014 186.159 21.5831C182.25 21.6663 178.715 21.8327 175.388 21.9575C161.581 22.5399 150.685 22.9559 124.485 19.4198C71.4197 13.1795 46.5506 18.8374 36.4449 21.1255C-37.0814 38.4318 -81.2887 84.7345 -85.489 148.968C-87.9427 204.589 -65.6935 254.053 -19.1989 293.783C0.347092 310.382 15.4433 317.413 33.4506 323.445C51.8737 329.561 77.2835 334.47 109.056 338.047C122.655 339.545 136.213 341.376 150.477 343.622C340.365 373.492 381.702 448.666 418.174 515.063C429.32 535.364 439.841 554.501 454.023 572.224C467.705 589.363 482.967 602.135 499.394 610.123C514.283 617.32 529.795 620.981 545.598 620.981C547.344 620.981 549.091 620.939 550.879 620.856C555.038 620.648 559.238 620.149 563.314 619.4C583.733 615.697 602.281 605.838 616.878 590.861C633.264 574.096 643.369 552.255 646.073 527.793C649.067 500.793 642.787 471.173 627.857 442.093L627.94 442.135ZM644.201 527.626C641.539 551.672 631.6 573.097 615.548 589.53C601.2 604.215 583.068 613.867 563.023 617.528C558.989 618.235 554.913 618.734 550.796 618.942C533.621 619.858 516.528 616.28 500.309 608.417C484.132 600.554 469.119 587.949 455.603 571.059C441.546 553.461 431.066 534.366 419.921 514.106C383.241 447.377 341.654 371.703 150.81 341.708C136.504 339.462 122.905 337.631 109.264 336.092C77.6578 332.556 52.3312 327.689 34.0744 321.573C16.275 315.624 1.38677 308.677 -17.9097 292.285C-63.9052 252.972 -85.9465 204.007 -83.5344 149.051C-79.3341 85.8161 -35.7091 40.0958 36.8607 23.0391C43.3899 21.5415 56.989 18.4629 79.5708 18.4629C91.4232 18.4629 106.104 19.2534 124.236 21.3751C150.602 24.9528 161.539 24.4952 175.471 23.9128C178.798 23.788 182.291 23.6216 186.201 23.5384C231.115 22.4567 281.768 37.1837 328.928 65.0569C377.086 93.5541 404.243 123.591 422.666 168.77C426.575 178.38 429.195 188.572 431.732 198.432C432.356 200.928 432.979 203.383 433.603 205.712C436.889 218.234 440.798 231.547 447.161 244.152C452.401 254.553 459.304 263.747 466.457 273.065C472.945 281.427 479.349 288.749 486.086 295.447C499.353 308.552 513.243 319.743 527.965 331.599C562.399 359.347 597.956 388.011 626.152 442.925C640.916 471.672 647.112 500.918 644.16 527.543L644.201 527.626Z" fill="url(#paint2_linear_713_26015)"/>
<path d="M626.349 442.669C601.812 386.382 566.837 354.348 533.027 323.397L532.819 323.23C523.67 314.868 514.229 306.215 505.122 297.188C499.299 291.405 493.269 284.749 486.241 276.262C485.035 274.764 483.746 273.308 482.457 271.727L481.999 271.187C475.47 263.449 468.691 255.461 463.867 246.309C456.88 233.038 453.637 218.394 451.141 204.541C450.767 202.46 450.434 200.38 450.06 198.259C448.106 186.693 446.068 174.712 441.161 163.563C431.304 141.223 418.828 122.752 403.067 107.193C388.345 92.6735 370.628 80.3178 347.256 68.2949C306.792 47.4941 261.753 36.4696 216.964 36.4696C210.102 36.3864 202.616 37.5097 194.714 38.6329C179.785 40.7546 158.409 42.1275 140.609 37.7593C126.303 34.2647 97.8577 27.3588 63.7145 29.8965C11.2314 35.9288 -18.0044 60.2242 -33.3085 79.569C-55.433 107.525 -60.673 139.6 -58.2193 160.276C-51.4822 218.02 -15.0518 270.188 44.3764 307.172C76.5234 327.182 143.562 338.249 144.227 338.373C154.084 340.162 164.273 341.993 175.085 344.198C338.024 377.021 379.445 444.458 416.042 503.99C428.102 523.626 439.497 542.138 454.552 559.154C468.192 574.505 482.623 585.654 497.553 592.269C511.734 598.55 526.414 601.754 541.178 601.754C542.924 601.754 544.713 601.712 546.459 601.629C550.66 601.421 554.818 600.922 558.936 600.173C578.315 596.637 595.907 587.484 609.838 573.631C624.727 558.821 634.458 539.559 637.868 517.968C641.653 494.089 637.827 468.753 626.432 442.669H626.349ZM635.83 517.635C632.462 538.81 622.98 557.698 608.341 572.217C594.742 585.737 577.484 594.723 558.478 598.218C554.486 598.966 550.369 599.424 546.251 599.632C530.074 600.506 513.813 597.386 498.218 590.438C483.58 583.948 469.315 572.965 455.882 557.781C440.953 540.932 429.599 522.461 417.581 502.908C380.817 443.043 339.147 375.232 175.376 342.242C164.564 340.079 154.333 338.207 144.477 336.418C143.812 336.293 77.1472 325.269 45.333 305.508C-13.5962 268.857 -49.694 217.187 -56.3479 160.068C-58.76 139.767 -53.5616 108.274 -31.853 80.8171C-10.2276 53.4847 22.8343 36.5528 63.8393 31.8518C69.5367 31.4358 74.9431 31.2278 80.0999 31.2278C105.385 31.2278 128.341 36.7608 140.11 39.6729C158.242 44.1243 179.868 42.7515 194.964 40.5882C202.824 39.4649 210.31 38.4665 216.922 38.4665C261.379 38.4665 306.127 49.4078 346.341 70.0422C369.506 81.9403 387.097 94.2128 401.653 108.607C417.248 124 429.599 142.263 439.331 164.395C444.113 175.295 446.151 187.151 448.106 198.633C448.48 200.755 448.813 202.876 449.187 204.957C451.682 218.976 455.009 233.787 462.12 247.266C467.028 256.584 473.848 264.697 480.46 272.476L480.918 273.017C482.249 274.556 483.496 276.054 484.702 277.552C491.772 286.122 497.844 292.778 503.708 298.602C512.857 307.671 522.297 316.324 531.446 324.686L531.654 324.853C565.34 355.68 600.149 387.547 624.519 443.459C635.747 469.211 639.532 494.172 635.789 517.677L635.83 517.635Z" fill="url(#paint3_linear_713_26015)"/>
<path d="M531.232 562.897C518.714 562.897 506.03 560.692 493.512 556.365C481.036 552.038 468.892 544.55 455.293 532.777C436.496 516.511 421.982 497.873 406.636 478.154C371.204 432.683 331.114 381.18 223.985 345.236L223.07 344.904C168.133 326.474 131.869 314.285 88.4521 271.352C79.9267 262.948 71.1102 254.961 62.5848 247.223C44.3696 230.748 27.2356 215.231 14.6347 197.259C12.181 193.723 9.89374 190.103 7.81438 186.692C-3.12307 168.762 -7.73927 147.087 -4.86975 127.285C-1.25166 102.407 13.8445 81.0654 38.7969 65.5063C55.8477 54.8979 74.4372 49.7393 95.6467 49.7393C112.531 49.7393 128.958 53.0258 141.351 55.8963C152.164 58.3924 161.355 63.3014 170.254 68.0024C178.156 72.2042 186.307 76.5308 195.747 79.2765C199.823 80.4829 204.231 81.107 208.806 81.107C220.949 81.107 232.51 76.9884 242.741 73.4106C248.605 71.3306 253.637 69.5417 258.003 68.7929C272.642 66.2551 287.489 65.0071 302.211 65.0071C329.825 65.0071 356.565 69.4169 381.767 78.1532C427.056 93.8371 455.626 117.425 474.382 154.659C480.994 167.763 481.535 182.49 482.034 196.718V197.342C482.117 199.339 482.2 201.253 482.284 203.125C483.032 218.767 484.987 236.822 493.678 252.34C498.877 261.575 506.612 269.147 514.098 276.469C516.759 279.048 519.754 282.002 522.498 284.914L525.035 287.618C530.192 293.068 535.058 298.226 540.173 303.302C562.298 325.267 578.641 345.236 591.617 366.245C606.505 390.374 616.818 415.751 623.057 443.874C627.298 462.969 626.758 481.274 621.518 498.247C616.61 514.098 607.544 528.242 595.318 539.142C579.307 553.411 559.054 561.607 536.721 562.772C534.891 562.855 533.02 562.938 531.149 562.938L531.232 562.897ZM95.6883 51.7361C74.8531 51.7361 56.5962 56.8116 39.8781 67.212C15.4248 82.4382 0.619751 103.322 -2.87358 127.618C-5.70151 147.004 -1.16848 168.179 9.56104 185.735C11.6404 189.105 13.8445 192.724 16.2982 196.219C28.7327 214.024 45.8251 229.459 63.874 245.808C72.4826 253.588 81.2991 261.575 89.8661 270.02C132.95 312.621 169.048 324.768 223.735 343.115L224.65 343.447C332.32 379.599 372.66 431.352 408.217 476.989C423.521 496.667 437.993 515.221 456.624 531.362C470.015 542.969 481.951 550.333 494.178 554.576C508.317 559.485 522.706 561.607 536.721 560.858C558.596 559.693 578.433 551.706 594.112 537.728C606.089 527.036 614.947 513.224 619.771 497.707C624.928 481.066 625.427 463.094 621.268 444.332C615.072 416.458 604.883 391.248 590.078 367.327C577.186 346.443 560.925 326.557 538.925 304.716C533.769 299.599 528.903 294.441 523.746 288.991L521.209 286.287C518.506 283.416 515.512 280.504 512.85 277.925C505.24 270.52 497.38 262.823 492.057 253.338C483.157 237.446 481.161 219.1 480.412 203.25C480.329 201.378 480.246 199.422 480.163 197.467V196.843C479.622 182.823 479.081 168.346 472.677 155.616C454.171 118.84 425.974 95.5428 381.185 80.0669C356.191 71.4138 329.658 67.0456 302.252 67.0456C287.655 67.0456 272.892 68.3352 258.378 70.8313C254.177 71.5386 249.187 73.3274 243.448 75.3659C233.093 79.0269 221.323 83.187 208.847 83.187C204.106 83.187 199.532 82.563 195.248 81.315C185.642 78.4861 177.407 74.1179 169.423 69.8745C160.648 65.2151 151.582 60.3893 141.018 57.9348C128.709 55.0643 112.448 51.8193 95.7299 51.8193L95.6883 51.7361Z" fill="url(#paint4_linear_713_26015)"/>
<path d="M622.312 444.204C618.154 416.622 609.919 391.703 597.11 367.948C585.133 345.691 569.372 325.057 549.035 304.838C545.043 300.886 540.968 296.684 537.017 292.607L531.61 287.074C528.699 284.121 525.622 281.209 522.544 278.296C514.684 270.933 506.533 263.278 501.169 253.835C491.978 237.652 490.397 218.931 490.106 202.748C490.065 200.584 490.023 198.421 490.023 195.967C489.857 181.198 489.69 165.93 482.704 152.451C473.014 133.73 460.579 118.837 444.735 106.897C430.013 95.7897 412.255 87.2198 390.422 80.6467C369.254 74.2816 346.838 71.0783 323.757 71.0783C305.792 71.0783 287.576 73.0752 269.611 76.9441C265.535 77.8178 260.794 79.7731 255.305 82.0195C244.7 86.3461 232.64 91.2551 219.914 91.2551C215.256 91.2551 210.765 90.5479 206.606 89.2167C196.958 86.0965 188.682 81.1043 180.697 76.2369C171.964 70.9535 162.981 65.4621 152.168 62.5499C137.654 58.5978 115.072 54.4376 96.1086 54.7288C79.2657 55.02 63.3794 60.0122 47.5347 70.0799C35.9734 77.4018 26.6579 86.0965 19.9208 95.8313C13.7658 104.651 9.6903 114.427 7.77729 124.828C3.66015 147.209 9.815 172.129 24.2874 191.474C26.6578 194.677 29.2363 198.047 32.0642 201.375C44.1661 215.728 59.3039 228.083 75.3982 241.229C86.7931 250.548 98.6038 260.241 109.874 271.099C151.378 311.162 185.313 325.972 236.258 345.566C328.872 381.261 367.923 428.562 402.357 470.33C419.158 490.673 435.003 509.893 455.589 526.284C469.022 536.976 480.749 543.716 492.602 547.46C504.62 551.287 516.681 553.242 528.408 553.242C530.28 553.242 532.151 553.201 534.022 553.076C538.514 552.826 543.047 552.285 547.497 551.495C564.132 548.417 579.477 541.178 591.87 530.611C616.365 509.685 627.469 478.234 622.354 444.246L622.312 444.204ZM590.54 529.072C578.396 539.431 563.342 546.503 547.081 549.498C542.714 550.289 538.264 550.829 533.856 551.037C520.548 551.745 506.824 549.873 493.101 545.504C481.498 541.802 469.937 535.187 456.712 524.662C436.292 508.396 420.489 489.259 403.771 468.999C369.171 427.064 329.954 379.514 236.84 343.653C186.103 324.1 152.335 309.373 111.122 269.602C99.8099 258.702 87.9991 249.009 76.4794 239.607C60.5515 226.586 45.4969 214.23 33.4782 200.044C30.7334 196.757 28.155 193.387 25.7845 190.226C11.6448 171.297 5.61474 146.96 9.6487 125.077C11.5201 114.968 15.4709 105.441 21.4595 96.8298C28.0718 87.303 37.1794 78.8162 48.5328 71.6191C64.0864 61.7595 80.5965 56.8505 97.0651 56.5593C115.363 56.5593 137.696 60.5947 151.586 64.3388C162.108 67.2093 171.007 72.6176 179.657 77.8594C187.725 82.7684 196.043 87.8438 205.941 91.0055C210.349 92.42 215.007 93.1272 219.872 93.1272C232.972 93.1272 245.199 88.135 256.012 83.7252C261.418 81.5203 266.076 79.6066 269.985 78.7746C287.826 74.9057 305.916 72.9504 323.757 72.9504C346.63 72.9504 368.838 76.1537 389.839 82.4356C411.465 88.9254 429.056 97.4122 443.57 108.353C459.165 120.127 471.392 134.812 480.957 153.283C487.736 166.346 487.902 181.364 488.027 196.091C488.027 198.38 488.069 200.543 488.11 202.706C488.401 219.139 490.023 238.151 499.422 254.708C504.953 264.443 513.187 272.181 521.255 279.753C524.249 282.54 527.285 285.41 530.155 288.364L535.561 293.897C539.512 297.974 543.588 302.176 547.58 306.128C567.791 326.222 583.428 346.731 595.322 368.78C608.006 392.327 616.157 417.038 620.274 444.412C625.306 477.735 614.411 508.562 590.456 528.989L590.54 529.072Z" fill="url(#paint5_linear_713_26015)"/>
<path d="M621.528 444.534C617.869 391.201 596.451 344.69 557.858 306.333C555.197 303.671 552.494 300.967 549.749 298.221C546.796 295.267 543.802 292.23 540.766 289.193C537.688 286.156 534.403 283.161 531.118 280.207C522.842 272.761 514.275 265.023 508.661 255.288C498.971 238.439 497.848 218.138 497.931 202.329C497.931 200.124 497.931 197.961 498.014 195.423C498.222 180.738 498.513 164.097 491.069 150.202C472.563 115.589 443.369 94.2892 399.078 83.0983C362.273 73.7795 321.144 74.4452 281.22 85.012C277.519 86.0105 273.069 88.0489 267.912 90.4202C257.474 95.246 244.54 101.237 230.941 101.237C226.242 101.237 221.709 100.488 217.508 99.0318C207.61 95.5789 199.293 89.8794 191.267 84.388C182.7 78.5222 173.842 72.4483 162.987 69.0786C147.351 64.2528 128.304 59.3021 109.381 59.1357C90.0433 59.1357 72.3687 64.1696 56.316 74.5284C34.857 88.3818 21.9649 107.269 19.0538 129.151C15.3942 156.692 27.8703 181.778 40.7624 196.13C43.2992 198.918 46.2935 202.204 49.4541 205.366C61.0985 216.848 74.656 226.749 89.0868 237.191C103.143 247.425 117.657 257.992 131.215 270.722C170.307 307.498 201.331 324.888 248.449 345.855C326.342 380.551 363.687 423.525 396.625 461.424C415.256 482.849 432.847 503.109 455.762 519.75C468.945 529.318 480.34 535.309 491.568 538.554C502.963 541.841 514.441 543.505 525.67 543.505C527.624 543.505 529.621 543.463 531.534 543.338C552.951 542.215 572.622 534.852 588.383 522.121C611.548 503.401 623.608 475.195 621.528 444.617V444.534ZM587.136 520.499C571.665 532.979 552.41 540.177 531.409 541.3C518.6 541.965 505.292 540.385 492.067 536.557C481.047 533.395 469.86 527.488 456.885 518.086C434.136 501.57 416.628 481.393 398.08 460.052C365.018 421.986 327.507 378.845 249.198 343.983C202.329 323.099 171.388 305.792 132.504 269.224C118.863 256.37 104.266 245.761 90.1681 235.527C75.8621 225.127 62.3046 215.267 50.7849 203.91C47.6243 200.79 44.6716 197.545 42.1348 194.757C29.5338 180.779 17.3072 156.234 20.8837 129.359C23.7116 108.059 36.3126 89.6714 57.2725 76.1093C72.9925 65.9584 90.3344 61.0494 109.257 61.0494C127.929 61.2158 146.81 66.1248 162.28 70.909C172.844 74.1956 181.577 80.1862 190.061 85.9689C198.17 91.5435 206.571 97.2845 216.718 100.862C221.126 102.402 225.867 103.192 230.816 103.192C244.831 103.192 258.014 97.1181 268.619 92.2091C273.693 89.8794 278.059 87.8409 281.636 86.8841C321.268 76.4005 362.024 75.7348 398.538 84.9704C442.204 96.0365 471.066 117.045 489.281 151.117C496.476 164.596 496.226 180.946 496.018 195.381C496.018 197.919 495.935 200.124 495.935 202.329C495.852 218.387 497.016 239.022 506.914 256.286C512.653 266.271 521.345 274.092 529.828 281.747C532.989 284.617 536.275 287.571 539.31 290.566C542.346 293.561 545.382 296.598 548.293 299.552C551.038 302.298 553.741 305.044 556.403 307.664C594.663 345.688 615.872 391.742 619.491 444.617C621.528 474.529 609.718 502.153 587.053 520.457L587.136 520.499Z" fill="url(#paint6_linear_713_26015)"/>
<path d="M522.45 533.646C512.053 533.646 501.323 532.232 490.552 529.486C479.698 526.699 469.01 521.623 455.952 513.095C429.877 496.038 410.039 474.156 389.038 450.984C358.388 417.12 323.621 378.805 260.575 346.022C217.282 323.516 189.003 303.714 152.531 270.307C137.019 256.08 120.01 245.263 103.583 234.779C90.3997 226.376 77.9652 218.472 66.8198 209.236C63.9503 206.865 60.8728 204.161 57.1715 200.666C38.7483 183.526 28.102 157.109 30.0982 133.354C31.9281 111.514 43.9884 92.668 64.9484 78.8978C80.6268 68.5806 97.3864 63.5884 116.184 63.5884C136.229 63.5884 155.65 69.3294 173.657 75.5697C184.595 79.3554 193.328 86.0533 201.812 92.5432C209.838 98.7002 218.114 105.024 228.261 108.851C232.587 110.474 237.203 111.306 242.027 111.306C256.167 111.306 269.599 104.4 280.37 98.825C285.194 96.3289 289.395 94.1656 292.763 93.1256C317.3 85.3877 342.003 81.4771 366.206 81.4771C380.429 81.4771 394.361 82.85 407.669 85.5957C429.045 89.9639 446.678 96.8698 461.525 106.646C477.411 117.13 489.762 130.65 499.327 147.998C507.229 162.351 506.563 179.657 505.94 194.925C505.857 197.504 505.732 199.751 505.69 201.997C505.191 218.388 505.981 239.397 516.087 256.828C521.909 266.854 530.934 274.676 539.625 282.247C542.869 285.034 546.487 288.196 549.773 291.358C555.636 296.974 561.334 302.59 566.574 307.832C584.997 326.137 598.97 347.437 608.161 371.108C617.144 394.197 621.303 419.034 620.637 444.868C619.93 471.909 606.914 496.912 584.955 513.469C572.895 522.58 558.34 528.862 542.828 531.733C538.128 532.606 533.304 533.147 528.522 533.397C526.484 533.521 524.446 533.563 522.408 533.563L522.45 533.646ZM116.225 65.5437C97.8438 65.5437 81.4169 70.4527 66.0712 80.5619C45.6102 93.9992 33.8826 112.346 32.0944 133.562C30.1398 156.735 40.5366 182.528 58.5439 199.252C62.2452 202.705 65.281 205.409 68.109 207.738C79.1712 216.891 91.5226 224.753 104.623 233.074C121.174 243.599 138.225 254.499 153.904 268.81C190.251 302.091 218.447 321.852 261.531 344.234C324.91 377.182 359.76 415.664 390.535 449.611C411.453 472.7 431.207 494.499 457.075 511.389C469.967 519.793 480.447 524.785 491.093 527.531C503.777 530.776 516.337 532.107 528.48 531.483C533.221 531.233 537.962 530.693 542.536 529.819C557.757 526.99 572.063 520.833 583.874 511.889C605.333 495.706 618.059 471.244 618.766 444.785C619.473 419.158 615.314 394.613 606.414 371.774C597.349 348.352 583.5 327.302 565.285 309.205C560.003 303.963 554.347 298.347 548.483 292.731C545.24 289.611 541.622 286.449 538.419 283.703C529.561 276.007 520.412 268.061 514.465 257.785C504.068 239.896 503.32 218.555 503.777 201.914C503.819 199.668 503.944 197.421 504.027 195.05C504.651 179.824 505.316 162.767 497.664 148.914C488.265 131.857 476.122 118.544 460.485 108.269C445.846 98.617 428.421 91.7944 407.295 87.4678C394.112 84.7637 380.305 83.3908 366.206 83.3908C342.211 83.3908 317.716 87.2598 293.346 94.9561C290.143 95.9545 286.026 98.0762 281.285 100.531C270.306 106.189 256.666 113.261 242.027 113.261C236.995 113.261 232.129 112.387 227.555 110.682C217.158 106.771 208.757 100.323 200.606 94.0824C192.289 87.7174 183.638 81.1027 172.992 77.4002C155.151 71.2431 135.938 65.5437 116.142 65.5437H116.225Z" fill="url(#paint7_linear_713_26015)"/>
<path d="M519.254 523.876C509.565 523.876 499.584 522.753 489.603 520.507C479.206 518.177 468.934 513.85 456.208 506.528C425.849 488.931 403.226 464.552 379.313 438.718C352.032 409.264 321.133 375.941 272.808 346.237C233.674 322.191 207.142 299.435 173.955 269.898C156.696 254.547 137.4 243.938 118.727 233.663C106.542 226.965 95.0225 220.641 84.293 213.195C80.966 210.907 77.5143 208.327 73.6883 205.29C64.2479 197.885 55.8473 187.443 50.0667 175.961C43.787 163.481 40.7096 150.21 41.2086 137.604C42.0403 115.805 53.3105 97.0427 73.7714 83.3557C89.1171 73.0801 105.503 68.0879 123.801 68.0879C144.927 68.0879 165.471 74.8274 184.518 82.0661C195.539 86.2678 204.189 93.5897 212.548 100.662C220.574 107.443 228.85 114.474 239.206 118.634C243.655 120.423 248.396 121.338 253.304 121.338C268.026 121.338 281.874 113.434 292.978 107.069C297.469 104.489 301.337 102.285 304.414 101.161C332.112 90.9272 359.809 85.7686 386.799 85.7686C396.863 85.7686 406.802 86.5175 416.367 87.9735C459.577 94.6298 489.478 113.517 507.735 145.675C516.094 160.444 514.971 178.416 514.014 194.266C513.848 196.804 513.723 199.175 513.598 201.546C512.725 218.478 513.099 240.236 523.663 258.249C529.734 268.608 539.216 276.554 548.407 284.292C551.983 287.287 555.602 290.324 558.97 293.444C564.917 298.936 570.282 304.136 575.48 309.295C610.871 344.573 627.09 394.079 619.895 445.208C616.61 468.754 602.72 490.553 581.885 505.031C565.915 516.097 546.536 522.504 525.867 523.627C523.746 523.752 521.542 523.793 519.296 523.793L519.254 523.876ZM123.718 70.0848C105.794 70.0848 89.7826 74.9522 74.7696 85.0198C54.8493 98.3323 43.8702 116.554 43.08 137.729C42.6226 150.002 45.6168 162.94 51.7302 175.129C57.386 186.403 65.5788 196.554 74.8111 203.834C78.6372 206.83 82.0473 209.367 85.3327 211.655C95.979 219.061 107.457 225.342 119.601 232.04C138.356 242.358 157.778 253.008 175.203 268.525C208.348 297.979 234.797 320.694 273.806 344.656C322.339 374.526 353.363 407.932 380.686 437.428C404.557 463.179 427.055 487.475 457.164 504.906C469.682 512.145 479.83 516.43 489.977 518.676C499.833 520.881 509.648 522.004 519.213 522.004C521.375 522.004 523.538 521.963 525.659 521.838C545.995 520.756 565 514.474 580.679 503.616C601.098 489.472 614.656 468.172 617.858 445.124C624.928 394.62 608.958 345.696 573.983 310.876C568.826 305.717 563.42 300.558 557.515 295.067C554.146 291.947 550.57 288.951 547.076 285.998C537.719 278.135 528.071 270.023 521.833 259.414C510.978 240.943 510.604 218.811 511.477 201.629C511.602 199.258 511.727 196.887 511.893 194.349C512.85 178.748 513.973 161.068 505.905 146.84C487.939 115.223 458.537 96.6267 415.952 90.0952C406.511 88.6391 396.655 87.8903 386.674 87.8903C359.933 87.8903 332.444 93.0489 304.955 103.158C302.044 104.24 298.218 106.403 293.851 108.899C282.498 115.389 268.4 123.418 253.179 123.418C248.022 123.418 243.032 122.461 238.332 120.589C227.727 116.304 219.285 109.19 211.176 102.326C202.941 95.337 194.416 88.1399 183.728 84.063C164.848 76.8659 144.511 70.2096 123.718 70.2096V70.0848Z" fill="url(#paint8_linear_713_26015)"/>
<path d="M515.85 514.18C506.992 514.18 497.843 513.306 488.61 511.559C478.588 509.687 468.648 506.109 456.463 499.952C420.449 481.855 394.54 453.733 367.134 423.904C343.554 398.278 319.142 371.777 284.957 346.442C262.417 329.76 244.41 313.452 225.321 296.229C215.798 287.617 205.942 278.714 195.295 269.562C176.539 253.42 155.122 243.394 134.453 233.701C122.975 228.335 112.121 223.218 101.682 217.185C97.8979 214.98 94.1135 212.609 90.1211 209.947C79.6827 202.999 70.2008 192.682 63.3805 180.909C56.1028 168.303 52.1935 154.783 52.1104 141.803C52.0272 126.66 57.2256 104.985 82.4275 87.8456C97.5653 77.5283 113.576 72.5361 131.376 72.5361C133.996 72.5361 136.699 72.6609 139.402 72.8689C158.99 74.4498 178.619 81.7717 195.212 88.6776C206.358 93.2954 214.883 101.241 223.159 108.938C231.144 116.384 239.419 124.039 249.941 128.532C254.432 130.446 259.215 131.403 264.205 131.403C279.842 131.403 294.647 122.125 305.46 115.344C309.577 112.765 313.154 110.519 315.94 109.354C352.62 93.7114 390.797 87.0551 424.94 90.5497C467.318 94.8763 497.926 112.682 516.016 143.55C524.874 158.693 523.294 177.331 521.922 193.805C521.714 196.384 521.506 198.839 521.34 201.293C520.092 218.808 520.05 241.273 531.071 259.91C537.392 270.602 547.415 278.756 557.105 286.619C560.806 289.614 564.549 292.651 568 295.771C574.654 301.72 579.645 306.421 584.219 310.997C601.603 328.303 613.954 350.186 619.943 374.315C625.807 397.82 625.474 422.531 618.986 445.787C612.915 467.503 596.696 487.056 574.488 499.495C559.226 508.023 541.343 513.057 522.837 514.055C520.549 514.18 518.179 514.222 515.808 514.222L515.85 514.18ZM131.376 74.4914C113.992 74.4914 98.3138 79.4004 83.5087 89.468C59.0139 106.15 53.9402 127.118 54.0234 141.803C54.1066 154.45 57.891 167.638 65.0024 179.952C71.6564 191.475 80.9303 201.543 91.1192 208.324C95.07 210.945 98.8544 213.316 102.597 215.48C112.953 221.512 123.765 226.546 135.243 231.912C156.079 241.647 177.579 251.756 196.543 268.064C207.231 277.258 217.087 286.161 226.611 294.773C245.658 311.996 263.665 328.262 286.122 344.903C320.473 370.363 344.926 396.905 368.548 422.615C395.829 452.277 421.613 480.316 457.295 498.247C469.355 504.279 479.087 507.815 488.943 509.687C500.463 511.85 511.899 512.682 522.712 512.1C540.927 511.143 558.477 506.192 573.532 497.789C595.282 485.641 611.168 466.504 617.073 445.288C623.478 422.365 623.811 397.986 618.03 374.814C612.083 351.06 599.94 329.468 582.806 312.412C578.231 307.877 573.282 303.176 566.67 297.269C563.259 294.19 559.517 291.153 555.899 288.199C546.042 280.17 535.853 271.933 529.366 260.95C518.054 241.897 518.054 219.016 519.343 201.21C519.51 198.756 519.718 196.301 519.925 193.722C521.298 177.539 522.837 159.234 514.27 144.632C496.553 114.346 466.403 96.8315 424.691 92.5882C390.88 89.1768 352.994 95.7083 316.647 111.267C313.985 112.391 310.492 114.595 306.458 117.133C295.437 124.039 280.383 133.483 264.205 133.483C258.965 133.483 253.892 132.443 249.151 130.446C238.297 125.828 229.896 118.007 221.786 110.477C213.635 102.905 205.235 95.1259 194.422 90.5913C177.953 83.727 158.532 76.4883 139.194 74.949C136.574 74.741 133.913 74.6162 131.334 74.6162L131.376 74.4914Z" fill="url(#paint9_linear_713_26015)"/>
<path d="M511.81 504.4C503.908 504.4 495.757 503.776 487.648 502.57C477.958 501.114 468.102 498.201 456.707 493.376C413.414 475.071 384.137 441.498 353.154 405.97C336.062 386.376 318.429 366.158 297.136 346.605C284.827 335.289 273.764 324.057 263.118 313.199C248.022 297.806 233.757 283.287 216.707 269.142C196.662 252.502 173.29 243.308 150.708 234.405C140.186 230.245 129.29 225.96 119.101 221.051C114.818 218.971 110.618 216.766 106.584 214.478C95.1471 208.029 84.5007 197.837 76.6407 185.772C68.3233 173.042 63.5823 159.23 63.0001 145.835C62.3347 130.733 66.6598 109.225 91.1963 92.2101C108.912 79.9791 127.751 75.1117 149.294 77.3582C169.089 79.3967 188.261 87.093 206.019 95.1222C217.289 100.198 225.731 108.726 233.882 117.005C241.867 125.075 250.101 133.396 260.831 138.263C265.447 140.343 270.354 141.425 275.469 141.425C291.689 141.425 306.909 131.024 318.013 123.411C321.756 120.832 325 118.627 327.537 117.379C363.302 99.8648 400.148 91.378 433.584 92.9589C453.879 93.9157 471.803 98.3671 486.816 106.105C502.536 114.217 515.179 126.074 524.328 141.259C533.685 156.776 531.647 176.079 529.9 193.136V193.385C529.609 196.048 529.36 198.461 529.152 200.832C527.53 218.929 527.114 242.143 538.592 261.321C545.246 272.429 555.809 280.749 566.04 288.82C569.783 291.774 573.65 294.811 577.144 297.847C582.384 302.382 587.915 307.291 593.072 312.45C610.247 329.59 621.767 351.597 626.3 375.976C630.791 399.98 627.88 424.899 618.149 446.158C609.665 464.712 592.988 480.77 571.28 491.296C555.685 498.867 538.426 503.194 519.878 504.151C517.216 504.275 514.513 504.359 511.852 504.359L511.81 504.4ZM139.313 78.8559C122.262 78.8559 106.833 83.7649 92.236 93.8741C68.4064 110.348 64.2061 131.191 64.8715 145.793C65.4537 158.814 70.0699 172.293 78.221 184.732C85.9146 196.506 96.3115 206.49 107.498 212.814C111.491 215.06 115.691 217.265 119.933 219.303C130.08 224.212 140.935 228.456 151.415 232.616C174.121 241.56 197.618 250.796 217.954 267.645C235.088 281.872 249.394 296.391 264.49 311.784C275.178 322.684 286.199 333.875 298.467 345.149C319.843 364.743 337.518 385.045 354.61 404.639C385.468 440.001 414.621 473.407 457.497 491.545C468.767 496.288 478.415 499.2 487.98 500.614C498.71 502.237 509.356 502.778 519.795 502.195C538.051 501.238 555.102 496.953 570.448 489.507C591.741 479.148 608.084 463.464 616.36 445.284C625.925 424.4 628.753 399.897 624.387 376.267C619.895 352.263 608.625 330.63 591.699 313.739C586.584 308.622 581.053 303.755 575.854 299.22C572.403 296.225 568.535 293.188 564.834 290.276C554.437 282.122 543.707 273.677 536.887 262.236C525.118 242.559 525.534 218.971 527.197 200.583C527.405 198.17 527.655 195.757 527.946 193.094V192.845C529.734 176.121 531.689 157.15 522.664 142.174C513.681 127.28 501.33 115.715 485.943 107.728C471.179 100.073 453.505 95.7462 433.501 94.7894C400.439 93.2501 363.842 101.695 328.41 119.043C325.998 120.208 322.837 122.413 319.136 124.909C307.824 132.647 292.312 143.297 275.469 143.297C270.105 143.297 264.906 142.174 260.041 139.969C249.02 134.977 240.619 126.49 232.51 118.294C224.442 110.14 216.124 101.737 205.229 96.8279C187.596 88.8819 168.59 81.2688 149.086 79.2303C145.8 78.8975 142.557 78.7311 139.396 78.7311L139.313 78.8559Z" fill="url(#paint10_linear_713_26015)"/>
<path d="M507.454 494.754C500.634 494.754 493.647 494.379 486.744 493.63C477.179 492.59 467.447 490.344 457.051 486.849C404.526 469.002 372.628 427.692 338.901 383.968C329.378 371.613 319.605 358.966 309.333 346.818C303.926 340.411 298.562 333.838 293.821 328.014L293.654 327.806C275.896 306.048 259.137 285.539 238.094 268.815C216.884 251.966 191.849 243.812 167.603 235.908C157.29 232.538 146.685 229.085 136.538 225.008C131.88 223.178 127.347 221.181 123.063 219.101C96.7801 206.454 76.0281 177.374 73.7408 149.917C72.4932 134.94 76.028 113.557 99.9407 96.7501C117.99 84.0615 137.161 79.2773 159.161 82.0231C179.164 84.5192 198.711 93.0059 216.801 101.742C228.154 107.234 236.513 116.386 244.581 125.289C252.524 134.025 260.759 143.053 271.655 148.17C276.312 150.375 281.303 151.54 286.501 151.54C303.635 151.54 319.854 139.475 330.584 131.488C334.035 128.95 336.947 126.787 339.151 125.538C373.959 106.152 409.6 95.7516 442.246 95.4604H443.701C463.122 95.4604 480.464 98.9966 495.311 105.944C511.072 113.349 523.673 124.498 532.739 139.059C542.596 154.951 540.142 174.92 537.938 192.517V192.85C537.564 195.596 537.272 198.009 536.981 200.463C534.944 219.101 534.153 243.063 546.089 262.824C553.034 274.348 564.221 282.918 575.034 291.155C578.86 294.067 582.727 297.021 586.262 300.016C591.71 304.592 597.033 309.127 601.899 313.994C618.784 330.843 629.804 353.641 632.923 378.144C636.125 403.272 630.553 427.609 617.245 446.662C606.557 461.93 589.132 475.035 568.172 483.521C552.577 489.845 535.401 493.547 517.103 494.504C513.942 494.671 510.74 494.754 507.538 494.754H507.454ZM147.433 83.2295C130.632 83.2295 115.411 88.1801 100.98 98.3309C77.8579 114.597 74.4062 135.273 75.6122 149.751C77.8163 176.542 98.1109 204.998 123.812 217.353C128.054 219.392 132.545 221.347 137.203 223.178C147.309 227.213 157.872 230.666 168.102 233.994C192.597 241.982 217.841 250.177 239.3 267.276C260.468 284.124 277.31 304.717 295.151 326.558L295.318 326.766C300.059 332.59 305.423 339.163 310.83 345.528C321.143 357.759 330.916 370.406 340.357 382.637C374.001 426.236 405.69 467.297 457.674 484.977C467.947 488.472 477.512 490.677 486.952 491.675C497.058 492.757 507.247 493.09 516.936 492.549C535.027 491.592 551.994 487.931 567.34 481.691C587.967 473.329 605.101 460.474 615.54 445.497C628.598 426.86 634.046 402.98 630.885 378.352C627.808 354.265 616.995 331.925 600.402 315.367C595.578 310.541 590.296 306.048 584.89 301.514C581.355 298.56 577.529 295.648 573.828 292.819C562.765 284.374 551.454 275.721 544.301 263.864C532.074 243.604 532.864 219.226 534.944 200.255C535.193 197.801 535.526 195.346 535.858 192.6V192.268C538.063 174.961 540.475 155.367 530.951 140.057C522.093 125.788 509.783 114.888 494.354 107.691C479.799 100.869 462.706 97.3741 443.576 97.3741H442.121C409.849 97.6653 374.5 107.983 339.982 127.203C337.862 128.367 335.034 130.489 331.707 132.944C320.728 141.139 304.176 153.412 286.418 153.412C280.929 153.412 275.689 152.205 270.74 149.875C259.47 144.55 251.152 135.398 243.043 126.537C235.058 117.801 226.824 108.773 215.844 103.448C197.879 94.7532 178.541 86.3912 158.787 83.8951C154.919 83.3959 151.093 83.1463 147.392 83.1463L147.433 83.2295Z" fill="url(#paint11_linear_713_26015)"/>
<path d="M502.422 485.19C496.933 485.19 491.319 485.023 485.746 484.649C448.109 482.194 416.17 467.676 388.141 440.26C363.438 416.089 344.64 385.096 326.467 355.143C305.715 320.946 286.169 288.663 259.428 268.445C237.012 251.471 211.353 244.732 184.197 237.535C174.091 234.872 163.819 232.168 153.838 228.923C148.473 227.176 143.732 225.47 139.366 223.681C125.891 218.19 112.874 208.206 102.81 195.6C92.4967 182.745 85.9259 167.894 84.2624 153.874C82.5158 138.98 85.3021 117.805 108.508 101.206C126.848 88.1014 146.394 83.3588 168.809 86.6037C189.104 89.5991 208.941 98.793 227.364 108.278C238.842 114.186 247.16 124.004 255.144 133.489C263.088 142.849 271.239 152.501 282.301 157.992C287.083 160.364 292.24 161.612 297.522 161.612C315.321 161.612 331.956 148.257 342.935 139.396C345.971 136.983 348.549 134.903 350.504 133.655C369.717 121.549 389.305 112.314 408.643 106.198C427.482 100.249 445.656 97.337 462.665 97.6698C479.674 97.961 495.02 101.414 508.244 107.904C521.843 114.602 532.781 124.336 540.849 136.859C551.246 153.042 548.293 173.676 545.715 191.898C545.299 194.81 544.924 197.472 544.592 200.135C542.18 219.355 541.015 244.025 553.367 264.409C560.644 276.432 572.497 285.21 583.933 293.697C587.801 296.568 591.627 299.397 595.162 302.267C600.36 306.469 605.683 310.795 610.508 315.58C619.615 324.69 627.142 336.339 632.216 349.235C637.248 362.007 639.868 375.819 639.702 389.131C639.452 412.179 631.052 432.772 616.039 447.124C603.105 459.522 585.347 469.506 564.678 476.079C549.291 480.988 532.532 483.942 514.857 484.857C510.781 485.065 506.581 485.19 502.339 485.19H502.422ZM155.668 87.5606C139.074 87.5606 124.02 92.5528 109.714 102.787C87.2567 118.845 84.5535 139.313 86.2586 153.666C87.8805 167.353 94.285 181.83 104.391 194.394C114.288 206.75 126.972 216.484 140.156 221.851C144.481 223.598 149.18 225.304 154.462 227.01C164.401 230.254 174.632 232.959 184.529 235.538C212.06 242.777 237.886 249.599 260.592 266.822C287.583 287.249 307.253 319.698 328.088 354.061C346.179 383.931 364.935 414.8 389.471 438.804C417.168 465.887 448.692 480.239 485.871 482.611C495.685 483.235 505.541 483.318 514.857 482.819C532.365 481.903 548.958 478.95 564.179 474.124C584.557 467.634 602.065 457.774 614.791 445.585C629.43 431.607 637.622 411.513 637.872 389.007C638.038 375.944 635.46 362.382 630.511 349.818C625.521 337.171 618.16 325.73 609.218 316.828C604.477 312.085 599.154 307.8 594.039 303.64C590.546 300.811 586.72 297.982 583.06 295.236C571.332 286.542 559.314 277.639 551.828 265.283C539.144 244.399 540.35 219.313 542.762 199.76C543.095 197.098 543.469 194.435 543.885 191.606C546.463 173.635 549.333 153.374 539.31 137.815C531.45 125.585 520.762 116.099 507.496 109.568C494.521 103.203 479.466 99.7915 462.748 99.5419C445.905 99.2507 427.981 102.121 409.35 107.987C390.178 114.061 370.757 123.213 351.668 135.236C349.797 136.401 347.26 138.481 344.266 140.852C333.037 149.88 316.111 163.484 297.605 163.484C291.991 163.484 286.584 162.194 281.511 159.698C270.116 154.04 261.798 144.222 253.73 134.695C245.829 125.335 237.636 115.683 226.532 109.942C208.234 100.499 188.563 91.3879 168.56 88.4758C164.152 87.8102 159.785 87.519 155.626 87.519L155.668 87.5606Z" fill="url(#paint12_linear_713_26015)"/>
<path d="M543.422 611.403C528.118 611.403 513.022 607.992 498.466 601.211C482.829 593.93 467.941 581.991 454.3 565.683C439.745 548.335 428.807 529.531 417.246 509.604C380.691 446.66 339.312 375.313 162.815 343.904C154.747 342.49 146.97 341.283 139.485 340.118C135.118 339.453 130.835 338.787 126.593 338.08C46.7452 325.1 25.7852 310.082 16.8024 303.675C-28.9436 270.935 -56.2249 241.98 -69.2833 182.614C-81.2605 128.199 -51.1512 66.2543 -0.747475 41.5845C57.2668 13.1705 116.986 25.9839 123.598 27.5231C154.872 34.845 168.388 33.3474 184.108 31.6417C189.556 31.0593 195.212 30.4352 202.032 30.1024C245.907 27.9391 291.902 39.962 338.646 65.8383C362.268 78.9012 380.109 92.0474 394.789 107.232C410.592 123.54 423.068 142.718 432.841 165.807C437.25 176.208 439.62 187.315 441.866 198.049L441.991 198.548C442.448 200.628 442.906 202.791 443.363 204.913C446.232 218.017 449.767 231.954 456.421 244.809C461.412 254.46 468.315 263.072 474.969 271.351L477.132 274.055C483.786 282.375 490.065 289.448 496.304 295.605C507.74 306.92 519.967 317.445 531.819 327.638C565.713 356.842 600.771 387.045 627.137 442.334C640.196 469.749 645.311 497.581 641.942 522.875C638.865 545.922 628.967 566.432 613.289 582.24C599.024 596.635 580.975 606.161 561.055 609.781C556.979 610.53 552.779 610.987 548.662 611.237C546.915 611.32 545.169 611.362 543.422 611.362V611.403ZM82.1359 25.2766C59.1382 25.2766 29.4033 28.9792 0.084259 43.3734C-49.5294 67.6688 -79.1811 128.657 -67.4119 182.24C-54.4782 240.982 -27.4465 269.687 17.8836 302.136C26.7417 308.46 47.4521 323.311 126.842 336.208C131.084 336.915 135.368 337.539 139.734 338.246C147.262 339.411 155.038 340.618 163.106 342.032C340.476 373.608 382.146 445.329 418.868 508.647C430.388 528.533 441.284 547.253 455.714 564.476C469.189 580.535 483.827 592.308 499.215 599.463C515.143 606.869 531.819 610.238 548.496 609.323C552.571 609.115 556.647 608.616 560.639 607.909C580.143 604.372 597.86 595.054 611.833 580.951C627.179 565.433 636.91 545.298 639.904 522.667C643.231 497.789 638.199 470.29 625.266 443.249C599.066 388.293 564.174 358.257 530.447 329.177C518.594 318.985 506.326 308.418 494.848 297.061C488.568 290.862 482.247 283.748 475.51 275.345L473.347 272.682C466.569 264.278 459.624 255.584 454.55 245.766C447.771 232.661 444.195 218.6 441.325 205.37C440.868 203.29 440.41 201.127 439.953 199.005L439.828 198.506C437.582 187.856 435.253 176.873 430.887 166.639C421.197 143.758 408.845 124.788 393.209 108.646C378.653 93.6282 360.937 80.5653 337.482 67.5856C291.07 41.8757 245.408 29.936 201.907 32.0993C195.17 32.4321 189.556 33.0561 184.108 33.6386C168.263 35.3858 154.539 36.8835 122.975 29.4784C119.772 28.7296 103.969 25.3182 81.9696 25.3182L82.1359 25.2766Z" fill="url(#paint13_linear_713_26015)"/>
<path d="M623.93 443.546C615.779 414.966 603.469 389.089 586.294 364.503C569.492 340.457 549.156 319.323 531.482 301.767C525.368 295.694 519.588 289.412 513.474 282.755C510.979 280.051 508.359 277.389 505.822 274.768C498.669 267.488 491.267 259.916 486.276 250.847C478 235.912 475.713 218.522 474.549 203.504C474.424 201.674 474.299 199.76 474.133 197.888V197.181C473.176 183.577 472.261 169.557 466.065 156.91C456.25 136.775 443.774 120.467 428.012 107.071C413.415 94.6741 395.45 84.4401 373.159 75.7037C343.923 64.3048 312.816 58.5222 280.669 58.5222C269.274 58.5222 257.796 59.271 246.484 60.7687C241.701 61.3927 234.424 63.5976 228.518 65.3865C212.133 70.3787 196.247 75.2461 174.164 66.3849C172.001 65.5113 169.34 64.2216 166.304 62.724C151.79 55.6101 127.503 43.712 89.908 44.96C33.3493 45.9585 -0.83548 80.2383 -12.979 109.318C-24.4986 138.855 -17.8031 173.468 5.8185 206.791C13.3874 217.441 39.2962 248.559 67.8251 275.392C94.8568 300.852 140.894 324.607 191.007 338.876L211.8 345.033C333.194 380.728 373.991 436.307 409.964 485.356C424.186 504.784 437.661 523.089 455.127 539.396C468.685 552.043 481.577 560.53 494.552 565.356C507.527 570.182 520.752 572.636 533.894 572.636C535.724 572.636 537.512 572.595 539.342 572.511C543.625 572.303 547.909 571.763 552.109 571.014C569.867 567.727 586.086 559.698 599.019 547.758C611.87 535.86 621.061 520.468 625.594 503.203C630.501 484.524 629.96 464.472 624.013 443.629L623.93 443.546ZM623.639 502.662C619.189 519.552 610.206 534.654 597.647 546.302C585.004 557.992 569.118 565.897 551.693 569.1C547.617 569.849 543.417 570.348 539.175 570.556C524.578 571.347 509.648 568.934 495.176 563.525C482.45 558.783 469.766 550.421 456.417 537.94C439.075 521.757 425.684 503.494 411.461 484.149C375.28 434.851 334.316 378.98 212.258 343.12L191.464 336.962C141.643 322.776 95.8965 299.23 69.0727 273.936C38.4229 245.023 13.0963 213.738 7.35721 205.626C-15.8901 172.844 -22.4609 138.855 -11.1907 109.984C0.703218 81.4863 34.3058 47.8721 89.908 46.8737C91.7378 46.7905 93.5676 46.7905 95.3559 46.7905C129.333 46.7905 151.748 57.7733 165.389 64.4296C168.466 65.9273 171.128 67.2585 173.374 68.1322C196.08 77.243 212.258 72.334 229.017 67.2169C234.84 65.4697 242.076 63.2648 246.692 62.6824C257.921 61.2263 269.357 60.4775 280.627 60.4775C312.525 60.4775 343.424 66.2185 372.41 77.5342C394.493 86.1457 412.292 96.2965 426.723 108.569C442.318 121.798 454.587 137.898 464.277 157.784C470.265 170.098 471.18 183.951 472.095 197.347V198.054C472.261 199.926 472.386 201.84 472.552 203.671C473.717 218.897 476.046 236.536 484.53 251.804C489.686 261.123 497.172 268.736 504.408 276.141C506.945 278.72 509.565 281.383 512.019 284.087C518.132 290.785 523.913 297.066 530.068 303.182C547.701 320.655 567.954 341.747 584.63 365.626C601.681 390.046 613.908 415.715 622.017 444.087C627.881 464.597 628.38 484.316 623.597 502.662H623.639Z" fill="url(#paint14_linear_713_26015)"/>
<path d="M625.515 442.954C602.558 384.296 568.124 351.097 531.652 315.985L531.236 315.611C525.539 310.12 519.675 304.462 513.894 298.721C506.991 291.898 500.628 284.618 495.305 278.419C493.6 276.422 491.811 274.384 490.065 272.429L489.649 271.971C482.995 264.524 476.133 256.786 471.309 247.8C463.906 234.03 460.995 218.679 458.916 204.202C458.666 202.371 458.417 200.499 458.126 198.419V197.961C456.421 185.689 454.757 173 449.434 161.352C430.553 120 402.565 92.917 355.863 70.7433C323.633 55.4755 286.162 47.0303 237.963 44.1598C232.723 43.827 218.541 43.6606 204.651 47.3632C182.236 54.1858 164.27 51.3153 153.541 47.6544C92.5736 26.7287 55.5194 36.3387 43.3759 39.4588C42.8353 39.5836 -10.8124 54.4771 -34.5171 99.2821C-48.033 124.826 -48.7815 154.779 -36.7212 188.268C-25.3679 222.215 29.153 299.345 103.844 323.807C130.501 332.793 186.27 344.275 187.309 344.483C336.566 378.513 377.945 442.039 414.418 498.118C427.06 517.546 438.996 535.892 454.674 552.575C468.398 567.218 482.08 577.244 496.469 583.318C510.276 589.142 524.499 592.096 538.722 592.096C540.51 592.096 542.257 592.055 544.045 591.971C548.245 591.763 552.446 591.264 556.563 590.515C575.402 587.062 592.536 578.243 606.093 565.055C620.274 551.202 629.798 533.23 633.582 513.094C637.741 490.962 635.038 467.374 625.515 443.037V442.954ZM631.669 512.637C627.968 532.398 618.653 549.995 604.763 563.557C591.496 576.495 574.695 585.149 556.23 588.518C552.196 589.267 548.037 589.725 543.962 589.974C528.284 590.806 512.48 587.936 497.218 581.488C483.078 575.539 469.645 565.637 456.088 551.202C440.534 534.644 428.64 516.381 416.039 497.036C379.359 440.666 337.772 376.766 187.684 342.569C187.102 342.444 131.125 330.921 104.426 321.935C30.4006 297.722 -23.6628 221.3 -34.9329 187.644C-46.7853 154.696 -46.0783 125.283 -32.8536 100.239C-9.5647 56.1827 43.2511 41.5389 43.7917 41.4141C49.9882 39.8332 62.6308 36.5467 81.6777 36.5467C99.7266 36.5467 123.473 39.5004 152.834 49.568C163.854 53.3538 182.194 56.2659 205.15 49.3184C218.749 45.6991 232.64 45.9071 237.796 46.1983C285.747 49.0272 322.967 57.4308 354.989 72.5738C401.234 94.4979 428.973 121.331 447.604 162.226C452.803 173.624 454.466 186.147 456.088 198.294L456.171 198.96C456.421 200.832 456.67 202.704 456.92 204.534C458.999 219.22 461.993 234.737 469.521 248.799C474.428 257.993 481.373 265.772 488.11 273.344L488.526 273.801C490.273 275.757 492.019 277.754 493.766 279.75C499.131 285.991 505.535 293.271 512.48 300.135C518.303 305.876 524.166 311.576 529.864 317.026L530.28 317.4C566.585 352.387 600.895 385.419 623.685 443.703C633.083 467.707 635.745 490.921 631.669 512.678V512.637Z" fill="url(#paint15_linear_713_26015)"/>
<path d="M624.722 443.247C603.096 379.888 565.543 342.696 525.827 303.341L522.667 300.221C516.137 293.772 510.066 286.95 504.368 280.543C502.164 278.047 499.877 275.592 497.631 273.179C490.769 265.858 483.658 258.244 478.792 249.258C470.974 234.864 468.312 218.182 466.732 203.788C466.524 201.791 466.316 199.752 466.108 197.548C464.819 184.609 463.53 171.255 457.791 159.066C447.934 138.182 435.458 121.167 419.697 107.064C405.141 94.0008 387.092 82.9347 364.552 73.1999C324.462 55.852 278.84 48.6133 234.883 52.6487C229.726 53.1063 223.82 54.5624 217.541 56.1432C208.184 58.4729 197.579 61.0938 186.933 61.0938C182.358 61.0938 178.158 60.6362 174.082 59.6794C165.39 57.6825 157.572 54.6872 149.92 51.775C140.729 48.2805 129.792 44.4531 118.563 42.6227C114.987 42.0402 96.3971 39.1697 82.299 40.5426C27.6534 44.1203 0.205736 67.4173 -13.1438 86.3045C-32.8977 114.219 -33.3967 147.376 -27.325 169.05C-16.1796 208.655 2.65941 229.706 19.3775 248.385C36.5114 267.646 60.84 289.404 77.5997 299.888C95.7733 312.784 131.289 326.513 180.32 339.659C181.401 339.95 182.15 340.158 182.608 340.283C186.142 341.157 189.22 341.989 192.505 342.862C194.709 343.445 196.997 344.027 199.575 344.693C335.025 379.721 376.155 439.295 412.502 491.88C425.851 511.225 438.494 529.488 454.921 545.92C468.603 559.566 481.869 568.843 495.51 574.293C508.901 579.618 522.625 582.322 536.349 582.322C538.137 582.322 539.925 582.28 541.714 582.197C545.956 581.989 550.239 581.49 554.356 580.699C572.655 577.33 589.331 568.885 602.556 556.321C616.072 543.466 625.387 526.784 629.546 508.063C634.079 487.636 632.457 465.837 624.763 443.247H624.722ZM627.591 507.647C623.516 525.952 614.367 542.301 601.142 554.906C588.167 567.262 571.864 575.499 553.899 578.786C549.865 579.535 545.706 580.034 541.506 580.242C526.368 581.074 510.981 578.411 496.134 572.504C482.743 567.179 469.643 558.026 456.21 544.589C439.866 528.281 427.307 510.06 413.999 490.798C377.485 437.964 336.106 378.057 199.949 342.862C197.371 342.197 195.125 341.614 192.921 341.032C189.677 340.158 186.558 339.368 183.065 338.453C182.649 338.328 181.859 338.12 180.778 337.829C132.661 324.932 96.3971 310.912 78.6394 298.307C62.0044 287.865 37.8422 266.274 20.7914 247.137C4.23971 228.624 -14.4745 207.74 -25.4536 168.551C-31.4421 147.293 -30.9015 114.802 -11.5634 87.4693C7.27559 60.8442 39.7552 45.2852 82.4654 42.4979C85.0854 42.2483 87.8302 42.1234 90.6165 42.1234C102.718 42.1234 115.361 44.0787 118.23 44.5363C129.293 46.3668 140.105 50.1526 149.255 53.6055C156.907 56.5176 164.808 59.513 173.625 61.5515C177.825 62.5499 182.192 63.0075 186.891 63.0075C197.787 63.0075 208.516 60.345 217.998 58.0153C224.195 56.476 230.017 55.02 235.008 54.5624C278.591 50.5686 323.879 57.7657 363.72 74.9888C386.052 84.6404 403.935 95.6233 418.324 108.52C433.919 122.456 446.229 139.305 455.961 159.898C461.533 171.754 462.864 184.942 464.112 197.797C464.32 199.919 464.528 201.957 464.736 203.954C466.316 218.556 469.019 235.488 477.004 250.174C481.994 259.368 489.189 267.064 496.134 274.469C498.38 276.84 500.667 279.295 502.871 281.791C508.569 288.198 514.682 295.02 521.253 301.552L524.413 304.672C564.004 343.861 601.35 380.886 622.85 443.83C630.461 466.087 632.041 487.553 627.591 507.605V507.647Z" fill="url(#paint16_linear_713_26015)"/>
</g>
<defs>
<linearGradient id="paint0_linear_713_26015" x1="-39.9252" y1="-0.388837" x2="566.51" y2="625.922" gradientUnits="userSpaceOnUse">
<stop stop-color="#AFB388"/>
<stop offset="0.31" stop-color="#41929E"/>
<stop offset="0.49" stop-color="#27758D"/>
<stop offset="0.68" stop-color="#115C7E"/>
<stop offset="0.86" stop-color="#044D76"/>
<stop offset="1" stop-color="#004873"/>
</linearGradient>
<linearGradient id="paint1_linear_713_26015" x1="-33.2808" y1="-6.80031" x2="573.154" y2="619.511" gradientUnits="userSpaceOnUse">
<stop stop-color="#AFB388"/>
<stop offset="0.31" stop-color="#41929E"/>
<stop offset="0.49" stop-color="#27758D"/>
<stop offset="0.68" stop-color="#115C7E"/>
<stop offset="0.86" stop-color="#044D76"/>
<stop offset="1" stop-color="#004873"/>
</linearGradient>
<linearGradient id="paint2_linear_713_26015" x1="-25.1875" y1="-14.6104" x2="581.248" y2="611.701" gradientUnits="userSpaceOnUse">
<stop stop-color="#AFB388"/>
<stop offset="0.31" stop-color="#41929E"/>
<stop offset="0.49" stop-color="#27758D"/>
<stop offset="0.68" stop-color="#115C7E"/>
<stop offset="0.86" stop-color="#044D76"/>
<stop offset="1" stop-color="#004873"/>
</linearGradient>
<linearGradient id="paint3_linear_713_26015" x1="-10.394" y1="-28.9699" x2="596.041" y2="597.341" gradientUnits="userSpaceOnUse">
<stop stop-color="#AFB388"/>
<stop offset="0.31" stop-color="#41929E"/>
<stop offset="0.49" stop-color="#27758D"/>
<stop offset="0.68" stop-color="#115C7E"/>
<stop offset="0.86" stop-color="#044D76"/>
<stop offset="1" stop-color="#004873"/>
</linearGradient>
<linearGradient id="paint4_linear_713_26015" x1="20.5817" y1="-58.966" x2="627.017" y2="567.345" gradientUnits="userSpaceOnUse">
<stop stop-color="#AFB388"/>
<stop offset="0.31" stop-color="#41929E"/>
<stop offset="0.49" stop-color="#27758D"/>
<stop offset="0.68" stop-color="#115C7E"/>
<stop offset="0.86" stop-color="#044D76"/>
<stop offset="1" stop-color="#004873"/>
</linearGradient>
<linearGradient id="paint5_linear_713_26015" x1="27.0322" y1="-65.209" x2="633.467" y2="561.102" gradientUnits="userSpaceOnUse">
<stop stop-color="#AFB388"/>
<stop offset="0.31" stop-color="#41929E"/>
<stop offset="0.49" stop-color="#27758D"/>
<stop offset="0.68" stop-color="#115C7E"/>
<stop offset="0.86" stop-color="#044D76"/>
<stop offset="1" stop-color="#004873"/>
</linearGradient>
<linearGradient id="paint6_linear_713_26015" x1="33.0272" y1="-71.0361" x2="639.504" y2="555.275" gradientUnits="userSpaceOnUse">
<stop stop-color="#AFB388"/>
<stop offset="0.31" stop-color="#41929E"/>
<stop offset="0.49" stop-color="#27758D"/>
<stop offset="0.68" stop-color="#115C7E"/>
<stop offset="0.86" stop-color="#044D76"/>
<stop offset="1" stop-color="#004873"/>
</linearGradient>
<linearGradient id="paint7_linear_713_26015" x1="38.582" y1="-76.4014" x2="645.017" y2="549.91" gradientUnits="userSpaceOnUse">
<stop stop-color="#AFB388"/>
<stop offset="0.31" stop-color="#41929E"/>
<stop offset="0.49" stop-color="#27758D"/>
<stop offset="0.68" stop-color="#115C7E"/>
<stop offset="0.86" stop-color="#044D76"/>
<stop offset="1" stop-color="#004873"/>
</linearGradient>
<linearGradient id="paint8_linear_713_26015" x1="43.9118" y1="-81.5535" x2="650.347" y2="544.758" gradientUnits="userSpaceOnUse">
<stop stop-color="#AFB388"/>
<stop offset="0.31" stop-color="#41929E"/>
<stop offset="0.49" stop-color="#27758D"/>
<stop offset="0.68" stop-color="#115C7E"/>
<stop offset="0.86" stop-color="#044D76"/>
<stop offset="1" stop-color="#004873"/>
</linearGradient>
<linearGradient id="paint9_linear_713_26015" x1="49.1161" y1="-86.5904" x2="655.551" y2="539.721" gradientUnits="userSpaceOnUse">
<stop stop-color="#AFB388"/>
<stop offset="0.31" stop-color="#41929E"/>
<stop offset="0.49" stop-color="#27758D"/>
<stop offset="0.68" stop-color="#115C7E"/>
<stop offset="0.86" stop-color="#044D76"/>
<stop offset="1" stop-color="#004873"/>
</linearGradient>
<linearGradient id="paint10_linear_713_26015" x1="54.1836" y1="-91.5032" x2="660.619" y2="534.808" gradientUnits="userSpaceOnUse">
<stop stop-color="#AFB388"/>
<stop offset="0.31" stop-color="#41929E"/>
<stop offset="0.49" stop-color="#27758D"/>
<stop offset="0.68" stop-color="#115C7E"/>
<stop offset="0.86" stop-color="#044D76"/>
<stop offset="1" stop-color="#004873"/>
</linearGradient>
<linearGradient id="paint11_linear_713_26015" x1="59.1853" y1="-96.3235" x2="665.62" y2="529.988" gradientUnits="userSpaceOnUse">
<stop stop-color="#AFB388"/>
<stop offset="0.31" stop-color="#41929E"/>
<stop offset="0.49" stop-color="#27758D"/>
<stop offset="0.68" stop-color="#115C7E"/>
<stop offset="0.86" stop-color="#044D76"/>
<stop offset="1" stop-color="#004873"/>
</linearGradient>
<linearGradient id="paint12_linear_713_26015" x1="64.051" y1="-101.062" x2="670.528" y2="525.25" gradientUnits="userSpaceOnUse">
<stop stop-color="#AFB388"/>
<stop offset="0.31" stop-color="#41929E"/>
<stop offset="0.49" stop-color="#27758D"/>
<stop offset="0.68" stop-color="#115C7E"/>
<stop offset="0.86" stop-color="#044D76"/>
<stop offset="1" stop-color="#004873"/>
</linearGradient>
<linearGradient id="paint13_linear_713_26015" x1="-18.0062" y1="-21.6085" x2="588.429" y2="604.703" gradientUnits="userSpaceOnUse">
<stop stop-color="#AFB388"/>
<stop offset="0.31" stop-color="#41929E"/>
<stop offset="0.49" stop-color="#27758D"/>
<stop offset="0.68" stop-color="#115C7E"/>
<stop offset="0.86" stop-color="#044D76"/>
<stop offset="1" stop-color="#004873"/>
</linearGradient>
<linearGradient id="paint14_linear_713_26015" x1="13.0131" y1="-51.6392" x2="619.448" y2="574.672" gradientUnits="userSpaceOnUse">
<stop stop-color="#AFB388"/>
<stop offset="0.31" stop-color="#41929E"/>
<stop offset="0.49" stop-color="#27758D"/>
<stop offset="0.68" stop-color="#115C7E"/>
<stop offset="0.86" stop-color="#044D76"/>
<stop offset="1" stop-color="#004873"/>
</linearGradient>
<linearGradient id="paint15_linear_713_26015" x1="-2.37015" y1="-36.7555" x2="604.065" y2="589.556" gradientUnits="userSpaceOnUse">
<stop stop-color="#AFB388"/>
<stop offset="0.31" stop-color="#41929E"/>
<stop offset="0.49" stop-color="#27758D"/>
<stop offset="0.68" stop-color="#115C7E"/>
<stop offset="0.86" stop-color="#044D76"/>
<stop offset="1" stop-color="#004873"/>
</linearGradient>
<linearGradient id="paint16_linear_713_26015" x1="5.07149" y1="-43.9505" x2="611.507" y2="582.361" gradientUnits="userSpaceOnUse">
<stop stop-color="#AFB388"/>
<stop offset="0.31" stop-color="#41929E"/>
<stop offset="0.49" stop-color="#27758D"/>
<stop offset="0.68" stop-color="#115C7E"/>
<stop offset="0.86" stop-color="#044D76"/>
<stop offset="1" stop-color="#004873"/>
</linearGradient>
</defs>
</svg>
