<svg width="393" height="1584" viewBox="0 0 393 1584" fill="none" xmlns="http://www.w3.org/2000/svg">
<g opacity="0.05">
<path d="M611.611 1583.28C598.967 1583.28 586.323 1581.53 573.832 1578.14C520.094 1563.44 471.29 1518.32 432.664 1447.5C407.452 1401.35 389.103 1351.81 369.597 1299.5C299.205 1110.07 226.423 914.069 -174.801 848.803C-208.571 843.356 -239.487 840.272 -269.479 837.292C-377.418 823.724 -557.984 800.907 -611.491 518.67C-626.834 437.678 -657.751 164.075 -410.648 41.0458C-305.022 -12.2976 -197.7 -3.76678 -97.3936 13.3977C13.7836 32.4122 77.7759 71.1607 171.143 145.471C211.852 177.95 244.773 215.157 277.694 266.137C307.378 311.977 330.276 364.704 347.778 427.298C352.095 442.612 356.258 458.44 360.345 473.652L360.499 474.268C377.769 539.021 395.579 605.931 425.648 662.152C461.961 730.091 508.607 773.876 558.104 820.23C591.797 851.887 626.568 884.571 660.723 927.02C699.504 975.224 731.578 1029.18 758.716 1091.98C799.039 1185.1 813.92 1279.25 801.815 1364.15C791.098 1439.28 759.873 1502.59 713.845 1542.47C686.012 1566.63 654.016 1580.5 621.403 1582.87C618.165 1583.07 614.849 1583.17 611.611 1583.17V1583.28ZM-229.387 5.17519C-288.908 5.17519 -349.431 15.3505 -409.337 45.671C-653.587 167.261 -623.056 437.576 -607.945 517.539C-585.046 638.204 -538.247 721.149 -464.771 771.101C-403.478 812.727 -334.551 824.341 -269.171 832.564C-239.179 835.544 -208.108 838.628 -174.339 844.075C228.813 909.65 302.058 1106.78 372.835 1297.44C392.264 1349.66 410.536 1398.99 435.594 1444.83C473.681 1514.62 521.713 1559.12 574.526 1573.51C589.946 1577.73 605.674 1579.27 621.171 1578.24C653.168 1575.98 684.547 1562.31 711.84 1538.67C756.943 1499.61 787.629 1437.33 798.191 1363.53C810.142 1279.76 795.416 1186.85 755.555 1094.66C728.571 1032.27 696.729 978.719 658.179 930.823C624.178 888.579 589.561 855.998 555.946 824.547C506.217 777.884 459.263 733.791 422.564 665.236C392.187 608.398 374.3 541.179 356.952 476.119L356.798 475.399C352.712 460.188 348.549 444.462 344.231 429.148C326.884 367.068 304.139 314.855 274.765 269.426C242.074 218.857 209.462 181.959 169.062 149.788C76.157 75.7859 12.4729 37.2429 -98.0874 18.3312C-140.877 11.0337 -184.978 5.27797 -229.619 5.27797L-229.387 5.17519Z" fill="url(#paint0_linear_713_26187)"/>
<path d="M791.544 1209.86C784.914 1170.91 773.349 1131.23 757.235 1091.87C700.644 953.936 632.257 885.175 566.029 818.676C535.189 787.636 505.969 758.343 479.138 723.089C465.877 705.616 453.849 687.218 442.516 666.765C428.484 641.584 418.23 619.691 410.057 597.696C399.032 567.787 390.937 535.719 384.537 508.174C383.072 501.801 381.607 495.326 380.143 489.056L379.68 487.104C374.669 465.211 369.503 442.702 363.181 420.912C345.371 360.169 322.395 309.189 292.866 265.199C265.65 224.6 232.112 188.216 187.24 150.701C104.59 81.5291 12.0708 39.9027 -80.3712 30.5496C-87.9269 29.5218 -97.4101 29.7274 -109.283 30.0357C-127.787 30.5496 -151.225 31.0635 -179.29 27.1578C-220.306 21.5049 -282.757 12.8712 -365.176 42.0611C-570.645 114.625 -592.85 322.859 -595.24 363.869C-601.408 460.072 -574.5 726.892 -378.514 805.109C-349.679 818.676 -282.063 828.543 -222.388 837.279C-195.326 841.185 -169.806 844.988 -152.074 848.482C224.711 918.168 297.724 1105.02 368.424 1285.82C388.469 1337 407.359 1385.41 433.033 1430.33C458.476 1474.93 487.542 1508.44 519.384 1529.82C547.602 1548.73 577.208 1558.39 607.354 1558.39C610.592 1558.39 613.83 1558.29 617.146 1558.08C624.778 1557.57 632.488 1556.34 640.044 1554.59C678.825 1545.34 714.06 1520.16 741.892 1481.82C773.734 1437.93 792.932 1380.79 797.404 1316.65C799.794 1282.22 797.866 1246.25 791.621 1209.76L791.544 1209.86ZM793.703 1316.34C789.308 1379.35 770.496 1435.47 739.194 1478.53C711.901 1516.15 677.437 1540.82 639.35 1549.86C631.949 1551.61 624.393 1552.84 616.914 1553.36C584.147 1555.72 551.689 1546.26 521.003 1525.6C489.701 1504.43 461.02 1471.44 435.885 1427.45C410.443 1382.84 391.553 1334.64 371.585 1283.55C300.499 1101.73 227.023 913.748 -151.611 843.754C-169.344 840.157 -194.941 836.457 -222.003 832.551C-281.446 823.918 -348.831 814.051 -377.358 800.586C-571.108 723.192 -597.707 459.455 -591.616 364.28C-589.303 323.887 -567.33 118.428 -364.251 46.789C-282.448 17.9075 -220.383 26.4384 -179.675 32.0913C-151.38 35.997 -127.787 35.4831 -109.206 34.9692C-97.4102 34.6608 -88.0811 34.4553 -80.6796 35.3803C11.1456 44.7334 103.125 86.0514 185.313 154.812C229.876 192.122 263.183 228.301 290.168 268.488C319.388 312.067 342.133 362.533 359.788 422.763C366.111 444.347 371.276 466.856 376.288 488.851L376.673 490.598C378.138 496.971 379.603 503.446 381.068 509.715C387.544 537.364 395.639 569.74 406.819 599.957C415.068 622.158 425.477 644.359 439.586 669.746C451.074 690.405 463.179 709.008 476.594 726.687C503.579 762.249 532.876 791.644 563.87 822.684C629.79 888.875 697.869 957.225 754.074 1094.33C770.034 1133.29 781.444 1172.55 788.075 1211.09C794.243 1247.07 796.093 1282.53 793.78 1316.44L793.703 1316.34Z" fill="url(#paint1_linear_713_26187)"/>
<path d="M755.726 1092.62C703.145 956.019 636.839 884.895 572.77 815.928C545.554 786.739 519.88 759.09 495.439 726.92C483.026 710.578 471.23 692.694 459.357 672.138C446.173 649.32 433.529 626.811 423.891 601.424C412.249 570.693 405.079 538.008 398.988 507.379C397.832 501.521 396.675 495.56 395.519 489.393C390.816 464.931 385.958 439.544 378.557 415.493C344.094 302.742 293.285 227.815 203.233 156.896C115.263 87.5184 20.5853 50.9283 -63.2987 53.6006C-70.5461 53.8062 -77.0996 54.2173 -83.2675 54.5257C-108.865 55.9646 -129.064 56.9924 -177.637 48.256C-276.016 32.8388 -322.121 46.8171 -340.856 52.47C-477.167 95.227 -559.124 209.622 -566.911 368.316C-571.46 505.735 -530.212 627.942 -444.015 726.098C-407.778 767.107 -379.791 784.477 -346.407 799.381C-312.252 814.489 -265.145 826.618 -206.241 835.457C-181.029 839.157 -155.895 843.679 -129.45 849.229C222.585 923.026 299.222 1108.75 366.838 1272.79C387.5 1322.95 407.007 1370.23 433.297 1414.01C458.663 1456.36 486.958 1487.91 517.413 1507.65C545.014 1525.43 573.772 1534.47 603.07 1534.47C606.308 1534.47 609.546 1534.37 612.861 1534.16C620.571 1533.65 628.359 1532.42 635.914 1530.57C673.77 1521.42 708.156 1497.06 735.218 1460.06C765.595 1418.64 784.33 1364.68 789.342 1304.24C794.893 1237.54 783.251 1164.36 755.572 1092.51L755.726 1092.62ZM785.872 1303.83C780.938 1363.24 762.511 1416.17 732.751 1456.77C706.152 1493.05 672.536 1516.9 635.375 1525.94C627.896 1527.69 620.34 1528.92 612.707 1529.44C580.865 1531.7 549.178 1522.86 519.109 1503.43C489.117 1484.01 461.285 1452.86 436.227 1411.13C410.168 1367.66 390.739 1320.48 370.076 1270.43C302.074 1105.57 224.975 918.607 -128.833 844.502C-155.355 838.951 -180.567 834.429 -205.855 830.626C-264.451 821.89 -311.404 809.864 -345.251 794.755C-378.249 780.058 -405.851 762.893 -441.625 722.398C-526.897 625.269 -567.759 504.296 -563.287 368.522C-555.5 212.295 -474.623 99.3382 -340.085 57.198C-327.98 53.4978 -302.769 45.892 -260.904 45.892C-238.931 45.892 -211.715 47.8449 -178.1 53.0867C-129.219 61.9259 -108.942 60.7953 -83.1133 59.3564C-76.9454 59.048 -70.469 58.6369 -63.2217 58.4313C20.0455 55.759 113.952 92.1436 201.383 161.007C290.664 231.412 341.01 305.62 375.165 417.24C382.412 440.983 387.269 466.164 391.972 490.523C393.129 496.69 394.285 502.754 395.442 508.51C401.533 539.447 408.78 572.337 420.576 603.48C430.29 629.175 443.089 651.89 456.35 674.913C468.377 695.572 480.251 713.661 492.741 730.209C517.336 762.585 543.087 790.233 570.38 819.526C634.218 888.081 700.138 958.897 752.411 1094.57C779.781 1165.59 791.269 1237.85 785.795 1303.62L785.872 1303.83Z" fill="url(#paint2_linear_713_26187)"/>
<path d="M752.783 1093.94C707.294 954.872 642.454 875.731 579.772 799.262L579.386 798.851C562.425 778.192 544.923 756.813 528.038 734.51C517.244 720.223 506.065 703.778 493.035 682.811C490.799 679.111 488.409 675.513 486.019 671.608L485.171 670.271C473.067 651.154 460.5 631.42 451.556 608.808C438.603 576.021 432.59 539.842 427.964 505.616C427.27 500.477 426.653 495.338 425.959 490.096C422.335 461.523 418.558 431.922 409.46 404.377C391.187 349.183 368.057 303.548 338.837 265.108C311.544 229.238 278.699 198.712 235.37 169.008C160.352 117.617 76.8537 90.3802 -6.18219 90.3802C-18.9036 90.1747 -32.7813 92.9497 -47.4302 95.7248C-75.1088 100.967 -114.738 104.358 -147.736 93.5664C-174.258 84.9328 -226.994 67.8711 -290.293 74.1408C-387.592 89.0441 -441.793 149.068 -470.165 196.861C-511.182 265.93 -520.897 345.175 -516.348 396.257C-503.858 538.917 -436.319 667.805 -326.144 759.177C-266.546 808.615 -142.262 835.955 -141.029 836.263C-122.756 840.683 -103.867 845.205 -83.821 850.652C218.254 931.747 295.045 1098.35 362.892 1245.43C385.251 1293.95 406.376 1339.69 434.286 1381.72C459.574 1419.65 486.328 1447.19 514.006 1463.54C540.297 1479.06 567.513 1486.97 594.883 1486.97C598.122 1486.97 601.437 1486.87 604.675 1486.66C612.462 1486.15 620.172 1484.91 627.805 1483.06C663.733 1474.33 696.346 1451.72 722.174 1417.49C749.776 1380.9 767.817 1333.31 774.139 1279.97C781.155 1220.97 774.062 1158.38 752.937 1093.94H752.783ZM770.361 1279.15C764.116 1331.46 746.537 1378.13 719.399 1414C694.187 1447.4 662.191 1469.6 626.957 1478.23C619.555 1480.08 611.922 1481.21 604.29 1481.73C574.298 1483.89 544.152 1476.18 515.24 1459.01C488.101 1442.98 461.656 1415.85 436.753 1378.33C409.074 1336.7 388.026 1291.07 365.745 1242.76C297.589 1094.86 220.335 927.327 -83.2814 845.822C-103.327 840.477 -122.294 835.852 -140.566 831.432C-141.8 831.124 -265.39 803.887 -324.371 755.066C-433.62 664.516 -500.542 536.862 -512.878 395.743C-517.35 345.586 -507.713 267.78 -467.467 199.945C-427.375 132.418 -366.081 90.5858 -290.061 78.9715C-279.499 77.9437 -269.476 77.4298 -259.916 77.4298C-213.039 77.4298 -170.481 91.0997 -148.662 98.2944C-115.046 109.292 -74.9547 105.9 -46.9676 100.556C-32.3959 97.7805 -18.518 95.3137 -6.25925 95.3137C76.1599 95.3137 159.119 122.345 233.674 173.325C276.618 202.72 309.231 233.04 336.216 268.603C365.128 306.632 388.026 351.753 406.068 406.432C414.934 433.361 418.712 462.654 422.335 491.021C423.029 496.263 423.646 501.505 424.34 506.644C428.966 541.281 435.134 577.871 448.318 611.172C457.415 634.195 470.06 654.238 482.318 673.458L483.167 674.794C485.634 678.597 487.947 682.297 490.183 685.997C503.29 707.17 514.546 723.615 525.417 738.004C542.379 760.411 559.88 781.789 576.842 802.448L577.228 802.859C639.678 879.02 704.21 957.75 749.39 1095.89C770.207 1159.51 777.223 1221.18 770.284 1279.25L770.361 1279.15Z" fill="url(#paint3_linear_713_26187)"/>
<path d="M576.455 1390.97C553.248 1390.97 529.733 1385.52 506.526 1374.83C483.396 1364.14 460.883 1345.64 435.672 1316.56C400.823 1276.37 373.915 1230.32 345.465 1181.6C279.777 1069.26 205.453 942.022 6.84552 853.219L5.14932 852.396C-96.6988 806.864 -163.929 776.749 -244.421 670.679C-260.226 649.918 -276.571 630.184 -292.377 611.066C-326.146 570.365 -357.911 532.028 -381.272 487.626C-385.821 478.89 -390.061 469.948 -393.916 461.52C-414.193 417.221 -422.751 363.672 -417.432 314.748C-410.724 253.285 -382.737 200.558 -336.477 162.118C-304.867 135.909 -270.403 123.164 -231.083 123.164C-199.78 123.164 -169.326 131.284 -146.351 138.376C-126.305 144.543 -109.266 156.671 -92.7667 168.285C-78.1178 178.666 -63.0063 189.355 -45.5048 196.139C-37.9491 199.119 -29.7766 200.661 -21.2957 200.661C1.21732 200.661 22.6509 190.486 41.6173 181.647C52.4883 176.507 61.8174 172.088 69.9128 170.238C97.0517 163.968 124.576 160.885 151.869 160.885C203.063 160.885 252.638 171.78 299.36 193.364C383.321 232.112 436.288 290.389 471.06 382.378C483.319 414.754 484.321 451.139 485.246 486.29V487.832C485.401 492.765 485.555 497.493 485.709 502.118C487.097 540.764 490.72 585.371 506.834 623.708C516.471 646.526 530.812 665.232 544.69 683.321C549.624 689.694 555.175 696.991 560.264 704.186L564.967 710.867C574.527 724.331 583.548 737.076 593.031 749.615C634.048 803.884 664.348 853.219 688.403 905.123C716.004 964.736 735.125 1027.43 746.69 1096.91C754.554 1144.09 753.552 1189.31 743.837 1231.25C734.74 1270.41 717.932 1305.35 695.265 1332.28C665.581 1367.54 628.034 1387.78 586.632 1390.66C583.239 1390.87 579.77 1391.07 576.301 1391.07L576.455 1390.97ZM-231.006 128.098C-269.632 128.098 -303.479 140.637 -334.473 166.332C-379.807 203.95 -407.254 255.546 -413.731 315.57C-418.974 363.466 -410.57 415.782 -390.678 459.156C-386.823 467.481 -382.737 476.423 -378.188 485.057C-355.135 529.047 -323.448 567.179 -289.987 607.572C-274.027 626.792 -257.682 646.526 -241.799 667.39C-161.925 772.638 -95.0026 802.65 6.38293 847.977L8.07913 848.799C207.689 938.116 282.475 1065.98 348.395 1178.73C376.768 1227.34 403.598 1273.18 438.139 1313.06C462.965 1341.74 485.092 1359.93 507.759 1370.41C533.973 1382.54 560.649 1387.78 586.632 1385.93C627.186 1383.06 663.963 1363.32 693.029 1328.79C715.234 1302.37 731.656 1268.25 740.599 1229.91C750.159 1188.8 751.085 1144.4 743.375 1098.04C731.887 1029.18 712.998 966.895 685.55 907.795C661.65 856.199 631.504 807.07 590.718 753.11C581.158 740.468 572.137 727.723 562.577 714.258L557.874 707.578C552.862 700.486 547.311 693.291 542.377 686.919C528.268 668.624 513.696 649.609 503.827 626.175C487.328 586.913 483.627 541.586 482.239 502.427C482.085 497.801 481.931 492.971 481.777 488.14V486.598C480.774 451.961 479.772 416.193 467.899 384.742C433.59 293.884 381.317 236.326 298.281 198.092C251.944 176.713 202.755 165.921 151.946 165.921C124.885 165.921 97.5143 169.107 70.6066 175.274C62.8196 177.021 53.5677 181.441 42.928 186.477C23.7303 195.522 1.91116 205.8 -21.2186 205.8C-30.0079 205.8 -38.4889 204.258 -46.4301 201.175C-64.24 194.186 -79.5056 183.394 -94.3087 172.91C-110.577 161.399 -127.384 149.476 -146.967 143.412C-169.789 136.32 -199.935 128.303 -230.928 128.303L-231.006 128.098Z" fill="url(#paint4_linear_713_26187)"/>
<path d="M745.292 1097.73C737.582 1029.58 722.316 968.017 698.57 909.329C676.365 854.341 647.144 803.362 609.443 753.41C602.041 743.646 594.486 733.265 587.161 723.193L577.138 709.523C571.741 702.225 566.036 695.031 560.331 687.836C545.759 669.644 530.648 650.732 520.702 627.4C503.663 587.419 500.733 541.167 500.193 501.185C500.116 495.841 500.039 490.496 500.039 484.432C499.731 447.945 499.422 410.224 486.47 376.923C468.505 330.671 445.453 293.876 416.078 264.377C388.785 236.935 355.864 215.762 315.386 199.522C276.143 183.797 234.586 175.883 191.796 175.883C158.49 175.883 124.72 180.816 91.4131 190.375C83.8574 192.533 75.0681 197.364 64.891 202.914C45.2307 213.604 22.8719 225.732 -0.720459 225.732C-9.35556 225.732 -17.6823 223.984 -25.3922 220.695C-43.2792 212.987 -58.622 200.653 -73.4251 188.628C-89.6159 175.574 -106.269 162.007 -126.315 154.813C-153.223 145.048 -195.088 134.77 -230.245 135.49C-261.47 136.209 -290.922 148.543 -320.297 173.416C-341.73 191.506 -359.001 212.987 -371.491 237.038C-382.901 258.827 -390.457 282.981 -394.004 308.676C-401.636 363.972 -390.226 425.538 -363.395 473.332C-359.001 481.246 -354.22 489.571 -348.978 497.793C-326.542 533.253 -298.478 563.779 -268.64 596.258C-247.515 619.281 -225.619 643.229 -204.725 670.055C-127.78 769.033 -64.8671 805.623 29.5795 854.033C201.279 942.219 273.676 1059.08 337.514 1162.27C368.662 1212.53 398.037 1260.02 436.201 1300.51C461.104 1326.93 482.846 1343.58 504.819 1352.83C527.101 1362.29 549.46 1367.12 571.202 1367.12C574.671 1367.12 578.141 1367.01 581.61 1366.71C589.937 1366.09 598.341 1364.75 606.59 1362.8C637.43 1355.19 665.88 1337.31 688.855 1311.2C734.267 1259.5 754.852 1181.8 745.369 1097.83L745.292 1097.73ZM686.388 1307.4C663.875 1332.99 635.965 1350.47 605.819 1357.87C597.724 1359.82 589.474 1361.16 581.302 1361.67C556.63 1363.42 531.187 1358.79 505.744 1348C484.234 1338.85 462.8 1322.51 438.283 1296.51C400.427 1256.32 371.129 1209.04 340.135 1158.98C275.989 1055.38 203.284 937.902 30.6589 849.305C-63.4022 800.998 -126.007 764.613 -202.412 666.355C-223.383 639.426 -245.279 615.478 -266.636 592.249C-296.165 560.079 -324.075 529.553 -346.356 494.504C-351.445 486.385 -356.225 478.059 -360.62 470.248C-386.833 423.483 -398.013 363.356 -390.534 309.293C-387.065 284.317 -379.74 260.78 -368.638 239.504C-356.379 215.967 -339.495 195 -318.446 177.219C-289.611 152.86 -259.003 140.732 -228.472 140.012C-194.548 140.012 -153.146 149.982 -127.395 159.232C-107.888 166.324 -91.3892 179.686 -75.3526 192.636C-60.3953 204.764 -44.9754 217.304 -26.6258 225.115C-18.4533 228.61 -9.81812 230.357 -0.797516 230.357C23.4887 230.357 46.1558 218.023 66.2016 207.128C76.2245 201.681 84.8596 196.953 92.107 194.897C125.183 185.339 158.721 180.508 191.796 180.508C234.201 180.508 275.372 188.422 314.307 203.942C354.399 219.976 387.012 240.943 413.919 267.975C442.831 297.062 465.499 333.344 483.231 378.978C495.799 411.252 496.107 448.356 496.338 484.74C496.338 490.393 496.415 495.738 496.492 501.082C497.032 541.681 500.039 588.652 517.463 629.559C527.718 653.61 542.983 672.727 557.941 691.433C563.492 698.319 569.12 705.411 574.44 712.709L584.463 726.379C591.787 736.451 599.343 746.832 606.744 756.596C644.215 806.24 673.204 856.911 695.254 911.385C718.77 969.559 733.881 1030.61 741.514 1098.24C750.843 1180.57 730.643 1256.73 686.234 1307.2L686.388 1307.4Z" fill="url(#paint5_linear_713_26187)"/>
<path d="M743.825 1098.54C737.04 966.776 697.334 851.867 625.786 757.103C620.851 750.525 615.84 743.844 610.751 737.06C605.277 729.763 599.726 722.26 594.098 714.757C588.392 707.254 582.302 699.854 576.211 692.556C560.868 674.158 544.986 655.041 534.577 630.99C516.613 589.364 514.531 539.207 514.686 500.15C514.686 494.702 514.686 489.358 514.84 483.088C515.225 446.806 515.765 405.694 501.964 371.365C467.655 285.851 413.531 233.227 331.421 205.579C263.188 182.556 186.937 184.2 112.922 210.307C106.06 212.774 97.8101 217.81 88.2498 223.668C68.8979 235.591 44.92 250.391 19.7086 250.391C10.9964 250.391 2.59262 248.541 -5.1944 244.944C-23.544 236.413 -38.9638 222.332 -53.844 208.765C-69.7264 194.273 -86.1486 179.267 -106.271 170.942C-135.261 159.019 -170.572 146.788 -205.652 146.377C-241.504 146.377 -274.271 158.813 -304.031 184.406C-343.814 218.632 -367.715 265.295 -373.112 319.358C-379.897 387.399 -356.767 449.376 -332.866 484.835C-328.163 491.722 -322.612 499.841 -316.752 507.653C-295.165 536.02 -270.03 560.482 -243.277 586.28C-217.217 611.565 -190.31 637.671 -165.175 669.122C-92.7021 759.981 -35.186 802.943 52.1674 854.745C196.574 940.464 265.809 1046.64 326.872 1140.27C361.412 1193.2 394.025 1243.26 436.507 1284.37C460.947 1308.01 482.073 1322.81 502.89 1330.83C524.015 1338.95 545.294 1343.06 566.111 1343.06C569.734 1343.06 573.435 1342.96 576.982 1342.65C616.688 1339.87 653.156 1321.68 682.376 1290.23C725.321 1243.98 747.68 1174.29 743.825 1098.75V1098.54ZM680.063 1286.22C651.382 1317.05 615.686 1334.84 576.75 1337.61C553.004 1339.26 528.332 1335.35 503.815 1325.89C483.383 1318.08 462.644 1303.49 438.589 1280.26C396.416 1239.45 363.957 1189.61 329.57 1136.88C268.276 1042.83 198.733 936.25 53.5551 850.12C-33.3357 798.523 -90.6975 755.767 -162.785 665.422C-188.074 633.662 -215.136 607.453 -241.272 582.169C-267.794 556.474 -292.929 532.115 -314.285 504.055C-320.145 496.347 -325.619 488.33 -330.322 481.444C-353.683 446.909 -376.35 386.268 -369.72 319.872C-364.477 267.248 -341.116 221.818 -302.258 188.312C-273.114 163.233 -240.964 151.105 -205.884 151.105C-171.266 151.516 -136.263 163.644 -107.582 175.464C-87.999 183.584 -71.8082 198.384 -56.08 212.671C-41.0456 226.443 -25.4715 240.627 -6.6593 249.466C1.51321 253.269 10.3025 255.222 19.4773 255.222C45.4597 255.222 69.9002 240.216 89.5605 228.088C98.9666 222.332 107.062 217.296 113.693 214.932C187.168 189.031 262.725 187.387 330.418 210.204C411.373 237.544 464.879 289.448 498.649 373.626C511.987 406.927 511.524 447.32 511.139 482.985C511.139 489.255 510.985 494.702 510.985 500.15C510.831 539.823 512.99 590.803 531.339 633.457C541.979 658.124 558.092 677.447 573.821 696.359C579.68 703.451 585.771 710.748 591.399 718.149C597.028 725.549 602.656 733.052 608.053 740.349C613.141 747.133 618.153 753.916 623.087 760.392C694.018 854.334 733.339 968.112 740.047 1098.75C743.824 1172.65 721.928 1240.89 679.909 1286.12L680.063 1286.22Z" fill="url(#paint6_linear_713_26187)"/>
<path d="M560.174 1318.7C540.899 1318.7 521.007 1315.21 501.038 1308.43C480.916 1301.54 461.101 1289 436.892 1267.93C388.551 1225.79 351.774 1171.73 312.839 1114.48C256.017 1030.81 191.562 936.152 74.6798 855.16C-5.58047 799.556 -58.0079 750.632 -125.624 668.099C-154.382 632.947 -185.916 606.224 -216.37 580.323C-240.81 559.562 -263.863 540.033 -284.525 517.216C-289.845 511.357 -295.551 504.676 -302.413 496.043C-336.567 453.697 -356.305 388.431 -352.604 329.743C-349.212 275.783 -326.853 229.223 -287.995 195.202C-258.928 169.713 -227.858 157.379 -193.009 157.379C-155.847 157.379 -119.841 171.563 -86.4575 186.98C-66.1804 196.333 -49.9897 212.881 -34.2614 228.915C-19.3813 244.126 -4.03854 259.749 14.7737 269.205C22.792 273.213 31.35 275.269 40.2935 275.269C66.5072 275.269 91.4103 258.207 111.379 244.435C120.323 238.268 128.11 232.923 134.355 230.354C179.843 211.236 225.64 201.575 270.512 201.575C296.88 201.575 322.708 204.967 347.38 211.75C387.009 222.542 419.699 239.604 447.223 263.757C476.675 289.658 499.574 323.062 517.307 365.922C531.955 401.381 530.722 444.138 529.565 481.859C529.411 488.232 529.18 493.782 529.103 499.332C528.178 539.828 529.642 591.732 548.378 634.797C559.171 659.568 575.902 678.891 592.016 697.597C598.029 704.483 604.737 712.294 610.828 720.106C621.699 733.981 632.261 747.857 641.976 760.807C676.131 806.031 702.036 858.655 719.075 917.137C735.729 974.181 743.438 1035.54 742.205 1099.37C740.894 1166.18 716.762 1227.95 676.054 1268.85C653.695 1291.36 626.71 1306.88 597.952 1313.98C589.24 1316.13 580.297 1317.47 571.43 1318.09C567.652 1318.4 563.874 1318.5 560.096 1318.5L560.174 1318.7ZM-192.932 162.21C-227.009 162.21 -257.464 174.338 -285.913 199.314C-323.846 232.512 -345.588 277.838 -348.903 330.257C-352.527 387.506 -333.252 451.23 -299.868 492.548C-293.006 501.079 -287.378 507.76 -282.135 513.516C-261.627 536.128 -238.729 555.553 -214.442 576.109C-183.757 602.113 -152.146 629.042 -123.08 664.398C-55.6949 746.623 -3.42172 795.444 76.4531 850.741C193.952 932.143 258.562 1027.22 315.615 1111.09C354.396 1168.13 391.018 1221.99 438.974 1263.72C462.874 1284.48 482.303 1296.81 502.041 1303.59C525.556 1311.61 548.84 1314.9 571.353 1313.36C580.142 1312.74 588.932 1311.41 597.413 1309.25C625.631 1302.26 652.153 1287.05 674.049 1264.95C713.832 1224.97 737.425 1164.53 738.735 1099.16C740.046 1035.85 732.336 975.209 715.837 918.782C699.029 860.916 673.355 808.909 639.586 764.199C629.794 751.249 619.309 737.373 608.438 723.498C602.424 715.789 595.716 707.978 589.78 701.194C573.358 682.18 556.396 662.548 545.371 637.161C526.096 592.966 524.708 540.239 525.556 499.126C525.633 493.576 525.865 488.026 526.019 482.167C527.175 444.55 528.409 402.409 514.223 368.183C496.798 326.043 474.285 293.153 445.296 267.766C418.157 243.921 385.852 227.065 346.686 216.375C322.245 209.695 296.648 206.303 270.512 206.303C226.026 206.303 180.614 215.861 135.434 234.876C129.497 237.343 121.865 242.584 113.075 248.649C92.721 262.627 67.4324 280.1 40.2935 280.1C30.9645 280.1 21.9439 277.941 13.463 273.727C-5.8118 264.066 -21.3858 248.135 -36.4973 232.718C-51.9171 216.992 -67.9537 200.65 -87.6911 191.502C-120.767 176.291 -156.387 162.21 -193.086 162.21H-192.932Z" fill="url(#paint7_linear_713_26187)"/>
<path d="M554.228 1294.56C536.264 1294.56 517.76 1291.79 499.256 1286.24C479.981 1280.48 460.938 1269.79 437.346 1251.7C381.063 1208.23 339.121 1148 294.789 1084.17C244.212 1011.4 186.927 929.075 97.3378 855.689C24.7874 796.281 -24.4019 740.06 -85.9272 667.086C-117.923 629.159 -153.697 602.95 -188.315 577.563C-210.905 561.015 -232.262 545.393 -252.153 526.995C-258.321 521.342 -264.72 514.969 -271.813 507.466C-289.315 489.171 -304.889 463.373 -315.606 435.006C-327.248 404.171 -332.953 371.384 -332.028 340.241C-330.486 286.384 -309.592 240.03 -271.659 206.215C-243.21 180.828 -212.833 168.494 -178.909 168.494C-139.742 168.494 -101.655 185.145 -66.3439 203.029C-45.9126 213.409 -29.876 231.499 -14.3791 248.972C0.501099 265.725 15.8439 283.095 35.0416 293.373C43.2912 297.793 52.0805 300.054 61.1782 300.054C88.4713 300.054 114.145 280.526 134.731 264.8C143.058 258.428 150.228 252.98 155.933 250.205C207.281 224.921 258.629 212.176 308.667 212.176C327.325 212.176 345.752 214.026 363.484 217.624C443.591 234.069 499.025 280.731 532.871 360.181C548.368 396.668 546.287 441.07 544.513 480.229C544.205 486.499 543.974 492.358 543.742 498.216C542.123 540.048 542.817 593.803 562.401 638.307C573.657 663.899 591.235 683.531 608.274 702.648C614.905 710.048 621.613 717.551 627.858 725.26C638.883 738.827 648.829 751.674 658.466 764.419C724.078 851.578 754.146 973.887 740.808 1100.21C734.717 1158.38 708.966 1212.24 670.339 1248C640.733 1275.34 604.805 1291.17 566.487 1293.95C562.555 1294.26 558.468 1294.36 554.305 1294.36L554.228 1294.56ZM-179.063 173.428C-212.293 173.428 -241.976 185.453 -269.809 210.326C-306.739 243.216 -327.094 288.234 -328.558 340.55C-329.407 370.87 -323.855 402.835 -312.522 432.95C-302.036 460.804 -286.848 485.882 -269.732 503.869C-262.639 511.269 -256.316 517.539 -250.226 523.192C-230.488 541.487 -209.209 557.007 -186.696 573.555C-151.924 599.044 -115.919 625.356 -83.6142 663.694C-22.1661 736.463 26.869 792.581 99.1881 851.783C189.163 925.58 246.679 1008.11 297.333 1080.99C341.588 1144.61 383.299 1204.63 439.119 1247.7C462.326 1265.58 481.138 1276.17 499.95 1281.72C518.223 1287.16 536.418 1289.94 554.151 1289.94C558.16 1289.94 562.169 1289.84 566.101 1289.53C603.803 1286.86 639.037 1271.34 668.104 1244.51C705.959 1209.56 731.094 1156.94 737.03 1100C750.137 975.223 720.531 854.353 655.69 768.325C646.13 755.58 636.107 742.835 625.159 729.268C618.914 721.56 612.284 714.159 605.807 706.862C588.46 687.436 570.573 667.394 559.008 641.185C538.885 595.55 538.191 540.87 539.81 498.422C540.042 492.563 540.273 486.705 540.581 480.435C542.355 441.892 544.436 398.21 529.479 363.059C496.172 284.945 441.663 239.002 362.713 222.865C345.212 219.268 326.939 217.418 308.436 217.418C258.861 217.418 207.898 230.163 156.935 255.139C151.539 257.811 144.445 263.156 136.35 269.322C115.302 285.356 89.1653 305.193 60.9469 305.193C51.3866 305.193 42.1346 302.829 33.4225 298.204C13.7621 287.618 -1.88901 270.042 -16.9234 253.083C-32.189 235.816 -47.9943 218.035 -67.8088 207.962C-102.812 190.181 -140.513 173.736 -179.063 173.736V173.428Z" fill="url(#paint8_linear_713_26187)"/>
<path d="M547.915 1270.61C531.493 1270.61 514.531 1268.45 497.415 1264.13C478.834 1259.51 460.408 1250.67 437.818 1235.46C371.05 1190.75 323.017 1121.27 272.208 1047.57C228.493 984.261 183.236 918.789 119.86 856.195C78.0724 814.98 44.6884 774.69 9.2999 732.139C-8.35583 710.863 -26.6284 688.868 -46.3658 666.256C-81.1375 626.377 -120.844 601.607 -159.162 577.659C-180.441 564.4 -200.564 551.758 -219.916 536.854C-226.932 531.407 -233.948 525.549 -241.35 518.971C-260.702 501.806 -278.28 476.316 -290.925 447.229C-304.417 416.087 -311.664 382.683 -311.819 350.615C-311.973 313.203 -302.335 259.654 -255.613 217.308C-227.549 191.818 -197.866 179.484 -164.867 179.484C-160.01 179.484 -154.999 179.793 -149.987 180.307C-113.673 184.212 -77.2826 202.302 -46.52 219.363C-25.8574 230.772 -10.052 250.403 5.29071 269.418C20.0938 287.816 35.4365 306.727 54.9426 317.828C63.2693 322.556 72.1357 324.92 81.3876 324.92C110.377 324.92 137.824 302 157.87 285.246C165.503 278.874 172.133 273.324 177.299 270.446C245.301 231.8 316.078 215.355 379.376 223.989C457.94 234.678 514.686 278.668 548.224 354.932C564.646 392.344 561.716 438.39 559.172 479.091C558.786 485.464 558.401 491.528 558.092 497.592C555.779 540.863 555.702 596.365 576.134 642.411C587.853 668.826 606.433 688.971 624.398 708.396C631.259 715.796 638.198 723.299 644.598 731.008C656.934 745.706 666.185 757.32 674.666 768.626C706.894 811.383 729.792 865.446 740.895 925.059C751.766 983.13 751.149 1044.18 739.121 1101.64C727.865 1155.29 697.796 1203.6 656.625 1234.33C628.33 1255.4 595.177 1267.83 560.868 1270.3C556.627 1270.61 552.233 1270.71 547.838 1270.71L547.915 1270.61ZM-164.867 184.315C-197.095 184.315 -226.161 196.443 -253.609 221.316C-299.02 262.532 -308.426 314.333 -308.272 350.615C-308.118 381.861 -301.102 414.442 -287.918 444.865C-275.582 473.336 -258.389 498.209 -239.499 514.962C-232.175 521.437 -225.159 527.296 -218.22 532.64C-199.022 547.544 -178.976 559.98 -157.697 573.239C-119.07 597.29 -79.21 622.266 -44.0528 662.556C-24.2383 685.27 -5.96576 707.266 11.6899 728.541C47.0014 771.093 80.3853 811.28 122.019 852.393C185.703 915.295 231.037 980.869 274.83 1044.39C325.407 1117.67 373.208 1186.95 439.359 1231.24C461.718 1246.15 479.76 1254.88 498.032 1259.51C519.388 1264.85 540.591 1266.91 560.637 1265.47C594.406 1263.11 626.942 1250.88 654.852 1230.11C695.175 1200.1 724.627 1152.82 735.575 1100.4C747.448 1043.77 748.065 983.541 737.348 926.292C726.323 867.604 703.81 814.261 672.045 772.121C663.564 760.917 654.389 749.303 642.13 734.708C635.808 727.102 628.87 719.599 622.162 712.302C603.889 692.465 585 672.115 572.972 644.98C552.002 597.906 552.001 541.377 554.392 497.387C554.7 491.322 555.085 485.258 555.471 478.886C558.015 438.904 560.868 393.68 544.985 357.604C512.141 282.779 456.244 239.509 378.914 229.025C316.232 220.597 245.995 236.733 178.61 275.174C173.675 277.949 167.199 283.396 159.72 289.666C139.289 306.727 111.379 330.059 81.3876 330.059C71.6731 330.059 62.267 327.489 53.4777 322.556C33.3548 311.147 17.7808 291.824 2.7464 273.221C-12.3651 254.515 -27.9391 235.295 -47.9849 224.091C-78.5162 207.133 -114.522 189.249 -150.373 185.446C-155.23 184.932 -160.164 184.623 -164.944 184.623L-164.867 184.315Z" fill="url(#paint9_linear_713_26187)"/>
<path d="M540.437 1246.45C525.788 1246.45 510.676 1244.91 495.642 1241.92C477.678 1238.33 459.405 1231.13 438.28 1219.21C358.02 1173.99 303.742 1091.04 246.303 1003.27C214.615 954.857 181.925 904.905 142.45 856.598C119.629 828.641 99.1206 800.891 79.3832 774.065C51.3962 736.036 24.9511 700.165 -6.65958 665.219C-43.8214 624.107 -87.1512 601.392 -129.016 579.397C-148.522 569.119 -168.722 558.532 -187.612 546.404C-195.553 541.265 -203.34 535.818 -210.818 530.165C-232.021 514.234 -251.758 489.052 -266.33 459.246C-281.75 427.795 -290.539 393.671 -291.618 360.576C-292.852 323.266 -284.834 270.128 -239.345 228.091C-206.501 197.873 -171.575 185.848 -131.637 191.398C-94.9382 196.434 -59.3954 215.449 -26.474 235.286C-5.58014 247.825 10.071 268.895 25.1824 289.349C39.9855 309.288 55.2511 329.844 75.1427 341.87C83.7007 347.009 92.7985 349.681 102.282 349.681C132.35 349.681 160.569 323.986 181.154 305.177C188.093 298.804 194.107 293.357 198.81 290.274C265.115 247.003 333.425 226.035 395.413 229.941C433.037 232.305 466.267 243.303 494.1 262.42C523.243 282.462 546.682 311.755 563.644 349.27C580.991 387.607 577.213 435.298 573.975 477.438V478.055C573.435 484.633 572.972 490.594 572.587 496.453C569.58 541.162 568.809 598.514 590.089 645.896C602.424 673.339 622.008 693.895 640.974 713.835C647.913 721.132 655.083 728.635 661.56 736.138C671.274 747.341 681.528 759.47 691.089 772.215C722.931 814.56 744.287 868.932 752.691 929.161C761.018 988.466 755.621 1050.03 737.58 1102.55C721.851 1148.39 690.934 1188.07 650.689 1214.07C621.776 1232.78 589.78 1243.47 555.394 1245.83C550.46 1246.14 545.448 1246.34 540.514 1246.34L540.437 1246.45ZM-150.141 195.098C-181.752 195.098 -210.356 207.226 -237.418 232.202C-281.595 272.904 -289.382 324.397 -288.149 360.473C-287.069 392.644 -278.512 425.945 -263.4 456.676C-249.137 485.763 -229.862 510.431 -209.122 526.054C-201.721 531.604 -193.934 537.051 -186.07 542.087C-167.257 554.216 -147.134 564.699 -127.705 574.977C-85.6092 597.075 -42.0481 619.893 -4.34659 661.519C27.4183 696.67 53.9405 732.541 81.9275 770.57C101.742 797.499 122.173 825.147 144.918 853.001C184.547 901.41 217.314 951.568 249.002 999.978C306.209 1087.34 360.256 1169.88 439.745 1214.69C460.639 1226.4 478.526 1233.6 496.259 1237.09C516.15 1241.1 535.888 1242.44 555.24 1241C589.086 1238.64 620.697 1228.05 649.147 1209.65C688.621 1184.06 718.921 1145.31 734.264 1100.39C751.997 1048.8 757.24 988.261 749.144 929.881C740.818 870.576 719.924 817.13 688.544 775.401C679.061 762.759 668.807 750.733 659.169 739.53C652.77 732.13 645.6 724.627 638.738 717.432C619.463 697.287 599.572 676.422 586.928 648.158C565.108 599.542 565.879 541.265 568.963 495.836C569.349 489.875 569.812 483.913 570.351 477.335V476.719C573.667 435.401 577.29 388.532 560.559 351.531C543.906 314.735 521.008 286.162 492.481 266.428C465.111 247.517 432.344 236.827 395.259 234.463C333.965 230.66 266.118 251.525 200.429 294.385C195.957 297.263 190.098 302.71 183.236 308.877C162.265 327.994 133.507 354.306 102.282 354.306C92.3359 354.306 82.6984 351.531 73.6778 346.084C53.2465 333.75 37.6725 312.783 22.6382 292.535C7.68091 272.39 -7.73892 251.628 -27.9389 239.5C-60.629 219.868 -95.8634 201.059 -132.023 196.023C-138.114 195.201 -144.128 194.79 -149.987 194.79L-150.141 195.098Z" fill="url(#paint10_linear_713_26187)"/>
<path d="M532.361 1222.61C519.717 1222.61 506.765 1221.69 493.966 1219.84C476.233 1217.27 458.192 1211.72 438.917 1203.09C341.541 1158.99 282.406 1056.93 219.878 948.908C202.223 918.382 184.104 887.136 165.061 857.124C155.038 841.296 145.092 825.056 136.303 810.667L135.994 810.153C103.073 756.398 72.0019 705.727 32.9897 664.409C-6.3309 622.783 -52.7446 602.638 -97.6935 583.109C-116.814 574.784 -136.474 566.253 -155.287 556.181C-163.922 551.658 -172.326 546.725 -180.267 541.586C-228.994 510.34 -267.466 438.496 -271.706 370.661C-274.019 333.66 -267.466 280.83 -223.134 239.306C-189.673 207.958 -154.13 196.138 -113.345 202.922C-76.2599 209.089 -40.0232 230.056 -6.48508 251.64C14.563 265.207 30.0599 287.819 45.0172 309.814C59.7431 331.398 75.0089 353.702 95.2089 366.344C103.844 371.791 113.096 374.669 122.733 374.669C154.498 374.669 184.567 344.863 204.458 325.129C210.858 318.859 216.255 313.514 220.341 310.431C284.873 262.535 350.947 236.84 411.47 236.12H414.168C450.174 236.12 482.324 244.857 509.849 262.021C539.069 280.316 562.43 307.861 579.238 343.835C597.51 383.097 592.962 432.432 588.875 475.909V476.731C588.181 483.514 587.642 489.476 587.102 495.54C583.324 541.586 581.859 600.788 603.987 649.609C616.862 678.079 637.602 699.252 657.648 719.603C664.741 726.797 671.911 734.095 678.465 741.495C688.565 752.801 698.433 764.004 707.454 776.03C738.756 817.656 759.188 873.98 764.97 934.518C770.906 996.598 760.575 1056.72 735.904 1103.8C716.089 1141.52 683.784 1173.9 644.926 1194.86C616.014 1210.49 584.172 1219.63 550.249 1222C544.389 1222.41 538.452 1222.61 532.516 1222.61H532.361ZM-135.087 205.903C-166.235 205.903 -194.453 218.133 -221.207 243.212C-264.074 283.4 -270.473 334.482 -268.237 370.25C-264.151 436.441 -226.526 506.743 -178.879 537.269C-171.015 542.305 -162.688 547.136 -154.053 551.658C-135.318 561.628 -115.735 570.159 -96.7683 578.381C-51.3569 598.115 -4.55756 618.363 35.2256 660.606C74.4692 702.233 105.694 753.109 138.77 807.07L139.078 807.583C147.868 821.973 157.813 838.212 167.836 853.938C186.957 884.155 205.075 915.401 222.577 945.619C284.95 1053.33 343.7 1154.78 440.074 1198.46C459.117 1207.09 476.85 1212.54 494.352 1215.01C513.087 1217.68 531.976 1218.5 549.94 1217.17C583.478 1214.8 614.935 1205.76 643.385 1190.34C681.626 1169.68 713.391 1137.92 732.742 1100.92C756.952 1054.87 767.052 995.879 761.192 935.032C755.487 875.522 735.441 820.328 704.678 779.421C695.735 767.499 685.943 756.398 675.92 745.195C669.367 737.898 662.274 730.703 655.412 723.714C634.904 702.849 613.933 681.471 600.672 652.178C578.004 602.124 579.469 541.894 583.324 495.026C583.787 488.962 584.404 482.898 585.02 476.114V475.292C589.107 432.535 593.578 384.125 575.923 346.302C559.501 311.048 536.679 284.119 508.075 266.338C481.091 249.482 449.403 240.848 413.937 240.848H411.239C351.41 241.568 285.875 267.057 221.883 314.542C217.951 317.42 212.708 322.662 206.54 328.726C186.186 348.974 155.5 379.294 122.579 379.294C112.402 379.294 102.687 376.314 93.5127 370.558C72.6188 357.402 57.1989 334.79 42.1645 312.898C27.3615 291.314 12.0959 269.01 -8.25833 255.854C-41.5652 234.373 -77.4164 213.714 -114.038 207.547C-121.209 206.314 -128.302 205.697 -135.164 205.697L-135.087 205.903Z" fill="url(#paint11_linear_713_26187)"/>
<path d="M523.023 1198.98C512.846 1198.98 502.438 1198.57 492.107 1197.65C422.332 1191.58 363.12 1155.71 311.155 1087.98C265.358 1028.27 230.509 951.693 196.816 877.691C158.344 793.205 122.107 713.447 72.5326 663.495C30.9761 621.56 -16.5941 604.91 -66.9399 587.129C-85.675 580.551 -104.719 573.87 -123.222 565.853C-133.168 561.536 -141.957 557.322 -150.053 552.903C-175.033 539.335 -199.165 514.668 -217.823 483.525C-236.944 451.766 -249.125 415.073 -252.209 380.436C-255.447 343.64 -250.282 291.325 -207.261 250.315C-173.26 217.939 -137.023 206.222 -95.4667 214.239C-57.8423 221.639 -21.0659 244.354 13.089 267.788C34.3684 282.383 49.7883 306.639 64.5914 330.073C79.3173 353.199 94.4287 377.044 114.937 390.611C123.804 396.47 133.364 399.553 143.155 399.553C176.154 399.553 206.994 366.56 227.348 344.668C232.976 338.707 237.756 333.568 241.38 330.484C277 300.575 313.313 277.757 349.165 262.649C384.091 247.951 417.783 240.756 449.316 241.578C480.85 242.298 509.3 250.829 533.817 266.863C559.029 283.41 579.306 307.461 594.263 338.398C613.538 378.38 608.064 429.36 603.284 474.378C602.513 481.572 601.819 488.15 601.202 494.728C596.73 542.213 594.571 603.163 617.47 653.525C630.962 683.229 652.936 704.916 674.138 725.883C681.308 732.975 688.401 739.964 694.955 747.056C704.592 757.437 714.461 768.126 723.404 779.946C740.289 802.455 754.244 831.234 763.65 863.096C772.979 894.65 777.836 928.773 777.528 961.663C777.065 1018.6 761.491 1069.48 733.658 1104.94C709.681 1135.57 676.759 1160.24 638.441 1176.48C609.914 1188.6 578.843 1195.9 546.076 1198.16C538.52 1198.68 530.733 1198.98 522.869 1198.98H523.023ZM-119.83 216.603C-150.593 216.603 -178.502 228.936 -205.025 254.221C-246.658 293.894 -251.67 344.462 -248.509 379.922C-245.502 413.737 -233.628 449.505 -214.893 480.545C-196.544 511.071 -173.029 535.121 -148.588 548.38C-140.57 552.697 -131.857 556.911 -122.066 561.125C-103.639 569.142 -84.6727 575.823 -66.3231 582.195C-15.2834 600.079 32.5952 616.935 74.6913 659.487C124.729 709.952 161.197 790.121 199.823 875.019C233.362 948.816 268.133 1025.08 313.622 1084.38C364.97 1151.29 423.411 1186.75 492.338 1192.61C510.533 1194.15 528.806 1194.36 546.076 1193.13C578.535 1190.87 609.297 1183.57 637.516 1171.65C675.294 1155.61 707.753 1131.25 731.346 1101.14C758.484 1066.6 773.673 1016.96 774.135 961.355C774.444 929.082 769.664 895.575 760.489 864.535C751.237 833.29 737.59 805.025 721.014 783.03C712.225 771.312 702.356 760.726 692.873 750.448C686.397 743.459 679.304 736.47 672.519 729.686C650.777 708.205 628.495 686.21 614.617 655.684C591.102 604.088 593.338 542.111 597.81 493.803C598.426 487.225 599.12 480.647 599.891 473.658C604.671 429.257 609.991 379.202 591.41 340.762C576.839 310.545 557.024 287.111 532.429 270.974C508.374 255.248 480.464 246.82 449.471 246.204C418.245 245.484 385.016 252.576 350.475 267.068C314.933 282.074 278.927 304.686 243.539 334.39C240.069 337.268 235.366 342.407 229.815 348.265C208.998 370.569 177.619 404.178 143.31 404.178C132.901 404.178 122.878 400.992 113.472 394.825C92.347 380.847 76.9273 356.591 61.97 333.054C47.3212 309.928 32.1326 286.083 11.5471 271.899C-22.3766 248.568 -58.8445 226.059 -95.9293 218.864C-104.102 217.219 -112.197 216.5 -119.907 216.5L-119.83 216.603Z" fill="url(#paint12_linear_713_26187)"/>
<path d="M599.039 1510.81C570.667 1510.81 542.68 1502.38 515.695 1485.63C486.706 1467.64 459.104 1438.14 433.815 1397.85C406.831 1354.99 386.554 1308.54 365.12 1259.3C297.35 1103.8 220.636 927.526 -106.573 849.927C-121.53 846.432 -135.948 843.451 -149.826 840.573C-157.921 838.929 -165.862 837.284 -173.726 835.537C-321.757 803.469 -360.615 766.365 -377.268 750.537C-462.078 669.648 -512.655 598.113 -536.864 451.444C-559.068 317.006 -503.249 163.965 -409.804 103.016C-302.251 32.8164 -191.536 64.473 -179.278 68.2759C-121.299 86.3654 -96.2417 82.6653 -67.0982 78.4512C-56.9982 77.0123 -46.5127 75.4706 -33.8684 74.6483C47.4713 69.3037 132.743 99.0075 219.403 162.937C263.195 195.211 296.271 227.689 323.487 265.205C352.784 305.495 375.914 352.877 394.032 409.92C402.205 435.616 406.599 463.058 410.763 489.576L410.994 490.809C411.842 495.948 412.69 501.293 413.539 506.535C418.858 538.911 425.412 573.343 437.748 605.102C446.999 628.947 459.798 650.223 472.134 670.676L476.143 677.357C488.479 697.913 500.121 715.386 511.686 730.598C532.888 758.554 555.555 784.558 577.529 809.739C640.365 881.891 705.359 956.511 754.24 1093.11C778.449 1160.84 787.932 1229.6 781.688 1292.09C775.982 1349.03 757.632 1399.7 728.566 1438.76C702.121 1474.32 668.66 1497.86 631.729 1506.8C624.174 1508.65 616.386 1509.78 608.754 1510.4C605.516 1510.6 602.277 1510.71 599.039 1510.71V1510.81ZM-256.146 62.7257C-298.781 62.7257 -353.907 71.8732 -408.262 107.436C-500.242 167.46 -555.213 318.137 -533.394 450.519C-509.416 595.646 -459.302 666.565 -375.264 746.734C-358.842 762.357 -320.446 799.05 -173.264 830.912C-165.4 832.659 -157.458 834.201 -149.363 835.948C-135.408 838.826 -120.991 841.807 -106.033 845.301C222.795 923.312 300.048 1100.51 368.127 1256.94C389.483 1306.07 409.684 1352.32 436.437 1394.87C461.417 1434.55 488.556 1463.63 517.083 1481.31C546.612 1499.61 577.529 1507.93 608.445 1505.67C616.001 1505.16 623.557 1503.92 630.958 1502.18C667.118 1493.44 699.962 1470.42 725.867 1435.57C754.317 1397.24 772.358 1347.49 777.909 1291.58C784.077 1230.11 774.748 1162.18 750.771 1095.37C702.198 959.594 637.512 885.386 574.984 813.542C553.011 788.361 530.267 762.254 508.987 734.195C497.345 718.881 485.626 701.305 473.136 680.543L469.127 673.965C456.56 653.203 443.684 631.722 434.278 607.466C421.711 575.09 415.08 540.35 409.76 507.665C408.912 502.526 408.064 497.182 407.216 491.94L406.985 490.706C402.822 464.394 398.504 437.26 390.409 411.976C372.445 355.446 349.546 308.578 320.557 268.699C293.572 231.595 260.728 199.322 217.244 167.254C131.201 103.735 46.5461 74.2372 -34.0997 79.5818C-46.5898 80.4041 -56.9982 81.9458 -67.0982 83.3847C-96.473 87.7015 -121.916 91.4017 -180.434 73.1066C-186.371 71.2566 -215.668 62.8285 -256.454 62.8285L-256.146 62.7257Z" fill="url(#paint13_linear_713_26187)"/>
<path d="M748.31 1096.1C733.198 1025.49 710.377 961.563 678.535 900.819C647.387 841.412 609.685 789.199 576.918 745.825C565.584 730.819 554.868 715.299 543.534 698.854C538.908 692.174 534.051 685.596 529.348 679.12C516.087 661.134 502.363 642.427 493.111 620.021C477.768 583.123 473.528 540.16 471.369 503.056C471.138 498.534 470.907 493.806 470.598 489.181V487.434C468.825 453.824 467.129 419.187 455.641 387.941C437.445 338.195 414.316 297.905 385.095 264.81C358.033 234.181 324.726 208.897 283.401 187.313C229.2 159.151 171.53 144.864 111.932 144.864C90.8073 144.864 69.5278 146.714 48.5569 150.414C39.6905 151.956 26.198 157.403 15.2499 161.823C-15.1272 174.157 -44.579 186.182 -85.5187 164.29C-89.5279 162.131 -94.4622 158.945 -100.09 155.245C-126.998 137.669 -172.024 108.274 -241.722 111.357C-346.577 113.824 -409.952 198.516 -432.465 270.36C-453.822 343.334 -441.409 428.848 -397.616 511.176C-383.584 537.488 -335.552 614.368 -282.662 680.662C-232.547 743.564 -147.198 802.252 -54.2935 837.506L-15.7439 852.718C209.309 940.904 284.943 1078.22 351.634 1199.4C378.002 1247.4 402.982 1292.62 435.364 1332.91C460.498 1364.16 484.399 1385.12 508.454 1397.05C532.509 1408.97 557.026 1415.03 581.39 1415.03C584.782 1415.03 588.097 1414.93 591.49 1414.73C599.431 1414.21 607.372 1412.88 615.159 1411.02C648.081 1402.91 678.149 1383.07 702.127 1353.57C725.951 1324.17 742.99 1286.15 751.393 1243.49C760.491 1197.34 759.489 1147.8 748.464 1096.31L748.31 1096.1ZM747.77 1242.16C739.52 1283.88 722.867 1321.19 699.583 1349.97C676.145 1378.85 646.693 1398.38 614.388 1406.3C606.833 1408.15 599.045 1409.38 591.181 1409.89C564.119 1411.85 536.441 1405.89 509.61 1392.52C486.018 1380.81 462.503 1360.15 437.754 1329.31C405.603 1289.33 380.777 1244.21 354.41 1196.42C287.333 1074.62 211.391 936.587 -14.8958 847.99L-53.4454 832.778C-145.81 797.73 -230.62 739.556 -280.349 677.065C-337.171 605.632 -384.124 528.34 -394.764 508.298C-437.862 427.307 -450.044 343.334 -429.15 272.004C-407.1 201.599 -344.803 118.552 -241.722 116.085C-238.329 115.88 -234.937 115.88 -231.622 115.88C-168.632 115.88 -127.075 143.014 -101.787 159.459C-96.0813 163.159 -91.147 166.448 -86.9836 168.606C-44.8874 191.116 -14.8958 178.987 16.1752 166.345C26.9691 162.028 40.3844 156.581 48.9424 155.142C69.7592 151.545 90.9615 149.695 111.855 149.695C170.99 149.695 228.275 163.878 282.013 191.835C322.953 213.111 355.952 238.189 382.705 268.51C411.617 301.194 434.362 340.97 452.326 390.1C463.428 420.523 465.124 454.749 466.82 487.845V489.592C467.129 494.217 467.36 498.945 467.668 503.467C469.827 541.085 474.145 584.664 489.873 622.385C499.433 645.408 513.311 664.217 526.726 682.512C531.429 688.885 536.287 695.463 540.835 702.143C552.169 718.691 562.886 734.211 574.297 749.32C606.987 792.488 644.534 844.598 675.451 903.594C707.062 963.927 729.729 1027.34 744.763 1097.44C755.634 1148.11 756.559 1196.83 747.693 1242.16H747.77Z" fill="url(#paint14_linear_713_26187)"/>
<path d="M751.244 1094.64C708.686 949.717 644.847 867.697 577.231 780.95L576.46 780.025C565.898 766.458 555.027 752.48 544.31 738.296C531.512 721.44 519.715 703.453 509.847 688.139C506.686 683.205 503.37 678.169 500.132 673.338L499.361 672.208C487.025 653.81 474.304 634.693 465.36 612.492C451.637 578.471 446.24 540.545 442.385 504.777C441.922 500.255 441.46 495.63 440.92 490.491V489.36C437.759 459.04 434.675 427.691 424.806 398.913C389.803 296.748 337.915 229.837 251.333 175.055C191.581 137.334 122.114 116.47 32.7564 109.378C23.0419 108.556 -3.24887 108.145 -29 117.292C-70.5565 134.148 -103.863 127.056 -123.755 118.012C-236.783 66.3126 -305.478 90.0551 -327.991 97.7637C-328.993 98.072 -428.451 134.868 -472.398 245.563C-497.455 308.671 -498.843 382.673 -476.484 465.412C-455.436 549.281 -354.359 739.838 -215.889 800.273C-166.468 822.474 -63.0779 850.841 -61.1504 851.355C215.559 935.43 292.273 1092.38 359.889 1230.93C383.327 1278.92 405.454 1324.25 434.521 1365.47C459.964 1401.65 485.329 1426.42 512.005 1441.42C537.602 1455.81 563.97 1463.11 590.338 1463.11C593.654 1463.11 596.892 1463.01 600.207 1462.8C607.994 1462.29 615.781 1461.05 623.414 1459.2C658.34 1450.67 690.104 1428.88 715.239 1396.3C741.53 1362.07 759.186 1317.67 766.202 1267.93C773.911 1213.25 768.9 1154.97 751.244 1094.84V1094.64ZM762.655 1266.8C755.793 1315.62 738.523 1359.09 712.772 1392.6C688.177 1424.57 657.029 1445.94 622.797 1454.27C615.318 1456.12 607.609 1457.25 600.053 1457.87C570.986 1459.92 541.688 1452.83 513.393 1436.9C487.179 1422.2 462.276 1397.74 437.142 1362.07C408.307 1321.17 386.257 1276.05 362.895 1228.25C294.894 1088.99 217.795 931.113 -60.4565 846.627C-61.5359 846.319 -165.312 817.849 -214.809 795.648C-352.046 735.829 -452.275 547.02 -473.169 463.87C-495.142 382.468 -493.831 309.801 -469.314 247.927C-426.138 139.082 -328.222 102.903 -327.22 102.594C-315.732 98.6887 -292.294 90.569 -256.983 90.569C-223.521 90.569 -179.498 97.8665 -125.066 122.74C-104.634 132.093 -70.6336 139.287 -28.0749 122.123C-2.8634 113.181 22.8878 113.695 32.4481 114.414C121.344 121.403 190.347 142.165 249.714 179.577C335.448 233.743 386.873 300.037 421.414 401.071C431.051 429.233 434.135 460.17 437.142 490.182L437.296 491.827C437.759 496.452 438.221 501.077 438.684 505.599C442.539 541.881 448.09 580.219 462.045 614.959C471.143 637.673 484.018 656.893 496.508 675.599L497.279 676.73C500.518 681.561 503.756 686.494 506.994 691.428C516.94 706.845 528.813 724.832 541.689 741.791C552.483 755.974 563.354 770.055 573.916 783.52L574.687 784.445C641.995 870.884 705.602 952.492 747.852 1096.49C765.276 1155.79 770.211 1213.15 762.655 1266.9V1266.8Z" fill="url(#paint15_linear_713_26187)"/>
<path d="M749.776 1095.36C709.684 938.828 640.063 846.941 566.434 749.71L560.574 742.002C548.47 726.071 537.213 709.215 526.651 693.386C522.564 687.219 518.324 681.155 514.16 675.194C501.439 657.105 488.255 638.296 479.234 616.095C464.74 580.533 459.805 539.317 456.876 503.755C456.49 498.822 456.105 493.785 455.719 488.338C453.329 456.373 450.939 423.38 440.299 393.265C422.027 341.669 398.897 299.632 369.676 264.789C342.692 232.516 309.231 205.176 267.443 181.125C193.119 138.265 108.541 120.381 27.0475 130.351C17.4872 131.482 6.53897 135.079 -5.10303 138.985C-22.4503 144.741 -42.1107 151.216 -61.8481 151.216C-70.329 151.216 -78.116 150.085 -85.6717 147.721C-101.785 142.788 -116.28 135.387 -130.466 128.193C-147.505 119.559 -167.782 110.103 -188.599 105.581C-195.23 104.142 -229.693 97.05 -255.83 100.442C-357.138 109.281 -408.024 166.838 -432.772 213.501C-469.395 282.467 -470.32 364.384 -459.063 417.933C-438.401 515.781 -403.475 567.788 -372.481 613.937C-340.716 661.524 -295.613 715.279 -264.542 741.18C-230.85 773.042 -165.007 806.96 -74.1068 839.438C-72.1022 840.158 -70.7144 840.672 -69.8663 840.98C-63.3129 843.138 -57.6075 845.194 -51.5167 847.353C-47.4304 848.792 -43.19 850.23 -38.4098 851.875C212.702 938.417 288.953 1085.6 356.338 1215.51C381.087 1263.31 404.525 1308.43 434.98 1349.03C460.345 1382.74 484.94 1405.66 510.228 1419.12C535.054 1432.28 560.497 1438.96 585.94 1438.96C589.255 1438.96 592.57 1438.86 595.886 1438.65C603.75 1438.14 611.691 1436.91 619.324 1434.95C653.248 1426.63 684.164 1405.76 708.682 1374.72C733.739 1342.96 751.009 1301.75 758.719 1255.5C767.123 1205.03 764.116 1151.17 749.853 1095.36H749.776ZM755.096 1254.47C747.54 1299.69 730.578 1340.09 706.061 1371.23C682.006 1401.75 651.783 1422.1 618.476 1430.22C610.997 1432.07 603.287 1433.31 595.5 1433.82C567.436 1435.88 538.909 1429.3 511.385 1414.7C486.559 1401.55 462.273 1378.94 437.37 1345.74C407.07 1305.45 383.786 1260.43 359.114 1212.84C291.421 1082.31 214.707 934.305 -37.716 847.353C-42.4961 845.708 -46.6595 844.269 -50.7458 842.83C-56.7595 840.672 -62.5419 838.719 -69.0182 836.458C-69.7892 836.149 -71.2541 835.635 -73.2587 834.916C-162.463 803.054 -229.693 768.417 -262.614 737.274C-293.454 711.476 -338.249 658.132 -369.859 610.853C-400.545 565.115 -435.24 513.519 -455.594 416.699C-466.696 364.178 -465.694 283.906 -429.843 216.379C-394.917 150.599 -334.702 112.159 -255.521 105.273C-250.664 104.656 -245.575 104.348 -240.41 104.348C-217.974 104.348 -194.536 109.178 -189.216 110.309C-168.708 114.831 -148.662 124.184 -131.7 132.715C-117.514 139.91 -102.865 147.31 -86.5198 152.346C-78.7328 154.813 -70.6373 155.944 -61.9251 155.944C-41.7251 155.944 -21.8336 149.366 -4.25491 143.61C7.23288 139.807 18.0269 136.21 27.2787 135.079C108.079 125.212 192.04 142.993 265.901 185.545C307.303 209.39 340.456 236.524 367.132 268.386C396.044 302.818 418.866 344.444 436.907 395.321C447.238 424.614 449.705 457.195 452.018 488.955C452.404 494.196 452.789 499.233 453.175 504.166C456.105 540.242 461.116 582.074 475.919 618.356C485.171 641.071 498.509 660.085 511.385 678.38C515.548 684.239 519.789 690.303 523.875 696.47C534.438 712.298 545.771 729.154 557.953 745.291L563.812 752.999C637.211 849.819 706.446 941.294 746.306 1096.8C760.415 1151.79 763.345 1204.83 755.096 1254.37V1254.47Z" fill="url(#paint16_linear_713_26187)"/>
</g>
<defs>
<linearGradient id="paint0_linear_713_26187" x1="-482.427" y1="-0.683316" x2="969.191" y2="1124.3" gradientUnits="userSpaceOnUse">
<stop stop-color="#AFB388"/>
<stop offset="0.31" stop-color="#41929E"/>
<stop offset="0.49" stop-color="#27758D"/>
<stop offset="0.68" stop-color="#115C7E"/>
<stop offset="0.86" stop-color="#044D76"/>
<stop offset="1" stop-color="#004873"/>
</linearGradient>
<linearGradient id="paint1_linear_713_26187" x1="-470.108" y1="-16.5242" x2="981.51" y2="1108.46" gradientUnits="userSpaceOnUse">
<stop stop-color="#AFB388"/>
<stop offset="0.31" stop-color="#41929E"/>
<stop offset="0.49" stop-color="#27758D"/>
<stop offset="0.68" stop-color="#115C7E"/>
<stop offset="0.86" stop-color="#044D76"/>
<stop offset="1" stop-color="#004873"/>
</linearGradient>
<linearGradient id="paint2_linear_713_26187" x1="-455.117" y1="-35.8189" x2="996.501" y2="1089.16" gradientUnits="userSpaceOnUse">
<stop stop-color="#AFB388"/>
<stop offset="0.31" stop-color="#41929E"/>
<stop offset="0.49" stop-color="#27758D"/>
<stop offset="0.68" stop-color="#115C7E"/>
<stop offset="0.86" stop-color="#044D76"/>
<stop offset="1" stop-color="#004873"/>
</linearGradient>
<linearGradient id="paint3_linear_713_26187" x1="-427.684" y1="-71.2946" x2="1023.93" y2="1053.69" gradientUnits="userSpaceOnUse">
<stop stop-color="#AFB388"/>
<stop offset="0.31" stop-color="#41929E"/>
<stop offset="0.49" stop-color="#27758D"/>
<stop offset="0.68" stop-color="#115C7E"/>
<stop offset="0.86" stop-color="#044D76"/>
<stop offset="1" stop-color="#004873"/>
</linearGradient>
<linearGradient id="paint4_linear_713_26187" x1="-370.247" y1="-145.403" x2="1081.37" y2="979.58" gradientUnits="userSpaceOnUse">
<stop stop-color="#AFB388"/>
<stop offset="0.31" stop-color="#41929E"/>
<stop offset="0.49" stop-color="#27758D"/>
<stop offset="0.68" stop-color="#115C7E"/>
<stop offset="0.86" stop-color="#044D76"/>
<stop offset="1" stop-color="#004873"/>
</linearGradient>
<linearGradient id="paint5_linear_713_26187" x1="-358.307" y1="-160.828" x2="1093.31" y2="964.154" gradientUnits="userSpaceOnUse">
<stop stop-color="#AFB388"/>
<stop offset="0.31" stop-color="#41929E"/>
<stop offset="0.49" stop-color="#27758D"/>
<stop offset="0.68" stop-color="#115C7E"/>
<stop offset="0.86" stop-color="#044D76"/>
<stop offset="1" stop-color="#004873"/>
</linearGradient>
<linearGradient id="paint6_linear_713_26187" x1="-347.207" y1="-175.225" x2="1104.48" y2="949.735" gradientUnits="userSpaceOnUse">
<stop stop-color="#AFB388"/>
<stop offset="0.31" stop-color="#41929E"/>
<stop offset="0.49" stop-color="#27758D"/>
<stop offset="0.68" stop-color="#115C7E"/>
<stop offset="0.86" stop-color="#044D76"/>
<stop offset="1" stop-color="#004873"/>
</linearGradient>
<linearGradient id="paint7_linear_713_26187" x1="-336.876" y1="-188.48" x2="1114.74" y2="936.503" gradientUnits="userSpaceOnUse">
<stop stop-color="#AFB388"/>
<stop offset="0.31" stop-color="#41929E"/>
<stop offset="0.49" stop-color="#27758D"/>
<stop offset="0.68" stop-color="#115C7E"/>
<stop offset="0.86" stop-color="#044D76"/>
<stop offset="1" stop-color="#004873"/>
</linearGradient>
<linearGradient id="paint8_linear_713_26187" x1="-327.016" y1="-201.21" x2="1124.6" y2="923.773" gradientUnits="userSpaceOnUse">
<stop stop-color="#AFB388"/>
<stop offset="0.31" stop-color="#41929E"/>
<stop offset="0.49" stop-color="#27758D"/>
<stop offset="0.68" stop-color="#115C7E"/>
<stop offset="0.86" stop-color="#044D76"/>
<stop offset="1" stop-color="#004873"/>
</linearGradient>
<linearGradient id="paint9_linear_713_26187" x1="-317.37" y1="-213.654" x2="1134.25" y2="911.329" gradientUnits="userSpaceOnUse">
<stop stop-color="#AFB388"/>
<stop offset="0.31" stop-color="#41929E"/>
<stop offset="0.49" stop-color="#27758D"/>
<stop offset="0.68" stop-color="#115C7E"/>
<stop offset="0.86" stop-color="#044D76"/>
<stop offset="1" stop-color="#004873"/>
</linearGradient>
<linearGradient id="paint10_linear_713_26187" x1="-307.963" y1="-225.791" x2="1143.66" y2="899.192" gradientUnits="userSpaceOnUse">
<stop stop-color="#AFB388"/>
<stop offset="0.31" stop-color="#41929E"/>
<stop offset="0.49" stop-color="#27758D"/>
<stop offset="0.68" stop-color="#115C7E"/>
<stop offset="0.86" stop-color="#044D76"/>
<stop offset="1" stop-color="#004873"/>
</linearGradient>
<linearGradient id="paint11_linear_713_26187" x1="-298.691" y1="-237.701" x2="1152.93" y2="887.282" gradientUnits="userSpaceOnUse">
<stop stop-color="#AFB388"/>
<stop offset="0.31" stop-color="#41929E"/>
<stop offset="0.49" stop-color="#27758D"/>
<stop offset="0.68" stop-color="#115C7E"/>
<stop offset="0.86" stop-color="#044D76"/>
<stop offset="1" stop-color="#004873"/>
</linearGradient>
<linearGradient id="paint12_linear_713_26187" x1="-289.68" y1="-249.407" x2="1162.01" y2="875.553" gradientUnits="userSpaceOnUse">
<stop stop-color="#AFB388"/>
<stop offset="0.31" stop-color="#41929E"/>
<stop offset="0.49" stop-color="#27758D"/>
<stop offset="0.68" stop-color="#115C7E"/>
<stop offset="0.86" stop-color="#044D76"/>
<stop offset="1" stop-color="#004873"/>
</linearGradient>
<linearGradient id="paint13_linear_713_26187" x1="-441.801" y1="-53.1087" x2="1009.82" y2="1071.87" gradientUnits="userSpaceOnUse">
<stop stop-color="#AFB388"/>
<stop offset="0.31" stop-color="#41929E"/>
<stop offset="0.49" stop-color="#27758D"/>
<stop offset="0.68" stop-color="#115C7E"/>
<stop offset="0.86" stop-color="#044D76"/>
<stop offset="1" stop-color="#004873"/>
</linearGradient>
<linearGradient id="paint14_linear_713_26187" x1="-384.278" y1="-127.3" x2="1067.34" y2="997.682" gradientUnits="userSpaceOnUse">
<stop stop-color="#AFB388"/>
<stop offset="0.31" stop-color="#41929E"/>
<stop offset="0.49" stop-color="#27758D"/>
<stop offset="0.68" stop-color="#115C7E"/>
<stop offset="0.86" stop-color="#044D76"/>
<stop offset="1" stop-color="#004873"/>
</linearGradient>
<linearGradient id="paint15_linear_713_26187" x1="-412.8" y1="-90.5314" x2="1038.82" y2="1034.45" gradientUnits="userSpaceOnUse">
<stop stop-color="#AFB388"/>
<stop offset="0.31" stop-color="#41929E"/>
<stop offset="0.49" stop-color="#27758D"/>
<stop offset="0.68" stop-color="#115C7E"/>
<stop offset="0.86" stop-color="#044D76"/>
<stop offset="1" stop-color="#004873"/>
</linearGradient>
<linearGradient id="paint16_linear_713_26187" x1="-399.003" y1="-108.307" x2="1052.62" y2="1016.68" gradientUnits="userSpaceOnUse">
<stop stop-color="#AFB388"/>
<stop offset="0.31" stop-color="#41929E"/>
<stop offset="0.49" stop-color="#27758D"/>
<stop offset="0.68" stop-color="#115C7E"/>
<stop offset="0.86" stop-color="#044D76"/>
<stop offset="1" stop-color="#004873"/>
</linearGradient>
</defs>
</svg>
