<svg width="285" height="951" viewBox="0 0 285 951" fill="none" xmlns="http://www.w3.org/2000/svg">
<g opacity="0.05">
<path d="M740.357 950.345C732.766 950.345 725.175 949.296 717.677 947.259C685.415 938.436 656.116 911.348 632.927 868.833C617.791 841.128 606.775 811.387 595.065 779.98C552.806 666.259 509.112 548.589 268.239 509.407C247.965 506.137 229.405 504.286 211.399 502.496C146.599 494.351 38.1969 480.653 6.07436 311.214C-3.13657 262.591 -21.6973 98.3344 126.65 24.4746C190.062 -7.54979 254.492 -2.42835 314.71 7.87623C381.455 19.2915 419.872 42.5539 475.924 87.166C500.364 106.664 520.128 129.001 539.892 159.607C557.712 187.127 571.459 218.781 581.966 256.359C584.558 265.553 587.057 275.055 589.511 284.187L589.603 284.557C599.971 323.431 610.663 363.6 628.715 397.352C650.516 438.139 678.519 464.425 708.234 492.253C728.461 511.258 749.336 530.88 769.841 556.364C793.123 585.303 812.378 617.698 828.671 655.399C852.878 711.303 861.812 767.824 854.545 818.792C848.111 863.897 829.365 901.907 801.732 925.848C785.023 940.349 765.814 948.679 746.235 950.098C744.291 950.221 742.301 950.283 740.357 950.283V950.345ZM235.468 2.9399C199.735 2.9399 163.401 9.04861 127.437 27.2513C-19.1978 100.247 -0.868554 262.529 8.20352 310.535C21.9505 382.975 50.0461 432.771 94.1568 462.759C130.954 487.749 172.334 494.722 211.585 499.658C229.59 501.447 248.243 503.298 268.516 506.569C510.546 545.936 554.518 664.284 597.009 778.745C608.673 810.091 619.643 839.709 634.686 867.229C657.551 909.126 686.387 935.844 718.093 944.483C727.35 947.013 736.793 947.938 746.096 947.321C765.305 945.964 784.144 937.757 800.529 923.565C827.606 900.117 846.028 862.725 852.369 818.421C859.544 768.132 850.703 712.352 826.773 657.003C810.573 619.549 791.457 587.401 768.314 558.647C747.901 533.287 727.119 513.726 706.938 494.845C677.084 466.831 648.896 440.36 626.863 399.204C608.627 365.081 597.888 324.727 587.474 285.668L587.381 285.236C584.928 276.104 582.429 266.663 579.837 257.469C569.422 220.2 555.768 188.854 538.133 161.581C518.508 131.223 498.929 109.071 474.675 89.7576C418.9 45.3306 380.668 22.1916 314.293 10.838C288.605 6.45704 262.129 3.00161 235.329 3.00161L235.468 2.9399Z" fill="url(#paint0_linear_713_26154)"/>
<path d="M848.381 726.166C844.4 702.78 837.457 678.962 827.784 655.33C793.81 572.523 752.754 531.243 712.994 491.32C694.48 472.686 676.937 455.1 660.83 433.935C652.868 423.446 645.648 412.401 638.844 400.122C630.42 385.004 624.264 371.861 619.357 358.656C612.738 340.701 607.878 321.449 604.037 304.912C603.157 301.087 602.278 297.199 601.398 293.435L601.12 292.263C598.112 279.12 595.011 265.607 591.215 252.525C580.523 216.058 566.73 185.453 549.002 159.044C532.663 134.671 512.529 112.827 485.59 90.3054C435.972 48.7785 380.428 23.7884 324.931 18.1733C320.395 17.5563 314.702 17.6797 307.574 17.8648C296.465 18.1733 282.394 18.4818 265.546 16.1371C240.922 12.7433 203.43 7.5602 153.951 25.0842C30.5981 68.6472 17.2677 193.66 15.8328 218.28C12.1299 276.035 28.2838 436.219 145.943 483.175C163.254 491.32 203.847 497.244 239.672 502.489C255.919 504.833 271.239 507.116 281.885 509.214C508.085 551.05 551.918 663.228 594.363 771.765C606.397 802.494 617.737 831.557 633.151 858.521C648.425 885.301 665.875 905.416 684.991 918.251C701.932 929.604 719.706 935.405 737.803 935.405C739.747 935.405 741.691 935.343 743.682 935.219C748.264 934.911 752.893 934.17 757.429 933.122C780.711 927.568 801.863 912.451 818.573 889.435C837.689 863.087 849.214 828.78 851.899 790.277C853.333 769.606 852.176 748.009 848.427 726.104L848.381 726.166ZM849.677 790.091C847.039 827.916 835.745 861.607 816.953 887.461C800.567 910.044 779.877 924.853 757.012 930.283C752.569 931.332 748.033 932.073 743.543 932.381C723.871 933.8 704.385 928.123 685.963 915.721C667.171 903.01 649.952 883.203 634.863 856.794C619.589 830.014 608.249 801.075 596.26 770.408C553.585 661.253 509.474 548.397 282.163 506.376C271.517 504.216 256.15 501.995 239.904 499.65C204.217 494.467 163.763 488.544 146.637 480.46C30.3204 433.997 14.3517 275.664 18.0083 218.526C19.3969 194.277 32.5884 70.9303 154.506 27.9226C203.616 10.5837 240.876 15.7051 265.315 19.0989C282.302 21.4436 296.465 21.1351 307.62 20.8266C314.702 20.6415 320.303 20.5181 324.746 21.0734C379.873 26.6885 435.092 51.4935 484.433 92.7735C511.187 115.172 531.182 136.892 547.382 161.018C564.925 187.181 578.579 217.477 589.179 253.636C592.974 266.594 596.075 280.107 599.084 293.312L599.315 294.361C600.195 298.186 601.074 302.074 601.954 305.838C605.842 322.436 610.702 341.873 617.413 360.014C622.366 373.342 628.614 386.67 637.085 401.911C643.981 414.314 651.248 425.482 659.302 436.095C675.502 457.445 693.091 475.092 711.698 493.727C751.273 533.464 792.143 574.497 825.886 656.811C835.467 680.196 842.317 703.767 846.298 726.906C850.001 748.503 851.112 769.791 849.723 790.153L849.677 790.091Z" fill="url(#paint1_linear_713_26154)"/>
<path d="M826.874 655.778C795.307 573.774 755.501 531.074 717.037 489.671C700.698 472.147 685.285 455.549 670.612 436.235C663.16 426.424 656.079 415.688 648.951 403.347C641.036 389.649 633.445 376.135 627.659 360.895C620.67 342.445 616.365 322.823 612.708 304.435C612.014 300.918 611.32 297.339 610.626 293.637C607.802 278.952 604.886 263.711 600.443 249.272C579.753 181.583 549.25 136.6 495.188 94.0244C442.376 52.3741 385.536 30.4075 335.177 32.0118C330.826 32.1352 326.892 32.382 323.189 32.5671C307.822 33.431 295.695 34.048 266.535 28.8032C207.474 19.5476 179.795 27.9393 168.547 31.3331C86.7134 57.002 37.5112 125.679 32.8363 220.95C30.1054 303.448 54.8685 376.814 106.616 435.742C128.371 460.362 145.173 470.789 165.215 479.737C185.719 488.807 214 496.088 249.363 501.395C264.498 503.616 279.587 506.331 295.464 509.663C506.806 553.967 552.814 665.466 593.407 763.946C605.812 794.057 617.522 822.441 633.306 848.727C648.534 874.149 665.521 893.092 683.804 904.939C700.374 915.614 717.639 921.044 735.228 921.044C737.172 921.044 739.116 920.983 741.106 920.859C745.735 920.551 750.41 919.81 754.946 918.7C777.672 913.208 798.316 898.584 814.562 876.371C832.799 851.504 844.046 819.109 847.055 782.827C850.388 742.781 843.398 698.848 826.782 655.717L826.874 655.778ZM844.972 782.58C842.01 818.245 830.947 850.023 813.081 874.396C797.112 896.177 776.932 910.493 754.622 915.923C750.132 916.972 745.596 917.712 741.013 918.021C721.897 919.378 702.874 914.072 684.822 902.41C666.817 890.748 650.108 872.051 635.065 846.999C619.42 820.898 607.756 792.576 595.351 762.526C554.527 663.553 508.241 551.313 295.834 506.825C279.911 503.493 264.776 500.778 249.594 498.495C214.417 493.25 186.228 486.03 165.909 476.96C146.098 468.136 129.528 457.832 108.051 433.52C56.8588 375.21 32.3272 302.584 35.0118 221.073C39.6867 127.283 88.2408 59.4701 169.01 34.1714C176.277 31.9501 191.412 27.384 216.546 27.384C229.737 27.384 246.076 28.5564 266.257 31.7033C295.602 37.0098 307.776 36.3311 323.282 35.4672C326.984 35.2821 330.872 35.0353 335.223 34.9119C385.212 33.3076 441.589 55.1508 494.077 96.4926C547.677 138.76 577.901 183.31 598.406 250.321C602.757 264.575 605.673 279.692 608.496 294.316C609.191 298.018 609.885 301.659 610.579 305.114C614.236 323.687 618.587 343.432 625.669 362.129C631.501 377.555 639.184 391.191 647.145 405.013C654.366 417.415 661.494 428.275 668.992 438.21C683.758 457.647 699.217 474.245 715.602 491.831C753.927 532.987 793.502 575.501 824.884 656.951C841.315 699.588 848.212 742.966 844.926 782.457L844.972 782.58Z" fill="url(#paint2_linear_713_26154)"/>
<path d="M825.11 656.571C797.801 573.086 758.875 525.574 721.244 479.666L721.013 479.419C710.83 467.016 700.323 454.182 690.186 440.792C683.706 432.215 676.995 422.343 669.172 409.755C667.83 407.534 666.395 405.374 664.96 403.029L664.451 402.227C657.184 390.75 649.64 378.903 644.27 365.328C636.494 345.644 632.884 323.925 630.107 303.377C629.69 300.292 629.32 297.207 628.903 294.06C626.728 276.906 624.46 259.135 618.998 242.599C608.028 209.464 594.142 182.067 576.6 158.99C560.215 137.455 540.497 119.129 514.484 101.296C469.448 70.4443 419.32 54.0927 369.47 54.0927C361.833 53.9693 353.501 55.6353 344.707 57.3013C328.09 60.4482 304.299 62.4844 284.489 56.0055C268.566 50.8224 236.907 40.5795 198.906 44.3434C140.493 53.2905 107.954 89.3257 90.9202 118.018C66.296 159.483 60.464 207.057 63.1948 237.724C70.6932 323.369 111.24 400.746 177.383 455.601C213.162 485.281 287.775 501.694 288.516 501.879C299.485 504.533 310.825 507.247 322.86 510.518C504.209 559.202 550.31 659.225 591.041 747.523C604.464 776.647 617.147 804.106 633.902 829.343C649.084 852.112 665.145 868.648 681.762 878.459C697.546 887.777 713.885 892.528 730.316 892.528C732.26 892.528 734.25 892.466 736.194 892.343C740.869 892.034 745.498 891.294 750.08 890.183C771.65 884.938 791.229 871.363 806.735 850.816C823.305 828.849 834.136 800.28 837.931 768.256C842.143 732.838 837.885 695.26 825.203 656.571H825.11ZM835.663 767.762C831.914 799.169 821.361 827.183 805.068 848.718C789.933 868.772 770.724 882.1 749.571 887.283C745.128 888.394 740.545 889.072 735.963 889.381C717.958 890.677 699.86 886.049 682.503 875.744C666.21 866.118 650.334 849.829 635.383 827.307C618.767 802.316 606.131 774.92 592.754 745.919C551.837 657.127 505.458 556.549 323.184 507.618C311.149 504.409 299.763 501.632 288.793 498.979C288.053 498.794 213.856 482.442 178.447 453.133C112.86 398.772 72.6835 322.135 65.2777 237.416C62.5931 207.304 68.3789 160.594 92.5402 119.869C116.609 79.3297 153.406 54.2161 199.045 47.2435C205.386 46.6265 211.403 46.318 217.142 46.318C245.284 46.318 270.834 54.5246 283.933 58.8439C304.114 65.4462 328.183 63.41 344.985 60.2014C353.733 58.5354 362.064 57.0545 369.424 57.0545C418.903 57.0545 468.707 73.2826 513.466 103.888C539.247 121.535 558.826 139.738 575.026 161.088C592.384 183.918 606.131 211.006 616.962 243.833C622.284 259.999 624.552 277.585 626.728 294.615C627.144 297.762 627.515 300.909 627.931 303.994C630.709 324.788 634.411 346.755 642.326 366.747C647.788 380.569 655.379 392.601 662.738 404.14L663.248 404.942C664.729 407.225 666.117 409.447 667.46 411.668C675.328 424.379 682.086 434.252 688.612 442.89C698.795 456.342 709.302 469.176 719.485 481.579L719.717 481.825C757.208 527.548 795.95 574.813 823.073 657.744C835.571 695.939 839.783 732.961 835.617 767.824L835.663 767.762Z" fill="url(#paint3_linear_713_26154)"/>
<path d="M719.242 834.895C705.31 834.895 691.193 831.625 677.261 825.207C663.375 818.79 649.859 807.683 634.724 790.221C613.802 766.095 597.649 738.451 580.569 709.204C541.133 641.761 496.513 565.371 377.28 512.059L376.262 511.565C315.118 484.231 274.757 466.151 226.434 402.473C216.946 390.008 207.133 378.161 197.644 366.684C177.371 342.249 158.301 319.234 144.276 292.578C141.545 287.333 139 281.964 136.685 276.905C124.512 250.31 119.374 218.162 122.568 188.791C126.595 151.892 143.397 120.238 171.169 97.1608C190.146 81.4262 210.836 73.7749 234.442 73.7749C253.234 73.7749 271.517 78.6495 285.31 82.9071C297.344 86.6094 307.574 93.8904 317.479 100.863C326.273 107.095 335.345 113.512 345.852 117.585C350.388 119.374 355.295 120.3 360.386 120.3C373.902 120.3 386.769 114.191 398.156 108.885C404.682 105.799 410.283 103.146 415.143 102.035C431.435 98.2714 447.959 96.4203 464.345 96.4203C495.079 96.4203 524.841 102.961 552.89 115.919C603.295 139.181 635.094 174.167 655.969 229.393C663.329 248.829 663.93 270.673 664.486 291.775V292.701C664.578 295.663 664.671 298.501 664.763 301.278C665.597 324.479 667.772 351.258 677.446 374.274C683.232 387.972 691.841 399.202 700.172 410.062C703.135 413.888 706.467 418.269 709.522 422.588L712.345 426.599C718.085 434.682 723.5 442.333 729.194 449.861C753.818 482.441 772.008 512.059 786.45 543.22C803.02 579.008 814.499 616.648 821.442 658.359C826.163 686.682 825.561 713.831 819.729 739.007C814.268 762.516 804.177 783.495 790.569 799.662C772.749 820.826 750.207 832.982 725.352 834.71C723.315 834.833 721.232 834.957 719.15 834.957L719.242 834.895ZM234.488 76.7367C211.299 76.7367 190.979 84.2646 172.372 99.6906C145.156 122.274 128.678 153.25 124.79 189.285C121.642 218.039 126.688 249.446 138.629 275.486C140.944 280.484 143.397 285.852 146.128 291.035C159.967 317.444 178.991 340.337 199.079 364.586C208.66 376.125 218.473 387.972 228.008 400.498C275.96 463.683 316.137 481.701 377.003 508.912L378.021 509.406C497.856 563.027 542.753 639.786 582.328 707.476C599.361 736.662 615.469 764.182 636.205 788.123C651.109 805.339 664.393 816.26 678.001 822.554C693.739 829.835 709.753 832.982 725.352 831.871C749.698 830.144 771.777 818.296 789.227 797.564C802.557 781.706 812.416 761.22 817.785 738.205C823.525 713.523 824.08 686.867 819.452 659.038C812.555 617.696 801.215 580.304 784.737 544.824C770.388 513.848 752.29 484.354 727.805 451.959C722.066 444.37 716.65 436.718 710.911 428.635L708.087 424.624C705.079 420.367 701.746 416.047 698.784 412.222C690.313 401.238 681.565 389.823 675.641 375.755C665.735 352.184 663.514 324.972 662.68 301.463C662.588 298.686 662.495 295.786 662.403 292.886V291.961C661.801 271.166 661.199 249.693 654.071 230.812C633.474 176.265 602.092 141.711 552.242 118.757C524.424 105.923 494.893 99.4438 464.391 99.4438C448.145 99.4438 431.713 101.357 415.559 105.059C410.884 106.108 405.33 108.761 398.942 111.785C387.417 117.215 374.318 123.385 360.432 123.385C355.156 123.385 350.064 122.459 345.297 120.608C334.605 116.412 325.44 109.934 316.553 103.64C306.787 96.7288 296.696 89.5711 284.94 85.9306C271.239 81.673 253.141 76.8601 234.534 76.8601L234.488 76.7367Z" fill="url(#paint4_linear_713_26154)"/>
<path d="M820.607 658.847C815.979 617.937 806.814 580.976 792.558 545.743C779.227 512.732 761.685 482.126 739.051 452.138C734.608 446.276 730.072 440.044 725.674 433.997L719.657 425.791C716.417 421.41 712.992 417.09 709.567 412.771C700.819 401.849 691.747 390.496 685.776 376.489C675.547 352.486 673.788 324.719 673.464 300.716C673.417 297.508 673.371 294.299 673.371 290.659C673.186 268.754 673.001 246.108 665.225 226.116C654.44 198.349 640.601 176.259 622.966 158.55C606.58 142.075 586.816 129.364 562.516 119.615C538.956 110.174 514.008 105.423 488.319 105.423C468.324 105.423 448.05 108.385 428.055 114.123C423.519 115.419 418.242 118.319 412.132 121.651C400.329 128.068 386.907 135.349 372.743 135.349C367.559 135.349 362.56 134.301 357.931 132.326C347.193 127.698 337.982 120.294 329.095 113.074C319.375 105.238 309.377 97.093 297.343 92.7737C281.189 86.9118 256.056 80.7414 234.949 81.1733C216.203 81.6052 198.522 89.0097 180.887 103.942C168.02 114.802 157.652 127.698 150.153 142.137C143.303 155.218 138.767 169.719 136.638 185.145C132.055 218.341 138.906 255.302 155.013 283.995C157.652 288.746 160.521 293.744 163.669 298.68C177.138 319.968 193.986 338.294 211.899 357.793C224.581 371.614 237.726 385.992 250.27 402.096C296.464 461.517 334.233 483.484 390.933 512.547C494.013 565.489 537.475 635.646 575.8 697.597C594.5 727.771 612.135 756.278 635.046 780.589C649.997 796.447 663.049 806.443 676.241 811.997C689.618 817.673 703.04 820.573 716.093 820.573C718.176 820.573 720.259 820.512 722.342 820.327C727.341 819.956 732.386 819.154 737.338 817.982C755.853 813.416 772.933 802.679 786.726 787.006C813.988 755.969 826.347 709.321 820.653 658.909L820.607 658.847ZM785.245 784.723C771.729 800.088 754.974 810.577 736.876 815.02C732.016 816.192 727.063 816.995 722.157 817.303C707.345 818.352 692.071 815.575 676.796 809.096C663.883 803.605 651.015 793.794 636.296 778.183C613.57 754.056 595.981 725.673 577.374 695.623C538.864 633.425 495.216 562.897 391.581 509.708C335.112 480.707 297.528 458.864 251.659 399.875C239.069 383.708 225.924 369.331 213.102 355.386C195.375 336.073 178.619 317.747 165.242 296.706C162.188 291.831 159.318 286.833 156.68 282.144C140.942 254.068 134.231 217.971 138.721 185.515C140.803 170.521 145.201 156.391 151.866 143.618C159.225 129.488 169.362 116.9 181.998 106.225C199.309 91.6013 217.685 84.3202 236.014 83.8883C256.38 83.8883 281.235 89.8736 296.695 95.4269C308.405 99.6845 318.311 107.706 327.938 115.481C336.918 122.762 346.175 130.29 357.191 134.979C362.097 137.077 367.281 138.126 372.697 138.126C387.277 138.126 400.885 130.722 412.919 124.181C418.936 120.911 424.121 118.072 428.471 116.838C448.328 111.1 468.463 108.2 488.319 108.2C513.777 108.2 538.493 112.951 561.868 122.268C585.937 131.894 605.516 144.482 621.67 160.71C639.027 178.172 652.635 199.954 663.281 227.35C670.825 246.725 671.011 269.001 671.149 290.844C671.149 294.238 671.196 297.446 671.242 300.655C671.566 325.028 673.371 353.227 683.832 377.785C689.988 392.224 699.152 403.701 708.132 414.931C711.465 419.065 714.844 423.322 718.037 427.703L724.054 435.91C728.452 441.957 732.988 448.189 737.431 454.051C759.926 483.854 777.33 514.274 790.567 546.978C804.685 581.902 813.757 618.554 818.339 659.156C823.94 708.581 811.813 754.303 785.152 784.6L785.245 784.723Z" fill="url(#paint5_linear_713_26154)"/>
<path d="M819.728 659.337C815.655 580.232 791.818 511.247 748.864 454.356C745.902 450.407 742.893 446.396 739.838 442.324C736.552 437.943 733.219 433.438 729.841 428.934C726.415 424.43 722.759 419.987 719.102 415.606C709.891 404.561 700.356 393.084 694.108 378.645C683.323 353.655 682.073 323.543 682.166 300.096C682.166 296.826 682.166 293.617 682.258 289.853C682.49 268.072 682.814 243.39 674.529 222.781C653.931 171.443 621.439 139.85 572.144 123.252C531.181 109.43 485.404 110.418 440.969 126.09C436.85 127.571 431.897 130.595 426.158 134.112C414.54 141.27 400.145 150.155 385.009 150.155C379.779 150.155 374.734 149.044 370.059 146.885C359.043 141.763 349.786 133.31 340.852 125.165C331.317 116.465 321.458 107.456 309.378 102.458C291.974 95.3001 270.775 87.9573 249.715 87.7104C228.192 87.7104 208.52 95.1766 190.654 110.541C166.77 131.088 152.422 159.102 149.182 191.558C145.109 232.407 158.994 269.614 173.343 290.902C176.166 295.036 179.499 299.911 183.017 304.6C195.977 321.631 211.066 336.316 227.127 351.804C242.772 366.983 258.926 382.656 274.015 401.537C317.524 456.084 352.054 481.876 404.496 512.975C491.19 564.436 532.754 628.177 569.413 684.389C590.149 716.167 609.728 746.216 635.232 770.898C649.904 785.09 662.587 793.975 675.084 798.788C687.767 803.663 700.541 806.131 713.039 806.131C715.214 806.131 717.436 806.069 719.565 805.884C743.402 804.218 765.296 793.297 782.838 774.415C808.619 746.648 822.042 704.813 819.728 659.461V659.337ZM781.449 772.009C764.231 790.52 742.801 801.195 719.426 802.861C705.17 803.848 690.359 801.503 675.64 795.827C663.374 791.137 650.923 782.375 636.482 768.43C611.163 743.933 591.677 714.007 571.033 682.353C534.236 625.893 492.486 561.906 405.329 510.198C353.164 479.223 318.728 453.554 275.45 399.316C260.268 380.25 244.022 364.515 228.331 349.336C212.409 333.91 197.319 319.286 184.498 302.441C180.98 297.813 177.694 293 174.87 288.866C160.846 268.133 147.238 231.728 151.218 191.867C154.366 160.274 168.39 133.001 191.719 112.886C209.215 97.8299 228.516 90.5488 249.576 90.5488C270.359 90.7957 291.373 98.0767 308.591 105.173C320.348 110.047 330.068 118.933 339.51 127.51C348.536 135.778 357.886 144.293 369.179 149.6C374.086 151.883 379.362 153.055 384.87 153.055C400.469 153.055 415.141 144.046 426.944 136.765C432.591 133.31 437.451 130.286 441.432 128.867C485.543 113.318 530.903 112.33 571.542 126.029C620.143 142.442 652.265 173.603 672.538 224.138C680.546 244.13 680.268 268.38 680.037 289.791C680.037 293.555 679.944 296.826 679.944 300.096C679.852 323.914 681.148 354.519 692.164 380.126C698.551 394.935 708.225 406.535 717.667 417.889C721.185 422.147 724.842 426.528 728.22 430.97C731.599 435.413 734.978 439.917 738.218 444.298C741.273 448.371 744.282 452.443 747.244 456.331C789.827 512.728 813.433 581.035 817.46 659.461C819.728 703.826 806.583 744.797 781.357 771.947L781.449 772.009Z" fill="url(#paint6_linear_713_26154)"/>
<path d="M709.466 791.508C697.894 791.508 685.952 789.411 673.964 785.338C661.883 781.204 649.988 773.676 635.454 761.027C606.433 735.728 584.354 703.272 560.98 668.902C526.867 618.675 488.172 561.846 418.002 513.223C369.818 479.841 338.344 450.47 297.751 400.922C280.486 379.819 261.555 363.776 243.272 348.226C228.599 335.762 214.76 324.038 202.355 310.34C199.161 306.823 195.736 302.812 191.617 297.629C171.112 272.207 159.263 233.025 161.485 197.792C163.521 165.397 176.944 137.445 200.272 117.021C217.722 101.718 236.375 94.314 257.297 94.314C279.607 94.314 301.222 102.829 321.264 112.085C333.437 117.7 343.157 127.634 352.6 137.26C361.533 146.392 370.744 155.771 382.038 161.448C386.851 163.854 391.989 165.089 397.358 165.089C413.096 165.089 428.046 154.846 440.034 146.577C445.403 142.875 450.078 139.666 453.827 138.124C481.136 126.647 508.63 120.847 535.569 120.847C551.398 120.847 566.904 122.883 581.716 126.955C605.507 133.434 625.132 143.677 641.656 158.178C659.338 173.727 673.085 193.781 683.73 219.512C692.525 240.799 691.784 266.468 691.09 289.114C690.997 292.939 690.859 296.271 690.812 299.603C690.257 323.915 691.136 355.075 702.384 380.929C708.864 395.8 718.908 407.4 728.582 418.631C732.192 422.765 736.219 427.454 739.875 432.144C746.402 440.474 752.743 448.804 758.575 456.579C779.08 483.728 794.632 515.321 804.861 550.431C814.859 584.676 819.487 621.514 818.747 659.832C817.96 699.94 803.473 737.024 779.034 761.582C765.611 775.095 749.41 784.412 732.146 788.67C726.915 789.966 721.546 790.768 716.223 791.138C713.955 791.323 711.687 791.385 709.419 791.385L709.466 791.508ZM257.343 97.2141C236.885 97.2141 218.602 104.495 201.522 119.489C178.749 139.42 165.697 166.631 163.706 198.1C161.531 232.469 173.102 270.726 193.144 295.531C197.264 300.652 200.643 304.663 203.79 308.119C216.102 321.694 229.849 333.356 244.429 345.696C262.851 361.308 281.828 377.474 299.278 398.7C339.732 448.064 371.114 477.373 419.067 510.57C489.607 559.439 528.394 616.516 562.646 666.866C585.928 701.112 607.914 733.445 636.704 758.497C651.052 770.961 662.717 778.365 674.566 782.438C688.683 787.251 702.661 789.225 716.177 788.3C721.454 787.93 726.73 787.127 731.822 785.832C748.762 781.636 764.685 772.504 777.83 759.237C801.714 735.234 815.877 698.952 816.664 659.709C817.451 621.699 812.822 585.293 802.917 551.418C792.827 516.678 777.413 485.456 757.14 458.615C751.262 450.84 744.967 442.51 738.441 434.18C734.83 429.552 730.803 424.863 727.239 420.79C717.38 409.375 707.197 397.59 700.579 382.349C689.007 355.816 688.174 324.162 688.683 299.48C688.729 296.148 688.868 292.816 688.961 289.299C689.655 266.715 690.396 241.417 681.879 220.869C671.418 195.57 657.903 175.825 640.499 160.584C624.207 146.269 604.813 136.149 581.299 129.732C566.627 125.721 551.26 123.685 535.569 123.685C508.862 123.685 481.599 129.424 454.475 140.839C450.911 142.32 446.329 145.467 441.052 149.107C428.833 157.499 413.651 167.989 397.358 167.989C391.758 167.989 386.342 166.693 381.251 164.163C369.679 158.363 360.33 148.799 351.258 139.543C342 130.102 332.373 120.291 320.524 114.8C300.667 105.668 279.283 97.2141 257.25 97.2141H257.343Z" fill="url(#paint7_linear_713_26154)"/>
<path d="M705.898 777.018C695.114 777.018 684.005 775.352 672.896 772.02C661.325 768.564 649.892 762.147 635.729 751.287C601.94 725.186 576.76 689.028 550.146 650.709C519.782 607.023 485.391 557.598 431.607 513.541C388.052 477.876 358.521 444.124 321.585 400.314C302.376 377.546 280.899 361.811 260.117 346.57C246.555 336.636 233.734 327.257 221.792 316.212C218.089 312.818 214.247 308.992 209.989 304.488C199.482 293.505 190.132 278.017 183.698 260.986C176.709 242.475 173.284 222.792 173.84 204.095C174.765 171.762 187.309 143.934 210.082 123.633C227.161 108.392 245.398 100.988 265.764 100.988C289.277 100.988 312.142 110.984 333.341 121.72C345.607 127.952 355.235 138.812 364.538 149.302C373.471 159.36 382.682 169.788 394.208 175.958C399.16 178.612 404.437 179.969 409.899 179.969C426.284 179.969 441.697 168.245 454.056 158.805C459.054 154.979 463.359 151.709 466.784 150.043C497.611 134.863 528.437 127.212 558.477 127.212C569.678 127.212 580.741 128.323 591.386 130.482C639.478 140.355 672.757 168.369 693.077 216.066C702.38 237.971 701.131 264.627 700.066 288.136C699.881 291.9 699.742 295.417 699.603 298.934C698.631 324.048 699.048 356.319 710.805 383.037C717.562 398.401 728.115 410.187 738.345 421.664C742.325 426.107 746.352 430.611 750.101 435.239C756.72 443.384 762.691 451.097 768.477 458.748C807.866 511.073 825.918 584.501 817.911 660.335C814.254 695.26 798.794 727.593 775.605 749.066C757.831 765.479 736.262 774.982 713.258 776.648C710.897 776.833 708.444 776.894 705.944 776.894L705.898 777.018ZM265.671 103.95C245.722 103.95 227.902 111.169 211.192 126.101C189.021 145.847 176.802 172.873 175.922 204.28C175.413 222.483 178.746 241.673 185.55 259.752C191.845 276.474 200.963 291.53 211.239 302.328C215.497 306.771 219.292 310.535 222.949 313.929C234.798 324.912 247.573 334.229 261.089 344.164C281.964 359.466 303.579 375.262 322.973 398.278C359.863 441.965 389.301 475.655 432.718 511.197C486.733 555.5 521.263 605.048 551.673 648.797C578.241 686.992 603.282 723.027 636.793 748.881C650.725 759.617 662.019 765.973 673.313 769.305C684.283 772.575 695.206 774.241 705.852 774.241C708.259 774.241 710.666 774.179 713.026 773.994C735.66 772.39 756.813 763.073 774.263 746.968C796.989 725.989 812.078 694.396 815.643 660.212C823.511 585.303 805.737 512.739 766.811 461.093C761.071 453.442 755.054 445.79 748.481 437.645C744.732 433.017 740.752 428.575 736.864 424.194C726.449 412.532 715.711 400.499 708.768 384.765C696.687 357.368 696.271 324.542 697.243 299.058C697.381 295.541 697.52 292.024 697.706 288.26C698.77 265.121 700.02 238.896 691.04 217.794C671.045 170.899 638.32 143.317 590.924 133.629C580.417 131.47 569.447 130.359 558.338 130.359C528.576 130.359 497.981 138.01 467.386 153.004C464.146 154.609 459.888 157.817 455.028 161.52C442.391 171.145 426.7 183.054 409.76 183.054C404.02 183.054 398.466 181.635 393.236 178.858C381.433 172.503 372.037 161.951 363.011 151.77C353.846 141.404 344.358 130.729 332.462 124.682C311.448 114.007 288.814 104.135 265.671 104.135V103.95Z" fill="url(#paint8_linear_713_26154)"/>
<path d="M702.114 762.636C692.255 762.636 682.072 761.34 671.796 758.749C660.641 755.972 649.579 750.665 636.017 741.533C595.934 714.692 567.097 672.98 536.595 628.738C510.351 590.728 483.181 551.423 445.133 513.845C420.046 489.102 400.005 464.914 378.759 439.368C368.16 426.596 357.19 413.391 345.341 399.816C324.466 375.875 300.628 361.004 277.624 346.627C264.849 338.667 252.768 331.078 241.151 322.131C236.939 318.86 232.727 315.343 228.283 311.394C216.665 301.089 206.112 285.787 198.521 268.325C190.421 249.628 186.07 229.574 185.978 210.323C185.885 187.862 191.671 155.715 219.72 130.293C236.568 114.99 254.388 107.585 274.199 107.585C277.115 107.585 280.124 107.771 283.132 108.079C304.933 110.424 326.78 121.284 345.248 131.527C357.653 138.376 367.141 150.161 376.352 161.577C385.239 172.622 394.45 183.975 406.161 190.639C411.16 193.478 416.482 194.897 422.037 194.897C439.44 194.897 455.918 181.137 467.953 171.079C472.535 167.253 476.515 163.921 479.617 162.194C520.441 138.993 562.932 129.12 600.933 134.303C648.098 140.721 682.165 167.13 702.299 212.914C712.158 235.375 710.399 263.018 708.872 287.453C708.64 291.279 708.409 294.919 708.224 298.56C706.835 324.537 706.789 357.857 719.055 385.501C726.09 401.359 737.245 413.453 748.03 425.115C752.149 429.557 756.315 434.062 760.157 438.69C767.562 447.513 773.117 454.486 778.208 461.273C797.556 486.942 811.303 519.398 817.968 555.187C824.494 590.05 824.124 626.702 816.903 661.194C810.146 693.404 792.094 722.405 767.377 740.854C750.39 753.504 730.487 760.97 709.89 762.451C707.344 762.636 704.706 762.698 702.068 762.698L702.114 762.636ZM274.199 110.486C254.851 110.486 237.402 117.767 220.924 132.699C193.661 157.442 188.014 188.541 188.107 210.323C188.199 229.081 192.411 248.641 200.326 266.905C207.732 283.997 218.054 298.93 229.394 308.988C233.791 312.875 238.003 316.392 242.169 319.601C253.694 328.548 265.729 336.014 278.504 343.974C301.693 358.413 325.623 373.407 346.729 397.595C358.625 411.231 369.595 424.436 380.194 437.209C401.393 462.754 421.435 486.88 446.43 511.562C484.662 549.325 511.878 588.692 538.169 626.825C568.532 670.82 597.23 712.409 636.943 739.003C650.366 747.95 661.197 753.195 672.167 755.972C684.988 759.181 697.717 760.415 709.751 759.551C730.024 758.132 749.557 750.789 766.313 738.325C790.52 720.307 808.202 691.923 814.774 660.454C821.902 626.455 822.273 590.296 815.839 555.927C809.22 520.694 795.704 488.67 776.635 463.371C771.543 456.645 766.035 449.673 758.676 440.911C754.88 436.345 750.714 431.84 746.687 427.459C735.718 415.551 724.378 403.333 717.157 387.043C704.567 358.783 704.567 324.846 706.002 298.436C706.187 294.796 706.418 291.155 706.65 287.329C708.177 263.327 709.89 236.177 700.355 214.519C680.637 169.598 647.08 143.621 600.655 137.327C563.024 132.267 520.858 141.955 480.403 165.032C477.441 166.698 473.553 169.968 469.063 173.732C456.798 183.975 440.042 197.982 422.037 197.982C416.205 197.982 410.558 196.439 405.281 193.478C393.201 186.628 383.851 175.028 374.825 163.86C365.753 152.629 356.403 141.091 344.369 134.365C326.039 124.184 304.424 113.447 282.901 111.164C279.985 110.856 277.022 110.671 274.153 110.671L274.199 110.486Z" fill="url(#paint9_linear_713_26154)"/>
<path d="M697.62 748.131C688.826 748.131 679.754 747.205 670.728 745.416C659.944 743.256 648.974 738.937 636.291 731.779C588.108 704.63 555.522 654.834 521.039 602.139C502.015 573.076 482.39 543.088 458.692 514.087C444.991 497.304 432.679 480.644 420.83 464.539C404.028 441.708 388.152 420.174 369.174 399.194C346.864 374.513 320.852 360.876 295.718 347.671C284.008 341.501 271.881 335.145 260.541 327.864C255.773 324.779 251.098 321.509 246.609 318.115C233.88 308.551 222.031 293.433 213.283 275.539C204.026 256.658 198.749 236.172 198.101 216.303C197.36 193.905 202.174 162.004 229.483 136.767C249.201 118.626 270.168 111.406 294.145 114.738C316.177 117.762 337.515 129.177 357.279 141.086C369.822 148.614 379.218 161.263 388.29 173.542C397.177 185.513 406.342 197.854 418.284 205.073C423.422 208.158 428.883 209.763 434.577 209.763C452.628 209.763 469.569 194.337 481.927 183.045C486.093 179.219 489.703 175.949 492.527 174.098C532.333 148.12 573.342 135.533 610.556 137.877C633.144 139.297 653.093 145.899 669.802 157.376C687.299 169.408 701.37 186.994 711.553 209.516C721.967 232.532 719.699 261.162 717.755 286.461V286.831C717.431 290.78 717.153 294.359 716.922 297.876C715.116 324.717 714.654 359.148 727.429 387.594C734.834 404.069 746.591 416.41 757.978 428.38C762.143 432.761 766.448 437.266 770.336 441.77C776.168 448.496 782.324 455.777 788.063 463.428C807.18 488.85 820.001 521.492 825.046 557.65C830.045 593.254 826.805 630.214 815.974 661.745C806.532 689.265 787.971 713.083 763.809 728.694C746.452 739.924 727.244 746.342 706.6 747.761C703.638 747.946 700.629 748.069 697.667 748.069L697.62 748.131ZM283.036 116.96C264.059 116.96 246.886 124.241 230.64 139.235C204.118 163.67 199.443 194.584 200.184 216.242C200.832 235.555 205.97 255.547 215.042 273.997C223.605 291.459 235.176 306.268 247.627 315.647C252.07 318.979 256.745 322.249 261.467 325.273C272.76 332.554 284.841 338.848 296.505 345.018C321.777 358.284 347.929 371.983 370.563 396.973C389.633 418.076 405.555 439.611 422.357 462.441C434.253 478.607 446.518 495.206 460.173 511.928C483.964 540.99 503.635 571.102 522.659 600.165C557.003 652.613 589.45 702.161 637.171 729.064C649.714 736.099 660.453 740.418 671.098 742.516C683.04 744.922 694.889 745.725 706.507 744.861C726.827 743.441 745.804 737.086 762.884 726.041C786.582 710.677 804.773 687.414 813.984 660.449C824.629 629.474 827.777 593.13 822.917 558.082C817.918 522.479 805.374 490.393 786.536 465.341C780.843 457.752 774.687 450.532 768.901 443.806C765.059 439.364 760.755 434.859 756.635 430.54C745.064 418.446 733.122 405.92 725.531 388.951C712.432 359.765 712.895 324.779 714.746 297.506C714.978 293.927 715.255 290.348 715.579 286.399V286.029C717.57 261.224 719.745 233.087 709.701 210.873C699.703 188.783 685.956 171.63 668.83 159.782C652.399 148.429 632.727 142.012 610.464 140.592C573.666 138.309 532.934 150.835 493.499 176.566C490.814 178.294 487.296 181.564 483.177 185.266C470.587 196.743 453.322 212.539 434.577 212.539C428.606 212.539 422.82 210.873 417.404 207.603C405.139 200.199 395.789 187.611 386.763 175.455C377.784 163.361 368.526 150.897 356.399 143.616C336.774 131.83 315.621 120.539 293.913 117.515C290.257 117.021 286.646 116.775 283.128 116.775L283.036 116.96Z" fill="url(#paint10_linear_713_26154)"/>
<path d="M692.772 733.823C685.181 733.823 677.405 733.268 669.722 732.157C659.076 730.614 648.245 727.282 636.673 722.099C578.214 695.628 542.713 634.356 505.174 569.505C494.575 551.179 483.698 532.421 472.265 514.403C466.248 504.901 460.277 495.152 455 486.513L454.815 486.204C435.051 453.933 416.398 423.513 392.977 398.708C369.371 373.718 341.507 361.624 314.522 349.9C303.043 344.902 291.24 339.781 279.946 333.734C274.762 331.019 269.717 328.057 264.95 324.972C235.697 306.214 212.6 263.083 210.054 222.358C208.666 200.144 212.6 168.428 239.215 143.5C259.303 124.68 280.641 117.584 305.126 121.657C327.39 125.359 349.144 137.947 369.279 150.905C381.915 159.049 391.218 172.624 400.198 185.829C409.038 198.787 418.203 212.177 430.33 219.766C435.514 223.037 441.068 224.764 446.854 224.764C465.924 224.764 483.975 206.87 495.917 195.023C499.759 191.259 502.999 188.05 505.452 186.199C544.194 157.445 583.861 142.019 620.195 141.587H621.815C643.431 141.587 662.732 146.832 679.257 157.137C696.799 168.12 710.824 184.657 720.914 206.253C731.884 229.824 729.153 259.442 726.7 285.543V286.036C726.283 290.109 725.959 293.688 725.635 297.328C723.367 324.972 722.488 360.513 735.772 389.823C743.502 406.915 755.953 419.626 767.987 431.843C772.245 436.163 776.55 440.543 780.484 444.986C786.548 451.774 792.472 458.499 797.888 465.719C816.68 490.709 828.946 524.523 832.417 560.866C835.981 598.136 829.779 634.233 814.967 662.493C803.072 685.138 783.678 704.575 760.35 717.163C742.992 726.542 723.876 732.034 703.51 733.453C699.993 733.7 696.429 733.823 692.865 733.823H692.772ZM292.073 123.446C273.374 123.446 256.433 130.789 240.372 145.845C214.637 169.971 210.795 200.638 212.137 222.111C214.59 261.848 237.178 304.054 265.783 322.38C270.504 325.404 275.503 328.304 280.687 331.019C291.934 337.004 303.691 342.125 315.077 347.062C342.34 358.909 370.436 371.065 394.319 396.425C417.879 421.415 436.625 451.959 456.482 484.353L456.667 484.662C461.943 493.3 467.914 503.05 473.931 512.49C485.41 530.631 496.288 549.389 506.794 567.53C544.24 632.196 579.51 693.098 637.368 719.323C648.8 724.506 659.446 727.776 669.953 729.257C681.201 730.861 692.541 731.355 703.325 730.553C723.46 729.133 742.344 723.703 759.424 714.448C782.382 702.045 801.452 682.979 813.07 660.765C827.603 633.122 833.667 597.704 830.149 561.175C826.724 525.448 814.69 492.313 796.221 467.755C790.852 460.597 784.974 453.933 778.957 447.208C775.022 442.827 770.764 438.507 766.645 434.311C754.333 421.785 741.743 408.951 733.782 391.365C720.173 361.315 721.053 325.157 723.367 297.02C723.645 293.379 724.015 289.739 724.385 285.666V285.173C726.839 259.504 729.523 230.441 718.924 207.734C709.065 186.569 695.364 170.403 678.192 159.728C661.992 149.609 642.968 144.426 621.677 144.426H620.057C584.139 144.858 544.795 160.16 506.378 188.667C504.017 190.395 500.87 193.542 497.167 197.183C484.948 209.338 466.526 227.541 446.761 227.541C440.652 227.541 434.82 225.752 429.312 222.296C416.768 214.398 407.511 200.823 398.485 187.68C389.598 174.722 380.434 161.333 368.214 153.434C348.218 140.538 326.695 128.136 304.709 124.433C300.405 123.693 296.147 123.323 292.027 123.323L292.073 123.446Z" fill="url(#paint11_linear_713_26154)"/>
<path d="M687.17 719.636C681.06 719.636 674.812 719.39 668.61 718.834C626.721 715.194 591.173 693.659 559.976 652.996C532.482 617.146 511.561 571.176 491.334 526.749C468.237 476.029 446.483 428.146 416.721 398.158C391.772 372.983 363.214 362.987 332.989 352.312C321.742 348.363 310.309 344.352 299.2 339.539C293.229 336.948 287.953 334.418 283.093 331.765C268.096 323.62 253.609 308.811 242.407 290.114C230.928 271.048 223.615 249.019 221.764 228.225C219.82 206.135 222.921 174.728 248.748 150.108C269.161 130.671 290.915 123.637 315.863 128.45C338.451 132.892 360.529 146.529 381.034 160.597C393.809 169.359 403.066 183.922 411.953 197.99C420.794 211.874 429.866 226.189 442.178 234.334C447.501 237.851 453.24 239.702 459.119 239.702C478.929 239.702 497.444 219.895 509.663 206.752C513.042 203.173 515.912 200.088 518.087 198.237C539.471 180.281 561.272 166.583 582.795 157.512C603.763 148.689 623.99 144.369 642.921 144.863C661.852 145.295 678.931 150.416 693.65 160.042C708.786 169.976 720.959 184.415 729.939 202.988C741.51 226.991 738.224 257.596 735.354 284.623C734.891 288.942 734.475 292.891 734.104 296.84C731.42 325.347 730.124 361.938 743.871 392.173C751.971 410.005 765.162 423.025 777.891 435.612C782.196 439.87 786.454 444.066 790.388 448.324C796.174 454.556 802.099 460.973 807.468 468.069C817.604 481.582 825.982 498.859 831.629 517.987C837.23 536.931 840.146 557.416 839.961 577.162C839.683 611.346 830.333 641.889 813.624 663.177C799.229 681.565 779.465 696.374 756.46 706.123C739.335 713.404 720.681 717.785 701.01 719.143C696.474 719.451 691.799 719.636 687.078 719.636H687.17ZM301.237 129.869C282.769 129.869 266.013 137.273 250.091 152.453C225.096 176.27 222.088 206.629 223.985 227.917C225.791 248.217 232.919 269.69 244.166 288.325C255.182 306.651 269.299 321.09 283.972 329.05C288.786 331.641 294.016 334.171 299.895 336.701C310.957 341.514 322.343 345.525 333.359 349.35C364.001 360.087 392.744 370.206 418.017 395.752C448.056 426.048 469.95 474.178 493.139 525.145C513.273 569.449 534.148 615.233 561.457 650.836C592.284 691.006 627.369 712.294 668.748 715.811C679.672 716.736 690.642 716.86 701.01 716.119C720.496 714.762 738.964 710.381 755.905 703.223C778.585 693.597 798.072 678.973 812.235 660.894C828.528 640.162 837.646 610.358 837.924 576.977C838.109 557.602 835.239 537.486 829.731 518.851C824.177 500.093 815.984 483.125 806.033 469.92C800.756 462.886 794.832 456.53 789.138 450.36C785.25 446.164 780.992 441.968 776.919 437.896C763.866 424.999 750.49 411.795 742.158 393.469C728.041 362.493 729.383 325.286 732.068 296.285C732.438 292.336 732.855 288.387 733.317 284.191C736.187 257.535 739.381 227.485 728.226 204.407C719.478 186.266 707.582 172.198 692.817 162.51C678.376 153.07 661.62 148.01 643.013 147.64C624.267 147.208 604.318 151.465 583.582 160.166C562.244 169.174 540.628 182.749 519.383 200.582C517.3 202.309 514.477 205.395 511.144 208.912C498.647 222.302 479.809 242.479 459.211 242.479C452.963 242.479 446.945 240.566 441.299 236.864C428.616 228.472 419.359 213.91 410.38 199.78C401.585 185.896 392.467 171.581 380.108 163.066C359.743 149.059 337.849 135.546 315.586 131.226C310.679 130.239 305.819 129.807 301.191 129.807L301.237 129.869Z" fill="url(#paint12_linear_713_26154)"/>
<path d="M732.805 906.84C715.772 906.84 698.97 901.78 682.77 891.722C665.367 880.924 648.796 863.215 633.614 839.027C617.414 813.296 605.241 785.406 592.373 755.85C551.688 662.492 505.633 556.669 309.195 510.082C300.216 507.985 291.56 506.195 283.229 504.467C278.369 503.48 273.601 502.493 268.88 501.444C180.011 482.192 156.682 459.917 146.685 450.415C95.77 401.853 65.4062 358.907 50.8724 270.856C37.542 190.147 71.0532 98.2694 127.152 61.6789C191.721 19.535 258.188 38.5399 265.547 40.8229C300.354 51.6828 315.397 49.4615 332.894 46.9316C338.957 46.0678 345.252 45.1422 352.843 44.6486C401.675 41.44 452.867 59.2725 504.893 97.6524C531.183 117.027 551.04 136.526 567.379 159.048C584.968 183.236 598.853 211.682 609.731 245.927C614.637 261.353 617.275 277.828 619.775 293.748L619.914 294.488C620.423 297.574 620.932 300.782 621.441 303.929C624.635 323.366 628.569 344.037 635.975 363.103C641.529 377.419 649.213 390.191 656.618 402.471L659.025 406.481C666.431 418.822 673.42 429.312 680.363 438.444C693.092 455.228 706.7 470.839 719.892 485.956C757.615 529.272 796.634 574.07 825.979 656.074C840.513 696.737 846.206 738.017 842.457 775.533C839.032 809.717 828.016 840.138 810.566 863.585C794.69 884.935 774.602 899.065 752.431 904.433C747.895 905.544 743.22 906.223 738.637 906.593C736.693 906.716 734.749 906.778 732.805 906.778V906.84ZM219.4 37.4909C193.804 37.4909 160.709 42.9826 128.078 64.3322C72.8583 100.367 39.8564 190.826 52.9553 270.3C67.3503 357.427 97.4362 400.002 147.888 448.132C157.747 457.511 180.797 479.539 269.158 498.667C273.879 499.716 278.646 500.642 283.506 501.691C291.884 503.418 300.54 505.208 309.519 507.306C506.929 554.139 553.308 660.517 594.178 754.431C607 783.925 619.127 811.692 635.188 837.237C650.185 861.055 666.477 878.518 683.603 889.131C701.331 900.114 719.892 905.112 738.452 903.755C742.988 903.446 747.524 902.706 751.968 901.657C773.676 896.412 793.394 882.59 808.946 861.672C826.026 838.657 836.856 808.792 840.189 775.225C843.892 738.326 838.291 697.539 823.896 657.432C794.736 575.921 755.902 531.37 718.364 488.239C705.173 473.122 691.518 457.449 678.743 440.604C671.754 431.41 664.719 420.858 657.22 408.394L654.813 404.445C647.269 391.981 639.539 379.085 633.892 364.523C626.347 345.086 622.367 324.23 619.173 304.608C618.664 301.523 618.155 298.314 617.646 295.167L617.507 294.427C615.007 278.63 612.415 262.341 607.555 247.161C596.771 213.224 583.024 185.087 565.62 161.146C549.42 138.871 529.702 119.496 503.597 100.244C451.941 62.1108 401.119 44.4018 352.704 47.6104C345.206 48.104 338.957 49.0296 332.894 49.8934C315.259 52.485 299.984 54.7063 264.853 43.723C261.289 42.6123 243.7 37.5526 219.215 37.5526L219.4 37.4909Z" fill="url(#paint13_linear_713_26154)"/>
<path d="M822.421 657.873C813.349 615.482 799.648 577.102 780.532 540.635C761.832 504.97 739.198 473.624 719.527 447.585C712.723 438.577 706.289 429.259 699.485 419.387C696.708 415.376 693.792 411.427 690.968 407.539C683.007 396.741 674.768 385.511 669.214 372.06C660.003 349.908 657.457 324.115 656.161 301.84C656.022 299.125 655.883 296.287 655.698 293.51V292.461C654.634 272.284 653.615 251.49 646.719 232.732C635.795 202.867 621.909 178.679 604.367 158.81C588.121 140.422 568.125 125.243 543.316 112.285C510.777 95.3785 476.155 86.8016 440.375 86.8016C427.693 86.8016 414.918 87.9123 402.328 90.1336C397.005 91.0592 388.905 94.3295 382.333 96.9828C364.096 104.387 346.415 111.607 321.837 98.4637C319.43 97.1679 316.468 95.2551 313.089 93.0337C296.935 82.4823 269.904 64.8349 228.061 66.6861C165.112 68.167 127.065 119.011 113.549 162.142C100.728 205.952 108.18 257.29 134.471 306.715C142.895 322.511 171.731 368.666 203.483 408.465C233.569 446.228 284.808 481.461 340.583 502.625L363.726 511.758C498.835 564.7 544.241 647.136 584.279 719.885C600.109 748.701 615.105 775.851 634.546 800.039C649.635 818.797 663.984 831.385 678.425 838.542C692.866 845.7 707.585 849.341 722.211 849.341C724.248 849.341 726.238 849.279 728.275 849.155C733.042 848.847 737.81 848.045 742.485 846.934C762.249 842.059 780.3 830.151 794.695 812.442C808.998 794.794 819.227 771.964 824.272 746.356C829.734 718.651 829.132 688.91 822.513 657.996L822.421 657.873ZM822.097 745.554C817.144 770.606 807.146 793.005 793.168 810.282C779.097 827.621 761.416 839.344 742.022 844.096C737.486 845.206 732.811 845.947 728.09 846.255C711.843 847.428 695.227 843.849 679.119 835.827C664.956 828.793 650.838 816.391 635.98 797.879C616.679 773.876 601.775 746.788 585.945 718.096C545.676 644.977 500.085 562.108 364.235 508.919L341.092 499.787C285.641 478.746 234.726 443.821 204.872 406.305C170.759 363.421 142.571 317.019 136.183 304.987C110.309 256.364 102.996 205.952 115.54 163.13C128.777 120.862 166.177 71.0054 228.061 69.5245C230.098 69.401 232.134 69.401 234.125 69.401C271.94 69.401 296.889 85.6909 312.07 95.5636C315.496 97.7849 318.458 99.7595 320.957 101.055C346.23 114.568 364.235 107.287 382.888 99.6977C389.368 97.1062 397.422 93.8359 402.56 92.972C415.057 90.8124 427.786 89.7017 440.329 89.7017C475.831 89.7017 510.221 98.2168 542.483 115C567.06 127.773 586.871 142.829 602.932 161.032C620.289 180.653 633.944 204.533 644.729 234.027C651.394 252.292 652.412 272.839 653.43 292.708V293.757C653.615 296.534 653.754 299.372 653.939 302.087C655.235 324.671 657.828 350.833 667.27 373.479C673.009 387.3 681.341 398.592 689.395 409.576C692.218 413.401 695.134 417.35 697.865 421.361C704.669 431.295 711.103 440.613 717.953 449.683C737.578 475.599 760.12 506.883 778.681 542.301C797.658 578.521 811.266 616.593 820.292 658.675C826.818 689.095 827.373 718.343 822.051 745.554H822.097Z" fill="url(#paint14_linear_713_26154)"/>
<path d="M824.184 656.992C798.634 569.989 760.309 520.75 719.716 468.671L719.254 468.116C712.912 459.971 706.386 451.579 699.952 443.064C692.269 432.945 685.187 422.146 679.262 412.952C677.365 409.991 675.374 406.967 673.43 404.067L672.967 403.388C665.562 392.343 657.925 380.866 652.555 367.538C644.316 347.114 641.076 324.345 638.762 302.872C638.484 300.157 638.207 297.381 637.883 294.296V293.617C635.985 275.414 634.133 256.594 628.209 239.317C607.195 177.983 576.044 137.814 524.065 104.926C488.193 82.2803 446.49 69.7544 392.844 65.4968C387.012 65.0031 371.228 64.7563 355.769 70.248C330.821 80.3675 310.825 76.1099 298.883 70.6799C231.028 39.6428 189.787 53.8964 176.271 58.5242C175.67 58.7093 115.961 80.7994 89.5775 147.255C74.5345 185.141 73.7014 229.568 87.1243 279.24C99.7604 329.59 160.442 443.99 243.571 480.272C273.241 493.6 335.31 510.63 336.468 510.939C502.588 561.413 548.643 655.635 589.236 738.812C603.307 767.628 616.591 794.839 634.041 819.582C649.315 841.302 664.543 856.173 680.558 865.182C695.925 873.82 711.755 878.201 727.585 878.201C729.575 878.201 731.519 878.14 733.51 878.016C738.185 877.708 742.86 876.967 747.442 875.857C768.409 870.735 787.479 857.654 802.568 838.094C818.352 817.546 828.952 790.89 833.164 761.025C837.792 728.199 834.784 693.212 824.184 657.116V656.992ZM831.035 760.346C826.915 789.656 816.547 815.757 801.087 835.872C786.322 855.062 767.623 867.897 747.072 872.895C742.582 874.005 737.953 874.684 733.417 875.054C715.967 876.288 698.379 872.031 681.392 862.467C665.654 853.643 650.704 838.958 635.615 817.546C618.304 792.988 605.066 765.9 591.041 737.207C550.217 653.598 503.931 558.821 336.884 508.1C336.236 507.915 273.935 490.823 244.219 477.495C161.83 441.583 101.658 328.233 89.1147 278.314C75.9231 229.445 76.71 185.82 91.429 148.674C117.349 83.3293 176.133 61.6094 176.734 61.4243C183.631 59.0796 197.702 54.2049 218.901 54.2049C238.989 54.2049 265.418 58.5859 298.096 73.5183C310.362 79.1334 330.774 83.4527 356.324 73.1481C371.46 67.7798 386.919 68.0884 392.659 68.5203C446.027 72.7162 487.453 85.1804 523.093 107.641C574.563 140.159 605.436 179.958 626.172 240.613C631.958 257.52 633.81 276.093 635.615 294.11L635.707 295.098C635.985 297.874 636.263 300.651 636.54 303.366C638.855 325.148 642.187 348.163 650.565 369.019C656.027 382.656 663.757 394.194 671.255 405.425L671.718 406.103C673.662 409.003 675.606 411.965 677.55 414.927C683.521 424.183 690.649 434.981 698.379 445.162C704.859 453.677 711.385 462.131 717.726 470.214L718.189 470.769C758.597 522.662 796.783 571.655 822.148 658.103C832.608 693.706 835.571 728.137 831.035 760.408V760.346Z" fill="url(#paint15_linear_713_26154)"/>
<path d="M823.304 657.428C799.235 563.453 757.439 508.29 713.236 449.918L709.718 445.29C702.451 435.726 695.693 425.606 689.352 416.104C686.899 412.402 684.353 408.761 681.854 405.182C674.217 394.322 666.302 383.03 660.886 369.702C652.184 348.353 649.222 323.609 647.463 302.26C647.232 299.298 647 296.274 646.769 293.004C645.334 273.814 643.899 254.007 637.512 235.928C626.542 204.952 612.656 179.715 595.114 158.798C578.914 139.423 558.825 123.009 533.738 108.571C489.119 82.84 438.343 72.1035 389.418 78.0888C383.679 78.7675 377.106 80.9272 370.117 83.2719C359.703 86.7274 347.9 90.6147 336.05 90.6147C330.959 90.6147 326.284 89.936 321.748 88.5168C312.074 85.555 303.372 81.1123 294.856 76.793C284.627 71.6098 272.453 65.9331 259.956 63.2181C255.976 62.3542 235.286 58.0967 219.595 60.1329C158.775 65.4394 128.226 99.9937 113.368 128.007C91.3822 169.411 90.8268 218.589 97.5845 250.737C109.989 309.479 130.957 340.701 149.564 368.407C168.634 396.975 195.711 429.247 214.364 444.796C234.591 463.924 274.12 484.287 328.691 503.785C329.894 504.217 330.728 504.526 331.237 504.711C335.171 506.007 338.596 507.241 342.253 508.537C344.706 509.4 347.252 510.264 350.121 511.251C500.875 563.206 546.652 651.567 587.106 729.561C601.964 758.253 616.035 785.341 634.318 809.714C649.546 829.953 664.311 843.713 679.493 851.796C694.397 859.694 709.672 863.705 724.946 863.705C726.936 863.705 728.927 863.644 730.917 863.52C735.638 863.212 740.406 862.471 744.988 861.299C765.354 856.301 783.915 843.775 798.634 825.14C813.677 806.074 824.045 781.33 828.673 753.563C833.719 723.267 831.913 690.934 823.35 657.428H823.304ZM826.498 752.946C821.962 780.096 811.779 804.346 797.06 823.042C782.619 841.368 764.474 853.586 744.479 858.46C739.989 859.571 735.36 860.312 730.686 860.62C713.837 861.854 696.712 857.905 680.188 849.143C665.283 841.245 650.703 827.67 635.753 807.74C617.562 783.552 603.584 756.525 588.772 727.956C548.133 649.592 502.079 560.738 350.538 508.537C347.668 507.549 345.169 506.685 342.716 505.822C339.105 504.526 335.634 503.353 331.746 501.996C331.283 501.811 330.404 501.502 329.2 501.07C275.647 481.942 235.286 461.148 215.521 442.451C197.007 426.964 170.115 394.939 151.138 366.555C132.716 339.097 111.887 308.122 99.6674 249.996C93.0022 218.466 93.6039 170.275 115.127 129.735C136.095 90.2445 172.244 67.1672 219.78 63.033C222.696 62.6628 225.751 62.4776 228.852 62.4776C242.321 62.4776 256.392 65.3777 259.586 66.0565C271.898 68.7715 283.932 74.3865 294.115 79.508C302.632 83.8273 311.426 88.27 321.239 91.2935C325.914 92.7744 330.774 93.4531 336.004 93.4531C348.131 93.4531 360.073 89.504 370.626 86.0486C377.523 83.7656 384.003 81.6059 389.557 80.9272C438.065 75.0036 488.471 85.6784 532.813 111.224C557.668 125.539 577.571 141.829 593.586 160.957C610.943 181.628 624.644 206.618 635.475 237.162C641.678 254.748 643.159 274.308 644.547 293.374C644.779 296.521 645.01 299.545 645.242 302.507C647 324.165 650.009 349.278 658.896 371.06C664.45 384.696 672.458 396.112 680.188 407.095C682.687 410.612 685.233 414.253 687.686 417.955C694.027 427.457 700.831 437.577 708.144 447.264L711.662 451.892C755.726 510.017 797.291 564.934 821.221 658.292C829.692 691.304 831.451 723.143 826.498 752.885V752.946Z" fill="url(#paint16_linear_713_26154)"/>
</g>
<defs>
<linearGradient id="paint0_linear_713_26154" x1="83.5573" y1="-0.577215" x2="955.028" y2="674.8" gradientUnits="userSpaceOnUse">
<stop stop-color="#AFB388"/>
<stop offset="0.31" stop-color="#41929E"/>
<stop offset="0.49" stop-color="#27758D"/>
<stop offset="0.68" stop-color="#115C7E"/>
<stop offset="0.86" stop-color="#044D76"/>
<stop offset="1" stop-color="#004873"/>
</linearGradient>
<linearGradient id="paint1_linear_713_26154" x1="90.9552" y1="-10.0872" x2="962.426" y2="665.29" gradientUnits="userSpaceOnUse">
<stop stop-color="#AFB388"/>
<stop offset="0.31" stop-color="#41929E"/>
<stop offset="0.49" stop-color="#27758D"/>
<stop offset="0.68" stop-color="#115C7E"/>
<stop offset="0.86" stop-color="#044D76"/>
<stop offset="1" stop-color="#004873"/>
</linearGradient>
<linearGradient id="paint2_linear_713_26154" x1="99.9511" y1="-21.6707" x2="971.422" y2="653.706" gradientUnits="userSpaceOnUse">
<stop stop-color="#AFB388"/>
<stop offset="0.31" stop-color="#41929E"/>
<stop offset="0.49" stop-color="#27758D"/>
<stop offset="0.68" stop-color="#115C7E"/>
<stop offset="0.86" stop-color="#044D76"/>
<stop offset="1" stop-color="#004873"/>
</linearGradient>
<linearGradient id="paint3_linear_713_26154" x1="116.424" y1="-42.9678" x2="987.894" y2="632.409" gradientUnits="userSpaceOnUse">
<stop stop-color="#AFB388"/>
<stop offset="0.31" stop-color="#41929E"/>
<stop offset="0.49" stop-color="#27758D"/>
<stop offset="0.68" stop-color="#115C7E"/>
<stop offset="0.86" stop-color="#044D76"/>
<stop offset="1" stop-color="#004873"/>
</linearGradient>
<linearGradient id="paint4_linear_713_26154" x1="150.895" y1="-87.4579" x2="1022.37" y2="587.919" gradientUnits="userSpaceOnUse">
<stop stop-color="#AFB388"/>
<stop offset="0.31" stop-color="#41929E"/>
<stop offset="0.49" stop-color="#27758D"/>
<stop offset="0.68" stop-color="#115C7E"/>
<stop offset="0.86" stop-color="#044D76"/>
<stop offset="1" stop-color="#004873"/>
</linearGradient>
<linearGradient id="paint5_linear_713_26154" x1="158.068" y1="-96.7196" x2="1029.54" y2="578.657" gradientUnits="userSpaceOnUse">
<stop stop-color="#AFB388"/>
<stop offset="0.31" stop-color="#41929E"/>
<stop offset="0.49" stop-color="#27758D"/>
<stop offset="0.68" stop-color="#115C7E"/>
<stop offset="0.86" stop-color="#044D76"/>
<stop offset="1" stop-color="#004873"/>
</linearGradient>
<linearGradient id="paint6_linear_713_26154" x1="164.734" y1="-105.362" x2="1036.25" y2="570.002" gradientUnits="userSpaceOnUse">
<stop stop-color="#AFB388"/>
<stop offset="0.31" stop-color="#41929E"/>
<stop offset="0.49" stop-color="#27758D"/>
<stop offset="0.68" stop-color="#115C7E"/>
<stop offset="0.86" stop-color="#044D76"/>
<stop offset="1" stop-color="#004873"/>
</linearGradient>
<linearGradient id="paint7_linear_713_26154" x1="170.927" y1="-113.32" x2="1042.4" y2="562.056" gradientUnits="userSpaceOnUse">
<stop stop-color="#AFB388"/>
<stop offset="0.31" stop-color="#41929E"/>
<stop offset="0.49" stop-color="#27758D"/>
<stop offset="0.68" stop-color="#115C7E"/>
<stop offset="0.86" stop-color="#044D76"/>
<stop offset="1" stop-color="#004873"/>
</linearGradient>
<linearGradient id="paint8_linear_713_26154" x1="176.848" y1="-120.962" x2="1048.32" y2="554.415" gradientUnits="userSpaceOnUse">
<stop stop-color="#AFB388"/>
<stop offset="0.31" stop-color="#41929E"/>
<stop offset="0.49" stop-color="#27758D"/>
<stop offset="0.68" stop-color="#115C7E"/>
<stop offset="0.86" stop-color="#044D76"/>
<stop offset="1" stop-color="#004873"/>
</linearGradient>
<linearGradient id="paint9_linear_713_26154" x1="182.645" y1="-128.433" x2="1054.12" y2="546.944" gradientUnits="userSpaceOnUse">
<stop stop-color="#AFB388"/>
<stop offset="0.31" stop-color="#41929E"/>
<stop offset="0.49" stop-color="#27758D"/>
<stop offset="0.68" stop-color="#115C7E"/>
<stop offset="0.86" stop-color="#044D76"/>
<stop offset="1" stop-color="#004873"/>
</linearGradient>
<linearGradient id="paint10_linear_713_26154" x1="188.288" y1="-135.719" x2="1059.76" y2="539.658" gradientUnits="userSpaceOnUse">
<stop stop-color="#AFB388"/>
<stop offset="0.31" stop-color="#41929E"/>
<stop offset="0.49" stop-color="#27758D"/>
<stop offset="0.68" stop-color="#115C7E"/>
<stop offset="0.86" stop-color="#044D76"/>
<stop offset="1" stop-color="#004873"/>
</linearGradient>
<linearGradient id="paint11_linear_713_26154" x1="193.854" y1="-142.869" x2="1065.32" y2="532.508" gradientUnits="userSpaceOnUse">
<stop stop-color="#AFB388"/>
<stop offset="0.31" stop-color="#41929E"/>
<stop offset="0.49" stop-color="#27758D"/>
<stop offset="0.68" stop-color="#115C7E"/>
<stop offset="0.86" stop-color="#044D76"/>
<stop offset="1" stop-color="#004873"/>
</linearGradient>
<linearGradient id="paint12_linear_713_26154" x1="199.269" y1="-149.898" x2="1070.78" y2="525.466" gradientUnits="userSpaceOnUse">
<stop stop-color="#AFB388"/>
<stop offset="0.31" stop-color="#41929E"/>
<stop offset="0.49" stop-color="#27758D"/>
<stop offset="0.68" stop-color="#115C7E"/>
<stop offset="0.86" stop-color="#044D76"/>
<stop offset="1" stop-color="#004873"/>
</linearGradient>
<linearGradient id="paint13_linear_713_26154" x1="107.943" y1="-32.0496" x2="979.414" y2="643.327" gradientUnits="userSpaceOnUse">
<stop stop-color="#AFB388"/>
<stop offset="0.31" stop-color="#41929E"/>
<stop offset="0.49" stop-color="#27758D"/>
<stop offset="0.68" stop-color="#115C7E"/>
<stop offset="0.86" stop-color="#044D76"/>
<stop offset="1" stop-color="#004873"/>
</linearGradient>
<linearGradient id="paint14_linear_713_26154" x1="142.478" y1="-76.5908" x2="1013.95" y2="598.786" gradientUnits="userSpaceOnUse">
<stop stop-color="#AFB388"/>
<stop offset="0.31" stop-color="#41929E"/>
<stop offset="0.49" stop-color="#27758D"/>
<stop offset="0.68" stop-color="#115C7E"/>
<stop offset="0.86" stop-color="#044D76"/>
<stop offset="1" stop-color="#004873"/>
</linearGradient>
<linearGradient id="paint15_linear_713_26154" x1="125.357" y1="-54.5177" x2="996.827" y2="620.859" gradientUnits="userSpaceOnUse">
<stop stop-color="#AFB388"/>
<stop offset="0.31" stop-color="#41929E"/>
<stop offset="0.49" stop-color="#27758D"/>
<stop offset="0.68" stop-color="#115C7E"/>
<stop offset="0.86" stop-color="#044D76"/>
<stop offset="1" stop-color="#004873"/>
</linearGradient>
<linearGradient id="paint16_linear_713_26154" x1="133.641" y1="-65.1881" x2="1005.11" y2="610.189" gradientUnits="userSpaceOnUse">
<stop stop-color="#AFB388"/>
<stop offset="0.31" stop-color="#41929E"/>
<stop offset="0.49" stop-color="#27758D"/>
<stop offset="0.68" stop-color="#115C7E"/>
<stop offset="0.86" stop-color="#044D76"/>
<stop offset="1" stop-color="#004873"/>
</linearGradient>
</defs>
</svg>
