<svg width="1920" height="835" viewBox="0 0 1920 835" fill="none" xmlns="http://www.w3.org/2000/svg">
<g opacity="0.05">
<path d="M2057.39 834.57C2034.91 834.57 2012.43 832.727 1990.23 829.15C1894.7 813.649 1807.93 766.06 1739.26 691.371C1694.44 642.699 1661.82 590.449 1627.14 535.272C1502 335.487 1372.61 128.765 659.326 59.9295C599.291 54.1842 544.328 50.9321 491.01 47.7885C299.118 33.4794 -21.8889 9.41412 -117.012 -288.258C-144.288 -373.679 -199.251 -662.245 240.043 -792.002C427.822 -848.263 618.617 -839.265 796.939 -821.162C994.587 -801.108 1108.35 -760.24 1274.34 -681.866C1346.71 -647.611 1405.24 -608.369 1463.76 -554.602C1516.53 -506.254 1557.24 -450.644 1588.35 -384.627C1596.03 -368.475 1603.43 -351.781 1610.7 -335.738L1610.97 -335.087C1641.67 -266.794 1673.33 -196.224 1726.79 -136.929C1791.35 -65.2748 1874.27 -19.0956 1962.27 29.7937C2022.17 63.1815 2083.98 97.6534 2144.7 142.423C2213.65 193.264 2270.67 250.175 2318.91 316.409C2390.6 414.621 2417.05 513.917 2395.53 603.457C2376.48 682.699 2320.97 749.475 2239.14 791.535C2189.66 817.009 2132.78 831.644 2074.8 834.137C2069.04 834.354 2063.15 834.462 2057.39 834.462V834.57ZM562.283 -829.834C456.469 -829.834 348.873 -819.103 242.373 -787.124C-191.85 -658.884 -137.572 -373.787 -110.707 -289.45C-69.9988 -162.186 13.1998 -74.7058 143.823 -22.0225C252.79 21.8804 375.326 34.1298 491.558 42.802C544.876 45.9457 600.113 49.1976 660.148 54.943C1376.86 124.103 1507.07 332.019 1632.9 533.104C1667.44 588.172 1699.93 640.205 1744.47 688.553C1812.18 762.158 1897.57 809.096 1991.46 824.272C2018.88 828.717 2046.84 830.343 2074.39 829.259C2131.27 826.874 2187.06 812.456 2235.58 787.524C2315.76 746.331 2370.31 680.64 2389.09 602.807C2410.33 514.459 2384.16 416.464 2313.29 319.227C2265.32 253.427 2208.71 196.95 2140.18 146.434C2079.73 101.881 2018.19 67.5176 1958.43 34.3466C1870.02 -14.8679 1786.55 -61.3723 1721.31 -133.677C1667.3 -193.623 1635.51 -264.518 1604.67 -333.136L1604.39 -333.895C1597.13 -349.939 1589.73 -366.524 1582.05 -382.676C1551.21 -448.151 1510.78 -503.219 1458.55 -551.133C1400.44 -604.467 1342.46 -643.383 1270.64 -677.313C1105.47 -755.362 992.257 -796.013 795.706 -815.959C719.634 -823.655 641.233 -829.726 561.872 -829.726L562.283 -829.834Z" fill="url(#paint0_linear_724_27210)"/>
<path d="M2377.28 440.732C2365.49 399.648 2344.93 357.805 2316.28 316.287C2215.68 170.811 2094.1 98.2903 1976.36 28.1542C1921.53 -4.58319 1869.59 -35.4778 1821.89 -72.6597C1798.31 -91.088 1776.93 -110.492 1756.78 -132.064C1731.84 -158.623 1713.61 -181.712 1699.08 -204.91C1679.48 -236.455 1665.09 -270.277 1653.71 -299.328C1651.1 -306.049 1648.5 -312.879 1645.9 -319.491L1645.07 -321.551C1636.16 -344.64 1626.98 -368.38 1615.74 -391.362C1584.08 -455.427 1543.23 -509.195 1490.74 -555.591C1442.35 -598.409 1382.73 -636.784 1302.96 -676.351C1156.02 -749.305 991.546 -793.208 827.205 -803.072C813.773 -804.156 796.914 -803.94 775.806 -803.614C742.91 -803.072 701.242 -802.53 651.35 -806.65C578.431 -812.612 467.409 -821.718 320.886 -790.931C-44.3934 -714.4 -83.8682 -494.777 -88.1172 -451.525C-99.0824 -350.06 -51.2466 -68.6487 297.173 13.8452C348.436 28.1542 468.642 38.5608 574.731 47.775C622.841 51.8942 668.209 55.9051 699.734 59.5908C1369.57 133.087 1499.37 330.162 1625.06 520.841C1660.7 574.826 1694.28 625.883 1739.92 673.255C1785.15 720.301 1836.83 755.64 1893.44 778.188C1943.6 798.134 1996.24 808.323 2049.83 808.323C2055.58 808.323 2061.34 808.215 2067.23 807.998C2080.8 807.456 2094.51 806.155 2107.94 804.312C2176.89 794.556 2239.53 767.998 2289.01 727.564C2345.61 681.276 2379.74 621.005 2387.69 553.362C2391.94 517.047 2388.52 479.107 2377.41 440.624L2377.28 440.732ZM2381.11 553.037C2373.3 619.487 2339.86 678.675 2284.21 724.095C2235.69 763.77 2174.42 789.787 2106.71 799.326C2093.55 801.169 2080.12 802.47 2066.82 803.012C2008.57 805.505 1950.87 795.532 1896.31 773.743C1840.67 751.412 1789.68 716.615 1744.99 670.219C1699.76 623.173 1666.18 572.332 1630.68 518.457C1504.31 326.693 1373.68 128.426 700.557 54.6042C669.032 50.8102 623.526 46.9078 575.416 42.7885C469.739 33.6827 349.944 23.2761 299.229 9.07544C-45.2158 -72.5513 -92.5033 -350.711 -81.6751 -451.091C-77.5632 -493.693 -38.4995 -710.389 322.531 -785.945C467.957 -816.406 578.294 -807.409 650.665 -801.446C700.968 -797.327 742.91 -797.869 775.943 -798.411C796.914 -798.736 813.499 -798.953 826.657 -797.978C989.902 -788.113 1153.42 -744.535 1299.53 -672.014C1378.76 -632.665 1437.97 -594.507 1485.94 -552.122C1537.89 -506.159 1578.32 -452.934 1609.71 -389.41C1620.95 -366.646 1630.13 -342.906 1639.04 -319.708L1639.73 -317.865C1642.33 -311.144 1644.94 -304.315 1647.54 -297.702C1659.05 -268.542 1673.45 -234.396 1693.32 -202.525C1707.99 -179.11 1726.49 -155.696 1751.57 -128.92C1772 -107.132 1793.52 -87.5107 1817.37 -68.8656C1865.34 -31.3585 1917.42 -0.355469 1972.52 32.3819C2089.71 102.193 2210.74 174.28 2310.66 318.888C2339.04 359.973 2359.32 401.382 2371.11 442.033C2382.07 479.974 2385.36 517.373 2381.25 553.145L2381.11 553.037Z" fill="url(#paint1_linear_724_27210)"/>
<path d="M2313.59 317.075C2220.12 173.009 2102.24 97.9947 1988.34 25.257C1939.95 -5.52924 1894.31 -34.6893 1850.86 -68.6191C1828.79 -85.855 1807.82 -104.717 1786.72 -126.397C1763.28 -150.463 1740.8 -174.203 1723.67 -200.978C1702.97 -233.39 1690.22 -267.862 1679.39 -300.166C1677.34 -306.345 1675.28 -312.632 1673.23 -319.136C1664.86 -344.936 1656.23 -371.711 1643.07 -397.077C1581.8 -515.994 1491.48 -595.019 1331.38 -669.817C1174.99 -742.988 1006.68 -781.579 857.55 -778.761C844.666 -778.544 833.015 -778.11 822.05 -777.785C776.544 -776.267 740.633 -775.183 654.282 -784.397C479.387 -800.658 397.422 -785.915 364.115 -779.953C121.783 -734.858 -23.9171 -614.206 -37.7607 -446.834C-45.8475 -301.9 27.4824 -173.01 180.721 -69.4863C245.142 -26.2339 294.897 -7.91406 354.246 7.8042C414.966 23.7393 498.713 36.5308 603.431 45.8533C648.251 49.7558 692.935 54.5255 739.948 60.3792C1365.79 138.212 1502.03 334.094 1622.24 507.104C1658.97 560.004 1693.65 609.869 1740.39 656.048C1785.48 700.71 1835.79 733.989 1889.93 754.802C1939 773.556 1990.12 783.095 2042.21 783.095C2047.96 783.095 2053.72 782.987 2059.61 782.77C2073.32 782.228 2087.16 780.927 2100.6 778.976C2167.89 769.328 2229.03 743.637 2277.14 704.612C2331.14 660.926 2364.45 604.015 2373.36 540.275C2383.22 469.922 2362.53 392.74 2313.32 316.967L2313.59 317.075ZM2367.19 539.841C2358.41 602.498 2325.66 658.325 2272.75 701.143C2225.46 739.409 2165.7 764.558 2099.64 774.098C2086.34 775.941 2072.91 777.242 2059.34 777.784C2002.73 780.169 1946.4 770.846 1892.94 750.358C1839.62 729.87 1790.14 697.024 1745.6 653.013C1699.27 607.159 1664.73 557.402 1627.99 504.611C1507.1 330.734 1370.04 133.551 741.044 55.3927C693.894 49.539 649.074 44.7693 604.116 40.7584C499.947 31.5443 416.474 18.8613 356.302 2.92615C297.638 -12.5753 248.569 -30.6785 184.97 -73.3889C33.3762 -175.829 -39.2684 -303.418 -31.3186 -446.617C-17.475 -611.388 126.306 -730.522 365.485 -774.966C387.005 -778.869 431.825 -786.891 506.252 -786.891C545.315 -786.891 593.699 -784.831 653.46 -779.303C740.359 -769.98 776.407 -771.172 822.324 -772.69C833.289 -773.015 844.803 -773.449 857.687 -773.666C1005.72 -776.484 1172.66 -738.11 1328.1 -665.48C1486.82 -591.225 1576.32 -512.959 1637.04 -395.234C1649.92 -370.193 1658.56 -343.635 1666.92 -317.944C1668.98 -311.44 1671.03 -305.044 1673.09 -298.973C1683.92 -266.344 1696.8 -231.656 1717.77 -198.81C1735.04 -171.709 1757.79 -147.753 1781.37 -123.471C1802.75 -101.682 1823.86 -82.603 1846.06 -65.1503C1889.79 -31.0037 1935.57 -1.84357 1984.09 29.051C2097.58 101.355 2214.77 176.044 2307.7 319.135C2356.36 394.041 2376.78 470.247 2367.05 539.624L2367.19 539.841Z" fill="url(#paint2_linear_724_27210)"/>
<path d="M2308.37 318.467C2227.5 171.799 2112.23 88.3296 2000.79 7.67853L2000.11 7.24487C1969.95 -14.5439 1938.84 -37.0916 1908.82 -60.6148C1889.63 -75.6827 1869.76 -93.027 1846.59 -115.141C1842.62 -119.043 1838.37 -122.838 1834.12 -126.957L1832.61 -128.366C1811.09 -148.529 1788.75 -169.342 1772.85 -193.19C1749.83 -227.771 1739.13 -265.928 1730.91 -302.026C1729.68 -307.446 1728.58 -312.866 1727.35 -318.395C1720.9 -348.53 1714.19 -379.75 1698.02 -408.802C1665.53 -467.014 1624.41 -515.144 1572.46 -555.687C1523.94 -593.519 1465.55 -625.714 1388.52 -657.043C1255.16 -711.244 1106.72 -739.97 959.096 -739.97C936.48 -740.187 911.808 -737.26 885.766 -734.333C836.56 -728.805 766.108 -725.228 707.444 -736.61C660.294 -745.715 566.541 -763.71 454.01 -757.098C281.034 -741.379 184.677 -678.073 134.237 -627.666C61.3183 -554.82 44.048 -471.242 52.1349 -417.366C74.3394 -266.904 194.409 -130.968 390.275 -34.5983C496.226 17.5431 717.176 46.378 719.369 46.7032C751.853 51.3645 785.434 56.1342 821.071 61.8795C1358.09 147.409 1494.61 323.128 1615.23 478.252C1654.98 529.417 1692.53 577.656 1742.15 621.993C1787.11 661.993 1834.67 691.045 1883.88 708.281C1930.61 724.649 1979 732.996 2027.66 732.996C2033.41 732.996 2039.31 732.888 2045.06 732.671C2058.91 732.129 2072.61 730.828 2086.18 728.877C2150.06 719.663 2208.03 695.814 2253.95 659.717C2303.02 621.125 2335.09 570.935 2346.33 514.675C2358.81 452.452 2346.2 386.435 2308.64 318.467H2308.37ZM2339.62 513.807C2328.52 568.984 2297.26 618.198 2249.02 656.031C2204.2 691.261 2147.31 714.676 2084.68 723.782C2071.52 725.733 2057.95 726.926 2044.38 727.468C1991.06 729.744 1937.47 721.614 1886.07 703.511C1837.82 686.6 1790.81 657.982 1746.54 618.415C1697.33 574.513 1659.91 526.382 1620.3 475.433C1499.13 319.443 1361.79 142.747 822.031 56.7846C786.394 51.1477 752.676 46.2696 720.191 41.6083C717.998 41.2831 498.282 12.5566 393.428 -38.9344C199.206 -134.437 80.2332 -269.072 58.3028 -417.908C50.353 -470.808 67.4861 -552.868 139.034 -624.414C210.308 -695.634 319.275 -739.753 454.422 -752.003C473.199 -753.087 491.018 -753.629 508.014 -753.629C591.35 -753.629 667.01 -739.211 705.799 -731.623C765.56 -720.024 836.834 -723.601 886.588 -729.238C912.494 -732.165 937.165 -734.767 958.959 -734.767C1105.48 -734.767 1252.96 -706.257 1385.51 -652.49C1461.85 -621.487 1519.83 -589.508 1567.8 -552.001C1619.2 -511.892 1659.91 -464.304 1691.98 -406.634C1707.75 -378.233 1714.46 -347.338 1720.9 -317.419C1722.14 -311.891 1723.23 -306.362 1724.47 -300.942C1732.69 -264.411 1743.66 -225.819 1767.1 -190.697C1783.27 -166.415 1805.75 -145.277 1827.54 -125.006L1829.05 -123.596C1833.44 -119.585 1837.55 -115.683 1841.52 -111.781C1864.82 -89.4498 1884.83 -72.1055 1904.16 -56.9291C1934.32 -33.2975 1965.43 -10.7499 1995.58 11.0389L1996.27 11.4725C2107.29 91.7985 2222.02 174.834 2302.34 320.527C2339.34 387.627 2351.82 452.669 2339.48 513.916L2339.62 513.807Z" fill="url(#paint3_linear_724_27210)"/>
<path d="M1994.88 631.745C1953.63 631.745 1911.82 626 1870.56 614.726C1829.44 603.452 1789.42 583.94 1744.6 553.262C1682.65 510.877 1634.81 462.313 1584.23 410.93C1467.45 292.447 1335.32 158.245 982.244 64.5859L979.228 63.7186C798.165 15.6966 678.644 -16.0652 535.548 -127.936C507.449 -149.833 478.392 -170.647 450.293 -190.809C390.259 -233.737 333.788 -274.17 292.257 -321C284.17 -330.214 276.631 -339.645 269.778 -348.534C233.73 -395.255 218.516 -451.733 227.973 -503.332C239.898 -568.157 289.653 -623.767 371.892 -664.309C428.089 -691.952 489.357 -705.394 559.26 -705.394C614.909 -705.394 669.049 -696.83 709.895 -689.35C745.532 -682.846 775.823 -670.055 805.155 -657.805C831.198 -646.856 858.063 -635.583 889.176 -628.428C902.609 -625.284 917.138 -623.658 932.215 -623.658C972.238 -623.658 1010.34 -634.39 1044.06 -643.713C1063.39 -649.133 1079.97 -653.794 1094.36 -655.745C1142.61 -662.358 1191.54 -665.61 1240.06 -665.61C1331.07 -665.61 1419.21 -654.119 1502.27 -631.355C1651.53 -590.487 1745.7 -529.024 1807.51 -432.004C1829.31 -397.857 1831.09 -359.483 1832.73 -322.409V-320.783C1833.01 -315.58 1833.28 -310.594 1833.56 -305.715C1836.02 -264.956 1842.47 -217.91 1871.11 -177.476C1888.25 -153.411 1913.74 -133.681 1938.41 -114.603C1947.18 -107.882 1957.05 -100.185 1966.1 -92.597L1974.46 -85.551C1991.46 -71.3503 2007.49 -57.9084 2024.35 -44.6834C2097.27 12.5529 2151.14 64.5858 2193.9 119.329C2242.97 182.202 2276.96 248.327 2297.52 321.607C2311.5 371.364 2309.72 419.06 2292.45 463.288C2276.28 504.59 2246.4 541.446 2206.1 569.848C2153.33 607.029 2086.58 628.385 2012.97 631.42C2006.94 631.637 2000.78 631.854 1994.61 631.854L1994.88 631.745ZM559.397 -700.19C490.728 -700.19 430.556 -686.965 375.455 -659.865C294.861 -620.19 246.066 -565.772 234.552 -502.465C225.232 -451.95 240.172 -396.773 275.535 -351.027C282.388 -342.247 289.653 -332.816 297.739 -323.71C338.722 -277.314 395.056 -237.097 454.542 -194.495C482.915 -174.224 511.973 -153.411 540.208 -131.405C682.208 -20.4014 801.18 11.2521 981.421 59.0574L984.437 59.9246C1339.3 154.126 1472.25 288.978 1589.44 407.895C1639.88 459.169 1687.58 507.516 1748.99 549.576C1793.12 579.821 1832.46 599.008 1872.76 610.065C1919.36 622.856 1966.78 628.385 2012.97 626.433C2085.07 623.398 2150.45 602.585 2202.13 566.162C2241.6 538.303 2270.79 502.313 2286.69 461.879C2303.69 418.518 2305.34 371.689 2291.63 322.799C2271.21 250.17 2237.63 184.478 2188.83 122.147C2146.34 67.7295 2092.75 15.9133 2020.24 -40.9977C2003.24 -54.3312 1987.21 -67.773 1970.21 -81.9737L1961.85 -89.0198C1952.94 -96.4996 1943.07 -104.088 1934.3 -110.809C1909.22 -130.104 1883.31 -150.159 1865.77 -174.874C1836.43 -216.284 1829.86 -264.089 1827.39 -305.39C1827.11 -310.268 1826.84 -315.363 1826.57 -320.458V-322.084C1824.78 -358.616 1823 -396.339 1801.89 -429.51C1740.9 -525.338 1647.97 -586.043 1500.35 -626.368C1417.97 -648.916 1330.53 -660.298 1240.2 -660.298C1192.09 -660.298 1143.43 -656.938 1095.6 -650.434C1081.75 -648.591 1065.31 -643.93 1046.39 -638.618C1012.26 -629.079 973.471 -618.238 932.352 -618.238C916.726 -618.238 901.649 -619.864 887.531 -623.116C855.869 -630.488 828.731 -641.87 802.414 -652.927C773.493 -665.068 743.613 -677.643 708.798 -684.038C668.227 -691.518 614.635 -699.973 559.534 -699.973L559.397 -700.19Z" fill="url(#paint4_linear_724_27210)"/>
<path d="M2295.03 322.467C2281.33 250.596 2254.19 185.663 2211.97 123.766C2172.5 65.7708 2120.55 12.0033 2053.53 -40.6801C2040.37 -50.9783 2026.93 -61.9268 2013.91 -72.5502L1996.1 -86.9677C1986.5 -94.6642 1976.36 -102.252 1966.21 -109.841C1940.31 -129.028 1913.44 -148.974 1895.76 -173.581C1865.47 -215.749 1860.26 -264.53 1859.3 -306.699C1859.17 -312.336 1859.03 -317.972 1859.03 -324.368C1858.48 -362.851 1857.93 -402.634 1834.91 -437.757C1802.97 -486.538 1761.99 -525.345 1709.77 -556.457C1661.24 -585.4 1602.72 -607.731 1530.76 -624.859C1460.99 -641.444 1387.11 -649.791 1311.04 -649.791C1251.83 -649.791 1191.8 -644.588 1132.58 -634.506C1119.15 -632.23 1103.53 -627.135 1085.43 -621.281C1050.48 -610.007 1010.73 -597.216 968.791 -597.216C953.44 -597.216 938.636 -599.059 924.93 -602.528C893.131 -610.658 865.855 -623.666 839.538 -636.349C810.754 -650.116 781.148 -664.425 745.511 -672.013C697.676 -682.312 623.249 -693.152 560.747 -692.393C505.236 -691.634 452.877 -678.626 400.655 -652.393C362.551 -633.314 331.848 -610.658 309.644 -585.292C289.358 -562.311 275.926 -536.836 269.621 -509.736C256.051 -451.415 276.337 -386.482 324.036 -336.076C331.848 -327.729 340.346 -318.948 349.667 -310.276C389.553 -272.877 439.445 -240.682 492.489 -206.427C530.045 -182.145 568.971 -156.887 606.116 -128.594C742.907 -24.2029 854.752 14.3882 1022.66 65.4456C1327.9 158.454 1456.61 281.708 1570.1 390.543C1625.47 443.552 1677.69 493.634 1745.54 536.344C1789.81 564.203 1828.46 581.764 1867.53 591.521C1907.14 601.494 1946.89 606.588 1985.54 606.588C1991.71 606.588 1997.88 606.48 2004.05 606.155C2018.85 605.505 2033.79 604.095 2048.45 602.036C2103.28 594.014 2153.86 575.152 2194.7 547.618C2275.43 493.092 2312.03 411.14 2295.17 322.575L2295.03 322.467ZM2190.32 543.607C2150.29 570.599 2100.68 589.027 2047.08 596.832C2032.69 598.892 2018.03 600.301 2003.5 600.843C1959.64 602.686 1914.4 597.808 1869.17 586.426C1830.93 576.778 1792.83 559.542 1749.24 532.116C1681.94 489.731 1629.86 439.866 1574.76 387.074C1460.72 277.805 1331.47 153.902 1024.58 60.459C857.357 9.51013 746.06 -28.8642 610.228 -132.497C572.946 -160.898 534.02 -186.156 496.053 -210.654C443.557 -244.584 393.939 -276.78 354.327 -313.745C345.281 -322.308 336.783 -331.089 328.97 -339.328C282.368 -388.651 262.493 -452.066 275.789 -509.085C281.957 -535.427 294.978 -560.251 314.715 -582.69C336.509 -607.514 366.526 -629.628 403.945 -648.382C455.207 -674.073 509.622 -686.864 563.9 -687.623C624.209 -687.623 697.813 -677.108 743.592 -667.352C778.27 -659.872 807.602 -645.78 836.112 -632.121C862.702 -619.33 890.115 -606.105 922.737 -597.866C937.266 -594.181 952.617 -592.338 968.654 -592.338C1011.83 -592.338 1052.13 -605.346 1087.76 -616.837C1105.58 -622.582 1120.93 -627.569 1133.82 -629.737C1192.62 -639.818 1252.24 -644.913 1311.04 -644.913C1386.43 -644.913 1459.62 -636.566 1528.84 -620.197C1600.11 -603.287 1658.09 -581.173 1705.93 -552.663C1757.33 -521.985 1797.62 -483.719 1829.15 -435.589C1851.49 -401.55 1852.04 -362.417 1852.45 -324.043C1852.45 -318.081 1852.59 -312.444 1852.72 -306.807C1853.68 -263.988 1859.03 -214.448 1890.01 -171.304C1908.24 -145.938 1935.38 -125.776 1961.97 -106.047C1971.83 -98.7836 1981.84 -91.3038 1991.3 -83.6073L2009.12 -69.1898C2022.14 -58.5664 2035.57 -47.6177 2048.73 -37.3196C2115.34 15.0386 2166.88 68.4808 2206.08 125.934C2247.88 187.289 2274.75 251.68 2288.32 323.009C2304.9 409.839 2268.99 490.165 2190.04 543.39L2190.32 543.607Z" fill="url(#paint5_linear_724_27210)"/>
<path d="M2292.43 323.327C2280.37 184.355 2209.78 63.1617 2082.59 -36.7849C2073.81 -43.7227 2064.9 -50.7687 2055.86 -57.9233C2046.13 -65.6198 2036.26 -73.5331 2026.25 -81.4465C2016.11 -89.3599 2005.28 -97.1649 1994.45 -104.861C1967.18 -124.265 1938.94 -144.428 1920.44 -169.794C1888.5 -213.697 1884.8 -266.597 1885.07 -307.79C1885.07 -313.535 1885.07 -319.172 1885.35 -325.785C1886.03 -364.051 1886.99 -407.411 1862.46 -443.618C1801.46 -533.808 1705.24 -589.31 1559.27 -618.47C1437.97 -642.752 1302.41 -641.018 1170.83 -613.484C1158.63 -610.882 1143.96 -605.57 1126.97 -599.391C1092.56 -586.817 1049.94 -571.207 1005.11 -571.207C989.626 -571.207 974.686 -573.158 960.843 -576.952C928.221 -585.95 900.808 -600.801 874.355 -615.11C846.119 -630.394 816.924 -646.221 781.15 -655.002C729.614 -667.576 666.838 -680.476 604.473 -680.91C540.738 -680.91 482.485 -667.793 429.578 -640.801C358.852 -604.703 316.362 -555.489 306.767 -498.469C294.705 -426.707 335.825 -361.341 378.315 -323.942C386.676 -316.679 396.545 -308.115 406.962 -299.877C445.34 -269.958 490.023 -244.158 537.585 -216.949C583.913 -190.282 631.749 -162.748 676.432 -129.577C805.274 -33.7496 907.524 11.5624 1062.82 66.197C1319.54 156.604 1442.63 268.584 1551.18 367.338C1612.59 423.165 1670.57 475.957 1746.09 519.317C1789.54 544.25 1827.1 559.86 1864.1 568.315C1901.66 576.879 1939.49 581.215 1976.5 581.215C1982.94 581.215 1989.52 581.107 1995.82 580.781C2066.41 577.855 2131.24 558.667 2183.19 525.496C2259.54 476.715 2299.29 403.219 2292.43 323.543V323.327ZM2179.08 521.269C2128.09 553.789 2064.63 572.543 1995.41 575.47C1953.2 577.204 1909.33 573.085 1865.75 563.112C1829.43 554.873 1792.55 539.48 1749.79 514.981C1674.82 471.946 1617.11 419.371 1555.98 363.761C1447.01 264.573 1323.38 152.16 1065.29 61.3189C910.814 6.90112 808.837 -38.1942 680.681 -133.479C635.724 -166.976 587.614 -194.618 541.149 -221.285C493.998 -248.386 449.315 -274.077 411.348 -303.671C400.931 -311.801 391.199 -320.256 382.838 -327.519C341.308 -363.942 301.01 -427.899 312.798 -497.927C322.119 -553.429 363.649 -601.343 432.73 -636.682C484.541 -663.132 541.697 -675.923 604.062 -675.923C665.604 -675.49 727.832 -662.698 778.82 -650.232C813.635 -641.668 842.418 -626.058 870.38 -610.99C897.107 -596.465 924.794 -581.505 958.238 -572.182C972.767 -568.172 988.393 -566.112 1004.7 -566.112C1050.89 -566.112 1094.34 -581.939 1129.3 -594.73C1146.02 -600.801 1160.41 -606.112 1172.2 -608.606C1302.82 -635.923 1437.14 -637.657 1557.49 -613.592C1701.41 -584.757 1796.53 -530.014 1856.56 -441.233C1880.28 -406.111 1879.45 -363.509 1878.77 -325.893C1878.77 -319.281 1878.49 -313.535 1878.49 -307.79C1878.22 -265.947 1882.06 -212.179 1914.68 -167.193C1933.6 -141.176 1962.24 -120.796 1990.2 -100.85C2000.62 -93.3707 2011.45 -85.6743 2021.45 -77.8693C2031.46 -70.0643 2041.47 -62.1509 2051.06 -54.4544C2060.11 -47.2999 2069.02 -40.1454 2077.79 -33.316C2203.89 65.7634 2273.79 185.764 2285.72 323.543C2292.43 401.484 2253.51 473.463 2178.8 521.16L2179.08 521.269Z" fill="url(#paint6_linear_724_27210)"/>
<path d="M1965.93 555.527C1931.67 555.527 1896.3 551.841 1860.8 544.687C1825.03 537.424 1789.8 524.199 1746.77 501.977C1660.83 457.532 1595.45 400.512 1526.23 340.132C1425.21 251.893 1310.62 152.055 1102.83 66.6341C960.148 7.98859 866.943 -43.6107 746.737 -130.658C695.612 -167.731 639.552 -195.916 585.411 -223.233C541.962 -245.13 500.979 -265.726 464.246 -289.792C454.788 -295.971 444.645 -303.017 432.446 -312.123C371.726 -356.784 336.638 -425.619 343.217 -487.517C349.248 -544.428 388.997 -593.534 458.078 -629.415C509.751 -656.299 564.988 -669.307 626.942 -669.307C693.007 -669.307 757.017 -654.348 816.366 -638.087C852.414 -628.223 881.198 -610.77 909.159 -593.859C935.613 -577.816 962.889 -561.339 996.333 -551.366C1010.59 -547.138 1025.8 -544.97 1041.7 -544.97C1088.3 -544.97 1132.58 -562.965 1168.08 -577.491C1183.98 -583.995 1197.82 -589.632 1208.92 -592.342C1289.79 -612.504 1371.21 -622.694 1450.98 -622.694C1497.85 -622.694 1543.77 -619.117 1587.63 -611.962C1658.08 -600.58 1716.2 -582.586 1765.13 -557.111C1817.49 -529.794 1858.2 -494.563 1889.72 -449.359C1915.77 -411.961 1913.57 -366.866 1911.52 -327.082C1911.24 -320.361 1910.83 -314.507 1910.7 -308.654C1909.05 -265.943 1911.66 -211.2 1944.96 -165.78C1964.15 -139.655 1993.89 -119.275 2022.54 -99.5462C2033.23 -92.2833 2045.16 -84.0447 2055.98 -75.8062C2075.31 -61.1719 2094.09 -46.5376 2111.36 -32.879C2172.08 14.8179 2218.13 70.3197 2248.42 132C2278.03 192.164 2291.74 256.88 2289.54 324.197C2287.21 394.659 2244.31 459.808 2171.94 502.952C2132.19 526.692 2084.22 543.061 2033.09 550.541C2017.61 552.817 2001.71 554.226 1985.94 554.877C1979.23 555.202 1972.51 555.31 1965.8 555.31L1965.93 555.527ZM627.079 -664.212C566.496 -664.212 512.355 -651.421 461.778 -625.079C394.342 -590.065 355.69 -542.26 349.796 -486.975C343.354 -426.595 377.62 -359.386 436.969 -315.808C449.168 -306.811 459.174 -299.765 468.495 -293.694C504.954 -269.846 545.662 -249.358 588.838 -227.677C643.39 -200.252 699.587 -171.85 751.26 -134.56C871.055 -47.8384 963.986 3.65253 1105.99 61.9728C1314.87 147.827 1429.73 248.099 1531.16 336.555C1600.11 396.718 1665.21 453.521 1750.47 497.532C1792.96 519.429 1827.5 532.438 1862.59 539.592C1904.39 548.047 1945.78 551.516 1985.81 549.89C2001.43 549.24 2017.06 547.831 2032.14 545.554C2082.3 538.183 2129.45 522.139 2168.38 498.833C2239.1 456.665 2281.05 392.924 2283.38 323.98C2285.71 257.205 2272 193.248 2242.67 133.735C2212.79 72.7046 2167.14 17.8532 2107.11 -29.3017C2089.7 -42.9603 2071.06 -57.5946 2051.74 -72.2289C2041.04 -80.359 2029.12 -88.5975 2018.57 -95.7521C1989.37 -115.806 1959.22 -136.511 1939.62 -163.287C1905.35 -209.899 1902.88 -265.51 1904.39 -308.87C1904.53 -314.724 1904.94 -320.578 1905.21 -326.757C1907.27 -366.432 1909.46 -410.877 1884.24 -446.975C1853.27 -491.419 1813.24 -526.108 1761.71 -552.883C1713.46 -578.033 1656.03 -595.811 1586.4 -607.084C1542.95 -614.131 1497.44 -617.708 1450.98 -617.708C1371.89 -617.708 1291.16 -607.626 1210.84 -587.572C1200.29 -584.97 1186.72 -579.442 1171.09 -573.046C1134.91 -558.303 1089.95 -539.875 1041.7 -539.875C1025.12 -539.875 1009.08 -542.152 994.003 -546.596C959.737 -556.786 932.049 -573.588 905.185 -589.848C877.771 -606.434 849.262 -623.67 814.173 -633.318C755.372 -649.361 692.048 -664.212 626.805 -664.212H627.079Z" fill="url(#paint7_linear_724_27210)"/>
<path d="M1955.36 530.068C1923.43 530.068 1890.53 527.141 1857.64 521.288C1823.37 515.217 1789.51 503.943 1747.57 484.865C1647.51 439.011 1572.95 375.487 1494.14 308.169C1404.22 231.421 1302.38 144.591 1143.11 67.1918C1014.14 4.53546 926.688 -54.7604 817.31 -131.726C760.428 -171.726 696.83 -199.369 635.287 -226.144C595.127 -243.597 557.16 -260.074 521.797 -279.478C510.832 -285.44 499.456 -292.161 486.846 -300.074C455.732 -319.37 428.045 -346.579 408.993 -376.498C388.296 -409.018 378.153 -443.598 379.798 -476.444C382.539 -533.247 419.684 -582.136 487.12 -617.8C537.697 -644.576 591.701 -657.584 652.009 -657.584C721.638 -657.584 789.349 -640.023 852.125 -621.161C888.447 -610.212 916.956 -591.134 944.507 -572.705C970.96 -555.036 998.236 -536.716 1032.37 -525.876C1047.03 -521.214 1062.66 -518.829 1078.83 -518.829C1127.35 -518.829 1172.99 -539.426 1209.59 -556.011C1224.39 -562.732 1237.14 -568.478 1247.28 -571.404C1338.57 -598.071 1429.86 -611.513 1518.81 -611.513C1551.98 -611.513 1584.74 -609.562 1616.26 -605.768C1758.67 -588.424 1857.22 -539.209 1917.4 -455.414C1944.95 -416.932 1941.25 -370.102 1938.09 -328.801C1937.55 -322.188 1937.13 -316.009 1936.72 -309.83C1933.84 -265.711 1935.08 -209.017 1969.89 -162.078C1989.9 -135.086 2021.15 -114.382 2051.45 -94.2188C2063.23 -86.4138 2075.16 -78.5005 2086.26 -70.3704C2105.86 -56.0613 2123.54 -42.511 2140.68 -29.0692C2257.32 62.8557 2310.77 191.854 2287.06 325.08C2276.23 386.436 2230.45 443.238 2161.78 480.962C2109.15 509.797 2045.28 526.491 1977.16 529.418C1970.17 529.743 1962.9 529.852 1955.5 529.852L1955.36 530.068ZM651.735 -652.381C592.66 -652.381 539.89 -639.698 490.409 -613.464C424.755 -578.776 388.57 -531.296 385.965 -476.119C384.458 -444.14 394.326 -410.427 414.475 -378.666C433.116 -349.289 460.118 -322.839 490.546 -303.868C503.156 -296.063 514.396 -289.451 525.224 -283.489C560.313 -264.193 598.143 -247.824 638.166 -230.372C699.982 -203.488 763.992 -175.737 821.422 -135.303C930.663 -58.5545 1017.84 0.632935 1146.4 63.0725C1306.36 140.905 1408.61 227.952 1498.66 304.809C1577.34 371.91 1651.49 435.217 1750.72 480.637C1791.98 499.499 1825.43 510.664 1858.87 516.518C1891.35 522.263 1923.7 525.19 1955.23 525.19C1962.35 525.19 1969.48 525.082 1976.47 524.757C2043.5 521.938 2106.14 505.57 2157.81 477.277C2225.11 440.42 2269.79 384.918 2280.35 324.863C2303.65 193.263 2251.01 65.7826 2135.74 -24.9499C2118.75 -38.3917 2100.93 -51.8336 2081.46 -66.1427C2070.36 -74.2728 2058.57 -82.0778 2047.06 -89.7743C2016.22 -110.262 1984.42 -131.401 1963.86 -159.043C1928.09 -207.174 1926.85 -264.844 1929.73 -309.614C1930.14 -315.792 1930.55 -321.971 1931.1 -328.584C1934.26 -369.235 1937.96 -415.305 1911.37 -452.379C1852.15 -534.765 1755.25 -583.22 1614.89 -600.239C1583.78 -604.033 1551.29 -605.985 1518.4 -605.985C1430.27 -605.985 1339.67 -592.543 1249.07 -566.201C1239.47 -563.383 1226.86 -557.746 1212.47 -551.242C1175.05 -534.331 1128.59 -513.409 1078.42 -513.409C1061.42 -513.409 1044.98 -515.903 1029.49 -520.781C994.535 -531.946 966.711 -550.483 939.983 -568.369C912.845 -586.581 884.746 -605.334 849.52 -615.958C787.293 -634.711 720.268 -652.055 651.735 -652.055V-652.381Z" fill="url(#paint8_linear_724_27210)"/>
<path d="M1944.14 504.803C1914.95 504.803 1884.79 502.527 1854.36 497.974C1821.33 493.096 1788.57 483.773 1748.41 467.73C1629.71 420.575 1544.32 347.295 1454 269.571C1376.28 202.795 1295.82 133.743 1183.15 67.7266C1108.87 24.2574 1049.52 -18.2362 986.603 -63.1146C955.215 -85.5538 922.731 -108.752 887.642 -132.6C825.825 -174.66 755.237 -200.785 687.115 -226.043C649.285 -240.027 613.511 -253.36 579.108 -269.078C566.635 -274.824 554.162 -281.003 541.004 -287.94C506.6 -306.044 475.349 -332.927 452.871 -363.605C428.884 -396.451 416 -431.681 415.726 -465.503C415.452 -504.961 432.585 -561.439 515.647 -606.1C565.538 -632.984 618.308 -645.992 676.972 -645.992C685.607 -645.992 694.517 -645.667 703.426 -645.125C767.984 -641.006 832.679 -621.927 887.368 -603.932C924.101 -591.9 952.2 -571.195 979.476 -551.14C1005.79 -531.736 1033.07 -511.791 1067.75 -500.083C1082.55 -495.097 1098.31 -492.603 1114.76 -492.603C1166.3 -492.603 1215.09 -516.777 1250.73 -534.447C1264.3 -541.167 1276.08 -547.021 1285.27 -550.056C1406.16 -590.816 1531.99 -608.16 1644.52 -599.054C1784.19 -587.78 1885.07 -541.384 1944.69 -460.95C1973.88 -421.492 1968.68 -372.928 1964.15 -330C1963.47 -323.279 1962.78 -316.884 1962.23 -310.488C1958.12 -264.851 1957.98 -206.314 1994.31 -157.75C2015.14 -129.89 2048.17 -108.643 2080.11 -88.1555C2092.31 -80.3505 2104.65 -72.4373 2116.02 -64.3071C2137.95 -48.8056 2154.4 -36.5562 2169.48 -24.6319C2226.77 20.4633 2267.48 77.4828 2287.22 140.356C2306.54 201.603 2305.45 265.994 2284.06 326.591C2264.05 383.176 2210.6 434.125 2137.4 466.538C2087.1 488.76 2028.16 501.877 1967.17 504.478C1959.63 504.803 1951.82 504.912 1944 504.912L1944.14 504.803ZM676.972 -640.897C619.679 -640.897 568.005 -628.106 519.21 -601.873C438.479 -558.403 421.757 -503.769 422.031 -465.503C422.305 -432.549 434.778 -398.185 458.216 -366.098C480.147 -336.071 510.712 -309.838 544.293 -292.168C557.314 -285.339 569.787 -279.16 582.123 -273.523C616.252 -257.805 651.889 -244.688 689.72 -230.704C758.389 -205.338 829.252 -178.996 891.754 -136.503C926.98 -112.546 959.464 -89.3479 990.852 -66.9087C1053.63 -22.0303 1112.98 20.3549 1186.99 63.7158C1300.21 130.058 1380.8 199.218 1458.66 266.211C1548.57 343.501 1633.55 416.564 1751.15 463.286C1790.9 479.004 1822.98 488.218 1855.46 493.096C1893.43 498.733 1931.12 500.901 1966.76 499.383C2026.79 496.89 2084.63 483.99 2134.25 462.093C2205.94 430.44 2258.29 380.575 2277.76 325.29C2298.87 265.56 2299.96 202.037 2280.91 141.657C2261.31 79.7592 2221.29 23.4985 2164.82 -20.9463C2149.74 -32.7621 2133.43 -45.0115 2111.64 -60.4046C2100.4 -68.4263 2088.06 -76.3397 2076.14 -84.0363C2043.65 -104.958 2010.07 -126.421 1988.69 -155.039C1951.41 -204.688 1951.41 -264.309 1955.65 -310.705C1956.2 -317.1 1956.89 -323.496 1957.57 -330.217C1962.1 -372.386 1967.17 -420.082 1938.93 -458.132C1880.54 -537.048 1781.17 -582.685 1643.69 -593.742C1532.26 -602.631 1407.39 -585.612 1287.6 -545.07C1278.83 -542.143 1267.31 -536.398 1254.02 -529.785C1217.7 -511.791 1168.08 -487.183 1114.76 -487.183C1097.49 -487.183 1080.77 -489.893 1065.14 -495.097C1029.37 -507.129 1001.68 -527.509 974.952 -547.13C948.088 -566.859 920.4 -587.13 884.763 -598.946C830.486 -616.832 766.476 -635.694 702.741 -639.705C694.106 -640.247 685.333 -640.572 676.835 -640.572L676.972 -640.897Z" fill="url(#paint9_linear_724_27210)"/>
<path d="M1930.85 479.32C1904.81 479.32 1877.95 477.694 1851.22 474.551C1819.28 470.756 1786.8 463.168 1749.24 450.594C1606.56 402.897 1510.06 315.416 1407.95 222.841C1351.61 171.784 1293.5 119.1 1223.32 68.1512C1182.75 38.6659 1146.29 9.39734 1111.2 -18.8956C1061.45 -59.0043 1014.43 -96.8366 958.237 -133.693C892.172 -177.054 815.141 -201.011 740.715 -224.209C706.037 -235.049 670.126 -246.215 636.545 -259.006C622.427 -264.426 608.584 -270.172 595.288 -276.134C557.595 -292.936 522.507 -319.494 496.601 -350.931C469.188 -384.102 453.563 -420.092 451.644 -454.997C449.451 -494.347 463.706 -550.391 544.574 -594.727C602.964 -626.597 665.055 -639.28 736.054 -633.427C801.297 -628.115 864.485 -608.061 923.011 -587.139C960.156 -573.914 987.98 -551.692 1014.85 -530.12C1041.16 -509.09 1068.3 -487.409 1103.66 -474.726C1118.88 -469.306 1135.05 -466.488 1151.91 -466.488C1205.37 -466.488 1255.53 -493.588 1292.13 -513.426C1304.46 -520.147 1315.16 -525.892 1323.52 -529.144C1441.39 -574.781 1562.83 -596.895 1673.03 -592.776C1739.92 -590.283 1799 -578.684 1848.48 -558.521C1900.29 -537.382 1941.96 -506.488 1972.11 -466.921C2002.95 -426.487 1996.23 -376.189 1990.48 -331.744V-331.093C1989.52 -324.156 1988.69 -317.868 1988.01 -311.689C1982.66 -264.535 1981.29 -204.046 2019.12 -154.073C2041.05 -125.13 2075.87 -103.449 2109.59 -82.4192C2121.92 -74.7227 2134.67 -66.8093 2146.18 -58.896C2163.45 -47.0801 2181.68 -34.2887 2198.68 -20.8468C2255.29 23.8148 2293.25 81.1595 2308.19 144.683C2323 207.231 2313.4 272.164 2281.33 327.557C2253.37 375.905 2198.4 417.748 2126.86 445.173C2075.46 464.903 2018.57 476.177 1957.44 478.67C1948.67 478.995 1939.76 479.212 1930.99 479.212L1930.85 479.32ZM703.159 -629.524C646.962 -629.524 596.111 -616.733 548.001 -590.391C469.462 -547.464 455.619 -493.154 457.812 -455.105C459.731 -421.176 474.945 -386.053 501.81 -353.641C527.167 -322.963 561.433 -296.947 598.304 -280.47C611.462 -274.616 625.305 -268.871 639.286 -263.559C672.73 -250.768 708.504 -239.711 743.045 -228.87C817.882 -205.564 895.324 -181.499 962.349 -137.596C1018.82 -100.522 1065.97 -62.6899 1115.73 -22.5812C1150.95 5.82013 1187.27 34.9802 1227.71 64.3572C1298.16 115.415 1356.41 168.315 1412.75 219.372C1514.45 311.514 1610.53 398.561 1751.85 445.824C1788.99 458.182 1820.79 465.77 1852.31 469.456C1887.68 473.683 1922.77 475.093 1957.17 473.575C2017.34 471.082 2073.54 459.916 2124.11 440.512C2194.29 413.52 2248.16 372.653 2275.43 325.281C2306.96 270.863 2316.28 207.014 2301.89 145.442C2287.09 82.894 2249.94 26.5249 2194.16 -17.4863C2177.3 -30.8198 2159.07 -43.5029 2141.93 -55.3187C2130.56 -63.1236 2117.81 -71.037 2105.61 -78.6251C2071.34 -99.8719 2035.98 -121.878 2013.5 -151.688C1974.71 -202.962 1976.08 -264.426 1981.57 -312.34C1982.25 -318.627 1983.07 -324.915 1984.03 -331.852V-332.503C1989.93 -376.08 1996.37 -425.512 1966.63 -464.536C1937.02 -503.344 1896.31 -533.48 1845.6 -554.293C1796.94 -574.239 1738.69 -585.513 1672.76 -588.006C1563.79 -592.017 1443.17 -570.011 1326.39 -524.808C1318.44 -521.773 1308.03 -516.027 1295.83 -509.523C1258.55 -489.36 1207.42 -461.609 1151.91 -461.609C1134.23 -461.609 1117.1 -464.536 1101.06 -470.282C1064.74 -483.29 1037.05 -505.404 1010.32 -526.759C983.731 -548.006 956.318 -569.903 920.407 -582.695C862.291 -603.399 799.653 -623.237 735.369 -628.549C724.541 -629.416 713.85 -629.849 703.433 -629.849L703.159 -629.524Z" fill="url(#paint10_linear_724_27210)"/>
<path d="M1916.5 454.183C1894.02 454.183 1870.99 453.207 1848.24 451.256C1816.72 448.546 1784.64 442.692 1750.38 433.587C1577.26 387.082 1472.13 279.439 1360.97 165.508C1329.58 133.313 1297.37 100.359 1263.52 68.7054C1245.7 52.0115 1228.02 34.8839 1212.39 19.7076L1211.85 19.1657C1153.32 -37.5286 1098.08 -90.9708 1028.73 -134.548C958.823 -178.451 876.31 -199.698 796.401 -220.294C762.409 -229.075 727.457 -238.072 694.013 -248.696C678.662 -253.465 663.721 -258.669 649.604 -264.089C562.978 -297.043 494.583 -372.816 487.045 -444.361C482.933 -483.386 494.583 -539.105 573.395 -582.899C632.882 -615.962 696.069 -628.428 768.577 -621.273C834.505 -614.769 898.926 -592.655 958.549 -569.891C995.968 -555.582 1023.52 -531.733 1050.11 -508.535C1076.29 -485.771 1103.43 -462.248 1139.34 -448.914C1154.69 -443.169 1171.14 -440.134 1188.27 -440.134C1244.74 -440.134 1298.2 -471.57 1333.56 -492.383C1344.94 -498.996 1354.53 -504.633 1361.8 -507.885C1476.52 -558.4 1593.98 -585.501 1701.58 -586.26H1706.38C1770.39 -586.26 1827.54 -577.045 1876.48 -558.942C1928.42 -539.647 1969.95 -510.595 1999.83 -472.654C2032.32 -431.245 2024.23 -379.212 2016.97 -333.358V-332.49C2015.73 -325.336 2014.77 -319.049 2013.81 -312.653C2007.1 -264.089 2004.49 -201.649 2043.83 -150.158C2066.72 -120.131 2103.59 -97.8 2139.23 -76.3364C2151.84 -68.7483 2164.59 -61.0518 2176.24 -53.2469C2194.19 -41.3226 2211.74 -29.5068 2227.77 -16.8238C2283.42 27.079 2319.74 86.4833 2330.02 150.332C2340.58 215.807 2322.21 279.222 2278.35 328.87C2243.13 368.654 2185.69 402.8 2116.61 424.914C2065.21 441.391 2008.61 451.039 1948.3 453.532C1937.88 453.966 1927.33 454.183 1916.77 454.183H1916.5ZM729.924 -618.13C674.55 -618.13 624.384 -605.23 576.822 -578.78C500.614 -536.395 489.238 -482.519 493.212 -444.795C500.477 -374.984 567.365 -300.837 652.071 -268.642C666.052 -263.33 680.855 -258.235 696.206 -253.465C729.513 -242.95 764.327 -233.953 798.046 -225.281C878.777 -204.468 961.976 -183.112 1032.7 -138.559C1102.47 -94.6564 1157.98 -40.9974 1216.78 15.9136L1217.33 16.4556C1232.95 31.6319 1250.64 48.7595 1268.45 65.345C1302.45 97.2151 1334.66 130.169 1365.77 162.04C1476.66 275.645 1581.1 382.638 1752.43 428.708C1786.29 437.814 1817.81 443.56 1848.93 446.161C1882.23 448.98 1915.81 449.847 1947.75 448.438C2007.37 445.944 2063.3 436.405 2113.87 420.145C2181.86 398.356 2238.33 364.86 2272.73 325.835C2315.77 277.271 2333.73 215.048 2323.31 150.874C2313.17 88.1094 2277.53 29.8975 2222.84 -13.2465C2206.94 -25.8211 2189.53 -37.5286 2171.71 -49.3444C2160.06 -57.0409 2147.45 -64.6291 2135.26 -72.0004C2098.8 -94.006 2061.51 -116.554 2037.94 -147.448C1997.64 -200.24 2000.25 -263.764 2007.1 -313.195C2007.92 -319.591 2009.02 -325.986 2010.11 -333.141V-334.008C2017.38 -379.103 2025.33 -430.161 1993.94 -470.053C1964.75 -507.234 1924.17 -535.636 1873.32 -554.389C1825.35 -572.167 1769.02 -581.273 1705.97 -581.273H1701.17C1594.81 -580.514 1478.3 -553.631 1364.54 -503.549C1357.55 -500.514 1348.23 -494.985 1337.26 -488.589C1301.08 -467.234 1246.52 -435.256 1188 -435.256C1169.9 -435.256 1152.63 -438.399 1136.32 -444.47C1099.18 -458.345 1071.77 -482.194 1045.04 -505.283C1018.72 -528.048 991.582 -551.571 955.397 -565.446C896.184 -588.102 832.449 -609.891 767.343 -616.395C754.596 -617.696 741.986 -618.347 729.787 -618.347L729.924 -618.13Z" fill="url(#paint11_linear_724_27210)"/>
<path d="M1899.89 429.262C1881.8 429.262 1863.3 428.828 1844.93 427.853C1720.89 421.457 1615.62 383.625 1523.24 312.188C1441.82 249.206 1379.87 168.447 1319.97 90.3972C1251.58 1.29077 1187.15 -82.8292 1099.02 -135.513C1025.14 -179.741 940.574 -197.302 851.07 -216.055C817.764 -222.993 783.908 -230.039 751.013 -238.494C733.331 -243.047 717.706 -247.492 703.314 -252.153C658.905 -266.462 616.003 -292.479 582.834 -325.324C548.841 -358.821 527.185 -397.52 521.703 -434.052C515.946 -472.86 525.129 -528.036 601.611 -571.289C662.057 -605.435 726.478 -617.793 800.356 -609.338C867.244 -601.533 932.624 -577.576 993.344 -552.86C1031.17 -537.467 1058.59 -511.884 1084.9 -487.169C1111.08 -462.778 1137.95 -437.629 1174.41 -423.32C1190.17 -417.141 1207.17 -413.889 1224.57 -413.889C1283.24 -413.889 1338.06 -448.686 1374.25 -471.776C1384.25 -478.063 1392.75 -483.483 1399.19 -486.735C1462.52 -518.28 1527.08 -542.345 1590.81 -558.28C1652.9 -573.782 1712.8 -581.37 1768.86 -580.503C1824.92 -579.744 1875.5 -570.747 1919.08 -553.836C1963.9 -536.383 1999.95 -511.017 2026.54 -478.388C2060.81 -436.22 2051.08 -382.452 2042.58 -334.972C2041.21 -327.384 2039.97 -320.446 2038.88 -313.509C2030.93 -263.427 2027.09 -199.145 2067.8 -146.028C2091.79 -114.699 2130.85 -91.8266 2168.54 -69.7126C2181.29 -62.2328 2193.9 -54.8615 2205.55 -47.3817C2222.68 -36.4332 2240.23 -25.1594 2256.13 -12.6931C2286.14 11.0469 2310.95 41.3995 2327.67 75.0041C2344.26 108.284 2352.89 144.273 2352.35 178.962C2351.52 239.016 2323.84 292.675 2274.36 330.074C2231.73 362.378 2173.2 388.394 2105.08 405.522C2054.37 418.313 1999.13 426.01 1940.88 428.395C1927.44 428.937 1913.6 429.262 1899.62 429.262H1899.89ZM757.044 -606.844C702.355 -606.844 652.737 -593.836 605.586 -567.169C531.571 -525.326 522.662 -471.992 528.282 -434.594C533.627 -398.929 554.735 -361.205 588.042 -328.468C620.664 -296.273 662.468 -270.907 705.918 -256.923C720.173 -252.37 735.661 -247.925 753.069 -243.481C785.827 -235.026 819.545 -227.979 852.167 -221.259C942.904 -202.397 1028.02 -184.619 1102.86 -139.74C1191.81 -86.5149 1256.65 -1.9613 1325.32 87.5787C1384.94 165.411 1446.76 245.846 1527.62 308.394C1618.91 378.963 1722.81 416.362 1845.34 422.541C1877.69 424.167 1910.17 424.384 1940.88 423.083C1998.58 420.698 2053.27 413.001 2103.44 400.427C2170.6 383.516 2228.3 357.825 2270.24 326.063C2318.49 289.64 2345.49 237.282 2346.32 178.636C2346.86 144.598 2338.37 109.259 2322.06 76.5217C2305.61 43.5675 2281.35 13.757 2251.88 -9.44104C2236.25 -21.7989 2218.71 -32.9642 2201.85 -43.8044C2190.34 -51.1758 2177.73 -58.5472 2165.66 -65.7017C2127.01 -88.3577 2087.4 -111.556 2062.73 -143.751C2020.92 -198.169 2024.9 -263.535 2032.85 -314.484C2033.94 -321.422 2035.18 -328.36 2036.55 -335.731C2045.05 -382.561 2054.5 -435.352 2021.47 -475.895C1995.57 -507.765 1960.34 -532.481 1916.62 -549.5C1873.85 -566.085 1824.23 -574.974 1769.13 -575.625C1713.62 -576.383 1654.55 -568.904 1593.14 -553.619C1529.95 -537.792 1465.95 -513.944 1403.03 -482.616C1396.86 -479.58 1388.5 -474.16 1378.63 -467.981C1341.63 -444.458 1285.84 -409.011 1224.85 -409.011C1206.34 -409.011 1188.53 -412.371 1171.8 -418.875C1134.25 -433.618 1106.83 -459.201 1080.24 -484.025C1054.2 -508.415 1027.2 -533.565 990.603 -548.524C930.294 -573.131 865.462 -596.871 799.534 -604.46C785.005 -606.194 770.613 -606.953 756.906 -606.953L757.044 -606.844Z" fill="url(#paint12_linear_724_27210)"/>
<path d="M2035.03 758.139C1984.59 758.139 1934.84 749.25 1886.86 731.581C1835.33 712.61 1786.26 681.499 1741.3 639.005C1693.33 593.802 1657.28 544.804 1619.18 492.88C1498.7 328.867 1362.32 142.958 780.61 61.1144C754.02 57.4288 728.388 54.2851 703.717 51.2498C689.325 49.5154 675.207 47.7809 661.226 45.9381C398.061 12.1167 328.98 -27.0164 299.374 -43.7103C148.602 -129.023 58.6871 -204.47 15.6486 -359.16C-23.8262 -500.95 75.4093 -662.36 241.532 -726.643C432.738 -800.681 629.564 -767.294 651.358 -763.283C754.431 -744.204 798.977 -748.106 850.788 -752.551C868.743 -754.069 887.384 -755.695 909.863 -756.562C1054.47 -762.199 1206.06 -730.87 1360.12 -663.444C1437.98 -629.406 1496.78 -595.151 1545.16 -555.584C1597.25 -513.091 1638.36 -463.118 1670.58 -402.954C1685.1 -375.854 1692.92 -346.911 1700.32 -318.943L1700.73 -317.642C1702.24 -312.222 1703.75 -306.585 1705.25 -301.057C1714.71 -266.91 1726.36 -230.595 1748.29 -197.099C1764.74 -171.95 1787.49 -149.511 1809.42 -127.939L1816.55 -120.892C1838.48 -99.2121 1859.18 -80.7838 1879.74 -64.7403C1917.43 -35.2549 1957.73 -7.82928 1996.79 18.7292C2108.5 94.8274 2224.05 173.527 2310.94 317.594C2353.98 389.03 2370.84 461.551 2359.74 527.46C2349.6 587.514 2316.98 640.957 2265.3 682.149C2218.29 719.656 2158.8 744.481 2093.15 753.911C2079.72 755.863 2065.87 757.055 2052.3 757.706C2046.55 757.922 2040.79 758.031 2035.03 758.031V758.139ZM514.703 -769.136C438.906 -769.136 340.905 -759.489 244.274 -721.982C80.7548 -658.675 -16.9727 -499.757 21.8167 -360.136C64.444 -207.072 153.536 -132.275 302.938 -47.7212C332.133 -31.2441 400.391 7.45538 662.049 41.06C676.029 42.9028 690.147 44.5289 704.539 46.3718C729.348 49.407 754.979 52.5506 781.57 56.2363C1366.15 138.513 1503.49 325.398 1624.52 490.386C1662.49 542.202 1698.4 590.983 1745.96 635.862C1790.37 677.705 1838.62 708.383 1889.33 727.028C1941.83 746.323 1996.79 755.104 2051.75 752.719C2065.19 752.177 2078.62 750.876 2091.78 749.033C2156.06 739.819 2214.45 715.537 2260.5 678.789C2311.08 638.355 2343.15 585.888 2353.02 526.918C2363.99 462.093 2347.4 390.44 2304.78 319.978C2218.43 176.779 2103.43 98.5131 1992.27 22.7401C1953.2 -3.81836 1912.77 -31.3525 1874.94 -60.9462C1854.24 -77.0981 1833.41 -95.6348 1811.2 -117.532L1804.08 -124.47C1781.74 -146.367 1758.85 -169.023 1742.12 -194.606C1719.78 -228.753 1707.99 -265.392 1698.54 -299.864C1697.03 -305.284 1695.52 -310.921 1694.01 -316.45L1693.6 -317.751C1686.2 -345.501 1678.52 -374.12 1664.13 -400.786C1632.2 -460.408 1591.49 -509.839 1539.95 -551.899C1491.98 -591.032 1433.59 -625.07 1356.28 -658.892C1203.32 -725.884 1052.82 -756.995 909.452 -751.358C887.247 -750.491 868.743 -748.865 850.788 -747.348C798.566 -742.795 753.334 -738.892 649.302 -758.188C638.748 -760.139 586.663 -769.028 514.155 -769.028L514.703 -769.136Z" fill="url(#paint13_linear_724_27210)"/>
<path d="M2300.41 320.754C2273.54 246.282 2232.97 178.856 2176.36 114.79C2120.99 52.134 2053.96 -2.9342 1995.71 -48.6799C1975.56 -64.5065 1956.51 -80.8752 1936.36 -98.2195C1928.14 -105.266 1919.5 -112.203 1911.14 -119.033C1887.57 -138.003 1863.17 -157.732 1846.72 -181.364C1819.44 -220.28 1811.91 -265.592 1808.07 -304.725C1807.66 -309.495 1807.24 -314.481 1806.7 -319.36V-321.202C1803.54 -356.65 1800.53 -393.181 1780.11 -426.136C1747.76 -478.602 1706.64 -521.096 1654.69 -556.001C1606.58 -588.305 1547.37 -614.972 1473.9 -637.736C1377.55 -667.438 1275.02 -682.506 1169.07 -682.506C1131.51 -682.506 1093.68 -680.555 1056.4 -676.652C1040.64 -675.026 1016.65 -669.281 997.189 -664.62C943.185 -651.612 890.826 -638.929 818.044 -662.018C810.917 -664.295 802.145 -667.655 792.139 -671.558C744.303 -690.094 664.257 -721.097 540.35 -717.845C353.941 -715.244 241.274 -625.92 201.25 -550.147C163.283 -473.182 185.351 -382.992 263.204 -296.162C288.15 -268.411 373.541 -187.326 467.568 -117.407C556.661 -51.0646 708.392 10.8328 873.556 48.0147L942.089 64.0582C1342.18 157.067 1476.64 301.892 1595.2 429.698C1642.08 480.322 1686.49 528.019 1744.06 570.512C1788.74 603.466 1831.23 625.58 1874 638.155C1916.76 650.73 1960.35 657.125 2003.66 657.125C2009.69 657.125 2015.58 657.017 2021.61 656.8C2035.73 656.258 2049.85 654.849 2063.69 652.898C2122.22 644.334 2175.68 623.412 2218.3 592.301C2260.66 561.298 2290.95 521.189 2305.89 476.203C2322.06 427.53 2320.28 375.28 2300.68 320.971L2300.41 320.754ZM2299.45 474.793C2284.78 518.805 2255.17 558.154 2213.78 588.507C2172.11 618.968 2119.75 639.564 2062.32 647.911C2048.89 649.862 2035.05 651.163 2021.07 651.705C1972.96 653.765 1923.75 647.478 1876.05 633.385C1834.11 621.028 1792.3 599.239 1748.31 566.718C1691.15 524.55 1647.02 476.961 1600.14 426.554C1480.89 298.098 1345.88 152.514 943.596 59.0718L875.064 43.0283C710.859 6.06317 560.087 -55.2924 471.68 -121.201C370.663 -196.54 287.19 -278.058 268.275 -299.197C191.656 -384.618 169.999 -473.182 207.144 -548.413C246.345 -622.668 357.094 -710.257 540.35 -712.859C546.381 -713.076 552.412 -713.076 558.306 -713.076C670.288 -713.076 744.166 -684.457 789.124 -667.113C799.266 -663.211 808.039 -659.742 815.44 -657.465C890.278 -633.725 943.596 -646.517 998.834 -659.85C1018.02 -664.403 1041.87 -670.148 1057.09 -671.666C1094.09 -675.46 1131.79 -677.411 1168.93 -677.411C1274.06 -677.411 1375.9 -662.452 1471.43 -632.966C1544.22 -610.527 1602.88 -584.077 1650.44 -552.099C1701.84 -517.627 1742.28 -475.675 1774.21 -423.859C1793.95 -391.772 1796.96 -355.674 1799.98 -320.769V-318.926C1800.53 -314.048 1800.94 -309.061 1801.49 -304.292C1805.33 -264.617 1813 -218.654 1840.96 -178.871C1857.96 -154.589 1882.63 -134.751 1906.48 -115.455C1914.84 -108.734 1923.48 -101.797 1931.56 -94.7507C1951.71 -77.298 1970.76 -60.9293 1991.05 -44.9941C2049.16 0.534668 2115.92 55.4944 2170.88 117.717C2227.08 181.349 2267.37 248.233 2294.1 322.163C2313.43 375.605 2315.07 426.988 2299.31 474.793H2299.45Z" fill="url(#paint14_linear_724_27210)"/>
<path d="M2305.62 319.209C2229.96 166.362 2116.47 79.8569 1996.26 -11.6343L1994.89 -12.6099C1976.11 -26.919 1956.79 -41.6616 1937.74 -56.6211C1914.98 -74.399 1894.01 -93.3694 1876.47 -109.521C1870.85 -114.725 1864.95 -120.036 1859.2 -125.131L1857.83 -126.324C1835.9 -145.728 1813.28 -165.89 1797.38 -189.305C1772.98 -225.186 1763.39 -265.187 1756.53 -302.91C1755.71 -307.68 1754.89 -312.558 1753.93 -317.978V-319.171C1748.31 -351.149 1742.83 -384.212 1725.28 -414.565C1663.06 -522.316 1570.81 -592.886 1416.89 -650.664C1310.66 -690.448 1187.17 -712.453 1028.31 -719.933C1011.04 -720.8 964.297 -721.234 918.517 -711.586C844.639 -693.808 785.427 -701.288 750.064 -710.827C549.126 -765.353 427.001 -740.313 386.978 -732.182C385.196 -731.857 208.382 -693.049 130.254 -576.3C85.7083 -509.742 83.2411 -431.692 122.99 -344.428C160.409 -255.972 340.102 -54.9951 586.271 8.74524C674.13 32.1601 857.934 62.079 861.361 62.6211C1353.29 151.294 1489.67 316.824 1609.87 462.95C1651.54 513.573 1690.88 561.379 1742.55 604.848C1787.79 643.005 1832.88 669.13 1880.3 684.957C1925.81 700.133 1972.69 707.83 2019.56 707.83C2025.46 707.83 2031.21 707.721 2037.11 707.505C2050.95 706.963 2064.79 705.662 2078.36 703.711C2140.45 694.713 2196.93 671.732 2241.61 637.369C2288.35 601.271 2319.74 554.441 2332.21 501.974C2345.92 444.305 2337.01 382.841 2305.62 319.425V319.209ZM2325.9 500.782C2313.71 552.273 2283 598.127 2237.22 633.466C2193.5 667.179 2138.12 689.727 2077.27 698.507C2063.97 700.458 2050.27 701.651 2036.83 702.301C1985.16 704.469 1933.07 696.99 1882.77 680.187C1836.17 664.686 1791.9 638.886 1747.21 601.271C1695.95 558.127 1656.75 510.538 1615.22 460.131C1494.33 313.246 1357.26 146.741 862.595 57.6345C860.676 57.3093 676.186 27.282 588.19 3.86713C344.214 -59.2228 166.029 -258.357 128.884 -346.054C89.8203 -431.909 92.1504 -508.549 135.737 -573.807C212.494 -688.605 386.567 -726.762 388.349 -727.088C408.771 -731.207 450.439 -739.771 513.215 -739.771C572.701 -739.771 650.966 -732.074 747.734 -705.841C784.056 -695.976 844.502 -688.388 920.162 -706.491C964.982 -715.922 1010.76 -715.38 1027.76 -714.621C1185.79 -707.25 1308.47 -685.353 1414.01 -645.894C1566.43 -588.767 1657.85 -518.847 1719.25 -412.288C1736.39 -382.586 1741.87 -349.957 1747.21 -318.304L1747.49 -316.569C1748.31 -311.691 1749.13 -306.813 1749.96 -302.043C1756.81 -263.777 1766.68 -223.343 1791.49 -186.704C1807.66 -162.747 1830.55 -142.476 1852.75 -122.746L1854.13 -121.554C1859.88 -116.459 1865.64 -111.256 1871.4 -106.052C1889.08 -89.7922 1910.18 -70.8218 1933.07 -52.9355C1952.26 -37.976 1971.59 -23.125 1990.37 -8.92432L1991.74 -7.94867C2111.4 83.2174 2224.48 169.289 2299.59 321.16C2330.56 383.708 2339.34 444.196 2325.9 500.89V500.782Z" fill="url(#paint15_linear_724_27210)"/>
<path d="M2303.02 319.973C2231.74 154.877 2107.97 57.9658 1977.08 -44.5825L1966.66 -52.7127C1945.14 -69.515 1925.13 -87.293 1906.35 -103.987C1899.09 -110.491 1891.55 -116.887 1884.15 -123.174C1861.53 -142.253 1838.09 -162.09 1822.05 -185.505C1796.29 -223.012 1787.51 -266.482 1782.31 -303.989C1781.62 -309.192 1780.94 -314.504 1780.25 -320.249C1776 -353.962 1771.75 -388.759 1752.84 -420.521C1720.35 -474.939 1679.23 -519.275 1627.28 -556.023C1579.31 -590.062 1519.83 -618.896 1445.54 -644.263C1313.41 -689.466 1163.04 -708.328 1018.17 -697.813C1001.17 -696.621 981.707 -692.827 961.01 -688.707C930.17 -682.637 895.219 -675.807 860.13 -675.807C845.053 -675.807 831.209 -677 817.777 -679.493C789.13 -684.696 763.362 -692.501 738.142 -700.09C707.85 -709.195 671.802 -719.168 634.795 -723.938C623.007 -725.456 561.739 -732.935 515.274 -729.358C335.17 -720.036 244.707 -659.33 200.709 -610.116C135.603 -537.378 133.958 -450.982 153.97 -394.504C190.703 -291.306 252.794 -236.454 307.894 -187.782C364.365 -137.591 444.548 -80.8972 499.785 -53.5799C559.683 -19.9753 676.737 15.7974 838.337 50.0524C841.9 50.8112 844.368 51.3532 845.875 51.6784C857.526 53.9549 867.669 56.1229 878.497 58.3994C885.761 59.917 893.3 61.4346 901.798 63.169C1348.22 154.444 1483.78 309.675 1603.57 446.695C1647.57 497.102 1689.24 544.691 1743.38 587.51C1788.47 623.065 1832.2 647.239 1877.15 661.44C1921.29 675.315 1966.52 682.361 2011.75 682.361C2017.65 682.361 2023.54 682.253 2029.43 682.036C2043.42 681.494 2057.53 680.193 2071.1 678.134C2131.41 669.353 2186.37 647.348 2229.96 614.61C2274.51 581.114 2305.21 537.645 2318.92 488.864C2333.86 435.638 2328.51 378.836 2303.15 319.973H2303.02ZM2312.47 487.78C2299.04 535.477 2268.89 578.079 2225.3 610.924C2182.54 643.12 2128.81 664.583 2069.59 673.147C2056.3 675.098 2042.59 676.399 2028.75 676.941C1978.86 679.109 1928.14 672.172 1879.21 656.778C1835.08 642.903 1791.9 619.054 1747.63 584.041C1693.76 541.547 1652.37 494.067 1608.51 443.877C1488.16 306.206 1351.78 150.107 903.031 58.3994C894.533 56.665 887.132 55.1473 879.867 53.6296C869.176 51.3532 858.896 49.2936 847.383 46.9087C846.012 46.5835 843.408 46.0415 839.844 45.2827C681.26 11.678 561.739 -24.8535 503.212 -57.6992C448.386 -84.9081 368.751 -141.169 312.554 -191.034C258.002 -239.273 196.323 -293.69 160.138 -395.805C140.4 -451.199 142.182 -535.86 205.917 -607.081C268.008 -676.458 375.056 -717 515.822 -724.263C524.457 -724.914 533.503 -725.239 542.687 -725.239C582.573 -725.239 624.241 -720.144 633.698 -718.952C670.158 -714.182 705.794 -704.317 735.949 -695.32C761.169 -687.732 787.211 -679.927 816.269 -674.615C830.113 -672.013 844.505 -670.821 859.993 -670.821C895.904 -670.821 931.267 -677.759 962.518 -683.829C982.94 -687.84 1002.13 -691.634 1018.58 -692.827C1162.22 -703.233 1311.49 -684.48 1442.79 -639.601C1516.4 -614.452 1575.34 -585.834 1622.76 -552.229C1674.16 -515.915 1714.73 -472.012 1746.81 -418.353C1765.17 -387.458 1769.56 -353.095 1773.67 -319.598C1774.36 -314.07 1775.04 -308.758 1775.73 -303.555C1780.93 -265.506 1789.84 -221.386 1816.16 -183.12C1832.61 -159.164 1856.32 -139.109 1879.21 -119.814C1886.61 -113.635 1894.15 -107.239 1901.42 -100.735C1920.19 -84.0409 1940.34 -66.2629 1962 -49.2438L1972.42 -41.1136C2102.9 61.001 2225.99 157.479 2296.85 321.491C2321.93 379.486 2327.14 435.422 2312.47 487.671V487.78Z" fill="url(#paint16_linear_724_27210)"/>
</g>
<defs>
<linearGradient id="paint0_linear_724_27210" x1="112.435" y1="-836.013" x2="1638.64" y2="1157.69" gradientUnits="userSpaceOnUse">
<stop stop-color="#AFB388"/>
<stop offset="0.31" stop-color="#41929E"/>
<stop offset="0.49" stop-color="#27758D"/>
<stop offset="0.68" stop-color="#115C7E"/>
<stop offset="0.86" stop-color="#044D76"/>
<stop offset="1" stop-color="#004873"/>
</linearGradient>
<linearGradient id="paint1_linear_724_27210" x1="134.34" y1="-852.721" x2="1660.54" y2="1140.98" gradientUnits="userSpaceOnUse">
<stop stop-color="#AFB388"/>
<stop offset="0.31" stop-color="#41929E"/>
<stop offset="0.49" stop-color="#27758D"/>
<stop offset="0.68" stop-color="#115C7E"/>
<stop offset="0.86" stop-color="#044D76"/>
<stop offset="1" stop-color="#004873"/>
</linearGradient>
<linearGradient id="paint2_linear_724_27210" x1="160.984" y1="-873.07" x2="1687.19" y2="1120.63" gradientUnits="userSpaceOnUse">
<stop stop-color="#AFB388"/>
<stop offset="0.31" stop-color="#41929E"/>
<stop offset="0.49" stop-color="#27758D"/>
<stop offset="0.68" stop-color="#115C7E"/>
<stop offset="0.86" stop-color="#044D76"/>
<stop offset="1" stop-color="#004873"/>
</linearGradient>
<linearGradient id="paint3_linear_724_27210" x1="209.76" y1="-910.487" x2="1735.96" y2="1083.21" gradientUnits="userSpaceOnUse">
<stop stop-color="#AFB388"/>
<stop offset="0.31" stop-color="#41929E"/>
<stop offset="0.49" stop-color="#27758D"/>
<stop offset="0.68" stop-color="#115C7E"/>
<stop offset="0.86" stop-color="#044D76"/>
<stop offset="1" stop-color="#004873"/>
</linearGradient>
<linearGradient id="paint4_linear_724_27210" x1="311.857" y1="-988.648" x2="1838.06" y2="1005.05" gradientUnits="userSpaceOnUse">
<stop stop-color="#AFB388"/>
<stop offset="0.31" stop-color="#41929E"/>
<stop offset="0.49" stop-color="#27758D"/>
<stop offset="0.68" stop-color="#115C7E"/>
<stop offset="0.86" stop-color="#044D76"/>
<stop offset="1" stop-color="#004873"/>
</linearGradient>
<linearGradient id="paint5_linear_724_27210" x1="333.082" y1="-1004.92" x2="1859.29" y2="988.785" gradientUnits="userSpaceOnUse">
<stop stop-color="#AFB388"/>
<stop offset="0.31" stop-color="#41929E"/>
<stop offset="0.49" stop-color="#27758D"/>
<stop offset="0.68" stop-color="#115C7E"/>
<stop offset="0.86" stop-color="#044D76"/>
<stop offset="1" stop-color="#004873"/>
</linearGradient>
<linearGradient id="paint6_linear_724_27210" x1="352.821" y1="-1020.1" x2="1879.15" y2="973.632" gradientUnits="userSpaceOnUse">
<stop stop-color="#AFB388"/>
<stop offset="0.31" stop-color="#41929E"/>
<stop offset="0.49" stop-color="#27758D"/>
<stop offset="0.68" stop-color="#115C7E"/>
<stop offset="0.86" stop-color="#044D76"/>
<stop offset="1" stop-color="#004873"/>
</linearGradient>
<linearGradient id="paint7_linear_724_27210" x1="371.178" y1="-1034.08" x2="1897.38" y2="959.62" gradientUnits="userSpaceOnUse">
<stop stop-color="#AFB388"/>
<stop offset="0.31" stop-color="#41929E"/>
<stop offset="0.49" stop-color="#27758D"/>
<stop offset="0.68" stop-color="#115C7E"/>
<stop offset="0.86" stop-color="#044D76"/>
<stop offset="1" stop-color="#004873"/>
</linearGradient>
<linearGradient id="paint8_linear_724_27210" x1="388.707" y1="-1047.51" x2="1914.91" y2="946.195" gradientUnits="userSpaceOnUse">
<stop stop-color="#AFB388"/>
<stop offset="0.31" stop-color="#41929E"/>
<stop offset="0.49" stop-color="#27758D"/>
<stop offset="0.68" stop-color="#115C7E"/>
<stop offset="0.86" stop-color="#044D76"/>
<stop offset="1" stop-color="#004873"/>
</linearGradient>
<linearGradient id="paint9_linear_724_27210" x1="405.857" y1="-1060.63" x2="1932.06" y2="933.071" gradientUnits="userSpaceOnUse">
<stop stop-color="#AFB388"/>
<stop offset="0.31" stop-color="#41929E"/>
<stop offset="0.49" stop-color="#27758D"/>
<stop offset="0.68" stop-color="#115C7E"/>
<stop offset="0.86" stop-color="#044D76"/>
<stop offset="1" stop-color="#004873"/>
</linearGradient>
<linearGradient id="paint10_linear_724_27210" x1="422.586" y1="-1073.43" x2="1948.79" y2="920.27" gradientUnits="userSpaceOnUse">
<stop stop-color="#AFB388"/>
<stop offset="0.31" stop-color="#41929E"/>
<stop offset="0.49" stop-color="#27758D"/>
<stop offset="0.68" stop-color="#115C7E"/>
<stop offset="0.86" stop-color="#044D76"/>
<stop offset="1" stop-color="#004873"/>
</linearGradient>
<linearGradient id="paint11_linear_724_27210" x1="439.072" y1="-1085.99" x2="1965.28" y2="907.708" gradientUnits="userSpaceOnUse">
<stop stop-color="#AFB388"/>
<stop offset="0.31" stop-color="#41929E"/>
<stop offset="0.49" stop-color="#27758D"/>
<stop offset="0.68" stop-color="#115C7E"/>
<stop offset="0.86" stop-color="#044D76"/>
<stop offset="1" stop-color="#004873"/>
</linearGradient>
<linearGradient id="paint12_linear_724_27210" x1="455.089" y1="-1098.34" x2="1981.42" y2="895.392" gradientUnits="userSpaceOnUse">
<stop stop-color="#AFB388"/>
<stop offset="0.31" stop-color="#41929E"/>
<stop offset="0.49" stop-color="#27758D"/>
<stop offset="0.68" stop-color="#115C7E"/>
<stop offset="0.86" stop-color="#044D76"/>
<stop offset="1" stop-color="#004873"/>
</linearGradient>
<linearGradient id="paint13_linear_724_27210" x1="184.65" y1="-891.305" x2="1710.85" y2="1102.4" gradientUnits="userSpaceOnUse">
<stop stop-color="#AFB388"/>
<stop offset="0.31" stop-color="#41929E"/>
<stop offset="0.49" stop-color="#27758D"/>
<stop offset="0.68" stop-color="#115C7E"/>
<stop offset="0.86" stop-color="#044D76"/>
<stop offset="1" stop-color="#004873"/>
</linearGradient>
<linearGradient id="paint14_linear_724_27210" x1="286.916" y1="-969.555" x2="1813.12" y2="1024.15" gradientUnits="userSpaceOnUse">
<stop stop-color="#AFB388"/>
<stop offset="0.31" stop-color="#41929E"/>
<stop offset="0.49" stop-color="#27758D"/>
<stop offset="0.68" stop-color="#115C7E"/>
<stop offset="0.86" stop-color="#044D76"/>
<stop offset="1" stop-color="#004873"/>
</linearGradient>
<linearGradient id="paint15_linear_724_27210" x1="236.206" y1="-930.775" x2="1762.41" y2="1062.93" gradientUnits="userSpaceOnUse">
<stop stop-color="#AFB388"/>
<stop offset="0.31" stop-color="#41929E"/>
<stop offset="0.49" stop-color="#27758D"/>
<stop offset="0.68" stop-color="#115C7E"/>
<stop offset="0.86" stop-color="#044D76"/>
<stop offset="1" stop-color="#004873"/>
</linearGradient>
<linearGradient id="paint16_linear_724_27210" x1="260.743" y1="-949.523" x2="1786.95" y2="1044.18" gradientUnits="userSpaceOnUse">
<stop stop-color="#AFB388"/>
<stop offset="0.31" stop-color="#41929E"/>
<stop offset="0.49" stop-color="#27758D"/>
<stop offset="0.68" stop-color="#115C7E"/>
<stop offset="0.86" stop-color="#044D76"/>
<stop offset="1" stop-color="#004873"/>
</linearGradient>
</defs>
</svg>
