<svg width="1562" height="1583" viewBox="0 0 1562 1583" fill="none" xmlns="http://www.w3.org/2000/svg">
<g opacity="0.05">
<path d="M-36.062 1390.69C-5.11951 1390.69 26.234 1385.24 57.1765 1374.55C88.0162 1363.87 118.034 1345.36 151.649 1316.28C198.114 1276.09 233.991 1230.04 271.924 1181.33C359.508 1068.99 458.607 941.743 723.417 852.94L725.678 852.118C861.476 806.586 951.117 776.471 1058.44 670.401C1079.51 649.639 1101.31 629.905 1122.38 610.788C1167.41 570.087 1209.76 531.749 1240.91 487.348C1246.97 478.611 1252.63 469.669 1257.77 461.241C1284.8 416.943 1296.21 363.394 1289.12 314.47C1280.18 253.007 1242.86 200.28 1181.18 161.84C1139.03 135.631 1093.08 122.886 1040.65 122.886C998.918 122.886 958.313 131.005 927.678 138.097C900.951 144.264 878.232 156.392 856.233 168.007C836.701 178.388 816.553 189.077 793.217 195.86C783.143 198.841 772.246 200.383 760.938 200.383C730.921 200.383 702.343 190.207 677.054 181.368C662.56 176.229 650.121 171.81 639.327 169.96C603.142 163.69 566.443 160.606 530.052 160.606C461.793 160.606 395.694 171.501 333.397 193.085C221.449 231.834 150.826 290.111 104.464 382.1C88.119 414.476 86.7827 450.86 85.5491 486.012V487.553C85.3435 492.487 85.1379 497.215 84.9324 501.84C83.0819 540.486 78.2505 585.093 56.7655 623.43C43.9156 646.247 24.795 664.954 6.29114 683.043C-0.287964 689.415 -7.6897 696.713 -14.4744 703.908L-20.745 710.588C-33.4921 724.053 -45.5197 736.798 -58.1639 749.337C-112.853 803.605 -153.253 852.94 -185.326 904.845C-222.128 964.458 -247.622 1027.15 -263.042 1096.63C-273.528 1143.81 -272.191 1189.03 -259.239 1230.97C-247.109 1270.13 -224.698 1305.07 -194.475 1332C-154.898 1367.26 -104.835 1387.51 -49.6315 1390.38C-45.1084 1390.59 -40.4824 1390.79 -35.8564 1390.79L-36.062 1390.69ZM1040.55 127.819C1092.05 127.819 1137.18 140.359 1178.51 166.054C1238.95 203.672 1275.55 255.268 1284.19 315.292C1291.18 363.188 1279.97 415.504 1253.45 458.877C1248.31 467.203 1242.86 476.145 1236.8 484.778C1206.06 528.769 1163.81 566.9 1119.19 607.293C1097.91 626.513 1076.12 646.247 1054.94 667.112C948.444 772.36 859.214 802.372 724.034 847.699L721.772 848.521C455.625 937.838 355.91 1065.7 268.017 1178.45C230.187 1227.06 194.413 1272.9 148.359 1312.78C115.258 1341.46 85.7545 1359.65 55.5316 1370.14C20.58 1382.26 -14.9883 1387.51 -49.6315 1385.66C-103.704 1382.78 -152.739 1363.04 -191.494 1328.51C-221.1 1302.09 -242.996 1267.97 -254.921 1229.63C-267.668 1188.52 -268.902 1144.12 -258.622 1097.77C-243.305 1028.9 -218.119 966.616 -181.523 907.517C-149.655 855.921 -109.46 806.792 -55.0798 752.831C-42.3328 740.189 -30.3053 727.445 -17.5582 713.98L-11.2877 707.299C-4.60571 700.208 2.7959 693.013 9.375 686.64C28.1873 668.345 47.6162 649.331 60.7745 625.897C82.7736 586.634 87.708 541.308 89.5585 502.148C89.764 497.523 89.9696 492.692 90.1752 487.862V486.32C91.5116 451.683 92.8478 415.915 108.679 384.464C154.424 293.605 224.122 236.048 334.837 197.813C396.619 176.435 462.205 165.643 529.949 165.643C566.032 165.643 602.525 168.829 638.402 174.996C648.785 176.743 661.121 181.163 675.307 186.199C700.904 195.244 729.996 205.522 760.836 205.522C772.555 205.522 783.863 203.98 794.451 200.897C818.198 193.908 838.552 183.116 858.289 172.632C879.98 161.12 902.39 149.198 928.501 143.134C958.929 136.042 999.124 128.025 1040.45 128.025L1040.55 127.819Z" fill="url(#paint0_linear_657_17311)"/>
<path d="M-261.176 1097.45C-250.896 1029.31 -230.542 967.74 -198.88 909.052C-169.273 854.064 -130.312 803.084 -80.0436 753.133C-70.1749 743.369 -60.1007 732.988 -50.3348 722.915L-36.9711 709.245C-29.7751 701.948 -22.1678 694.753 -14.5607 687.558C4.86829 669.366 25.0167 650.454 38.2778 627.123C60.9965 587.141 64.9028 540.89 65.6224 500.908C65.7252 495.563 65.8279 490.219 65.8279 484.155C66.2391 447.667 66.6504 409.947 83.9207 376.645C107.873 330.394 138.61 293.598 177.776 264.1C214.167 236.658 258.062 215.485 312.032 199.245C364.356 183.52 419.765 175.605 476.818 175.605C521.228 175.605 566.253 180.539 610.663 190.098C620.737 192.256 632.456 197.087 646.026 202.637C672.239 213.326 702.051 225.454 733.507 225.454C745.021 225.454 756.123 223.707 766.403 220.418C790.252 212.709 810.71 200.376 830.447 188.35C852.035 175.297 874.239 161.73 900.967 154.535C936.844 144.771 992.664 134.493 1039.54 135.212C1081.17 135.932 1120.44 148.266 1159.61 173.139C1188.19 191.228 1211.21 212.709 1227.87 236.76C1243.08 258.55 1253.16 282.703 1257.89 308.399C1268.06 363.695 1252.85 425.261 1217.07 473.054C1211.21 480.968 1204.84 489.294 1197.85 497.516C1167.94 532.976 1130.52 563.502 1090.73 595.98C1062.57 619.003 1033.37 642.951 1005.51 669.777C902.92 768.756 819.036 805.346 693.107 853.756C464.174 941.942 367.646 1058.8 282.528 1162C240.998 1212.26 201.831 1259.74 150.945 1300.24C117.741 1326.65 88.7521 1343.3 59.4543 1352.55C29.7455 1362.01 -0.06604 1366.84 -29.0554 1366.84C-33.6813 1366.84 -38.3074 1366.74 -42.9333 1366.43C-54.0356 1365.81 -65.2406 1364.48 -76.2401 1362.52C-117.36 1354.92 -155.293 1337.03 -185.927 1310.93C-246.475 1259.23 -273.922 1181.52 -261.278 1097.55L-261.176 1097.45ZM-182.637 1307.12C-152.62 1332.72 -115.407 1350.19 -75.2123 1357.59C-64.4185 1359.54 -53.4187 1360.88 -42.522 1361.39C-9.62634 1363.14 24.2972 1358.51 58.2208 1347.72C86.9017 1338.57 115.48 1322.23 148.17 1296.23C198.644 1256.04 237.708 1208.76 279.033 1158.71C364.562 1055.1 461.501 937.625 691.668 849.028C817.083 800.721 900.556 764.336 1002.43 666.077C1030.39 639.149 1059.59 615.201 1088.06 591.972C1127.43 559.801 1164.65 529.275 1194.36 494.227C1201.14 486.107 1207.51 477.782 1213.37 469.971C1248.32 423.205 1263.23 363.078 1253.26 309.015C1248.63 284.04 1238.87 260.503 1224.06 239.227C1207.72 215.69 1185.21 194.723 1157.14 176.942C1118.7 152.582 1077.88 140.454 1037.18 139.735C991.944 139.735 936.741 149.705 902.406 158.955C876.398 166.047 854.399 179.408 833.017 192.359C813.074 204.487 792.514 217.026 768.048 224.838C757.151 228.332 745.638 230.079 733.61 230.079C701.229 230.079 671.006 217.746 644.278 206.851C630.914 201.404 619.401 196.676 609.737 194.62C565.637 185.061 520.919 180.231 476.818 180.231C420.279 180.231 365.384 188.145 313.471 203.665C260.015 219.699 216.531 240.666 180.655 267.697C142.105 296.784 111.882 333.066 88.2383 378.701C71.4821 410.974 71.0708 448.078 70.7623 484.463C70.7623 490.116 70.6597 495.46 70.5569 500.805C69.8373 541.404 65.8281 588.375 42.5956 629.282C28.9232 653.332 8.56909 672.45 -11.3739 691.156C-18.7755 698.042 -26.2799 705.134 -33.373 712.432L-46.7368 726.101C-56.5027 736.174 -66.5771 746.555 -76.4459 756.319C-126.406 805.962 -165.058 856.634 -194.459 911.108C-225.813 969.282 -245.961 1030.33 -256.138 1097.96C-268.577 1180.29 -241.644 1256.45 -182.432 1306.92L-182.637 1307.12Z" fill="url(#paint1_linear_657_17311)"/>
<path d="M-259.232 1098.26C-250.186 966.499 -197.244 851.59 -101.847 756.825C-95.2678 750.247 -88.5858 743.567 -81.801 736.783C-74.5023 729.486 -67.1008 721.983 -59.5964 714.479C-51.9894 706.977 -43.8682 699.576 -35.7471 692.279C-15.29 673.881 5.88647 654.764 19.7644 630.713C43.7166 589.086 46.4919 538.929 46.2864 499.872C46.2864 494.425 46.2865 489.08 46.0808 482.811C45.5669 446.529 44.847 405.417 63.2482 371.088C108.994 285.574 181.159 232.95 290.64 205.302C381.617 182.279 483.285 183.923 581.972 210.03C591.121 212.496 602.12 217.533 614.867 223.391C640.67 235.314 672.641 250.114 706.256 250.114C717.872 250.114 729.077 248.264 739.46 244.667C763.926 236.136 784.486 222.055 804.326 208.488C825.502 193.996 847.399 178.99 874.229 170.664C912.882 158.742 959.964 146.511 1006.74 146.1C1054.54 146.1 1098.23 158.536 1137.91 184.129C1190.95 218.355 1222.82 265.017 1230.02 319.08C1239.06 387.121 1208.22 449.099 1176.36 484.558C1170.08 491.444 1162.68 499.564 1154.87 507.375C1126.09 535.743 1092.57 560.205 1056.9 586.003C1022.16 611.287 986.28 637.394 952.768 668.845C856.137 759.703 779.449 802.666 662.977 854.467C470.435 940.187 378.121 1046.36 296.705 1139.99C250.651 1192.93 207.167 1242.98 150.525 1284.09C117.937 1307.73 89.7703 1322.53 62.0145 1330.55C33.8477 1338.67 5.47534 1342.78 -22.2804 1342.78C-27.1119 1342.78 -32.0463 1342.68 -36.775 1342.37C-89.7166 1339.59 -138.341 1321.4 -177.301 1289.95C-234.56 1243.7 -264.372 1174.01 -259.232 1098.47V1098.26ZM-174.217 1285.94C-135.976 1316.78 -88.3801 1334.56 -36.4667 1337.33C-4.80457 1338.98 28.0909 1335.07 60.781 1325.62C88.0227 1317.8 115.676 1303.21 147.749 1279.98C203.98 1239.18 247.258 1189.33 293.107 1136.6C374.832 1042.56 467.557 935.973 661.127 849.842C776.981 798.246 853.464 755.489 949.581 665.145C983.299 633.385 1019.38 607.176 1054.23 581.892C1089.59 556.197 1123.11 531.837 1151.58 503.778C1159.39 496.069 1166.69 488.053 1172.96 481.166C1204.11 446.632 1234.33 385.991 1225.49 319.594C1218.5 266.97 1187.35 221.541 1135.54 188.034C1096.69 162.956 1053.82 150.828 1007.05 150.828C960.889 151.239 914.218 163.367 875.977 175.187C849.866 183.306 828.278 198.107 807.307 212.393C787.261 226.166 766.496 240.35 741.413 249.189C730.516 252.992 718.797 254.945 706.564 254.945C671.921 254.945 639.334 239.939 613.12 227.811C600.578 222.055 589.784 217.019 580.944 214.655C482.976 188.754 382.233 187.109 291.976 209.927C184.037 237.267 112.695 289.171 67.6687 373.349C49.8845 406.65 50.5013 447.043 51.0154 482.708C51.0154 488.978 51.2208 494.425 51.2208 499.872C51.4264 539.546 48.5479 590.525 24.0818 633.18C9.89551 657.847 -11.5892 677.17 -32.5603 696.082C-40.373 703.174 -48.4941 710.471 -55.9984 717.871C-63.5028 725.271 -71.0071 732.775 -78.203 740.072C-84.9878 746.856 -91.6698 753.639 -98.2489 760.114C-192.824 854.056 -245.251 967.835 -254.195 1098.47C-259.232 1172.37 -230.037 1240.62 -174.012 1285.84L-174.217 1285.94Z" fill="url(#paint2_linear_657_17311)"/>
<path d="M-14.354 1318.43C11.3457 1318.43 37.8679 1314.93 64.4929 1308.15C91.3234 1301.26 117.743 1288.72 150.021 1267.65C214.476 1225.51 263.512 1171.45 315.425 1114.2C391.188 1030.54 477.128 935.875 632.971 854.883C739.985 799.278 809.888 750.354 900.043 667.821C938.387 632.67 980.432 605.947 1021.04 580.046C1053.62 559.284 1084.36 539.756 1111.91 516.938C1119 511.08 1126.61 504.399 1135.76 495.766C1181.3 453.42 1207.62 388.154 1202.68 329.466C1198.16 275.505 1168.35 228.946 1116.54 194.925C1077.78 169.435 1036.35 157.102 989.889 157.102C940.34 157.102 892.333 171.285 847.821 186.703C820.785 196.056 799.197 212.603 778.226 228.637C758.386 243.849 737.929 259.472 712.846 268.927C702.155 272.936 690.744 274.992 678.82 274.992C643.868 274.992 610.664 257.93 584.039 244.157C572.114 237.99 561.731 232.646 553.405 230.076C492.753 210.959 431.691 201.297 371.862 201.297C336.705 201.297 302.267 204.689 269.371 211.473C216.533 222.265 172.946 239.326 136.246 263.48C96.9772 289.381 66.4459 322.785 42.8021 365.645C23.2704 401.104 24.9152 443.861 26.4572 481.582C26.6627 487.954 26.9711 493.504 27.074 499.055C28.3075 539.55 26.3544 591.455 1.37415 634.52C-13.0177 659.29 -35.3251 678.613 -56.8101 697.319C-64.8284 704.206 -73.772 712.017 -81.8931 719.828C-96.3877 733.704 -110.471 747.579 -123.424 760.53C-168.964 805.754 -203.504 858.378 -226.223 916.86C-248.427 973.904 -258.707 1035.26 -257.062 1099.09C-255.315 1165.9 -223.139 1227.67 -168.861 1268.58C-139.049 1291.09 -103.069 1306.61 -64.7255 1313.7C-53.1093 1315.86 -41.1844 1317.19 -29.3627 1317.81C-24.3254 1318.12 -19.2883 1318.22 -14.2512 1318.22L-14.354 1318.43ZM989.786 161.932C1035.22 161.932 1075.83 174.06 1113.76 199.036C1164.34 232.235 1193.33 277.561 1197.75 329.979C1202.58 387.229 1176.88 450.953 1132.37 492.271C1123.22 500.802 1115.72 507.483 1108.72 513.238C1081.38 535.85 1050.85 555.276 1018.47 575.832C977.553 601.836 935.406 628.764 896.65 664.121C806.804 746.346 737.107 795.167 630.607 850.463C473.941 931.866 387.796 1026.94 311.724 1110.81C260.016 1167.85 211.187 1221.71 147.246 1263.44C115.378 1284.2 89.473 1296.53 63.1565 1303.32C31.8027 1311.33 0.757324 1314.62 -29.26 1313.08C-40.9791 1312.46 -52.698 1311.13 -64.0059 1308.97C-101.63 1301.98 -136.993 1286.77 -166.188 1264.67C-219.232 1224.69 -250.689 1164.25 -252.437 1098.89C-254.184 1035.57 -243.904 974.931 -221.905 918.505C-199.495 860.639 -165.263 808.631 -120.237 763.922C-107.181 750.971 -93.2009 737.096 -78.7063 723.22C-70.688 715.512 -61.7444 707.7 -53.8289 700.917C-31.9326 681.902 -9.31677 662.271 5.38342 636.884C31.0833 592.688 32.9333 539.961 31.8026 498.849C31.6998 493.299 31.3914 487.749 31.1858 481.89C29.6438 444.272 27.999 402.132 46.9141 367.906C70.1466 325.765 100.164 292.876 138.816 267.489C175.002 243.643 218.074 226.787 270.296 216.098C302.884 209.417 337.013 206.025 371.862 206.025C431.177 206.025 491.725 215.584 551.966 234.599C559.881 237.065 570.058 242.307 581.777 248.371C608.916 262.349 642.634 279.822 678.82 279.822C691.258 279.822 703.286 277.664 714.594 273.45C740.293 263.788 761.059 247.857 781.207 232.44C801.767 216.715 823.149 200.372 849.466 191.225C893.567 176.013 941.06 161.932 989.992 161.932H989.786Z" fill="url(#paint3_linear_657_17311)"/>
<path d="M-6.42114 1294.29C17.531 1294.29 42.2028 1291.51 66.8745 1285.96C92.5743 1280.21 117.966 1269.52 149.422 1251.43C224.465 1207.95 280.388 1147.72 339.498 1083.89C406.934 1011.13 483.313 928.797 602.766 855.412C699.5 796.004 765.085 739.783 847.119 666.808C889.781 628.882 937.479 602.673 983.636 577.286C1013.76 560.738 1042.23 545.115 1068.75 526.717C1076.98 521.065 1085.51 514.692 1094.97 507.189C1118.3 488.894 1139.07 463.096 1153.36 434.728C1168.88 403.894 1176.49 371.107 1175.25 339.964C1173.2 286.107 1145.34 239.752 1094.76 205.937C1056.83 180.551 1016.33 168.217 971.095 168.217C918.873 168.217 868.09 184.867 821.008 202.751C793.766 213.132 772.384 231.222 751.722 248.694C731.881 265.448 711.424 282.818 685.827 293.096C674.828 297.515 663.109 299.777 650.979 299.777C614.588 299.777 580.356 280.248 552.908 264.523C541.806 258.15 532.246 252.703 524.639 249.928C456.174 224.644 387.71 211.899 320.994 211.899C296.116 211.899 271.547 213.749 247.904 217.346C141.095 233.791 67.1831 280.454 22.0543 359.904C1.39172 396.391 4.16724 440.792 6.53162 479.952C6.94275 486.222 7.25122 492.08 7.55969 497.939C9.71838 539.771 8.79309 593.525 -17.3179 638.029C-32.3265 663.622 -55.7645 683.253 -78.483 702.37C-87.3237 709.771 -96.2673 717.274 -104.594 724.982C-119.294 738.549 -132.555 751.397 -145.405 764.142C-232.887 851.3 -272.979 973.61 -255.195 1099.93C-247.073 1158.1 -212.739 1211.96 -161.236 1247.73C-121.762 1275.07 -73.8573 1290.9 -22.7662 1293.67C-17.5234 1293.98 -12.075 1294.08 -6.5238 1294.08L-6.42114 1294.29ZM971.3 173.15C1015.61 173.15 1055.18 185.176 1092.29 210.049C1141.54 242.939 1168.67 287.957 1170.63 340.272C1171.76 370.593 1164.36 402.558 1149.25 432.673C1135.26 460.526 1115.01 485.605 1092.19 503.592C1082.73 510.992 1074.3 517.262 1066.18 522.915C1039.87 541.21 1011.49 556.73 981.477 573.277C935.115 598.767 887.108 625.079 844.035 663.416C762.104 736.185 696.724 792.304 600.299 851.506C480.332 925.303 403.644 1007.84 336.105 1080.71C277.099 1144.33 221.484 1204.35 147.058 1247.42C116.115 1265.3 91.0323 1275.89 65.9493 1281.44C41.5861 1286.89 17.3254 1289.66 -6.31824 1289.66C-11.6638 1289.66 -17.0093 1289.56 -22.252 1289.25C-72.5208 1286.58 -119.5 1271.06 -158.255 1244.23C-208.729 1209.29 -242.242 1156.66 -250.157 1099.72C-267.633 974.946 -228.158 854.076 -141.704 768.048C-128.957 755.303 -115.594 742.558 -100.996 728.991C-92.6693 721.282 -83.8289 713.882 -75.1937 706.584C-52.064 687.159 -28.2145 667.117 -12.7947 640.907C14.0359 595.272 14.9613 540.593 12.8025 498.144C12.4941 492.286 12.1857 486.427 11.7744 480.158C9.41003 441.615 6.63452 397.933 26.5775 362.782C70.9867 284.668 143.666 238.725 248.932 222.588C272.267 218.991 296.63 217.141 321.302 217.141C387.402 217.141 455.352 229.885 523.302 254.861C530.498 257.534 539.956 262.878 550.75 269.045C578.814 285.079 613.662 304.916 651.287 304.916C664.034 304.916 676.37 302.552 687.986 297.927C714.2 287.34 735.068 269.765 755.114 252.806C775.468 235.538 796.542 217.757 822.961 207.685C869.632 189.904 919.901 173.459 971.3 173.459V173.15Z" fill="url(#paint4_linear_657_17311)"/>
<path d="M1.9906 1270.33C23.8868 1270.33 46.5028 1268.17 69.3242 1263.86C94.0988 1259.23 118.667 1250.39 148.788 1235.18C237.812 1190.47 301.855 1120.99 369.6 1047.3C427.887 983.984 488.23 918.512 572.731 855.918C628.448 814.703 672.96 774.413 720.144 731.861C743.685 710.586 768.049 688.59 794.365 665.979C840.728 626.1 893.669 601.329 944.76 577.381C973.133 564.122 999.963 551.48 1025.77 536.577C1035.12 531.13 1044.48 525.271 1054.34 518.693C1080.15 501.529 1103.58 476.039 1120.44 446.952C1138.43 415.809 1148.1 382.405 1148.3 350.338C1148.51 312.925 1135.66 259.376 1073.36 217.031C1035.94 191.541 996.365 179.207 952.367 179.207C945.891 179.207 939.209 179.515 932.527 180.029C884.109 183.935 835.588 202.024 794.571 219.086C767.021 230.495 745.947 250.126 725.49 269.141C705.753 287.538 685.296 306.45 659.287 317.55C648.185 322.278 636.363 324.642 624.027 324.642C585.375 324.642 548.779 301.722 522.051 284.969C511.874 278.596 503.033 273.046 496.146 270.168C405.477 231.523 311.107 215.078 226.709 223.711C121.957 234.401 46.2969 278.391 1.57935 354.654C-20.3168 392.067 -16.4103 438.113 -13.0179 478.814C-12.5039 485.187 -11.9901 491.251 -11.5789 497.315C-8.49487 540.586 -8.39209 596.087 -35.6338 642.133C-51.2593 668.548 -76.0336 688.693 -99.9857 708.119C-109.135 715.519 -118.387 723.022 -126.919 730.731C-143.367 745.428 -155.703 757.043 -167.011 768.349C-209.981 811.106 -240.512 865.169 -255.315 924.782C-269.81 982.853 -268.987 1043.9 -252.951 1101.36C-237.942 1155.01 -197.851 1203.32 -142.956 1234.05C-105.229 1255.12 -61.025 1267.56 -15.2795 1270.02C-9.62561 1270.33 -3.76599 1270.43 2.09351 1270.43L1.9906 1270.33ZM952.367 184.038C995.337 184.038 1034.09 196.166 1070.69 221.039C1131.24 262.254 1143.78 314.056 1143.57 350.338C1143.37 381.583 1134.01 414.165 1116.43 444.588C1099.99 473.058 1077.06 497.931 1051.88 514.685C1042.11 521.16 1032.76 527.018 1023.5 532.363C997.907 547.266 971.18 559.703 942.807 572.962C891.305 597.012 838.158 621.988 791.281 662.279C764.862 684.993 740.499 706.988 716.958 728.264C669.876 770.815 625.364 811.003 569.852 852.115C484.94 915.017 424.494 980.592 366.105 1044.11C298.669 1117.39 234.933 1186.67 146.732 1230.97C116.92 1245.87 92.865 1254.61 68.5016 1259.23C40.0262 1264.58 11.7566 1266.63 -14.9711 1265.19C-59.9971 1262.83 -103.378 1250.6 -140.591 1229.84C-194.355 1199.82 -233.625 1152.54 -248.222 1100.13C-264.053 1043.49 -264.875 983.264 -250.586 926.015C-235.886 867.327 -205.869 813.983 -163.516 771.843C-152.208 760.64 -139.975 749.026 -123.63 734.431C-115.2 726.825 -105.948 719.322 -97.0048 712.025C-72.6415 692.188 -47.4557 671.837 -31.4191 644.703C-3.45764 597.629 -3.45764 541.1 -6.64441 497.109C-7.05566 491.045 -7.56946 484.981 -8.0835 478.609C-11.4758 438.627 -15.2795 393.403 5.89709 357.327C49.6895 282.502 124.219 239.231 227.326 228.748C310.902 220.319 404.552 236.456 494.398 274.896C500.977 277.671 509.612 283.119 519.584 289.388C546.825 306.45 584.039 329.781 624.027 329.781C636.98 329.781 649.522 327.212 661.241 322.278C688.071 310.87 708.837 291.547 728.882 272.943C749.031 254.237 769.796 235.017 796.524 223.814C837.233 206.855 885.24 188.971 933.041 185.168C939.518 184.654 946.097 184.346 952.47 184.346L952.367 184.038Z" fill="url(#paint5_linear_657_17311)"/>
<path d="M11.962 1246.17C31.4939 1246.17 51.6425 1244.63 71.6882 1241.65C95.6404 1238.05 120.004 1230.86 148.171 1218.93C255.184 1173.71 327.555 1090.77 404.14 1002.99C446.391 954.58 489.977 904.629 542.611 856.322C573.039 828.365 600.383 800.614 626.7 773.788C664.016 735.759 699.276 699.889 741.424 664.943C790.973 623.831 848.746 601.116 904.566 579.121C930.574 568.843 957.507 558.256 982.693 546.128C993.281 540.989 1003.66 535.541 1013.64 529.888C1041.91 513.957 1068.22 488.776 1087.65 458.969C1108.21 427.518 1119.93 393.395 1121.37 360.299C1123.01 322.99 1112.32 269.852 1051.67 227.815C1007.88 197.597 961.311 185.571 908.061 191.122C859.128 196.158 811.738 215.172 767.843 235.009C739.984 247.549 719.116 268.619 698.968 289.072C679.23 309.012 658.876 329.568 632.354 341.593C620.943 346.732 608.813 349.405 596.169 349.405C556.077 349.405 518.453 323.709 491.005 304.9C481.753 298.528 473.735 293.081 467.464 289.997C379.057 246.726 287.977 225.759 205.327 229.665C155.161 232.029 110.855 243.026 73.7444 262.143C34.8864 282.186 3.63525 311.478 -18.9806 348.994C-42.1104 387.331 -37.0731 435.021 -32.7556 477.162V477.778C-32.036 484.356 -31.4189 490.318 -30.9049 496.176C-26.8958 540.886 -25.868 598.238 -54.2405 645.62C-70.6884 673.063 -96.7993 693.619 -122.088 713.558C-131.34 720.856 -140.9 728.359 -149.535 735.862C-162.488 747.065 -176.16 759.193 -188.907 771.938C-231.363 814.284 -259.839 868.655 -271.044 928.885C-282.146 988.19 -274.95 1049.76 -250.895 1102.28C-229.924 1148.12 -188.701 1187.79 -135.04 1213.79C-96.4907 1232.5 -53.8293 1243.19 -7.98096 1245.55C-1.40186 1245.86 5.28003 1246.07 11.8591 1246.07L11.962 1246.17ZM932.733 194.822C974.88 194.822 1013.02 206.95 1049.1 231.926C1108 272.627 1118.39 324.121 1116.74 360.197C1115.3 392.367 1103.89 425.668 1083.74 456.4C1064.73 485.487 1039.03 510.154 1011.37 525.777C1001.51 531.327 991.122 536.775 980.637 541.811C955.554 553.939 928.723 564.423 902.818 574.701C846.69 596.799 788.608 619.616 738.34 661.243C695.987 696.394 660.624 732.265 623.308 770.294C596.888 797.222 569.647 824.87 539.321 852.724C486.482 901.134 442.793 951.291 400.542 999.701C324.265 1087.07 252.203 1169.6 146.218 1214.41C118.359 1226.13 94.5098 1233.32 70.866 1236.82C44.3439 1240.83 18.0273 1242.16 -7.77515 1240.72C-52.9039 1238.36 -95.0518 1227.77 -132.985 1209.37C-185.618 1183.78 -226.017 1145.03 -246.474 1100.12C-270.118 1048.52 -277.109 987.984 -266.315 929.605C-255.213 870.3 -227.354 816.854 -185.515 775.124C-172.87 762.482 -159.198 750.457 -146.348 739.254C-137.816 731.854 -128.256 724.35 -119.107 717.156C-93.4069 697.011 -66.8848 676.146 -50.0258 647.881C-20.9336 599.266 -21.9614 540.989 -26.0734 495.56C-26.5874 489.598 -27.2045 483.637 -27.924 477.059V476.442C-32.3444 435.124 -37.1757 388.256 -14.8683 351.255C7.3363 314.459 37.8674 285.886 75.9031 266.152C112.397 247.24 156.086 236.551 205.533 234.187C287.258 230.384 377.721 251.249 465.306 294.108C471.268 296.986 479.081 302.434 488.23 308.601C516.191 327.718 554.535 354.03 596.169 354.03C609.43 354.03 622.28 351.255 634.307 345.807C661.549 333.474 682.314 312.506 702.36 292.258C722.303 272.113 742.863 251.351 769.796 239.223C813.383 219.592 860.362 200.783 908.575 195.747C916.696 194.925 924.714 194.513 932.527 194.513L932.733 194.822Z" fill="url(#paint6_linear_657_17311)"/>
<path d="M22.7239 1222.34C39.5829 1222.34 56.8529 1221.41 73.9175 1219.56C97.5613 1216.99 121.616 1211.44 147.316 1202.81C277.151 1158.71 355.998 1056.65 439.368 948.63C462.909 918.104 487.067 886.859 512.458 856.847C525.822 841.018 539.083 824.779 550.802 810.39L551.213 809.876C595.109 756.121 636.536 705.45 688.553 664.132C740.98 622.506 802.865 602.36 862.797 582.832C888.291 574.507 914.505 565.976 939.588 555.903C951.101 551.381 962.307 546.448 972.895 541.308C1037.86 510.063 1089.16 438.219 1094.81 370.383C1097.9 333.382 1089.16 280.553 1030.05 239.029C985.436 207.681 938.046 195.861 883.665 202.645C834.219 208.811 785.903 229.779 741.186 251.363C713.122 264.93 692.459 287.542 672.516 309.537C652.882 331.121 632.527 353.424 605.594 366.067C594.08 371.514 581.745 374.392 568.895 374.392C526.542 374.392 486.45 344.585 459.928 324.851C451.396 318.582 444.2 313.237 438.751 310.154C352.708 262.258 264.61 236.562 183.913 235.843H180.315C132.307 235.843 89.4402 244.579 52.741 261.744C13.7802 280.039 -17.3679 307.584 -39.7781 343.557C-64.1415 382.82 -58.0763 432.155 -52.6281 475.631V476.454C-51.7028 483.237 -50.9832 489.198 -50.2635 495.262C-45.2263 541.308 -43.2732 600.51 -72.7765 649.331C-89.944 677.802 -117.597 698.975 -144.324 719.325C-153.782 726.52 -163.342 733.818 -172.08 741.218C-185.547 752.524 -198.705 763.727 -210.733 775.752C-252.469 817.379 -279.711 873.703 -287.421 934.241C-295.336 996.321 -281.561 1056.45 -248.666 1103.52C-222.246 1141.24 -179.173 1173.62 -127.363 1194.59C-88.8131 1210.21 -46.3572 1219.36 -1.12561 1221.72C6.68713 1222.13 14.6025 1222.34 22.5181 1222.34H22.7239ZM912.655 205.625C954.185 205.625 991.81 217.856 1027.48 242.935C1084.64 283.122 1093.17 334.204 1090.19 369.972C1084.74 436.163 1034.57 506.466 971.044 536.992C960.559 542.028 949.457 546.859 937.943 551.381C912.963 561.351 886.852 569.882 861.564 578.104C801.015 597.838 738.616 618.086 685.572 660.329C633.247 701.955 591.613 752.832 547.513 806.792L547.101 807.306C535.382 821.695 522.121 837.935 508.757 853.66C483.263 883.878 459.105 915.124 435.77 945.341C352.606 1053.06 274.273 1154.5 145.774 1198.18C120.383 1206.82 96.739 1212.26 73.4037 1214.73C48.4235 1217.4 23.2375 1218.23 -0.7146 1216.89C-45.4321 1214.53 -87.3741 1205.48 -125.307 1190.06C-176.295 1169.4 -218.648 1137.64 -244.451 1100.64C-276.73 1054.6 -290.196 995.601 -282.384 934.755C-274.777 875.244 -248.049 820.051 -207.032 779.144C-195.107 767.221 -182.052 756.121 -168.688 744.918C-159.95 737.62 -150.493 730.426 -141.344 723.437C-113.999 702.572 -86.0376 681.194 -68.3562 651.901C-38.1333 601.847 -40.0865 541.617 -45.2264 494.749C-45.8433 488.685 -46.6656 482.62 -47.488 475.837V475.015C-52.9364 432.258 -58.8988 383.848 -35.3578 346.024C-13.4617 310.77 16.967 283.842 55.1055 266.061C91.0851 249.204 133.335 240.571 180.623 240.571H184.221C263.993 241.29 351.372 266.78 436.695 314.265C441.938 317.143 448.928 322.385 457.152 328.449C484.291 348.697 525.205 379.017 569.1 379.017C582.67 379.017 595.622 376.036 607.856 370.281C635.714 357.125 656.274 334.513 676.32 312.62C696.057 291.036 716.411 268.733 743.55 255.577C787.959 234.096 835.761 213.437 884.59 207.27C894.151 206.036 903.608 205.42 912.757 205.42L912.655 205.625Z" fill="url(#paint7_linear_657_17311)"/>
<path d="M35.1772 1198.71C48.7467 1198.71 62.6244 1198.3 76.3994 1197.37C169.432 1191.31 248.382 1155.44 317.669 1087.7C378.731 1027.99 425.197 951.416 470.12 877.414C521.416 792.928 569.732 713.169 635.832 663.218C691.24 621.283 754.667 604.632 821.795 586.851C846.775 580.273 872.166 573.593 896.838 565.576C910.099 561.259 921.818 557.045 932.612 552.625C965.919 539.058 998.095 514.391 1022.97 483.248C1048.47 451.489 1064.71 414.796 1068.82 380.158C1073.14 343.363 1066.25 291.047 1008.89 250.038C963.555 217.661 915.239 205.944 859.831 213.961C809.665 221.362 760.63 244.076 715.09 267.51C686.717 282.105 666.157 306.362 646.42 329.796C626.785 352.921 606.637 376.767 579.292 390.334C567.47 396.192 554.723 399.276 541.668 399.276C497.67 399.276 456.55 366.283 429.411 344.391C421.907 338.429 415.533 333.29 410.702 330.207C363.209 300.297 314.79 277.48 266.989 262.371C220.421 247.674 175.498 240.479 133.453 241.301C91.4083 242.021 53.4755 250.551 20.7855 266.585C-12.8298 283.133 -39.8662 307.184 -59.8092 338.121C-85.5089 378.103 -78.2101 429.082 -71.8365 474.1C-70.8085 481.295 -69.8834 487.873 -69.061 494.451C-63.0988 541.936 -60.2202 602.885 -90.7515 653.248C-108.741 682.952 -138.039 704.639 -166.309 725.606C-175.869 732.698 -185.327 739.687 -194.065 746.779C-206.915 757.16 -220.073 767.849 -231.997 779.669C-254.51 802.178 -273.117 830.957 -285.658 862.819C-298.097 894.373 -304.573 928.496 -304.162 961.386C-303.545 1018.33 -282.78 1069.2 -245.67 1104.66C-213.699 1135.29 -169.804 1159.96 -118.713 1176.2C-80.6772 1188.33 -39.2494 1195.62 4.44019 1197.89C14.5144 1198.4 24.8972 1198.71 35.3827 1198.71H35.1772ZM892.315 216.325C933.332 216.325 970.545 228.659 1005.91 253.943C1061.42 293.617 1068.1 344.185 1063.89 379.645C1059.88 413.46 1044.05 449.227 1019.07 480.267C994.6 510.793 963.246 534.844 930.659 548.103C919.968 552.42 908.352 556.634 895.296 560.848C870.727 568.865 845.439 575.545 820.972 581.918C752.919 599.802 689.081 616.658 632.953 659.209C566.237 709.675 517.613 789.844 466.111 874.741C421.393 948.538 375.031 1024.8 314.379 1084.11C245.915 1151.02 167.993 1186.48 76.0911 1192.34C51.8305 1193.88 27.4672 1194.08 4.44019 1192.85C-38.8383 1190.59 -79.8549 1183.29 -117.479 1171.37C-167.851 1155.33 -211.129 1130.97 -242.586 1100.86C-278.771 1066.33 -299.022 1016.68 -299.639 961.078C-300.05 928.804 -293.677 895.298 -281.444 864.258C-269.108 833.012 -250.912 804.747 -228.81 782.752C-217.091 771.035 -203.933 760.449 -191.289 750.171C-182.654 743.182 -173.196 736.192 -164.15 729.409C-135.161 707.928 -105.452 685.932 -86.948 655.406C-55.5942 603.81 -58.5756 541.833 -64.5378 493.526C-65.3602 486.948 -66.2853 480.37 -67.3134 473.381C-73.6869 428.98 -80.7799 378.925 -56.0054 340.485C-36.5764 310.267 -10.1571 286.833 22.6357 270.697C54.709 254.971 91.9224 246.543 133.248 245.926C174.881 245.207 219.187 252.299 265.241 266.791C312.632 281.797 360.639 304.409 407.824 334.112C412.449 336.99 418.72 342.129 426.122 347.988C453.877 370.291 495.717 403.901 541.462 403.901C555.34 403.901 568.704 400.715 581.245 394.548C609.412 380.57 629.972 356.313 649.915 332.776C669.447 309.651 689.698 285.805 717.146 271.622C762.377 248.29 811.001 225.781 860.447 218.586C871.344 216.942 882.138 216.223 892.418 216.223L892.315 216.325Z" fill="url(#paint8_linear_657_17311)"/>
<path d="M-66.1774 1510.53C-28.3473 1510.53 8.96863 1502.1 44.9484 1485.35C83.6007 1467.36 120.403 1437.87 154.121 1397.58C190.101 1354.72 217.137 1308.26 245.715 1259.03C336.075 1103.52 438.36 927.249 874.639 849.649C894.582 846.155 913.805 843.174 932.309 840.296C943.103 838.652 953.691 837.007 964.177 835.26C1161.55 803.192 1213.36 766.088 1235.57 750.26C1348.65 669.371 1416.08 597.835 1448.36 451.167C1477.97 316.729 1403.54 163.688 1278.95 102.739C1135.54 32.5391 987.924 64.1957 971.579 67.9986C894.274 86.088 860.864 82.3879 822.006 78.1739C808.539 76.735 794.559 75.1932 777.7 74.371C669.247 69.0264 555.551 98.7301 440.005 162.66C381.615 194.933 337.514 227.412 301.226 264.927C262.163 305.217 231.323 352.6 207.165 409.643C196.269 435.338 190.409 462.781 184.858 489.298L184.55 490.532C183.419 495.671 182.288 501.016 181.157 506.257C174.064 538.633 165.326 573.065 148.878 604.825C136.542 628.67 119.478 649.945 103.03 670.399L97.6842 677.08C81.2365 697.636 65.7139 715.109 50.2941 730.32C22.0243 758.277 -8.19861 784.28 -37.4963 809.462C-121.277 881.614 -207.937 956.233 -273.112 1092.83C-305.391 1160.56 -318.035 1229.32 -309.708 1291.81C-302.101 1348.75 -277.635 1399.43 -238.88 1438.48C-203.62 1474.04 -159.005 1497.58 -109.764 1506.52C-99.6897 1508.37 -89.3069 1509.5 -79.1298 1510.12C-74.8123 1510.33 -70.4949 1510.43 -66.1774 1510.43V1510.53ZM1074.07 62.4484C1130.92 62.4484 1204.42 71.5959 1276.89 107.158C1399.53 167.182 1472.83 317.86 1443.73 450.242C1411.76 595.369 1344.94 666.288 1232.89 746.457C1211 762.08 1159.8 798.773 963.56 830.635C953.075 832.382 942.486 833.924 931.692 835.671C913.086 838.549 893.862 841.529 873.919 845.024C435.482 923.035 332.477 1100.23 241.706 1256.66C213.23 1305.79 186.297 1352.04 150.626 1394.59C117.319 1434.27 81.1337 1463.36 43.098 1481.03C3.72595 1499.33 -37.4965 1507.65 -78.7189 1505.39C-88.7931 1504.88 -98.8673 1503.65 -108.736 1501.9C-156.949 1493.16 -200.741 1470.14 -235.281 1435.3C-273.214 1396.96 -297.269 1347.21 -304.671 1291.3C-312.895 1229.84 -300.456 1161.9 -268.486 1095.09C-203.722 959.317 -117.474 885.109 -34.1041 813.265C-4.8064 788.083 25.5195 761.977 53.8921 733.918C69.4148 718.603 85.0402 701.028 101.694 680.266L107.039 673.688C123.795 652.926 140.963 631.445 153.504 607.188C170.26 574.812 179.101 540.072 186.194 507.388C187.325 502.249 188.456 496.904 189.587 491.663L189.895 490.429C195.446 464.117 201.203 436.983 211.997 411.699C235.949 355.169 266.48 308.301 305.133 268.422C341.112 231.318 384.905 199.045 442.883 166.977C557.607 103.458 670.48 73.9599 778.008 79.3045C794.661 80.1267 808.539 81.6685 822.006 83.1074C861.172 87.4242 895.096 91.1243 973.12 72.8293C981.036 70.9792 1020.1 62.5512 1074.48 62.5512L1074.07 62.4484Z" fill="url(#paint9_linear_657_17311)"/>
<path d="M-82.9425 1583C-66.0835 1583 -49.2242 1581.25 -32.5708 1577.86C39.0801 1563.16 104.152 1518.04 155.654 1447.23C189.269 1401.08 213.735 1351.54 239.744 1299.22C333.599 1109.8 430.641 913.792 965.607 848.526C1010.63 843.078 1051.86 839.995 1091.84 837.014C1235.76 823.447 1476.52 800.63 1547.86 518.393C1568.32 437.401 1609.54 163.798 1280.07 40.7685C1139.23 -12.575 996.139 -4.04412 862.397 13.1203C714.161 32.1349 628.838 70.8834 504.348 145.194C450.07 177.673 406.175 214.88 362.28 265.859C322.702 311.7 292.171 364.426 268.836 427.02C263.079 442.335 257.528 458.163 252.079 473.374L251.874 473.991C228.847 538.743 205.1 605.654 165.009 661.875C116.591 729.813 54.397 773.598 -11.6 819.953C-56.5232 851.609 -102.885 884.294 -148.425 926.742C-200.133 974.947 -242.898 1028.91 -279.083 1091.71C-332.847 1184.83 -352.687 1278.97 -336.547 1363.87C-322.258 1439 -280.625 1502.32 -219.254 1542.2C-182.143 1566.35 -139.482 1580.22 -95.9979 1582.59C-91.6803 1582.79 -87.26 1582.9 -82.9425 1582.9V1583ZM1038.39 4.89784C1117.75 4.89784 1198.45 15.0732 1278.32 45.3936C1603.99 166.984 1563.28 437.298 1543.13 517.262C1512.6 637.927 1450.2 720.872 1352.23 770.823C1270.51 812.45 1178.61 824.064 1091.43 832.286C1051.44 835.267 1010.02 838.35 964.99 843.798C427.455 909.372 329.796 1106.51 235.426 1297.17C209.521 1349.38 185.157 1398.71 151.748 1444.55C100.965 1514.34 36.9214 1558.85 -33.4958 1573.24C-54.0557 1577.45 -75.0269 1578.99 -95.6895 1577.96C-138.351 1575.7 -180.19 1562.03 -216.581 1538.39C-276.719 1499.34 -317.632 1437.05 -331.716 1363.25C-347.65 1279.49 -328.015 1186.57 -274.868 1094.38C-238.888 1031.99 -196.432 978.441 -145.033 930.545C-99.6985 888.302 -53.542 855.72 -8.72168 824.269C57.5837 777.607 120.188 733.514 169.121 664.959C209.624 608.121 233.473 540.902 256.603 475.841L256.808 475.122C262.257 459.91 267.808 444.185 273.564 428.87C296.694 366.79 327.02 314.578 366.186 269.148C409.773 218.58 453.257 181.681 507.124 149.511C630.996 75.5085 715.909 36.9656 863.322 18.0538C920.376 10.7564 979.177 5.00062 1038.7 5.00062L1038.39 4.89784Z" fill="url(#paint10_linear_657_17311)"/>
<path d="M-322.861 1209.58C-314.021 1170.63 -298.601 1130.96 -277.116 1091.59C-201.661 953.658 -110.479 884.898 -22.1742 818.398C18.9454 787.358 57.9065 758.066 93.6805 722.812C111.362 705.339 127.399 686.941 142.51 666.488C161.219 641.306 174.892 619.414 185.788 597.419C200.489 567.509 211.282 535.442 219.815 507.896C221.768 501.524 223.721 495.049 225.674 488.779L226.291 486.826C232.973 464.934 239.861 442.425 248.29 420.635C272.037 359.891 302.671 308.912 342.043 264.922C378.331 224.323 423.048 187.939 482.877 150.423C593.078 81.2517 716.437 39.6253 839.693 30.2723C849.767 29.2444 862.411 29.45 878.242 29.7584C902.914 30.2723 934.165 30.7862 971.584 26.8805C1026.27 21.2275 1109.54 12.5939 1219.43 41.7838C1493.39 114.347 1523 322.582 1526.18 363.592C1534.41 459.795 1498.53 726.615 1237.22 804.831C1198.77 818.398 1108.62 828.265 1029.05 837.002C992.966 840.907 958.94 844.71 935.296 848.205C432.917 917.89 335.566 1104.75 241.3 1285.54C214.572 1336.72 189.386 1385.13 155.154 1430.05C121.23 1474.66 82.4755 1508.16 40.0194 1529.54C2.39502 1548.45 -37.0798 1558.11 -77.2743 1558.11C-81.5918 1558.11 -85.9093 1558.01 -90.3296 1557.81C-100.507 1557.29 -110.787 1556.06 -120.861 1554.31C-172.569 1545.06 -219.548 1519.88 -256.659 1481.54C-299.115 1437.65 -324.711 1380.51 -330.674 1316.37C-333.86 1281.94 -331.291 1245.97 -322.964 1209.48L-322.861 1209.58ZM-325.74 1316.06C-319.88 1379.07 -294.797 1435.19 -253.061 1478.25C-216.67 1515.87 -170.719 1540.54 -119.936 1549.58C-110.067 1551.33 -99.9928 1552.56 -90.0212 1553.08C-46.3317 1555.44 -3.05359 1545.99 37.8605 1525.33C79.5968 1504.15 117.838 1471.16 151.351 1427.17C185.274 1382.56 210.46 1334.36 237.085 1283.28C331.866 1101.46 429.833 913.471 934.679 843.477C958.323 839.88 992.452 836.18 1028.53 832.274C1107.79 823.64 1197.64 813.773 1235.67 800.309C1494.01 722.915 1529.47 459.178 1521.35 364.003C1518.27 323.61 1488.97 118.15 1218.2 46.5117C1109.13 17.6302 1026.38 26.161 972.098 31.814C934.371 35.7197 902.914 35.2058 878.14 34.6918C862.411 34.3835 849.973 34.1779 840.104 35.103C717.67 44.4561 595.031 85.7741 485.447 154.535C426.03 191.844 381.62 228.023 345.641 268.211C306.68 311.79 276.354 362.255 252.813 422.485C244.384 444.069 237.496 466.578 230.814 488.573L230.3 490.321C228.347 496.693 226.394 503.168 224.441 509.438C215.806 537.086 205.012 569.462 190.106 599.68C179.107 621.881 165.229 644.081 146.417 669.468C131.099 690.127 114.96 708.731 97.0728 726.409C61.0931 761.971 22.0294 791.367 -19.2958 822.407C-107.189 888.598 -197.96 956.947 -272.901 1094.06C-294.18 1133.01 -309.394 1172.27 -318.235 1210.82C-326.459 1246.79 -328.926 1282.25 -325.842 1316.17L-325.74 1316.06Z" fill="url(#paint11_linear_657_17311)"/>
<path d="M-275.093 1092.34C-204.984 955.742 -116.577 884.617 -31.1515 815.651C5.1366 786.461 39.3687 758.813 71.9559 726.643C88.5066 710.3 104.235 692.417 120.066 671.86C137.644 649.043 154.503 626.534 167.353 601.147C182.876 570.415 192.436 537.731 200.557 507.102C202.099 501.244 203.641 495.282 205.183 489.115C211.454 464.653 217.93 439.267 227.799 415.216C273.75 302.465 341.495 227.537 461.564 156.618C578.858 87.2411 705.095 50.651 816.94 53.3233C826.603 53.5288 835.341 53.94 843.565 54.2483C877.694 55.6872 904.628 56.7151 969.391 47.9787C1100.56 32.5615 1162.04 46.5397 1187.02 52.1927C1368.76 94.9496 1478.04 209.345 1488.42 368.039C1494.49 505.458 1439.49 627.664 1324.56 725.82C1276.25 766.83 1238.93 784.2 1194.42 799.103C1148.88 814.212 1086.07 826.34 1007.53 835.18C973.914 838.88 940.402 843.402 905.142 848.952C435.761 922.749 333.579 1108.47 243.425 1272.51C215.875 1322.67 189.866 1369.95 154.812 1413.73C120.991 1456.08 83.2637 1487.63 42.6581 1507.37C5.85608 1525.15 -32.4878 1534.19 -71.5514 1534.19C-75.8689 1534.19 -80.1864 1534.09 -84.6067 1533.89C-94.8866 1533.37 -105.27 1532.14 -115.344 1530.29C-165.818 1521.14 -211.667 1496.78 -247.749 1459.78C-288.252 1418.36 -313.232 1364.4 -319.914 1303.96C-327.315 1237.26 -311.793 1164.08 -274.888 1092.24L-275.093 1092.34ZM-315.288 1303.55C-308.708 1362.96 -284.14 1415.89 -244.459 1456.49C-208.994 1492.77 -164.173 1516.62 -114.624 1525.66C-104.653 1527.41 -94.5784 1528.64 -84.4012 1529.16C-41.9453 1531.42 0.304932 1522.58 40.3965 1503.15C80.3854 1483.73 117.496 1452.59 150.905 1410.86C185.651 1367.38 211.557 1320.2 239.107 1270.15C329.776 1105.29 432.575 918.329 904.319 844.224C939.682 838.674 973.297 834.152 1007.02 830.349C1085.14 821.612 1147.75 809.587 1192.88 794.478C1236.87 779.78 1273.68 762.616 1321.37 722.12C1435.07 624.992 1489.55 504.019 1483.59 368.245C1473.21 212.017 1365.37 99.0609 1185.99 56.9206C1169.85 53.2205 1136.23 45.6147 1080.41 45.6147C1051.12 45.6147 1014.83 47.5675 970.008 52.8094C904.833 61.6486 877.797 60.518 843.359 59.079C835.136 58.7707 826.5 58.3596 816.837 58.154C705.814 55.4817 580.605 91.8662 464.031 160.73C344.99 231.135 277.862 305.343 232.322 416.963C222.659 440.705 216.183 465.887 209.912 490.246C208.37 496.413 206.828 502.477 205.286 508.233C197.165 539.17 187.502 572.06 171.774 603.202C158.821 628.898 141.756 651.612 124.075 674.635C108.038 695.294 92.2074 713.384 75.554 729.932C42.7611 762.308 8.42615 789.956 -27.9647 819.248C-113.082 887.803 -200.975 958.62 -270.673 1094.29C-307.167 1165.31 -322.484 1237.57 -315.185 1303.35L-315.288 1303.55Z" fill="url(#paint12_linear_657_17311)"/>
<path d="M-271.169 1093.66C-210.517 954.594 -124.063 875.453 -40.4878 798.984L-39.9735 798.572C-17.3578 777.913 5.97766 756.535 28.4906 734.231C42.8824 719.945 57.7881 703.5 75.1611 682.532C78.1422 678.832 81.3291 675.235 84.5159 671.329L85.6467 669.993C101.786 650.876 118.542 631.142 130.467 608.53C147.737 575.743 155.755 539.564 161.923 505.338C162.849 500.199 163.671 495.06 164.596 489.818C169.428 461.245 174.465 431.644 186.595 404.098C210.958 348.905 241.798 303.27 280.759 264.83C317.15 228.959 360.942 198.433 418.715 168.729C518.739 117.339 630.07 90.1019 740.785 90.1019C757.746 89.8963 776.25 92.6714 795.782 95.4465C832.687 100.688 885.526 104.08 929.523 93.2881C964.886 84.6545 1035.2 67.5928 1119.6 73.8625C1249.33 88.7657 1321.6 148.79 1359.43 196.583C1414.12 265.652 1427.07 344.896 1421.01 395.979C1404.35 538.639 1314.3 667.526 1167.4 758.899C1087.94 808.337 922.225 835.676 920.58 835.985C896.216 840.404 871.031 844.927 844.303 850.374C441.537 931.468 339.149 1098.08 248.686 1245.16C218.874 1293.67 190.707 1339.41 153.494 1381.44C119.776 1419.37 84.1046 1446.92 47.1997 1463.26C12.1453 1478.78 -24.1426 1486.69 -60.6362 1486.69C-64.9539 1486.69 -69.374 1486.59 -73.6917 1486.38C-84.0743 1485.87 -94.3542 1484.64 -104.531 1482.79C-152.436 1474.05 -195.92 1451.44 -230.357 1417.21C-267.159 1380.62 -291.214 1333.03 -299.644 1279.69C-308.999 1220.69 -299.541 1158.1 -271.374 1093.66H-271.169ZM-294.607 1278.87C-286.28 1331.18 -262.842 1377.85 -226.656 1413.72C-193.041 1447.12 -150.38 1469.32 -103.401 1477.96C-93.532 1479.81 -83.3549 1480.94 -73.1777 1481.45C-33.189 1483.61 7.00537 1475.9 45.5549 1458.74C81.7402 1442.7 117 1415.57 150.204 1378.05C187.109 1336.43 215.173 1290.79 244.882 1242.48C335.757 1094.58 438.761 927.049 843.584 845.543C870.311 840.199 895.6 835.574 919.963 831.154C921.608 830.846 1086.39 803.609 1165.04 754.788C1310.7 664.237 1399.93 536.583 1416.38 395.465C1422.34 345.307 1409.49 267.502 1355.83 199.667C1302.38 132.139 1220.65 90.3075 1119.29 78.6932C1105.21 77.6654 1091.84 77.1515 1079.1 77.1515C1016.59 77.1515 959.849 90.8214 930.757 98.016C885.937 109.014 832.481 105.622 795.165 100.277C775.736 97.5021 757.232 95.0354 740.887 95.0354C630.995 95.0354 520.384 122.067 420.977 173.046C363.718 202.442 320.234 232.762 284.254 268.324C245.705 306.353 215.173 351.474 191.118 406.154C179.296 433.083 174.259 462.375 169.428 490.743C168.503 495.985 167.68 501.227 166.755 506.366C160.587 541.003 152.363 577.593 134.785 610.894C122.654 633.917 105.795 653.959 89.4503 673.179L88.3193 674.516C85.0298 678.318 81.9458 682.019 78.9646 685.719C61.4888 706.892 46.4803 723.337 31.9857 737.726C9.37 760.132 -13.9656 781.511 -36.5813 802.17L-37.0952 802.581C-120.362 878.742 -206.405 957.472 -266.646 1095.61C-294.401 1159.23 -303.756 1220.9 -294.504 1278.97L-294.607 1278.87Z" fill="url(#paint13_linear_657_17311)"/>
<path d="M-265.202 1095.83C-245.053 1025.22 -214.625 961.286 -172.169 900.542C-130.638 841.134 -80.3695 788.922 -36.6799 745.548C-21.5685 730.542 -7.27917 715.022 7.83228 698.577C14.0001 691.896 20.4764 685.318 26.7472 678.843C44.4286 660.856 62.7269 642.15 75.0629 619.744C95.5199 582.845 101.174 539.883 104.052 502.779C104.36 498.257 104.669 493.529 105.08 488.903V487.156C107.444 453.547 109.706 418.91 125.023 387.664C149.284 337.918 180.123 297.628 219.084 264.532C255.167 233.903 299.576 208.619 354.676 187.035C426.944 158.873 503.837 144.587 583.301 144.587C611.468 144.587 639.84 146.437 667.802 150.137C679.624 151.679 697.614 157.126 712.211 161.546C752.714 173.879 791.983 185.905 846.569 164.012C851.915 161.854 858.494 158.668 865.998 154.968C901.875 137.392 961.91 107.997 1054.84 111.08C1194.65 113.547 1279.15 198.238 1309.16 270.082C1337.64 343.057 1321.09 428.571 1262.7 510.899C1243.99 537.211 1179.95 614.091 1109.43 680.385C1042.61 743.287 928.808 801.975 804.936 837.229L753.536 852.44C453.466 940.627 352.62 1077.94 263.699 1199.12C228.542 1247.12 195.235 1292.34 152.059 1332.63C118.547 1363.88 86.679 1384.85 54.6056 1396.77C22.5323 1408.69 -10.1576 1414.76 -42.6421 1414.76C-47.1653 1414.76 -51.5856 1414.65 -56.1088 1414.45C-66.697 1413.93 -77.2854 1412.6 -87.6681 1410.75C-131.563 1402.63 -171.655 1382.79 -203.625 1353.29C-235.39 1323.9 -258.109 1285.87 -269.314 1243.21C-281.444 1197.07 -280.108 1147.53 -265.408 1096.03L-265.202 1095.83ZM-264.482 1241.88C-253.483 1283.61 -231.278 1320.92 -200.233 1349.7C-168.982 1378.58 -129.713 1398.11 -86.64 1406.02C-76.5658 1407.87 -66.183 1409.1 -55.6975 1409.62C-19.615 1411.57 17.2897 1405.61 53.0637 1392.25C84.5203 1380.53 115.874 1359.87 148.872 1329.04C191.74 1289.05 224.841 1243.93 259.998 1196.14C349.433 1074.34 450.69 936.31 752.405 847.712L803.805 832.501C926.958 797.452 1040.04 739.278 1106.34 676.787C1182.11 605.354 1244.71 528.063 1258.9 508.021C1316.36 427.029 1332.6 343.057 1304.74 271.727C1275.34 201.322 1192.28 118.275 1054.84 115.808C1050.32 115.602 1045.79 115.602 1041.37 115.602C957.386 115.602 901.978 142.737 868.26 159.182C860.653 162.882 854.074 166.171 848.522 168.329C792.394 190.838 752.405 178.71 710.977 166.068C696.585 161.751 678.698 156.304 667.288 154.865C639.532 151.267 611.262 149.417 583.404 149.417C504.557 149.417 428.177 163.601 356.526 191.558C301.94 212.833 257.942 237.912 222.271 268.232C183.721 300.917 153.396 340.693 129.443 389.822C114.64 420.246 112.379 454.472 110.117 487.567V489.315C109.706 493.94 109.398 498.668 108.986 503.19C106.108 540.808 100.351 584.387 79.3802 622.108C66.6332 645.131 48.1294 663.94 30.2423 682.235C23.9716 688.607 17.4954 695.185 11.4303 701.866C-3.68115 718.414 -17.9702 733.934 -33.1844 749.043C-76.7712 792.211 -126.835 844.321 -168.057 903.317C-210.205 963.65 -240.427 1027.07 -260.473 1097.16C-274.968 1147.83 -276.202 1196.55 -264.38 1241.88H-264.482Z" fill="url(#paint14_linear_657_17311)"/>
<path d="M-269.112 1094.36C-212.367 949.439 -127.25 867.42 -37.0948 780.673L-36.0668 779.748C-21.9833 766.181 -7.48889 752.202 6.80017 738.019C23.8649 721.163 39.5931 703.176 52.7513 687.861C56.9662 682.928 61.3866 677.892 65.7042 673.061L66.7322 671.93C83.1801 653.533 100.142 634.415 112.066 612.214C130.365 578.194 137.561 540.268 142.701 504.5C143.317 499.977 143.934 495.352 144.654 490.213V489.083C148.869 458.762 152.98 427.414 166.139 398.635C212.809 296.471 281.993 229.56 397.436 174.778C477.106 137.057 569.728 116.193 688.872 109.101C701.824 108.278 736.879 107.867 771.214 117.015C826.622 133.871 871.031 126.779 897.554 117.734C1048.26 66.0353 1139.85 89.7778 1169.87 97.4863C1171.2 97.7947 1303.82 134.59 1362.41 245.286C1395.82 308.393 1397.67 382.396 1367.86 465.135C1339.79 549.004 1205.03 739.56 1020.4 799.996C954.504 822.196 816.651 850.564 814.081 851.078C445.135 935.153 342.85 1092.1 252.695 1230.65C221.444 1278.65 191.941 1323.97 153.186 1365.19C119.262 1401.37 85.4415 1426.14 49.873 1441.14C15.7438 1455.53 -19.4136 1462.83 -54.5708 1462.83C-58.9911 1462.83 -63.3087 1462.73 -67.729 1462.52C-78.1117 1462.01 -88.4945 1460.78 -98.6716 1458.93C-145.24 1450.39 -187.593 1428.61 -221.105 1396.02C-256.159 1361.8 -279.701 1317.4 -289.055 1267.65C-299.335 1212.97 -292.653 1154.69 -269.112 1094.57V1094.36ZM-284.327 1266.52C-275.177 1315.34 -252.151 1358.82 -217.816 1392.32C-185.023 1424.29 -143.492 1445.67 -97.8491 1453.99C-87.8776 1455.84 -77.5979 1456.97 -67.5236 1457.59C-28.7683 1459.65 10.2955 1452.55 48.0227 1436.62C82.9744 1421.92 116.178 1397.46 149.691 1361.8C188.138 1320.89 217.538 1275.77 248.686 1227.98C339.355 1088.71 442.154 930.836 813.156 846.35C814.595 846.042 952.962 817.571 1018.96 795.37C1201.94 735.552 1335.58 546.743 1363.44 463.593C1392.74 382.19 1390.99 309.524 1358.3 247.65C1300.73 138.804 1170.18 102.625 1168.84 102.317C1153.52 98.4114 1122.27 90.2917 1075.19 90.2917C1030.58 90.2917 971.877 97.5891 899.301 122.462C872.059 131.815 826.725 139.01 769.98 121.845C736.365 112.904 702.03 113.417 689.283 114.137C570.755 121.126 478.75 141.888 399.595 179.3C285.283 233.466 216.716 299.76 170.662 400.794C157.812 428.956 153.7 459.893 149.691 489.905L149.485 491.549C148.869 496.175 148.252 500.8 147.635 505.322C142.495 541.604 135.094 579.941 116.487 614.681C104.357 637.396 87.1892 656.616 70.5358 675.322L69.5077 676.453C65.1901 681.283 60.8724 686.217 56.5549 691.15C43.2938 706.568 27.4628 724.554 10.2954 741.513C-4.09656 755.697 -18.5911 769.778 -32.6746 783.242L-33.7026 784.167C-123.446 870.606 -208.255 952.215 -264.589 1096.21C-287.822 1155.52 -294.401 1212.87 -284.327 1266.62V1266.52Z" fill="url(#paint15_linear_657_17311)"/>
<path d="M-267.154 1095.09C-213.699 938.55 -120.871 846.664 -22.6981 749.433L-14.8854 741.725C1.25415 725.793 16.2627 708.937 30.3462 693.109C35.7946 686.942 41.4485 680.878 46.9996 674.917C63.9614 656.827 81.54 638.018 93.5676 615.818C112.894 580.255 119.473 539.04 123.379 503.478C123.893 498.544 124.407 493.508 124.921 488.061C128.108 456.096 131.295 423.103 145.481 392.988C169.844 341.392 200.684 299.354 239.645 264.512C275.625 232.238 320.239 204.898 375.956 180.848C475.055 137.988 587.825 120.104 696.484 130.074C709.231 131.204 723.828 134.802 739.351 138.707C762.481 144.463 788.694 150.938 815.011 150.938C826.319 150.938 836.701 149.808 846.776 147.444C868.261 142.51 887.587 135.11 906.502 127.915C929.221 119.282 956.257 109.826 984.012 105.304C992.853 103.865 1038.8 96.7727 1073.65 100.164C1208.73 109.004 1276.58 166.561 1309.58 213.224C1358.41 282.19 1359.64 364.107 1344.63 417.656C1317.08 515.503 1270.51 567.51 1229.19 613.659C1186.83 661.247 1126.7 715.001 1085.27 740.902C1040.35 772.764 952.556 806.682 831.356 839.161C828.683 839.88 826.833 840.394 825.702 840.703C816.964 842.861 809.357 844.917 801.236 847.075C795.787 848.514 790.133 849.953 783.76 851.598C448.944 938.139 347.276 1085.32 257.429 1215.24C224.431 1263.03 193.18 1308.15 152.574 1348.75C118.753 1382.46 85.9606 1405.38 52.2424 1418.85C19.1412 1432 -14.7826 1438.68 -48.7063 1438.68C-53.1266 1438.68 -57.5471 1438.58 -61.9674 1438.38C-72.4529 1437.86 -83.0413 1436.63 -93.2184 1434.68C-138.45 1426.35 -179.672 1405.49 -212.362 1374.45C-245.772 1342.69 -268.799 1301.47 -279.079 1255.22C-290.284 1204.75 -286.275 1150.9 -267.257 1095.09H-267.154ZM-274.247 1254.19C-264.173 1299.42 -241.557 1339.81 -208.867 1370.95C-176.794 1401.48 -136.497 1421.83 -92.0874 1429.95C-82.116 1431.8 -71.8359 1433.03 -61.4532 1433.54C-24.0344 1435.6 14.001 1429.02 50.7002 1414.43C83.8015 1401.27 116.183 1378.66 149.387 1345.46C189.787 1305.17 220.833 1260.15 253.728 1212.57C343.986 1082.03 446.271 934.028 782.835 847.075C789.208 845.431 794.76 843.992 800.208 842.553C808.226 840.394 815.936 838.442 824.571 836.18C825.599 835.872 827.552 835.358 830.225 834.639C949.164 802.776 1038.8 768.139 1082.7 736.997C1123.82 711.198 1183.55 657.855 1225.69 610.576C1266.61 564.838 1312.87 513.242 1340.01 416.422C1354.81 363.901 1353.47 283.629 1305.67 216.102C1259.1 150.322 1178.82 111.882 1073.24 104.995C1066.77 104.379 1059.98 104.07 1053.09 104.07C1023.18 104.07 991.928 108.901 984.835 110.031C957.49 114.554 930.763 123.907 908.147 132.438C889.232 139.632 869.7 147.033 847.907 152.069C837.524 154.536 826.73 155.666 815.114 155.666C788.18 155.666 761.658 149.088 738.22 143.333C722.903 139.53 708.511 135.932 696.175 134.802C588.442 124.935 476.494 142.716 378.012 185.267C322.809 209.113 278.606 236.247 243.037 268.109C204.488 302.541 174.059 344.167 150.004 395.044C136.229 424.336 132.94 456.918 129.856 488.677C129.342 493.919 128.828 498.955 128.314 503.889C124.407 539.965 117.725 581.797 97.9878 618.079C85.652 640.793 67.8677 659.808 50.7002 678.103C45.149 683.961 39.4951 690.026 34.0468 696.193C19.9634 712.021 4.85205 728.877 -11.3901 745.014L-19.203 752.722C-117.068 849.542 -209.381 941.017 -262.528 1096.53C-281.34 1151.51 -285.247 1204.55 -274.247 1254.09V1254.19Z" fill="url(#paint16_linear_657_17311)"/>
</g>
<defs>
<linearGradient id="paint0_linear_657_17311" x1="1226.21" y1="-145.681" x2="-272.026" y2="1402.46" gradientUnits="userSpaceOnUse">
<stop stop-color="#AFB388"/>
<stop offset="0.31" stop-color="#41929E"/>
<stop offset="0.49" stop-color="#27758D"/>
<stop offset="0.68" stop-color="#115C7E"/>
<stop offset="0.86" stop-color="#044D76"/>
<stop offset="1" stop-color="#004873"/>
</linearGradient>
<linearGradient id="paint1_linear_657_17311" x1="1210.29" y1="-161.106" x2="-287.943" y2="1387.04" gradientUnits="userSpaceOnUse">
<stop stop-color="#AFB388"/>
<stop offset="0.31" stop-color="#41929E"/>
<stop offset="0.49" stop-color="#27758D"/>
<stop offset="0.68" stop-color="#115C7E"/>
<stop offset="0.86" stop-color="#044D76"/>
<stop offset="1" stop-color="#004873"/>
</linearGradient>
<linearGradient id="paint2_linear_657_17311" x1="1195.48" y1="-175.503" x2="-302.859" y2="1372.64" gradientUnits="userSpaceOnUse">
<stop stop-color="#AFB388"/>
<stop offset="0.31" stop-color="#41929E"/>
<stop offset="0.49" stop-color="#27758D"/>
<stop offset="0.68" stop-color="#115C7E"/>
<stop offset="0.86" stop-color="#044D76"/>
<stop offset="1" stop-color="#004873"/>
</linearGradient>
<linearGradient id="paint3_linear_657_17311" x1="1181.71" y1="-188.757" x2="-316.521" y2="1359.39" gradientUnits="userSpaceOnUse">
<stop stop-color="#AFB388"/>
<stop offset="0.31" stop-color="#41929E"/>
<stop offset="0.49" stop-color="#27758D"/>
<stop offset="0.68" stop-color="#115C7E"/>
<stop offset="0.86" stop-color="#044D76"/>
<stop offset="1" stop-color="#004873"/>
</linearGradient>
<linearGradient id="paint4_linear_657_17311" x1="1168.57" y1="-201.487" x2="-329.661" y2="1346.66" gradientUnits="userSpaceOnUse">
<stop stop-color="#AFB388"/>
<stop offset="0.31" stop-color="#41929E"/>
<stop offset="0.49" stop-color="#27758D"/>
<stop offset="0.68" stop-color="#115C7E"/>
<stop offset="0.86" stop-color="#044D76"/>
<stop offset="1" stop-color="#004873"/>
</linearGradient>
<linearGradient id="paint5_linear_657_17311" x1="1155.7" y1="-213.931" x2="-342.529" y2="1334.21" gradientUnits="userSpaceOnUse">
<stop stop-color="#AFB388"/>
<stop offset="0.31" stop-color="#41929E"/>
<stop offset="0.49" stop-color="#27758D"/>
<stop offset="0.68" stop-color="#115C7E"/>
<stop offset="0.86" stop-color="#044D76"/>
<stop offset="1" stop-color="#004873"/>
</linearGradient>
<linearGradient id="paint6_linear_657_17311" x1="1143.16" y1="-226.067" x2="-355.071" y2="1322.08" gradientUnits="userSpaceOnUse">
<stop stop-color="#AFB388"/>
<stop offset="0.31" stop-color="#41929E"/>
<stop offset="0.49" stop-color="#27758D"/>
<stop offset="0.68" stop-color="#115C7E"/>
<stop offset="0.86" stop-color="#044D76"/>
<stop offset="1" stop-color="#004873"/>
</linearGradient>
<linearGradient id="paint7_linear_657_17311" x1="1130.79" y1="-237.978" x2="-367.439" y2="1310.17" gradientUnits="userSpaceOnUse">
<stop stop-color="#AFB388"/>
<stop offset="0.31" stop-color="#41929E"/>
<stop offset="0.49" stop-color="#27758D"/>
<stop offset="0.68" stop-color="#115C7E"/>
<stop offset="0.86" stop-color="#044D76"/>
<stop offset="1" stop-color="#004873"/>
</linearGradient>
<linearGradient id="paint8_linear_657_17311" x1="1118.78" y1="-249.684" x2="-379.554" y2="1298.46" gradientUnits="userSpaceOnUse">
<stop stop-color="#AFB388"/>
<stop offset="0.31" stop-color="#41929E"/>
<stop offset="0.49" stop-color="#27758D"/>
<stop offset="0.68" stop-color="#115C7E"/>
<stop offset="0.86" stop-color="#044D76"/>
<stop offset="1" stop-color="#004873"/>
</linearGradient>
<linearGradient id="paint9_linear_657_17311" x1="1321.61" y1="-53.386" x2="-176.623" y2="1494.76" gradientUnits="userSpaceOnUse">
<stop stop-color="#AFB388"/>
<stop offset="0.31" stop-color="#41929E"/>
<stop offset="0.49" stop-color="#27758D"/>
<stop offset="0.68" stop-color="#115C7E"/>
<stop offset="0.86" stop-color="#044D76"/>
<stop offset="1" stop-color="#004873"/>
</linearGradient>
<linearGradient id="paint10_linear_657_17311" x1="1375.78" y1="-0.96066" x2="-122.457" y2="1547.18" gradientUnits="userSpaceOnUse">
<stop stop-color="#AFB388"/>
<stop offset="0.31" stop-color="#41929E"/>
<stop offset="0.49" stop-color="#27758D"/>
<stop offset="0.68" stop-color="#115C7E"/>
<stop offset="0.86" stop-color="#044D76"/>
<stop offset="1" stop-color="#004873"/>
</linearGradient>
<linearGradient id="paint11_linear_657_17311" x1="1359.34" y1="-16.8015" x2="-138.891" y2="1531.34" gradientUnits="userSpaceOnUse">
<stop stop-color="#AFB388"/>
<stop offset="0.31" stop-color="#41929E"/>
<stop offset="0.49" stop-color="#27758D"/>
<stop offset="0.68" stop-color="#115C7E"/>
<stop offset="0.86" stop-color="#044D76"/>
<stop offset="1" stop-color="#004873"/>
</linearGradient>
<linearGradient id="paint12_linear_657_17311" x1="1339.36" y1="-36.0963" x2="-158.868" y2="1512.05" gradientUnits="userSpaceOnUse">
<stop stop-color="#AFB388"/>
<stop offset="0.31" stop-color="#41929E"/>
<stop offset="0.49" stop-color="#27758D"/>
<stop offset="0.68" stop-color="#115C7E"/>
<stop offset="0.86" stop-color="#044D76"/>
<stop offset="1" stop-color="#004873"/>
</linearGradient>
<linearGradient id="paint13_linear_657_17311" x1="1302.79" y1="-71.5729" x2="-195.446" y2="1476.57" gradientUnits="userSpaceOnUse">
<stop stop-color="#AFB388"/>
<stop offset="0.31" stop-color="#41929E"/>
<stop offset="0.49" stop-color="#27758D"/>
<stop offset="0.68" stop-color="#115C7E"/>
<stop offset="0.86" stop-color="#044D76"/>
<stop offset="1" stop-color="#004873"/>
</linearGradient>
<linearGradient id="paint14_linear_657_17311" x1="1244.92" y1="-127.578" x2="-253.317" y2="1420.57" gradientUnits="userSpaceOnUse">
<stop stop-color="#AFB388"/>
<stop offset="0.31" stop-color="#41929E"/>
<stop offset="0.49" stop-color="#27758D"/>
<stop offset="0.68" stop-color="#115C7E"/>
<stop offset="0.86" stop-color="#044D76"/>
<stop offset="1" stop-color="#004873"/>
</linearGradient>
<linearGradient id="paint15_linear_657_17311" x1="1282.95" y1="-90.8087" x2="-215.286" y2="1457.34" gradientUnits="userSpaceOnUse">
<stop stop-color="#AFB388"/>
<stop offset="0.31" stop-color="#41929E"/>
<stop offset="0.49" stop-color="#27758D"/>
<stop offset="0.68" stop-color="#115C7E"/>
<stop offset="0.86" stop-color="#044D76"/>
<stop offset="1" stop-color="#004873"/>
</linearGradient>
<linearGradient id="paint16_linear_657_17311" x1="1264.55" y1="-108.584" x2="-233.682" y2="1439.56" gradientUnits="userSpaceOnUse">
<stop stop-color="#AFB388"/>
<stop offset="0.31" stop-color="#41929E"/>
<stop offset="0.49" stop-color="#27758D"/>
<stop offset="0.68" stop-color="#115C7E"/>
<stop offset="0.86" stop-color="#044D76"/>
<stop offset="1" stop-color="#004873"/>
</linearGradient>
</defs>
</svg>
