<svg width="387" height="880" viewBox="0 0 387 880" fill="none" xmlns="http://www.w3.org/2000/svg">
<g opacity="0.05">
<path d="M-490.029 772.434C-473.041 772.434 -455.827 769.41 -438.838 763.476C-421.906 757.542 -405.426 747.271 -386.97 731.124C-361.459 708.815 -341.762 683.253 -320.935 656.207C-272.849 593.843 -218.441 523.206 -73.0516 473.908L-71.8099 473.451C2.74716 448.175 51.9627 431.457 110.886 372.573C122.456 361.047 134.421 350.092 145.991 339.48C170.712 316.885 193.965 295.602 211.067 270.953C214.397 266.103 217.501 261.139 220.323 256.461C235.166 231.869 241.431 202.142 237.537 174.982C232.627 140.862 212.139 111.591 178.275 90.2514C155.135 75.7016 129.906 68.6265 101.122 68.6265C78.2072 68.6265 55.9135 73.134 39.0944 77.071C24.42 80.4945 11.9468 87.2273 -0.131287 93.6748C-10.8549 99.4377 -21.9171 105.372 -34.7289 109.137C-40.2601 110.792 -46.2427 111.648 -52.4511 111.648C-68.9315 111.648 -84.6218 105.999 -98.506 101.092C-106.464 98.2394 -113.293 95.786 -119.219 94.7589C-139.086 91.2784 -159.235 89.5667 -179.215 89.5667C-216.691 89.5667 -252.982 95.6148 -287.184 107.597C-348.647 129.108 -387.422 161.459 -412.876 212.526C-421.85 230.499 -422.584 250.698 -423.261 270.212V271.067C-423.374 273.806 -423.487 276.431 -423.6 278.998C-424.616 300.452 -427.268 325.215 -439.064 346.498C-446.119 359.165 -456.617 369.549 -466.776 379.591C-470.388 383.129 -474.452 387.18 -478.177 391.174L-481.62 394.883C-488.618 402.357 -495.222 409.432 -502.164 416.393C-532.19 446.52 -554.371 473.908 -571.98 502.722C-592.185 535.815 -606.183 570.621 -614.649 609.192C-620.405 635.381 -619.672 660.487 -612.56 683.766C-605.9 705.505 -593.596 724.905 -577.003 739.854C-555.274 759.425 -527.788 770.665 -497.479 772.263C-494.996 772.377 -492.456 772.491 -489.916 772.491L-490.029 772.434ZM101.065 71.3652C129.342 71.3652 154.119 78.3263 176.808 92.5907C209.994 113.474 230.087 142.117 234.828 175.439C238.666 202.028 232.514 231.07 217.952 255.148C215.13 259.77 212.139 264.734 208.809 269.527C191.934 293.948 168.737 315.116 144.242 337.54C132.559 348.209 120.594 359.165 108.967 370.747C50.4953 429.174 1.50546 445.835 -72.713 470.998L-73.9547 471.454C-220.077 521.037 -274.824 592.017 -323.08 654.61C-343.85 681.598 -363.491 707.046 -388.776 729.184C-406.95 745.103 -423.148 755.203 -439.741 761.022C-458.931 767.755 -478.459 770.665 -497.479 769.638C-527.167 768.04 -554.089 757.085 -575.366 737.914C-591.621 723.25 -603.643 704.307 -610.19 683.024C-617.188 660.201 -617.866 635.552 -612.222 609.819C-603.812 571.591 -589.984 537.014 -569.892 504.205C-552.395 475.562 -530.327 448.289 -500.471 418.333C-493.472 411.315 -486.869 404.24 -479.87 396.766L-476.427 393.057C-472.759 389.12 -468.695 385.126 -465.083 381.588C-454.754 371.432 -444.087 360.876 -436.863 347.867C-424.785 326.071 -422.076 300.909 -421.06 279.17C-420.947 276.602 -420.834 273.92 -420.721 271.239V270.383C-419.987 251.154 -419.254 231.298 -410.562 213.838C-385.446 163.399 -347.18 131.447 -286.394 110.222C-252.474 98.3536 -216.465 92.3625 -179.271 92.3625C-159.461 92.3625 -139.425 94.1313 -119.727 97.5548C-114.027 98.5247 -107.254 100.978 -99.4655 103.774C-85.412 108.795 -69.4394 114.501 -52.5075 114.501C-46.0733 114.501 -39.8649 113.645 -34.0516 111.933C-21.014 108.053 -9.83896 102.062 0.997482 96.2424C12.9063 89.852 25.2102 83.2333 39.5459 79.8668C56.2521 75.9299 78.3201 71.4794 101.009 71.4794L101.065 71.3652Z" fill="url(#paint0_linear_724_27381)"/>
<path d="M-613.624 609.646C-607.98 571.816 -596.805 537.639 -579.421 505.059C-563.167 474.533 -541.776 446.232 -514.177 418.502C-508.758 413.082 -503.227 407.319 -497.866 401.727L-490.528 394.139C-486.578 390.087 -482.401 386.093 -478.224 382.099C-467.557 372 -456.495 361.502 -449.214 348.549C-436.741 326.354 -434.596 300.678 -434.201 278.483C-434.145 275.516 -434.089 272.548 -434.089 269.182C-433.863 248.927 -433.637 227.986 -424.155 209.5C-411.005 183.824 -394.129 163.397 -372.625 147.021C-352.646 131.787 -328.546 120.033 -298.915 111.018C-270.187 102.288 -239.766 97.8947 -208.442 97.8947C-184.06 97.8947 -159.339 100.633 -134.957 105.94C-129.426 107.138 -122.992 109.82 -115.542 112.901C-101.15 118.835 -84.7821 125.568 -67.5115 125.568C-61.1903 125.568 -55.0948 124.598 -49.4508 122.772C-36.3568 118.493 -25.1252 111.646 -14.2887 104.97C-2.43633 97.7235 9.75468 90.1919 24.429 86.1979C44.1266 80.7774 74.7734 75.0716 100.51 75.471C123.368 75.8704 144.928 82.7173 166.432 96.5253C182.122 106.567 194.765 118.493 203.908 131.844C212.261 143.94 217.792 157.349 220.388 171.613C225.976 202.31 217.623 236.488 197.982 263.02C194.765 267.413 191.265 272.035 187.427 276.6C171.003 296.285 150.459 313.231 128.617 331.261C113.152 344.042 97.1236 357.336 81.8284 372.228C25.5014 427.175 -20.5535 447.488 -89.6924 474.362C-215.384 523.317 -268.381 588.192 -315.113 645.478C-337.915 673.379 -359.419 699.74 -387.356 722.221C-405.586 736.885 -421.502 746.128 -437.588 751.263C-453.899 756.512 -470.266 759.194 -486.182 759.194C-488.722 759.194 -491.262 759.137 -493.802 758.966C-499.897 758.624 -506.049 757.882 -512.088 756.798C-534.664 752.575 -555.491 742.647 -572.31 728.155C-605.553 699.455 -620.622 656.319 -613.68 609.703L-613.624 609.646ZM-570.504 726.044C-554.023 740.251 -533.592 749.951 -511.524 754.059C-505.598 755.143 -499.559 755.885 -493.576 756.17C-475.515 757.14 -456.89 754.572 -438.265 748.581C-422.518 743.503 -406.828 734.431 -388.88 719.995C-361.168 697.686 -339.721 671.439 -317.032 643.652C-270.074 586.138 -216.851 520.921 -90.4825 471.737C-21.6259 444.92 24.2033 424.722 80.1352 370.174C95.4868 355.225 111.516 341.931 127.15 329.036C148.766 311.177 169.197 294.23 185.508 274.774C189.233 270.266 192.733 265.645 195.95 261.308C215.139 235.347 223.323 201.968 217.848 171.956C215.309 158.091 209.947 145.024 201.82 133.213C192.846 120.147 180.485 108.507 165.077 98.6364C143.969 85.1138 121.562 78.3809 99.2119 77.9815C74.3783 77.9815 44.0701 83.5161 25.2192 88.6513C10.9399 92.5883 -1.13821 100.006 -12.8777 107.195C-23.827 113.928 -35.1151 120.889 -48.5477 125.225C-54.5304 127.165 -60.8517 128.135 -67.4551 128.135C-85.2337 128.135 -101.827 121.288 -116.501 115.24C-123.838 112.216 -130.16 109.592 -135.465 108.45C-159.678 103.144 -184.229 100.462 -208.442 100.462C-239.484 100.462 -269.623 104.856 -298.125 113.471C-327.474 122.372 -351.348 134.012 -371.045 149.018C-392.21 165.166 -408.803 185.307 -421.785 210.641C-430.984 228.557 -431.21 249.155 -431.379 269.353C-431.379 272.491 -431.436 275.458 -431.492 278.425C-431.887 300.963 -434.088 327.039 -446.844 349.748C-454.35 363.099 -465.525 373.712 -476.475 384.096C-480.538 387.919 -484.659 391.856 -488.553 395.907L-495.89 403.496C-501.252 409.088 -506.783 414.851 -512.201 420.271C-539.631 447.83 -560.852 475.959 -576.994 506.2C-594.208 538.495 -605.271 572.387 -610.858 609.931C-617.687 655.634 -602.9 697.914 -570.391 725.93L-570.504 726.044Z" fill="url(#paint1_linear_724_27381)"/>
<path d="M-612.558 610.096C-607.591 536.948 -578.525 473.158 -526.149 420.55C-522.537 416.899 -518.868 413.19 -515.143 409.424C-511.136 405.373 -507.072 401.208 -502.952 397.043C-498.775 392.877 -494.317 388.769 -489.858 384.718C-478.626 374.505 -467 363.892 -459.38 350.54C-446.23 327.432 -444.706 299.588 -444.819 277.906C-444.819 274.882 -444.819 271.915 -444.932 268.434C-445.214 248.293 -445.609 225.47 -435.506 206.413C-410.391 158.941 -370.77 129.727 -310.661 114.378C-260.712 101.598 -204.893 102.51 -150.711 117.003C-145.688 118.372 -139.649 121.168 -132.65 124.421C-118.484 131.039 -100.931 139.256 -82.4751 139.256C-76.0974 139.256 -69.9454 138.229 -64.245 136.232C-50.8123 131.496 -39.5244 123.679 -28.6315 116.147C-17.0049 108.102 -4.98317 99.7717 9.74763 95.15C30.969 88.5313 56.8185 81.7414 82.4986 81.5132C108.743 81.5132 132.73 88.4172 154.516 102.625C183.639 121.625 201.135 147.529 205.086 177.541C210.053 215.314 193.121 249.719 175.624 269.404C172.182 273.227 168.118 277.735 163.828 282.071C148.025 297.819 129.626 311.399 110.041 325.72C90.9646 339.757 71.2671 354.249 52.8677 371.709C-0.185776 422.148 -42.2899 445.998 -106.236 474.755C-211.948 522.341 -262.631 581.282 -307.331 633.262C-332.617 662.646 -356.491 690.433 -387.589 713.257C-405.48 726.38 -420.945 734.596 -436.184 739.047C-451.648 743.554 -467.226 745.837 -482.464 745.837C-485.117 745.837 -487.826 745.78 -490.422 745.608C-519.489 744.068 -546.185 733.969 -567.576 716.509C-599.013 690.833 -615.38 652.148 -612.558 610.21V610.096ZM-565.882 714.284C-544.887 731.401 -518.755 741.272 -490.253 742.812C-472.87 743.725 -454.809 741.557 -436.861 736.308C-421.904 731.971 -406.722 723.869 -389.113 710.974C-358.24 688.322 -334.479 660.649 -309.307 631.379C-264.437 579.171 -213.528 520.002 -107.252 472.188C-43.6444 443.545 -1.6532 419.809 51.1181 369.655C69.6303 352.024 89.4407 337.474 108.574 323.438C127.989 309.174 146.389 295.651 162.022 280.074C166.312 275.795 170.319 271.344 173.762 267.521C190.863 248.35 207.456 214.686 202.603 177.827C198.765 148.613 181.663 123.394 153.218 104.793C131.883 90.8707 108.348 84.1378 82.6679 84.1378C57.3264 84.3661 31.7027 91.0989 10.7071 97.6605C-3.62863 102.168 -15.481 110.384 -26.9947 118.315C-38.0005 125.961 -49.4013 133.835 -63.1726 138.742C-69.1553 140.853 -75.5894 141.937 -82.3058 141.937C-101.326 141.937 -119.217 133.607 -133.61 126.874C-140.495 123.679 -146.421 120.883 -151.275 119.571C-205.062 105.192 -260.373 104.279 -309.928 116.946C-369.19 132.123 -408.359 160.938 -433.079 207.668C-442.844 226.155 -442.505 248.578 -442.223 268.377C-442.223 271.858 -442.11 274.882 -442.11 277.906C-441.997 299.93 -443.577 328.231 -457.01 351.91C-464.799 365.604 -476.594 376.331 -488.108 386.829C-492.398 390.766 -496.856 394.817 -500.977 398.925C-505.097 403.034 -509.217 407.199 -513.168 411.25C-516.893 415.016 -520.561 418.782 -524.173 422.376C-576.098 474.527 -604.882 537.69 -609.793 610.21C-612.558 651.235 -596.529 689.121 -565.77 714.227L-565.882 714.284Z" fill="url(#paint2_linear_724_27381)"/>
<path d="M-478.113 732.317C-464.003 732.317 -449.442 730.377 -434.824 726.611C-420.093 722.788 -405.588 715.827 -387.866 704.13C-352.478 680.736 -325.556 650.724 -297.054 618.943C-255.458 572.498 -208.274 519.948 -122.711 474.986C-63.9576 444.118 -25.5785 416.958 23.9193 371.141C44.9713 351.627 68.0552 336.792 90.349 322.414C108.24 310.888 125.116 300.047 140.242 287.38C144.136 284.128 148.313 280.419 153.336 275.626C178.339 252.119 192.787 215.887 190.078 183.307C187.595 153.352 171.227 127.504 142.782 108.618C121.504 94.468 98.7585 87.6211 73.2477 87.6211C46.0437 87.6211 19.6862 95.4951 -4.7522 104.054C-19.5959 109.246 -31.4482 118.432 -42.9619 127.333C-53.8548 135.778 -65.0863 144.451 -78.8577 149.7C-84.7274 151.925 -90.9922 153.066 -97.5392 153.066C-116.729 153.066 -134.959 143.595 -149.577 135.949C-156.124 132.526 -161.824 129.559 -166.396 128.132C-199.695 117.519 -233.221 112.156 -266.069 112.156C-285.371 112.156 -304.278 114.039 -322.339 117.805C-351.349 123.796 -375.28 133.267 -395.429 146.676C-416.989 161.054 -433.752 179.598 -446.733 203.391C-457.456 223.076 -456.553 246.812 -455.707 267.752C-455.594 271.29 -455.424 274.371 -455.368 277.452C-454.691 299.933 -455.763 328.747 -469.478 352.654C-477.38 366.405 -489.627 377.132 -501.423 387.517C-505.825 391.34 -510.736 395.676 -515.194 400.012C-523.152 407.715 -530.884 415.418 -537.996 422.607C-562.999 447.713 -581.963 476.926 -594.436 509.392C-606.627 541.059 -612.271 575.123 -611.368 610.555C-610.408 647.643 -592.743 681.935 -562.942 704.644C-546.575 717.139 -526.821 725.755 -505.769 729.692C-499.391 730.89 -492.844 731.632 -486.353 731.974C-483.588 732.146 -480.822 732.203 -478.057 732.203L-478.113 732.317ZM73.1913 90.3028C98.1377 90.3028 120.431 97.0356 141.258 110.901C169.026 129.33 184.942 154.493 187.369 183.592C190.022 215.373 175.912 250.749 151.473 273.686C146.45 278.422 142.33 282.131 138.492 285.326C123.479 297.879 106.717 308.663 88.938 320.074C66.4749 334.51 43.3345 349.459 22.0567 369.087C-27.2717 414.733 -65.5379 441.836 -124.01 472.533C-210.024 517.722 -257.321 570.501 -299.086 617.06C-327.475 648.727 -354.284 678.625 -389.39 701.791C-406.886 713.316 -421.109 720.163 -435.558 723.929C-452.772 728.38 -469.817 730.206 -486.297 729.35C-492.731 729.007 -499.165 728.266 -505.374 727.067C-526.031 723.187 -545.446 714.743 -561.475 702.475C-590.598 680.28 -607.869 646.73 -608.828 610.441C-609.787 575.294 -604.143 541.63 -592.065 510.305C-579.761 478.181 -560.967 449.31 -536.246 424.49C-529.078 417.301 -521.403 409.598 -513.445 401.895C-509.042 397.616 -504.132 393.28 -499.786 389.514C-487.764 378.958 -475.348 368.06 -467.277 353.967C-453.167 329.432 -452.151 300.161 -452.772 277.338C-452.828 274.257 -452.998 271.176 -453.11 267.924C-453.957 247.04 -454.86 223.647 -444.475 204.647C-431.72 181.253 -415.239 162.994 -394.018 148.901C-374.151 135.664 -350.503 126.306 -321.831 120.372C-303.94 116.663 -285.202 114.781 -266.069 114.781C-233.503 114.781 -200.26 120.087 -167.186 130.643C-162.84 132.012 -157.253 134.922 -150.818 138.288C-135.918 146.048 -117.406 155.748 -97.5392 155.748C-90.71 155.748 -84.1066 154.55 -77.8982 152.21C-63.7883 146.847 -52.3874 138.003 -41.3252 129.444C-30.0372 120.715 -18.2977 111.642 -3.84915 106.564C20.3636 98.1197 46.4388 90.3028 73.3041 90.3028H73.1913Z" fill="url(#paint3_linear_724_27381)"/>
<path d="M-473.758 718.916C-460.607 718.916 -447.062 717.376 -433.516 714.294C-419.406 711.099 -405.465 705.165 -388.195 695.123C-346.994 670.988 -316.29 637.552 -283.837 602.119C-246.813 561.722 -204.878 516.019 -139.295 475.28C-86.1849 442.3 -50.1763 411.09 -5.13727 370.579C18.2853 349.524 44.4734 334.975 69.8149 320.881C86.3518 311.695 101.986 303.022 116.547 292.809C121.062 289.671 125.747 286.133 130.939 281.968C143.751 271.812 155.152 257.49 162.997 241.742C171.519 224.625 175.696 206.423 175.019 189.135C173.89 159.237 158.595 133.504 130.826 114.732C110 100.638 87.7627 93.7915 62.9292 93.7915C34.2578 93.7915 6.37642 103.035 -19.473 112.963C-34.4296 118.726 -46.1691 128.768 -57.5135 138.468C-68.4064 147.768 -79.6379 157.411 -93.6914 163.117C-99.7305 165.57 -106.165 166.825 -112.825 166.825C-132.804 166.825 -151.599 155.984 -166.668 147.255C-172.764 143.717 -178.013 140.693 -182.189 139.152C-219.778 125.116 -257.367 118.041 -293.997 118.041C-307.655 118.041 -321.144 119.068 -334.125 121.065C-392.766 130.194 -433.347 156.099 -458.124 200.204C-469.468 220.46 -467.944 245.109 -466.646 266.848C-466.42 270.328 -466.251 273.58 -466.082 276.833C-464.896 300.055 -465.404 329.896 -479.74 354.602C-487.98 368.81 -500.849 379.708 -513.322 390.321C-518.176 394.429 -523.086 398.594 -527.658 402.873C-535.729 410.405 -543.009 417.537 -550.064 424.612C-598.095 472.997 -620.106 540.896 -610.342 611.02C-605.883 643.315 -587.032 673.213 -558.756 693.069C-537.083 708.246 -510.782 717.033 -482.732 718.574C-479.853 718.745 -476.862 718.802 -473.814 718.802L-473.758 718.916ZM63.0421 96.5303C87.3677 96.5303 109.097 103.206 129.472 117.014C156.506 135.272 171.407 160.264 172.479 189.306C173.1 206.138 169.036 223.883 160.74 240.601C153.064 256.064 141.945 269.986 129.415 279.971C124.223 284.079 119.595 287.56 115.136 290.698C100.687 300.854 85.11 309.47 68.6296 318.656C43.1752 332.806 16.8178 347.413 -6.83047 368.696C-51.813 409.093 -87.7088 440.246 -140.649 473.111C-206.515 514.079 -248.619 559.896 -285.7 600.35C-318.096 635.669 -348.63 668.991 -389.493 692.898C-406.481 702.826 -420.253 708.703 -434.024 711.784C-447.4 714.808 -460.72 716.349 -473.701 716.349C-476.636 716.349 -479.571 716.292 -482.449 716.12C-510.048 714.637 -535.841 706.021 -557.119 691.129C-584.831 671.729 -603.231 642.516 -607.576 610.906C-617.171 541.638 -595.498 474.538 -548.032 426.781C-541.034 419.705 -533.697 412.63 -525.682 405.099C-521.111 400.819 -516.257 396.711 -511.516 392.66C-498.817 381.876 -485.723 370.75 -477.257 356.2C-462.526 330.866 -462.018 300.512 -463.203 276.947C-463.372 273.695 -463.542 270.442 -463.768 266.962C-465.066 245.565 -466.59 221.316 -455.64 201.802C-431.258 158.438 -391.355 132.933 -333.561 123.975C-320.749 121.978 -307.373 120.951 -293.827 120.951C-257.536 120.951 -220.23 128.026 -182.923 141.891C-178.972 143.375 -173.78 146.342 -167.853 149.765C-152.445 158.666 -133.312 169.678 -112.655 169.678C-105.657 169.678 -98.8839 168.366 -92.5062 165.798C-78.114 159.921 -66.6567 150.165 -55.6509 140.75C-44.4758 131.164 -32.9057 121.293 -18.4007 115.702C7.22304 105.831 34.8222 96.7015 63.0421 96.7015V96.5303Z" fill="url(#paint4_linear_724_27381)"/>
<path d="M-469.14 705.618C-457.118 705.618 -444.701 704.42 -432.171 702.024C-418.569 699.456 -405.08 694.549 -388.544 686.104C-339.667 661.284 -304.505 622.713 -267.311 581.803C-235.309 546.655 -202.179 510.31 -155.785 475.561C-125.195 452.681 -100.757 430.315 -74.8508 406.693C-61.926 394.882 -48.5498 382.671 -34.1012 370.119C-8.64679 347.98 20.4198 334.229 48.4704 320.935C64.0478 313.574 78.7786 306.556 92.945 298.283C98.0811 295.259 103.217 292.007 108.635 288.355C122.802 278.826 135.67 264.676 144.926 248.529C154.803 231.24 160.108 212.696 160.221 194.894C160.334 174.125 153.279 144.398 119.077 120.89C98.5325 106.74 76.8032 99.8931 52.647 99.8931C49.0912 99.8931 45.4226 100.064 41.754 100.35C15.1708 102.518 -11.4688 112.56 -33.9883 122.031C-49.1142 128.365 -60.6843 139.263 -71.9159 149.819C-82.7523 160.032 -93.9839 170.531 -108.263 176.693C-114.359 179.317 -120.849 180.63 -127.622 180.63C-148.843 180.63 -168.936 167.906 -183.61 158.605C-189.198 155.068 -194.052 151.987 -197.833 150.389C-247.613 128.935 -299.425 119.806 -345.762 124.599C-403.274 130.533 -444.814 154.954 -469.365 197.291C-481.387 218.06 -479.242 243.622 -477.38 266.216C-477.098 269.754 -476.816 273.12 -476.59 276.487C-474.897 300.508 -474.84 331.319 -489.797 356.881C-498.376 371.545 -511.977 382.728 -525.128 393.512C-530.151 397.62 -535.231 401.786 -539.915 406.065C-548.946 414.224 -555.718 420.672 -561.927 426.948C-585.519 450.684 -602.281 480.697 -610.409 513.79C-618.367 546.028 -617.915 579.92 -609.11 611.815C-600.87 641.599 -578.859 668.417 -548.72 685.477C-528.007 697.174 -503.737 704.078 -478.622 705.447C-475.517 705.618 -472.3 705.675 -469.083 705.675L-469.14 705.618ZM52.647 102.575C76.2388 102.575 97.5166 109.308 117.609 123.116C150.852 145.996 157.738 174.753 157.625 194.894C157.512 212.24 152.376 230.327 142.725 247.216C133.695 263.021 121.108 276.829 107.281 286.13C101.919 289.724 96.7829 292.977 91.7033 295.944C77.6498 304.217 62.9754 311.121 47.398 318.481C19.1216 331.833 -10.0578 345.698 -35.7944 368.065C-50.2994 380.674 -63.6756 392.885 -76.6004 404.696C-102.45 428.318 -126.888 450.627 -157.366 473.45C-203.985 508.37 -237.172 544.772 -269.23 580.034C-306.254 620.716 -341.247 659.173 -389.672 683.765C-406.04 692.039 -419.247 696.888 -432.623 699.456C-448.257 702.423 -463.778 703.564 -478.452 702.765C-503.173 701.453 -526.991 694.663 -547.422 683.138C-576.94 666.477 -598.5 640.23 -606.514 611.131C-615.206 579.692 -615.658 546.256 -607.812 514.475C-599.742 481.895 -583.261 452.282 -560.008 428.888C-553.799 422.669 -547.083 416.221 -538.109 408.119C-533.481 403.897 -528.402 399.732 -523.491 395.68C-510.115 384.668 -496.287 373.371 -487.483 358.308C-472.131 332.175 -472.131 300.793 -473.881 276.373C-474.106 273.006 -474.388 269.64 -474.671 266.102C-476.533 243.907 -478.622 218.801 -466.995 198.774C-442.952 157.236 -402.033 133.215 -345.424 127.395C-299.538 122.716 -248.121 131.674 -198.793 153.014C-195.181 154.554 -190.44 157.578 -184.965 161.059C-170.008 170.531 -149.577 183.483 -127.622 183.483C-120.511 183.483 -113.625 182.056 -107.191 179.317C-92.46 172.984 -81.0591 162.257 -70.0533 151.93C-58.9911 141.545 -47.5903 130.875 -32.9159 124.656C-10.5657 115.242 15.7917 105.314 42.0362 103.202C45.5919 102.917 49.2041 102.746 52.7034 102.746L52.647 102.575Z" fill="url(#paint5_linear_724_27381)"/>
<path d="M-463.664 692.205C-452.941 692.205 -441.879 691.349 -430.873 689.694C-417.722 687.697 -404.346 683.703 -388.882 677.084C-330.128 651.979 -290.394 605.933 -248.346 557.206C-225.15 530.332 -201.219 502.602 -172.322 475.785C-155.616 460.265 -140.603 444.859 -126.154 429.967C-105.666 408.856 -86.3075 388.943 -63.1671 369.543C-35.9631 346.72 -4.24393 334.11 26.4029 321.9C40.6822 316.194 55.4695 310.317 69.2972 303.584C75.1105 300.732 80.8109 297.707 86.2856 294.569C101.807 285.725 116.255 271.746 126.922 255.199C138.21 237.74 144.644 218.797 145.435 200.424C146.338 179.712 140.468 150.213 107.168 126.877C83.125 110.102 57.5577 103.426 28.3218 106.507C1.45647 109.303 -24.5623 119.858 -48.6621 130.871C-63.9573 137.832 -75.4146 149.529 -86.4768 160.883C-97.3133 171.952 -108.488 183.364 -123.05 190.04C-129.315 192.892 -135.975 194.376 -142.917 194.376C-164.928 194.376 -185.585 180.111 -200.655 169.67C-205.734 166.132 -210.137 163.108 -213.579 161.397C-262.118 137.375 -312.123 125.735 -357.501 127.904C-385.044 129.216 -409.369 135.321 -429.744 145.934C-451.078 157.06 -468.236 173.322 -480.653 194.148C-493.352 215.43 -490.586 241.905 -488.216 265.299V265.641C-487.821 269.293 -487.482 272.602 -487.2 275.854C-484.999 300.674 -484.434 332.513 -500.012 358.816C-509.042 374.051 -523.378 385.462 -537.262 396.531C-542.342 400.583 -547.591 404.748 -552.331 408.913C-559.443 415.132 -566.949 421.865 -573.948 428.94C-597.258 452.448 -612.891 482.632 -619.043 516.068C-625.139 548.99 -621.188 583.167 -607.981 612.324C-596.468 637.772 -573.835 659.796 -544.373 674.232C-523.208 684.616 -499.786 690.55 -474.614 691.862C-471.002 692.034 -467.333 692.148 -463.721 692.148L-463.664 692.205ZM41.8675 108.561C65.0078 108.561 85.947 115.294 105.757 129.159C138.097 151.754 143.798 180.34 142.895 200.367C142.105 218.226 135.84 236.713 124.778 253.773C114.336 269.92 100.226 283.614 85.0439 292.287C79.6257 295.368 73.9253 298.392 68.1685 301.188C54.3971 307.921 39.6663 313.741 25.4435 319.446C-5.37273 331.714 -37.2612 344.381 -64.8603 367.489C-88.1136 387.003 -107.529 406.916 -128.017 428.027C-142.522 442.977 -157.478 458.325 -174.128 473.788C-203.138 500.662 -227.125 528.506 -250.322 555.38C-292.2 603.879 -331.764 649.697 -389.954 674.574C-405.249 681.079 -418.343 685.073 -431.324 687.013C-445.886 689.238 -460.334 689.98 -474.501 689.181C-499.278 687.868 -522.418 681.991 -543.245 671.778C-572.142 657.571 -594.323 636.06 -605.554 611.126C-618.535 582.483 -622.373 548.876 -616.447 516.467C-610.352 483.545 -595.056 453.875 -572.085 430.709C-565.143 423.691 -557.637 417.015 -550.582 410.796C-545.897 406.688 -540.648 402.523 -535.625 398.529C-521.515 387.345 -506.954 375.762 -497.698 360.072C-481.725 333.083 -482.289 300.732 -484.547 275.512C-484.829 272.203 -485.168 268.893 -485.563 265.242V264.899C-487.99 241.962 -490.643 215.944 -478.395 195.403C-466.204 174.976 -449.442 159.114 -428.559 148.159C-408.523 137.66 -384.536 131.726 -357.388 130.414C-312.518 128.303 -262.851 139.886 -214.765 163.679C-211.491 165.276 -207.202 168.301 -202.179 171.724C-186.827 182.337 -165.775 196.943 -142.917 196.943C-135.636 196.943 -128.581 195.403 -121.977 192.379C-107.021 185.532 -95.6201 173.892 -84.6143 162.652C-73.665 151.468 -62.377 139.943 -47.5898 133.21C-23.6593 122.312 2.13377 111.87 28.6041 109.075C33.0628 108.618 37.4651 108.39 41.7546 108.39L41.8675 108.561Z" fill="url(#paint6_linear_724_27381)"/>
<path d="M-457.754 678.974C-448.498 678.974 -439.016 678.461 -429.647 677.434C-416.666 676.007 -403.459 672.926 -389.349 668.133C-318.065 643.656 -274.776 586.997 -229.003 527.03C-216.078 510.083 -202.815 492.738 -188.874 476.077C-181.537 467.29 -174.257 458.275 -167.822 450.287L-167.597 450.002C-143.497 420.16 -120.752 392.031 -92.1929 369.094C-63.4086 345.985 -29.4318 334.802 3.47263 323.961C17.4697 319.339 31.8619 314.604 45.6332 309.012C51.9545 306.501 58.1065 303.763 63.9198 300.91C99.5898 283.564 127.753 243.681 130.857 206.023C132.551 185.482 127.753 156.154 95.3003 133.103C70.8054 115.7 44.7866 109.139 14.9299 112.904C-12.2177 116.328 -38.7444 127.968 -63.2957 139.95C-78.7038 147.481 -90.0482 160.034 -100.998 172.245C-111.778 184.227 -122.953 196.608 -137.74 203.626C-144.061 206.65 -150.834 208.248 -157.889 208.248C-181.142 208.248 -203.154 191.701 -217.715 180.746C-222.4 177.266 -226.351 174.299 -229.342 172.587C-276.582 145.998 -324.951 131.734 -369.256 131.334H-371.232C-397.589 131.334 -421.125 136.184 -441.274 145.713C-462.664 155.869 -479.766 171.16 -492.069 191.131C-505.446 212.927 -502.116 240.314 -499.124 264.45V264.906C-498.616 268.672 -498.221 271.981 -497.826 275.348C-495.061 300.91 -493.988 333.775 -510.187 360.877C-519.612 376.682 -534.794 388.436 -549.469 399.734C-554.661 403.728 -559.91 407.779 -564.708 411.887C-572.101 418.163 -579.326 424.383 -585.929 431.058C-608.844 454.167 -623.8 485.434 -628.033 519.041C-632.379 553.504 -624.816 586.883 -606.755 613.016C-592.25 633.956 -568.602 651.929 -540.156 663.569C-518.991 672.242 -495.682 677.32 -470.848 678.632C-466.559 678.86 -462.213 678.974 -457.867 678.974H-457.754ZM30.846 114.559C53.6477 114.559 74.3047 121.349 93.8893 135.271C125.27 157.581 129.954 185.938 128.318 205.794C125.326 242.54 97.7836 281.567 62.9038 298.513C57.1469 301.309 51.0514 303.991 44.7302 306.501C31.0153 312.036 16.6796 316.772 2.79538 321.336C-30.4477 332.291 -64.7068 343.532 -93.8297 366.983C-122.558 390.091 -145.416 418.335 -169.628 448.29L-169.854 448.575C-176.288 456.563 -183.569 465.578 -190.906 474.308C-204.903 491.083 -218.167 508.429 -230.979 525.204C-276.638 585 -319.646 641.316 -390.196 665.566C-404.136 670.359 -417.117 673.383 -429.929 674.752C-443.644 676.236 -457.472 676.692 -470.622 675.95C-495.174 674.638 -518.201 669.617 -539.027 661.058C-567.022 649.59 -590.275 631.959 -604.441 611.418C-622.163 585.856 -629.557 553.105 -625.268 519.327C-621.091 486.29 -606.417 455.65 -583.897 432.941C-577.35 426.323 -570.182 420.16 -562.845 413.941C-558.048 409.89 -552.855 405.896 -547.832 402.016C-532.819 390.433 -517.467 378.565 -507.76 362.304C-491.166 334.517 -492.239 301.081 -495.061 275.063C-495.399 271.696 -495.851 268.33 -496.302 264.564V264.107C-499.294 240.371 -502.567 213.497 -489.643 192.5C-477.621 172.929 -460.915 157.98 -439.975 148.109C-420.221 138.752 -397.025 133.959 -371.062 133.959H-369.087C-325.29 134.358 -277.316 148.509 -230.471 174.869C-227.592 176.467 -223.754 179.377 -219.239 182.743C-204.339 193.984 -181.876 210.816 -157.776 210.816C-150.326 210.816 -143.215 209.161 -136.498 205.966C-121.203 198.662 -109.915 186.11 -98.9093 173.956C-88.0728 161.974 -76.8978 149.593 -61.9977 142.289C-37.6156 130.364 -11.3711 118.896 15.4379 115.472C20.6868 114.787 25.8793 114.445 30.9024 114.445L30.846 114.559Z" fill="url(#paint7_linear_724_27381)"/>
<path d="M-450.917 665.858C-443.467 665.858 -435.848 665.629 -428.285 665.116C-377.207 661.749 -333.861 641.836 -295.821 604.235C-262.295 571.085 -236.785 528.577 -212.12 487.495C-183.957 440.594 -157.43 396.317 -121.139 368.587C-90.7183 345.307 -55.895 336.064 -19.0397 326.193C-5.32485 322.541 8.61581 318.832 22.1614 314.382C29.4421 311.985 35.8762 309.646 41.8024 307.192C60.0889 299.661 77.7547 285.967 91.4131 268.679C105.41 251.048 114.328 230.678 116.585 211.45C118.956 191.023 115.174 161.981 83.6809 139.214C58.7909 121.241 32.2642 114.737 1.84308 119.187C-25.6996 123.295 -52.6214 135.905 -77.6242 148.914C-93.2016 157.016 -104.49 170.482 -115.326 183.491C-126.106 196.329 -137.168 209.567 -152.181 217.098C-158.672 220.351 -165.67 222.062 -172.838 222.062C-196.995 222.062 -219.571 203.747 -234.471 191.593C-238.591 188.284 -242.09 185.431 -244.743 183.72C-270.818 167.116 -297.401 154.449 -323.646 146.061C-349.213 137.902 -373.877 133.908 -396.961 134.365C-420.045 134.764 -440.871 139.5 -458.819 148.401C-477.275 157.587 -492.119 170.939 -503.068 188.113C-517.178 210.308 -513.171 238.609 -509.671 263.6C-509.107 267.594 -508.599 271.246 -508.148 274.898C-504.874 301.258 -503.294 335.094 -520.056 363.052C-529.933 379.542 -546.019 391.581 -561.54 403.221C-566.789 407.158 -571.981 411.038 -576.778 414.975C-583.833 420.737 -591.058 426.671 -597.605 433.233C-609.965 445.729 -620.181 461.705 -627.066 479.393C-633.895 496.91 -637.451 515.853 -637.225 534.111C-636.887 565.721 -625.486 593.965 -605.111 613.65C-587.558 630.653 -563.459 644.347 -535.408 653.362C-514.525 660.095 -491.78 664.146 -467.793 665.401C-462.262 665.686 -456.562 665.858 -450.805 665.858H-450.917ZM19.678 120.5C42.1975 120.5 62.6288 127.346 82.0441 141.383C112.522 163.407 116.19 191.479 113.876 211.164C111.675 229.936 102.983 249.792 89.2684 267.024C75.8357 283.97 58.6216 297.322 40.7301 304.682C34.8604 307.078 28.4827 309.418 21.3148 311.757C7.82569 316.208 -6.05858 319.916 -19.4913 323.454C-56.8544 333.382 -91.9035 342.739 -122.72 366.361C-159.349 394.377 -186.045 438.882 -214.322 486.012C-238.873 526.979 -264.327 569.316 -297.627 602.238C-335.216 639.383 -377.997 659.068 -428.454 662.32C-441.774 663.176 -455.151 663.29 -467.793 662.605C-491.554 661.35 -514.074 657.299 -534.731 650.68C-562.386 641.779 -586.147 628.257 -603.418 611.539C-623.285 592.367 -634.403 564.808 -634.742 533.94C-634.968 516.024 -631.469 497.423 -624.752 480.192C-617.98 462.846 -607.99 447.155 -595.855 434.945C-589.421 428.44 -582.197 422.563 -575.254 416.858C-570.513 412.978 -565.321 409.098 -560.354 405.332C-544.438 393.407 -528.127 381.196 -517.968 364.25C-500.754 335.607 -502.391 301.201 -505.664 274.384C-506.116 270.733 -506.624 267.081 -507.188 263.201C-510.687 238.552 -514.582 210.765 -500.98 189.425C-490.312 172.65 -475.807 159.641 -457.803 150.683C-440.194 141.953 -419.763 137.275 -397.074 136.932C-374.216 136.533 -349.89 140.47 -324.605 148.515C-298.586 156.845 -272.229 169.398 -246.323 185.888C-243.783 187.485 -240.34 190.338 -236.277 193.59C-221.038 205.972 -198.067 224.63 -172.951 224.63C-165.332 224.63 -157.995 222.861 -151.109 219.438C-135.644 211.678 -124.357 198.212 -113.407 185.146C-102.684 172.308 -91.5649 159.071 -76.4955 151.197C-51.6619 138.244 -24.9659 125.749 2.18171 121.755C8.16433 120.842 14.0905 120.442 19.7345 120.442L19.678 120.5Z" fill="url(#paint8_linear_724_27381)"/>
<path d="M-506.565 838.963C-485.795 838.963 -465.307 834.285 -445.553 824.984C-424.332 814.999 -404.126 798.624 -385.614 776.257C-365.86 752.464 -351.016 726.674 -335.326 699.343C-285.716 613.015 -229.558 515.161 9.97284 472.082C20.9222 470.142 31.4764 468.487 41.6356 466.89C47.5618 465.977 53.3751 465.064 59.132 464.094C167.497 446.292 195.942 425.694 208.133 416.907C270.217 372.003 307.242 332.29 324.964 250.869C341.218 176.238 300.356 91.2786 231.951 57.4433C153.217 18.4729 72.1696 36.0467 63.1957 38.1578C20.7529 48.2 2.40991 46.1459 -18.9243 43.8065C-26.318 43.0077 -33.9938 42.1518 -43.2499 41.6954C-102.794 38.7284 -165.216 55.2181 -228.655 90.708C-260.713 108.624 -284.925 126.654 -304.849 147.48C-326.296 169.847 -343.228 196.151 -356.491 227.818C-362.474 242.082 -365.691 257.317 -368.739 272.038L-368.908 272.722C-369.529 275.575 -370.15 278.542 -370.771 281.452C-374.665 299.425 -379.462 318.54 -388.493 336.17C-395.265 349.408 -404.634 361.219 -413.665 372.573L-416.6 376.282C-425.63 387.694 -434.152 397.393 -442.618 405.838C-458.139 421.358 -474.733 435.793 -490.818 449.772C-536.817 489.827 -584.395 531.251 -620.178 607.081C-637.9 644.682 -644.843 682.853 -640.271 717.544C-636.094 749.154 -622.662 777.284 -601.384 798.966C-582.025 818.708 -557.53 831.774 -530.495 836.738C-524.964 837.765 -519.264 838.393 -513.676 838.735C-511.306 838.849 -508.935 838.906 -506.565 838.906V838.963ZM119.466 35.0767C150.677 35.0767 191.032 40.1548 230.822 59.8968C298.155 93.2185 338.396 176.865 322.424 250.356C304.871 330.921 268.185 370.291 206.666 414.796C194.644 423.469 166.537 443.838 58.7934 461.526C53.0365 462.496 47.2232 463.352 41.297 464.322C31.0814 465.92 20.5271 467.574 9.57779 469.514C-231.138 512.821 -287.691 611.189 -337.527 698.031C-353.161 725.304 -367.949 750.98 -387.533 774.602C-405.82 796.626 -425.687 812.774 -446.569 822.588C-468.186 832.744 -490.818 837.366 -513.451 836.11C-518.982 835.825 -524.513 835.14 -529.931 834.17C-556.401 829.321 -580.445 816.54 -599.408 797.197C-620.235 775.914 -633.442 748.299 -637.505 717.259C-642.02 683.139 -635.191 645.423 -617.638 608.336C-582.081 532.963 -534.728 491.767 -488.956 451.884C-472.87 437.904 -456.22 423.412 -440.643 407.835C-432.121 399.333 -423.542 389.577 -414.398 378.051L-411.464 374.399C-402.264 362.873 -392.839 350.948 -385.953 337.483C-376.753 319.51 -371.899 300.224 -368.005 282.08C-367.384 279.227 -366.763 276.26 -366.142 273.35L-365.973 272.665C-362.925 258.058 -359.765 242.995 -353.838 228.959C-340.688 197.577 -323.925 171.559 -302.704 149.42C-282.95 128.823 -258.907 110.906 -227.075 93.1044C-164.088 57.8427 -102.117 41.4671 -43.0806 44.4341C-33.9373 44.8906 -26.318 45.7465 -18.9243 46.5453C2.57925 48.9417 21.2044 50.9958 64.0422 40.8395C68.3881 39.8125 89.8353 35.1337 119.692 35.1337L119.466 35.0767Z" fill="url(#paint9_linear_724_27381)"/>
<path d="M-515.769 879.193C-506.513 879.193 -497.257 878.223 -488.113 876.34C-448.775 868.18 -413.048 843.132 -384.772 803.819C-366.316 778.2 -352.883 750.698 -338.604 721.656C-287.075 616.499 -233.795 507.689 59.9177 471.458C84.6384 468.434 107.271 466.722 129.226 465.067C208.242 457.536 340.424 444.869 379.593 288.188C390.825 243.227 413.457 91.339 232.567 23.0408C155.245 -6.57215 76.6804 -1.83635 3.25211 7.69229C-78.1342 18.248 -124.979 39.7588 -193.328 81.0115C-223.128 99.0418 -247.228 119.697 -271.328 147.997C-293.057 173.445 -309.82 202.716 -322.632 237.464C-325.792 245.966 -328.84 254.752 -331.831 263.197L-331.944 263.539C-344.587 299.486 -357.624 336.63 -379.636 367.841C-406.219 405.556 -440.365 429.863 -476.6 455.596C-501.264 473.169 -526.718 491.314 -551.721 514.879C-580.11 541.639 -603.589 571.594 -623.456 606.456C-652.974 658.151 -663.867 710.416 -655.006 757.545C-647.161 799.255 -624.303 834.402 -590.608 856.541C-570.233 869.949 -546.811 877.652 -522.937 878.964C-520.566 879.078 -518.139 879.135 -515.769 879.135V879.193ZM99.8771 3.12767C143.449 3.12767 187.754 8.77639 231.608 25.6084C410.409 93.1078 388.059 243.17 376.997 287.561C360.234 354.546 325.975 400.592 272.188 428.322C227.318 451.43 176.861 457.878 129 462.443C107.045 464.097 84.2997 465.809 59.5791 468.833C-235.545 505.236 -289.163 614.673 -340.975 720.515C-355.198 749.5 -368.574 776.888 -386.917 802.336C-414.798 841.078 -449.96 865.784 -488.621 873.772C-499.909 876.111 -511.423 876.967 -522.768 876.397C-546.19 875.141 -569.161 867.553 -589.141 854.429C-622.158 832.747 -644.621 798.171 -652.353 757.203C-661.102 710.701 -650.322 659.121 -621.142 607.94C-601.388 573.306 -578.078 543.579 -549.859 516.99C-524.969 493.539 -499.627 475.452 -475.019 457.992C-438.616 432.088 -404.244 407.61 -377.378 369.553C-355.141 338 -342.047 300.684 -329.348 264.566L-329.235 264.167C-326.244 255.722 -323.196 246.993 -320.036 238.491C-307.337 204.028 -290.687 175.043 -269.183 149.823C-245.253 121.751 -221.379 101.267 -191.804 83.4079C-123.794 42.3264 -77.1747 20.9297 3.76004 10.4311C35.0842 6.37996 67.3678 3.18473 100.046 3.18473L99.8771 3.12767Z" fill="url(#paint10_linear_724_27381)"/>
<path d="M-647.494 671.893C-642.64 650.268 -634.174 628.244 -622.378 606.391C-580.951 529.819 -530.889 491.648 -482.407 454.731C-459.831 437.5 -438.441 421.238 -418.8 401.668C-409.092 391.968 -400.287 381.754 -391.991 370.4C-381.719 356.421 -374.212 344.268 -368.23 332.057C-360.159 315.453 -354.232 297.651 -349.548 282.36C-348.476 278.822 -347.403 275.228 -346.331 271.747L-345.992 270.663C-342.324 258.51 -338.542 246.014 -333.914 233.918C-320.876 200.197 -304.057 171.896 -282.441 147.475C-262.518 124.938 -237.966 104.739 -205.118 83.913C-144.615 45.5131 -76.8869 22.4048 -9.21545 17.2125C-3.68436 16.6419 3.25775 16.756 11.9495 16.9272C25.4951 17.2125 42.6528 17.4978 63.1969 15.3296C93.2229 12.1914 138.939 7.39857 199.273 23.603C349.686 63.8857 365.94 179.485 367.69 202.251C372.205 255.657 352.508 403.779 209.038 447.2C187.929 454.731 138.431 460.209 94.7468 465.059C74.9364 467.227 56.2548 469.338 43.2736 471.278C-232.548 509.963 -285.997 613.694 -337.752 714.059C-352.426 742.474 -366.254 769.348 -385.049 794.282C-403.674 819.045 -424.952 837.646 -448.261 849.514C-468.918 860.012 -490.591 865.376 -512.659 865.376C-515.03 865.376 -517.4 865.319 -519.827 865.205C-525.414 864.919 -531.058 864.235 -536.59 863.265C-564.979 858.13 -590.772 844.15 -611.147 822.868C-634.456 798.504 -648.51 766.78 -651.783 731.176C-653.533 712.062 -652.122 692.092 -647.55 671.836L-647.494 671.893ZM-649.074 731.005C-645.857 765.981 -632.086 797.135 -609.171 821.042C-589.192 841.925 -563.963 855.619 -536.082 860.64C-530.663 861.61 -525.132 862.295 -519.658 862.58C-495.671 863.892 -471.91 858.643 -449.447 847.174C-426.532 835.421 -405.536 817.105 -387.137 792.684C-368.512 767.921 -354.684 741.161 -340.066 712.804C-288.028 611.868 -234.241 507.51 42.935 468.653C55.9162 466.656 74.6542 464.602 94.4646 462.434C137.98 457.641 187.308 452.164 208.191 444.689C350.024 401.725 369.496 255.314 365.037 202.479C363.344 180.055 347.259 65.9969 198.596 26.2276C138.713 10.1944 93.2794 14.9302 63.4791 18.0684C42.7657 20.2366 25.4951 19.9513 11.8931 19.666C3.25778 19.4948 -3.57153 19.3807 -8.98975 19.8942C-76.2096 25.0865 -143.542 48.0237 -203.707 86.1953C-236.33 106.907 -260.712 126.992 -280.466 149.301C-301.856 173.494 -318.506 201.509 -331.431 234.945C-336.059 246.927 -339.84 259.423 -343.509 271.633L-343.791 272.603C-344.863 276.141 -345.936 279.735 -347.008 283.216C-351.749 298.564 -357.675 316.537 -365.859 333.312C-371.898 345.637 -379.517 357.961 -389.846 372.055C-398.255 383.523 -407.117 393.851 -416.937 403.665C-436.691 423.407 -458.138 439.725 -480.827 456.957C-529.083 493.702 -578.92 531.645 -620.064 607.76C-631.747 629.385 -640.1 651.181 -644.954 672.578C-649.469 692.548 -650.824 712.233 -649.131 731.062L-649.074 731.005Z" fill="url(#paint11_linear_724_27381)"/>
<path d="M-621.267 606.806C-582.775 530.976 -534.237 491.492 -487.335 453.206C-467.412 437.002 -448.617 421.653 -430.726 403.794C-421.639 394.722 -413.004 384.794 -404.312 373.383C-394.661 360.716 -385.405 348.22 -378.35 334.127C-369.827 317.067 -364.578 298.922 -360.12 281.919C-359.273 278.667 -358.427 275.357 -357.58 271.934C-354.137 258.354 -350.581 244.261 -345.163 230.909C-319.935 168.317 -282.741 126.722 -216.819 87.3522C-152.421 48.8382 -83.1129 28.5257 -21.7064 30.0092C-16.401 30.1233 -11.6035 30.3515 -7.08835 30.5227C11.6497 31.3215 26.4369 31.8921 61.994 27.0422C134.011 18.4835 167.762 26.2434 181.477 29.3816C281.263 53.1176 341.258 116.623 346.959 204.72C350.289 281.006 320.094 348.848 256.994 403.338C230.467 426.104 209.979 435.747 185.541 444.02C160.538 452.408 126.053 459.14 82.9332 464.047C64.4774 466.101 46.078 468.612 26.7191 471.693C-230.985 512.66 -287.087 615.764 -336.584 706.828C-351.71 734.672 -365.99 760.919 -385.235 785.225C-403.804 808.733 -424.518 826.25 -446.811 837.205C-467.017 847.076 -488.069 852.097 -509.516 852.097C-511.886 852.097 -514.257 852.04 -516.684 851.926C-522.328 851.641 -528.028 850.956 -533.559 849.929C-561.271 844.851 -586.444 831.328 -606.254 810.787C-628.491 787.793 -642.206 757.838 -645.875 724.288C-649.938 687.257 -641.416 646.632 -621.154 606.749L-621.267 606.806ZM-643.335 724.059C-639.723 757.039 -626.234 786.424 -604.448 808.961C-584.976 829.103 -560.368 842.34 -533.164 847.361C-527.69 848.331 -522.159 849.016 -516.571 849.301C-493.261 850.556 -470.065 845.649 -448.053 834.866C-426.098 824.082 -405.723 806.793 -387.38 783.628C-368.304 759.492 -354.081 733.303 -338.955 705.516C-289.175 613.995 -232.735 510.207 26.2675 469.068C45.6829 465.987 64.1387 463.477 82.651 461.366C125.545 456.516 159.917 449.84 184.694 441.452C208.851 433.293 229.056 423.765 255.244 401.284C317.667 347.364 347.58 280.207 344.306 204.834C338.606 118.106 279.4 55.3999 180.913 32.0062C172.052 29.9521 153.596 25.7299 122.949 25.7299C106.864 25.7299 86.9404 26.814 62.3326 29.7239C26.5497 34.6309 11.7061 34.0032 -7.20123 33.2044C-11.7164 33.0332 -16.4574 32.805 -21.7628 32.6909C-82.7178 31.2074 -151.462 51.4058 -215.464 89.6345C-280.822 128.719 -317.677 169.915 -342.68 231.879C-347.985 245.06 -351.541 259.039 -354.984 272.562C-355.83 275.985 -356.677 279.351 -357.523 282.547C-361.982 299.721 -367.287 317.98 -375.923 335.268C-383.034 349.532 -392.403 362.142 -402.111 374.923C-410.916 386.392 -419.607 396.434 -428.751 405.62C-446.755 423.593 -465.606 438.942 -485.586 455.203C-532.318 493.261 -580.574 532.574 -618.84 607.89C-638.876 647.317 -647.286 687.428 -643.279 723.945L-643.335 724.059Z" fill="url(#paint12_linear_724_27381)"/>
<path d="M-619.113 607.538C-585.814 530.339 -538.348 486.405 -492.462 443.954L-492.18 443.726C-479.763 432.257 -466.951 420.389 -454.591 408.008C-446.689 400.077 -438.506 390.947 -428.967 379.308C-427.331 377.253 -425.581 375.256 -423.831 373.088L-423.21 372.346C-414.349 361.734 -405.15 350.779 -398.603 338.226C-389.121 320.025 -384.719 299.94 -381.332 280.94C-380.824 278.087 -380.373 275.234 -379.865 272.324C-377.212 256.462 -374.446 240.03 -367.787 224.738C-354.41 194.098 -337.478 168.764 -316.088 147.425C-296.108 127.512 -272.065 110.566 -240.345 94.0759C-185.429 65.5471 -124.305 50.4268 -63.5192 50.4268C-54.2066 50.3126 -44.0475 51.8532 -33.3239 53.3938C-13.062 56.3037 15.9481 58.1866 40.1044 52.1955C59.5197 47.4027 98.1245 37.9311 144.462 41.4116C215.689 49.685 255.366 83.0067 276.136 109.539C306.162 147.881 313.273 191.873 309.943 220.231C300.8 299.427 251.359 370.977 170.706 421.701C127.078 449.146 36.0971 464.324 35.194 464.495C21.8178 466.948 7.99005 469.459 -6.68433 472.483C-227.816 517.501 -284.03 609.992 -333.697 691.642C-350.064 718.573 -365.529 743.964 -385.96 767.3C-404.473 788.354 -424.057 803.646 -444.319 812.718C-463.565 821.334 -483.488 825.727 -503.524 825.727C-505.895 825.727 -508.322 825.67 -510.692 825.556C-516.393 825.271 -522.037 824.586 -527.624 823.559C-553.925 818.709 -577.799 806.156 -596.707 787.156C-616.912 766.844 -630.119 740.426 -634.747 710.813C-639.883 678.062 -634.691 643.314 -619.226 607.538H-619.113ZM-631.982 710.357C-627.41 739.399 -614.542 765.303 -594.675 785.216C-576.219 803.76 -552.796 816.084 -527.003 820.877C-521.585 821.904 -515.998 822.532 -510.41 822.817C-488.455 824.016 -466.387 819.736 -445.222 810.208C-425.355 801.307 -405.996 786.243 -387.766 765.417C-367.504 742.309 -352.096 716.975 -335.785 690.158C-285.892 608.052 -229.34 515.048 -7.07935 469.801C7.595 466.834 21.4792 464.267 34.8554 461.813C35.7585 461.642 126.232 446.522 169.408 419.419C249.383 369.151 298.373 298.286 307.404 219.945C310.677 192.101 303.622 148.908 274.16 111.25C244.812 73.7634 199.942 50.5409 144.292 44.0933C136.56 43.5228 129.223 43.2375 122.224 43.2375C87.9089 43.2375 56.7541 50.8262 40.7816 54.8202C16.1738 60.9254 -13.1749 59.0425 -33.6626 56.0755C-44.3297 54.5349 -54.4889 53.1655 -63.4628 53.1655C-123.797 53.1655 -184.526 68.1717 -239.104 96.4723C-270.541 112.791 -294.415 129.623 -314.169 149.365C-335.334 170.476 -352.096 195.525 -365.303 225.879C-371.794 240.828 -374.559 257.09 -377.212 272.838C-377.72 275.748 -378.172 278.658 -378.679 281.511C-382.066 300.739 -386.581 321.052 -396.232 339.538C-402.892 352.319 -412.148 363.445 -421.122 374.115L-421.743 374.857C-423.549 376.968 -425.242 379.022 -426.879 381.076C-436.474 392.83 -444.714 401.959 -452.672 409.948C-465.089 422.386 -477.901 434.254 -490.318 445.723L-490.6 445.951C-536.316 488.231 -583.556 531.937 -616.63 608.623C-631.869 643.941 -637.005 678.176 -631.925 710.414L-631.982 710.357Z" fill="url(#paint13_linear_724_27381)"/>
<path d="M-615.836 608.745C-604.774 569.546 -588.068 534.056 -564.758 500.335C-541.957 467.356 -514.358 438.371 -490.371 414.292C-482.074 405.962 -474.229 397.346 -465.932 388.217C-462.546 384.508 -458.99 380.856 -455.547 377.262C-445.84 367.277 -435.793 356.892 -429.02 344.454C-417.789 323.97 -414.685 300.12 -413.105 279.522C-412.935 277.011 -412.766 274.387 -412.54 271.819V270.849C-411.242 252.191 -410 232.963 -401.591 215.617C-388.271 188.001 -371.339 165.635 -349.948 147.262C-330.138 130.259 -305.756 116.223 -275.504 104.241C-235.827 88.6067 -193.61 80.6757 -149.982 80.6757C-134.517 80.6757 -118.94 81.7027 -103.588 83.7568C-97.0977 84.6126 -87.2206 87.6367 -79.2062 90.0902C-56.9689 96.9371 -35.4089 103.613 -5.43933 91.4596C-2.50446 90.2614 1.10771 88.4926 5.22781 86.4385C24.9253 76.6816 57.8862 60.3631 108.908 62.0748C185.666 63.4442 232.06 110.46 248.54 150.343C264.174 190.854 255.087 238.326 223.029 284.029C212.757 298.636 177.595 341.315 138.877 378.118C102.192 413.037 39.7126 445.617 -28.2975 465.188L-56.5174 473.632C-221.265 522.588 -276.633 598.817 -325.453 666.088C-344.756 692.734 -363.042 717.839 -386.747 740.206C-405.146 757.552 -422.643 769.191 -440.252 775.81C-457.861 782.429 -475.809 785.795 -493.644 785.795C-496.128 785.795 -498.554 785.738 -501.038 785.624C-506.851 785.339 -512.664 784.597 -518.365 783.57C-542.465 779.062 -564.476 768.05 -582.029 751.675C-599.469 735.356 -611.942 714.245 -618.094 690.566C-624.754 664.947 -624.02 637.445 -615.949 608.859L-615.836 608.745ZM-615.441 689.824C-609.402 712.99 -597.211 733.701 -580.166 749.678C-563.009 765.711 -541.449 776.552 -517.8 780.945C-512.269 781.972 -506.569 782.657 -500.812 782.942C-481.002 784.026 -460.74 780.717 -441.099 773.3C-423.828 766.795 -406.614 755.326 -388.497 738.209C-364.961 716.014 -346.788 690.965 -327.485 664.433C-278.383 596.82 -222.789 520.191 -57.1382 471.008L-28.9183 462.563C38.6966 443.106 100.781 410.812 137.184 376.121C178.78 336.465 213.152 293.558 220.941 282.432C252.491 237.47 261.408 190.854 246.113 151.256C229.971 112.172 184.368 66.0689 108.908 64.6995C106.424 64.5854 103.941 64.5854 101.514 64.5854C55.4028 64.5854 24.9818 79.6486 6.4695 88.7779C2.29295 90.8319 -1.31918 92.6578 -4.36694 93.856C-35.1831 106.352 -57.1382 99.6188 -79.8835 92.6007C-87.7851 90.2043 -97.6056 87.1802 -103.87 86.3814C-119.109 84.3844 -134.63 83.3574 -149.925 83.3574C-193.215 83.3574 -235.15 91.2313 -274.488 106.751C-304.458 118.562 -328.614 132.484 -348.199 149.316C-369.364 167.46 -386.013 189.542 -399.164 216.815C-407.291 233.705 -408.533 252.705 -409.774 271.077V272.047C-410 274.615 -410.17 277.24 -410.395 279.75C-411.976 300.633 -415.136 324.826 -426.65 345.766C-433.649 358.547 -443.808 368.988 -453.628 379.145C-457.071 382.682 -460.627 386.334 -463.957 390.043C-472.253 399.229 -480.099 407.845 -488.452 416.232C-512.382 440.196 -539.868 469.125 -562.501 501.876C-585.641 535.369 -602.234 570.573 -613.24 609.487C-621.198 637.616 -621.876 664.662 -615.385 689.824H-615.441Z" fill="url(#paint14_linear_724_27381)"/>
<path d="M-617.981 607.929C-586.826 527.477 -540.094 481.945 -490.596 433.788L-490.031 433.275C-482.299 425.743 -474.341 417.984 -466.496 410.11C-457.127 400.752 -448.492 390.767 -441.267 382.265C-438.953 379.527 -436.526 376.731 -434.156 374.049L-433.592 373.421C-424.561 363.208 -415.249 352.595 -408.702 340.271C-398.655 321.385 -394.705 300.33 -391.883 280.474C-391.544 277.964 -391.205 275.396 -390.81 272.543V271.916C-388.496 255.084 -386.239 237.681 -379.014 221.705C-353.391 164.989 -315.407 127.845 -252.025 97.4331C-208.284 76.4929 -157.431 64.9102 -92.0175 60.9732C-84.9061 60.5167 -65.6601 60.2885 -46.8092 65.3667C-16.3881 74.7241 7.99396 70.7871 22.5555 65.7661C105.296 37.066 155.584 50.2464 172.065 54.5257C172.798 54.6969 245.606 75.1235 277.777 136.575C296.12 171.608 297.135 212.69 280.768 258.621C265.36 305.18 191.367 410.965 90.0011 444.515C53.8231 456.84 -21.8628 472.588 -23.2738 472.873C-225.836 519.546 -281.994 606.673 -331.492 683.587C-348.65 710.233 -364.848 735.396 -386.126 758.276C-404.751 778.36 -423.32 792.111 -442.848 800.442C-461.586 808.43 -480.888 812.481 -500.191 812.481C-502.618 812.481 -504.988 812.424 -507.415 812.309C-513.115 812.024 -518.816 811.34 -524.403 810.312C-549.971 805.577 -573.224 793.48 -591.623 775.393C-610.869 756.393 -623.794 731.744 -628.93 704.128C-634.574 673.773 -630.905 641.422 -617.981 608.043V607.929ZM-626.334 703.5C-621.311 730.603 -608.668 754.738 -589.817 773.339C-571.813 791.084 -549.011 802.952 -523.952 807.574C-518.477 808.601 -512.833 809.228 -507.302 809.571C-486.024 810.712 -464.577 806.775 -443.864 797.931C-424.674 789.772 -406.444 776.192 -388.045 756.393C-366.936 733.684 -350.794 708.636 -333.693 682.104C-283.913 604.791 -227.473 517.15 -23.7817 470.248C-22.9915 470.077 52.9765 454.272 89.2109 441.948C189.674 408.74 263.046 303.925 278.341 257.765C294.426 212.576 293.467 172.236 275.519 137.887C243.913 77.4629 172.234 57.3786 171.5 57.2074C163.091 55.0392 145.933 50.5316 120.084 50.5316C95.5886 50.5316 63.3615 54.5827 23.5149 68.3907C8.55835 73.583 -16.3316 77.577 -47.4865 68.0484C-65.9423 63.0844 -84.7932 63.3696 -91.7918 63.769C-156.867 67.649 -207.381 79.1746 -250.839 99.9436C-313.6 130.013 -351.246 166.815 -376.531 222.903C-383.586 238.537 -385.844 255.711 -388.045 272.372L-388.158 273.285C-388.496 275.853 -388.835 278.42 -389.173 280.931C-391.995 301.072 -396.059 322.355 -406.275 341.64C-412.935 354.25 -422.36 364.92 -431.503 375.304L-432.068 375.932C-434.438 378.614 -436.809 381.352 -439.179 384.091C-446.46 392.65 -455.152 402.635 -464.577 412.049C-472.479 419.923 -480.437 427.74 -488.169 435.215L-488.733 435.728C-538.005 483.714 -584.568 529.018 -615.497 608.956C-628.253 641.878 -631.865 673.716 -626.334 703.557V703.5Z" fill="url(#paint15_linear_724_27381)"/>
<path d="M-616.906 608.332C-587.557 521.433 -536.592 470.424 -482.692 416.447L-478.402 412.168C-469.541 403.324 -461.301 393.966 -453.569 385.179C-450.578 381.756 -447.473 378.389 -444.426 375.08C-435.113 365.038 -425.462 354.596 -418.858 342.272C-408.248 322.53 -404.636 299.65 -402.491 279.908C-402.209 277.169 -401.927 274.373 -401.644 271.349C-399.895 253.604 -398.145 235.289 -390.356 218.571C-376.98 189.928 -360.048 166.591 -338.657 147.249C-318.903 129.332 -294.409 114.155 -263.818 100.804C-209.41 77.0105 -147.496 67.0824 -87.8386 72.617C-80.8401 73.2446 -72.8256 75.2417 -64.3031 77.4099C-51.6042 80.6051 -37.212 84.1997 -22.7634 84.1997C-16.555 84.1997 -10.8546 83.5721 -5.32349 82.2598C6.47244 79.521 17.0831 75.4128 27.468 71.4188C39.9413 66.6259 54.7849 61.3766 70.0237 58.8661C74.8775 58.0673 100.106 54.1303 119.239 56.0132C193.401 60.9202 230.652 92.8725 248.769 118.777C275.578 157.062 276.255 202.537 268.015 232.265C252.889 286.584 227.322 315.455 204.633 341.074C181.38 367.491 148.362 397.333 125.617 411.711C100.953 429.399 52.7531 448.228 -13.7895 466.258C-15.2569 466.658 -16.2729 466.943 -16.8937 467.114C-21.6911 468.312 -25.8676 469.454 -30.3264 470.652C-33.3177 471.451 -36.4219 472.249 -39.9211 473.162C-223.746 521.205 -279.565 602.912 -328.893 675.033C-347.01 701.564 -364.168 726.613 -386.462 749.151C-405.031 767.866 -423.035 780.589 -441.547 788.064C-459.721 795.367 -478.346 799.076 -496.971 799.076C-499.398 799.076 -501.825 799.019 -504.252 798.905C-510.009 798.62 -515.822 797.935 -521.41 796.851C-546.243 792.229 -568.876 780.646 -586.824 763.415C-605.166 745.784 -617.809 722.904 -623.453 697.228C-629.605 669.213 -627.404 639.314 -616.962 608.332H-616.906ZM-620.8 696.657C-615.269 721.763 -602.852 744.187 -584.905 761.475C-567.295 778.421 -545.171 789.719 -520.789 794.226C-515.314 795.253 -509.67 795.938 -503.97 796.223C-483.426 797.364 -462.543 793.713 -442.394 785.611C-424.22 778.307 -406.442 765.754 -388.212 747.325C-366.031 724.958 -348.986 699.967 -330.925 673.549C-281.371 601.086 -225.213 518.923 -40.4291 470.652C-36.9298 469.739 -33.882 468.94 -30.8907 468.141C-26.4884 466.943 -22.2555 465.859 -17.5145 464.604C-16.9501 464.432 -15.8777 464.147 -14.4103 463.748C50.8906 446.06 100.106 426.831 124.206 409.543C146.782 395.221 179.574 365.608 202.714 339.362C225.177 313.971 250.575 285.328 265.475 231.58C273.602 202.423 272.869 157.861 246.624 120.374C221.057 83.8574 176.977 62.5178 119.014 58.6949C115.458 58.3526 111.733 58.1814 107.951 58.1814C91.5273 58.1814 74.3696 60.8631 70.4752 61.4907C55.4622 64.0013 40.7879 69.1935 28.3711 73.9293C17.9862 77.9234 7.2626 82.0315 -4.70267 84.8274C-10.4031 86.1967 -16.3293 86.8244 -22.707 86.8244C-37.4942 86.8244 -52.0557 83.1727 -64.924 79.9774C-73.3335 77.8663 -81.2352 75.8693 -88.0079 75.2417C-147.157 69.7641 -208.62 79.6351 -262.689 103.257C-292.997 116.494 -317.267 131.558 -336.795 149.246C-357.96 168.36 -374.666 191.468 -387.873 219.712C-395.436 235.973 -397.242 254.061 -398.935 271.691C-399.217 274.601 -399.5 277.397 -399.782 280.136C-401.926 300.163 -405.595 323.386 -416.432 343.527C-423.204 356.137 -432.968 366.693 -442.394 376.849C-445.442 380.101 -448.546 383.468 -451.537 386.891C-459.269 395.678 -467.566 405.035 -476.483 413.993L-480.773 418.273C-534.504 472.021 -585.187 522.803 -614.366 609.131C-624.695 639.657 -626.839 669.099 -620.8 696.6V696.657Z" fill="url(#paint16_linear_724_27381)"/>
</g>
<defs>
<linearGradient id="paint0_linear_724_27381" x1="202.996" y1="-80.4654" x2="-628.981" y2="769.77" gradientUnits="userSpaceOnUse">
<stop stop-color="#AFB388"/>
<stop offset="0.31" stop-color="#41929E"/>
<stop offset="0.49" stop-color="#27758D"/>
<stop offset="0.68" stop-color="#115C7E"/>
<stop offset="0.86" stop-color="#044D76"/>
<stop offset="1" stop-color="#004873"/>
</linearGradient>
<linearGradient id="paint1_linear_724_27381" x1="194.257" y1="-89.0265" x2="-637.72" y2="761.209" gradientUnits="userSpaceOnUse">
<stop stop-color="#AFB388"/>
<stop offset="0.31" stop-color="#41929E"/>
<stop offset="0.49" stop-color="#27758D"/>
<stop offset="0.68" stop-color="#115C7E"/>
<stop offset="0.86" stop-color="#044D76"/>
<stop offset="1" stop-color="#004873"/>
</linearGradient>
<linearGradient id="paint2_linear_724_27381" x1="186.122" y1="-97.0205" x2="-645.911" y2="753.214" gradientUnits="userSpaceOnUse">
<stop stop-color="#AFB388"/>
<stop offset="0.31" stop-color="#41929E"/>
<stop offset="0.49" stop-color="#27758D"/>
<stop offset="0.68" stop-color="#115C7E"/>
<stop offset="0.86" stop-color="#044D76"/>
<stop offset="1" stop-color="#004873"/>
</linearGradient>
<linearGradient id="paint3_linear_724_27381" x1="178.564" y1="-104.378" x2="-653.412" y2="745.857" gradientUnits="userSpaceOnUse">
<stop stop-color="#AFB388"/>
<stop offset="0.31" stop-color="#41929E"/>
<stop offset="0.49" stop-color="#27758D"/>
<stop offset="0.68" stop-color="#115C7E"/>
<stop offset="0.86" stop-color="#044D76"/>
<stop offset="1" stop-color="#004873"/>
</linearGradient>
<linearGradient id="paint4_linear_724_27381" x1="171.35" y1="-111.445" x2="-660.626" y2="738.79" gradientUnits="userSpaceOnUse">
<stop stop-color="#AFB388"/>
<stop offset="0.31" stop-color="#41929E"/>
<stop offset="0.49" stop-color="#27758D"/>
<stop offset="0.68" stop-color="#115C7E"/>
<stop offset="0.86" stop-color="#044D76"/>
<stop offset="1" stop-color="#004873"/>
</linearGradient>
<linearGradient id="paint5_linear_724_27381" x1="164.285" y1="-118.353" x2="-667.692" y2="731.883" gradientUnits="userSpaceOnUse">
<stop stop-color="#AFB388"/>
<stop offset="0.31" stop-color="#41929E"/>
<stop offset="0.49" stop-color="#27758D"/>
<stop offset="0.68" stop-color="#115C7E"/>
<stop offset="0.86" stop-color="#044D76"/>
<stop offset="1" stop-color="#004873"/>
</linearGradient>
<linearGradient id="paint6_linear_724_27381" x1="157.4" y1="-125.09" x2="-674.577" y2="725.145" gradientUnits="userSpaceOnUse">
<stop stop-color="#AFB388"/>
<stop offset="0.31" stop-color="#41929E"/>
<stop offset="0.49" stop-color="#27758D"/>
<stop offset="0.68" stop-color="#115C7E"/>
<stop offset="0.86" stop-color="#044D76"/>
<stop offset="1" stop-color="#004873"/>
</linearGradient>
<linearGradient id="paint7_linear_724_27381" x1="150.611" y1="-131.702" x2="-681.365" y2="718.534" gradientUnits="userSpaceOnUse">
<stop stop-color="#AFB388"/>
<stop offset="0.31" stop-color="#41929E"/>
<stop offset="0.49" stop-color="#27758D"/>
<stop offset="0.68" stop-color="#115C7E"/>
<stop offset="0.86" stop-color="#044D76"/>
<stop offset="1" stop-color="#004873"/>
</linearGradient>
<linearGradient id="paint8_linear_724_27381" x1="144.015" y1="-138.2" x2="-688.018" y2="712.035" gradientUnits="userSpaceOnUse">
<stop stop-color="#AFB388"/>
<stop offset="0.31" stop-color="#41929E"/>
<stop offset="0.49" stop-color="#27758D"/>
<stop offset="0.68" stop-color="#115C7E"/>
<stop offset="0.86" stop-color="#044D76"/>
<stop offset="1" stop-color="#004873"/>
</linearGradient>
<linearGradient id="paint9_linear_724_27381" x1="255.373" y1="-29.2274" x2="-576.603" y2="821.008" gradientUnits="userSpaceOnUse">
<stop stop-color="#AFB388"/>
<stop offset="0.31" stop-color="#41929E"/>
<stop offset="0.49" stop-color="#27758D"/>
<stop offset="0.68" stop-color="#115C7E"/>
<stop offset="0.86" stop-color="#044D76"/>
<stop offset="1" stop-color="#004873"/>
</linearGradient>
<linearGradient id="paint10_linear_724_27381" x1="285.113" y1="-0.124608" x2="-546.864" y2="850.111" gradientUnits="userSpaceOnUse">
<stop stop-color="#AFB388"/>
<stop offset="0.31" stop-color="#41929E"/>
<stop offset="0.49" stop-color="#27758D"/>
<stop offset="0.68" stop-color="#115C7E"/>
<stop offset="0.86" stop-color="#044D76"/>
<stop offset="1" stop-color="#004873"/>
</linearGradient>
<linearGradient id="paint11_linear_724_27381" x1="276.088" y1="-8.91994" x2="-555.889" y2="841.316" gradientUnits="userSpaceOnUse">
<stop stop-color="#AFB388"/>
<stop offset="0.31" stop-color="#41929E"/>
<stop offset="0.49" stop-color="#27758D"/>
<stop offset="0.68" stop-color="#115C7E"/>
<stop offset="0.86" stop-color="#044D76"/>
<stop offset="1" stop-color="#004873"/>
</linearGradient>
<linearGradient id="paint12_linear_724_27381" x1="265.121" y1="-19.631" x2="-566.855" y2="830.605" gradientUnits="userSpaceOnUse">
<stop stop-color="#AFB388"/>
<stop offset="0.31" stop-color="#41929E"/>
<stop offset="0.49" stop-color="#27758D"/>
<stop offset="0.68" stop-color="#115C7E"/>
<stop offset="0.86" stop-color="#044D76"/>
<stop offset="1" stop-color="#004873"/>
</linearGradient>
<linearGradient id="paint13_linear_724_27381" x1="245.037" y1="-39.3251" x2="-586.939" y2="810.91" gradientUnits="userSpaceOnUse">
<stop stop-color="#AFB388"/>
<stop offset="0.31" stop-color="#41929E"/>
<stop offset="0.49" stop-color="#27758D"/>
<stop offset="0.68" stop-color="#115C7E"/>
<stop offset="0.86" stop-color="#044D76"/>
<stop offset="1" stop-color="#004873"/>
</linearGradient>
<linearGradient id="paint14_linear_724_27381" x1="213.265" y1="-70.4132" x2="-618.711" y2="779.822" gradientUnits="userSpaceOnUse">
<stop stop-color="#AFB388"/>
<stop offset="0.31" stop-color="#41929E"/>
<stop offset="0.49" stop-color="#27758D"/>
<stop offset="0.68" stop-color="#115C7E"/>
<stop offset="0.86" stop-color="#044D76"/>
<stop offset="1" stop-color="#004873"/>
</linearGradient>
<linearGradient id="paint15_linear_724_27381" x1="234.149" y1="-50.0041" x2="-597.828" y2="800.232" gradientUnits="userSpaceOnUse">
<stop stop-color="#AFB388"/>
<stop offset="0.31" stop-color="#41929E"/>
<stop offset="0.49" stop-color="#27758D"/>
<stop offset="0.68" stop-color="#115C7E"/>
<stop offset="0.86" stop-color="#044D76"/>
<stop offset="1" stop-color="#004873"/>
</linearGradient>
<linearGradient id="paint16_linear_724_27381" x1="224.048" y1="-59.8711" x2="-607.928" y2="790.365" gradientUnits="userSpaceOnUse">
<stop stop-color="#AFB388"/>
<stop offset="0.31" stop-color="#41929E"/>
<stop offset="0.49" stop-color="#27758D"/>
<stop offset="0.68" stop-color="#115C7E"/>
<stop offset="0.86" stop-color="#044D76"/>
<stop offset="1" stop-color="#004873"/>
</linearGradient>
</defs>
</svg>
