<svg width="393" height="398" viewBox="0 0 393 398" fill="none" xmlns="http://www.w3.org/2000/svg">
<g opacity="0.05">
<path d="M572.347 397.925C563.085 397.925 553.823 397.165 544.673 395.691C505.31 389.304 469.56 369.696 441.266 338.922C422.798 318.867 409.357 297.338 395.069 274.603C343.506 192.284 290.193 107.107 -3.70837 78.7441C-28.4449 76.3768 -51.0917 75.0368 -73.0609 73.7415C-152.127 67.8457 -284.394 57.9299 -323.588 -64.722C-334.827 -99.9185 -357.474 -218.818 -176.468 -272.283C-99.0963 -295.465 -20.4818 -291.757 52.9935 -284.298C134.432 -276.035 181.307 -259.196 249.699 -226.903C279.519 -212.789 303.634 -196.62 327.749 -174.465C349.492 -154.545 366.266 -131.631 379.086 -104.43C382.249 -97.7746 385.298 -90.896 388.292 -84.2855L388.404 -84.0175C401.055 -55.8782 414.101 -26.8008 436.127 -2.36874C462.727 27.1553 496.895 46.1828 533.152 66.327C557.832 80.084 583.303 94.2878 608.322 112.735C636.729 133.683 660.223 157.132 680.103 184.423C709.64 224.89 720.54 265.804 711.673 302.698C703.823 335.348 680.95 362.862 647.234 380.193C626.846 390.689 603.409 396.719 579.519 397.746C577.147 397.835 574.719 397.88 572.347 397.88V397.925ZM-43.6934 -287.872C-87.2928 -287.872 -131.626 -283.45 -175.508 -270.273C-354.424 -217.434 -332.06 -99.9632 -320.99 -65.2133C-304.217 -12.7758 -269.936 23.2693 -216.115 44.9768C-171.216 63.0664 -120.727 68.1137 -72.835 71.6869C-50.8658 72.9822 -28.106 74.3222 -3.36954 76.6895C291.943 105.186 345.596 190.855 397.441 273.71C411.672 296.4 425.057 317.839 443.412 337.76C471.311 368.088 506.496 387.428 545.182 393.682C556.477 395.513 567.998 396.183 579.35 395.736C602.787 394.754 625.773 388.813 645.766 378.54C678.804 361.567 701.281 334.5 709.019 302.43C717.772 266.027 706.985 225.649 677.787 185.584C658.021 158.472 634.696 135.201 606.458 114.387C581.552 96.0297 556.195 81.8707 531.571 68.203C495.144 47.9248 460.75 28.7632 433.868 -1.02875C411.616 -25.7289 398.514 -54.9402 385.807 -83.2135L385.694 -83.5262C382.7 -90.1367 379.651 -96.9706 376.488 -103.626C363.781 -130.604 347.12 -153.294 325.603 -173.036C301.657 -195.012 277.768 -211.047 248.175 -225.027C180.121 -257.186 133.472 -273.936 52.4852 -282.154C21.1411 -285.326 -11.1632 -287.827 -43.8628 -287.827L-43.6934 -287.872Z" fill="url(#paint0_linear_724_27490)"/>
<path d="M704.152 235.649C699.295 218.72 690.824 201.479 679.02 184.372C637.567 124.431 587.473 94.5498 538.96 65.6511C516.369 52.1621 494.965 39.4324 475.311 24.1121C465.597 16.5189 456.787 8.52371 448.485 -0.364746C438.206 -11.3078 430.695 -20.8216 424.709 -30.3801C416.633 -43.3778 410.703 -57.3134 406.015 -69.2838C404.942 -72.0531 403.869 -74.8671 402.796 -77.5916L402.457 -78.4403C398.786 -87.9541 395.002 -97.7359 390.371 -107.205C377.325 -133.602 360.495 -155.757 338.865 -174.873C318.929 -192.516 294.362 -208.328 261.493 -224.631C200.951 -254.691 133.18 -272.781 65.4648 -276.845C59.9302 -277.292 52.9837 -277.202 44.2863 -277.068C30.7321 -276.845 13.5634 -276.622 -6.99387 -278.319C-37.0391 -280.776 -82.7847 -284.528 -143.157 -271.843C-293.666 -240.309 -309.931 -149.816 -311.682 -131.994C-316.2 -90.1874 -296.49 25.7647 -152.928 59.7552C-131.806 65.6511 -82.2763 69.939 -38.5639 73.7356C-18.7408 75.4329 -0.0473022 77.0855 12.9422 78.6041C288.94 108.887 342.423 190.09 394.212 268.656C408.895 290.9 422.732 311.937 441.539 331.456C460.176 350.841 481.467 365.402 504.792 374.693C525.462 382.911 547.149 387.11 569.231 387.11C571.603 387.11 573.975 387.065 576.403 386.976C581.994 386.752 587.642 386.216 593.177 385.457C621.584 381.437 647.394 370.494 667.781 353.834C691.106 334.762 705.168 309.928 708.444 282.056C710.195 267.093 708.783 251.46 704.208 235.604L704.152 235.649ZM705.733 281.922C702.514 309.302 688.734 333.69 665.805 352.405C645.812 368.752 620.567 379.472 592.668 383.402C587.247 384.162 581.712 384.698 576.234 384.921C552.231 385.948 528.455 381.839 505.978 372.861C483.048 363.66 462.039 349.323 443.628 330.206C424.991 310.821 411.154 289.873 396.527 267.674C344.456 188.66 290.635 106.967 13.281 76.5495C0.291534 74.9862 -18.4584 73.3783 -38.2815 71.681C-81.8245 67.929 -131.185 63.6411 -152.081 57.7899C-294.005 24.1567 -313.489 -90.4554 -309.027 -131.816C-307.333 -149.369 -291.237 -238.656 -142.48 -269.788C-82.5587 -282.339 -37.0956 -278.632 -7.27625 -276.175C13.4504 -274.478 30.7321 -274.701 44.3428 -274.924C52.9836 -275.058 59.8173 -275.148 65.239 -274.746C132.502 -270.681 199.878 -252.726 260.081 -222.844C292.724 -206.631 317.122 -190.908 336.888 -173.444C358.293 -154.506 374.953 -132.575 387.886 -106.401C392.517 -97.0212 396.301 -87.2394 399.972 -77.681L400.255 -76.9217C401.328 -74.1524 402.401 -71.3385 403.474 -68.6138C408.218 -56.5988 414.148 -42.5291 422.337 -29.3974C428.38 -19.7496 436.004 -10.1019 446.339 0.930542C454.754 9.90836 463.621 17.9929 473.448 25.6754C493.214 41.1296 514.675 53.9041 537.378 67.3931C585.665 96.1577 635.534 125.86 676.705 185.444C688.395 202.373 696.754 219.435 701.61 236.185C706.129 251.818 707.484 267.227 705.79 281.967L705.733 281.922Z" fill="url(#paint1_linear_724_27490)"/>
<path d="M677.914 184.697C639.397 125.337 590.828 94.4279 543.897 64.4572C523.961 51.7722 505.154 39.7572 487.251 25.7768C478.159 18.675 469.518 10.9032 460.82 1.97006C451.163 -7.94571 441.901 -17.7275 434.841 -28.7599C426.314 -42.1149 421.061 -56.3186 416.6 -69.629C415.753 -72.1749 414.905 -74.7655 414.058 -77.4454C410.613 -88.0759 407.055 -99.1083 401.634 -109.56C376.389 -158.558 339.171 -191.12 273.207 -221.939C208.768 -252.088 139.416 -267.989 77.9698 -266.828C72.661 -266.738 67.8605 -266.56 63.3424 -266.426C44.5924 -265.8 29.7957 -265.354 -5.78412 -269.15C-77.8475 -275.85 -111.62 -269.776 -125.344 -267.319C-225.193 -248.738 -285.227 -199.025 -290.931 -130.062C-294.263 -70.3436 -264.049 -17.2362 -200.909 25.4195C-174.365 43.2411 -153.864 50.7896 -129.41 57.2661C-104.391 63.8319 -69.8844 69.1025 -26.7368 72.9437C-8.2691 74.5517 10.1421 76.517 29.5134 78.9289C287.383 110.999 343.52 191.71 393.049 262.996C408.185 284.793 422.473 305.339 441.732 324.367C460.312 342.769 481.039 356.481 503.347 365.057C523.565 372.784 544.631 376.715 566.092 376.715C568.464 376.715 570.836 376.67 573.264 376.581C578.912 376.357 584.616 375.821 590.15 375.018C617.88 371.042 643.068 360.456 662.892 344.377C685.143 326.377 698.867 302.927 702.538 276.664C706.604 247.676 698.076 215.874 677.801 184.652L677.914 184.697ZM699.996 276.485C696.382 302.302 682.884 325.305 661.084 342.948C641.6 358.714 616.977 369.077 589.755 373.008C584.277 373.767 578.742 374.303 573.151 374.526C549.827 375.509 526.615 371.668 504.589 363.226C482.62 354.784 462.232 341.25 443.878 323.116C424.789 304.222 410.557 283.721 395.421 261.969C345.609 190.325 289.133 109.078 29.9652 76.8743C10.5374 74.4623 -7.93024 72.4971 -26.4543 70.8445C-69.3761 67.0479 -103.77 61.822 -128.563 55.2561C-152.735 48.869 -172.953 41.4098 -199.158 23.8115C-261.62 -18.3975 -291.553 -70.9689 -288.277 -129.972C-282.573 -197.864 -223.33 -246.952 -124.779 -265.264C-115.912 -266.872 -97.4447 -270.178 -66.7782 -270.178C-50.6826 -270.178 -30.7465 -269.329 -6.12296 -267.051C29.6828 -263.21 44.5359 -263.701 63.4554 -264.326C67.9735 -264.46 72.7175 -264.639 78.0262 -264.728C139.02 -265.89 207.808 -250.078 271.852 -220.152C337.251 -189.556 374.13 -157.308 399.149 -108.801C404.457 -98.483 408.015 -87.5399 411.46 -76.9541C412.308 -74.2742 413.155 -71.6389 414.002 -69.1376C418.464 -55.6933 423.772 -41.4003 432.413 -27.8666C439.529 -16.7002 448.904 -6.8291 458.618 3.17599C467.428 12.1538 476.125 20.015 485.274 27.2061C503.29 41.2758 522.153 53.2908 542.146 66.0205C588.908 95.8125 637.195 126.587 675.486 185.546C695.535 216.41 703.95 247.81 699.94 276.396L699.996 276.485Z" fill="url(#paint2_linear_724_27490)"/>
<path d="M675.755 185.271C642.434 124.839 594.938 90.4463 549.023 57.2151L548.741 57.0364C536.316 48.0587 523.496 38.7682 511.128 29.0757C503.221 22.8672 495.032 15.7207 485.488 6.60892C483.85 5.00098 482.099 3.43765 480.348 1.74036L479.727 1.1597C470.86 -7.1481 461.655 -15.7239 455.103 -25.5503C445.615 -39.7987 441.21 -55.521 437.822 -70.3946C437.314 -72.6279 436.862 -74.8612 436.353 -77.1391C433.699 -89.5562 430.932 -102.42 424.268 -114.39C410.883 -138.376 393.94 -158.207 372.536 -174.912C352.543 -190.501 328.484 -203.766 296.745 -216.675C241.794 -239.007 180.63 -250.844 119.806 -250.844C110.487 -250.933 100.321 -249.727 89.5909 -248.521C69.3161 -246.243 40.2874 -244.769 16.1157 -249.459C-3.31207 -253.211 -41.9416 -260.626 -88.3084 -257.901C-159.581 -251.424 -199.284 -225.34 -220.067 -204.57C-250.112 -174.555 -257.228 -140.118 -253.896 -117.919C-244.747 -55.923 -195.274 0.087738 -114.57 39.7955C-70.9138 61.2797 20.1255 73.1607 21.0291 73.2947C34.4139 75.2153 48.2505 77.1806 62.9343 79.5479C284.207 114.789 340.457 187.192 390.156 251.109C406.534 272.191 422.009 292.067 442.453 310.335C460.977 326.817 480.574 338.787 500.849 345.889C520.107 352.634 540.043 356.073 560.092 356.073C562.464 356.073 564.893 356.028 567.265 355.939C572.969 355.716 578.616 355.18 584.207 354.376C610.525 350.579 634.415 340.753 653.334 325.879C673.553 309.978 686.768 289.298 691.399 266.116C696.538 240.478 691.342 213.277 675.868 185.271H675.755ZM688.632 265.759C684.057 288.494 671.18 308.772 651.301 324.36C632.833 338.877 609.396 348.524 583.586 352.276C578.165 353.08 572.573 353.572 566.982 353.795C545.013 354.733 522.931 351.383 501.753 343.924C481.873 336.956 462.502 325.164 444.26 308.861C423.985 290.772 408.567 270.94 392.246 249.947C342.321 185.673 285.732 112.868 63.3296 77.4486C48.6458 75.126 34.7528 73.1161 21.368 71.1954C20.4644 71.0614 -70.0666 59.225 -113.271 38.0089C-193.297 -1.34155 -242.318 -56.8163 -251.355 -118.142C-254.63 -139.939 -247.571 -173.751 -218.09 -203.23C-188.723 -232.576 -143.824 -250.754 -88.1389 -255.802C-80.4017 -256.248 -73.0598 -256.472 -66.0568 -256.472C-31.7194 -256.472 -0.544724 -250.531 15.438 -247.405C40.0615 -242.625 69.429 -244.099 89.9298 -246.422C100.604 -247.628 110.769 -248.7 119.749 -248.7C180.122 -248.7 240.89 -236.953 295.502 -214.799C326.959 -202.024 350.849 -188.848 370.615 -173.394C391.794 -156.867 408.567 -137.259 421.783 -113.497C428.277 -101.795 431.045 -89.0649 433.699 -76.7372C434.207 -74.4592 434.659 -72.1813 435.167 -69.948C438.556 -54.8957 443.074 -38.9947 452.731 -24.523C459.396 -14.5179 468.658 -5.80814 477.637 2.54434L478.259 3.125C480.066 4.77765 481.76 6.38559 483.398 7.99356C492.999 17.1947 501.244 24.3412 509.207 30.5944C521.632 40.3315 534.452 49.6219 546.877 58.5997L547.159 58.7784C592.905 91.8756 640.175 126.089 673.27 186.12C688.519 213.768 693.658 240.568 688.575 265.804L688.632 265.759Z" fill="url(#paint3_linear_724_27490)"/>
<path d="M546.589 314.353C529.59 314.353 512.365 311.986 495.366 307.34C478.423 302.695 461.932 294.655 443.464 282.015C417.937 264.551 398.227 244.541 377.387 223.369C329.27 174.55 274.827 119.254 129.345 80.6624L128.102 80.3051C53.4976 60.5182 4.25058 47.4311 -54.7103 1.3362C-66.2879 -7.68626 -78.2608 -16.2621 -89.8384 -24.5699C-114.575 -42.2575 -137.843 -58.9178 -154.955 -78.2133C-158.287 -82.0099 -161.393 -85.8958 -164.217 -89.5584C-179.07 -108.809 -185.339 -132.08 -181.442 -153.341C-176.529 -180.051 -156.028 -202.964 -122.143 -219.669C-98.9875 -231.059 -73.7428 -236.598 -44.94 -236.598C-22.0108 -236.598 0.297272 -233.069 17.1271 -229.987C31.8109 -227.307 44.2921 -222.037 56.3779 -216.989C67.1084 -212.478 78.1777 -207.833 90.9977 -204.885C96.5324 -203.59 102.519 -202.92 108.731 -202.92C125.222 -202.92 140.923 -207.342 154.816 -211.183C162.779 -213.416 169.612 -215.337 175.542 -216.141C195.422 -218.865 215.584 -220.205 235.576 -220.205C273.076 -220.205 309.39 -215.471 343.615 -206.091C405.117 -189.252 443.916 -163.927 469.387 -123.951C478.367 -109.881 479.101 -94.0696 479.778 -78.794V-78.124C479.891 -75.98 480.004 -73.9254 480.117 -71.9155C481.134 -55.1212 483.788 -35.7363 495.592 -19.076C502.651 -9.16023 513.156 -1.0311 523.321 6.83005C526.936 9.59932 531.002 12.7706 534.73 15.8972L538.175 18.8004C545.178 24.6516 551.785 30.1902 558.732 35.6394C588.777 59.2229 610.972 80.6624 628.593 103.219C648.811 129.125 662.817 156.371 671.289 186.565C677.049 207.066 676.315 226.719 669.199 244.943C662.535 261.96 650.223 277.146 633.619 288.849C611.876 304.169 584.372 312.968 554.044 314.219C551.559 314.308 549.018 314.398 546.477 314.398L546.589 314.353ZM-44.8835 -234.454C-73.178 -234.454 -97.971 -229.004 -120.674 -217.838C-153.882 -201.49 -173.988 -179.068 -178.732 -152.984C-182.572 -132.169 -176.416 -109.435 -161.845 -90.5857C-159.022 -86.9678 -156.028 -83.0819 -152.696 -79.33C-135.81 -60.2131 -112.598 -43.6421 -88.0877 -26.0885C-76.3971 -17.736 -64.4242 -9.16023 -52.7902 -0.0931091C5.71895 45.6445 54.7401 58.6869 129.006 78.3844L130.249 78.7418C276.465 117.556 331.247 173.12 379.534 222.118C400.317 243.245 419.97 263.166 445.272 280.496C463.457 292.958 479.666 300.864 496.27 305.42C515.471 310.69 535.012 312.968 554.044 312.164C583.751 310.914 610.69 302.338 631.981 287.33C648.246 275.851 660.276 261.022 666.827 244.362C673.83 226.496 674.508 207.2 668.86 187.056C660.445 157.13 646.609 130.063 626.503 104.38C608.996 81.9577 586.913 60.6075 557.038 37.158C550.035 31.6642 543.427 26.1256 536.424 20.2744L532.979 17.3711C529.308 14.2892 525.242 11.1626 521.627 8.39337C511.292 0.442886 500.618 -7.82027 493.389 -18.004C481.303 -35.0663 478.592 -54.7639 477.576 -71.7815C477.463 -73.7914 477.35 -75.8907 477.237 -77.99V-78.66C476.503 -93.7123 475.769 -109.256 467.071 -122.924C441.94 -162.408 403.649 -187.421 342.824 -204.036C308.882 -213.327 272.85 -218.017 235.633 -218.017C215.81 -218.017 195.761 -216.632 176.051 -213.952C170.346 -213.193 163.569 -211.272 155.776 -209.084C141.713 -205.153 125.73 -200.686 108.788 -200.686C102.349 -200.686 96.137 -201.356 90.3199 -202.696C77.274 -205.734 66.0918 -210.424 55.2484 -214.979C43.332 -219.982 31.0202 -225.163 16.6753 -227.799C-0.0415955 -230.88 -22.1237 -234.364 -44.827 -234.364L-44.8835 -234.454Z" fill="url(#paint4_linear_724_27490)"/>
<path d="M670.264 186.919C664.616 157.306 653.434 130.551 636.04 105.047C619.774 81.1512 598.37 58.997 570.753 37.2895C565.331 33.0463 559.797 28.5351 554.432 24.1578L547.09 18.2173C543.137 15.046 538.957 11.9194 534.778 8.79283C524.104 0.887024 513.035 -7.33147 505.749 -17.4706C493.268 -34.8455 491.122 -54.945 490.727 -72.32C490.67 -74.6426 490.614 -76.9652 490.614 -79.6005C490.388 -95.4568 490.162 -111.849 480.674 -126.321C467.515 -146.42 450.629 -162.411 429.111 -175.23C409.119 -187.155 385.004 -196.356 355.354 -203.414C326.608 -210.247 296.167 -213.687 264.823 -213.687C240.425 -213.687 215.689 -211.543 191.291 -207.389C185.756 -206.451 179.318 -204.352 171.863 -201.94C157.462 -197.294 141.084 -192.024 123.802 -192.024C117.477 -192.024 111.378 -192.783 105.73 -194.213C92.6276 -197.562 81.3888 -202.922 70.5454 -208.148C58.6855 -213.821 46.4866 -219.717 31.8029 -222.843C12.0928 -227.086 -18.5737 -231.553 -44.3267 -231.24C-67.1995 -230.928 -88.7733 -225.568 -110.291 -214.759C-125.991 -206.898 -138.642 -197.562 -147.791 -187.111C-156.149 -177.642 -161.684 -167.145 -164.282 -155.979C-169.873 -131.949 -161.514 -105.194 -141.861 -84.4244C-138.642 -80.9851 -135.14 -77.3672 -131.3 -73.7939C-114.865 -58.3843 -94.3079 -45.1186 -72.4517 -31.0043C-56.9773 -20.9991 -40.9382 -10.592 -25.6332 1.0657C30.7299 44.0787 76.8143 59.9797 145.997 81.0172C271.769 119.34 324.8 170.125 371.562 214.969C394.379 236.811 415.896 257.447 443.852 275.045C462.094 286.524 478.02 293.76 494.115 297.78C510.437 301.889 526.815 303.988 542.741 303.988C545.283 303.988 547.824 303.943 550.365 303.809C556.465 303.541 562.621 302.961 568.664 302.112C591.254 298.807 612.094 291.035 628.924 279.69C662.188 257.223 677.267 223.456 670.32 186.964L670.264 186.919ZM627.116 278.037C610.625 289.159 590.181 296.752 568.099 299.968C562.169 300.817 556.126 301.398 550.139 301.621C532.067 302.38 513.43 300.37 494.793 295.68C479.036 291.705 463.336 284.603 445.377 273.303C417.647 255.839 396.186 235.292 373.483 213.54C326.495 168.517 273.238 117.464 146.788 78.9626C77.8873 57.9697 32.0288 42.1581 -23.9389 -0.542267C-39.3003 -12.2447 -55.3395 -22.6518 -70.9834 -32.7462C-92.6137 -46.7266 -113.058 -59.9922 -129.38 -75.2232C-133.107 -78.7518 -136.608 -82.3697 -139.828 -85.7643C-159.029 -106.087 -167.218 -132.217 -161.74 -155.711C-159.199 -166.564 -153.834 -176.793 -145.701 -186.039C-136.721 -196.267 -124.353 -205.379 -108.935 -213.106C-87.8132 -223.692 -65.3923 -228.962 -43.0278 -229.275C-18.1783 -229.275 12.1493 -224.942 31.0122 -220.923C45.3007 -217.841 57.3865 -212.034 69.1335 -206.406C80.0899 -201.136 91.3851 -195.686 104.826 -192.292C110.813 -190.773 117.138 -190.014 123.746 -190.014C141.536 -190.014 158.14 -195.374 172.823 -200.108C180.165 -202.476 186.491 -204.53 191.799 -205.424C216.028 -209.577 240.595 -211.677 264.823 -211.677C295.885 -211.677 326.043 -208.238 354.563 -201.493C383.931 -194.525 407.82 -185.413 427.53 -173.666C448.709 -161.026 465.312 -145.259 478.302 -125.427C487.508 -111.402 487.734 -95.2781 487.903 -79.4665C487.903 -77.0099 487.959 -74.6872 488.016 -72.3646C488.411 -54.7217 490.614 -34.3095 503.377 -16.5326C510.889 -6.08081 522.071 2.22697 533.027 10.3561C537.094 13.3487 541.216 16.4306 545.113 19.6019L552.455 25.5424C557.82 29.9197 563.355 34.4309 568.777 38.6742C596.224 60.2477 617.459 82.2679 633.611 105.941C650.836 131.221 661.905 157.753 667.497 187.143C674.33 222.92 659.534 256.017 627.003 277.948L627.116 278.037Z" fill="url(#paint5_linear_724_27490)"/>
<path d="M669.191 187.273C664.222 130.011 635.136 80.0752 582.727 38.8935C579.112 36.0349 575.441 33.1317 571.714 30.1837C567.704 27.0125 563.638 23.7519 559.515 20.4913C555.336 17.2307 550.874 14.0147 546.413 10.8435C535.174 2.84833 523.54 -5.45947 515.916 -15.9112C502.757 -34.0008 501.232 -55.7977 501.345 -72.7706C501.345 -75.1379 501.345 -77.4605 501.458 -80.1851C501.74 -95.9521 502.136 -113.818 492.026 -128.737C466.895 -165.898 427.248 -188.767 367.101 -200.782C317.12 -210.787 261.266 -210.073 207.049 -198.728C202.022 -197.656 195.979 -195.467 188.976 -192.921C174.801 -187.74 157.237 -181.308 138.769 -181.308C132.387 -181.308 126.231 -182.112 120.527 -183.675C107.086 -187.383 95.7909 -193.502 84.891 -199.398C73.2569 -205.696 61.2276 -212.217 46.4873 -215.835C25.2523 -221.016 -0.613647 -226.331 -26.3102 -226.51C-52.5715 -226.51 -76.5738 -221.105 -98.3735 -209.983C-127.515 -195.11 -145.023 -174.832 -148.976 -151.337C-153.946 -121.769 -137.003 -94.8354 -119.496 -79.4258C-116.051 -76.4332 -111.984 -72.9046 -107.692 -69.51C-91.8788 -57.1823 -73.4677 -46.5519 -53.8705 -35.3408C-34.7816 -24.3531 -15.0715 -13.008 3.33968 0.659714C56.4271 40.1441 98.5582 58.8144 162.545 81.3259C268.325 118.577 319.04 164.717 363.769 205.407C389.071 228.41 412.96 250.162 444.078 268.028C461.981 278.301 477.456 284.733 492.704 288.217C508.178 291.746 523.766 293.532 539.014 293.532C541.669 293.532 544.379 293.488 546.977 293.354C576.062 292.148 602.776 284.242 624.18 270.574C655.637 250.475 672.015 220.191 669.191 187.362V187.273ZM622.486 268.832C601.477 282.232 575.328 289.959 546.808 291.165C529.413 291.88 511.341 290.182 493.382 286.073C478.416 282.679 463.224 276.336 445.603 266.242C414.711 248.509 390.934 226.847 365.746 203.933C320.848 163.064 269.906 116.746 163.562 79.3159C99.9136 56.8938 57.8954 38.3129 5.09041 -0.948257C-13.4337 -14.7499 -33.2567 -26.1397 -52.4021 -37.1274C-71.8298 -48.2938 -90.241 -58.8796 -105.885 -71.0733C-110.177 -74.4232 -114.187 -77.9072 -117.632 -80.8997C-134.744 -95.9074 -151.348 -122.26 -146.491 -151.114C-142.651 -173.983 -125.538 -193.725 -97.0746 -208.286C-75.7267 -219.185 -52.1762 -224.455 -26.4796 -224.455C-1.12193 -224.276 24.5182 -219.006 45.5272 -213.869C59.8721 -210.341 71.7321 -203.909 83.2531 -197.7C94.266 -191.715 105.674 -185.551 119.454 -181.71C125.441 -180.057 131.879 -179.209 138.6 -179.209C157.632 -179.209 175.535 -185.73 189.936 -191.001C196.826 -193.502 202.756 -195.69 207.613 -196.718C261.435 -207.974 316.781 -208.688 366.367 -198.772C425.667 -186.891 464.861 -164.335 489.598 -127.754C499.368 -113.282 499.029 -95.7288 498.747 -80.2298C498.747 -77.5052 498.634 -75.1379 498.634 -72.7706C498.521 -55.5297 500.102 -33.3755 513.544 -14.8393C521.337 -4.11951 533.141 4.27763 544.662 12.4961C548.954 15.578 553.416 18.7493 557.538 21.9652C561.661 25.1811 565.784 28.4417 569.737 31.613C573.465 34.5609 577.136 37.5089 580.75 40.3228C632.708 81.1472 661.511 130.592 666.424 187.362C669.191 219.477 653.152 249.135 622.373 268.788L622.486 268.832Z" fill="url(#paint6_linear_724_27490)"/>
<path d="M534.662 282.949C520.543 282.949 505.972 281.43 491.345 278.482C476.605 275.489 462.091 270.04 444.357 260.884C408.947 242.571 382.008 219.077 353.487 194.198C311.865 157.84 264.651 116.703 179.033 81.5065C120.241 57.3424 81.8378 36.0816 32.3084 0.215073C11.2429 -15.0606 -11.8558 -26.6736 -34.1638 -37.9294C-52.0667 -46.9519 -68.953 -55.4383 -84.0886 -65.3541C-87.9854 -67.9 -92.1647 -70.8033 -97.1911 -74.5552C-122.21 -92.9575 -136.668 -121.32 -133.957 -146.824C-131.472 -170.274 -115.094 -190.507 -86.63 -205.292C-65.3386 -216.369 -42.5788 -221.729 -17.0516 -221.729C10.1698 -221.729 36.5441 -215.565 60.9982 -208.865C75.8514 -204.8 87.7113 -197.609 99.2324 -190.641C110.132 -184.031 121.371 -177.242 135.151 -173.132C141.025 -171.39 147.293 -170.497 153.845 -170.497C173.046 -170.497 191.288 -177.912 205.916 -183.897C212.467 -186.577 218.171 -188.899 222.745 -190.016C256.066 -198.324 289.613 -202.522 322.482 -202.522C341.797 -202.522 360.716 -201.048 378.789 -198.1C407.817 -193.41 431.763 -185.996 451.925 -175.5C473.499 -164.244 490.272 -149.728 503.262 -131.102C513.992 -115.692 513.088 -97.1114 512.241 -80.7191C512.128 -77.9498 511.959 -75.5379 511.902 -73.1259C511.225 -55.5277 512.298 -32.9715 526.021 -14.2566C533.928 -3.49219 546.183 4.90494 557.987 13.0341C562.392 16.0267 567.305 19.4213 571.767 22.8159C579.73 28.8457 587.467 34.8756 594.583 40.5034C619.602 60.1563 638.578 83.0251 651.059 108.44C663.258 133.229 668.906 159.895 668.002 187.632C667.042 216.665 649.365 243.509 619.546 261.286C603.168 271.068 583.401 277.812 562.335 280.894C555.954 281.832 549.402 282.413 542.908 282.681C540.14 282.815 537.373 282.859 534.606 282.859L534.662 282.949ZM-16.9952 -219.629C-41.9576 -219.629 -64.2656 -214.359 -85.1052 -203.505C-112.891 -189.078 -128.818 -169.38 -131.246 -146.601C-133.9 -121.722 -119.781 -94.0294 -95.3274 -76.0739C-90.301 -72.3666 -86.1782 -69.4633 -82.3379 -66.9621C-67.3152 -57.1356 -50.5419 -48.6938 -32.7519 -39.7607C-10.2745 -28.4603 12.8807 -16.7579 34.1721 -1.3929C83.5321 34.3396 121.823 55.5558 180.332 79.5859C266.401 114.961 313.728 156.277 355.52 192.724C383.928 217.513 410.754 240.918 445.882 259.052C463.39 268.075 477.621 273.435 492.079 276.383C509.305 279.867 526.36 281.296 542.851 280.626C549.29 280.358 555.728 279.777 561.94 278.839C582.61 275.802 602.038 269.192 618.077 259.588C647.219 242.214 664.501 215.95 665.461 187.543C666.421 160.029 660.773 133.676 648.687 109.155C636.376 84.0078 617.569 61.407 592.832 41.9774C585.66 36.3496 577.979 30.3197 570.016 24.2898C565.611 20.9399 560.698 17.5453 556.349 14.5974C544.32 6.33427 531.895 -2.19688 523.819 -13.2293C509.7 -32.4355 508.683 -55.349 509.305 -73.2153C509.361 -75.6272 509.531 -78.0391 509.643 -80.5851C510.491 -96.9327 511.394 -115.246 501.003 -130.119C488.239 -148.432 471.748 -162.725 450.513 -173.758C430.634 -184.12 406.97 -191.445 378.28 -196.09C360.377 -198.994 341.627 -200.468 322.482 -200.468C289.895 -200.468 256.631 -196.314 223.536 -188.051C219.187 -186.979 213.596 -184.701 207.158 -182.065C192.248 -175.991 173.724 -168.398 153.845 -168.398C147.011 -168.398 140.403 -169.336 134.191 -171.167C120.072 -175.366 108.664 -182.289 97.5946 -188.989C86.2994 -195.822 74.5524 -202.924 60.0946 -206.9C35.8664 -213.51 9.77449 -219.629 -17.1081 -219.629H-16.9952Z" fill="url(#paint7_linear_724_27490)"/>
<path d="M530.31 272.458C517.151 272.458 503.596 271.252 490.042 268.84C475.923 266.339 461.974 261.694 444.692 253.833C403.464 234.939 372.741 208.765 340.268 181.028C303.22 149.404 261.258 113.627 195.633 81.7361C142.489 55.9193 106.457 31.4872 61.3893 -0.225403C37.9518 -16.707 11.7469 -28.0968 -13.6108 -39.1292C-30.1582 -46.3204 -45.8021 -53.1095 -60.3729 -61.1047C-64.891 -63.5613 -69.5785 -66.3306 -74.7743 -69.5912C-87.5943 -77.5416 -99.0025 -88.7527 -106.853 -101.08C-115.38 -114.48 -119.56 -128.728 -118.882 -142.262C-117.753 -165.667 -102.448 -185.811 -74.6613 -200.506C-53.8217 -211.539 -31.5701 -216.898 -6.7207 -216.898C21.9691 -216.898 49.8683 -209.663 75.7343 -201.891C90.7004 -197.38 102.447 -189.518 113.799 -181.925C124.699 -174.645 135.938 -167.096 150 -162.63C156.043 -160.709 162.481 -159.726 169.146 -159.726C189.138 -159.726 207.944 -168.213 223.024 -175.047C229.123 -177.816 234.375 -180.183 238.554 -181.389C276.168 -192.377 313.781 -197.916 350.434 -197.916C364.101 -197.916 377.598 -197.112 390.588 -195.548C449.266 -188.402 489.873 -168.124 514.666 -133.597C526.017 -117.741 524.492 -98.4452 523.194 -81.4276C522.968 -78.703 522.798 -76.157 522.629 -73.6111C521.443 -55.4321 521.951 -32.072 536.296 -12.7318C544.542 -1.61005 557.418 6.9211 569.899 15.2289C574.756 18.4448 579.669 21.7054 584.244 25.0553C592.32 30.9512 599.606 36.5344 606.665 42.0729C654.726 79.9494 676.752 133.102 666.981 187.996C662.52 213.276 643.657 236.681 615.362 252.225C593.676 264.106 567.358 270.984 539.289 272.19C536.409 272.324 533.416 272.369 530.366 272.369L530.31 272.458ZM-6.83368 -214.754C-31.1748 -214.754 -52.918 -209.529 -73.3059 -198.72C-100.358 -184.427 -115.268 -164.863 -116.341 -142.128C-116.962 -128.952 -112.896 -115.061 -104.594 -101.974C-96.9129 -89.8694 -85.7871 -78.9709 -73.2494 -71.1544C-68.0536 -67.9385 -63.4226 -65.2139 -58.961 -62.7573C-44.5031 -54.8068 -28.9157 -48.0623 -12.4248 -40.8711C13.0459 -29.7941 39.4202 -18.3597 63.0836 -1.69937C108.095 29.9239 144.014 54.3113 196.988 80.0387C262.896 112.109 305.027 147.975 342.132 179.643C374.549 207.291 405.102 233.376 445.991 252.091C462.99 259.863 476.77 264.463 490.55 266.875C503.935 269.242 517.264 270.448 530.253 270.448C533.19 270.448 536.126 270.404 539.007 270.27C566.624 269.108 592.433 262.364 613.725 250.706C641.454 235.52 659.865 212.651 664.214 187.906C673.815 133.682 652.128 81.1554 604.632 43.7703C597.629 38.2317 590.287 32.6932 582.267 26.7973C577.693 23.4474 572.836 20.2314 568.092 17.0602C555.385 8.61838 542.282 -0.0914154 533.811 -11.4812C519.071 -31.3127 518.562 -55.0748 519.748 -73.5217C519.918 -76.0677 520.087 -78.6136 520.313 -81.3382C521.612 -98.0878 523.137 -117.071 512.181 -132.346C487.783 -166.292 447.855 -186.258 390.023 -193.27C377.203 -194.834 363.818 -195.638 350.264 -195.638C313.95 -195.638 276.619 -190.099 239.289 -179.245C235.335 -178.084 230.14 -175.761 224.21 -173.081C208.792 -166.114 189.646 -157.493 168.976 -157.493C161.973 -157.493 155.196 -158.52 148.814 -160.53C134.413 -165.131 122.948 -172.769 111.935 -180.139C100.753 -187.642 89.1756 -195.37 74.6612 -199.747C49.0211 -207.474 21.4043 -214.62 -6.83368 -214.62V-214.754Z" fill="url(#paint8_linear_724_27490)"/>
<path d="M525.687 262.047C513.658 262.047 501.233 261.109 488.695 259.233C475.084 257.224 461.587 253.382 445.039 246.772C396.131 227.342 360.947 197.148 323.729 165.123C291.707 137.609 258.556 109.157 212.132 81.9555C181.522 64.0446 157.068 46.5357 131.146 28.0441C118.213 18.7983 104.828 9.23988 90.3701 -0.586563C64.8994 -17.9168 35.8142 -28.6813 7.74567 -39.0884C-7.8417 -44.8502 -22.582 -50.3441 -36.7574 -56.8206C-41.8967 -59.1879 -47.0361 -61.7338 -52.4578 -64.5924C-66.6332 -72.0516 -79.5097 -83.1287 -88.7718 -95.7691C-98.6551 -109.303 -103.964 -123.819 -104.077 -137.755C-104.19 -154.013 -97.1302 -177.284 -62.9058 -195.686C-42.3485 -206.763 -20.6053 -212.123 3.56642 -212.123C7.1244 -212.123 10.7954 -211.989 14.4663 -211.766C41.0665 -210.068 67.7232 -202.207 90.2571 -194.793C105.393 -189.835 116.97 -181.304 128.209 -173.041C139.052 -165.045 150.291 -156.827 164.579 -152.003C170.679 -149.948 177.174 -148.921 183.951 -148.921C205.186 -148.921 225.291 -158.882 239.975 -166.162C245.566 -168.931 250.423 -171.343 254.207 -172.594C304.019 -189.388 355.864 -196.535 402.23 -192.783C459.78 -188.138 501.346 -169.021 525.913 -135.879C537.942 -119.621 535.796 -99.6103 533.932 -81.9227C533.65 -79.1534 533.368 -76.5182 533.142 -73.8829C531.448 -55.0786 531.391 -30.9592 546.357 -10.949C554.942 0.530075 568.552 9.28453 581.711 17.7263C586.737 20.9423 591.82 24.2029 596.508 27.5528C605.544 33.94 612.321 38.9872 618.534 43.9004C642.141 62.4813 658.914 85.9755 667.046 111.882C675.009 137.118 674.558 163.649 665.747 188.617C657.502 211.933 635.476 232.925 605.318 246.28C584.591 255.437 560.307 260.841 535.175 261.913C532.069 262.047 528.85 262.092 525.63 262.092L525.687 262.047ZM3.56642 -210.024C-20.0405 -210.024 -41.332 -204.753 -61.4374 -193.944C-94.7018 -176.033 -101.592 -153.522 -101.479 -137.755C-101.366 -124.176 -96.2266 -110.017 -86.5692 -96.7964C-77.5331 -84.424 -64.9389 -73.6149 -51.1023 -66.3344C-45.7371 -63.5205 -40.5978 -60.9745 -35.515 -58.6519C-21.4524 -52.1754 -6.76865 -46.7708 8.81873 -41.009C37.1132 -30.5572 66.3113 -19.7035 92.0644 -2.19453C106.579 7.67657 119.963 17.235 132.896 26.4808C158.762 44.9724 183.217 62.4366 213.714 80.3029C260.363 107.638 293.571 136.135 325.649 163.738C362.697 195.585 397.712 225.69 446.169 244.94C462.547 251.417 475.762 255.214 489.147 257.224C504.791 259.546 520.322 260.439 535.005 259.814C559.742 258.787 583.575 253.472 604.019 244.449C633.556 231.407 655.13 210.861 663.149 188.081C671.847 163.47 672.299 137.296 664.448 112.417C656.372 86.9134 639.881 63.7319 616.613 45.419C610.401 40.5505 603.68 35.5033 594.701 29.1607C590.07 25.8555 584.987 22.5949 580.073 19.4236C566.689 10.8032 552.852 1.95938 544.042 -9.83235C528.68 -30.2892 528.68 -54.8553 530.431 -73.9722C530.657 -76.6075 530.939 -79.2428 531.222 -82.012C533.085 -99.387 535.175 -119.04 523.541 -134.717C499.482 -167.234 458.537 -186.038 401.892 -190.594C355.977 -194.257 304.527 -187.244 255.167 -170.539C251.552 -169.333 246.809 -166.966 241.33 -164.241C226.364 -156.827 205.92 -146.688 183.951 -146.688C176.835 -146.688 169.945 -147.805 163.506 -149.948C148.766 -154.906 137.358 -163.304 126.345 -171.388C115.276 -179.517 103.868 -187.87 89.184 -192.738C66.8195 -200.108 40.4453 -207.88 14.1839 -209.532C10.6259 -209.756 7.01148 -209.89 3.50997 -209.89L3.56642 -210.024Z" fill="url(#paint9_linear_724_27490)"/>
<path d="M520.207 251.548C509.476 251.548 498.407 250.879 487.394 249.583C474.235 248.02 460.85 244.893 445.376 239.712C386.584 220.059 346.825 184.014 304.751 145.87C281.539 124.832 257.593 103.125 228.678 82.1317C211.961 69.9826 196.938 57.9229 182.48 46.2652C161.979 29.7388 142.608 14.1506 119.453 -1.03577C92.2316 -18.902 60.4921 -28.7731 29.8257 -38.3316C15.5372 -42.7982 0.740501 -47.3987 -13.0961 -52.6693C-18.9131 -54.9026 -24.6172 -57.2698 -30.0954 -59.7265C-45.6263 -66.6496 -60.0841 -77.5927 -70.7581 -90.5457C-82.0533 -104.213 -88.4915 -119.042 -89.2822 -133.425C-90.1858 -149.638 -84.3123 -172.731 -50.9915 -190.999C-26.9327 -204.131 -1.34906 -209.356 27.9055 -206.944C54.7881 -204.756 80.8235 -196.493 104.939 -187.872C120.244 -182.423 131.708 -173.267 142.778 -164.378C153.621 -155.713 164.803 -146.78 179.374 -141.554C185.643 -139.321 192.307 -138.159 199.254 -138.159C221.279 -138.159 241.949 -149.326 257.029 -157.5C262.111 -160.269 266.517 -162.636 269.962 -163.976C318.531 -182.78 368.569 -191.892 413.975 -190.195C441.536 -189.168 465.877 -184.388 486.265 -176.08C507.612 -167.371 524.781 -154.641 537.206 -138.338C549.913 -121.678 547.146 -100.953 544.774 -82.6399V-82.3719C544.378 -79.5133 544.039 -76.9227 543.757 -74.3768C541.555 -54.9472 540.99 -30.0238 556.577 -9.43292C565.613 2.49281 579.958 11.4259 593.851 20.0911C598.934 23.2623 604.186 26.5229 608.93 29.7835C616.046 34.6521 623.558 39.9226 630.561 45.4612C653.885 63.8634 669.529 87.4916 675.685 113.666C681.784 139.438 677.831 166.192 664.616 189.017C653.095 208.937 630.448 226.178 600.967 237.479C579.789 245.608 556.351 250.253 531.163 251.281C527.549 251.415 523.878 251.504 520.263 251.504L520.207 251.548ZM14.3512 -205.336C-8.80395 -205.336 -29.7565 -200.066 -49.5796 -189.212C-81.9403 -171.525 -87.6444 -149.147 -86.7408 -133.469C-85.9501 -119.489 -79.6813 -105.017 -68.612 -91.6624C-58.164 -79.022 -44.0449 -68.3022 -28.8529 -61.5131C-23.4312 -59.1011 -17.7272 -56.7339 -11.9666 -54.5452C1.81352 -49.2747 16.5538 -44.7188 30.7857 -40.2522C61.6216 -30.6491 93.5306 -20.7333 121.147 -2.64374C144.415 12.6319 163.843 28.2202 184.344 44.7465C198.858 56.4489 213.824 68.464 230.485 80.5684C259.513 101.606 283.516 123.403 306.727 144.44C348.633 182.406 388.222 218.273 446.449 237.747C461.754 242.839 474.856 245.965 487.846 247.484C502.417 249.226 516.875 249.807 531.05 249.181C555.843 248.154 578.998 243.553 599.838 235.558C628.754 224.436 650.949 207.598 662.187 188.079C675.177 165.656 679.017 139.348 673.087 113.978C666.988 88.2062 651.683 64.9801 628.697 46.8458C621.75 41.3519 614.239 36.126 607.18 31.2575C602.492 28.0415 597.24 24.781 592.214 21.6544C578.095 12.8999 563.524 3.83278 554.262 -8.45029C538.279 -29.5771 538.844 -54.9026 541.103 -74.6448C541.385 -77.2354 541.724 -79.826 542.119 -82.6846V-82.9526C544.548 -100.908 547.202 -121.276 534.947 -137.355C522.748 -153.346 505.975 -165.763 485.079 -174.339C465.03 -182.557 441.027 -187.202 413.862 -188.23C368.964 -189.882 319.265 -180.815 271.148 -162.189C267.872 -160.939 263.58 -158.572 258.553 -155.892C243.192 -147.584 222.126 -136.149 199.254 -136.149C191.968 -136.149 184.909 -137.355 178.301 -139.723C163.335 -145.083 151.927 -154.194 140.914 -162.993C129.958 -171.748 118.662 -180.77 103.866 -186.041C79.9199 -194.572 54.1103 -202.746 27.6231 -204.934C23.1615 -205.292 18.7564 -205.47 14.4642 -205.47L14.3512 -205.336Z" fill="url(#paint10_linear_724_27490)"/>
<path d="M514.295 241.19C505.033 241.19 495.545 240.788 486.17 239.984C473.18 238.868 459.965 236.456 445.846 232.704C374.517 213.542 331.2 169.189 285.398 122.246C272.465 108.98 259.193 95.4017 245.243 82.3593C237.901 75.4808 230.616 68.4236 224.178 62.1705L223.952 61.9472C199.837 38.587 177.077 16.5669 148.5 -1.38872C119.697 -19.4783 85.6987 -28.2328 52.7731 -36.7192C38.7671 -40.3371 24.3657 -44.0444 10.5856 -48.4216C4.26027 -50.3869 -1.89565 -52.5309 -7.71267 -54.7642C-43.4055 -68.3425 -71.5869 -99.5638 -74.6931 -129.043C-76.3874 -145.123 -71.587 -168.081 -39.1133 -186.126C-14.6027 -199.749 11.4327 -204.885 41.3085 -201.937C68.4735 -199.257 95.0172 -190.146 119.584 -180.766C135.002 -174.87 146.354 -165.044 157.31 -155.485C168.097 -146.105 179.279 -136.413 194.076 -130.919C200.401 -128.552 207.178 -127.301 214.238 -127.301C237.506 -127.301 259.532 -140.254 274.103 -148.83C278.79 -151.555 282.743 -153.877 285.737 -155.217C333.007 -176.031 381.407 -187.198 425.741 -187.51H427.717C454.092 -187.51 477.642 -183.714 497.804 -176.255C519.208 -168.304 536.321 -156.334 548.632 -140.701C562.017 -123.639 558.685 -102.199 555.692 -83.3055V-82.9482C555.184 -80.0002 554.788 -77.4096 554.393 -74.7744C551.626 -54.7642 550.552 -29.0368 566.761 -7.82057C576.193 4.5518 591.385 13.7529 606.068 22.5967C611.264 25.7233 616.516 28.8946 621.317 32.1105C628.715 37.0237 635.944 41.8923 642.552 47.1182C665.481 65.2078 680.447 89.6845 684.683 115.993C689.032 142.971 681.464 169.1 663.392 189.557C648.877 205.949 625.214 220.019 596.75 229.131C575.571 235.92 552.247 239.895 527.397 240.922C523.105 241.101 518.757 241.19 514.408 241.19H514.295ZM25.3823 -200.642C2.56596 -200.642 -18.1042 -195.327 -37.7014 -184.428C-69.1021 -166.964 -73.7895 -144.765 -72.1517 -129.222C-69.1585 -100.457 -41.5982 -69.9058 -6.69606 -56.6401C-0.935509 -54.4515 5.16391 -52.3522 11.4892 -50.3869C25.2129 -46.0544 39.5577 -42.3471 53.4508 -38.7738C86.7152 -30.198 120.996 -21.3989 150.138 -3.04135C178.884 15.0482 201.757 37.1577 225.985 60.6072L226.211 60.8305C232.649 67.0837 239.935 74.1409 247.276 80.9747C261.283 94.1064 274.554 107.685 287.374 120.816C333.063 167.626 376.098 211.711 446.693 230.694C460.643 234.446 473.632 236.813 486.452 237.885C500.176 239.046 514.013 239.404 527.172 238.823C551.739 237.796 574.781 233.865 595.62 227.165C623.633 218.188 646.901 204.386 661.076 188.306C678.81 168.296 686.208 142.658 681.916 116.216C677.736 90.3545 663.053 66.3691 640.519 48.5921C633.968 43.4109 626.795 38.587 619.453 33.7185C614.653 30.5472 609.457 27.4206 604.431 24.3833C589.408 15.3162 574.047 6.02577 564.333 -6.70393C547.729 -28.4561 548.802 -54.6302 551.626 -74.9977C551.964 -77.633 552.416 -80.2682 552.868 -83.2162V-83.5735C555.861 -102.154 559.137 -123.192 546.204 -139.629C534.175 -154.949 517.458 -166.652 496.505 -174.379C476.738 -181.704 453.527 -185.456 427.548 -185.456H425.571C381.746 -185.143 333.741 -174.066 286.866 -153.431C283.986 -152.18 280.146 -149.902 275.627 -147.267C260.718 -138.468 238.24 -125.291 214.125 -125.291C206.67 -125.291 199.554 -126.586 192.834 -129.088C177.529 -134.805 166.233 -144.631 155.221 -154.145C144.377 -163.525 133.195 -173.217 118.285 -178.935C93.8877 -188.27 67.6264 -197.248 40.8003 -199.927C35.548 -200.463 30.3522 -200.731 25.3258 -200.731L25.3823 -200.642Z" fill="url(#paint11_linear_724_27490)"/>
<path d="M507.453 230.921C499.998 230.921 492.374 230.743 484.806 230.341C433.695 227.706 390.322 212.117 352.257 182.683C318.71 156.732 293.183 123.456 268.503 91.2967C240.322 54.5816 213.778 19.921 177.464 -1.7865C147.023 -20.0101 112.178 -27.2459 75.2988 -34.9731C61.5751 -37.8316 47.6255 -40.7349 34.0713 -44.2188C26.7859 -46.0948 20.3476 -47.9261 14.4177 -49.8467C-3.88054 -55.7426 -21.5576 -66.4623 -35.2248 -79.996C-49.2308 -93.7977 -58.154 -109.743 -60.413 -124.796C-62.785 -140.786 -59.0012 -163.521 -27.4876 -181.342C-2.58167 -195.412 23.962 -200.504 54.4026 -197.02C81.9629 -193.804 108.902 -183.933 133.921 -173.749C149.508 -167.407 160.803 -156.866 171.647 -146.682C182.434 -136.632 193.503 -126.27 208.526 -120.374C215.02 -117.828 222.023 -116.488 229.196 -116.488C253.368 -116.488 275.958 -130.825 290.868 -140.339C294.99 -142.93 298.492 -145.163 301.146 -146.503C327.238 -159.501 353.838 -169.417 380.1 -175.982C405.683 -182.37 430.363 -185.496 453.462 -185.139C476.561 -184.826 497.4 -181.119 515.359 -174.151C533.827 -166.96 548.68 -156.508 559.637 -143.064C573.756 -125.689 569.746 -103.535 566.244 -83.9712C565.68 -80.8447 565.171 -77.9861 564.72 -75.1275C561.444 -54.4919 559.863 -28.0052 576.636 -6.11906C586.519 6.78931 602.615 16.2137 618.146 25.3255C623.398 28.4075 628.594 31.4447 633.394 34.5267C640.454 39.0379 647.683 43.6831 654.234 48.8197C666.602 58.6014 676.824 71.1078 683.714 84.9542C690.548 98.6665 694.106 113.496 693.88 127.789C693.541 152.533 682.133 174.643 661.745 190.052C644.181 203.363 620.066 214.083 591.997 221.14C571.101 226.41 548.342 229.582 524.339 230.564C518.805 230.787 513.101 230.921 507.34 230.921H507.453ZM36.5563 -195.993C14.0223 -195.993 -6.42199 -190.633 -25.8497 -179.645C-56.3468 -162.404 -60.0177 -140.429 -57.7022 -125.019C-55.4996 -110.324 -46.8023 -94.7803 -33.0786 -81.2913C-19.6374 -68.0256 -2.41224 -57.5739 15.4906 -51.812C21.3641 -49.936 27.7459 -48.1047 34.9184 -46.2735C48.4162 -42.7895 62.3093 -39.8863 75.7506 -37.117C113.138 -29.3452 148.209 -22.02 179.045 -3.52846C215.698 18.4024 242.411 53.2416 270.706 90.1354C295.273 122.205 320.743 155.347 354.064 181.119C391.677 210.197 434.486 225.606 484.976 228.152C498.304 228.822 511.689 228.912 524.339 228.376C548.116 227.393 570.65 224.222 591.32 219.04C618.993 212.073 642.769 201.487 660.051 188.4C679.931 173.392 691.056 151.819 691.395 127.655C691.621 113.63 688.12 99.0685 681.399 85.5795C674.622 72.0012 664.625 59.7181 652.483 50.1597C646.045 45.0678 638.816 40.4672 631.869 36.0007C627.125 32.9634 621.93 29.9261 616.96 26.9782C601.034 17.6431 584.712 8.08461 574.546 -5.18109C557.321 -27.6032 558.959 -54.5366 562.235 -75.5294C562.686 -78.388 563.195 -81.2466 563.759 -84.2839C567.261 -103.579 571.158 -125.332 557.547 -142.037C546.873 -155.168 532.359 -165.352 514.343 -172.365C496.722 -179.198 476.278 -182.861 453.575 -183.129C430.702 -183.442 406.361 -180.36 381.06 -174.062C355.024 -167.541 328.65 -157.714 302.727 -144.806C300.186 -143.555 296.741 -141.322 292.675 -138.776C277.426 -129.084 254.44 -114.478 229.309 -114.478C221.684 -114.478 214.343 -115.863 207.453 -118.542C191.978 -124.617 180.683 -135.158 169.727 -145.386C158.996 -155.436 147.87 -165.799 132.791 -171.963C107.942 -182.102 81.2287 -191.883 54.0638 -195.01C48.0773 -195.725 42.1473 -196.037 36.4997 -196.037L36.5563 -195.993Z" fill="url(#paint12_linear_724_27490)"/>
<path d="M563.134 366.432C542.351 366.432 521.851 362.769 502.084 355.489C480.849 347.672 460.63 334.853 442.106 317.344C422.34 298.719 407.487 278.53 391.786 257.135C342.144 189.556 285.95 112.954 46.2662 79.2319C35.3098 77.7133 24.7488 76.418 14.5832 75.1673C8.65317 74.4527 2.83612 73.738 -2.92444 72.9787C-111.358 59.043 -139.822 42.9187 -152.021 36.0402C-214.145 0.888367 -251.193 -30.1989 -268.926 -93.9368C-285.191 -152.359 -244.303 -218.867 -175.854 -245.353C-97.0699 -275.86 -15.9704 -262.103 -6.99072 -260.45C35.4792 -252.589 53.834 -254.197 75.1819 -256.028C82.5802 -256.654 90.2609 -257.324 99.523 -257.681C159.105 -260.004 221.568 -247.095 285.047 -219.313C317.125 -205.288 341.353 -191.174 361.289 -174.871C382.75 -157.362 399.693 -136.771 412.965 -111.982C418.951 -100.815 422.17 -88.8896 425.22 -77.3658L425.389 -76.8298C426.011 -74.5965 426.632 -72.2739 427.253 -69.996C431.15 -55.9263 435.95 -40.9633 444.987 -27.1616C451.764 -16.7992 461.139 -7.55341 470.175 1.33505L473.112 4.23831C482.148 13.1714 490.676 20.7646 499.147 27.3751C514.678 39.5241 531.282 50.8246 547.378 61.7676C593.406 93.1229 641.015 125.55 676.821 184.911C694.554 214.345 701.501 244.227 696.926 271.383C692.747 296.128 679.305 318.148 658.014 335.121C638.643 350.576 614.132 360.804 587.08 364.69C581.546 365.494 575.841 365.985 570.25 366.253C567.878 366.343 565.506 366.387 563.134 366.387V366.432ZM-63.2973 -262.862C-94.5285 -262.862 -134.909 -258.887 -174.724 -243.433C-242.1 -217.348 -282.368 -151.868 -266.385 -94.3388C-248.821 -31.2709 -212.111 -0.451599 -150.553 34.3876C-138.523 41.1768 -110.398 57.1224 -2.5856 70.9688C3.17496 71.7281 8.99203 72.3981 14.922 73.1574C25.1442 74.408 35.7051 75.7033 46.6615 77.2219C287.532 111.123 344.12 188.127 393.989 256.108C409.633 277.458 424.429 297.557 444.027 316.049C462.325 333.29 482.204 345.93 503.1 353.613C524.731 361.563 547.378 365.181 570.025 364.199C575.559 363.975 581.094 363.439 586.515 362.68C613.003 358.883 637.061 348.878 656.037 333.737C676.877 317.076 690.092 295.458 694.159 271.16C698.677 244.45 691.843 214.926 674.279 185.893C638.699 126.89 591.316 94.6415 545.514 63.4203C529.418 52.4772 512.758 41.1321 497.17 28.9384C488.643 22.2832 480.058 14.6454 470.909 5.62292L467.972 2.76434C458.767 -6.25812 449.335 -15.5932 442.445 -26.1343C433.24 -40.204 428.383 -55.301 424.486 -69.5047C423.865 -71.7379 423.243 -74.0605 422.622 -76.3385L422.453 -76.8745C419.403 -88.3089 416.24 -100.101 410.31 -111.088C397.151 -135.654 380.378 -156.022 359.143 -173.352C339.377 -189.477 315.318 -203.502 283.465 -217.437C220.438 -245.041 158.427 -257.86 99.3536 -255.537C90.2045 -255.18 82.5802 -254.51 75.1819 -253.884C53.6645 -252.008 35.0275 -250.4 -7.83783 -258.351C-12.1865 -259.155 -33.6473 -262.818 -63.5231 -262.818L-63.2973 -262.862Z" fill="url(#paint13_linear_724_27490)"/>
<path d="M672.476 186.214C661.407 155.528 644.69 127.746 621.366 101.349C598.549 75.5323 570.933 52.8422 546.93 33.9933C538.628 27.4721 530.778 20.7276 522.476 13.5811C519.088 10.6778 515.53 7.81923 512.085 5.00529C502.371 -2.81119 492.318 -10.9403 485.541 -20.6774C474.302 -36.7124 471.196 -55.3826 469.615 -71.5069C469.445 -73.4722 469.276 -75.5268 469.05 -77.5368V-78.2961C467.751 -92.9018 466.509 -107.954 458.094 -121.532C444.765 -143.151 427.822 -160.66 406.418 -175.042C386.595 -188.352 362.197 -199.34 331.926 -208.72C292.224 -220.958 249.98 -227.167 206.324 -227.167C190.849 -227.167 175.262 -226.363 159.9 -224.755C153.406 -224.085 143.522 -221.717 135.503 -219.797C113.251 -214.437 91.6774 -209.211 61.6887 -218.725C58.7519 -219.663 55.1375 -221.047 51.0147 -222.655C31.3046 -230.293 -1.67735 -243.068 -52.7316 -241.728C-129.539 -240.656 -175.962 -203.851 -192.453 -172.63C-208.097 -140.917 -199.004 -103.756 -166.926 -67.9783C-156.647 -56.5439 -121.463 -23.134 -82.7205 5.67529C-46.0111 33.0107 16.5079 58.5147 84.5615 73.835L112.799 80.4456C277.653 118.769 333.056 178.442 381.908 231.103C401.222 251.962 419.521 271.614 443.24 289.123C461.652 302.702 479.159 311.813 496.78 316.995C514.4 322.176 532.36 324.811 550.206 324.811C552.691 324.811 555.119 324.767 557.604 324.677C563.421 324.454 569.238 323.873 574.942 323.069C599.058 319.541 621.083 310.92 638.647 298.101C656.098 285.327 668.58 268.801 674.735 250.264C681.4 230.209 680.666 208.681 672.589 186.303L672.476 186.214ZM672.081 249.684C666.038 267.818 653.839 284.031 636.784 296.538C619.615 309.089 598.041 317.575 574.378 321.015C568.843 321.819 563.139 322.355 557.378 322.578C537.555 323.427 517.28 320.836 497.627 315.029C480.345 309.938 463.12 300.96 444.991 287.56C421.441 270.185 403.255 250.577 383.941 229.807C334.807 176.879 279.178 116.893 113.421 78.391L85.1827 71.7804C17.5245 56.5494 -44.5992 31.2687 -81.0262 4.11197C-122.649 -26.9306 -157.043 -60.5192 -164.837 -69.229C-196.407 -104.425 -205.33 -140.917 -190.025 -171.915C-173.873 -202.511 -128.24 -238.601 -52.7316 -239.673C-50.2467 -239.762 -47.7618 -239.762 -45.3333 -239.762C0.807571 -239.762 31.2481 -227.971 49.7722 -220.824C53.9515 -219.216 57.5659 -217.787 60.6156 -216.849C91.4515 -207.067 113.421 -212.338 136.181 -217.832C144.087 -219.707 153.914 -222.075 160.183 -222.7C175.431 -224.263 190.962 -225.067 206.267 -225.067C249.584 -225.067 291.546 -218.903 330.91 -206.754C360.898 -197.509 385.07 -186.61 404.667 -173.434C425.846 -159.23 442.506 -141.945 455.665 -120.594C463.798 -107.373 465.04 -92.4998 466.283 -78.1174V-77.3581C466.508 -75.3482 466.678 -73.2935 466.904 -71.3283C468.485 -54.9806 471.648 -36.0424 483.169 -19.6501C490.172 -9.64502 500.338 -1.47121 510.164 6.47928C513.61 9.24855 517.167 12.1071 520.5 15.0104C528.802 22.2016 536.652 28.9461 545.01 35.5119C568.956 54.2715 596.46 76.917 619.107 102.555C642.262 128.774 658.866 156.332 669.879 186.794C677.842 208.815 678.519 229.986 672.025 249.684H672.081Z" fill="url(#paint14_linear_724_27490)"/>
<path d="M674.626 185.576C643.451 122.598 596.689 86.9545 547.159 49.2567L546.595 48.8547C538.857 42.9588 530.894 36.8843 523.044 30.7205C513.669 23.3953 505.028 15.5788 497.799 8.92365C495.484 6.77969 493.055 4.59109 490.683 2.49181L490.119 2.00047C481.082 -5.99467 471.764 -14.3025 465.213 -23.9503C455.16 -38.7346 451.207 -55.2162 448.383 -70.7599C448.044 -72.7251 447.705 -74.7351 447.31 -76.9684V-77.4597C444.994 -90.6361 442.735 -104.259 435.506 -116.765C409.866 -161.163 371.858 -190.24 308.435 -214.047C264.667 -230.44 213.782 -239.507 148.326 -242.589C141.21 -242.946 121.952 -243.125 103.089 -239.149C72.6482 -231.824 48.2505 -234.906 33.6797 -238.837C-49.1141 -261.304 -99.4342 -250.986 -115.925 -247.636C-116.659 -247.502 -189.513 -231.512 -221.705 -183.407C-240.059 -155.982 -241.076 -123.823 -224.698 -87.8668C-209.28 -51.4196 -135.24 31.3904 -33.8091 57.6538C2.39201 67.3016 78.1264 79.6293 79.5383 79.8527C282.231 116.389 338.424 184.594 387.954 244.803C405.122 265.662 421.331 285.359 442.622 303.27C461.26 318.993 479.84 329.757 499.381 336.278C518.131 342.531 537.446 345.703 556.76 345.703C559.189 345.703 561.561 345.658 563.989 345.569C569.693 345.345 575.398 344.809 580.989 344.005C606.572 340.298 629.84 330.829 648.251 316.67C667.51 301.796 680.443 282.501 685.582 260.883C691.23 237.12 687.559 211.795 674.626 185.666V185.576ZM682.984 260.391C677.958 281.607 665.307 300.501 646.444 315.062C628.428 328.953 605.612 338.243 580.537 341.861C575.059 342.665 569.411 343.157 563.876 343.425C542.585 344.318 521.124 341.236 500.397 334.313C481.195 327.926 462.954 317.295 444.543 301.796C423.421 284.019 407.268 264.411 390.156 243.642C340.344 183.12 283.868 114.513 80.0465 77.798C79.2559 77.664 3.23915 65.2917 -33.0184 55.6439C-133.546 29.6485 -206.964 -52.4023 -222.269 -88.5368C-238.365 -123.912 -237.405 -155.491 -219.446 -182.379C-187.819 -229.68 -116.095 -245.403 -115.36 -245.537C-106.946 -247.234 -89.7768 -250.762 -63.9108 -250.762C-39.4002 -250.762 -7.15244 -247.591 32.7196 -236.782C47.6858 -232.717 72.5917 -229.591 103.766 -237.05C122.234 -240.936 141.097 -240.713 148.1 -240.4C213.217 -237.363 263.763 -228.34 307.249 -212.082C370.051 -188.543 407.72 -159.734 433.021 -115.827C440.081 -103.589 442.34 -90.1448 444.543 -77.1024L444.656 -76.3877C444.994 -74.3778 445.333 -72.3678 445.672 -70.4025C448.496 -54.6356 452.562 -37.9753 462.784 -22.8783C469.448 -13.0072 478.88 -4.65472 488.029 3.47443L488.594 3.96573C490.966 6.06503 493.338 8.20898 495.71 10.3529C502.995 17.0528 511.693 24.8693 521.124 32.2391C529.031 38.403 536.994 44.5221 544.731 50.3733L545.296 50.7753C594.599 88.3391 641.192 123.804 672.141 186.38C684.904 212.152 688.519 237.076 682.984 260.436V260.391Z" fill="url(#paint15_linear_724_27490)"/>
<path d="M673.553 185.892C644.186 117.866 593.188 77.9353 539.253 35.6815L534.961 32.3316C526.094 25.4084 517.849 18.0833 510.112 11.2048C507.119 8.52483 504.012 5.88957 500.963 3.29897C491.644 -4.56219 481.987 -12.736 475.379 -22.3838C464.762 -37.8381 461.147 -55.749 459.001 -71.2034C458.719 -73.3473 458.436 -75.5359 458.154 -77.9032C456.403 -91.7942 454.652 -106.132 446.859 -119.219C433.474 -141.641 416.531 -159.909 395.127 -175.051C375.36 -189.076 350.85 -200.957 320.24 -211.409C265.797 -230.034 203.843 -237.806 144.147 -233.474C137.144 -232.982 129.125 -231.419 120.597 -229.722C107.89 -227.22 93.4884 -224.407 79.0306 -224.407C72.8182 -224.407 67.1142 -224.898 61.5795 -225.925C49.776 -228.069 39.1586 -231.285 28.767 -234.412C16.2858 -238.164 1.43265 -242.273 -13.8159 -244.238C-18.6728 -244.863 -43.9176 -247.945 -63.0629 -246.471C-137.272 -242.63 -174.547 -217.617 -192.675 -197.339C-219.501 -167.368 -220.179 -131.77 -211.934 -108.499C-196.798 -65.9775 -171.214 -43.3766 -148.511 -23.3218C-125.243 -2.64159 -92.2046 20.7186 -69.4447 31.9743C-44.7647 45.8206 3.46573 60.5603 70.0509 74.6747C71.5193 74.9873 72.5359 75.2106 73.1571 75.3446C77.9576 76.2826 82.1368 77.1759 86.5984 78.1139C89.5916 78.7392 92.6978 79.3645 96.1993 80.0792C280.142 117.688 335.996 181.649 385.356 238.106C403.485 258.876 420.654 278.484 442.962 296.127C461.542 310.777 479.558 320.738 498.082 326.589C516.268 332.306 534.905 335.209 553.542 335.209C555.97 335.209 558.399 335.165 560.827 335.075C566.588 334.852 572.405 334.316 577.996 333.467C602.845 329.849 625.492 320.782 643.452 307.293C661.806 293.492 674.457 275.581 680.105 255.481C686.26 233.55 684.058 210.146 673.61 185.892H673.553ZM677.45 255.035C671.916 274.687 659.491 292.241 641.532 305.775C623.911 319.04 601.772 327.884 577.375 331.413C571.897 332.217 566.249 332.753 560.545 332.976C539.988 333.869 519.092 331.011 498.93 324.668C480.744 318.951 462.954 309.125 444.713 294.698C422.518 277.189 405.462 257.625 387.389 236.945C337.804 180.22 281.61 115.901 96.7076 78.1139C93.2061 77.3993 90.1564 76.7739 87.1631 76.1486C82.758 75.2106 78.5223 74.362 73.7784 73.3793C73.2136 73.2453 72.1405 73.022 70.6721 72.7094C5.32944 58.863 -43.9176 43.8107 -68.0329 30.277C-90.6232 19.0659 -123.436 -4.11554 -146.591 -24.6617C-169.068 -44.5379 -194.483 -66.9601 -209.392 -109.035C-217.525 -131.859 -216.791 -166.743 -190.529 -196.088C-164.946 -224.675 -120.838 -241.379 -62.8371 -244.372C-59.2791 -244.64 -55.5516 -244.774 -51.7677 -244.774C-35.3332 -244.774 -18.1645 -242.675 -14.2677 -242.183C0.754929 -240.218 15.4386 -236.154 27.8633 -232.446C38.2549 -229.32 48.9854 -226.104 60.9583 -223.915C66.6624 -222.843 72.5923 -222.352 78.9741 -222.352C93.7708 -222.352 108.342 -225.211 121.218 -227.712C129.633 -229.364 137.54 -230.928 144.317 -231.419C203.504 -235.707 265.006 -227.98 319.11 -209.488C349.438 -199.126 373.722 -187.334 393.263 -173.488C414.441 -158.525 431.158 -140.435 444.374 -118.326C451.942 -105.596 453.749 -91.4369 455.443 -77.6352C455.725 -75.3573 456.008 -73.1686 456.29 -71.0247C458.436 -55.347 462.107 -37.1681 472.951 -21.4012C479.728 -11.53 489.498 -3.26689 498.93 4.68359C501.979 7.22952 505.086 9.86481 508.079 12.5447C515.816 19.4232 524.118 26.7484 533.041 33.7609L537.333 37.1109C591.098 79.1859 641.814 118.938 671.012 186.517C681.347 210.414 683.493 233.461 677.45 254.99V255.035Z" fill="url(#paint16_linear_724_27490)"/>
</g>
<defs>
<linearGradient id="paint0_linear_724_27490" x1="-229.048" y1="-290.417" x2="399.806" y2="531.061" gradientUnits="userSpaceOnUse">
<stop stop-color="#AFB388"/>
<stop offset="0.31" stop-color="#41929E"/>
<stop offset="0.49" stop-color="#27758D"/>
<stop offset="0.68" stop-color="#115C7E"/>
<stop offset="0.86" stop-color="#044D76"/>
<stop offset="1" stop-color="#004873"/>
</linearGradient>
<linearGradient id="paint1_linear_724_27490" x1="-220.021" y1="-297.302" x2="408.832" y2="524.177" gradientUnits="userSpaceOnUse">
<stop stop-color="#AFB388"/>
<stop offset="0.31" stop-color="#41929E"/>
<stop offset="0.49" stop-color="#27758D"/>
<stop offset="0.68" stop-color="#115C7E"/>
<stop offset="0.86" stop-color="#044D76"/>
<stop offset="1" stop-color="#004873"/>
</linearGradient>
<linearGradient id="paint2_linear_724_27490" x1="-209.041" y1="-305.687" x2="419.812" y2="515.792" gradientUnits="userSpaceOnUse">
<stop stop-color="#AFB388"/>
<stop offset="0.31" stop-color="#41929E"/>
<stop offset="0.49" stop-color="#27758D"/>
<stop offset="0.68" stop-color="#115C7E"/>
<stop offset="0.86" stop-color="#044D76"/>
<stop offset="1" stop-color="#004873"/>
</linearGradient>
<linearGradient id="paint3_linear_724_27490" x1="-188.949" y1="-321.103" x2="439.904" y2="500.375" gradientUnits="userSpaceOnUse">
<stop stop-color="#AFB388"/>
<stop offset="0.31" stop-color="#41929E"/>
<stop offset="0.49" stop-color="#27758D"/>
<stop offset="0.68" stop-color="#115C7E"/>
<stop offset="0.86" stop-color="#044D76"/>
<stop offset="1" stop-color="#004873"/>
</linearGradient>
<linearGradient id="paint4_linear_724_27490" x1="-146.879" y1="-353.309" x2="481.974" y2="468.17" gradientUnits="userSpaceOnUse">
<stop stop-color="#AFB388"/>
<stop offset="0.31" stop-color="#41929E"/>
<stop offset="0.49" stop-color="#27758D"/>
<stop offset="0.68" stop-color="#115C7E"/>
<stop offset="0.86" stop-color="#044D76"/>
<stop offset="1" stop-color="#004873"/>
</linearGradient>
<linearGradient id="paint5_linear_724_27490" x1="-138.133" y1="-360.011" x2="490.72" y2="461.467" gradientUnits="userSpaceOnUse">
<stop stop-color="#AFB388"/>
<stop offset="0.31" stop-color="#41929E"/>
<stop offset="0.49" stop-color="#27758D"/>
<stop offset="0.68" stop-color="#115C7E"/>
<stop offset="0.86" stop-color="#044D76"/>
<stop offset="1" stop-color="#004873"/>
</linearGradient>
<linearGradient id="paint6_linear_724_27490" x1="-130" y1="-366.269" x2="498.906" y2="455.223" gradientUnits="userSpaceOnUse">
<stop stop-color="#AFB388"/>
<stop offset="0.31" stop-color="#41929E"/>
<stop offset="0.49" stop-color="#27758D"/>
<stop offset="0.68" stop-color="#115C7E"/>
<stop offset="0.86" stop-color="#044D76"/>
<stop offset="1" stop-color="#004873"/>
</linearGradient>
<linearGradient id="paint7_linear_724_27490" x1="-122.436" y1="-372.028" x2="506.417" y2="449.45" gradientUnits="userSpaceOnUse">
<stop stop-color="#AFB388"/>
<stop offset="0.31" stop-color="#41929E"/>
<stop offset="0.49" stop-color="#27758D"/>
<stop offset="0.68" stop-color="#115C7E"/>
<stop offset="0.86" stop-color="#044D76"/>
<stop offset="1" stop-color="#004873"/>
</linearGradient>
<linearGradient id="paint8_linear_724_27490" x1="-115.211" y1="-377.561" x2="513.642" y2="443.918" gradientUnits="userSpaceOnUse">
<stop stop-color="#AFB388"/>
<stop offset="0.31" stop-color="#41929E"/>
<stop offset="0.49" stop-color="#27758D"/>
<stop offset="0.68" stop-color="#115C7E"/>
<stop offset="0.86" stop-color="#044D76"/>
<stop offset="1" stop-color="#004873"/>
</linearGradient>
<linearGradient id="paint9_linear_724_27490" x1="-108.143" y1="-382.969" x2="520.71" y2="438.509" gradientUnits="userSpaceOnUse">
<stop stop-color="#AFB388"/>
<stop offset="0.31" stop-color="#41929E"/>
<stop offset="0.49" stop-color="#27758D"/>
<stop offset="0.68" stop-color="#115C7E"/>
<stop offset="0.86" stop-color="#044D76"/>
<stop offset="1" stop-color="#004873"/>
</linearGradient>
<linearGradient id="paint10_linear_724_27490" x1="-101.255" y1="-388.242" x2="527.598" y2="433.236" gradientUnits="userSpaceOnUse">
<stop stop-color="#AFB388"/>
<stop offset="0.31" stop-color="#41929E"/>
<stop offset="0.49" stop-color="#27758D"/>
<stop offset="0.68" stop-color="#115C7E"/>
<stop offset="0.86" stop-color="#044D76"/>
<stop offset="1" stop-color="#004873"/>
</linearGradient>
<linearGradient id="paint11_linear_724_27490" x1="-94.4597" y1="-393.419" x2="534.393" y2="428.059" gradientUnits="userSpaceOnUse">
<stop stop-color="#AFB388"/>
<stop offset="0.31" stop-color="#41929E"/>
<stop offset="0.49" stop-color="#27758D"/>
<stop offset="0.68" stop-color="#115C7E"/>
<stop offset="0.86" stop-color="#044D76"/>
<stop offset="1" stop-color="#004873"/>
</linearGradient>
<linearGradient id="paint12_linear_724_27490" x1="-87.8603" y1="-398.507" x2="541.046" y2="422.985" gradientUnits="userSpaceOnUse">
<stop stop-color="#AFB388"/>
<stop offset="0.31" stop-color="#41929E"/>
<stop offset="0.49" stop-color="#27758D"/>
<stop offset="0.68" stop-color="#115C7E"/>
<stop offset="0.86" stop-color="#044D76"/>
<stop offset="1" stop-color="#004873"/>
</linearGradient>
<linearGradient id="paint13_linear_724_27490" x1="-199.291" y1="-313.2" x2="429.561" y2="508.278" gradientUnits="userSpaceOnUse">
<stop stop-color="#AFB388"/>
<stop offset="0.31" stop-color="#41929E"/>
<stop offset="0.49" stop-color="#27758D"/>
<stop offset="0.68" stop-color="#115C7E"/>
<stop offset="0.86" stop-color="#044D76"/>
<stop offset="1" stop-color="#004873"/>
</linearGradient>
<linearGradient id="paint14_linear_724_27490" x1="-157.156" y1="-345.441" x2="471.697" y2="476.037" gradientUnits="userSpaceOnUse">
<stop stop-color="#AFB388"/>
<stop offset="0.31" stop-color="#41929E"/>
<stop offset="0.49" stop-color="#27758D"/>
<stop offset="0.68" stop-color="#115C7E"/>
<stop offset="0.86" stop-color="#044D76"/>
<stop offset="1" stop-color="#004873"/>
</linearGradient>
<linearGradient id="paint15_linear_724_27490" x1="-178.049" y1="-329.463" x2="450.804" y2="492.015" gradientUnits="userSpaceOnUse">
<stop stop-color="#AFB388"/>
<stop offset="0.31" stop-color="#41929E"/>
<stop offset="0.49" stop-color="#27758D"/>
<stop offset="0.68" stop-color="#115C7E"/>
<stop offset="0.86" stop-color="#044D76"/>
<stop offset="1" stop-color="#004873"/>
</linearGradient>
<linearGradient id="paint16_linear_724_27490" x1="-167.939" y1="-337.187" x2="460.914" y2="484.291" gradientUnits="userSpaceOnUse">
<stop stop-color="#AFB388"/>
<stop offset="0.31" stop-color="#41929E"/>
<stop offset="0.49" stop-color="#27758D"/>
<stop offset="0.68" stop-color="#115C7E"/>
<stop offset="0.86" stop-color="#044D76"/>
<stop offset="1" stop-color="#004873"/>
</linearGradient>
</defs>
</svg>
