<svg width="1332" height="1583" viewBox="0 0 1332 1583" fill="none" xmlns="http://www.w3.org/2000/svg">
<g opacity="0.05">
<path d="M-266.062 1390.69C-235.12 1390.69 -203.766 1385.24 -172.823 1374.55C-141.984 1363.87 -111.966 1345.36 -78.3512 1316.28C-31.8861 1276.09 3.99084 1230.04 41.9237 1181.33C129.508 1068.99 228.607 941.743 493.417 852.94L495.678 852.118C631.476 806.586 721.117 776.471 828.439 670.401C849.513 649.639 871.306 629.905 892.38 610.788C937.406 570.087 979.759 531.749 1010.91 487.348C1016.97 478.611 1022.63 469.669 1027.77 461.241C1054.8 416.943 1066.21 363.394 1059.12 314.47C1050.18 253.007 1012.86 200.28 951.181 161.84C909.033 135.631 863.082 122.886 810.655 122.886C768.918 122.886 728.313 131.005 697.678 138.097C670.951 144.264 648.232 156.392 626.233 168.007C606.701 178.388 586.553 189.077 563.217 195.86C553.143 198.841 542.246 200.383 530.938 200.383C500.921 200.383 472.343 190.207 447.054 181.368C432.56 176.229 420.121 171.81 409.327 169.96C373.142 163.69 336.443 160.606 300.052 160.606C231.793 160.606 165.694 171.501 103.397 193.085C-8.55066 231.834 -79.1736 290.111 -125.536 382.1C-141.881 414.476 -143.217 450.86 -144.451 486.012V487.553C-144.656 492.487 -144.862 497.215 -145.068 501.84C-146.918 540.486 -151.75 585.093 -173.234 623.43C-186.084 646.247 -205.205 664.954 -223.709 683.043C-230.288 689.415 -237.69 696.713 -244.474 703.908L-250.745 710.588C-263.492 724.053 -275.52 736.798 -288.164 749.337C-342.853 803.605 -383.253 852.94 -415.326 904.845C-452.128 964.458 -477.622 1027.15 -493.042 1096.63C-503.528 1143.81 -502.191 1189.03 -489.239 1230.97C-477.109 1270.13 -454.698 1305.07 -424.475 1332C-384.898 1367.26 -334.835 1387.51 -279.631 1390.38C-275.108 1390.59 -270.482 1390.79 -265.856 1390.79L-266.062 1390.69ZM810.552 127.819C862.054 127.819 907.183 140.359 948.508 166.054C1008.95 203.672 1045.55 255.268 1054.19 315.292C1061.18 363.188 1049.97 415.504 1023.45 458.877C1018.31 467.203 1012.86 476.145 1006.8 484.778C976.058 528.769 933.808 566.9 889.193 607.293C867.914 626.513 846.12 646.247 824.944 667.112C718.444 772.36 629.214 802.372 494.034 847.699L491.772 848.521C225.625 937.838 125.91 1065.7 38.0173 1178.45C0.187256 1227.06 -35.5869 1272.9 -81.6409 1312.78C-114.742 1341.46 -144.245 1359.65 -174.468 1370.14C-209.42 1382.26 -244.988 1387.51 -279.631 1385.66C-333.704 1382.78 -382.739 1363.04 -421.494 1328.51C-451.1 1302.09 -472.996 1267.97 -484.921 1229.63C-497.668 1188.52 -498.902 1144.12 -488.622 1097.77C-473.305 1028.9 -448.119 966.616 -411.523 907.517C-379.655 855.921 -339.46 806.792 -285.08 752.831C-272.333 740.189 -260.305 727.445 -247.558 713.98L-241.288 707.299C-234.606 700.208 -227.204 693.013 -220.625 686.64C-201.813 668.345 -182.384 649.331 -169.225 625.897C-147.226 586.634 -142.292 541.308 -140.442 502.148C-140.236 497.523 -140.03 492.692 -139.825 487.862V486.32C-138.488 451.683 -137.152 415.915 -121.321 384.464C-75.5756 293.605 -5.87781 236.048 104.837 197.813C166.619 176.435 232.205 165.643 299.949 165.643C336.032 165.643 372.525 168.829 408.402 174.996C418.785 176.743 431.121 181.163 445.307 186.199C470.904 195.244 499.996 205.522 530.836 205.522C542.555 205.522 553.863 203.98 564.451 200.897C588.198 193.908 608.552 183.116 628.289 172.632C649.98 161.12 672.39 149.198 698.501 143.134C728.929 136.042 769.124 128.025 810.449 128.025L810.552 127.819Z" fill="url(#paint0_linear_724_27242)"/>
<path d="M-491.176 1097.45C-480.896 1029.31 -460.542 967.74 -428.88 909.052C-399.273 854.064 -360.312 803.084 -310.044 753.133C-300.175 743.369 -290.101 732.988 -280.335 722.915L-266.971 709.245C-259.775 701.948 -252.168 694.753 -244.561 687.558C-225.132 669.366 -204.983 650.454 -191.722 627.123C-169.004 587.141 -165.097 540.89 -164.378 500.908C-164.275 495.563 -164.172 490.219 -164.172 484.155C-163.761 447.667 -163.35 409.947 -146.079 376.645C-122.127 330.394 -91.3903 293.598 -52.2239 264.1C-15.833 236.658 28.0621 215.485 82.0316 199.245C134.356 183.52 189.765 175.605 246.818 175.605C291.228 175.605 336.253 180.539 380.663 190.098C390.737 192.256 402.456 197.087 416.026 202.637C442.239 213.326 472.051 225.454 503.507 225.454C515.021 225.454 526.123 223.707 536.403 220.418C560.252 212.709 580.71 200.376 600.447 188.35C622.035 175.297 644.239 161.73 670.967 154.535C706.844 144.771 762.664 134.493 809.54 135.212C851.174 135.932 890.443 148.266 929.609 173.139C958.187 191.228 981.214 212.709 997.868 236.76C1013.08 258.55 1023.16 282.703 1027.89 308.399C1038.06 363.695 1022.85 425.261 987.074 473.054C981.214 480.968 974.841 489.294 967.85 497.516C937.936 532.976 900.517 563.502 860.734 595.98C832.567 619.003 803.372 642.951 775.514 669.777C672.92 768.756 589.036 805.346 463.107 853.756C234.174 941.942 137.646 1058.8 52.5283 1162C10.9976 1212.26 -28.1691 1259.74 -79.0546 1300.24C-112.259 1326.65 -141.248 1343.3 -170.546 1352.55C-200.255 1362.01 -230.066 1366.84 -259.055 1366.84C-263.681 1366.84 -268.307 1366.74 -272.933 1366.43C-284.036 1365.81 -295.241 1364.48 -306.24 1362.52C-347.36 1354.92 -385.293 1337.03 -415.927 1310.93C-476.475 1259.23 -503.922 1181.52 -491.278 1097.55L-491.176 1097.45ZM-412.637 1307.12C-382.62 1332.72 -345.407 1350.19 -305.212 1357.59C-294.418 1359.54 -283.419 1360.88 -272.522 1361.39C-239.626 1363.14 -205.703 1358.51 -171.779 1347.72C-143.098 1338.57 -114.52 1322.23 -81.8301 1296.23C-31.3557 1256.04 7.70801 1208.76 49.0332 1158.71C134.562 1055.1 231.501 937.625 461.668 849.028C587.083 800.721 670.556 764.336 772.43 666.077C800.391 639.149 829.586 615.201 858.061 591.972C897.433 559.801 934.646 529.275 964.355 494.227C971.14 486.107 977.514 477.782 983.373 469.971C1018.32 423.205 1033.23 363.078 1023.26 309.015C1018.63 284.04 1008.87 260.503 994.064 239.227C977.719 215.69 955.206 194.723 927.142 176.942C888.695 152.582 847.884 140.454 807.176 139.735C761.944 139.735 706.741 149.705 672.406 158.955C646.398 166.047 624.399 179.408 603.017 192.359C583.074 204.487 562.514 217.026 538.048 224.838C527.151 228.332 515.638 230.079 503.61 230.079C471.229 230.079 441.006 217.746 414.278 206.851C400.914 201.404 389.401 196.676 379.737 194.62C335.637 185.061 290.919 180.231 246.818 180.231C190.279 180.231 135.384 188.145 83.4708 203.665C30.0153 219.699 -13.4686 240.666 -49.3455 267.697C-87.8951 296.784 -118.118 333.066 -141.762 378.701C-158.518 410.974 -158.929 448.078 -159.238 484.463C-159.238 490.116 -159.34 495.46 -159.443 500.805C-160.163 541.404 -164.172 588.375 -187.404 629.282C-201.077 653.332 -221.431 672.45 -241.374 691.156C-248.776 698.042 -256.28 705.134 -263.373 712.432L-276.737 726.101C-286.503 736.174 -296.577 746.555 -306.446 756.319C-356.406 805.962 -395.058 856.634 -424.459 911.108C-455.813 969.282 -475.961 1030.33 -486.138 1097.96C-498.577 1180.29 -471.644 1256.45 -412.432 1306.92L-412.637 1307.12Z" fill="url(#paint1_linear_724_27242)"/>
<path d="M-489.232 1098.26C-480.186 966.499 -427.244 851.59 -331.847 756.825C-325.268 750.247 -318.586 743.567 -311.801 736.783C-304.502 729.486 -297.101 721.983 -289.596 714.479C-281.989 706.977 -273.868 699.576 -265.747 692.279C-245.29 673.881 -224.114 654.764 -210.236 630.713C-186.283 589.086 -183.508 538.929 -183.714 499.872C-183.714 494.425 -183.714 489.08 -183.919 482.811C-184.433 446.529 -185.153 405.417 -166.752 371.088C-121.006 285.574 -48.8413 232.95 60.6395 205.302C151.617 182.279 253.285 183.923 351.972 210.03C361.121 212.496 372.12 217.533 384.867 223.391C410.67 235.314 442.641 250.114 476.256 250.114C487.872 250.114 499.077 248.264 509.46 244.667C533.926 236.136 554.486 222.055 574.326 208.488C595.502 193.996 617.399 178.99 644.229 170.664C682.882 158.742 729.964 146.511 776.737 146.1C824.539 146.1 868.228 158.536 907.908 184.129C960.953 218.355 992.82 265.017 1000.02 319.08C1009.06 387.121 978.223 449.099 946.355 484.558C940.085 491.444 932.683 499.564 924.87 507.375C896.087 535.743 862.574 560.205 826.903 586.003C792.157 611.287 756.28 637.394 722.768 668.845C626.137 759.703 549.449 802.666 432.977 854.467C240.435 940.187 148.121 1046.36 66.7046 1139.99C20.6507 1192.93 -22.8331 1242.98 -79.4753 1284.09C-112.063 1307.73 -140.23 1322.53 -167.985 1330.55C-196.152 1338.67 -224.525 1342.78 -252.28 1342.78C-257.112 1342.78 -262.046 1342.68 -266.775 1342.37C-319.717 1339.59 -368.341 1321.4 -407.301 1289.95C-464.56 1243.7 -494.372 1174.01 -489.232 1098.47V1098.26ZM-404.217 1285.94C-365.976 1316.78 -318.38 1334.56 -266.467 1337.33C-234.805 1338.98 -201.909 1335.07 -169.219 1325.62C-141.977 1317.8 -114.324 1303.21 -82.2511 1279.98C-26.0201 1239.18 17.2584 1189.33 63.1068 1136.6C144.832 1042.56 237.557 935.973 431.127 849.842C546.981 798.246 623.464 755.489 719.581 665.145C753.299 633.385 789.381 607.176 824.23 581.892C859.593 556.197 893.105 531.837 921.581 503.778C929.393 496.069 936.692 488.053 942.963 481.166C974.111 446.632 1004.33 385.991 995.493 319.594C988.503 266.97 957.355 221.541 905.544 188.034C866.686 162.956 823.819 150.828 777.045 150.828C730.889 151.239 684.218 163.367 645.977 175.187C619.866 183.306 598.278 198.107 577.307 212.393C557.261 226.166 536.496 240.35 511.413 249.189C500.516 252.992 488.797 254.945 476.564 254.945C441.921 254.945 409.334 239.939 383.12 227.811C370.578 222.055 359.784 217.019 350.944 214.655C252.976 188.754 152.233 187.109 61.976 209.927C-45.963 237.267 -117.305 289.171 -162.331 373.349C-180.115 406.65 -179.499 447.043 -178.985 482.708C-178.985 488.978 -178.779 494.425 -178.779 499.872C-178.574 539.546 -181.452 590.525 -205.918 633.18C-220.104 657.847 -241.589 677.17 -262.56 696.082C-270.373 703.174 -278.494 710.471 -285.998 717.871C-293.503 725.271 -301.007 732.775 -308.203 740.072C-314.988 746.856 -321.67 753.639 -328.249 760.114C-422.824 854.056 -475.251 967.835 -484.195 1098.47C-489.232 1172.37 -460.037 1240.62 -404.012 1285.84L-404.217 1285.94Z" fill="url(#paint2_linear_724_27242)"/>
<path d="M-244.354 1318.43C-218.654 1318.43 -192.132 1314.93 -165.507 1308.15C-138.677 1301.26 -112.257 1288.72 -79.9786 1267.65C-15.5236 1225.51 33.5116 1171.45 85.425 1114.2C161.188 1030.54 247.128 935.875 402.971 854.883C509.985 799.278 579.888 750.354 670.043 667.821C708.387 632.67 750.432 605.947 791.037 580.046C823.625 559.284 854.361 539.756 881.912 516.938C889.005 511.08 896.612 504.399 905.761 495.766C951.301 453.42 977.617 388.154 972.683 329.466C968.16 275.505 938.348 228.946 886.537 194.925C847.782 169.435 806.354 157.102 759.889 157.102C710.34 157.102 662.333 171.285 617.821 186.703C590.785 196.056 569.197 212.603 548.226 228.637C528.386 243.849 507.929 259.472 482.846 268.927C472.155 272.936 460.744 274.992 448.82 274.992C413.868 274.992 380.664 257.93 354.039 244.157C342.114 237.99 331.731 232.646 323.405 230.076C262.753 210.959 201.691 201.297 141.862 201.297C106.705 201.297 72.2668 204.689 39.3712 211.473C-13.4675 222.265 -57.0544 239.326 -93.7537 263.48C-133.023 289.381 -163.554 322.785 -187.198 365.645C-206.73 401.104 -205.085 443.861 -203.543 481.582C-203.337 487.954 -203.029 493.504 -202.926 499.055C-201.693 539.55 -203.646 591.455 -228.626 634.52C-243.018 659.29 -265.325 678.613 -286.81 697.319C-294.828 704.206 -303.772 712.017 -311.893 719.828C-326.388 733.704 -340.471 747.579 -353.424 760.53C-398.964 805.754 -433.504 858.378 -456.223 916.86C-478.427 973.904 -488.707 1035.26 -487.062 1099.09C-485.315 1165.9 -453.139 1227.67 -398.861 1268.58C-369.049 1291.09 -333.069 1306.61 -294.725 1313.7C-283.109 1315.86 -271.184 1317.19 -259.363 1317.81C-254.325 1318.12 -249.288 1318.22 -244.251 1318.22L-244.354 1318.43ZM759.786 161.932C805.224 161.932 845.829 174.06 883.762 199.036C934.339 232.235 963.328 277.561 967.749 329.979C972.58 387.229 946.881 450.953 902.369 492.271C893.219 500.802 885.715 507.483 878.725 513.238C851.38 535.85 820.849 555.276 788.467 575.832C747.553 601.836 705.406 628.764 666.65 664.121C576.804 746.346 507.107 795.167 400.607 850.463C243.941 931.866 157.796 1026.94 81.7243 1110.81C30.0164 1167.85 -18.8131 1221.71 -82.754 1263.44C-114.622 1284.2 -140.527 1296.53 -166.844 1303.32C-198.197 1311.33 -229.243 1314.62 -259.26 1313.08C-270.979 1312.46 -282.698 1311.13 -294.006 1308.97C-331.63 1301.98 -366.993 1286.77 -396.188 1264.67C-449.232 1224.69 -480.689 1164.25 -482.437 1098.89C-484.184 1035.57 -473.904 974.931 -451.905 918.505C-429.495 860.639 -395.263 808.631 -350.237 763.922C-337.181 750.971 -323.201 737.096 -308.706 723.22C-300.688 715.512 -291.744 707.7 -283.829 700.917C-261.933 681.902 -239.317 662.271 -224.617 636.884C-198.917 592.688 -197.067 539.961 -198.197 498.849C-198.3 493.299 -198.609 487.749 -198.814 481.89C-200.356 444.272 -202.001 402.132 -183.086 367.906C-159.853 325.765 -129.836 292.876 -91.1836 267.489C-54.9984 243.643 -11.9255 226.787 40.2963 216.098C72.8836 209.417 107.013 206.025 141.862 206.025C201.177 206.025 261.725 215.584 321.966 234.599C329.881 237.065 340.058 242.307 351.777 248.371C378.916 262.349 412.634 279.822 448.82 279.822C461.258 279.822 473.286 277.664 484.594 273.45C510.293 263.788 531.059 247.857 551.207 232.44C571.767 216.715 593.149 200.372 619.466 191.225C663.567 176.013 711.06 161.932 759.992 161.932H759.786Z" fill="url(#paint3_linear_724_27242)"/>
<path d="M-236.421 1294.29C-212.469 1294.29 -187.797 1291.51 -163.125 1285.96C-137.426 1280.21 -112.034 1269.52 -80.5779 1251.43C-5.53461 1207.95 50.3881 1147.72 109.498 1083.89C176.934 1011.13 253.313 928.797 372.766 855.412C469.5 796.004 535.085 739.783 617.119 666.808C659.781 628.882 707.479 602.673 753.636 577.286C783.756 560.738 812.231 545.115 838.754 526.717C846.978 521.065 855.51 514.692 864.967 507.189C888.303 488.894 909.068 463.096 923.357 434.728C938.88 403.894 946.487 371.107 945.253 339.964C943.197 286.107 915.339 239.752 864.762 205.937C826.829 180.551 786.326 168.217 741.095 168.217C688.873 168.217 638.09 184.867 591.008 202.751C563.766 213.132 542.384 231.222 521.722 248.694C501.881 265.448 481.424 282.818 455.827 293.096C444.828 297.515 433.109 299.777 420.979 299.777C384.588 299.777 350.356 280.248 322.908 264.523C311.806 258.15 302.246 252.703 294.639 249.928C226.174 224.644 157.71 211.899 90.9937 211.899C66.1163 211.899 41.5474 213.749 17.9036 217.346C-88.9045 233.791 -162.817 280.454 -207.946 359.904C-228.608 396.391 -225.833 440.792 -223.468 479.952C-223.057 486.222 -222.749 492.08 -222.44 497.939C-220.282 539.771 -221.207 593.525 -247.318 638.029C-262.327 663.622 -285.765 683.253 -308.483 702.37C-317.324 709.771 -326.267 717.274 -334.594 724.982C-349.294 738.549 -362.555 751.397 -375.405 764.142C-462.887 851.3 -502.979 973.61 -485.195 1099.93C-477.073 1158.1 -442.739 1211.96 -391.236 1247.73C-351.762 1275.07 -303.857 1290.9 -252.766 1293.67C-247.523 1293.98 -242.075 1294.08 -236.524 1294.08L-236.421 1294.29ZM741.3 173.15C785.607 173.15 825.184 185.176 862.295 210.049C911.535 242.939 938.674 287.957 940.627 340.272C941.758 370.593 934.357 402.558 919.245 432.673C905.265 460.526 885.013 485.605 862.192 503.592C852.734 510.992 844.305 517.262 836.184 522.915C809.867 541.21 781.495 556.73 751.477 573.277C705.115 598.767 657.108 625.079 614.035 663.416C532.104 736.185 466.724 792.304 370.299 851.506C250.332 925.303 173.644 1007.84 106.105 1080.71C47.0985 1144.33 -8.51556 1204.35 -82.942 1247.42C-113.885 1265.3 -138.968 1275.89 -164.051 1281.44C-188.414 1286.89 -212.675 1289.66 -236.318 1289.66C-241.664 1289.66 -247.009 1289.56 -252.252 1289.25C-302.521 1286.58 -349.5 1271.06 -388.255 1244.23C-438.729 1209.29 -472.242 1156.66 -480.157 1099.72C-497.633 974.946 -458.158 854.076 -371.704 768.048C-358.957 755.303 -345.594 742.558 -330.996 728.991C-322.669 721.282 -313.829 713.882 -305.194 706.584C-282.064 687.159 -258.214 667.117 -242.795 640.907C-215.964 595.272 -215.039 540.593 -217.198 498.144C-217.506 492.286 -217.814 486.427 -218.226 480.158C-220.59 441.615 -223.365 397.933 -203.422 362.782C-159.013 284.668 -86.3345 238.725 18.9316 222.588C42.267 218.991 66.6303 217.141 91.3021 217.141C157.402 217.141 225.352 229.885 293.302 254.861C300.498 257.534 309.956 262.878 320.75 269.045C348.814 285.079 383.662 304.916 421.287 304.916C434.034 304.916 446.37 302.552 457.986 297.927C484.2 287.34 505.068 269.765 525.114 252.806C545.468 235.538 566.542 217.757 592.961 207.685C639.632 189.904 689.901 173.459 741.3 173.459V173.15Z" fill="url(#paint4_linear_724_27242)"/>
<path d="M-228.009 1270.33C-206.113 1270.33 -183.497 1268.17 -160.676 1263.86C-135.901 1259.23 -111.333 1250.39 -81.2124 1235.18C7.81152 1190.47 71.8554 1120.99 139.6 1047.3C197.887 983.984 258.23 918.512 342.731 855.918C398.448 814.703 442.96 774.413 490.144 731.861C513.685 710.586 538.049 688.59 564.365 665.979C610.728 626.1 663.669 601.329 714.76 577.381C743.133 564.122 769.963 551.48 795.766 536.577C805.121 531.13 814.475 525.271 824.344 518.693C850.147 501.529 873.585 476.039 890.444 446.952C908.434 415.809 918.097 382.405 918.302 350.338C918.508 312.925 905.658 259.376 843.362 217.031C805.943 191.541 766.365 179.207 722.367 179.207C715.891 179.207 709.209 179.515 702.527 180.029C654.109 183.935 605.588 202.024 564.571 219.086C537.021 230.495 515.947 250.126 495.49 269.141C475.753 287.538 455.296 306.45 429.287 317.55C418.185 322.278 406.363 324.642 394.027 324.642C355.375 324.642 318.779 301.722 292.051 284.969C281.874 278.596 273.033 273.046 266.146 270.168C175.477 231.523 81.1072 215.078 -3.29077 223.711C-108.043 234.401 -183.703 278.391 -228.421 354.654C-250.317 392.067 -246.41 438.113 -243.018 478.814C-242.504 485.187 -241.99 491.251 -241.579 497.315C-238.495 540.586 -238.392 596.087 -265.634 642.133C-281.259 668.548 -306.034 688.693 -329.986 708.119C-339.135 715.519 -348.387 723.022 -356.919 730.731C-373.367 745.428 -385.703 757.043 -397.011 768.349C-439.981 811.106 -470.512 865.169 -485.315 924.782C-499.81 982.853 -498.987 1043.9 -482.951 1101.36C-467.942 1155.01 -427.851 1203.32 -372.956 1234.05C-335.229 1255.12 -291.025 1267.56 -245.28 1270.02C-239.626 1270.33 -233.766 1270.43 -227.906 1270.43L-228.009 1270.33ZM722.367 184.038C765.337 184.038 804.093 196.166 840.689 221.039C901.238 262.254 913.779 314.056 913.573 350.338C913.368 381.583 904.013 414.165 886.435 444.588C869.987 473.058 847.063 497.931 821.877 514.685C812.111 521.16 802.756 527.018 793.504 532.363C767.907 547.266 741.18 559.703 712.807 572.962C661.305 597.012 608.158 621.988 561.281 662.279C534.862 684.993 510.499 706.988 486.958 728.264C439.876 770.815 395.364 811.003 339.852 852.115C254.94 915.017 194.494 980.592 136.105 1044.11C68.6685 1117.39 4.93335 1186.67 -83.2682 1230.97C-113.08 1245.87 -137.135 1254.61 -161.498 1259.23C-189.974 1264.58 -218.243 1266.63 -244.971 1265.19C-289.997 1262.83 -333.378 1250.6 -370.591 1229.84C-424.355 1199.82 -463.625 1152.54 -478.222 1100.13C-494.053 1043.49 -494.875 983.264 -480.586 926.015C-465.886 867.327 -435.869 813.983 -393.516 771.843C-382.208 760.64 -369.975 749.026 -353.63 734.431C-345.2 726.825 -335.948 719.322 -327.005 712.025C-302.641 692.188 -277.456 671.837 -261.419 644.703C-233.458 597.629 -233.458 541.1 -236.644 497.109C-237.056 491.045 -237.569 484.981 -238.083 478.609C-241.476 438.627 -245.28 393.403 -224.103 357.327C-180.311 282.502 -105.781 239.231 -2.67401 228.748C80.9016 220.319 174.552 236.456 264.398 274.896C270.977 277.671 279.612 283.119 289.584 289.388C316.825 306.45 354.039 329.781 394.027 329.781C406.98 329.781 419.522 327.212 431.241 322.278C458.071 310.87 478.837 291.547 498.882 272.943C519.031 254.237 539.796 235.017 566.524 223.814C607.233 206.855 655.24 188.971 703.041 185.168C709.518 184.654 716.097 184.346 722.47 184.346L722.367 184.038Z" fill="url(#paint5_linear_724_27242)"/>
<path d="M-218.038 1246.17C-198.506 1246.17 -178.358 1244.63 -158.312 1241.65C-134.36 1238.05 -109.996 1230.86 -81.8293 1218.93C25.1844 1173.71 97.5551 1090.77 174.14 1002.99C216.391 954.58 259.977 904.629 312.611 856.322C343.039 828.365 370.383 800.614 396.7 773.788C434.016 735.759 469.276 699.889 511.424 664.943C560.973 623.831 618.746 601.116 674.566 579.121C700.574 568.843 727.507 558.256 752.693 546.128C763.281 540.989 773.664 535.541 783.635 529.888C811.905 513.957 838.222 488.776 857.651 458.969C878.21 427.518 889.93 393.395 891.369 360.299C893.013 322.99 882.322 269.852 821.671 227.815C777.879 197.597 731.311 185.571 678.061 191.122C629.128 196.158 581.738 215.172 537.843 235.009C509.984 247.549 489.116 268.619 468.968 289.072C449.23 309.012 428.876 329.568 402.354 341.593C390.943 346.732 378.813 349.405 366.169 349.405C326.077 349.405 288.453 323.709 261.005 304.9C251.753 298.528 243.735 293.081 237.464 289.997C149.057 246.726 57.9773 225.759 -24.6731 229.665C-74.839 232.029 -119.145 243.026 -156.256 262.143C-195.114 282.186 -226.365 311.478 -248.981 348.994C-272.11 387.331 -267.073 435.021 -262.756 477.162V477.778C-262.036 484.356 -261.419 490.318 -260.905 496.176C-256.896 540.886 -255.868 598.238 -284.24 645.62C-300.688 673.063 -326.799 693.619 -352.088 713.558C-361.34 720.856 -370.9 728.359 -379.535 735.862C-392.488 747.065 -406.16 759.193 -418.907 771.938C-461.363 814.284 -489.839 868.655 -501.044 928.885C-512.146 988.19 -504.95 1049.76 -480.895 1102.28C-459.924 1148.12 -418.701 1187.79 -365.04 1213.79C-326.491 1232.5 -283.829 1243.19 -237.981 1245.55C-231.402 1245.86 -224.72 1246.07 -218.141 1246.07L-218.038 1246.17ZM702.733 194.822C744.88 194.822 783.019 206.95 819.101 231.926C878.005 272.627 888.388 324.121 886.743 360.197C885.304 392.367 873.893 425.668 853.744 456.4C834.727 485.487 809.027 510.154 781.374 525.777C771.505 531.327 761.122 536.775 750.637 541.811C725.554 553.939 698.723 564.423 672.818 574.701C616.69 596.799 558.608 619.616 508.34 661.243C465.987 696.394 430.624 732.265 393.308 770.294C366.888 797.222 339.647 824.87 309.321 852.724C256.482 901.134 212.793 951.291 170.542 999.701C94.2654 1087.07 22.2032 1169.6 -83.7825 1214.41C-111.641 1226.13 -135.49 1233.32 -159.134 1236.82C-185.656 1240.83 -211.973 1242.16 -237.775 1240.72C-282.904 1238.36 -325.052 1227.77 -362.985 1209.37C-415.618 1183.78 -456.017 1145.03 -476.474 1100.12C-500.118 1048.52 -507.109 987.984 -496.315 929.605C-485.213 870.3 -457.354 816.854 -415.515 775.124C-402.87 762.482 -389.198 750.457 -376.348 739.254C-367.816 731.854 -358.256 724.35 -349.107 717.156C-323.407 697.011 -296.885 676.146 -280.026 647.881C-250.934 599.266 -251.961 540.989 -256.073 495.56C-256.587 489.598 -257.204 483.637 -257.924 477.059V476.442C-262.344 435.124 -267.176 388.256 -244.868 351.255C-222.664 314.459 -192.133 285.886 -154.097 266.152C-117.603 247.24 -73.9138 236.551 -24.4674 234.187C57.2578 230.384 147.721 251.249 235.306 294.108C241.268 296.986 249.081 302.434 258.23 308.601C286.191 327.718 324.535 354.03 366.169 354.03C379.43 354.03 392.28 351.255 404.307 345.807C431.549 333.474 452.314 312.506 472.36 292.258C492.303 272.113 512.863 251.351 539.796 239.223C583.383 219.592 630.362 200.783 678.575 195.747C686.696 194.925 694.714 194.513 702.527 194.513L702.733 194.822Z" fill="url(#paint6_linear_724_27242)"/>
<path d="M-207.276 1222.34C-190.417 1222.34 -173.147 1221.41 -156.082 1219.56C-132.439 1216.99 -108.384 1211.44 -82.6838 1202.81C47.1513 1158.71 125.998 1056.65 209.368 948.63C232.909 918.104 257.067 886.859 282.458 856.847C295.822 841.018 309.083 824.779 320.802 810.39L321.213 809.876C365.109 756.121 406.536 705.45 458.553 664.132C510.98 622.506 572.865 602.36 632.797 582.832C658.291 574.507 684.505 565.976 709.588 555.903C721.101 551.381 732.307 546.448 742.895 541.308C807.864 510.063 859.16 438.219 864.814 370.383C867.898 333.382 859.16 280.553 800.051 239.029C755.436 207.681 708.046 195.861 653.665 202.645C604.219 208.811 555.903 229.779 511.186 251.363C483.122 264.93 462.459 287.542 442.516 309.537C422.882 331.121 402.527 353.424 375.594 366.067C364.08 371.514 351.745 374.392 338.895 374.392C296.542 374.392 256.45 344.585 229.928 324.851C221.396 318.582 214.2 313.237 208.751 310.154C122.708 262.258 34.6098 236.562 -46.0874 235.843H-49.6854C-97.6926 235.843 -140.56 244.579 -177.259 261.744C-216.22 280.039 -247.368 307.584 -269.778 343.557C-294.141 382.82 -288.076 432.155 -282.628 475.631V476.454C-281.703 483.237 -280.983 489.198 -280.264 495.262C-275.226 541.308 -273.273 600.51 -302.776 649.331C-319.944 677.802 -347.597 698.975 -374.324 719.325C-383.782 726.52 -393.342 733.818 -402.08 741.218C-415.547 752.524 -428.705 763.727 -440.733 775.752C-482.469 817.379 -509.711 873.703 -517.421 934.241C-525.336 996.321 -511.561 1056.45 -478.666 1103.52C-452.246 1141.24 -409.173 1173.62 -357.363 1194.59C-318.813 1210.21 -276.357 1219.36 -231.126 1221.72C-223.313 1222.13 -215.397 1222.34 -207.482 1222.34H-207.276ZM682.655 205.625C724.185 205.625 761.81 217.856 797.481 242.935C854.637 283.122 863.17 334.204 860.188 369.972C854.74 436.163 804.574 506.466 741.044 536.992C730.559 542.028 719.457 546.859 707.943 551.381C682.963 561.351 656.852 569.882 631.564 578.104C571.015 597.838 508.616 618.086 455.572 660.329C403.247 701.955 361.613 752.832 317.513 806.792L317.101 807.306C305.382 821.695 292.121 837.935 278.757 853.66C253.263 883.878 229.105 915.124 205.77 945.341C122.606 1053.06 44.2726 1154.5 -84.2261 1198.18C-109.617 1206.82 -133.261 1212.26 -156.596 1214.73C-181.577 1217.4 -206.762 1218.23 -230.715 1216.89C-275.432 1214.53 -317.374 1205.48 -355.307 1190.06C-406.295 1169.4 -448.648 1137.64 -474.451 1100.64C-506.73 1054.6 -520.196 995.601 -512.384 934.755C-504.777 875.244 -478.049 820.051 -437.032 779.144C-425.107 767.221 -412.052 756.121 -398.688 744.918C-389.95 737.62 -380.493 730.426 -371.344 723.437C-343.999 702.572 -316.038 681.194 -298.356 651.901C-268.133 601.847 -270.087 541.617 -275.226 494.749C-275.843 488.685 -276.666 482.62 -277.488 475.837V475.015C-282.936 432.258 -288.899 383.848 -265.358 346.024C-243.462 310.77 -213.033 283.842 -174.895 266.061C-138.915 249.204 -96.6646 240.571 -49.3771 240.571H-45.7791C33.993 241.29 121.372 266.78 206.695 314.265C211.938 317.143 218.928 322.385 227.152 328.449C254.291 348.697 295.205 379.017 339.1 379.017C352.67 379.017 365.622 376.036 377.856 370.281C405.714 357.125 426.274 334.513 446.32 312.62C466.057 291.036 486.411 268.733 513.55 255.577C557.959 234.096 605.761 213.437 654.59 207.27C664.151 206.036 673.608 205.42 682.757 205.42L682.655 205.625Z" fill="url(#paint7_linear_724_27242)"/>
<path d="M-194.823 1198.71C-181.253 1198.71 -167.376 1198.3 -153.601 1197.37C-60.5675 1191.31 18.3823 1155.44 87.6688 1087.7C148.731 1027.99 195.197 951.416 240.12 877.414C291.416 792.928 339.732 713.169 405.832 663.218C461.24 621.283 524.667 604.632 591.795 586.851C616.775 580.273 642.166 573.593 666.838 565.576C680.099 561.259 691.818 557.045 702.612 552.625C735.919 539.058 768.095 514.391 792.972 483.248C818.467 451.489 834.709 414.796 838.821 380.158C843.138 343.363 836.251 291.047 778.889 250.038C733.555 217.661 685.239 205.944 629.831 213.961C579.665 221.362 530.63 244.076 485.09 267.51C456.717 282.105 436.157 306.362 416.42 329.796C396.785 352.921 376.637 376.767 349.292 390.334C337.47 396.192 324.723 399.276 311.668 399.276C267.67 399.276 226.55 366.283 199.411 344.391C191.907 338.429 185.533 333.29 180.702 330.207C133.209 300.297 84.7903 277.48 36.9888 262.371C-9.5791 247.674 -54.5022 240.479 -96.5469 241.301C-138.592 242.021 -176.524 250.551 -209.214 266.585C-242.83 283.133 -269.866 307.184 -289.809 338.121C-315.509 378.103 -308.21 429.082 -301.837 474.1C-300.808 481.295 -299.883 487.873 -299.061 494.451C-293.099 541.936 -290.22 602.885 -320.751 653.248C-338.741 682.952 -368.039 704.639 -396.309 725.606C-405.869 732.698 -415.327 739.687 -424.065 746.779C-436.915 757.16 -450.073 767.849 -461.997 779.669C-484.51 802.178 -503.117 830.957 -515.658 862.819C-528.097 894.373 -534.573 928.496 -534.162 961.386C-533.545 1018.33 -512.78 1069.2 -475.67 1104.66C-443.699 1135.29 -399.804 1159.96 -348.713 1176.2C-310.677 1188.33 -269.249 1195.62 -225.56 1197.89C-215.486 1198.4 -205.103 1198.71 -194.617 1198.71H-194.823ZM662.315 216.325C703.332 216.325 740.545 228.659 775.908 253.943C831.419 293.617 838.101 344.185 833.886 379.645C829.877 413.46 814.046 449.227 789.066 480.267C764.6 510.793 733.246 534.844 700.659 548.103C689.968 552.42 678.352 556.634 665.296 560.848C640.727 568.865 615.439 575.545 590.972 581.918C522.919 599.802 459.081 616.658 402.953 659.209C336.237 709.675 287.613 789.844 236.111 874.741C191.393 948.538 145.031 1024.8 84.3792 1084.11C15.915 1151.02 -62.0067 1186.48 -153.909 1192.34C-178.169 1193.88 -202.533 1194.08 -225.56 1192.85C-268.838 1190.59 -309.855 1183.29 -347.479 1171.37C-397.851 1155.33 -441.129 1130.97 -472.586 1100.86C-508.771 1066.33 -529.022 1016.68 -529.639 961.078C-530.05 928.804 -523.677 895.298 -511.444 864.258C-499.108 833.012 -480.912 804.747 -458.81 782.752C-447.091 771.035 -433.933 760.449 -421.289 750.171C-412.654 743.182 -403.196 736.192 -394.15 729.409C-365.161 707.928 -335.452 685.932 -316.948 655.406C-285.594 603.81 -288.576 541.833 -294.538 493.526C-295.36 486.948 -296.285 480.37 -297.313 473.381C-303.687 428.98 -310.78 378.925 -286.005 340.485C-266.576 310.267 -240.157 286.833 -207.364 270.697C-175.291 254.971 -138.078 246.543 -96.7524 245.926C-55.1188 245.207 -10.8127 252.299 35.2413 266.791C82.6316 281.797 130.639 304.409 177.824 334.112C182.449 336.99 188.72 342.129 196.122 347.988C223.877 370.291 265.717 403.901 311.462 403.901C325.34 403.901 338.704 400.715 351.245 394.548C379.412 380.57 399.972 356.313 419.915 332.776C439.447 309.651 459.698 285.805 487.146 271.622C532.377 248.29 581.001 225.781 630.447 218.586C641.344 216.942 652.138 216.223 662.418 216.223L662.315 216.325Z" fill="url(#paint8_linear_724_27242)"/>
<path d="M-296.177 1510.53C-258.347 1510.53 -221.031 1502.1 -185.052 1485.35C-146.399 1467.36 -109.597 1437.87 -75.8788 1397.58C-39.8992 1354.72 -12.8632 1308.26 15.715 1259.03C106.075 1103.52 208.36 927.249 644.639 849.649C664.582 846.155 683.805 843.174 702.309 840.296C713.103 838.652 723.691 837.007 734.177 835.26C931.551 803.192 983.362 766.088 1005.57 750.26C1118.65 669.371 1186.08 597.835 1218.36 451.167C1247.97 316.729 1173.54 163.688 1048.95 102.739C905.543 32.5391 757.924 64.1957 741.579 67.9986C664.274 86.088 630.864 82.3879 592.006 78.1739C578.539 76.735 564.559 75.1932 547.7 74.371C439.247 69.0264 325.551 98.7301 210.005 162.66C151.615 194.933 107.514 227.412 71.2263 264.927C32.1627 305.217 1.32312 352.6 -22.8347 409.643C-33.7313 435.338 -39.5909 462.781 -45.1421 489.298L-45.4504 490.532C-46.5812 495.671 -47.7122 501.016 -48.843 506.257C-55.936 538.633 -64.6738 573.065 -81.1217 604.825C-93.4575 628.67 -110.522 649.945 -126.97 670.399L-132.316 677.08C-148.764 697.636 -164.286 715.109 -179.706 730.32C-207.976 758.277 -238.199 784.28 -267.496 809.462C-351.277 881.614 -437.937 956.233 -503.112 1092.83C-535.391 1160.56 -548.035 1229.32 -539.708 1291.81C-532.101 1348.75 -507.635 1399.43 -468.88 1438.48C-433.62 1474.04 -389.005 1497.58 -339.764 1506.52C-329.69 1508.37 -319.307 1509.5 -309.13 1510.12C-304.812 1510.33 -300.495 1510.43 -296.177 1510.43V1510.53ZM844.069 62.4484C900.917 62.4484 974.418 71.5959 1046.89 107.158C1169.53 167.182 1242.83 317.86 1213.73 450.242C1181.76 595.369 1114.94 666.288 1002.89 746.457C980.997 762.08 929.803 798.773 733.56 830.635C723.075 832.382 712.486 833.924 701.692 835.671C683.086 838.549 663.862 841.529 643.919 845.024C205.482 923.035 102.477 1100.23 11.7058 1256.66C-16.7695 1305.79 -43.703 1352.04 -79.3743 1394.59C-112.681 1434.27 -148.866 1463.36 -186.902 1481.03C-226.274 1499.33 -267.496 1507.65 -308.719 1505.39C-318.793 1504.88 -328.867 1503.65 -338.736 1501.9C-386.949 1493.16 -430.741 1470.14 -465.281 1435.3C-503.214 1396.96 -527.269 1347.21 -534.671 1291.3C-542.895 1229.84 -530.456 1161.9 -498.486 1095.09C-433.722 959.317 -347.474 885.109 -264.104 813.265C-234.806 788.083 -204.48 761.977 -176.108 733.918C-160.585 718.603 -144.96 701.028 -128.306 680.266L-122.961 673.688C-106.205 652.926 -89.0374 631.445 -76.496 607.188C-59.7396 574.812 -50.8987 540.072 -43.8055 507.388C-42.6748 502.249 -41.5442 496.904 -40.4133 491.663L-40.105 490.429C-34.5538 464.117 -28.797 436.983 -18.0031 411.699C5.9491 355.169 36.4803 308.301 75.1327 268.422C111.112 231.318 154.905 199.045 212.883 166.977C327.607 103.458 440.48 73.9599 548.008 79.3045C564.661 80.1267 578.539 81.6685 592.006 83.1074C631.172 87.4242 665.096 91.1243 743.12 72.8293C751.036 70.9792 790.1 62.5512 844.48 62.5512L844.069 62.4484Z" fill="url(#paint9_linear_724_27242)"/>
<path d="M-312.943 1583C-296.083 1583 -279.224 1581.25 -262.571 1577.86C-190.92 1563.16 -125.848 1518.04 -74.3458 1447.23C-40.7306 1401.08 -16.2645 1351.54 9.74365 1299.22C103.599 1109.8 200.641 913.792 735.607 848.526C780.633 843.078 821.856 839.995 861.844 837.014C1005.76 823.447 1246.52 800.63 1317.86 518.393C1338.32 437.401 1379.54 163.798 1050.07 40.7685C909.235 -12.575 766.139 -4.04412 632.397 13.1203C484.161 32.1349 398.838 70.8834 274.348 145.194C220.07 177.673 176.175 214.88 132.28 265.859C92.7024 311.7 62.1711 364.426 38.8357 427.02C33.079 442.335 27.5278 458.163 22.0795 473.374L21.8738 473.991C-1.1532 538.743 -24.8995 605.654 -64.9911 661.875C-113.409 729.813 -175.603 773.598 -241.6 819.953C-286.523 851.609 -332.885 884.294 -378.425 926.742C-430.133 974.947 -472.898 1028.91 -509.083 1091.71C-562.847 1184.83 -582.687 1278.97 -566.547 1363.87C-552.258 1439 -510.625 1502.32 -449.254 1542.2C-412.143 1566.35 -369.482 1580.22 -325.998 1582.59C-321.68 1582.79 -317.26 1582.9 -312.943 1582.9V1583ZM808.389 4.89784C887.75 4.89784 968.447 15.0732 1048.32 45.3936C1373.99 166.984 1333.28 437.298 1313.13 517.262C1282.6 637.927 1220.2 720.872 1122.23 770.823C1040.51 812.45 948.607 824.064 861.433 832.286C821.444 835.267 780.016 838.35 734.99 843.798C197.455 909.372 99.7957 1106.51 5.42615 1297.17C-20.4792 1349.38 -44.8425 1398.71 -78.2522 1444.55C-129.035 1514.34 -193.079 1558.85 -263.496 1573.24C-284.056 1577.45 -305.027 1578.99 -325.689 1577.96C-368.351 1575.7 -410.19 1562.03 -446.581 1538.39C-506.719 1499.34 -547.632 1437.05 -561.716 1363.25C-577.65 1279.49 -558.015 1186.57 -504.868 1094.38C-468.888 1031.99 -426.432 978.441 -375.033 930.545C-329.698 888.302 -283.542 855.72 -238.722 824.269C-172.416 777.607 -109.812 733.514 -60.8792 664.959C-20.3763 608.121 3.47278 540.902 26.6027 475.841L26.8082 475.122C32.2566 459.91 37.8076 444.185 43.5643 428.87C66.6941 366.79 97.0199 314.578 136.186 269.148C179.773 218.58 223.257 181.681 277.124 149.511C400.996 75.5085 485.909 36.9656 633.322 18.0538C690.376 10.7564 749.177 5.00062 808.697 5.00062L808.389 4.89784Z" fill="url(#paint10_linear_724_27242)"/>
<path d="M-552.861 1209.58C-544.021 1170.63 -528.601 1130.96 -507.116 1091.59C-431.661 953.658 -340.479 884.898 -252.174 818.398C-211.055 787.358 -172.094 758.066 -136.319 722.812C-118.638 705.339 -102.601 686.941 -87.49 666.488C-68.7805 641.306 -55.1084 619.414 -44.2117 597.419C-29.5114 567.509 -18.7175 535.442 -10.1852 507.896C-8.23206 501.524 -6.27881 495.049 -4.32556 488.779L-3.70886 486.826C2.97314 464.934 9.8606 442.425 18.2902 420.635C42.0367 359.891 72.6708 308.912 112.043 264.922C148.331 224.323 193.048 187.939 252.877 150.423C363.078 81.2517 486.437 39.6253 609.693 30.2723C619.767 29.2444 632.411 29.45 648.242 29.7584C672.914 30.2723 704.165 30.7862 741.584 26.8805C796.273 21.2275 879.54 12.5939 989.432 41.7838C1263.39 114.347 1293 322.582 1296.18 363.592C1304.41 459.795 1268.53 726.615 1007.22 804.831C968.77 818.398 878.615 828.265 799.049 837.002C762.966 840.907 728.94 844.71 705.296 848.205C202.917 917.89 105.566 1104.75 11.2998 1285.54C-15.428 1336.72 -40.6138 1385.13 -74.8458 1430.05C-108.77 1474.66 -147.525 1508.16 -189.981 1529.54C-227.605 1548.45 -267.08 1558.11 -307.274 1558.11C-311.592 1558.11 -315.909 1558.01 -320.33 1557.81C-330.507 1557.29 -340.787 1556.06 -350.861 1554.31C-402.569 1545.06 -449.548 1519.88 -486.659 1481.54C-529.115 1437.65 -554.711 1380.51 -560.674 1316.37C-563.86 1281.94 -561.291 1245.97 -552.964 1209.48L-552.861 1209.58ZM-555.74 1316.06C-549.88 1379.07 -524.797 1435.19 -483.061 1478.25C-446.67 1515.87 -400.719 1540.54 -349.936 1549.58C-340.067 1551.33 -329.993 1552.56 -320.021 1553.08C-276.332 1555.44 -233.054 1545.99 -192.14 1525.33C-150.403 1504.15 -112.162 1471.16 -78.6494 1427.17C-44.7257 1382.56 -19.5398 1334.36 7.08508 1283.28C101.866 1101.46 199.833 913.471 704.679 843.477C728.323 839.88 762.452 836.18 798.535 832.274C877.793 823.64 967.639 813.773 1005.67 800.309C1264.01 722.915 1299.47 459.178 1291.35 364.003C1288.27 323.61 1258.97 118.15 988.199 46.5117C879.129 17.6302 796.376 26.161 742.098 31.814C704.371 35.7197 672.914 35.2058 648.14 34.6918C632.411 34.3835 619.973 34.1779 610.104 35.103C487.67 44.4561 365.031 85.7741 255.447 154.535C196.03 191.844 151.62 228.023 115.641 268.211C76.6801 311.79 46.3544 362.255 22.8134 422.485C14.3838 444.069 7.49634 466.578 0.814331 488.573L0.300293 490.321C-1.65283 496.693 -3.60608 503.168 -5.55933 509.438C-14.1943 537.086 -24.988 569.462 -39.8939 599.68C-50.8934 621.881 -64.7714 644.081 -83.5835 669.468C-98.9006 690.127 -115.04 708.731 -132.927 726.409C-168.907 761.971 -207.971 791.367 -249.296 822.407C-337.189 888.598 -427.96 956.947 -502.901 1094.06C-524.18 1133.01 -539.394 1172.27 -548.235 1210.82C-556.459 1246.79 -558.926 1282.25 -555.842 1316.17L-555.74 1316.06Z" fill="url(#paint11_linear_724_27242)"/>
<path d="M-505.093 1092.34C-434.984 955.742 -346.577 884.617 -261.151 815.651C-224.863 786.461 -190.631 758.813 -158.044 726.643C-141.493 710.3 -125.765 692.417 -109.934 671.86C-92.3556 649.043 -75.4966 626.534 -62.6466 601.147C-47.124 570.415 -37.5637 537.731 -29.4425 507.102C-27.9006 501.244 -26.3586 495.282 -24.8167 489.115C-18.5459 464.653 -12.0696 439.267 -2.20093 415.216C43.7502 302.465 111.495 227.537 231.564 156.618C348.858 87.2411 475.095 50.651 586.94 53.3233C596.603 53.5288 605.341 53.94 613.565 54.2483C647.694 55.6872 674.628 56.7151 739.391 47.9787C870.562 32.5615 932.036 46.5397 957.016 52.1927C1138.76 94.9496 1248.04 209.345 1258.42 368.039C1264.49 505.458 1209.49 627.664 1094.56 725.82C1046.25 766.83 1008.93 784.2 964.418 799.103C918.878 814.212 856.068 826.34 777.529 835.18C743.914 838.88 710.402 843.402 675.142 848.952C205.761 922.749 103.579 1108.47 13.4246 1272.51C-14.1255 1322.67 -40.1337 1369.95 -75.1881 1413.73C-109.009 1456.08 -146.736 1487.63 -187.342 1507.37C-224.144 1525.15 -262.488 1534.19 -301.551 1534.19C-305.869 1534.19 -310.186 1534.09 -314.607 1533.89C-324.887 1533.37 -335.27 1532.14 -345.344 1530.29C-395.818 1521.14 -441.667 1496.78 -477.749 1459.78C-518.252 1418.36 -543.232 1364.4 -549.914 1303.96C-557.315 1237.26 -541.793 1164.08 -504.888 1092.24L-505.093 1092.34ZM-545.288 1303.55C-538.708 1362.96 -514.14 1415.89 -474.459 1456.49C-438.994 1492.77 -394.173 1516.62 -344.624 1525.66C-334.653 1527.41 -324.578 1528.64 -314.401 1529.16C-271.945 1531.42 -229.695 1522.58 -189.604 1503.15C-149.615 1483.73 -112.504 1452.59 -79.0946 1410.86C-44.3485 1367.38 -18.4431 1320.2 9.10706 1270.15C99.7758 1105.29 202.575 918.329 674.319 844.224C709.682 838.674 743.297 834.152 777.015 830.349C855.143 821.612 917.747 809.587 962.876 794.478C1006.87 779.78 1043.68 762.616 1091.37 722.12C1205.07 624.992 1259.55 504.019 1253.59 368.245C1243.21 212.017 1135.37 99.0609 955.988 56.9206C939.849 53.2205 906.234 45.6147 850.414 45.6147C821.116 45.6147 784.828 47.5675 740.008 52.8094C674.833 61.6486 647.797 60.518 613.359 59.079C605.136 58.7707 596.5 58.3596 586.837 58.154C475.814 55.4817 350.605 91.8662 234.031 160.73C114.99 231.135 47.8622 305.343 2.32227 416.963C-7.34082 440.705 -13.817 465.887 -20.0878 490.246C-21.6298 496.413 -23.1719 502.477 -24.7139 508.233C-32.835 539.17 -42.4978 572.06 -58.2261 603.202C-71.1787 628.898 -88.2435 651.612 -105.925 674.635C-121.962 695.294 -137.793 713.384 -154.446 729.932C-187.239 762.308 -221.574 789.956 -257.965 819.248C-343.082 887.803 -430.975 958.62 -500.673 1094.29C-537.167 1165.31 -552.484 1237.57 -545.185 1303.35L-545.288 1303.55Z" fill="url(#paint12_linear_724_27242)"/>
<path d="M-501.169 1093.66C-440.517 954.594 -354.063 875.453 -270.488 798.984L-269.974 798.572C-247.358 777.913 -224.022 756.535 -201.509 734.231C-187.118 719.945 -172.212 703.5 -154.839 682.532C-151.858 678.832 -148.671 675.235 -145.484 671.329L-144.353 669.993C-128.214 650.876 -111.458 631.142 -99.533 608.53C-82.2628 575.743 -74.2445 539.564 -68.0765 505.338C-67.1514 500.199 -66.3289 495.06 -65.4037 489.818C-60.5721 461.245 -55.5352 431.644 -43.4049 404.098C-19.0415 348.905 11.7983 303.27 50.7592 264.83C87.15 228.959 130.942 198.433 188.715 168.729C288.739 117.339 400.07 90.1019 510.785 90.1019C527.746 89.8963 546.25 92.6714 565.782 95.4465C602.687 100.688 655.526 104.08 699.523 93.2881C734.886 84.6545 805.201 67.5928 889.599 73.8625C1019.33 88.7657 1091.6 148.79 1129.43 196.583C1184.12 265.652 1197.07 344.896 1191.01 395.979C1174.35 538.639 1084.3 667.526 937.4 758.899C857.937 808.337 692.225 835.676 690.58 835.985C666.216 840.404 641.031 844.927 614.303 850.374C211.537 931.468 109.149 1098.08 18.6858 1245.16C-11.1259 1293.67 -39.293 1339.41 -76.5061 1381.44C-110.224 1419.37 -145.895 1446.92 -182.8 1463.26C-217.855 1478.78 -254.143 1486.69 -290.636 1486.69C-294.954 1486.69 -299.374 1486.59 -303.692 1486.38C-314.074 1485.87 -324.354 1484.64 -334.531 1482.79C-382.436 1474.05 -425.92 1451.44 -460.357 1417.21C-497.159 1380.62 -521.214 1333.03 -529.644 1279.69C-538.999 1220.69 -529.541 1158.1 -501.374 1093.66H-501.169ZM-524.607 1278.87C-516.28 1331.18 -492.842 1377.85 -456.656 1413.72C-423.041 1447.12 -380.38 1469.32 -333.401 1477.96C-323.532 1479.81 -313.355 1480.94 -303.178 1481.45C-263.189 1483.61 -222.995 1475.9 -184.445 1458.74C-148.26 1442.7 -113 1415.57 -79.7955 1378.05C-42.8906 1336.43 -14.8267 1290.79 14.8823 1242.48C105.757 1094.58 208.761 927.049 613.584 845.543C640.311 840.199 665.6 835.574 689.963 831.154C691.608 830.846 856.395 803.609 935.036 754.788C1080.7 664.237 1169.93 536.583 1186.38 395.465C1192.34 345.307 1179.49 267.502 1125.83 199.667C1072.38 132.139 990.65 90.3075 889.29 78.6932C875.207 77.6654 861.843 77.1515 849.096 77.1515C786.594 77.1515 729.849 90.8214 700.757 98.016C655.937 109.014 602.481 105.622 565.165 100.277C545.736 97.5021 527.232 95.0354 510.887 95.0354C400.995 95.0354 290.384 122.067 190.977 173.046C133.718 202.442 90.234 232.762 54.2543 268.324C15.7047 306.353 -14.8268 351.474 -38.8817 406.154C-50.7036 433.083 -55.7406 462.375 -60.5721 490.743C-61.4973 495.985 -62.3198 501.227 -63.245 506.366C-69.413 541.003 -77.6367 577.593 -95.2153 610.894C-107.346 633.917 -124.205 653.959 -140.55 673.179L-141.681 674.516C-144.97 678.318 -148.054 682.019 -151.035 685.719C-168.511 706.892 -183.52 723.337 -198.014 737.726C-220.63 760.132 -243.966 781.511 -266.581 802.17L-267.095 802.581C-350.362 878.742 -436.405 957.472 -496.646 1095.61C-524.401 1159.23 -533.756 1220.9 -524.504 1278.97L-524.607 1278.87Z" fill="url(#paint13_linear_724_27242)"/>
<path d="M-495.202 1095.83C-475.053 1025.22 -444.625 961.286 -402.169 900.542C-360.638 841.134 -310.37 788.922 -266.68 745.548C-251.568 730.542 -237.279 715.022 -222.168 698.577C-216 691.896 -209.524 685.318 -203.253 678.843C-185.571 660.856 -167.273 642.15 -154.937 619.744C-134.48 582.845 -128.826 539.883 -125.948 502.779C-125.64 498.257 -125.331 493.529 -124.92 488.903V487.156C-122.556 453.547 -120.294 418.91 -104.977 387.664C-80.7164 337.918 -49.8766 297.628 -10.9158 264.532C25.1666 233.903 69.5757 208.619 124.676 187.035C196.944 158.873 273.837 144.587 353.301 144.587C381.468 144.587 409.84 146.437 437.802 150.137C449.624 151.679 467.614 157.126 482.211 161.546C522.714 173.879 561.983 185.905 616.569 164.012C621.915 161.854 628.494 158.668 635.998 154.968C671.875 137.392 731.91 107.997 824.84 111.08C964.647 113.547 1049.15 198.238 1079.16 270.082C1107.64 343.057 1091.09 428.571 1032.7 510.899C1013.99 537.211 949.946 614.091 879.426 680.385C812.607 743.287 698.808 801.975 574.936 837.229L523.536 852.44C223.466 940.627 122.62 1077.94 33.699 1199.12C-1.45837 1247.12 -34.7653 1292.34 -77.9408 1332.63C-111.453 1363.88 -143.321 1384.85 -175.394 1396.77C-207.468 1408.69 -240.158 1414.76 -272.642 1414.76C-277.165 1414.76 -281.586 1414.65 -286.109 1414.45C-296.697 1413.93 -307.285 1412.6 -317.668 1410.75C-361.563 1402.63 -401.655 1382.79 -433.625 1353.29C-465.39 1323.9 -488.109 1285.87 -499.314 1243.21C-511.444 1197.07 -510.108 1147.53 -495.408 1096.03L-495.202 1095.83ZM-494.482 1241.88C-483.483 1283.61 -461.278 1320.92 -430.233 1349.7C-398.982 1378.58 -359.713 1398.11 -316.64 1406.02C-306.566 1407.87 -296.183 1409.1 -285.698 1409.62C-249.615 1411.57 -212.71 1405.61 -176.936 1392.25C-145.48 1380.53 -114.126 1359.87 -81.1276 1329.04C-38.2604 1289.05 -5.15906 1243.93 29.9982 1196.14C119.433 1074.34 220.69 936.31 522.405 847.712L573.805 832.501C696.958 797.452 810.037 739.278 876.342 676.787C952.105 605.354 1014.71 528.063 1028.9 508.021C1086.36 427.029 1102.6 343.057 1074.74 271.727C1045.34 201.322 962.282 118.275 824.84 115.808C820.317 115.602 815.794 115.602 811.373 115.602C727.386 115.602 671.978 142.737 638.26 159.182C630.653 162.882 624.074 166.171 618.522 168.329C562.394 190.838 522.405 178.71 480.977 166.068C466.585 161.751 448.698 156.304 437.288 154.865C409.532 151.267 381.262 149.417 353.404 149.417C274.557 149.417 198.177 163.601 126.526 191.558C71.9401 212.833 27.9421 237.912 -7.729 268.232C-46.2787 300.917 -76.6045 340.693 -100.557 389.822C-115.36 420.246 -117.621 454.472 -119.883 487.567V489.315C-120.294 493.94 -120.602 498.668 -121.014 503.19C-123.892 540.808 -129.649 584.387 -150.62 622.108C-163.367 645.131 -181.871 663.94 -199.758 682.235C-206.028 688.607 -212.505 695.185 -218.57 701.866C-233.681 718.414 -247.97 733.934 -263.184 749.043C-306.771 792.211 -356.835 844.321 -398.057 903.317C-440.205 963.65 -470.427 1027.07 -490.473 1097.16C-504.968 1147.83 -506.202 1196.55 -494.38 1241.88H-494.482Z" fill="url(#paint14_linear_724_27242)"/>
<path d="M-499.112 1094.36C-442.367 949.439 -357.25 867.42 -267.095 780.673L-266.067 779.748C-251.983 766.181 -237.489 752.202 -223.2 738.019C-206.135 721.163 -190.407 703.176 -177.249 687.861C-173.034 682.928 -168.613 677.892 -164.296 673.061L-163.268 671.93C-146.82 653.533 -129.858 634.415 -117.934 612.214C-99.6355 578.194 -92.4395 540.268 -87.2994 504.5C-86.6827 499.977 -86.0659 495.352 -85.3463 490.213V489.083C-81.1315 458.762 -77.0197 427.414 -63.8613 398.635C-17.1906 296.471 51.9932 229.56 167.436 174.778C247.106 137.057 339.728 116.193 458.872 109.101C471.824 108.278 506.879 107.867 541.214 117.015C596.622 133.871 641.031 126.779 667.554 117.734C818.257 66.0353 909.851 89.7778 939.868 97.4863C941.204 97.7947 1073.82 134.59 1132.41 245.286C1165.82 308.393 1167.67 382.396 1137.86 465.135C1109.79 549.004 975.025 739.56 790.398 799.996C724.504 822.196 586.651 850.564 584.081 851.078C215.135 935.153 112.85 1092.1 22.6954 1230.65C-8.55554 1278.65 -38.0588 1323.97 -76.8141 1365.19C-110.738 1401.37 -144.558 1426.14 -180.127 1441.14C-214.256 1455.53 -249.414 1462.83 -284.571 1462.83C-288.991 1462.83 -293.309 1462.73 -297.729 1462.52C-308.112 1462.01 -318.495 1460.78 -328.672 1458.93C-375.24 1450.39 -417.593 1428.61 -451.105 1396.02C-486.159 1361.8 -509.701 1317.4 -519.055 1267.65C-529.335 1212.97 -522.653 1154.69 -499.112 1094.57V1094.36ZM-514.327 1266.52C-505.177 1315.34 -482.151 1358.82 -447.816 1392.32C-415.023 1424.29 -373.492 1445.67 -327.849 1453.99C-317.878 1455.84 -307.598 1456.97 -297.524 1457.59C-258.768 1459.65 -219.704 1452.55 -181.977 1436.62C-147.026 1421.92 -113.822 1397.46 -80.3092 1361.8C-41.8624 1320.89 -12.4618 1275.77 18.6863 1227.98C109.355 1088.71 212.154 930.836 583.156 846.35C584.595 846.042 722.962 817.571 788.959 795.37C971.941 735.552 1105.58 546.743 1133.44 463.593C1162.74 382.19 1160.99 309.524 1128.3 247.65C1070.73 138.804 940.177 102.625 938.84 102.317C923.523 98.4114 892.272 90.2917 845.19 90.2917C800.576 90.2917 741.877 97.5891 669.301 122.462C642.059 131.815 596.725 139.01 539.98 121.845C506.365 112.904 472.03 113.417 459.283 114.137C340.755 121.126 248.75 141.888 169.595 179.3C55.2828 233.466 -13.2842 299.76 -59.3381 400.794C-72.188 428.956 -76.3 459.893 -80.3092 489.905L-80.5148 491.549C-81.1315 496.175 -81.7482 500.8 -82.365 505.322C-87.505 541.604 -94.9065 579.941 -113.513 614.681C-125.643 637.396 -142.811 656.616 -159.464 675.322L-160.492 676.453C-164.81 681.283 -169.128 686.217 -173.445 691.15C-186.706 706.568 -202.537 724.554 -219.705 741.513C-234.097 755.697 -248.591 769.778 -262.675 783.242L-263.703 784.167C-353.446 870.606 -438.255 952.215 -494.589 1096.21C-517.822 1155.52 -524.401 1212.87 -514.327 1266.62V1266.52Z" fill="url(#paint15_linear_724_27242)"/>
<path d="M-497.154 1095.09C-443.699 938.55 -350.871 846.664 -252.698 749.433L-244.885 741.725C-228.746 725.793 -213.737 708.937 -199.654 693.109C-194.205 686.942 -188.552 680.878 -183 674.917C-166.039 656.827 -148.46 638.018 -136.432 615.818C-117.106 580.255 -110.527 539.04 -106.621 503.478C-106.107 498.544 -105.593 493.508 -105.079 488.061C-101.892 456.096 -98.7053 423.103 -84.519 392.988C-60.1558 341.392 -29.3158 299.354 9.64502 264.512C45.6246 232.238 90.2394 204.898 145.956 180.848C245.055 137.988 357.825 120.104 466.484 130.074C479.231 131.204 493.828 134.802 509.351 138.707C532.481 144.463 558.694 150.938 585.011 150.938C596.319 150.938 606.701 149.808 616.776 147.444C638.261 142.51 657.587 135.11 676.502 127.915C699.221 119.282 726.257 109.826 754.012 105.304C762.853 103.865 808.804 96.7727 843.653 100.164C978.731 109.004 1046.58 166.561 1079.58 213.224C1128.41 282.19 1129.64 364.107 1114.63 417.656C1087.08 515.503 1040.51 567.51 999.188 613.659C956.835 661.247 896.697 715.001 855.269 740.902C810.346 772.764 722.556 806.682 601.356 839.161C598.683 839.88 596.833 840.394 595.702 840.703C586.964 842.861 579.357 844.917 571.236 847.075C565.787 848.514 560.133 849.953 553.76 851.598C218.944 938.139 117.276 1085.32 27.4292 1215.24C-5.56934 1263.03 -36.8203 1308.15 -77.4259 1348.75C-111.247 1382.46 -144.039 1405.38 -177.758 1418.85C-210.859 1432 -244.783 1438.68 -278.706 1438.68C-283.127 1438.68 -287.547 1438.58 -291.967 1438.38C-302.453 1437.86 -313.041 1436.63 -323.218 1434.68C-368.45 1426.35 -409.672 1405.49 -442.362 1374.45C-475.772 1342.69 -498.799 1301.47 -509.079 1255.22C-520.284 1204.75 -516.275 1150.9 -497.257 1095.09H-497.154ZM-504.247 1254.19C-494.173 1299.42 -471.557 1339.81 -438.867 1370.95C-406.794 1401.48 -366.497 1421.83 -322.087 1429.95C-312.116 1431.8 -301.836 1433.03 -291.453 1433.54C-254.034 1435.6 -215.999 1429.02 -179.3 1414.43C-146.198 1401.27 -113.817 1378.66 -80.6127 1345.46C-40.2126 1305.17 -9.16724 1260.15 23.7284 1212.57C113.986 1082.03 216.271 934.028 552.835 847.075C559.208 845.431 564.76 843.992 570.208 842.553C578.226 840.394 585.936 838.442 594.571 836.18C595.599 835.872 597.552 835.358 600.225 834.639C719.164 802.776 808.804 768.139 852.699 736.997C893.819 711.198 953.545 657.855 995.693 610.576C1036.61 564.838 1082.87 513.242 1110.01 416.422C1124.81 363.901 1123.47 283.629 1075.67 216.102C1029.1 150.322 948.816 111.882 843.242 104.995C836.766 104.379 829.981 104.07 823.093 104.07C793.179 104.07 761.928 108.901 754.835 110.031C727.49 114.554 700.763 123.907 678.147 132.438C659.232 139.632 639.7 147.033 617.907 152.069C607.524 154.536 596.73 155.666 585.114 155.666C558.18 155.666 531.658 149.088 508.22 143.333C492.903 139.53 478.511 135.932 466.175 134.802C358.442 124.935 246.494 142.716 148.012 185.267C92.8093 209.113 48.6058 236.247 13.0374 268.109C-25.5122 302.541 -55.9409 344.167 -79.9958 395.044C-93.771 424.336 -97.0604 456.918 -100.144 488.677C-100.658 493.919 -101.172 498.955 -101.686 503.889C-105.593 539.965 -112.275 581.797 -132.012 618.079C-144.348 640.793 -162.132 659.808 -179.3 678.103C-184.851 683.961 -190.505 690.026 -195.953 696.193C-210.037 712.021 -225.148 728.877 -241.39 745.014L-249.203 752.722C-347.068 849.542 -439.381 941.017 -492.528 1096.53C-511.34 1151.51 -515.247 1204.55 -504.247 1254.09V1254.19Z" fill="url(#paint16_linear_724_27242)"/>
</g>
<defs>
<linearGradient id="paint0_linear_724_27242" x1="996.207" y1="-145.681" x2="-502.026" y2="1402.46" gradientUnits="userSpaceOnUse">
<stop stop-color="#AFB388"/>
<stop offset="0.31" stop-color="#41929E"/>
<stop offset="0.49" stop-color="#27758D"/>
<stop offset="0.68" stop-color="#115C7E"/>
<stop offset="0.86" stop-color="#044D76"/>
<stop offset="1" stop-color="#004873"/>
</linearGradient>
<linearGradient id="paint1_linear_724_27242" x1="980.289" y1="-161.106" x2="-517.943" y2="1387.04" gradientUnits="userSpaceOnUse">
<stop stop-color="#AFB388"/>
<stop offset="0.31" stop-color="#41929E"/>
<stop offset="0.49" stop-color="#27758D"/>
<stop offset="0.68" stop-color="#115C7E"/>
<stop offset="0.86" stop-color="#044D76"/>
<stop offset="1" stop-color="#004873"/>
</linearGradient>
<linearGradient id="paint2_linear_724_27242" x1="965.476" y1="-175.503" x2="-532.859" y2="1372.64" gradientUnits="userSpaceOnUse">
<stop stop-color="#AFB388"/>
<stop offset="0.31" stop-color="#41929E"/>
<stop offset="0.49" stop-color="#27758D"/>
<stop offset="0.68" stop-color="#115C7E"/>
<stop offset="0.86" stop-color="#044D76"/>
<stop offset="1" stop-color="#004873"/>
</linearGradient>
<linearGradient id="paint3_linear_724_27242" x1="951.712" y1="-188.757" x2="-546.521" y2="1359.39" gradientUnits="userSpaceOnUse">
<stop stop-color="#AFB388"/>
<stop offset="0.31" stop-color="#41929E"/>
<stop offset="0.49" stop-color="#27758D"/>
<stop offset="0.68" stop-color="#115C7E"/>
<stop offset="0.86" stop-color="#044D76"/>
<stop offset="1" stop-color="#004873"/>
</linearGradient>
<linearGradient id="paint4_linear_724_27242" x1="938.571" y1="-201.487" x2="-559.661" y2="1346.66" gradientUnits="userSpaceOnUse">
<stop stop-color="#AFB388"/>
<stop offset="0.31" stop-color="#41929E"/>
<stop offset="0.49" stop-color="#27758D"/>
<stop offset="0.68" stop-color="#115C7E"/>
<stop offset="0.86" stop-color="#044D76"/>
<stop offset="1" stop-color="#004873"/>
</linearGradient>
<linearGradient id="paint5_linear_724_27242" x1="925.704" y1="-213.931" x2="-572.529" y2="1334.21" gradientUnits="userSpaceOnUse">
<stop stop-color="#AFB388"/>
<stop offset="0.31" stop-color="#41929E"/>
<stop offset="0.49" stop-color="#27758D"/>
<stop offset="0.68" stop-color="#115C7E"/>
<stop offset="0.86" stop-color="#044D76"/>
<stop offset="1" stop-color="#004873"/>
</linearGradient>
<linearGradient id="paint6_linear_724_27242" x1="913.162" y1="-226.067" x2="-585.071" y2="1322.08" gradientUnits="userSpaceOnUse">
<stop stop-color="#AFB388"/>
<stop offset="0.31" stop-color="#41929E"/>
<stop offset="0.49" stop-color="#27758D"/>
<stop offset="0.68" stop-color="#115C7E"/>
<stop offset="0.86" stop-color="#044D76"/>
<stop offset="1" stop-color="#004873"/>
</linearGradient>
<linearGradient id="paint7_linear_724_27242" x1="900.794" y1="-237.978" x2="-597.439" y2="1310.17" gradientUnits="userSpaceOnUse">
<stop stop-color="#AFB388"/>
<stop offset="0.31" stop-color="#41929E"/>
<stop offset="0.49" stop-color="#27758D"/>
<stop offset="0.68" stop-color="#115C7E"/>
<stop offset="0.86" stop-color="#044D76"/>
<stop offset="1" stop-color="#004873"/>
</linearGradient>
<linearGradient id="paint8_linear_724_27242" x1="888.781" y1="-249.684" x2="-609.554" y2="1298.46" gradientUnits="userSpaceOnUse">
<stop stop-color="#AFB388"/>
<stop offset="0.31" stop-color="#41929E"/>
<stop offset="0.49" stop-color="#27758D"/>
<stop offset="0.68" stop-color="#115C7E"/>
<stop offset="0.86" stop-color="#044D76"/>
<stop offset="1" stop-color="#004873"/>
</linearGradient>
<linearGradient id="paint9_linear_724_27242" x1="1091.61" y1="-53.386" x2="-406.623" y2="1494.76" gradientUnits="userSpaceOnUse">
<stop stop-color="#AFB388"/>
<stop offset="0.31" stop-color="#41929E"/>
<stop offset="0.49" stop-color="#27758D"/>
<stop offset="0.68" stop-color="#115C7E"/>
<stop offset="0.86" stop-color="#044D76"/>
<stop offset="1" stop-color="#004873"/>
</linearGradient>
<linearGradient id="paint10_linear_724_27242" x1="1145.78" y1="-0.96066" x2="-352.457" y2="1547.18" gradientUnits="userSpaceOnUse">
<stop stop-color="#AFB388"/>
<stop offset="0.31" stop-color="#41929E"/>
<stop offset="0.49" stop-color="#27758D"/>
<stop offset="0.68" stop-color="#115C7E"/>
<stop offset="0.86" stop-color="#044D76"/>
<stop offset="1" stop-color="#004873"/>
</linearGradient>
<linearGradient id="paint11_linear_724_27242" x1="1129.34" y1="-16.8015" x2="-368.891" y2="1531.34" gradientUnits="userSpaceOnUse">
<stop stop-color="#AFB388"/>
<stop offset="0.31" stop-color="#41929E"/>
<stop offset="0.49" stop-color="#27758D"/>
<stop offset="0.68" stop-color="#115C7E"/>
<stop offset="0.86" stop-color="#044D76"/>
<stop offset="1" stop-color="#004873"/>
</linearGradient>
<linearGradient id="paint12_linear_724_27242" x1="1109.36" y1="-36.0963" x2="-388.868" y2="1512.05" gradientUnits="userSpaceOnUse">
<stop stop-color="#AFB388"/>
<stop offset="0.31" stop-color="#41929E"/>
<stop offset="0.49" stop-color="#27758D"/>
<stop offset="0.68" stop-color="#115C7E"/>
<stop offset="0.86" stop-color="#044D76"/>
<stop offset="1" stop-color="#004873"/>
</linearGradient>
<linearGradient id="paint13_linear_724_27242" x1="1072.79" y1="-71.5729" x2="-425.446" y2="1476.57" gradientUnits="userSpaceOnUse">
<stop stop-color="#AFB388"/>
<stop offset="0.31" stop-color="#41929E"/>
<stop offset="0.49" stop-color="#27758D"/>
<stop offset="0.68" stop-color="#115C7E"/>
<stop offset="0.86" stop-color="#044D76"/>
<stop offset="1" stop-color="#004873"/>
</linearGradient>
<linearGradient id="paint14_linear_724_27242" x1="1014.92" y1="-127.578" x2="-483.317" y2="1420.57" gradientUnits="userSpaceOnUse">
<stop stop-color="#AFB388"/>
<stop offset="0.31" stop-color="#41929E"/>
<stop offset="0.49" stop-color="#27758D"/>
<stop offset="0.68" stop-color="#115C7E"/>
<stop offset="0.86" stop-color="#044D76"/>
<stop offset="1" stop-color="#004873"/>
</linearGradient>
<linearGradient id="paint15_linear_724_27242" x1="1052.95" y1="-90.8087" x2="-445.286" y2="1457.34" gradientUnits="userSpaceOnUse">
<stop stop-color="#AFB388"/>
<stop offset="0.31" stop-color="#41929E"/>
<stop offset="0.49" stop-color="#27758D"/>
<stop offset="0.68" stop-color="#115C7E"/>
<stop offset="0.86" stop-color="#044D76"/>
<stop offset="1" stop-color="#004873"/>
</linearGradient>
<linearGradient id="paint16_linear_724_27242" x1="1034.55" y1="-108.584" x2="-463.682" y2="1439.56" gradientUnits="userSpaceOnUse">
<stop stop-color="#AFB388"/>
<stop offset="0.31" stop-color="#41929E"/>
<stop offset="0.49" stop-color="#27758D"/>
<stop offset="0.68" stop-color="#115C7E"/>
<stop offset="0.86" stop-color="#044D76"/>
<stop offset="1" stop-color="#004873"/>
</linearGradient>
</defs>
</svg>
