<svg width="24" height="24" viewBox="0 0 24 24" fill="none" xmlns="http://www.w3.org/2000/svg">
<path fill-rule="evenodd" clip-rule="evenodd" d="M17.3333 3.75024C16.2835 3.75024 15.4167 4.61448 15.4167 5.70024C15.4167 6.04272 15.5029 6.36315 15.6539 6.64138C15.6619 6.6532 15.6695 6.66531 15.6768 6.67772C15.6868 6.6947 15.6961 6.71191 15.7047 6.72932C16.0444 7.28422 16.6501 7.65024 17.3333 7.65024C18.3831 7.65024 19.25 6.78601 19.25 5.70024C19.25 4.61448 18.3831 3.75024 17.3333 3.75024ZM14.8306 8.04885C15.4531 8.72542 16.342 9.15024 17.3333 9.15024C19.2291 9.15024 20.75 7.59682 20.75 5.70024C20.75 3.80367 19.2291 2.25024 17.3333 2.25024C15.4376 2.25024 13.9167 3.80367 13.9167 5.70024C13.9167 6.0662 13.9733 6.41938 14.0783 6.75108L9.16938 9.65164C8.54692 8.97507 7.65804 8.55024 6.66667 8.55024C4.77094 8.55024 3.25 10.1037 3.25 12.0002C3.25 13.8968 4.77094 15.4502 6.66667 15.4502C7.6582 15.4502 8.5472 15.0253 9.16968 14.3485L14.0796 17.2454C13.9738 17.5783 13.9167 17.9328 13.9167 18.3002C13.9167 20.1968 15.4376 21.7502 17.3333 21.7502C19.2291 21.7502 20.75 20.1968 20.75 18.3002C20.75 16.4037 19.2291 14.8502 17.3333 14.8502C16.3435 14.8502 15.4558 15.2738 14.8335 15.9486L9.92182 13.0507C10.0268 12.7191 10.0833 12.366 10.0833 12.0002C10.0833 11.6343 10.0267 11.2811 9.92169 10.9494L14.8306 8.04885ZM8.29531 10.9712C8.30386 10.9886 8.31315 11.0058 8.32318 11.0228C8.33051 11.0352 8.33814 11.0473 8.34606 11.0591C8.49709 11.3373 8.58333 11.6578 8.58333 12.0002C8.58333 12.3427 8.49709 12.6631 8.34606 12.9414C8.33806 12.9533 8.33034 12.9656 8.32294 12.9781C8.313 12.995 8.3038 13.012 8.29532 13.0293C7.95558 13.5842 7.34986 13.9502 6.66667 13.9502C5.61688 13.9502 4.75 13.086 4.75 12.0002C4.75 10.9145 5.61688 10.0502 6.66667 10.0502C7.34985 10.0502 7.95557 10.4163 8.29531 10.9712ZM15.6303 17.404C15.6504 17.3784 15.669 17.3511 15.6859 17.3224C15.7051 17.29 15.7214 17.2568 15.7352 17.2229C16.0799 16.6952 16.6701 16.3502 17.3333 16.3502C18.3831 16.3502 19.25 17.2145 19.25 18.3002C19.25 19.386 18.3831 20.2502 17.3333 20.2502C16.2835 20.2502 15.4167 19.386 15.4167 18.3002C15.4167 17.976 15.494 17.6716 15.6303 17.404Z" fill="#2C2A29"/>
</svg>
