<svg width="110" height="24" viewBox="0 0 110 24" fill="none" xmlns="http://www.w3.org/2000/svg">
<path d="M76.4393 23.992H66.4169V22.7922C66.6969 22.7682 67.1048 22.7282 67.6367 22.6882C68.1726 22.6482 68.5486 22.5722 68.7645 22.4883C69.1125 22.3363 69.3644 22.1363 69.5244 21.8804C69.6804 21.6284 69.7564 21.2765 69.7564 20.8205V3.47942C69.7564 3.07949 69.7004 2.75554 69.5844 2.48759C69.4724 2.21963 69.2005 1.99567 68.7685 1.8157C68.4566 1.67972 68.0647 1.54774 67.5887 1.43576C67.1128 1.31578 66.7249 1.24779 66.4209 1.2278V0.0159973H76.4433V1.2278C76.1193 1.23979 75.7314 1.27979 75.2795 1.35177C74.8315 1.42776 74.4396 1.51975 74.1037 1.63173C73.7077 1.76771 73.4398 1.99167 73.3078 2.29162C73.1678 2.59557 73.0998 2.93551 73.0998 3.30745V20.6366C73.0998 21.0085 73.1758 21.3444 73.3318 21.6324C73.4798 21.9123 73.7397 22.1523 74.1037 22.3163C74.3236 22.4043 74.6836 22.5042 75.1795 22.6162C75.6754 22.7202 76.0993 22.7842 76.4433 22.7962V23.996L76.4393 23.992Z" fill="#2C2A29"/>
<path d="M45.9563 23.992H36.7059V22.8122C37.5217 22.7562 38.1976 22.6482 38.7375 22.4803C39.2775 22.3123 39.5454 22.1083 39.5454 21.8684C39.5454 21.7684 39.5374 21.6444 39.5134 21.4964C39.4974 21.3524 39.4614 21.2285 39.4214 21.1165L37.5737 15.8134H29.759C29.4631 16.5892 29.2231 17.2771 29.0432 17.853C28.8632 18.4289 28.6992 18.9648 28.5512 19.4488C28.4113 19.9247 28.3193 20.3126 28.2673 20.6206C28.2153 20.9205 28.1913 21.1605 28.1913 21.3484C28.1913 21.7884 28.5192 22.1283 29.1791 22.3803C29.835 22.6282 30.5789 22.7682 31.4028 22.8122V23.992H23.0202V22.8122C23.2921 22.7922 23.6321 22.7322 24.04 22.6202C24.4479 22.5122 24.7799 22.3763 25.0438 22.2003C25.4598 21.8963 25.7877 21.5764 26.0157 21.2525C26.2436 20.9285 26.4676 20.4726 26.6876 19.8927C27.8074 16.9332 29.0392 13.5977 30.3869 9.90235C31.7347 6.20697 32.9425 2.91151 33.9943 0.023996H35.2541L42.6729 20.4126C42.8289 20.8485 43.0088 21.2005 43.2048 21.4724C43.4048 21.7364 43.6847 22.0003 44.0407 22.2523C44.2766 22.4083 44.5926 22.5442 44.9765 22.6402C45.3644 22.7482 45.6924 22.8042 45.9523 22.8162V23.996L45.9563 23.992ZM37.0018 14.3296L33.6264 5.15514L30.3069 14.3296H37.0018Z" fill="#2C2A29"/>
<path d="M64.5652 16.4773L63.8174 23.992H45.6484V23.4001L59.878 1.35977H54.6629C54.059 1.35977 53.5551 1.37177 53.1431 1.38777C52.7352 1.41176 52.3633 1.45576 52.0233 1.53174C51.3154 1.67172 50.5316 2.29162 49.6557 3.37944C48.7759 4.46326 48.116 5.61906 47.6721 6.81886H46.5562L47.2401 0.0159973H64.1813V0.615897L49.9517 22.6562H55.3188C56.2226 22.6562 57.1825 22.5802 58.2023 22.4523C59.2221 22.3083 59.886 22.0803 60.194 21.7484C60.8858 21.0445 61.5257 20.1846 62.1256 19.1728C62.7215 18.157 63.1615 17.2571 63.4454 16.4733H64.5612L64.5652 16.4773Z" fill="#2C2A29"/>
<path d="M109.498 23.992H99.4754V22.7922C99.7554 22.7682 100.163 22.7282 100.699 22.6882C101.231 22.6482 101.611 22.5722 101.827 22.4883C102.171 22.3363 102.423 22.1363 102.579 21.8804C102.735 21.6284 102.811 21.2765 102.811 20.8205V3.47942C102.811 3.07949 102.755 2.75554 102.639 2.48759C102.523 2.21963 102.251 1.99567 101.827 1.8157C101.511 1.67972 101.115 1.54774 100.643 1.43576C100.163 1.31578 99.7754 1.24779 99.4754 1.2278V0.0159973H109.498V1.2278C109.17 1.23979 108.786 1.27979 108.334 1.35177C107.886 1.42776 107.49 1.51975 107.154 1.63173C106.758 1.76771 106.49 1.99167 106.354 2.29162C106.222 2.59557 106.158 2.93551 106.158 3.30745V20.6366C106.158 21.0085 106.23 21.3444 106.382 21.6324C106.534 21.9123 106.79 22.1523 107.154 22.3163C107.374 22.4043 107.734 22.5042 108.23 22.6162C108.726 22.7202 109.154 22.7842 109.494 22.7962V23.996L109.498 23.992Z" fill="#2C2A29"/>
<path d="M97.6317 16.4773L96.8959 23.992H79.0148V23.4001L93.0205 1.35977H87.8934C87.2935 1.35977 86.7975 1.37177 86.3936 1.38777C85.9897 1.41176 85.6257 1.45576 85.2938 1.53174C84.5979 1.67172 83.822 2.29162 82.9582 3.37944C82.0983 4.46326 81.4464 5.61906 81.0065 6.81886H79.9107L80.5826 0.0159973H97.2598V0.615897L83.2501 22.6562H88.5373C89.4251 22.6562 90.3689 22.5802 91.3728 22.4523C92.3766 22.3083 93.0325 22.0803 93.3364 21.7484C94.0203 21.0445 94.6482 20.1846 95.2321 19.1728C95.82 18.157 96.252 17.2571 96.5319 16.4733H97.6317V16.4773Z" fill="#2C2A29"/>
<path d="M20.6206 0H0V2.81953H20.6206V0Z" fill="#2C2A29"/>
<path d="M20.6206 5.29512H0V8.11465H20.6206V5.29512Z" fill="#2C2A29"/>
<path d="M20.6206 10.5902H0V13.4098H20.6206V10.5902Z" fill="#2C2A29"/>
<path d="M20.6206 15.8854H0V18.7049H20.6206V15.8854Z" fill="#2C2A29"/>
<path d="M20.6206 21.1805H0V24H20.6206V21.1805Z" fill="#2C2A29"/>
</svg>
