<svg width="1855" height="965" viewBox="0 0 1855 965" fill="none" xmlns="http://www.w3.org/2000/svg">
<g opacity="0.05">
<path d="M1602.52 1544.58C1586.09 1544.58 1569.66 1542.88 1553.43 1539.57C1483.6 1525.24 1420.18 1481.24 1369.99 1412.19C1337.23 1367.19 1313.38 1318.88 1288.03 1267.87C1196.56 1083.16 1101.99 892.035 580.61 828.394C536.728 823.082 496.553 820.075 457.58 817.169C317.317 803.939 82.6783 781.69 13.1481 506.479C-6.78919 427.504 -46.9643 160.712 274.137 40.7462C411.393 -11.2692 550.854 -2.95076 681.198 13.7864C825.669 32.3275 908.824 70.1113 1030.15 142.572C1083.05 174.242 1125.83 210.523 1168.61 260.233C1207.18 304.932 1236.94 356.346 1259.68 417.382C1265.29 432.315 1270.7 447.749 1276.01 462.582L1276.21 463.183C1298.65 526.324 1321.8 591.568 1360.87 646.39C1408.06 712.637 1468.67 755.332 1532.99 800.532C1576.77 831.4 1621.96 863.271 1666.34 904.663C1716.74 951.667 1758.41 1004.28 1793.68 1065.52C1846.08 1156.32 1865.41 1248.12 1849.69 1330.91C1835.76 1404.17 1795.18 1465.91 1735.37 1504.79C1699.2 1528.35 1657.63 1541.88 1615.25 1544.18C1611.04 1544.38 1606.73 1544.48 1602.52 1544.48V1544.58ZM509.677 5.76858C432.333 5.76858 353.685 15.6906 275.84 45.2562C-41.5543 163.819 -1.88001 427.404 17.7567 505.377C47.5124 623.038 108.326 703.917 203.805 752.626C283.454 793.216 373.022 804.541 457.981 812.559C496.954 815.465 537.329 818.472 581.211 823.783C1105.09 887.725 1200.27 1079.95 1292.24 1265.86C1317.49 1316.78 1341.23 1364.88 1373.79 1409.58C1423.29 1477.63 1485.7 1521.03 1554.33 1535.06C1574.37 1539.17 1594.81 1540.67 1614.95 1539.67C1656.52 1537.47 1697.3 1524.14 1732.77 1501.09C1791.38 1463 1831.25 1402.27 1844.98 1330.31C1860.51 1248.63 1841.37 1158.03 1789.57 1068.13C1754.51 1007.29 1713.13 955.075 1663.04 908.371C1618.85 867.18 1573.87 835.409 1530.19 804.741C1465.57 759.24 1404.55 716.245 1356.86 649.397C1317.39 593.974 1294.15 528.428 1271.6 464.987L1271.4 464.286C1266.09 449.453 1260.68 434.119 1255.07 419.186C1232.53 358.652 1202.97 307.739 1164.8 263.44C1122.32 214.131 1079.94 178.151 1027.45 146.781C906.721 74.6213 823.966 37.038 680.297 18.597C624.693 11.4813 567.385 5.86881 509.377 5.86881L509.677 5.76858Z" fill="url(#paint0_linear_3657_50858)"/>
<path d="M1836.35 1180.46C1827.73 1142.48 1812.7 1103.79 1791.76 1065.41C1718.23 930.909 1629.36 863.86 1543.3 799.017C1503.22 768.749 1465.25 740.186 1430.39 705.81C1413.15 688.772 1397.53 670.832 1382.8 650.888C1364.56 626.333 1351.24 604.986 1340.62 583.538C1326.29 554.374 1315.77 523.104 1307.46 496.245C1305.55 490.031 1303.65 483.717 1301.75 477.603L1301.14 475.699C1294.63 454.352 1287.92 432.403 1279.7 411.156C1256.56 351.925 1226.71 302.214 1188.33 259.319C1152.97 219.731 1109.39 184.253 1051.08 147.672C943.676 80.2219 823.451 39.6319 703.326 30.5116C693.508 29.5094 681.184 29.7098 665.756 30.0105C641.711 30.5116 611.254 31.0127 574.785 27.2043C521.486 21.6921 440.334 13.2734 333.233 41.7365C66.2333 112.493 37.3793 315.544 34.2735 355.533C26.2585 449.341 61.224 709.518 315.901 785.787C353.371 799.017 441.235 808.638 518.78 817.157C553.946 820.965 587.108 824.673 610.151 828.081C1099.77 896.032 1194.65 1078.24 1286.52 1254.53C1312.57 1304.44 1337.11 1351.64 1370.47 1395.44C1403.54 1438.94 1441.31 1471.61 1482.68 1492.45C1519.35 1510.9 1557.83 1520.32 1597 1520.32C1601.21 1520.32 1605.41 1520.22 1609.72 1520.02C1619.64 1519.51 1629.66 1518.31 1639.48 1516.61C1689.87 1507.59 1735.66 1483.03 1771.83 1445.65C1813.2 1402.86 1838.15 1347.13 1843.96 1284.59C1847.07 1251.02 1844.56 1215.94 1836.45 1180.36L1836.35 1180.46ZM1839.15 1284.29C1833.44 1345.73 1809 1400.45 1768.32 1442.44C1732.85 1479.13 1688.07 1503.18 1638.58 1512C1628.96 1513.7 1619.14 1514.9 1609.42 1515.41C1566.84 1517.71 1524.66 1508.49 1484.79 1488.35C1444.11 1467.7 1406.84 1435.53 1374.18 1392.63C1341.12 1349.14 1316.57 1302.13 1290.63 1252.32C1198.25 1075.03 1102.77 891.722 610.753 823.471C587.709 819.963 554.447 816.355 519.281 812.547C442.037 804.128 354.473 794.507 317.403 781.377C65.6322 705.91 31.0675 448.739 38.9823 355.934C41.988 316.546 70.5415 116.202 334.435 46.3467C440.734 18.1843 521.385 26.5027 574.284 32.015C611.053 35.8234 641.711 35.3223 665.856 34.8212C681.184 34.5205 693.307 34.3201 702.925 35.2221C822.249 44.3423 941.772 84.6317 1048.57 151.68C1106.48 188.061 1149.76 223.339 1184.83 262.526C1222.8 305.021 1252.35 354.23 1275.3 412.96C1283.51 434.007 1290.22 455.955 1296.74 477.403L1297.24 479.107C1299.14 485.321 1301.04 491.635 1302.95 497.748C1311.36 524.708 1321.88 556.278 1336.41 585.743C1347.13 607.391 1360.66 629.039 1378.99 653.794C1393.92 673.939 1409.65 692.079 1427.08 709.318C1462.15 743.994 1500.22 772.658 1540.49 802.925C1626.15 867.468 1714.62 934.116 1787.66 1067.81C1808.39 1105.8 1823.22 1144.08 1831.84 1181.67C1839.85 1216.74 1842.26 1251.32 1839.25 1284.39L1839.15 1284.29Z" fill="url(#paint1_linear_3657_50858)"/>
<path d="M1789.79 1066.14C1721.46 932.94 1635.3 863.586 1552.04 796.337C1516.67 767.874 1483.31 740.914 1451.55 709.545C1435.42 693.609 1420.09 676.171 1404.67 656.126C1387.53 633.877 1371.1 611.928 1358.58 587.173C1343.45 557.207 1334.13 525.336 1326.22 495.47C1324.72 489.757 1323.21 483.944 1321.71 477.931C1315.6 454.078 1309.29 429.323 1299.67 405.871C1254.89 295.927 1188.86 222.865 1071.84 153.712C957.528 86.0616 834.498 50.3824 725.494 52.9882C716.077 53.1887 707.561 53.5896 699.546 53.8902C666.283 55.2933 640.034 56.2956 576.916 47.7767C449.077 32.7433 389.165 46.3735 364.819 51.8858C187.688 93.5783 81.1883 205.126 71.0694 359.869C65.1583 493.866 118.759 613.031 230.768 708.743C277.856 748.732 314.225 765.669 357.606 780.201C401.989 794.934 463.203 806.76 539.746 815.38C572.508 818.988 605.169 823.397 639.533 828.809C1096.99 900.769 1196.58 1081.87 1284.44 1241.83C1311.29 1290.73 1336.64 1336.84 1370.8 1379.53C1403.76 1420.82 1440.53 1451.59 1480.11 1470.83C1515.97 1488.17 1553.34 1496.99 1591.41 1496.99C1595.62 1496.99 1599.83 1496.89 1604.14 1496.69C1614.16 1496.19 1624.28 1494.99 1634.09 1493.18C1683.29 1484.26 1727.97 1460.51 1763.14 1424.43C1802.61 1384.04 1826.96 1331.42 1833.47 1272.49C1840.68 1207.45 1825.55 1136.09 1789.59 1066.04L1789.79 1066.14ZM1828.96 1272.09C1822.55 1330.02 1798.6 1381.64 1759.93 1421.22C1725.37 1456.6 1681.68 1479.85 1633.39 1488.67C1623.68 1490.38 1613.86 1491.58 1603.94 1492.08C1562.56 1494.29 1521.38 1485.67 1482.31 1466.72C1443.34 1447.78 1407.17 1417.42 1374.61 1376.72C1340.75 1334.33 1315.5 1288.33 1288.65 1239.52C1200.28 1078.76 1100.1 896.459 640.335 824.199C605.87 818.787 573.109 814.377 540.247 810.669C464.105 802.15 403.091 790.424 359.108 775.691C316.228 761.36 280.361 744.623 233.874 705.135C123.067 610.425 69.9673 492.463 75.7782 360.069C85.8971 207.732 190.994 97.5872 365.821 56.496C381.55 52.888 414.312 45.4715 468.714 45.4715C497.267 45.4715 532.633 47.3758 576.315 52.4871C639.834 61.1062 666.183 60.0038 699.746 58.6007C707.761 58.3 716.177 57.8991 725.594 57.6987C833.797 55.0929 955.825 90.5716 1069.44 157.721C1185.45 226.373 1250.88 298.733 1295.26 407.575C1304.68 430.726 1310.99 455.281 1317.1 479.033C1318.6 485.047 1320.11 490.96 1321.61 496.572C1329.52 526.739 1338.94 558.81 1354.27 589.178C1366.89 614.233 1383.53 636.382 1400.76 658.832C1416.39 678.977 1431.82 696.616 1448.05 712.752C1480.01 744.322 1513.47 771.282 1548.94 799.845C1631.89 866.693 1717.55 935.747 1785.48 1068.04C1821.04 1137.29 1835.97 1207.75 1828.86 1271.89L1828.96 1272.09Z" fill="url(#paint2_linear_3657_50858)"/>
<path d="M1785.97 1067.42C1726.86 931.822 1642.6 854.651 1561.15 780.085L1560.65 779.684C1538.61 759.54 1515.86 738.693 1493.92 716.945C1479.9 703.014 1465.37 686.979 1448.44 666.533C1445.53 662.925 1442.43 659.418 1439.32 655.609L1438.22 654.306C1422.49 635.665 1406.16 616.422 1394.54 594.373C1377.71 562.402 1369.89 527.124 1363.88 493.75C1362.98 488.739 1362.18 483.728 1361.28 478.617C1356.57 450.755 1351.66 421.891 1339.84 395.031C1316.09 341.212 1286.03 296.713 1248.06 259.23C1212.6 224.252 1169.92 194.486 1113.61 165.522C1016.13 115.411 907.627 88.8519 799.725 88.8519C783.194 88.6514 765.16 91.3574 746.125 94.0634C710.157 99.1748 658.661 102.482 615.781 91.9588C581.316 83.5401 512.788 66.9032 430.534 73.0168C304.097 87.549 233.665 146.079 196.796 192.682C143.497 260.032 130.873 337.303 136.784 387.114C153.014 526.222 240.779 651.901 383.947 740.999C461.392 789.206 622.894 815.865 624.497 816.165C648.241 820.475 672.787 824.885 698.836 830.196C1091.37 909.272 1191.16 1071.73 1279.32 1215.15C1308.38 1262.46 1335.83 1307.05 1372.1 1348.05C1404.96 1385.03 1439.72 1411.89 1475.69 1427.82C1509.85 1442.96 1545.22 1450.67 1580.79 1450.67C1584.99 1450.67 1589.3 1450.57 1593.51 1450.37C1603.63 1449.87 1613.65 1448.67 1623.57 1446.86C1670.25 1438.35 1712.63 1416.3 1746.2 1382.92C1782.06 1347.24 1805.51 1300.84 1813.72 1248.83C1822.84 1191.3 1813.62 1130.26 1786.17 1067.42H1785.97ZM1808.81 1248.02C1800.7 1299.04 1777.86 1344.54 1742.59 1379.52C1709.83 1412.09 1668.25 1433.74 1622.46 1442.15C1612.85 1443.96 1602.93 1445.06 1593.01 1445.56C1554.04 1447.67 1514.86 1440.15 1477.29 1423.41C1442.03 1407.78 1407.66 1381.32 1375.3 1344.74C1339.33 1304.15 1311.98 1259.65 1283.03 1212.54C1194.46 1068.32 1094.08 904.962 699.537 825.486C673.489 820.274 648.842 815.764 625.098 811.455C623.495 811.154 462.895 784.595 386.251 736.99C244.285 648.694 157.323 524.218 141.293 386.612C135.482 337.704 148.005 261.836 200.303 195.689C252.4 129.843 332.05 89.0523 430.835 77.7272C444.56 76.725 457.585 76.2239 470.008 76.2239C530.922 76.2239 586.225 89.5534 614.578 96.569C658.26 107.293 710.358 103.985 746.726 98.7739C765.661 96.0679 783.695 93.6625 799.625 93.6625C906.725 93.6625 1014.53 120.021 1111.41 169.731C1167.21 198.395 1209.59 227.96 1244.66 262.637C1282.23 299.72 1311.98 343.717 1335.43 397.036C1346.95 423.294 1351.86 451.857 1356.57 479.519C1357.47 484.63 1358.27 489.741 1359.17 494.752C1365.18 528.527 1373.2 564.206 1390.33 596.678C1402.15 619.128 1418.58 638.672 1434.51 657.413L1435.61 658.716C1438.82 662.424 1441.83 666.032 1444.73 669.64C1461.76 690.286 1476.39 706.322 1490.52 720.353C1512.56 742.201 1535.3 763.048 1557.34 783.192L1557.84 783.593C1639 857.858 1722.85 934.628 1781.56 1069.33C1808.61 1131.36 1817.73 1191.5 1808.71 1248.12L1808.81 1248.02Z" fill="url(#paint3_linear_3657_50858)"/>
<path d="M1556.84 1357.06C1526.68 1357.06 1496.12 1351.75 1465.97 1341.33C1435.91 1330.9 1406.66 1312.86 1373.9 1284.5C1328.61 1245.31 1293.65 1200.42 1256.68 1152.91C1171.32 1043.37 1074.74 919.292 816.652 832.7L814.448 831.898C682.1 787.499 594.737 758.134 490.141 654.705C469.603 634.46 448.363 615.217 427.824 596.576C383.942 556.888 342.665 519.505 312.308 476.209C306.397 467.69 300.887 458.97 295.877 450.752C269.528 407.556 258.407 355.341 265.32 307.635C274.036 247.702 310.405 196.288 370.517 158.805C411.594 133.248 456.378 120.82 507.473 120.82C548.15 120.82 587.724 128.738 617.58 135.653C643.628 141.667 665.77 153.493 687.21 164.818C706.245 174.94 725.882 185.363 748.625 191.978C758.443 194.885 769.063 196.388 780.084 196.388C809.339 196.388 837.191 186.466 861.837 177.847C875.963 172.836 888.086 168.526 898.606 166.722C933.872 160.609 969.638 157.602 1005.1 157.602C1071.63 157.602 1136.05 168.225 1196.76 189.272C1305.87 227.056 1374.7 283.882 1419.88 373.581C1435.81 405.151 1437.11 440.63 1438.32 474.906V476.409C1438.52 481.22 1438.72 485.83 1438.92 490.34C1440.72 528.024 1445.43 571.52 1466.37 608.903C1478.89 631.152 1497.53 649.393 1515.56 667.032C1521.97 673.246 1529.19 680.362 1535.8 687.377L1541.91 693.892C1554.33 707.021 1566.06 719.448 1578.38 731.675C1631.68 784.593 1671.05 832.7 1702.31 883.312C1738.18 941.441 1763.02 1002.58 1778.05 1070.33C1788.27 1116.33 1786.97 1160.43 1774.34 1201.32C1762.52 1239.5 1740.68 1273.58 1711.23 1299.84C1672.65 1334.21 1623.86 1353.96 1570.06 1356.76C1565.65 1356.96 1561.15 1357.16 1556.64 1357.16L1556.84 1357.06ZM507.574 125.631C457.38 125.631 413.397 137.858 373.122 162.914C314.212 199.595 278.545 249.907 270.129 308.437C263.316 355.14 274.237 406.153 300.085 448.447C305.095 456.565 310.405 465.284 316.316 473.703C346.272 516.598 387.449 553.781 430.93 593.168C451.669 611.91 472.909 631.152 493.547 651.498C597.342 754.125 684.304 783.39 816.051 827.588L818.255 828.39C1077.64 915.483 1174.82 1040.16 1260.48 1150.1C1297.35 1197.51 1332.22 1242.21 1377.1 1281.09C1409.36 1309.06 1438.12 1326.8 1467.57 1337.02C1501.63 1348.84 1536.3 1353.96 1570.06 1352.15C1622.76 1349.35 1670.55 1330.1 1708.32 1296.43C1737.18 1270.67 1758.52 1237.4 1770.14 1200.01C1782.56 1159.93 1783.76 1116.63 1773.74 1071.43C1758.82 1004.28 1734.27 943.546 1698.6 885.918C1667.55 835.606 1628.37 787.7 1575.37 735.083C1562.95 722.756 1551.23 710.328 1538.8 697.199L1532.69 690.685C1526.18 683.769 1518.97 676.754 1512.55 670.54C1494.22 652.7 1475.29 634.159 1462.46 611.308C1441.02 573.023 1436.21 528.825 1434.41 490.641C1434.21 486.131 1434.01 481.42 1433.81 476.71V475.207C1432.5 441.432 1431.2 406.554 1415.77 375.886C1371.19 287.29 1303.26 231.165 1195.36 193.882C1135.15 173.036 1071.23 162.513 1005.21 162.513C970.039 162.513 934.473 165.62 899.507 171.633C889.388 173.337 877.366 177.646 863.54 182.557C838.593 191.377 810.24 201.399 780.184 201.399C768.762 201.399 757.742 199.896 747.423 196.889C724.279 190.074 704.442 179.551 685.206 169.328C664.067 158.103 642.226 146.477 616.778 140.564C587.123 133.649 547.949 125.831 507.674 125.831L507.574 125.631Z" fill="url(#paint4_linear_3657_50858)"/>
<path d="M1776.23 1071.12C1766.22 1004.67 1746.38 944.641 1715.52 887.414C1686.67 833.795 1648.69 784.084 1599.7 735.376C1590.09 725.855 1580.27 715.733 1570.75 705.911L1557.72 692.581C1550.71 685.466 1543.3 678.45 1535.88 671.434C1516.95 653.695 1497.31 635.254 1484.39 612.504C1462.25 573.517 1458.44 528.417 1457.74 489.431C1457.64 484.219 1457.54 479.007 1457.54 473.094C1457.14 437.515 1456.74 400.734 1439.9 368.262C1416.56 323.162 1386.6 287.282 1348.43 258.518C1312.97 231.759 1270.19 211.113 1217.59 195.278C1166.59 179.944 1112.59 172.227 1056.99 172.227C1013.71 172.227 969.824 177.038 926.543 186.358C916.725 188.463 905.304 193.173 892.079 198.585C866.531 209.008 837.477 220.835 806.819 220.835C795.598 220.835 784.778 219.131 774.759 215.924C751.516 208.407 731.578 196.38 712.342 184.654C691.303 171.926 669.663 158.697 643.614 151.681C608.648 142.16 554.247 132.138 508.561 132.84C467.985 133.541 429.714 145.568 391.542 169.822C363.69 187.461 341.248 208.407 325.018 231.859C310.19 253.106 300.371 276.659 295.763 301.714C285.844 355.634 300.672 415.667 335.537 462.27C341.248 469.987 347.46 478.105 354.272 486.123C383.427 520.7 419.895 550.466 458.668 582.136C486.119 604.586 514.572 627.938 541.723 654.096C641.71 750.61 723.463 786.289 846.193 833.494C1069.31 919.485 1163.39 1033.44 1246.34 1134.06C1286.82 1183.07 1324.99 1229.37 1374.58 1268.86C1406.94 1294.62 1435.2 1310.85 1463.75 1319.87C1492.7 1329.09 1521.76 1333.8 1550.01 1333.8C1554.52 1333.8 1559.03 1333.7 1563.54 1333.4C1574.36 1332.8 1585.28 1331.5 1596 1329.59C1636.07 1322.18 1673.04 1304.74 1702.9 1279.28C1761.91 1228.87 1788.66 1153.1 1776.33 1071.22L1776.23 1071.12ZM1699.69 1275.57C1670.44 1300.53 1634.17 1317.57 1594.99 1324.78C1584.47 1326.69 1573.75 1327.99 1563.13 1328.49C1531.07 1330.2 1498.01 1325.69 1464.95 1315.16C1437 1306.24 1409.15 1290.31 1377.29 1264.95C1328.09 1225.76 1290.02 1179.66 1249.75 1130.85C1166.39 1029.83 1071.92 915.275 847.596 828.884C725.367 781.779 644.015 746.301 544.729 650.488C517.478 624.23 489.024 600.878 461.273 578.228C422.901 546.858 386.633 517.092 357.679 482.916C351.066 474.999 344.855 466.881 339.144 459.264C305.08 413.663 290.553 355.032 300.271 302.316C304.78 277.961 314.297 255.011 328.724 234.265C344.654 211.314 366.595 190.868 393.946 173.53C431.417 149.777 471.191 137.951 510.865 137.249C554.948 137.249 608.749 146.971 642.211 155.991C667.559 162.906 688.999 175.935 709.838 188.563C729.274 200.389 749.312 212.617 773.156 220.233C783.776 223.641 794.997 225.345 806.719 225.345C838.278 225.345 867.733 213.318 893.782 202.695C906.806 197.383 918.027 192.772 927.445 190.768C970.425 181.447 1014.01 176.737 1056.99 176.737C1112.09 176.737 1165.59 184.454 1216.19 199.588C1268.28 215.222 1310.66 235.668 1345.63 262.026C1383.2 290.389 1412.65 325.768 1435.7 370.266C1452.03 401.736 1452.43 437.916 1452.73 473.395C1452.73 478.907 1452.83 484.119 1452.93 489.33C1453.63 528.918 1457.54 574.72 1480.18 614.608C1493.5 638.06 1513.34 656.702 1532.78 674.942C1539.99 681.657 1547.31 688.572 1554.22 695.688L1567.24 709.018C1576.76 718.84 1586.58 728.962 1596.2 738.483C1644.89 786.891 1682.56 836.3 1711.21 889.418C1741.77 946.144 1761.41 1005.68 1771.32 1071.62C1783.45 1151.9 1757.2 1226.17 1699.49 1275.37L1699.69 1275.57Z" fill="url(#paint5_linear_3657_50858)"/>
<path d="M1774.34 1071.92C1765.52 943.431 1713.92 831.382 1620.95 738.977C1614.54 732.563 1608.02 726.049 1601.41 719.434C1594.3 712.318 1587.09 705.002 1579.77 697.686C1572.36 690.37 1564.44 683.153 1556.53 676.038C1536.59 658.098 1515.95 639.457 1502.43 616.004C1479.08 575.414 1476.38 526.506 1476.58 488.421C1476.58 483.11 1476.58 477.898 1476.78 471.785C1477.28 436.406 1477.98 396.317 1460.05 362.843C1415.46 279.458 1345.13 228.144 1238.43 201.184C1149.77 178.734 1050.68 180.338 954.502 205.794C945.585 208.2 934.865 213.111 922.441 218.823C897.294 230.449 866.136 244.881 833.375 244.881C822.054 244.881 811.133 243.077 801.014 239.569C777.17 231.251 757.132 217.52 737.796 204.291C717.157 190.16 695.817 175.527 669.668 167.409C631.998 155.783 586.112 143.857 540.527 143.456C493.94 143.456 451.36 155.583 412.688 180.538C360.991 213.912 329.933 259.413 322.919 312.13C314.103 378.478 344.159 438.912 375.217 473.488C381.329 480.203 388.542 488.121 396.157 495.738C424.209 523.399 456.87 547.252 491.635 572.408C525.499 597.062 560.464 622.519 593.125 653.187C687.301 741.784 762.041 783.676 875.554 834.189C1063.2 917.774 1153.17 1021.3 1232.52 1112.61C1277.41 1164.22 1319.78 1213.03 1374.99 1253.12C1406.75 1276.17 1434.2 1290.6 1461.25 1298.42C1488.7 1306.34 1516.35 1310.34 1543.4 1310.34C1548.11 1310.34 1552.92 1310.24 1557.53 1309.94C1609.13 1307.24 1656.52 1289.5 1694.49 1258.83C1750.29 1213.73 1779.35 1145.78 1774.34 1072.12V1071.92ZM1691.48 1254.92C1654.21 1284.99 1607.82 1302.33 1557.23 1305.03C1526.37 1306.64 1494.31 1302.83 1462.45 1293.61C1435.9 1285.99 1408.95 1271.76 1377.69 1249.11C1322.89 1209.32 1280.71 1160.71 1236.03 1109.3C1156.38 1017.6 1066.01 913.665 877.357 829.679C764.446 779.367 689.906 737.674 596.231 649.579C563.369 618.61 528.204 593.054 494.24 568.399C459.776 543.343 427.115 519.591 399.363 492.23C391.748 484.713 384.635 476.896 378.524 470.181C348.167 436.506 318.712 377.375 327.328 312.631C334.14 261.318 364.497 217.019 414.992 184.347C452.863 159.893 494.641 148.066 540.226 148.066C585.21 148.467 630.695 160.293 667.965 171.819C693.413 179.737 714.452 194.169 734.89 208.099C754.427 221.529 774.665 235.36 799.111 243.979C809.73 247.687 821.152 249.592 833.074 249.592C866.837 249.592 898.597 234.959 924.145 223.133C936.367 217.52 946.887 212.609 955.503 210.304C1050.98 185.048 1149.17 183.445 1237.13 205.694C1342.33 232.353 1411.86 282.966 1455.74 365.048C1473.07 397.52 1472.47 436.907 1471.97 471.684C1471.97 477.798 1471.77 483.11 1471.77 488.421C1471.57 527.107 1474.37 576.818 1498.22 618.41C1512.04 642.463 1532.98 661.305 1553.42 679.746C1561.04 686.661 1568.95 693.777 1576.26 700.993C1583.58 708.209 1590.89 715.525 1597.91 722.641C1604.52 729.256 1611.03 735.87 1617.44 742.184C1709.61 833.788 1760.71 944.734 1769.43 1072.12C1774.34 1144.18 1745.88 1210.72 1691.28 1254.82L1691.48 1254.92Z" fill="url(#paint6_linear_3657_50858)"/>
<path d="M1535.68 1286.6C1510.63 1286.6 1484.78 1283.19 1458.83 1276.57C1432.68 1269.86 1406.93 1257.63 1375.48 1237.09C1312.66 1195.99 1264.87 1143.28 1214.27 1087.45C1140.44 1005.87 1056.68 913.568 904.795 834.593C800.5 780.373 732.372 732.667 644.508 652.189C607.138 617.912 566.161 591.855 526.587 566.599C494.828 546.354 464.872 527.311 438.021 505.062C431.109 499.349 423.695 492.835 414.778 484.416C370.395 443.125 344.747 379.483 349.556 322.257C353.964 269.64 383.019 224.239 433.513 191.065C471.284 166.21 511.659 154.184 556.944 154.184C605.234 154.184 652.022 168.014 695.403 183.048C721.752 192.168 742.792 208.304 763.23 223.938C782.566 238.771 802.503 254.005 826.949 263.226C837.369 267.134 848.49 269.139 860.111 269.139C894.175 269.139 926.536 252.502 952.484 239.072C964.106 233.059 974.225 227.847 982.34 225.341C1041.45 206.7 1100.96 197.279 1159.27 197.279C1193.54 197.279 1227.1 200.587 1259.16 207.201C1310.65 217.725 1353.13 234.361 1388.9 257.914C1427.17 283.17 1456.93 315.742 1479.97 357.535C1499.01 392.111 1497.4 433.804 1495.9 470.586C1495.7 476.799 1495.4 482.211 1495.3 487.623C1494.1 527.111 1496 577.723 1520.35 619.716C1534.37 643.87 1556.11 662.712 1577.05 680.952C1584.87 687.667 1593.58 695.284 1601.5 702.901C1615.63 716.431 1629.35 729.961 1641.97 742.589C1686.36 786.687 1720.02 838.001 1742.16 895.027C1763.8 950.651 1773.82 1010.48 1772.22 1072.72C1770.52 1137.87 1739.16 1198.1 1686.26 1237.99C1657.2 1259.94 1622.14 1275.07 1584.77 1281.99C1573.45 1284.09 1561.82 1285.39 1550.3 1285.99C1545.39 1286.3 1540.48 1286.4 1535.58 1286.4L1535.68 1286.6ZM557.044 158.894C512.761 158.894 473.187 170.72 436.218 195.074C386.926 227.446 358.673 271.644 354.365 322.758C349.656 378.581 374.703 440.719 418.084 481.009C427.001 489.327 434.314 495.842 441.127 501.454C467.777 523.503 497.533 542.445 529.092 562.49C568.966 587.846 610.043 614.104 647.814 648.581C735.378 728.758 803.305 776.364 907.099 830.284C1059.78 909.66 1143.74 1002.37 1217.88 1084.15C1268.28 1139.77 1315.86 1192.29 1378.18 1232.98C1409.24 1253.22 1434.49 1265.25 1460.13 1271.86C1490.69 1279.68 1520.95 1282.89 1550.2 1281.38C1561.62 1280.78 1573.05 1279.48 1584.07 1277.38C1620.73 1270.56 1655.2 1255.73 1683.65 1234.18C1735.35 1195.19 1766.01 1136.26 1767.71 1072.52C1769.41 1010.78 1759.39 951.653 1737.95 896.631C1716.11 840.206 1682.75 789.493 1638.87 745.896C1626.14 733.268 1612.52 719.738 1598.39 706.208C1590.58 698.692 1581.86 691.075 1574.15 684.46C1552.81 665.919 1530.77 646.776 1516.44 622.022C1491.39 578.926 1489.59 527.512 1490.69 487.423C1490.79 482.011 1491.09 476.599 1491.29 470.886C1492.8 434.205 1494.4 393.114 1475.96 359.74C1453.32 318.649 1424.07 286.577 1386.4 261.822C1351.13 238.571 1309.15 222.134 1258.26 211.711C1226.5 205.197 1193.23 201.889 1159.27 201.889C1101.46 201.889 1042.45 211.21 983.743 229.751C976.028 232.157 966.11 237.268 954.688 243.181C928.239 256.811 895.377 273.849 860.111 273.849C847.989 273.849 836.267 271.744 825.246 267.635C800.199 258.214 779.961 242.68 760.325 227.647C740.287 212.313 719.448 196.377 693.8 187.457C650.82 172.625 604.533 158.894 556.844 158.894H557.044Z" fill="url(#paint7_linear_3657_50858)"/>
<path d="M1527.95 1263.06C1504.61 1263.06 1480.56 1260.35 1456.52 1254.94C1431.47 1249.33 1406.72 1238.9 1376.07 1221.26C1302.93 1178.87 1248.43 1120.14 1190.82 1057.9C1125.1 986.945 1050.66 906.667 934.24 835.108C839.964 777.18 776.044 722.358 696.095 651.2C654.517 614.218 608.03 588.661 563.046 563.906C533.691 547.771 505.939 532.537 480.09 514.597C472.075 509.085 463.76 502.871 454.542 495.555C431.8 477.715 411.562 452.559 397.636 424.898C382.508 394.831 375.094 362.86 376.296 332.493C378.3 279.977 405.451 234.776 454.743 201.803C491.712 177.048 531.186 165.021 575.268 165.021C626.164 165.021 675.656 181.257 721.542 198.696C748.092 208.819 768.931 226.458 789.069 243.496C808.405 259.832 828.342 276.769 853.289 286.792C864.009 291.101 875.43 293.306 887.252 293.306C922.719 293.306 956.081 274.264 982.831 258.93C993.652 252.716 1002.97 247.404 1010.38 244.698C1077.11 220.044 1143.83 207.616 1208.85 207.616C1233.1 207.616 1257.04 209.42 1280.09 212.928C1384.18 228.963 1456.22 274.464 1500.2 351.936C1520.34 387.515 1517.63 430.811 1515.33 468.996C1514.93 475.109 1514.63 480.822 1514.33 486.535C1512.22 527.325 1513.12 579.742 1538.57 623.138C1553.2 648.093 1576.04 667.236 1598.18 685.877C1606.8 693.093 1615.52 700.409 1623.63 707.926C1637.96 721.155 1650.88 733.683 1663.41 746.111C1748.66 831.099 1787.74 950.364 1770.41 1073.54C1762.49 1130.26 1729.03 1182.78 1678.83 1217.66C1640.36 1244.32 1593.67 1259.75 1543.88 1262.46C1538.77 1262.76 1533.46 1262.86 1528.05 1262.86L1527.95 1263.06ZM575.068 169.832C531.887 169.832 493.315 181.558 457.147 205.812C409.158 237.883 382.708 281.781 380.804 332.794C379.702 362.359 386.916 393.528 401.643 422.894C415.269 450.054 435.006 474.508 457.248 492.047C466.465 499.263 474.68 505.377 482.595 510.889C508.243 528.728 535.895 543.862 565.15 559.998C610.334 584.853 657.122 610.51 699.1 647.893C778.95 718.85 842.669 773.572 936.645 831.3C1053.56 903.259 1128.3 983.738 1194.13 1054.8C1251.63 1116.83 1305.84 1175.36 1378.37 1217.36C1408.53 1234.79 1432.97 1245.12 1457.42 1250.53C1481.16 1255.84 1504.81 1258.55 1527.85 1258.55C1533.06 1258.55 1538.27 1258.45 1543.38 1258.15C1592.37 1255.54 1638.16 1240.41 1675.93 1214.25C1725.12 1180.17 1757.78 1128.86 1765.5 1073.34C1782.53 951.667 1744.06 833.805 1659.8 749.919C1647.38 737.492 1634.35 725.064 1620.12 711.835C1612.01 704.318 1603.39 697.102 1594.98 689.986C1572.44 671.044 1549.19 651.501 1534.16 625.944C1508.01 581.445 1507.11 528.127 1509.22 486.735C1509.52 481.023 1509.82 475.31 1510.22 469.196C1512.52 431.613 1515.23 389.018 1495.79 354.742C1452.51 278.573 1381.68 233.774 1279.09 218.039C1256.34 214.531 1232.6 212.727 1208.55 212.727C1144.13 212.727 1077.91 225.155 1011.69 249.509C1004.67 252.115 995.455 257.326 984.935 263.34C957.584 278.974 923.621 298.317 886.952 298.317C874.529 298.317 862.506 296.012 851.185 291.502C825.637 281.179 805.299 264.041 785.762 247.504C765.925 230.667 745.387 213.329 719.639 203.507C674.154 186.168 625.162 170.133 575.068 170.133V169.832Z" fill="url(#paint8_linear_3657_50858)"/>
<path d="M1519.75 1239.7C1498.41 1239.7 1476.37 1237.59 1454.13 1233.38C1429.98 1228.87 1406.04 1220.26 1376.68 1205.42C1289.92 1161.83 1227.5 1094.08 1161.48 1022.22C1104.67 960.479 1045.86 896.638 963.507 835.602C909.205 795.413 865.824 756.126 819.838 714.634C796.895 693.888 773.151 672.44 747.503 650.391C702.318 611.505 650.722 587.351 600.928 564C573.277 551.071 547.128 538.744 521.981 524.211C512.863 518.9 503.746 513.187 494.128 506.773C468.981 490.036 446.139 465.18 429.708 436.817C412.175 406.45 402.757 373.878 402.557 342.608C402.357 306.128 414.88 253.912 475.594 212.62C512.062 187.765 550.634 175.738 593.514 175.738C599.826 175.738 606.339 176.039 612.851 176.54C660.039 180.349 707.327 197.988 747.302 214.625C774.153 225.749 794.691 244.892 814.628 263.433C833.864 281.373 853.802 299.814 879.149 310.638C889.969 315.248 901.491 317.553 913.513 317.553C951.184 317.553 986.851 295.203 1012.9 278.867C1022.82 272.653 1031.43 267.241 1038.15 264.435C1126.51 226.751 1218.48 210.716 1300.74 219.135C1402.83 229.558 1476.57 272.453 1520.15 346.818C1541.49 383.299 1537.68 428.198 1534.38 467.886C1533.87 474.1 1533.37 480.013 1532.97 485.926C1529.97 528.12 1529.87 582.24 1556.42 627.14C1571.65 652.897 1595.79 672.54 1619.13 691.482C1628.05 698.698 1637.07 706.015 1645.38 713.531C1661.41 727.863 1673.44 739.188 1684.46 750.213C1726.33 791.905 1756.09 844.622 1770.52 902.751C1784.64 959.377 1783.84 1018.91 1768.21 1074.93C1753.59 1127.25 1714.51 1174.35 1661.01 1204.32C1624.24 1224.87 1581.16 1236.99 1536.58 1239.4C1531.07 1239.7 1525.36 1239.8 1519.65 1239.8L1519.75 1239.7ZM593.514 180.449C551.636 180.449 513.865 192.275 478.199 216.529C419.188 256.718 406.965 307.23 407.166 342.608C407.366 373.076 416.483 404.847 433.615 434.512C449.645 462.274 471.987 486.528 496.533 502.864C506.051 509.178 515.168 514.891 524.185 520.102C549.131 534.634 575.18 546.761 602.832 559.69C653.026 583.142 704.823 607.496 750.508 646.783C776.257 668.932 800.001 690.38 822.944 711.126C868.83 752.618 912.211 791.805 966.312 831.894C1049.07 893.23 1107.98 957.172 1164.88 1019.11C1230.61 1090.57 1292.72 1158.12 1378.68 1201.31C1407.74 1215.85 1431.18 1224.36 1454.93 1228.87C1482.68 1234.09 1510.23 1236.09 1536.28 1234.69C1580.16 1232.38 1622.44 1220.46 1658.71 1200.21C1711.11 1170.95 1749.38 1124.84 1763.6 1073.73C1779.03 1018.51 1779.83 959.778 1765.91 903.954C1751.58 846.727 1722.33 794.711 1681.05 753.62C1670.03 742.696 1658.11 731.371 1642.18 717.139C1633.96 709.723 1624.95 702.407 1616.23 695.291C1592.48 675.948 1567.94 656.104 1552.31 629.645C1525.06 583.743 1525.06 528.621 1528.16 485.726C1528.56 479.813 1529.07 473.9 1529.57 467.686C1532.87 428.699 1536.58 384.602 1515.94 349.424C1473.26 276.462 1400.63 234.268 1300.14 224.045C1218.68 215.827 1127.41 231.562 1039.85 269.045C1033.44 271.751 1025.02 277.063 1015.3 283.177C988.754 299.814 952.486 322.564 913.513 322.564C900.89 322.564 888.667 320.058 877.246 315.248C851.097 304.123 830.859 285.281 811.322 267.141C791.685 248.901 771.447 230.159 745.399 219.235C705.724 202.698 658.937 185.259 612.35 181.551C606.038 181.05 599.626 180.749 593.414 180.749L593.514 180.449Z" fill="url(#paint9_linear_3657_50858)"/>
<path d="M1510.03 1216.14C1491 1216.14 1471.36 1214.64 1451.82 1211.73C1428.48 1208.22 1404.73 1201.21 1377.28 1189.58C1272.99 1145.48 1202.45 1064.6 1127.82 979.013C1086.64 931.808 1044.16 883.1 992.863 835.995C963.207 808.735 936.557 781.675 910.909 755.517C874.541 718.434 840.177 683.457 799.1 649.381C750.81 609.292 694.504 587.143 640.103 565.696C614.755 555.673 588.506 545.35 563.96 533.524C553.641 528.513 543.522 523.201 533.804 517.689C506.252 502.155 480.604 477.6 461.669 448.536C441.631 417.868 430.21 384.594 428.807 352.322C427.204 315.941 437.624 264.126 496.734 223.135C539.414 193.67 584.799 181.944 636.696 187.356C684.385 192.267 730.572 210.808 773.352 230.151C800.503 242.378 820.841 262.924 840.478 282.868C859.714 302.311 879.551 322.356 905.399 334.082C916.52 339.093 928.342 341.699 940.665 341.699C979.738 341.699 1016.41 316.643 1043.16 298.302C1052.17 292.088 1059.99 286.777 1066.1 283.77C1152.26 241.576 1241.03 221.131 1321.58 224.939C1370.47 227.245 1413.65 237.968 1449.82 256.61C1487.69 276.153 1518.15 304.716 1540.19 341.298C1562.73 378.681 1557.82 425.184 1553.61 466.275V466.876C1552.91 473.29 1552.31 479.103 1551.81 484.816C1547.9 528.413 1546.9 584.337 1574.55 630.539C1590.58 657.299 1616.03 677.343 1640.68 696.786C1649.69 703.902 1659.01 711.218 1667.43 718.535C1680.05 729.459 1693.37 741.285 1705.8 753.713C1747.17 795.004 1774.93 848.022 1785.85 906.752C1796.67 964.581 1789.65 1024.61 1766.21 1075.83C1745.77 1120.53 1705.6 1159.21 1653.3 1184.57C1615.73 1202.81 1574.15 1213.23 1529.47 1215.54C1523.06 1215.84 1516.54 1216.04 1510.13 1216.04L1510.03 1216.14ZM612.651 190.964C571.574 190.964 534.405 202.79 499.239 227.144C441.831 266.832 431.712 317.044 433.315 352.222C434.718 383.591 445.839 416.064 465.476 446.03C484.01 474.393 509.057 498.446 536.008 513.68C545.626 519.092 555.745 524.404 565.964 529.315C590.409 541.141 616.558 551.364 641.806 561.386C696.508 582.934 753.114 605.183 802.106 645.773C843.383 680.049 877.848 715.027 914.216 752.109C939.964 778.367 966.513 805.327 996.069 832.487C1047.57 879.692 1090.14 928.601 1131.32 975.805C1205.66 1060.99 1275.89 1141.47 1379.19 1185.17C1406.34 1196.6 1429.58 1203.61 1452.62 1207.02C1478.47 1210.93 1504.12 1212.23 1529.27 1210.83C1573.25 1208.52 1614.33 1198.2 1651.3 1180.26C1702.59 1155.3 1741.96 1117.52 1761.9 1073.72C1784.95 1023.41 1791.76 964.38 1781.24 907.454C1770.42 849.626 1743.27 797.51 1702.49 756.82C1690.17 744.492 1676.84 732.766 1664.32 721.842C1656 714.626 1646.69 707.31 1637.77 700.294C1612.72 680.651 1586.87 660.305 1570.44 632.744C1542.09 585.339 1543.09 528.513 1547.1 484.215C1547.6 478.402 1548.2 472.589 1548.9 466.175V465.573C1553.21 425.284 1557.92 379.583 1536.18 343.503C1514.54 307.623 1484.78 279.761 1447.71 260.518C1412.15 242.077 1369.57 231.654 1321.38 229.349C1241.73 225.641 1153.56 245.986 1068.2 287.779C1062.39 290.585 1054.78 295.897 1045.86 301.91C1018.61 320.552 981.241 346.209 940.665 346.209C927.741 346.209 915.217 343.503 903.495 338.191C876.946 326.164 856.708 305.719 837.171 285.975C817.735 266.331 797.697 246.086 771.448 234.26C728.969 215.118 683.183 196.777 636.195 191.866C628.28 191.064 620.466 190.663 612.851 190.663L612.651 190.964Z" fill="url(#paint10_linear_3657_50858)"/>
<path d="M1499.54 1192.9C1483.11 1192.9 1466.28 1192 1449.65 1190.19C1426.6 1187.69 1403.16 1182.27 1378.11 1173.86C1251.58 1130.86 1174.73 1031.34 1093.48 926.006C1070.54 896.24 1046.99 865.773 1022.25 836.508C1009.22 821.074 996.299 805.238 984.878 791.207L984.477 790.706C941.697 738.29 901.322 688.88 850.627 648.591C799.531 608.001 739.218 588.357 680.809 569.315C655.962 561.197 630.415 552.879 605.969 543.057C594.748 538.647 583.827 533.836 573.508 528.825C510.189 498.358 460.196 428.302 454.686 362.155C451.68 326.075 460.196 274.561 517.804 234.071C561.285 203.504 607.472 191.978 660.471 198.593C708.661 204.606 755.749 225.051 799.331 246.098C826.682 259.327 846.82 281.376 866.256 302.824C885.392 323.871 905.229 345.619 931.478 357.946C942.699 363.258 954.722 366.064 967.245 366.064C1008.52 366.064 1047.6 337 1073.44 317.757C1081.76 311.643 1088.77 306.432 1094.08 303.425C1177.94 256.722 1263.8 231.666 1342.45 230.964H1345.95C1392.74 230.964 1434.52 239.483 1470.29 256.22C1508.26 274.06 1538.61 300.92 1560.46 335.997C1584.2 374.282 1578.29 422.389 1572.98 464.783V465.585C1572.08 472.2 1571.38 478.013 1570.67 483.926C1565.77 528.825 1563.86 586.553 1592.62 634.159C1609.35 661.921 1636.3 682.566 1662.35 702.41C1671.56 709.426 1680.88 716.542 1689.4 723.758C1702.52 734.782 1715.35 745.706 1727.07 757.432C1767.74 798.023 1794.29 852.944 1801.81 911.975C1809.52 972.51 1796.1 1031.14 1764.04 1077.04C1738.29 1113.82 1696.31 1145.39 1645.82 1165.84C1608.24 1181.07 1566.87 1189.99 1522.78 1192.3C1515.17 1192.7 1507.46 1192.9 1499.74 1192.9H1499.54ZM632.218 201.499C591.742 201.499 555.074 213.426 520.308 237.88C464.604 277.067 456.289 326.877 459.194 361.755C464.504 426.298 513.396 494.85 575.311 524.616C585.531 529.527 596.351 534.237 607.572 538.647C631.917 548.369 657.365 556.687 682.011 564.705C741.022 583.948 801.836 603.691 853.532 644.883C904.528 685.473 945.104 735.083 988.084 787.7L988.485 788.201C999.906 802.232 1012.83 818.067 1025.85 833.401C1050.7 862.866 1074.25 893.334 1096.99 922.799C1178.04 1027.83 1254.38 1126.75 1379.62 1169.35C1404.36 1177.76 1427.41 1183.08 1450.15 1185.48C1474.49 1188.09 1499.04 1188.89 1522.38 1187.59C1565.97 1185.28 1606.84 1176.46 1643.81 1161.43C1693.5 1141.28 1734.78 1110.32 1759.93 1074.24C1791.39 1029.34 1804.51 971.808 1796.9 912.476C1789.48 854.448 1763.44 800.628 1723.46 760.74C1711.84 749.114 1699.12 738.29 1686.09 727.366C1677.57 720.25 1668.36 713.234 1659.44 706.419C1632.79 686.074 1605.54 665.228 1588.31 636.664C1558.85 587.856 1560.76 529.126 1565.77 483.425C1566.37 477.511 1567.17 471.598 1567.97 464.984V464.182C1573.28 422.489 1579.09 375.285 1556.15 338.403C1534.81 304.027 1505.15 277.768 1467.98 260.43C1432.92 243.993 1391.74 235.575 1345.65 235.575H1342.15C1264.4 236.276 1179.24 261.131 1096.09 307.434C1090.98 310.24 1084.16 315.352 1076.15 321.265C1049.7 341.009 1009.82 370.574 967.045 370.574C953.82 370.574 941.196 367.668 929.274 362.055C902.123 349.227 882.086 327.178 862.549 305.831C843.313 284.784 823.476 263.036 797.026 250.207C753.745 229.261 707.158 209.116 659.569 203.103C650.252 201.9 641.034 201.299 632.118 201.299L632.218 201.499Z" fill="url(#paint11_linear_3657_50858)"/>
<path d="M1487.4 1169.86C1474.17 1169.86 1460.65 1169.46 1447.22 1168.55C1356.55 1162.64 1279.61 1127.66 1212.08 1061.62C1152.57 1003.39 1107.29 928.723 1063.5 856.563C1013.51 774.18 966.422 696.408 902.002 647.699C848 606.809 786.185 590.573 720.762 573.234C696.417 566.82 671.671 560.306 647.626 552.488C634.701 548.279 623.28 544.17 612.76 539.86C580.3 526.631 548.941 502.578 524.695 472.21C499.849 441.242 484.019 405.462 480.012 371.687C475.804 335.808 482.516 284.795 538.421 244.806C582.604 213.236 629.692 201.81 683.693 209.628C732.584 216.844 780.374 238.993 824.757 261.844C852.409 276.075 872.446 299.728 891.682 322.578C910.818 345.128 930.455 368.38 957.105 381.609C968.626 387.322 981.049 390.329 993.773 390.329C1036.65 390.329 1076.73 358.157 1103.18 336.81C1110.49 330.997 1116.7 325.986 1121.41 322.979C1167.7 293.815 1214.89 271.565 1261.47 256.832C1306.86 242.501 1350.64 235.485 1391.62 236.287C1432.59 236.988 1469.56 245.307 1501.42 260.942C1534.18 277.077 1560.53 300.529 1579.97 330.696C1605.02 369.683 1597.9 419.393 1591.69 463.29C1590.69 470.306 1589.79 476.72 1588.99 483.134C1583.18 529.437 1580.37 588.869 1610.13 637.978C1627.66 666.942 1656.21 688.089 1683.76 708.534C1693.08 715.45 1702.3 722.265 1710.82 729.18C1723.34 739.303 1736.16 749.726 1747.78 761.251C1769.73 783.2 1787.86 811.262 1800.08 842.331C1812.2 873.1 1818.52 906.373 1818.12 938.445C1817.51 993.968 1797.28 1043.58 1761.11 1078.15C1729.95 1108.02 1687.17 1132.07 1637.38 1147.91C1600.31 1159.74 1559.93 1166.85 1517.35 1169.06C1507.53 1169.56 1497.42 1169.86 1487.2 1169.86H1487.4ZM652.034 211.933C612.059 211.933 575.791 223.96 541.327 248.614C487.225 287.3 480.713 336.609 484.821 371.186C488.728 404.159 504.157 439.037 528.503 469.304C552.347 499.07 582.904 522.522 614.664 535.451C625.083 539.66 636.404 543.769 649.128 547.878C673.073 555.695 697.719 562.21 721.564 568.424C787.888 585.862 850.104 602.299 904.807 643.791C969.828 693 1017.22 771.173 1067.41 853.957C1110.99 925.917 1156.18 1000.28 1215.29 1058.11C1282.01 1123.35 1357.95 1157.93 1447.52 1163.64C1471.17 1165.15 1494.91 1165.35 1517.35 1164.15C1559.53 1161.94 1599.51 1154.82 1636.18 1143.2C1685.27 1127.56 1727.45 1103.81 1758.1 1074.45C1793.37 1040.77 1813.11 992.364 1813.71 938.144C1814.11 906.674 1807.9 874.002 1795.97 843.734C1783.95 813.267 1766.22 785.706 1744.68 764.258C1733.26 752.833 1720.43 742.51 1708.11 732.488C1699.69 725.673 1690.48 718.857 1681.66 712.243C1653.41 691.296 1624.45 669.849 1606.42 640.083C1575.86 589.771 1578.77 529.337 1584.58 482.232C1585.38 475.818 1586.28 469.404 1587.28 462.589C1593.5 419.293 1600.41 370.485 1576.26 333.001C1557.33 303.536 1531.58 280.685 1499.62 264.95C1468.36 249.616 1432.09 241.398 1391.82 240.797C1351.24 240.095 1308.06 247.011 1263.18 261.142C1216.99 275.775 1170.2 297.823 1124.22 326.788C1119.71 329.594 1113.6 334.605 1106.38 340.318C1079.33 362.066 1038.56 394.839 993.974 394.839C980.448 394.839 967.424 391.732 955.201 385.718C927.75 372.088 907.712 348.436 888.276 325.485C869.24 302.935 849.503 279.683 822.753 265.852C778.671 243.102 731.282 221.153 683.092 214.138C672.472 212.534 661.952 211.833 651.933 211.833L652.034 211.933Z" fill="url(#paint12_linear_3657_50858)"/>
<path d="M1586.18 1473.92C1549.32 1473.92 1512.95 1465.7 1477.88 1449.36C1440.21 1431.83 1404.34 1403.06 1371.48 1363.78C1336.42 1321.98 1310.07 1276.68 1282.22 1228.68C1194.15 1077.04 1094.46 905.158 669.268 829.49C649.832 826.082 631.097 823.176 613.063 820.37C602.543 818.766 592.224 817.162 582.005 815.459C389.645 784.189 339.15 748.009 317.51 732.575C207.304 653.7 141.58 583.945 110.122 440.928C81.2676 309.837 153.803 160.606 275.231 101.174C414.992 32.7222 558.861 63.5907 574.791 67.2989C650.132 84.938 682.693 81.33 720.564 77.2209C733.689 75.8178 747.314 74.3145 763.745 73.5127C869.443 68.3011 980.25 97.2654 1092.86 159.604C1149.77 191.073 1192.75 222.744 1228.11 259.325C1266.19 298.612 1296.24 344.815 1319.79 400.438C1330.41 425.494 1336.12 452.253 1341.53 478.11L1341.83 479.313C1342.93 484.324 1344.03 489.536 1345.13 494.647C1352.05 526.217 1360.56 559.792 1376.59 590.76C1388.61 614.012 1405.25 634.758 1421.28 654.702L1426.49 661.217C1442.52 681.261 1457.64 698.299 1472.67 713.132C1500.22 740.392 1529.68 765.748 1558.23 790.303C1639.88 860.659 1724.34 933.42 1787.86 1066.62C1819.32 1132.66 1831.64 1199.71 1823.53 1260.65C1816.11 1316.17 1792.27 1365.58 1754.5 1403.66C1720.14 1438.34 1676.65 1461.29 1628.66 1470.01C1618.85 1471.81 1608.73 1472.92 1598.81 1473.52C1594.6 1473.72 1590.39 1473.82 1586.18 1473.82V1473.92ZM474.904 61.8869C419.501 61.8869 347.867 70.8067 277.234 105.484C157.711 164.013 86.2771 310.939 114.63 440.026C145.788 581.54 210.91 650.693 320.115 728.867C341.455 744.1 391.348 779.88 582.606 810.949C592.825 812.652 603.144 814.156 613.664 815.86C631.798 818.666 650.533 821.572 669.969 824.98C1097.27 901.049 1197.66 1073.83 1286.12 1226.37C1313.87 1274.28 1340.12 1319.38 1374.89 1360.87C1407.35 1399.55 1442.62 1427.92 1479.69 1445.16C1518.06 1463 1558.23 1471.11 1598.41 1468.91C1608.23 1468.41 1618.04 1467.2 1627.66 1465.5C1674.65 1456.98 1717.33 1434.53 1750.99 1400.56C1787.96 1363.17 1811.41 1314.67 1818.62 1260.15C1826.63 1200.21 1814.51 1133.97 1783.35 1068.82C1720.24 936.427 1636.18 864.067 1554.93 794.011C1526.37 769.457 1496.82 744 1469.17 716.639C1454.04 701.706 1438.81 684.568 1422.58 664.323L1417.37 657.909C1401.04 637.664 1384.31 616.718 1372.08 593.065C1355.75 561.495 1347.14 527.62 1340.22 495.749C1339.12 490.738 1338.02 485.527 1336.92 480.415L1336.62 479.213C1331.21 453.556 1325.6 427.097 1315.08 402.442C1291.73 347.32 1261.98 301.619 1224.31 262.732C1189.24 226.552 1146.56 195.082 1090.06 163.813C978.246 101.876 868.241 73.1118 763.444 78.3234C747.214 79.1251 733.689 80.6285 720.564 82.0316C682.393 86.2409 649.331 89.8489 573.289 72.0093C565.574 70.2053 527.503 61.9871 474.504 61.9871L474.904 61.8869Z" fill="url(#paint13_linear_3657_50858)"/>
<path d="M1780.16 1069.54C1760.52 1000.68 1730.86 938.346 1689.49 879.115C1649.01 821.186 1600.02 770.273 1557.44 727.98C1542.71 713.347 1528.79 698.214 1514.06 682.178C1508.05 675.664 1501.74 669.249 1495.62 662.935C1478.39 645.396 1460.56 627.156 1448.54 605.308C1428.6 569.328 1423.09 527.435 1420.28 491.255C1419.98 486.845 1419.68 482.235 1419.28 477.725V476.021C1416.98 443.248 1414.77 409.473 1399.84 379.006C1376.2 330.498 1346.14 291.211 1308.17 258.939C1273.01 229.073 1229.73 204.418 1176.03 183.372C1105.59 155.911 1030.65 141.98 953.209 141.98C925.757 141.98 898.105 143.784 870.854 147.392C859.333 148.895 841.8 154.207 827.573 158.516C788.099 170.543 749.828 182.269 696.628 160.922C691.419 158.817 685.007 155.71 677.693 152.102C642.727 134.964 584.218 106.301 493.648 109.307C357.393 111.713 275.039 194.296 245.785 264.351C218.033 335.509 234.163 418.894 291.069 499.172C309.303 524.829 371.72 599.795 440.449 664.439C505.571 725.775 616.478 783.002 737.204 817.378L787.298 832.211C1079.75 918.202 1178.03 1052.1 1264.69 1170.26C1298.96 1217.06 1331.42 1261.16 1373.5 1300.45C1406.16 1330.92 1437.21 1351.36 1468.47 1362.99C1499.73 1374.61 1531.59 1380.53 1563.25 1380.53C1567.66 1380.53 1571.97 1380.43 1576.38 1380.23C1586.69 1379.73 1597.01 1378.42 1607.13 1376.62C1649.91 1368.7 1688.99 1349.36 1720.14 1320.59C1751.1 1291.93 1773.24 1254.85 1784.16 1213.26C1795.99 1168.26 1794.68 1119.95 1780.36 1069.74L1780.16 1069.54ZM1779.45 1211.95C1768.73 1252.64 1747.09 1289.02 1716.84 1317.09C1686.38 1345.25 1648.11 1364.29 1606.13 1372.01C1596.31 1373.81 1586.19 1375.01 1575.97 1375.52C1540.81 1377.42 1504.84 1371.61 1469.98 1358.58C1439.32 1347.15 1408.76 1327.01 1376.6 1296.94C1334.82 1257.96 1302.56 1213.96 1268.3 1167.35C1181.14 1048.59 1082.45 913.992 788.4 827.601L738.306 812.768C618.282 778.592 508.075 721.866 443.454 660.931C369.616 591.276 308.602 515.909 294.776 496.366C238.771 417.391 222.942 335.509 250.093 265.955C278.746 197.303 359.698 116.323 493.648 113.918C498.057 113.717 502.465 113.717 506.773 113.717C588.626 113.717 642.627 140.176 675.489 156.211C682.903 159.819 689.315 163.026 694.725 165.131C749.427 187.08 788.4 175.254 828.776 162.926C842.802 158.717 860.235 153.405 871.355 152.002C898.406 148.494 925.958 146.69 953.108 146.69C1029.95 146.69 1104.39 160.521 1174.22 187.781C1227.42 208.527 1270.3 232.982 1305.07 262.547C1342.64 294.418 1372.19 333.204 1395.54 381.11C1409.96 410.776 1412.17 444.15 1414.37 476.422V478.125C1414.77 482.635 1415.07 487.246 1415.47 491.655C1418.28 528.337 1423.89 570.831 1444.33 607.613C1456.75 630.062 1474.78 648.403 1492.22 666.243C1498.33 672.456 1504.64 678.871 1510.55 685.385C1525.28 701.521 1539.21 716.655 1554.03 731.387C1596.51 773.481 1645.3 824.293 1685.48 881.821C1726.56 940.651 1756.01 1002.49 1775.55 1070.84C1789.67 1120.25 1790.88 1167.76 1779.35 1211.95H1779.45Z" fill="url(#paint14_linear_3657_50858)"/>
<path d="M1783.96 1068.11C1728.66 926.795 1645.7 846.818 1557.84 762.23L1556.84 761.328C1543.11 748.099 1528.99 734.469 1515.06 720.638C1498.43 704.202 1483.1 686.663 1470.28 671.73C1466.17 666.919 1461.86 662.008 1457.65 657.298L1456.65 656.195C1440.62 638.255 1424.09 619.614 1412.47 597.966C1394.63 564.792 1387.62 527.81 1382.61 492.933C1382.01 488.523 1381.41 484.013 1380.71 479.002V477.9C1376.6 448.334 1372.59 417.766 1359.77 389.704C1314.28 290.083 1246.86 224.838 1134.35 171.42C1056.7 134.638 966.433 114.293 850.315 107.378C837.692 106.576 803.528 106.175 770.065 115.095C716.064 131.531 672.783 124.616 646.935 115.796C500.06 65.3844 410.793 88.5357 381.538 96.0524C380.235 96.3531 250.993 132.233 193.887 240.172C161.326 301.709 159.522 373.869 188.577 454.548C215.928 536.329 347.274 722.141 527.21 781.072C591.431 802.72 725.782 830.382 728.287 830.883C1087.86 912.865 1187.55 1065.9 1275.41 1201C1305.87 1247.81 1334.62 1292.01 1372.39 1332.19C1405.45 1367.47 1438.42 1391.63 1473.08 1406.26C1506.34 1420.29 1540.61 1427.41 1574.87 1427.41C1579.18 1427.41 1583.39 1427.31 1587.7 1427.11C1597.81 1426.6 1607.93 1425.4 1617.85 1423.6C1663.24 1415.28 1704.51 1394.03 1737.18 1362.26C1771.34 1328.89 1794.28 1285.59 1803.4 1237.08C1813.42 1183.77 1806.91 1126.94 1783.96 1068.31V1068.11ZM1798.79 1235.98C1789.87 1283.59 1767.43 1325.98 1733.97 1358.65C1702.01 1389.82 1661.53 1410.67 1617.05 1418.79C1607.33 1420.59 1597.31 1421.69 1587.5 1422.29C1549.72 1424.3 1511.65 1417.38 1474.88 1401.85C1440.82 1387.52 1408.46 1363.66 1375.8 1328.89C1338.33 1289 1309.68 1245 1279.32 1198.4C1190.95 1062.6 1090.77 908.655 729.189 826.272C727.786 825.972 592.933 798.21 528.613 776.562C350.279 718.233 220.036 534.124 192.885 453.044C164.331 373.668 166.034 302.811 197.894 242.477C253.999 136.342 381.237 101.064 382.54 100.763C397.468 96.9544 427.925 89.0369 473.81 89.0369C517.292 89.0369 574.499 96.1527 645.231 120.406C671.781 129.527 715.964 136.542 771.267 119.805C804.029 111.086 837.491 111.587 849.915 112.288C965.431 119.104 1055.1 139.348 1132.24 175.829C1243.65 228.647 1310.48 293.29 1355.36 391.809C1367.88 419.27 1371.89 449.436 1375.8 478.701L1376 480.305C1376.6 484.815 1377.2 489.325 1377.8 493.735C1382.81 529.113 1390.03 566.496 1408.16 600.371C1419.98 622.52 1436.71 641.262 1452.94 659.502L1453.95 660.605C1458.15 665.315 1462.36 670.126 1466.57 674.937C1479.49 689.97 1494.92 707.509 1511.65 724.046C1525.68 737.876 1539.81 751.607 1553.53 764.736L1554.53 765.638C1642 849.925 1724.65 929.501 1779.55 1069.91C1802.2 1127.74 1808.61 1183.67 1798.79 1236.08V1235.98Z" fill="url(#paint15_linear_3657_50858)"/>
<path d="M1782.06 1068.82C1729.97 916.177 1639.5 826.578 1543.82 731.768L1536.2 724.251C1520.47 708.717 1505.85 692.28 1492.12 676.846C1486.81 670.833 1481.3 664.92 1475.89 659.107C1459.36 641.468 1442.23 623.127 1430.51 601.479C1411.67 566.802 1405.26 526.613 1401.45 491.936C1400.95 487.125 1400.45 482.214 1399.95 476.902C1396.84 445.733 1393.74 413.562 1379.91 384.197C1356.17 333.885 1326.11 292.894 1288.14 258.919C1253.07 227.449 1209.59 200.79 1155.29 177.338C1058.71 135.545 948.805 118.106 842.907 127.828C830.484 128.93 816.257 132.438 801.128 136.247C778.586 141.859 753.038 148.173 727.391 148.173C716.37 148.173 706.251 147.071 696.433 144.766C675.493 139.955 656.658 132.739 638.224 125.723C616.082 117.305 589.733 108.084 562.682 103.674C554.066 102.271 509.282 95.356 475.319 98.6633C343.672 107.282 277.549 163.407 245.388 208.908C197.799 276.157 196.597 356.034 211.225 408.25C238.075 503.662 283.46 554.374 323.735 599.374C365.012 645.777 423.622 698.193 463.998 723.449C507.78 754.518 593.34 787.592 711.461 819.262C714.066 819.964 715.869 820.465 716.971 820.765C725.487 822.87 732.901 824.875 740.816 826.979C746.126 828.382 751.636 829.785 757.848 831.389C1084.16 915.776 1183.24 1059.29 1270.81 1185.98C1302.97 1232.58 1333.42 1276.58 1373 1316.16C1405.96 1349.04 1437.92 1371.39 1470.78 1384.52C1503.04 1397.34 1536.1 1403.86 1569.17 1403.86C1573.47 1403.86 1577.78 1403.76 1582.09 1403.56C1592.31 1403.06 1602.63 1401.85 1612.55 1399.95C1656.63 1391.83 1696.81 1371.49 1728.66 1341.22C1761.23 1310.25 1783.67 1270.06 1793.69 1224.96C1804.61 1175.75 1800.7 1123.24 1782.16 1068.82H1782.06ZM1788.98 1223.96C1779.16 1268.06 1757.12 1307.45 1725.26 1337.81C1694 1367.58 1654.73 1387.42 1611.45 1395.34C1601.73 1397.14 1591.71 1398.35 1581.59 1398.85C1545.12 1400.85 1508.05 1394.44 1472.28 1380.21C1440.02 1367.38 1408.47 1345.33 1376.1 1312.96C1336.73 1273.67 1306.47 1229.77 1274.41 1183.37C1186.45 1056.09 1086.76 911.767 758.749 826.979C752.538 825.376 747.127 823.972 741.818 822.569C734.003 820.465 726.489 818.56 718.073 816.356C717.071 816.055 715.168 815.554 712.563 814.852C596.646 783.783 509.282 750.008 466.502 719.641C426.427 694.485 368.218 642.47 327.141 596.368C287.267 551.769 242.182 501.457 215.733 407.047C201.306 355.834 202.608 277.56 249.196 211.714C294.58 147.572 372.827 110.089 475.72 103.374C482.031 102.772 488.644 102.472 495.356 102.472C524.511 102.472 554.968 107.182 561.881 108.285C588.531 112.694 614.579 121.815 636.621 130.133C655.055 137.149 674.091 144.365 695.331 149.276C705.449 151.681 715.969 152.783 727.29 152.783C753.539 152.783 779.388 146.369 802.231 140.757C817.159 137.049 831.185 133.541 843.207 132.438C948.204 122.817 1057.31 140.155 1153.29 181.647C1207.09 204.899 1250.17 231.358 1284.83 262.427C1322.4 296.001 1352.06 336.591 1375.5 386.201C1388.93 414.765 1392.13 446.535 1395.14 477.504C1395.64 482.615 1396.14 487.526 1396.64 492.337C1400.45 527.515 1406.96 568.305 1426.2 603.684C1438.22 625.833 1455.55 644.374 1472.28 662.214C1477.69 667.926 1483.21 673.839 1488.52 679.853C1502.24 695.287 1516.97 711.724 1532.8 727.458L1540.41 734.975C1635.79 829.385 1725.76 918.582 1777.56 1070.22C1795.89 1123.84 1799.7 1175.55 1788.98 1223.86V1223.96Z" fill="url(#paint16_linear_3657_50858)"/>
</g>
<defs>
<linearGradient id="paint0_linear_3657_50858" x1="180.862" y1="0.0559324" x2="1641.82" y2="1508.9" gradientUnits="userSpaceOnUse">
<stop stop-color="#AFB388"/>
<stop offset="0.31" stop-color="#41929E"/>
<stop offset="0.49" stop-color="#27758D"/>
<stop offset="0.68" stop-color="#115C7E"/>
<stop offset="0.86" stop-color="#044D76"/>
<stop offset="1" stop-color="#004873"/>
</linearGradient>
<linearGradient id="paint1_linear_3657_50858" x1="196.878" y1="-15.3902" x2="1657.84" y2="1493.45" gradientUnits="userSpaceOnUse">
<stop stop-color="#AFB388"/>
<stop offset="0.31" stop-color="#41929E"/>
<stop offset="0.49" stop-color="#27758D"/>
<stop offset="0.68" stop-color="#115C7E"/>
<stop offset="0.86" stop-color="#044D76"/>
<stop offset="1" stop-color="#004873"/>
</linearGradient>
<linearGradient id="paint2_linear_3657_50858" x1="216.341" y1="-34.2052" x2="1677.3" y2="1474.64" gradientUnits="userSpaceOnUse">
<stop stop-color="#AFB388"/>
<stop offset="0.31" stop-color="#41929E"/>
<stop offset="0.49" stop-color="#27758D"/>
<stop offset="0.68" stop-color="#115C7E"/>
<stop offset="0.86" stop-color="#044D76"/>
<stop offset="1" stop-color="#004873"/>
</linearGradient>
<linearGradient id="paint3_linear_3657_50858" x1="252" y1="-68.7979" x2="1712.96" y2="1440.04" gradientUnits="userSpaceOnUse">
<stop stop-color="#AFB388"/>
<stop offset="0.31" stop-color="#41929E"/>
<stop offset="0.49" stop-color="#27758D"/>
<stop offset="0.68" stop-color="#115C7E"/>
<stop offset="0.86" stop-color="#044D76"/>
<stop offset="1" stop-color="#004873"/>
</linearGradient>
<linearGradient id="paint4_linear_3657_50858" x1="326.635" y1="-141.061" x2="1787.59" y2="1367.78" gradientUnits="userSpaceOnUse">
<stop stop-color="#AFB388"/>
<stop offset="0.31" stop-color="#41929E"/>
<stop offset="0.49" stop-color="#27758D"/>
<stop offset="0.68" stop-color="#115C7E"/>
<stop offset="0.86" stop-color="#044D76"/>
<stop offset="1" stop-color="#004873"/>
</linearGradient>
<linearGradient id="paint5_linear_3657_50858" x1="342.15" y1="-156.102" x2="1803.11" y2="1352.74" gradientUnits="userSpaceOnUse">
<stop stop-color="#AFB388"/>
<stop offset="0.31" stop-color="#41929E"/>
<stop offset="0.49" stop-color="#27758D"/>
<stop offset="0.68" stop-color="#115C7E"/>
<stop offset="0.86" stop-color="#044D76"/>
<stop offset="1" stop-color="#004873"/>
</linearGradient>
<linearGradient id="paint6_linear_3657_50858" x1="356.582" y1="-170.14" x2="1817.64" y2="1338.7" gradientUnits="userSpaceOnUse">
<stop stop-color="#AFB388"/>
<stop offset="0.31" stop-color="#41929E"/>
<stop offset="0.49" stop-color="#27758D"/>
<stop offset="0.68" stop-color="#115C7E"/>
<stop offset="0.86" stop-color="#044D76"/>
<stop offset="1" stop-color="#004873"/>
</linearGradient>
<linearGradient id="paint7_linear_3657_50858" x1="369.994" y1="-183.065" x2="1830.95" y2="1325.78" gradientUnits="userSpaceOnUse">
<stop stop-color="#AFB388"/>
<stop offset="0.31" stop-color="#41929E"/>
<stop offset="0.49" stop-color="#27758D"/>
<stop offset="0.68" stop-color="#115C7E"/>
<stop offset="0.86" stop-color="#044D76"/>
<stop offset="1" stop-color="#004873"/>
</linearGradient>
<linearGradient id="paint8_linear_3657_50858" x1="382.808" y1="-195.478" x2="1843.77" y2="1313.36" gradientUnits="userSpaceOnUse">
<stop stop-color="#AFB388"/>
<stop offset="0.31" stop-color="#41929E"/>
<stop offset="0.49" stop-color="#27758D"/>
<stop offset="0.68" stop-color="#115C7E"/>
<stop offset="0.86" stop-color="#044D76"/>
<stop offset="1" stop-color="#004873"/>
</linearGradient>
<linearGradient id="paint9_linear_3657_50858" x1="395.344" y1="-207.612" x2="1856.3" y2="1301.23" gradientUnits="userSpaceOnUse">
<stop stop-color="#AFB388"/>
<stop offset="0.31" stop-color="#41929E"/>
<stop offset="0.49" stop-color="#27758D"/>
<stop offset="0.68" stop-color="#115C7E"/>
<stop offset="0.86" stop-color="#044D76"/>
<stop offset="1" stop-color="#004873"/>
</linearGradient>
<linearGradient id="paint10_linear_3657_50858" x1="407.567" y1="-219.446" x2="1868.53" y2="1289.39" gradientUnits="userSpaceOnUse">
<stop stop-color="#AFB388"/>
<stop offset="0.31" stop-color="#41929E"/>
<stop offset="0.49" stop-color="#27758D"/>
<stop offset="0.68" stop-color="#115C7E"/>
<stop offset="0.86" stop-color="#044D76"/>
<stop offset="1" stop-color="#004873"/>
</linearGradient>
<linearGradient id="paint11_linear_3657_50858" x1="419.62" y1="-231.061" x2="1880.58" y2="1277.78" gradientUnits="userSpaceOnUse">
<stop stop-color="#AFB388"/>
<stop offset="0.31" stop-color="#41929E"/>
<stop offset="0.49" stop-color="#27758D"/>
<stop offset="0.68" stop-color="#115C7E"/>
<stop offset="0.86" stop-color="#044D76"/>
<stop offset="1" stop-color="#004873"/>
</linearGradient>
<linearGradient id="paint12_linear_3657_50858" x1="431.321" y1="-242.475" x2="1892.38" y2="1266.37" gradientUnits="userSpaceOnUse">
<stop stop-color="#AFB388"/>
<stop offset="0.31" stop-color="#41929E"/>
<stop offset="0.49" stop-color="#27758D"/>
<stop offset="0.68" stop-color="#115C7E"/>
<stop offset="0.86" stop-color="#044D76"/>
<stop offset="1" stop-color="#004873"/>
</linearGradient>
<linearGradient id="paint13_linear_3657_50858" x1="233.653" y1="-51.0637" x2="1694.61" y2="1457.78" gradientUnits="userSpaceOnUse">
<stop stop-color="#AFB388"/>
<stop offset="0.31" stop-color="#41929E"/>
<stop offset="0.49" stop-color="#27758D"/>
<stop offset="0.68" stop-color="#115C7E"/>
<stop offset="0.86" stop-color="#044D76"/>
<stop offset="1" stop-color="#004873"/>
</linearGradient>
<linearGradient id="paint14_linear_3657_50858" x1="308.402" y1="-123.409" x2="1769.36" y2="1385.43" gradientUnits="userSpaceOnUse">
<stop stop-color="#AFB388"/>
<stop offset="0.31" stop-color="#41929E"/>
<stop offset="0.49" stop-color="#27758D"/>
<stop offset="0.68" stop-color="#115C7E"/>
<stop offset="0.86" stop-color="#044D76"/>
<stop offset="1" stop-color="#004873"/>
</linearGradient>
<linearGradient id="paint15_linear_3657_50858" x1="271.331" y1="-87.5549" x2="1732.29" y2="1421.29" gradientUnits="userSpaceOnUse">
<stop stop-color="#AFB388"/>
<stop offset="0.31" stop-color="#41929E"/>
<stop offset="0.49" stop-color="#27758D"/>
<stop offset="0.68" stop-color="#115C7E"/>
<stop offset="0.86" stop-color="#044D76"/>
<stop offset="1" stop-color="#004873"/>
</linearGradient>
<linearGradient id="paint16_linear_3657_50858" x1="289.271" y1="-104.888" x2="1750.23" y2="1403.95" gradientUnits="userSpaceOnUse">
<stop stop-color="#AFB388"/>
<stop offset="0.31" stop-color="#41929E"/>
<stop offset="0.49" stop-color="#27758D"/>
<stop offset="0.68" stop-color="#115C7E"/>
<stop offset="0.86" stop-color="#044D76"/>
<stop offset="1" stop-color="#004873"/>
</linearGradient>
</defs>
</svg>
