<svg width="393" height="731" viewBox="0 0 393 731" fill="none" xmlns="http://www.w3.org/2000/svg">
<g clip-path="url(#clip0_1303_817)">
<g opacity="0.05">
<path d="M482.957 754.193C475.973 754.193 468.988 753.468 462.088 752.062C432.402 745.97 405.443 727.266 384.105 697.911C370.178 678.781 360.041 658.245 349.266 636.559C310.381 558.038 270.175 476.789 48.534 449.735C29.8794 447.477 12.8006 446.199 -3.76715 444.963C-63.3939 439.339 -163.141 429.881 -192.699 312.887C-201.174 279.314 -218.253 165.898 -81.7504 114.9C-23.4014 92.7874 35.8846 96.3236 91.2949 103.439C152.71 111.321 188.061 127.383 239.638 158.187C262.125 171.65 280.312 187.073 298.498 208.205C314.895 227.207 327.545 249.064 337.213 275.01C339.598 281.359 341.898 287.92 344.155 294.225L344.24 294.481C353.78 321.322 363.619 349.058 380.229 372.364C400.289 400.526 426.056 418.676 453.4 437.891C472.012 451.013 491.22 464.562 510.088 482.158C531.511 502.139 549.228 524.507 564.22 550.539C586.495 589.139 594.715 628.166 588.028 663.358C582.108 694.503 564.859 720.747 539.432 737.278C524.057 747.29 506.382 753.042 488.366 754.022C486.578 754.107 484.746 754.15 482.957 754.15V754.193ZM18.3799 100.03C-14.5 100.03 -47.9335 104.248 -81.0264 116.817C-215.953 167.219 -199.087 279.271 -190.74 312.418C-178.09 362.437 -152.238 396.819 -111.649 417.525C-77.7895 434.78 -39.7136 439.595 -3.59682 443.003C12.9709 444.239 30.1349 445.517 48.7895 447.775C271.495 474.957 311.956 556.674 351.054 635.707C361.787 657.351 371.881 677.801 385.723 696.803C406.763 725.732 433.297 744.18 462.471 750.145C470.989 751.892 479.678 752.531 488.239 752.105C505.914 751.168 523.248 745.501 538.325 735.702C563.241 719.512 580.191 693.693 586.026 663.102C592.628 628.379 584.493 589.864 562.474 551.647C547.567 525.785 529.977 503.588 508.682 483.734C489.9 466.223 470.776 452.717 452.207 439.68C424.736 420.337 398.798 402.059 378.525 373.642C361.745 350.081 351.864 322.217 342.281 295.248L342.196 294.95C339.938 288.644 337.639 282.125 335.253 275.777C325.671 250.044 313.106 228.4 296.879 209.569C278.821 188.607 260.805 173.311 238.488 159.976C187.166 129.3 151.986 113.323 90.9116 105.484C67.2738 102.459 42.9121 100.073 18.2521 100.073L18.3799 100.03Z" fill="url(#paint0_linear_1303_817)"/>
<path d="M582.358 599.402C578.695 583.254 572.307 566.809 563.405 550.491C532.144 493.315 494.366 464.812 457.781 437.246C440.744 424.379 424.603 412.237 409.781 397.623C402.455 390.38 395.811 382.754 389.551 374.275C381.799 363.837 376.135 354.762 371.62 345.645C365.529 333.246 361.057 319.954 357.522 308.535C356.713 305.894 355.904 303.21 355.095 300.611L354.839 299.801C352.071 290.726 349.217 281.396 345.725 272.363C335.886 247.184 323.195 226.051 306.882 207.816C291.848 190.987 273.321 175.905 248.533 160.354C202.876 131.681 151.768 114.425 100.702 110.548C96.5277 110.122 91.289 110.207 84.7301 110.335C74.5084 110.548 61.5608 110.761 46.0579 109.142C23.3997 106.799 -11.0986 103.22 -56.6279 115.32C-170.132 145.399 -182.398 231.718 -183.718 248.717C-187.125 288.596 -172.261 399.199 -63.996 431.622C-48.0672 437.246 -10.7153 441.336 22.2498 444.958C37.1991 446.577 51.2965 448.153 61.0923 449.602C269.232 478.488 309.566 555.944 348.621 630.887C359.695 652.105 370.129 672.172 384.312 690.79C398.367 709.281 414.423 723.17 432.013 732.032C447.601 739.872 463.956 743.877 480.609 743.877C482.398 743.877 484.187 743.834 486.018 743.749C490.234 743.536 494.494 743.024 498.667 742.3C520.09 738.466 539.554 728.027 554.93 712.136C572.52 693.943 583.124 670.255 585.595 643.669C586.915 629.396 585.85 614.484 582.4 599.359L582.358 599.402ZM583.55 643.541C581.123 669.658 570.731 692.921 553.439 710.772C538.362 726.366 519.324 736.591 498.284 740.34C494.195 741.065 490.022 741.576 485.89 741.789C467.789 742.769 449.859 738.849 432.908 730.285C415.616 721.509 399.772 707.832 385.888 689.597C371.833 671.107 361.398 651.125 350.367 629.95C311.099 554.581 270.51 476.656 61.3479 447.642C51.5521 446.151 37.412 444.617 22.4628 442.998C-10.3745 439.419 -47.5987 435.329 -63.3572 429.747C-170.387 397.666 -185.081 288.34 -181.716 248.888C-180.439 232.144 -168.3 146.976 -56.1168 117.28C-10.9282 105.308 23.3571 108.844 45.8449 111.187C61.4757 112.806 74.5083 112.593 84.7727 112.38C91.289 112.253 96.4425 112.167 100.531 112.551C151.257 116.428 202.067 133.555 247.469 162.058C272.086 177.524 290.485 192.521 305.392 209.18C321.533 227.244 334.098 248.164 343.851 273.13C347.343 282.077 350.197 291.408 352.965 300.525L353.178 301.25C353.987 303.891 354.797 306.575 355.606 309.174C359.184 320.635 363.655 334.056 369.831 346.582C374.388 355.785 380.138 364.987 387.932 375.511C394.278 384.075 400.965 391.786 408.376 399.114C423.282 413.856 439.467 426.041 456.588 438.908C493.003 466.345 530.61 494.678 561.659 551.514C570.475 567.661 576.779 583.936 580.441 599.913C583.849 614.825 584.871 629.524 583.593 643.584L583.55 643.541Z" fill="url(#paint1_linear_1303_817)"/>
<path d="M562.564 550.801C533.518 494.179 496.89 464.696 461.497 436.108C446.463 424.008 432.28 412.547 418.779 399.212C411.922 392.437 405.406 385.024 398.847 376.503C391.564 367.045 384.579 357.714 379.255 347.191C372.824 334.452 368.863 320.903 365.498 308.207C364.859 305.778 364.22 303.307 363.582 300.751C360.984 290.611 358.3 280.087 354.212 270.118C335.174 223.379 307.107 192.32 257.361 162.923C208.765 134.164 156.464 118.996 110.125 120.104C106.122 120.189 102.502 120.36 99.0944 120.488C84.9543 121.084 73.7957 121.51 46.9636 117.889C-7.38187 111.498 -32.851 117.292 -43.2005 119.635C-118.501 137.359 -163.774 184.779 -168.076 250.562C-170.589 307.525 -147.803 358.183 -100.187 398.871C-80.1691 415.87 -64.7087 423.071 -46.267 429.248C-27.3994 435.511 -1.37664 440.539 31.1625 444.203C45.0896 445.737 58.9742 447.611 73.5827 449.912C268.051 480.503 310.386 557.49 347.738 625.489C359.152 646.28 369.928 665.878 384.451 684.028C398.463 701.582 414.094 714.662 430.917 722.842C446.165 730.212 462.051 733.962 478.235 733.962C480.024 733.962 481.813 733.919 483.644 733.834C487.903 733.621 492.205 733.11 496.379 732.343C517.291 728.551 536.286 718.453 551.235 703.116C568.016 685.946 578.366 663.578 581.134 638.526C584.2 610.875 577.769 580.54 562.479 550.759L562.564 550.801ZM579.217 638.355C576.492 662.981 566.312 684.923 549.873 701.752C535.179 716.792 516.609 726.676 496.081 730.425C491.949 731.15 487.776 731.661 483.559 731.874C465.969 732.811 448.465 729.147 431.854 721.095C415.287 713.043 399.911 700.133 386.069 682.835C371.674 664.813 360.941 645.257 349.527 624.509C311.962 556.17 269.371 478.671 73.9234 447.952C59.2723 445.651 45.3452 443.777 31.3755 442.2C-0.993308 438.579 -26.9309 433.594 -45.6282 427.331C-63.8569 421.239 -79.1043 414.124 -98.8663 397.337C-145.971 357.075 -168.544 306.929 -166.074 250.647C-161.773 185.887 -117.095 139.064 -42.7746 121.595C-36.0879 120.062 -22.1608 116.909 0.965858 116.909C13.1042 116.909 28.1386 117.718 46.7081 119.891C73.7105 123.555 84.9118 123.087 99.1796 122.49C102.587 122.362 106.164 122.192 110.168 122.107C156.166 120.999 208.041 136.081 256.339 164.627C305.658 193.811 333.47 224.572 352.338 270.842C356.341 280.684 359.024 291.122 361.622 301.219C362.261 303.776 362.9 306.289 363.539 308.675C366.904 321.5 370.907 335.133 377.423 348.043C382.79 358.694 389.86 368.11 397.185 377.653C403.83 386.217 410.389 393.716 417.288 400.575C430.875 413.996 445.1 425.457 460.177 437.599C495.442 466.017 531.857 495.372 560.733 551.611C575.853 581.051 582.199 611.003 579.175 638.27L579.217 638.355Z" fill="url(#paint2_linear_1303_817)"/>
<path d="M560.942 551.348C535.814 493.703 499.995 460.897 465.369 429.199L465.156 429.028C455.786 420.465 446.118 411.603 436.791 402.357C430.828 396.435 424.652 389.618 417.455 380.927C416.219 379.393 414.899 377.902 413.579 376.283L413.11 375.729C406.424 367.805 399.481 359.624 394.541 350.251C387.386 336.66 384.064 321.663 381.508 307.475C381.125 305.345 380.784 303.215 380.401 301.042C378.399 289.198 376.312 276.927 371.286 265.509C361.193 242.63 348.415 223.713 332.273 207.779C317.196 192.91 299.053 180.256 275.117 167.943C233.676 146.64 187.551 135.35 141.681 135.35C134.653 135.265 126.987 136.415 118.895 137.565C103.605 139.738 81.7135 141.144 63.4847 136.671C48.8336 133.092 19.7017 126.019 -15.2651 128.618C-69.0143 134.796 -98.9555 159.678 -114.629 179.489C-137.287 208.12 -142.653 240.968 -140.141 262.143C-133.241 321.28 -95.9316 374.707 -35.0697 412.583C-2.14726 433.076 66.5087 444.409 67.1901 444.537C77.2841 446.369 87.7188 448.243 98.7923 450.502C265.662 484.117 308.082 553.18 345.562 614.149C357.913 634.258 369.583 653.218 385.001 670.643C398.97 686.365 413.749 697.783 429.039 704.557C443.563 710.99 458.597 714.271 473.717 714.271C475.505 714.271 477.337 714.228 479.126 714.143C483.427 713.93 487.686 713.419 491.903 712.652C511.75 709.031 529.766 699.657 544.034 685.47C559.281 670.302 569.247 650.576 572.74 628.464C576.615 604.008 572.697 578.062 561.027 551.348H560.942ZM570.653 628.123C567.203 649.809 557.492 669.152 542.5 684.021C528.573 697.868 510.898 707.071 491.434 710.65C487.346 711.416 483.129 711.885 478.913 712.098C462.345 712.993 445.692 709.797 429.721 702.682C414.729 696.036 400.12 684.788 386.363 669.237C371.073 651.982 359.446 633.065 347.138 613.041C309.488 551.732 266.812 482.285 99.0904 448.499C88.0169 446.284 77.5396 444.366 67.4457 442.534C66.7642 442.406 -1.50836 431.116 -34.0901 410.879C-94.4409 373.343 -131.409 320.427 -138.224 261.93C-140.694 241.139 -135.37 208.887 -113.138 180.767C-90.9911 152.775 -57.1316 135.435 -15.1373 130.621C-9.30244 130.195 -3.76565 129.982 1.51557 129.982C27.4106 129.982 50.9205 135.648 62.9737 138.631C81.5431 143.189 103.69 141.783 119.151 139.568C127.2 138.417 134.866 137.395 141.638 137.395C187.168 137.395 232.995 148.6 274.18 169.732C297.903 181.918 315.919 194.486 330.825 209.228C346.797 224.992 359.446 243.695 369.412 266.361C374.31 277.524 376.397 289.666 378.399 301.425C378.782 303.598 379.123 305.771 379.506 307.901C382.062 322.259 385.469 337.427 392.752 351.231C397.778 360.775 404.763 369.083 411.534 377.05L412.003 377.604C413.366 379.18 414.644 380.714 415.879 382.248C423.119 391.024 429.337 397.841 435.343 403.806C444.712 413.094 454.381 421.956 463.75 430.52L463.963 430.69C498.462 462.261 534.11 494.896 559.068 552.158C570.567 578.53 574.443 604.094 570.61 628.166L570.653 628.123Z" fill="url(#paint3_linear_1303_817)"/>
<path d="M463.536 674.476C450.717 674.476 437.727 672.218 424.907 667.787C412.13 663.356 399.693 655.687 385.766 643.629C366.515 626.971 351.651 607.884 335.935 587.689C299.648 541.121 258.591 488.376 148.878 451.565L147.941 451.224C91.6785 432.35 54.5396 419.866 10.0751 375.898C1.34401 367.291 -7.68518 359.111 -16.4162 351.186C-35.0709 334.315 -52.6182 318.423 -65.5231 300.017C-68.036 296.396 -70.3784 292.689 -72.508 289.196C-83.7093 270.833 -88.4368 248.635 -85.4981 228.355C-81.7927 202.877 -66.3323 181.021 -40.778 165.086C-23.3159 154.222 -4.27795 148.939 17.4432 148.939C34.735 148.939 51.5582 152.305 64.2502 155.245C75.3238 157.801 84.7362 162.828 93.8506 167.643C101.943 171.946 110.291 176.377 119.959 179.189C124.133 180.424 128.647 181.063 133.332 181.063C145.768 181.063 157.609 176.845 168.086 173.181C174.091 171.051 179.245 169.219 183.717 168.452C198.709 165.853 213.913 164.575 228.99 164.575C257.27 164.575 284.656 169.091 310.466 178.038C356.847 194.101 386.107 218.258 405.315 256.39C412.087 269.81 412.641 284.893 413.152 299.464V300.103C413.237 302.148 413.322 304.108 413.407 306.025C414.174 322.044 416.176 340.535 425.077 356.427C430.401 365.885 438.323 373.639 445.989 381.138C448.715 383.78 451.781 386.805 454.592 389.787L457.19 392.556C462.472 398.138 467.455 403.421 472.693 408.618C495.352 431.114 512.09 451.565 525.378 473.08C540.625 497.791 551.188 523.781 557.576 552.582C561.921 572.138 561.367 590.884 556 608.267C550.975 624.5 541.69 638.985 529.168 650.148C512.771 664.762 492.029 673.155 469.158 674.348C467.284 674.433 465.368 674.518 463.451 674.518L463.536 674.476ZM17.4858 150.984C-3.85201 150.984 -22.5493 156.182 -39.6707 166.833C-64.7139 182.427 -79.8762 203.815 -83.4538 228.696C-86.3499 248.55 -81.7075 270.236 -70.7192 288.216C-68.5896 291.667 -66.3324 295.373 -63.8195 298.952C-51.085 317.187 -33.5802 332.994 -15.0959 349.738C-6.27971 357.705 2.74948 365.885 11.5231 374.534C55.6469 418.162 92.6155 430.603 148.622 449.392L149.559 449.733C259.826 486.757 301.139 539.758 337.554 586.496C353.227 606.648 368.049 625.65 387.129 642.181C400.843 654.068 413.067 661.609 425.588 665.955C440.069 670.982 454.805 673.155 469.158 672.388C491.561 671.195 511.877 663.015 527.933 648.699C540.199 637.75 549.271 623.605 554.212 607.713C559.493 590.671 560.004 572.266 555.745 553.051C549.399 524.505 538.964 498.686 523.802 474.188C510.599 452.8 493.946 432.435 471.416 410.067C466.134 404.827 461.151 399.544 455.87 393.962L453.272 391.193C450.504 388.253 447.437 385.271 444.711 382.629C436.917 375.045 428.868 367.163 423.416 357.449C414.302 341.174 412.257 322.385 411.491 306.153C411.406 304.235 411.32 302.233 411.235 300.23V299.591C410.682 285.233 410.128 270.407 403.569 257.37C384.616 219.706 355.74 195.847 309.87 179.998C284.273 171.136 257.1 166.663 229.033 166.663C214.084 166.663 198.964 167.984 184.1 170.54C179.798 171.264 174.687 173.096 168.81 175.184C158.205 178.933 146.152 183.194 133.375 183.194C128.519 183.194 123.834 182.555 119.448 181.276C109.609 178.379 101.176 173.906 92.9988 169.56C84.0122 164.788 74.7275 159.846 63.9095 157.332C51.3027 154.392 34.6498 151.069 17.5284 151.069L17.4858 150.984Z" fill="url(#paint4_linear_1303_817)"/>
<path d="M556.802 552.92C552.543 524.673 544.111 499.152 530.993 474.825C518.727 452.031 502.585 430.898 481.758 410.192C477.669 406.145 473.495 401.842 469.449 397.666L463.913 392C460.931 388.975 457.779 385.992 454.628 383.01C446.578 375.469 438.23 367.63 432.736 357.958C423.324 341.385 421.705 322.212 421.407 305.639C421.365 303.423 421.322 301.208 421.322 298.694C421.152 283.569 420.981 267.933 413.826 254.129C403.902 234.957 391.168 219.704 374.941 207.476C359.864 196.1 341.678 187.324 319.318 180.592C297.639 174.073 274.683 170.793 251.045 170.793C232.646 170.793 213.991 172.838 195.592 176.8C191.418 177.695 186.563 179.697 180.941 181.998C170.08 186.429 157.729 191.456 144.697 191.456C139.926 191.456 135.327 190.732 131.068 189.369C121.187 186.173 112.711 181.061 104.534 176.076C95.5896 170.665 86.3901 165.041 75.3165 162.059C60.4524 158.011 37.3258 153.751 17.9045 154.049C0.655367 154.347 -15.6142 159.46 -31.8412 169.77C-43.6813 177.269 -53.2216 186.173 -60.1213 196.143C-66.4247 205.175 -70.5985 215.188 -72.5577 225.839C-76.7742 248.761 -70.4708 274.281 -55.6493 294.093C-53.2217 297.373 -50.581 300.824 -47.6849 304.233C-35.291 318.932 -19.7881 331.585 -3.30553 345.049C8.36427 354.592 20.46 364.519 32.002 375.639C74.5073 416.668 109.261 431.836 161.435 451.903C256.284 488.458 296.276 536.901 331.541 579.676C348.748 600.51 364.975 620.194 386.057 636.98C399.814 647.93 411.824 654.832 423.963 658.667C436.271 662.586 448.622 664.589 460.633 664.589C462.55 664.589 464.466 664.546 466.383 664.418C470.983 664.163 475.625 663.609 480.182 662.799C497.218 659.646 512.934 652.233 525.626 641.411C550.712 619.981 562.084 587.771 556.845 552.963L556.802 552.92ZM524.263 639.835C511.827 650.444 496.409 657.687 479.756 660.754C475.284 661.564 470.727 662.118 466.212 662.331C452.583 663.055 438.529 661.138 424.474 656.664C412.591 652.872 400.751 646.098 387.207 635.319C366.295 618.66 350.111 599.062 332.989 578.313C297.554 535.367 257.391 486.669 162.031 449.943C110.07 429.919 75.4869 414.836 33.2797 374.106C21.6951 362.943 9.59937 353.016 -2.1982 343.387C-18.5104 330.052 -33.9281 317.398 -46.2368 302.869C-49.0478 299.504 -51.6884 296.053 -54.1161 292.815C-68.5968 273.429 -74.7724 248.505 -70.6411 226.095C-68.7246 215.742 -64.6785 205.985 -58.5454 197.166C-51.7736 187.409 -42.4463 178.717 -30.819 171.347C-14.8902 161.249 2.01825 156.222 18.8841 155.924C37.6239 155.924 60.495 160.056 74.7203 163.891C85.4957 166.831 94.61 172.369 103.469 177.738C111.731 182.765 120.25 187.963 130.386 191.201C134.901 192.649 139.671 193.374 144.654 193.374C158.07 193.374 170.592 188.261 181.665 183.745C187.202 181.487 191.972 179.527 195.975 178.675C214.247 174.713 232.774 172.71 251.045 172.71C274.47 172.71 297.213 175.991 318.721 182.424C340.868 189.071 358.884 197.762 373.748 208.967C389.72 221.025 402.241 236.064 412.037 254.981C418.979 268.359 419.15 283.74 419.278 298.822C419.278 301.165 419.32 303.381 419.363 305.596C419.661 322.425 421.322 341.896 430.947 358.853C436.612 368.822 445.045 376.747 453.307 384.501C456.374 387.356 459.483 390.296 462.422 393.321L467.959 398.987C472.005 403.162 476.179 407.466 480.267 411.513C500.966 432.091 516.98 453.096 529.161 475.677C542.151 499.791 550.499 525.099 554.715 553.133C559.869 587.26 548.71 618.831 524.178 639.75L524.263 639.835Z" fill="url(#paint5_linear_1303_817)"/>
<path d="M555.996 553.258C552.248 498.638 530.314 451.006 490.79 411.723C488.064 408.997 485.295 406.227 482.484 403.415C479.46 400.39 476.394 397.28 473.285 394.17C470.133 391.06 466.768 387.992 463.404 384.967C454.928 377.341 446.155 369.416 440.405 359.447C430.481 342.191 429.331 321.4 429.417 305.21C429.417 302.952 429.417 300.737 429.502 298.138C429.715 283.098 430.013 266.056 422.389 251.826C403.436 216.378 373.538 194.564 328.179 183.103C290.486 173.56 248.364 174.241 207.478 185.063C203.687 186.086 199.13 188.173 193.849 190.602C183.158 195.544 169.913 201.679 155.986 201.679C151.173 201.679 146.531 200.912 142.229 199.421C132.092 195.885 123.574 190.048 115.354 184.424C106.581 178.417 97.5088 172.196 86.3927 168.745C70.3787 163.803 50.8722 158.733 31.4935 158.562C11.6889 158.562 -6.412 163.718 -22.8519 174.326C-44.8286 188.514 -58.0317 207.857 -61.0131 230.267C-64.761 258.472 -51.9839 284.163 -38.7808 298.862C-36.1828 301.716 -33.1163 305.082 -29.8794 308.32C-17.9541 320.079 -4.06957 330.219 10.7093 340.913C25.1049 351.394 39.969 362.216 53.8535 375.253C93.8886 412.916 125.661 430.725 173.916 452.198C253.688 487.731 291.935 531.743 325.666 570.556C344.747 592.498 362.762 613.247 386.23 630.289C399.731 640.088 411.401 646.223 422.9 649.546C434.57 652.912 446.325 654.616 457.824 654.616C459.826 654.616 461.871 654.574 463.83 654.446C485.764 653.296 505.909 645.754 522.051 632.717C545.774 613.545 558.125 584.658 555.996 553.344V553.258ZM520.773 631.056C504.93 643.837 485.21 651.208 463.702 652.358C450.584 653.04 436.955 651.421 423.411 647.501C412.125 644.263 400.668 638.213 387.38 628.585C364.083 611.67 346.152 591.007 327.157 569.15C293.297 530.166 254.881 485.984 174.683 450.281C126.683 428.893 94.996 411.17 55.1738 373.719C41.2042 360.554 26.2549 349.69 11.8167 339.209C-2.8344 328.558 -16.7189 318.46 -28.5165 306.829C-31.7534 303.634 -34.7773 300.31 -37.3753 297.456C-50.2802 283.141 -62.8018 258.003 -59.1391 230.48C-56.2429 208.666 -43.338 189.835 -21.8724 175.945C-5.77316 165.55 11.9871 160.522 31.3658 160.522C50.4889 160.693 69.825 165.72 85.6687 170.62C96.4867 173.986 105.431 180.121 114.119 186.043C122.424 191.752 131.028 197.632 141.42 201.296C145.934 202.872 150.79 203.682 155.858 203.682C170.211 203.682 183.712 197.461 194.573 192.434C199.769 190.048 204.241 187.96 207.903 186.98C248.492 176.244 290.231 175.562 327.625 185.02C372.345 196.353 401.903 217.869 420.558 252.763C427.926 266.567 427.67 283.311 427.457 298.095C427.457 300.694 427.372 302.952 427.372 305.21C427.287 321.656 428.48 342.788 438.616 360.469C444.494 370.694 453.395 378.704 462.084 386.544C465.32 389.483 468.685 392.508 471.794 395.576C474.903 398.644 478.012 401.754 480.994 404.779C483.805 407.591 486.573 410.403 489.299 413.087C528.482 452.028 550.203 499.192 553.909 553.344C555.996 583.977 543.9 612.267 520.688 631.013L520.773 631.056Z" fill="url(#paint6_linear_1303_817)"/>
<path d="M454.54 644.521C443.892 644.521 432.904 643.072 421.873 640.26C410.757 637.406 399.811 632.208 386.437 623.474C359.733 606.006 339.417 583.595 317.909 559.864C286.52 525.183 250.914 485.944 186.347 452.371C142.01 429.321 113.049 409.041 75.697 374.829C59.8108 360.258 42.3912 349.181 25.568 338.444C12.0668 329.838 -0.667785 321.743 -12.082 312.284C-15.0208 309.856 -18.1725 307.086 -21.9631 303.508C-40.8307 285.954 -51.7338 258.9 -49.6895 234.572C-47.8155 212.204 -35.4642 192.904 -13.9986 178.802C2.05802 168.236 19.222 163.123 38.4729 163.123C59.0015 163.123 78.8913 169.003 97.333 175.393C108.534 179.27 117.478 186.13 126.167 192.776C134.387 199.082 142.862 205.558 153.254 209.478C157.684 211.139 162.411 211.991 167.352 211.991C181.833 211.991 195.589 204.919 206.62 199.21C211.561 196.653 215.862 194.438 219.312 193.373C244.441 185.448 269.739 181.443 294.527 181.443C309.093 181.443 323.361 182.849 336.99 185.661C358.881 190.135 376.94 197.207 392.145 207.22C408.414 217.956 421.064 231.803 430.859 249.569C438.952 264.268 438.27 281.992 437.631 297.628C437.546 300.27 437.418 302.57 437.376 304.871C436.865 321.657 437.674 343.173 448.023 361.025C453.986 371.293 463.228 379.302 472.13 387.057C475.452 389.911 479.157 393.149 482.522 396.387C488.527 402.139 494.362 407.891 499.728 413.259C518.596 432.005 532.906 453.819 542.319 478.062C551.518 501.708 555.777 527.143 555.096 553.601C554.372 581.294 541.041 606.9 518.553 623.857C506.202 633.188 491.295 639.621 475.409 642.561C470.596 643.456 465.656 644.009 460.758 644.265C458.671 644.393 456.584 644.436 454.497 644.436L454.54 644.521ZM38.5155 165.125C19.6904 165.125 2.86719 170.153 -12.8487 180.506C-33.8032 194.268 -45.8138 213.056 -47.6452 234.785C-49.6469 258.516 -38.9993 284.932 -20.5576 302.059C-16.767 305.595 -13.6579 308.365 -10.7617 310.751C0.56733 320.124 13.2167 328.176 26.6327 336.697C43.5838 347.476 61.0459 358.639 77.1025 373.295C114.327 407.379 143.203 427.617 187.327 450.539C252.235 484.282 287.926 523.692 319.443 558.458C340.866 582.104 361.096 604.429 387.587 621.727C400.79 630.333 411.523 635.446 422.426 638.258C435.416 641.581 448.279 642.944 460.715 642.305C465.571 642.05 470.426 641.496 475.111 640.601C490.699 637.704 505.35 631.398 517.446 622.238C539.423 605.665 552.455 580.613 553.179 553.516C553.903 527.271 549.644 502.134 540.53 478.743C531.245 454.757 517.063 433.198 498.408 414.665C492.999 409.297 487.207 403.545 481.201 397.793C477.879 394.598 474.174 391.36 470.894 388.548C461.823 380.666 452.453 372.528 446.362 362.005C435.715 343.684 434.948 321.828 435.417 304.786C435.459 302.485 435.587 300.184 435.672 297.756C436.311 282.162 436.992 264.694 429.156 250.507C419.53 233.038 407.094 219.405 391.08 208.881C376.088 198.997 358.243 192.009 336.607 187.579C323.105 184.809 308.965 183.403 294.527 183.403C269.952 183.403 244.867 187.365 219.909 195.247C216.629 196.27 212.413 198.443 207.557 200.957C196.313 206.751 182.344 213.994 167.352 213.994C162.198 213.994 157.215 213.099 152.53 211.352C141.883 207.347 133.279 200.744 124.932 194.353C116.414 187.834 107.555 181.06 96.6515 177.268C78.3802 170.962 58.7034 165.125 38.4303 165.125H38.5155Z" fill="url(#paint7_linear_1303_817)"/>
<path d="M451.257 634.514C441.333 634.514 431.111 633.364 420.89 631.063C410.242 628.677 399.722 624.246 386.69 616.748C355.598 598.726 332.429 573.759 307.94 547.301C280 517.136 248.355 483.009 198.865 452.589C158.788 427.963 131.615 404.658 97.6276 374.408C79.9525 358.687 60.1905 347.823 41.0674 337.299C28.5883 330.44 16.7908 323.964 5.80241 316.337C2.39517 313.994 -1.13986 311.353 -5.05819 308.242C-14.7262 300.659 -23.3295 289.965 -29.2496 278.206C-35.6808 265.424 -38.8325 251.833 -38.3214 238.923C-37.4696 216.598 -25.9275 197.383 -4.97299 183.366C10.7429 172.843 27.5236 167.73 46.2634 167.73C67.8994 167.73 88.9392 174.632 108.446 182.045C119.732 186.349 128.591 193.847 137.152 201.09C145.372 208.035 153.847 215.235 164.452 219.495C169.009 221.327 173.865 222.265 178.89 222.265C193.967 222.265 208.15 214.17 219.522 207.651C224.121 205.01 228.082 202.752 231.234 201.601C259.599 191.12 287.965 185.837 315.606 185.837C325.913 185.837 336.092 186.604 345.888 188.095C390.139 194.912 420.762 214.255 439.459 247.189C448.02 262.314 446.87 280.719 445.89 296.952C445.72 299.551 445.592 301.979 445.464 304.408C444.57 321.748 444.953 344.031 455.771 362.479C461.99 373.088 471.7 381.225 481.113 389.15C484.775 392.218 488.481 395.328 491.931 398.523C498.021 404.147 503.515 409.473 508.839 414.756C545.084 450.885 561.694 501.585 554.326 553.947C550.961 578.062 536.736 600.387 515.398 615.214C499.043 626.547 479.196 633.108 458.029 634.258C455.857 634.386 453.599 634.429 451.299 634.429L451.257 634.514ZM46.1782 169.775C27.8217 169.775 11.4244 174.76 -3.95079 185.07C-24.3517 198.704 -35.5956 217.365 -36.4048 239.051C-36.8733 251.62 -33.8068 264.87 -27.546 277.354C-21.7537 288.9 -13.3633 299.295 -3.90823 306.751C0.010102 309.819 3.50252 312.418 6.86717 314.761C17.7703 322.345 29.5254 328.778 41.9618 335.638C61.1701 346.204 81.0599 357.111 98.9053 373.003C132.85 403.167 159.938 426.43 199.887 450.97C249.591 481.561 281.363 515.773 309.345 545.98C333.792 572.353 356.834 597.234 387.669 615.086C400.489 622.499 410.881 626.888 421.273 629.188C431.367 631.446 441.418 632.597 451.214 632.597C453.429 632.597 455.644 632.554 457.816 632.426C478.642 631.319 498.106 624.885 514.163 613.765C535.075 599.279 548.959 577.466 552.239 553.862C559.479 502.139 543.124 452.035 507.306 416.375C502.025 411.092 496.488 405.809 490.44 400.185C486.99 396.989 483.328 393.922 479.75 390.897C470.167 382.844 460.286 374.536 453.897 363.672C442.781 344.755 442.398 322.089 443.292 304.493C443.42 302.065 443.548 299.636 443.718 297.037C444.698 281.06 445.848 262.953 437.585 248.382C419.186 216.002 389.075 196.957 345.462 190.268C335.794 188.777 325.7 188.01 315.478 188.01C288.092 188.01 259.94 193.293 231.788 203.646C228.806 204.754 224.888 206.969 220.416 209.526C208.789 216.172 194.351 224.395 178.763 224.395C173.481 224.395 168.37 223.415 163.558 221.498C152.697 217.11 144.051 209.824 135.746 202.794C127.313 195.636 118.582 188.266 107.636 184.09C88.3003 176.72 67.4735 169.903 46.1782 169.903V169.775Z" fill="url(#paint8_linear_1303_817)"/>
<path d="M447.769 624.584C438.698 624.584 429.328 623.689 419.872 621.9C409.608 619.982 399.429 616.318 386.95 610.013C350.067 591.479 323.533 562.678 295.466 532.13C271.317 505.885 246.316 478.746 211.307 452.799C188.223 435.714 169.781 419.013 150.232 401.374C140.479 392.555 130.385 383.438 119.482 374.064C100.273 357.534 78.3391 347.266 57.1716 337.339C45.4166 331.843 34.3004 326.602 23.6102 320.424C19.7345 318.166 15.8587 315.738 11.77 313.011C1.07982 305.896 -8.63078 295.33 -15.6156 283.273C-23.069 270.363 -27.0725 256.516 -27.1577 243.224C-27.2429 227.715 -21.919 205.518 3.89084 187.964C19.3938 177.398 35.7911 172.286 54.0198 172.286C56.703 172.286 59.4715 172.413 62.2398 172.626C82.3 174.245 102.403 181.744 119.396 188.817C130.811 193.546 139.542 201.683 148.017 209.565C156.195 217.192 164.67 225.031 175.445 229.632C180.045 231.592 184.943 232.572 190.054 232.572C206.068 232.572 221.23 223.071 232.304 216.127C236.52 213.485 240.183 211.184 243.037 209.991C280.601 193.972 319.7 187.155 354.666 190.734C398.066 195.165 429.413 213.4 447.94 245.013C457.012 260.521 455.393 279.608 453.988 296.48C453.775 299.122 453.562 301.635 453.391 304.149C452.114 322.086 452.071 345.093 463.357 364.18C469.831 375.13 480.095 383.48 490.019 391.533C493.81 394.6 497.643 397.71 501.178 400.906C507.992 406.998 513.103 411.813 517.788 416.499C535.591 434.223 548.24 456.634 554.373 481.345C560.379 505.417 560.038 530.724 553.394 554.541C547.176 576.781 530.565 596.805 507.822 609.544C492.191 618.278 473.877 623.433 454.925 624.456C452.582 624.584 450.154 624.626 447.727 624.626L447.769 624.584ZM54.0198 174.288C36.217 174.288 20.1604 179.316 4.99817 189.626C-20.0877 206.711 -25.2837 228.184 -25.1985 243.224C-25.1133 256.176 -21.2376 269.681 -13.9546 282.293C-7.14012 294.094 2.35756 304.405 12.7922 311.349C16.8383 314.034 20.7141 316.462 24.5472 318.678C35.1522 324.855 46.2258 330.011 57.9808 335.507C79.3187 345.476 101.338 355.829 120.759 372.531C131.705 381.946 141.799 391.064 151.552 399.883C171.059 417.522 189.5 434.181 212.499 451.223C247.679 477.297 272.722 504.479 296.914 530.809C324.853 561.187 351.259 589.903 387.802 608.266C400.153 614.444 410.119 618.065 420.213 619.982C432.011 622.198 443.723 623.05 454.797 622.454C473.451 621.474 491.425 616.404 506.842 607.797C529.117 595.357 545.387 575.758 551.435 554.029C557.994 530.554 558.334 505.587 552.414 481.856C546.324 457.528 533.887 435.416 516.34 417.948C511.655 413.304 506.587 408.49 499.815 402.44C496.323 399.287 492.489 396.177 488.784 393.152C478.69 384.929 468.255 376.493 461.611 365.245C450.027 345.732 450.027 322.299 451.347 304.064C451.517 301.55 451.73 299.037 451.943 296.395C453.349 279.821 454.925 261.075 446.151 246.121C428.007 215.104 397.129 197.167 354.411 192.821C319.785 189.328 280.985 196.017 243.761 211.951C241.035 213.102 237.457 215.36 233.326 217.959C222.039 225.031 206.622 234.702 190.054 234.702C184.688 234.702 179.492 233.637 174.636 231.592C163.52 226.863 154.917 218.853 146.612 211.142C138.264 203.388 129.661 195.42 118.587 190.776C101.721 183.746 81.8315 176.333 62.0269 174.757C59.3437 174.544 56.6179 174.416 53.9773 174.416L54.0198 174.288Z" fill="url(#paint9_linear_1303_817)"/>
<path d="M443.638 614.568C435.546 614.568 427.198 613.929 418.893 612.693C408.969 611.202 398.875 608.22 387.206 603.277C342.869 584.531 312.885 550.149 281.155 513.764C263.65 493.697 245.592 472.99 223.786 452.966C211.179 441.377 199.85 429.874 188.947 418.754C173.486 402.99 158.878 388.121 141.416 373.635C120.887 356.593 96.9512 347.177 73.8245 338.059C63.0491 333.799 51.8904 329.41 41.4557 324.383C37.0689 322.253 32.7673 319.995 28.636 317.651C16.9236 311.047 6.02042 300.609 -2.02919 288.254C-10.5473 275.216 -15.4026 261.071 -15.9989 247.352C-16.6803 231.887 -12.2509 209.86 12.8775 192.434C31.0211 179.908 50.3146 174.923 72.3765 177.224C92.6496 179.312 112.284 187.194 130.47 195.417C142.012 200.614 150.658 209.349 159.006 217.827C167.183 226.092 175.616 234.613 186.604 239.598C191.332 241.729 196.357 242.836 201.596 242.836C218.206 242.836 233.795 232.185 245.166 224.388C248.999 221.747 252.321 219.489 254.919 218.21C291.547 200.274 329.283 191.582 363.525 193.201C384.309 194.181 402.666 198.74 418.041 206.664C434.14 214.972 447.088 227.115 456.458 242.666C466.041 258.558 463.954 278.327 462.165 295.795V296.05C461.867 298.777 461.611 301.248 461.398 303.677C459.737 322.21 459.311 345.984 471.066 365.625C477.881 377.001 488.699 385.522 499.176 393.787C503.009 396.812 506.97 399.922 510.548 403.032C515.914 407.676 521.579 412.704 526.86 417.987C544.45 435.54 556.247 458.078 560.89 483.045C565.49 507.628 562.508 533.149 552.542 554.92C543.854 573.922 526.775 590.368 504.542 601.147C488.571 608.901 470.896 613.332 451.901 614.312C449.175 614.44 446.407 614.525 443.681 614.525L443.638 614.568ZM62.1547 178.758C44.6926 178.758 28.8915 183.785 13.9423 194.138C-10.4621 211.01 -14.7638 232.355 -14.0823 247.31C-13.486 260.645 -8.75853 274.449 -0.41079 287.188C7.46846 299.246 18.1161 309.471 29.573 315.947C33.6617 318.248 37.9633 320.506 42.3075 322.593C52.6996 327.621 63.8157 331.967 74.5486 336.227C97.803 345.387 121.867 354.846 142.693 372.101C160.241 386.672 174.892 401.541 190.352 417.305C201.298 428.468 212.584 439.929 225.149 451.475C247.04 471.542 265.141 492.333 282.646 512.4C314.248 548.615 344.104 582.827 388.015 601.403C399.557 606.26 409.438 609.242 419.234 610.691C430.222 612.352 441.125 612.906 451.815 612.31C470.513 611.33 487.975 606.942 503.691 599.315C525.497 588.706 542.235 572.644 550.711 554.026C560.506 532.638 563.403 507.543 558.931 483.343C554.331 458.76 542.789 436.605 525.454 419.308C520.216 414.067 514.551 409.082 509.227 404.438C505.692 401.371 501.732 398.261 497.941 395.278C487.293 386.928 476.305 378.279 469.32 366.562C457.267 346.41 457.693 322.253 459.397 303.421C459.609 300.95 459.865 298.479 460.163 295.752V295.496C461.995 278.369 463.996 258.941 454.754 243.603C445.555 228.35 432.905 216.506 417.147 208.326C402.027 200.487 383.926 196.056 363.44 195.076C329.581 193.499 292.101 202.148 255.814 219.915C253.344 221.108 250.107 223.366 246.316 225.922C234.732 233.847 218.845 244.754 201.596 244.754C196.102 244.754 190.778 243.603 185.795 241.345C174.509 236.232 165.905 227.541 157.6 219.148C149.338 210.797 140.819 202.191 129.661 197.163C111.602 189.026 92.1385 181.229 72.1635 179.141C68.7988 178.8 65.4768 178.63 62.2399 178.63L62.1547 178.758Z" fill="url(#paint10_linear_1303_817)"/>
<path d="M439.178 604.689C432.194 604.689 425.038 604.306 417.968 603.539C408.173 602.474 398.206 600.173 387.559 596.594C333.767 578.316 301.1 536.009 266.559 491.231C256.806 478.577 246.797 465.625 236.277 453.184C230.74 446.623 225.246 439.892 220.391 433.927L220.221 433.714C202.034 411.431 184.87 390.427 163.32 373.3C141.598 356.044 115.959 347.694 91.1287 339.599C80.5662 336.148 69.7056 332.611 59.3136 328.436C54.5434 326.561 49.901 324.516 45.5142 322.386C18.597 309.434 -2.65562 279.653 -4.9981 251.533C-6.27582 236.196 -2.65567 214.296 21.8339 197.084C40.3182 184.089 59.9524 179.19 82.4828 182.002C102.969 184.558 122.986 193.249 141.513 202.197C153.14 207.82 161.701 217.194 169.964 226.311C178.099 235.258 186.531 244.504 197.69 249.744C202.46 252.002 207.571 253.195 212.895 253.195C230.442 253.195 247.053 240.84 258.041 232.659C261.576 230.06 264.557 227.845 266.815 226.567C302.463 206.713 338.963 196.061 372.397 195.763H373.887C393.777 195.763 411.537 199.385 426.742 206.5C442.884 214.083 455.789 225.502 465.074 240.413C475.167 256.689 472.655 277.139 470.397 295.161V295.502C470.014 298.314 469.716 300.785 469.418 303.299C467.331 322.386 466.522 346.927 478.745 367.164C485.858 378.966 497.315 387.743 508.388 396.179C512.306 399.161 516.267 402.186 519.888 405.254C525.467 409.94 530.919 414.584 535.902 419.569C553.193 436.824 564.48 460.172 567.674 485.266C570.954 511 565.246 535.924 551.617 555.437C540.672 571.073 522.826 584.494 501.361 593.186C485.389 599.662 467.799 603.453 449.059 604.433C445.823 604.604 442.543 604.689 439.264 604.689H439.178ZM70.4723 183.237C53.2657 183.237 37.6776 188.307 22.8986 198.703C-0.781691 215.362 -4.31667 236.536 -3.08154 251.363C-0.824244 278.801 19.9599 307.943 46.2809 320.597C50.6251 322.684 55.2249 324.687 59.995 326.561C70.3445 330.694 81.1625 334.23 91.6397 337.639C116.726 345.819 142.578 354.212 164.555 371.723C186.233 388.978 203.482 410.068 221.754 432.436L221.924 432.649C226.78 438.613 232.274 445.345 237.81 451.864C248.373 464.39 258.382 477.342 268.05 489.868C302.505 534.518 334.96 576.57 388.198 594.677C398.718 598.256 408.513 600.514 418.181 601.536C428.531 602.644 438.966 602.985 448.889 602.431C467.416 601.451 484.793 597.702 500.509 591.311C521.634 582.747 539.181 569.582 549.871 554.244C563.245 535.157 568.824 510.702 565.587 485.479C562.435 460.811 551.362 437.932 534.368 420.975C529.428 416.033 524.019 411.431 518.482 406.787C514.862 403.762 510.944 400.78 507.153 397.883C495.824 389.234 484.239 380.372 476.914 368.229C464.392 347.481 465.201 322.514 467.331 303.086C467.586 300.572 467.927 298.058 468.268 295.247V294.906C470.525 277.182 472.995 257.115 463.242 241.436C454.17 226.822 441.564 215.66 425.762 208.289C410.856 201.302 393.351 197.723 373.759 197.723H372.269C339.218 198.021 303.017 208.587 267.666 228.271C265.494 229.464 262.598 231.637 259.191 234.151C247.947 242.544 230.996 255.112 212.81 255.112C207.188 255.112 201.821 253.877 196.753 251.491C185.211 246.037 176.693 236.664 168.388 227.589C160.211 218.642 151.778 209.397 140.534 203.943C122.135 195.039 102.33 186.475 82.0995 183.919C78.1386 183.408 74.2202 183.152 70.4297 183.152L70.4723 183.237Z" fill="url(#paint11_linear_1303_817)"/>
<path d="M434.016 594.894C428.394 594.894 422.644 594.723 416.937 594.34C378.393 591.826 345.683 576.957 316.977 548.88C291.678 524.126 272.428 492.385 253.815 461.709C232.563 426.688 212.545 393.626 185.16 372.92C162.203 355.537 135.925 348.635 108.113 341.264C97.7638 338.537 87.244 335.768 77.0223 332.445C71.5281 330.655 66.6728 328.909 62.2008 327.076C48.4014 321.453 35.0706 311.227 24.7637 298.318C14.2012 285.153 7.47195 269.943 5.76833 255.585C3.97953 240.332 6.83304 218.646 30.5985 201.646C49.381 188.226 69.3985 183.369 92.3548 186.692C113.139 189.76 133.455 199.175 152.322 208.889C164.077 214.939 172.595 224.994 180.773 234.708C188.908 244.294 197.255 254.179 208.584 259.803C213.482 262.231 218.763 263.509 224.172 263.509C242.401 263.509 259.437 249.833 270.681 240.758C273.79 238.287 276.431 236.157 278.433 234.879C298.11 222.48 318.17 213.022 337.974 206.759C357.268 200.667 375.88 197.684 393.299 198.025C410.719 198.323 426.435 201.859 439.979 208.506C453.906 215.365 465.107 225.335 473.37 238.159C484.017 254.733 480.993 275.865 478.353 294.526C477.927 297.508 477.543 300.235 477.203 302.962C474.733 322.646 473.54 347.911 486.189 368.787C493.643 381.1 505.781 390.09 517.493 398.781C521.454 401.721 525.373 404.618 528.993 407.558C534.317 411.861 539.768 416.292 544.709 421.192C554.036 430.522 561.745 442.452 566.941 455.659C572.094 468.739 574.778 482.884 574.607 496.518C574.352 520.121 565.748 541.211 550.373 555.91C537.128 568.606 518.941 578.831 497.774 585.563C482.015 590.59 464.852 593.615 446.751 594.553C442.577 594.766 438.275 594.894 433.931 594.894H434.016ZM78.8962 187.672C61.9026 187.672 46.4848 192.785 31.8337 203.265C8.83483 219.711 6.06645 240.673 7.81266 255.372C9.47369 269.389 16.0326 284.216 26.3821 297.082C36.5187 309.736 49.5087 319.706 63.0099 325.202C67.4393 326.991 72.2521 328.738 77.6611 330.485C87.8402 333.808 98.3175 336.577 108.454 339.219C136.649 346.632 163.098 353.62 186.352 371.258C213.993 392.177 234.139 425.41 255.477 460.602C274.003 491.192 293.212 522.805 318.34 547.389C346.705 575.125 378.989 589.824 417.065 592.252C427.116 592.891 437.21 592.976 446.751 592.465C464.681 591.528 481.675 588.503 497.263 583.561C518.132 576.914 536.063 566.817 549.096 554.333C564.087 540.018 572.478 519.44 572.733 496.39C572.904 483.012 570.263 469.123 565.195 456.256C560.084 443.304 552.545 431.587 543.388 422.47C538.533 417.613 533.081 413.224 527.843 408.964C524.265 406.067 520.347 403.17 516.599 400.358C504.588 391.453 492.28 382.336 484.613 369.682C471.623 348.294 472.859 322.603 475.329 302.578C475.67 299.852 476.053 297.125 476.479 294.228C479.119 275.822 482.058 255.074 471.794 239.139C463.744 226.613 452.798 216.899 439.212 210.21C425.924 203.691 410.506 200.198 393.385 199.942C376.135 199.644 357.779 202.584 338.698 208.591C319.064 214.811 299.174 224.185 279.625 236.498C277.709 237.691 275.111 239.821 272.044 242.249C260.545 251.495 243.21 265.427 224.258 265.427C218.508 265.427 212.971 264.106 207.775 261.55C196.105 255.755 187.587 245.7 179.325 235.944C171.232 226.358 162.842 216.473 151.47 210.594C132.731 200.922 112.585 191.592 92.0993 188.609C87.5847 187.928 83.1127 187.629 78.8536 187.629L78.8962 187.672Z" fill="url(#paint12_linear_1303_817)"/>
<path d="M476.011 724.153C460.338 724.153 444.878 720.659 429.971 713.715C413.957 706.259 398.709 694.031 384.74 677.33C369.833 659.563 358.632 640.306 346.792 619.898C309.355 555.436 266.977 482.368 86.2228 450.201C77.9602 448.752 69.9958 447.516 62.3295 446.324C57.8575 445.642 53.4707 444.96 49.1264 444.236C-32.6474 430.943 -54.113 415.562 -63.3125 409.001C-110.162 375.471 -138.102 345.818 -151.475 285.02C-163.741 229.292 -132.905 165.853 -81.2857 140.588C-21.8719 111.488 39.288 124.611 46.0599 126.187C78.088 133.686 91.9299 132.152 108.029 130.405C113.608 129.809 119.401 129.169 126.386 128.829C171.319 126.613 218.424 138.926 266.296 165.427C290.487 178.805 308.758 192.268 323.793 207.819C339.977 224.52 352.754 244.161 362.763 267.807C367.278 278.459 369.705 289.834 372.005 300.826L372.133 301.338C372.601 303.468 373.07 305.683 373.539 307.856C376.477 321.277 380.097 335.55 386.912 348.715C392.023 358.599 399.093 367.418 405.907 375.897L408.122 378.666C414.937 387.187 421.368 394.43 427.756 400.736C439.469 412.324 451.99 423.104 464.129 433.542C498.84 463.451 534.744 494.382 561.746 551.005C575.119 579.082 580.358 607.585 576.908 633.489C573.757 657.092 563.62 678.097 547.563 694.287C532.955 709.028 514.471 718.785 494.07 722.491C489.896 723.258 485.594 723.727 481.378 723.982C479.589 724.068 477.8 724.11 476.011 724.11V724.153ZM3.59716 123.886C-19.9554 123.886 -50.4076 127.678 -80.4339 142.42C-131.244 167.301 -161.611 229.761 -149.558 284.636C-136.313 344.795 -108.629 374.193 -62.2052 407.425C-53.1334 413.901 -31.9233 429.111 49.382 442.319C53.7262 443.043 58.1131 443.682 62.5851 444.406C70.2939 445.599 78.2583 446.835 86.5209 448.283C268.169 480.621 310.845 554.072 348.453 618.918C360.25 639.283 371.409 658.455 386.188 676.094C399.987 692.54 414.979 704.597 430.738 711.925C447.05 719.509 464.129 722.96 481.207 722.023C485.381 721.81 489.555 721.298 493.644 720.574C513.619 716.953 531.762 707.409 546.073 692.966C561.789 677.074 571.755 656.453 574.821 633.276C578.229 607.798 573.075 579.636 559.829 551.942C532.997 495.661 497.264 464.899 462.723 435.118C450.585 424.68 438.02 413.858 426.265 402.227C419.834 395.879 413.361 388.593 406.461 379.987L404.246 377.26C397.304 368.654 390.191 359.75 384.995 349.695C378.053 336.274 374.39 321.873 371.451 308.325C370.983 306.195 370.515 303.979 370.046 301.806L369.918 301.295C367.618 290.388 365.233 279.14 360.761 268.659C350.838 245.226 338.188 225.798 322.174 209.267C307.268 193.887 289.124 180.509 265.103 167.216C217.572 140.886 170.808 128.658 126.258 130.874C119.358 131.215 113.608 131.854 108.029 132.45C91.8021 134.24 77.7473 135.773 45.4211 128.19C42.1416 127.423 25.9572 123.929 3.42682 123.929L3.59716 123.886Z" fill="url(#paint13_linear_1303_817)"/>
<path d="M558.471 552.247C550.123 522.977 537.517 496.476 519.927 471.297C502.72 446.671 481.894 425.027 463.793 407.048C457.532 400.827 451.612 394.394 445.351 387.577C442.795 384.808 440.112 382.081 437.514 379.397C430.189 371.941 422.607 364.187 417.497 354.899C409.021 339.604 406.679 321.795 405.486 306.414C405.358 304.539 405.231 302.58 405.06 300.662V299.938C404.081 286.006 403.144 271.648 396.798 258.696C386.746 238.075 373.969 221.374 357.827 207.655C342.878 194.959 324.479 184.478 301.65 175.531C271.709 163.857 239.852 157.935 206.929 157.935C195.259 157.935 183.504 158.701 171.92 160.235C167.022 160.874 159.568 163.132 153.52 164.964C136.74 170.077 120.47 175.062 97.8547 165.987C95.64 165.092 92.9142 163.771 89.8051 162.238C74.941 154.952 50.0681 142.767 11.5663 144.045C-46.3568 145.068 -81.3663 180.175 -93.8027 209.956C-105.6 240.205 -98.7432 275.653 -74.5518 309.78C-66.8003 320.687 -40.2664 352.556 -11.0493 380.036C16.6345 406.111 63.7823 430.438 115.104 445.052L136.399 451.357C260.721 487.913 302.502 544.833 339.343 595.065C353.909 614.962 367.708 633.708 385.596 650.409C399.481 663.361 412.684 672.053 425.972 676.995C439.26 681.937 452.804 684.451 466.263 684.451C468.137 684.451 469.968 684.408 471.842 684.323C476.229 684.11 480.616 683.556 484.917 682.789C503.104 679.424 519.714 671.201 532.96 658.973C546.12 646.788 555.532 631.024 560.175 613.343C565.2 594.213 564.647 573.677 558.556 552.332L558.471 552.247ZM558.173 612.789C553.616 630.087 544.416 645.552 531.554 657.482C518.606 669.454 502.337 677.549 484.491 680.83C480.318 681.596 476.016 682.108 471.672 682.321C456.722 683.13 441.432 680.659 426.611 675.12C413.578 670.263 400.588 661.7 386.917 648.918C369.156 632.345 355.442 613.641 340.876 593.83C303.822 543.342 261.871 486.123 136.868 449.398L115.572 443.092C64.5489 428.564 17.6993 404.449 -9.7716 378.545C-41.1608 348.934 -67.0984 316.895 -72.9759 308.587C-96.784 275.014 -103.513 240.205 -91.9713 210.637C-79.7904 181.453 -45.3772 147.028 11.5663 146.005C13.4403 145.92 15.3143 145.92 17.1456 145.92C51.9421 145.92 74.8984 157.168 88.8681 163.985C92.0198 165.518 94.7456 166.882 97.0455 167.776C120.3 177.107 136.868 172.08 154.032 166.839C159.994 165.05 167.405 162.792 172.133 162.195C183.632 160.704 195.344 159.937 206.886 159.937C239.553 159.937 271.198 165.817 300.884 177.405C323.499 186.224 341.728 196.62 356.507 209.189C372.478 222.737 385.043 239.225 394.966 259.591C401.099 272.202 402.036 286.39 402.973 300.108V300.833C403.144 302.75 403.271 304.71 403.442 306.584C404.634 322.178 407.019 340.243 415.708 355.879C420.989 365.422 428.655 373.219 436.066 380.803C438.664 383.444 441.347 386.171 443.86 388.941C450.121 395.8 456.041 402.233 462.344 408.496C480.403 426.391 501.144 447.992 518.223 472.447C535.685 497.456 548.207 523.744 556.512 552.801C562.517 573.805 563.028 594 558.131 612.789H558.173Z" fill="url(#paint14_linear_1303_817)"/>
<path d="M560.089 551.639C536.579 491.566 501.314 457.567 463.962 421.608L463.536 421.224C457.701 415.601 451.696 409.806 445.776 403.927C438.706 396.939 432.19 389.483 426.738 383.135C424.992 381.09 423.16 379.003 421.372 377L420.946 376.531C414.131 368.905 407.104 360.98 402.163 351.778C394.582 337.675 391.601 321.954 389.471 307.127C389.216 305.253 388.96 303.335 388.662 301.205V300.737C386.916 288.168 385.212 275.173 379.761 263.244C360.425 220.894 331.761 193.158 283.932 170.449C250.924 154.813 212.55 146.164 163.188 143.225C157.821 142.884 143.298 142.713 129.073 146.505C106.117 153.493 87.7174 150.553 76.7291 146.803C14.2914 125.373 -23.6568 135.215 -36.0932 138.41C-36.6469 138.538 -91.5887 153.791 -115.865 199.677C-129.707 225.836 -130.474 256.512 -118.123 290.809C-106.495 325.575 -50.6592 404.566 25.8334 429.618C53.1339 438.82 110.248 450.579 111.313 450.793C264.17 485.644 306.548 550.702 343.9 608.134C356.847 628.031 369.071 646.82 385.127 663.904C399.182 678.901 413.194 689.169 427.931 695.39C442.071 701.354 456.637 704.379 471.203 704.379C473.034 704.379 474.823 704.337 476.654 704.252C480.956 704.039 485.258 703.527 489.474 702.76C508.768 699.224 526.315 690.192 540.199 676.686C554.723 662.498 564.476 644.093 568.352 623.472C572.611 600.806 569.842 576.649 560.089 551.725V551.639ZM566.393 623.003C562.602 643.241 553.062 661.263 538.836 675.152C525.25 688.402 508.043 697.264 489.133 700.715C485.002 701.482 480.743 701.951 476.569 702.207C460.512 703.059 444.328 700.119 428.697 693.515C414.216 687.423 400.46 677.282 386.575 662.498C370.646 645.542 358.466 626.838 345.561 607.026C307.996 549.296 265.405 483.854 111.696 448.833C111.1 448.705 53.7728 436.903 26.4297 427.7C-49.3815 402.904 -104.749 324.638 -116.291 290.17C-128.429 256.427 -127.705 226.305 -114.162 200.657C-90.3109 155.538 -36.221 140.54 -35.6673 140.413C-29.3213 138.794 -16.3738 135.428 3.13265 135.428C21.6169 135.428 45.9361 138.453 76.0051 148.763C87.2915 152.64 106.074 155.623 129.584 148.508C143.511 144.801 157.736 145.014 163.018 145.312C212.124 148.209 250.243 156.816 283.038 172.324C330.398 194.777 358.806 222.258 377.887 264.139C383.211 275.812 384.914 288.637 386.575 301.077L386.66 301.759C386.916 303.676 387.171 305.594 387.427 307.468C389.557 322.508 392.623 338.4 400.332 352.8C405.358 362.216 412.47 370.183 419.37 377.937L419.796 378.406C421.585 380.409 423.373 382.454 425.162 384.499C430.656 390.889 437.215 398.345 444.328 405.375C450.291 411.255 456.296 417.092 462.131 422.673L462.557 423.056C499.738 458.888 534.875 492.716 558.215 552.406C567.841 576.99 570.566 600.763 566.393 623.046V623.003Z" fill="url(#paint15_linear_1303_817)"/>
<path d="M559.282 551.94C537.135 487.052 498.676 448.963 458.002 408.659L454.765 405.463C448.078 398.859 441.86 391.872 436.025 385.311C433.768 382.755 431.425 380.241 429.125 377.77C422.098 370.271 414.815 362.474 409.832 353.272C401.825 338.53 399.099 321.445 397.48 306.704C397.267 304.659 397.055 302.571 396.842 300.313C395.521 287.063 394.201 273.387 388.323 260.903C378.23 239.515 365.452 222.09 349.31 207.647C334.404 194.269 315.92 182.936 292.835 172.966C251.778 155.199 205.056 147.786 160.038 151.919C154.757 152.387 148.709 153.879 142.278 155.498C132.695 157.884 121.835 160.568 110.931 160.568C106.246 160.568 101.945 160.099 97.7709 159.119C88.8695 157.074 80.8624 154.007 73.0258 151.024C63.6133 147.445 52.412 143.526 40.9126 141.651C37.2498 141.054 18.2118 138.115 3.77363 139.521C-52.1903 143.185 -80.3001 167.044 -93.9717 186.387C-114.202 214.975 -114.713 248.931 -108.495 271.129C-97.0807 311.689 -77.7872 333.247 -60.6659 352.377C-43.1186 372.103 -18.2031 394.386 -1.03912 405.122C17.5729 418.33 53.9452 432.39 104.159 445.853C105.267 446.151 106.033 446.364 106.502 446.492C110.122 447.387 113.274 448.239 116.639 449.134C118.896 449.73 121.238 450.327 123.879 451.008C262.596 486.882 304.718 547.893 341.942 601.746C355.614 621.557 368.561 640.261 385.385 657.09C399.397 671.065 412.983 680.566 426.953 686.147C440.667 691.601 454.722 694.37 468.777 694.37C470.608 694.37 472.44 694.327 474.271 694.242C478.615 694.029 483.002 693.518 487.219 692.708C505.959 689.257 523.037 680.608 536.581 667.742C550.423 654.577 559.963 637.492 564.222 618.319C568.865 597.4 567.204 575.075 559.324 551.94H559.282ZM562.221 617.893C558.047 636.64 548.677 653.384 535.133 666.293C521.845 678.947 505.149 687.383 486.75 690.748C482.619 691.515 478.36 692.027 474.058 692.24C458.555 693.092 442.797 690.365 427.592 684.315C413.878 678.862 400.462 669.488 386.705 655.727C369.967 639.026 357.105 620.364 343.476 600.638C306.081 546.529 263.704 485.178 124.262 449.134C121.622 448.452 119.322 447.855 117.064 447.259C113.742 446.364 110.548 445.555 106.97 444.617C106.545 444.49 105.735 444.277 104.628 443.978C55.3507 430.771 18.2118 416.413 0.0256401 403.503C-17.0106 392.809 -41.7557 370.697 -59.2178 351.099C-76.1688 332.139 -95.3345 310.752 -106.578 270.617C-112.711 248.846 -112.158 215.571 -92.3532 187.58C-73.0597 160.312 -39.7965 144.378 3.94396 141.523C6.62716 141.268 9.43817 141.14 12.2917 141.14C24.6856 141.14 37.6331 143.142 40.5718 143.611C51.9009 145.485 62.9744 149.363 72.3443 152.899C80.181 155.881 88.2732 158.949 97.3024 161.036C101.604 162.059 106.076 162.528 110.889 162.528C122.047 162.528 133.036 159.801 142.746 157.415C149.092 155.839 155.055 154.347 160.166 153.879C204.801 149.789 251.182 157.159 291.984 174.798C314.855 184.682 333.169 195.93 347.905 209.138C363.876 223.411 376.483 240.666 386.449 261.755C392.157 273.898 393.519 287.404 394.797 300.569C395.01 302.742 395.223 304.829 395.436 306.874C397.054 321.829 399.823 339.169 408 354.209C413.111 363.625 420.479 371.507 427.592 379.09C429.892 381.519 432.234 384.033 434.492 386.589C440.327 393.15 446.587 400.138 453.317 406.827L456.553 410.022C497.1 450.156 535.346 488.075 557.365 552.537C565.159 575.331 566.778 597.315 562.221 617.851V617.893Z" fill="url(#paint16_linear_1303_817)"/>
</g>
</g>
<defs>
<linearGradient id="paint0_linear_1303_817" x1="-121.402" y1="97.6018" x2="499.663" y2="739.022" gradientUnits="userSpaceOnUse">
<stop stop-color="#AFB388"/>
<stop offset="0.31" stop-color="#41929E"/>
<stop offset="0.49" stop-color="#27758D"/>
<stop offset="0.68" stop-color="#115C7E"/>
<stop offset="0.86" stop-color="#044D76"/>
<stop offset="1" stop-color="#004873"/>
</linearGradient>
<linearGradient id="paint1_linear_1303_817" x1="-114.594" y1="91.0351" x2="506.471" y2="732.456" gradientUnits="userSpaceOnUse">
<stop stop-color="#AFB388"/>
<stop offset="0.31" stop-color="#41929E"/>
<stop offset="0.49" stop-color="#27758D"/>
<stop offset="0.68" stop-color="#115C7E"/>
<stop offset="0.86" stop-color="#044D76"/>
<stop offset="1" stop-color="#004873"/>
</linearGradient>
<linearGradient id="paint2_linear_1303_817" x1="-106.32" y1="83.0375" x2="514.745" y2="724.458" gradientUnits="userSpaceOnUse">
<stop stop-color="#AFB388"/>
<stop offset="0.31" stop-color="#41929E"/>
<stop offset="0.49" stop-color="#27758D"/>
<stop offset="0.68" stop-color="#115C7E"/>
<stop offset="0.86" stop-color="#044D76"/>
<stop offset="1" stop-color="#004873"/>
</linearGradient>
<linearGradient id="paint3_linear_1303_817" x1="-91.1614" y1="68.3317" x2="529.903" y2="709.752" gradientUnits="userSpaceOnUse">
<stop stop-color="#AFB388"/>
<stop offset="0.31" stop-color="#41929E"/>
<stop offset="0.49" stop-color="#27758D"/>
<stop offset="0.68" stop-color="#115C7E"/>
<stop offset="0.86" stop-color="#044D76"/>
<stop offset="1" stop-color="#004873"/>
</linearGradient>
<linearGradient id="paint4_linear_1303_817" x1="-59.4327" y1="37.6113" x2="561.632" y2="679.032" gradientUnits="userSpaceOnUse">
<stop stop-color="#AFB388"/>
<stop offset="0.31" stop-color="#41929E"/>
<stop offset="0.49" stop-color="#27758D"/>
<stop offset="0.68" stop-color="#115C7E"/>
<stop offset="0.86" stop-color="#044D76"/>
<stop offset="1" stop-color="#004873"/>
</linearGradient>
<linearGradient id="paint5_linear_1303_817" x1="-52.8383" y1="31.2178" x2="568.227" y2="672.638" gradientUnits="userSpaceOnUse">
<stop stop-color="#AFB388"/>
<stop offset="0.31" stop-color="#41929E"/>
<stop offset="0.49" stop-color="#27758D"/>
<stop offset="0.68" stop-color="#115C7E"/>
<stop offset="0.86" stop-color="#044D76"/>
<stop offset="1" stop-color="#004873"/>
</linearGradient>
<linearGradient id="paint6_linear_1303_817" x1="-46.7027" y1="25.2504" x2="574.405" y2="666.671" gradientUnits="userSpaceOnUse">
<stop stop-color="#AFB388"/>
<stop offset="0.31" stop-color="#41929E"/>
<stop offset="0.49" stop-color="#27758D"/>
<stop offset="0.68" stop-color="#115C7E"/>
<stop offset="0.86" stop-color="#044D76"/>
<stop offset="1" stop-color="#004873"/>
</linearGradient>
<linearGradient id="paint7_linear_1303_817" x1="-41.001" y1="19.7561" x2="580.064" y2="661.176" gradientUnits="userSpaceOnUse">
<stop stop-color="#AFB388"/>
<stop offset="0.31" stop-color="#41929E"/>
<stop offset="0.49" stop-color="#27758D"/>
<stop offset="0.68" stop-color="#115C7E"/>
<stop offset="0.86" stop-color="#044D76"/>
<stop offset="1" stop-color="#004873"/>
</linearGradient>
<linearGradient id="paint8_linear_1303_817" x1="-35.553" y1="14.4786" x2="585.512" y2="655.899" gradientUnits="userSpaceOnUse">
<stop stop-color="#AFB388"/>
<stop offset="0.31" stop-color="#41929E"/>
<stop offset="0.49" stop-color="#27758D"/>
<stop offset="0.68" stop-color="#115C7E"/>
<stop offset="0.86" stop-color="#044D76"/>
<stop offset="1" stop-color="#004873"/>
</linearGradient>
<linearGradient id="paint9_linear_1303_817" x1="-30.2242" y1="9.32027" x2="590.841" y2="650.741" gradientUnits="userSpaceOnUse">
<stop stop-color="#AFB388"/>
<stop offset="0.31" stop-color="#41929E"/>
<stop offset="0.49" stop-color="#27758D"/>
<stop offset="0.68" stop-color="#115C7E"/>
<stop offset="0.86" stop-color="#044D76"/>
<stop offset="1" stop-color="#004873"/>
</linearGradient>
<linearGradient id="paint10_linear_1303_817" x1="-25.0281" y1="4.28901" x2="596.037" y2="645.71" gradientUnits="userSpaceOnUse">
<stop stop-color="#AFB388"/>
<stop offset="0.31" stop-color="#41929E"/>
<stop offset="0.49" stop-color="#27758D"/>
<stop offset="0.68" stop-color="#115C7E"/>
<stop offset="0.86" stop-color="#044D76"/>
<stop offset="1" stop-color="#004873"/>
</linearGradient>
<linearGradient id="paint11_linear_1303_817" x1="-19.9048" y1="-0.647488" x2="601.16" y2="640.773" gradientUnits="userSpaceOnUse">
<stop stop-color="#AFB388"/>
<stop offset="0.31" stop-color="#41929E"/>
<stop offset="0.49" stop-color="#27758D"/>
<stop offset="0.68" stop-color="#115C7E"/>
<stop offset="0.86" stop-color="#044D76"/>
<stop offset="1" stop-color="#004873"/>
</linearGradient>
<linearGradient id="paint12_linear_1303_817" x1="-14.9307" y1="-5.50067" x2="606.177" y2="635.92" gradientUnits="userSpaceOnUse">
<stop stop-color="#AFB388"/>
<stop offset="0.31" stop-color="#41929E"/>
<stop offset="0.49" stop-color="#27758D"/>
<stop offset="0.68" stop-color="#115C7E"/>
<stop offset="0.86" stop-color="#044D76"/>
<stop offset="1" stop-color="#004873"/>
</linearGradient>
<linearGradient id="paint13_linear_1303_817" x1="-98.9608" y1="75.8702" x2="522.104" y2="717.291" gradientUnits="userSpaceOnUse">
<stop stop-color="#AFB388"/>
<stop offset="0.31" stop-color="#41929E"/>
<stop offset="0.49" stop-color="#27758D"/>
<stop offset="0.68" stop-color="#115C7E"/>
<stop offset="0.86" stop-color="#044D76"/>
<stop offset="1" stop-color="#004873"/>
</linearGradient>
<linearGradient id="paint14_linear_1303_817" x1="-67.1836" y1="45.1157" x2="553.881" y2="686.536" gradientUnits="userSpaceOnUse">
<stop stop-color="#AFB388"/>
<stop offset="0.31" stop-color="#41929E"/>
<stop offset="0.49" stop-color="#27758D"/>
<stop offset="0.68" stop-color="#115C7E"/>
<stop offset="0.86" stop-color="#044D76"/>
<stop offset="1" stop-color="#004873"/>
</linearGradient>
<linearGradient id="paint15_linear_1303_817" x1="-82.9428" y1="60.3573" x2="538.122" y2="701.778" gradientUnits="userSpaceOnUse">
<stop stop-color="#AFB388"/>
<stop offset="0.31" stop-color="#41929E"/>
<stop offset="0.49" stop-color="#27758D"/>
<stop offset="0.68" stop-color="#115C7E"/>
<stop offset="0.86" stop-color="#044D76"/>
<stop offset="1" stop-color="#004873"/>
</linearGradient>
<linearGradient id="paint16_linear_1303_817" x1="-75.317" y1="52.9892" x2="545.748" y2="694.41" gradientUnits="userSpaceOnUse">
<stop stop-color="#AFB388"/>
<stop offset="0.31" stop-color="#41929E"/>
<stop offset="0.49" stop-color="#27758D"/>
<stop offset="0.68" stop-color="#115C7E"/>
<stop offset="0.86" stop-color="#044D76"/>
<stop offset="1" stop-color="#004873"/>
</linearGradient>
<clipPath id="clip0_1303_817">
<rect width="393" height="731" fill="white"/>
</clipPath>
</defs>
</svg>
