<svg width="1855" height="1080" viewBox="0 0 1855 1080" fill="none" xmlns="http://www.w3.org/2000/svg">
<g clip-path="url(#clip0_1301_795)">
<g opacity="0.03">
<path d="M1602.52 1543.59C1586.09 1543.59 1569.66 1541.89 1553.43 1538.58C1483.6 1524.25 1420.18 1480.25 1369.99 1411.2C1337.23 1366.2 1313.38 1317.89 1288.03 1266.88C1196.56 1082.17 1101.99 891.042 580.61 827.401C536.728 822.089 496.553 819.083 457.58 816.176C317.317 802.947 82.6783 780.697 13.1481 505.487C-6.78919 426.512 -46.9643 159.72 274.137 39.7535C411.394 -12.2619 550.854 -3.94344 681.198 12.7937C825.669 31.3348 908.824 69.1187 1030.15 141.579C1083.05 173.25 1125.83 209.53 1168.61 259.24C1207.18 303.94 1236.94 355.354 1259.68 416.389C1265.29 431.322 1270.7 446.756 1276.01 461.589L1276.21 462.191C1298.65 525.331 1321.8 590.576 1360.87 645.397C1408.06 711.644 1468.67 754.339 1532.99 799.539C1576.77 830.408 1621.96 862.278 1666.34 903.67C1716.74 950.675 1758.41 1003.29 1793.68 1064.53C1846.08 1155.33 1865.41 1247.13 1849.69 1329.92C1835.76 1403.18 1795.18 1464.92 1735.37 1503.8C1699.2 1527.35 1657.63 1540.88 1615.25 1543.19C1611.04 1543.39 1606.73 1543.49 1602.52 1543.49V1543.59ZM509.677 4.77591C432.333 4.77591 353.685 14.6979 275.84 44.2635C-41.5543 162.827 -1.88001 426.411 17.7567 504.384C47.5124 622.045 108.326 702.925 203.805 751.633C283.454 792.223 373.022 803.548 457.981 811.566C496.954 814.472 537.329 817.479 581.211 822.791C1105.09 886.733 1200.27 1078.96 1292.24 1264.87C1317.49 1315.78 1341.23 1363.89 1373.79 1408.59C1423.29 1476.64 1485.7 1520.04 1554.33 1534.07C1574.37 1538.18 1594.81 1539.68 1614.95 1538.68C1656.52 1536.47 1697.3 1523.14 1732.77 1500.09C1791.38 1462.01 1831.25 1401.27 1844.98 1329.31C1860.51 1247.63 1841.37 1157.03 1789.57 1067.13C1754.51 1006.3 1713.13 954.082 1663.04 907.378C1618.85 866.187 1573.87 834.417 1530.19 803.749C1465.57 758.248 1404.55 715.252 1356.86 648.404C1317.39 592.981 1294.15 527.436 1271.6 463.995L1271.4 463.293C1266.09 448.46 1260.68 433.126 1255.07 418.193C1232.53 357.659 1202.98 306.746 1164.8 262.448C1122.32 213.138 1079.94 177.158 1027.45 145.789C906.721 73.6287 823.966 36.0453 680.297 17.6044C624.693 10.4886 567.385 4.87613 509.377 4.87613L509.677 4.77591Z" fill="url(#paint0_linear_1301_795)"/>
<path d="M1836.35 1179.47C1827.73 1141.49 1812.7 1102.8 1791.76 1064.41C1718.23 929.916 1629.36 862.868 1543.3 798.024C1503.22 767.757 1465.25 739.193 1430.39 704.817C1413.15 687.779 1397.53 669.839 1382.8 649.895C1364.56 625.341 1351.24 603.993 1340.62 582.546C1326.29 553.381 1315.77 522.112 1307.46 495.252C1305.55 489.038 1303.65 482.724 1301.75 476.611L1301.14 474.707C1294.63 453.359 1287.92 431.411 1279.7 410.163C1256.56 350.932 1226.71 301.222 1188.33 258.327C1152.97 218.739 1109.39 183.26 1051.08 146.679C943.676 79.2292 823.451 38.6392 703.326 29.5189C693.508 28.5167 681.184 28.7172 665.756 29.0178C641.711 29.5189 611.254 30.0201 574.785 26.2116C521.485 20.6994 440.334 12.2807 333.233 40.7438C66.2333 111.501 37.3793 314.551 34.2735 354.54C26.2585 448.348 61.224 708.525 315.901 784.795C353.371 798.024 441.235 807.645 518.78 816.164C553.946 819.973 587.108 823.681 610.151 827.088C1099.77 895.039 1194.65 1077.24 1286.52 1253.53C1312.57 1303.45 1337.11 1350.65 1370.47 1394.45C1403.54 1437.94 1441.31 1470.62 1482.68 1491.46C1519.35 1509.9 1557.83 1519.32 1597 1519.32C1601.21 1519.32 1605.41 1519.22 1609.72 1519.02C1619.64 1518.52 1629.66 1517.32 1639.48 1515.62C1689.87 1506.6 1735.66 1482.04 1771.83 1444.66C1813.2 1401.86 1838.15 1346.14 1843.96 1283.6C1847.07 1250.03 1844.56 1214.95 1836.45 1179.37L1836.35 1179.47ZM1839.15 1283.3C1833.44 1344.74 1809 1399.46 1768.32 1441.45C1732.85 1478.13 1688.07 1502.19 1638.58 1511.01C1628.96 1512.71 1619.14 1513.91 1609.42 1514.41C1566.84 1516.72 1524.66 1507.5 1484.79 1487.35C1444.11 1466.71 1406.84 1434.54 1374.18 1391.64C1341.12 1348.14 1316.57 1301.14 1290.63 1251.33C1198.25 1074.04 1102.77 890.73 610.753 822.478C587.709 818.97 554.447 815.362 519.281 811.554C442.037 803.135 354.473 793.514 317.403 780.385C65.6322 704.917 31.0675 447.747 38.9823 354.941C41.988 315.553 70.5415 115.209 334.435 45.3541C440.734 17.1916 521.385 25.51 574.284 31.0223C611.053 34.8307 641.711 34.3296 665.856 33.8285C681.184 33.5278 693.307 33.3274 702.925 34.2294C822.249 43.3496 941.772 83.639 1048.57 150.688C1106.48 187.068 1149.76 222.347 1184.83 261.534C1222.8 304.028 1252.35 353.237 1275.3 411.967C1283.51 433.014 1290.22 454.963 1296.74 476.41L1297.24 478.114C1299.14 484.328 1301.04 490.642 1302.95 496.756C1311.36 523.715 1321.88 555.285 1336.41 584.751C1347.13 606.399 1360.66 628.047 1378.99 652.802C1393.92 672.946 1409.65 691.087 1427.08 708.325C1462.15 743.002 1500.22 771.665 1540.49 801.933C1626.15 866.476 1714.62 933.124 1787.66 1066.82C1808.39 1104.8 1823.22 1143.09 1831.84 1180.67C1839.85 1215.75 1842.26 1250.33 1839.25 1283.4L1839.15 1283.3Z" fill="url(#paint1_linear_1301_795)"/>
<path d="M1789.79 1065.14C1721.46 931.948 1635.3 862.594 1552.04 795.345C1516.68 766.881 1483.31 739.922 1451.55 708.552C1435.42 692.617 1420.09 675.178 1404.67 655.134C1387.53 632.884 1371.1 610.936 1358.58 586.181C1343.45 556.214 1334.13 524.343 1326.22 494.477C1324.72 488.765 1323.21 482.952 1321.71 476.938C1315.6 453.085 1309.29 428.33 1299.67 404.878C1254.89 294.934 1188.86 221.872 1071.84 152.719C957.529 85.0689 834.498 49.3898 725.494 51.9955C716.077 52.196 707.561 52.5969 699.546 52.8975C666.284 54.3007 640.034 55.3029 576.916 46.784C449.077 31.7506 389.165 45.3809 364.819 50.8931C187.688 92.5856 81.1886 204.133 71.0696 358.876C65.1586 492.874 118.759 612.038 230.769 707.75C277.857 747.739 314.225 764.677 357.606 779.209C401.989 793.941 463.203 805.768 539.747 814.387C572.508 817.995 605.169 822.405 639.534 827.817C1096.99 899.776 1196.58 1080.88 1284.44 1240.83C1311.29 1289.74 1336.64 1335.84 1370.8 1378.54C1403.76 1419.83 1440.53 1450.6 1480.11 1469.84C1515.97 1487.18 1553.34 1496 1591.41 1496C1595.62 1496 1599.83 1495.9 1604.14 1495.7C1614.16 1495.2 1624.28 1493.99 1634.09 1492.19C1683.29 1483.27 1727.97 1459.52 1763.14 1423.44C1802.61 1383.05 1826.96 1330.43 1833.47 1271.5C1840.68 1206.46 1825.55 1135.1 1789.59 1065.04L1789.79 1065.14ZM1828.96 1271.1C1822.55 1329.03 1798.6 1380.64 1759.93 1420.23C1725.37 1455.61 1681.68 1478.86 1633.39 1487.68C1623.68 1489.38 1613.86 1490.59 1603.94 1491.09C1562.56 1493.29 1521.38 1484.67 1482.31 1465.73C1443.34 1446.79 1407.17 1416.42 1374.61 1375.73C1340.75 1333.34 1315.5 1287.34 1288.65 1238.53C1200.28 1077.77 1100.1 895.467 640.335 823.206C605.871 817.794 573.109 813.385 540.248 809.676C464.105 801.157 403.091 789.432 359.109 774.699C316.228 760.367 280.361 743.63 233.874 704.142C123.067 609.432 69.9676 491.47 75.7785 359.077C85.8974 206.739 190.994 96.5945 365.821 55.5033C381.551 51.8953 414.312 44.4789 468.714 44.4789C497.267 44.4789 532.634 46.3831 576.315 51.4944C639.834 60.1136 666.183 59.0111 699.746 57.608C707.761 57.3073 716.177 56.9064 725.595 56.706C833.797 54.1002 955.825 89.5789 1069.44 156.728C1185.46 225.38 1250.88 297.741 1295.26 406.582C1304.68 429.734 1310.99 454.288 1317.1 478.041C1318.6 484.054 1320.11 489.967 1321.61 495.58C1329.52 525.747 1338.94 557.818 1354.27 588.185C1366.89 613.241 1383.53 635.39 1400.76 657.84C1416.39 677.984 1431.82 695.623 1448.05 711.759C1480.01 743.329 1513.47 770.289 1548.94 798.852C1631.89 865.701 1717.55 934.754 1785.48 1067.05C1821.04 1136.3 1835.97 1206.76 1828.86 1270.9L1828.96 1271.1Z" fill="url(#paint2_linear_1301_795)"/>
<path d="M1785.97 1066.43C1726.86 930.829 1642.6 853.658 1561.15 779.093L1560.65 778.692C1538.61 758.547 1515.86 737.701 1493.92 715.953C1479.9 702.022 1465.37 685.986 1448.44 665.541C1445.53 661.933 1442.43 658.425 1439.32 654.616L1438.22 653.314C1422.49 634.672 1406.16 615.43 1394.54 593.381C1377.71 561.41 1369.89 526.131 1363.88 492.757C1362.98 487.746 1362.18 482.735 1361.28 477.624C1356.57 449.762 1351.66 420.898 1339.84 394.038C1316.09 340.219 1286.03 295.72 1248.06 258.237C1212.6 223.26 1169.92 193.494 1113.61 164.529C1016.13 114.418 907.627 87.8592 799.725 87.8592C783.194 87.6588 765.16 90.3648 746.125 93.0708C710.157 98.1821 658.661 101.489 615.781 90.9661C581.316 82.5474 512.788 65.9105 430.534 72.0241C304.097 86.5563 233.665 145.086 196.796 191.69C143.497 259.039 130.873 336.31 136.784 386.121C153.014 525.229 240.779 650.908 383.947 740.006C461.392 788.213 622.894 814.872 624.497 815.173C648.241 819.482 672.787 823.892 698.836 829.204C1091.37 908.279 1191.16 1070.74 1279.32 1214.16C1308.38 1261.46 1335.83 1306.06 1372.1 1347.05C1404.96 1384.03 1439.72 1410.89 1475.69 1426.83C1509.85 1441.96 1545.22 1449.68 1580.79 1449.68C1584.99 1449.68 1589.3 1449.58 1593.51 1449.38C1603.63 1448.88 1613.65 1447.68 1623.57 1445.87C1670.25 1437.35 1712.63 1415.3 1746.2 1381.93C1782.06 1346.25 1805.51 1299.85 1813.72 1247.83C1822.84 1190.3 1813.62 1129.27 1786.17 1066.43H1785.97ZM1808.81 1247.03C1800.7 1298.04 1777.86 1343.54 1742.59 1378.52C1709.83 1411.09 1668.25 1432.74 1622.46 1441.16C1612.85 1442.97 1602.93 1444.07 1593.01 1444.57C1554.04 1446.67 1514.86 1439.16 1477.29 1422.42C1442.03 1406.79 1407.66 1380.33 1375.3 1343.75C1339.33 1303.16 1311.98 1258.66 1283.03 1211.55C1194.46 1067.33 1094.08 903.97 699.537 824.493C673.489 819.282 648.842 814.772 625.098 810.462C623.495 810.162 462.895 783.603 386.251 735.997C244.285 647.701 157.323 523.225 141.293 385.62C135.482 336.711 148.005 260.843 200.303 194.696C252.4 128.85 332.05 88.0597 430.834 76.7345C444.56 75.7323 457.585 75.2312 470.008 75.2312C530.922 75.2312 586.225 88.5608 614.578 95.5763C658.26 106.3 710.358 102.993 746.726 97.7812C765.661 95.0752 783.695 92.6699 799.625 92.6699C906.725 92.6699 1014.53 119.028 1111.41 168.739C1167.21 197.402 1209.59 226.968 1244.66 261.645C1282.23 298.727 1311.98 342.725 1335.43 396.043C1346.95 422.301 1351.86 450.865 1356.57 478.526C1357.47 483.637 1358.27 488.749 1359.17 493.76C1365.18 527.535 1373.2 563.214 1390.33 595.686C1402.15 618.136 1418.58 637.679 1434.51 656.42L1435.62 657.723C1438.82 661.432 1441.83 665.04 1444.73 668.648C1461.76 689.293 1476.39 705.329 1490.52 719.36C1512.56 741.209 1535.3 762.055 1557.34 782.2L1557.84 782.6C1639 856.865 1722.85 933.635 1781.56 1068.33C1808.61 1130.37 1817.73 1190.51 1808.71 1247.13L1808.81 1247.03Z" fill="url(#paint3_linear_1301_795)"/>
<path d="M1556.84 1356.07C1526.68 1356.07 1496.12 1350.76 1465.97 1340.34C1435.91 1329.91 1406.66 1311.87 1373.9 1283.51C1328.61 1244.32 1293.64 1199.42 1256.68 1151.92C1171.32 1042.37 1074.74 918.299 816.652 831.707L814.448 830.905C682.1 786.507 594.737 757.141 490.141 653.712C469.603 633.467 448.363 614.224 427.824 595.583C383.942 555.895 342.665 518.512 312.308 475.216C306.397 466.697 300.887 457.978 295.877 449.76C269.528 406.564 258.407 354.348 265.32 306.642C274.036 246.709 310.405 195.295 370.517 157.812C411.594 132.255 456.378 119.828 507.473 119.828C548.15 119.828 587.724 127.745 617.58 134.661C643.628 140.674 665.77 152.5 687.21 163.825C706.245 173.948 725.882 184.371 748.625 190.985C758.443 193.892 769.063 195.395 780.084 195.395C809.338 195.395 837.191 185.473 861.837 176.854C875.963 171.843 888.086 167.533 898.606 165.729C933.872 159.616 969.638 156.609 1005.1 156.609C1071.63 156.609 1136.05 167.233 1196.76 188.28C1305.87 226.063 1374.7 282.889 1419.88 372.588C1435.81 404.158 1437.11 439.637 1438.32 473.913V475.416C1438.52 480.227 1438.72 484.837 1438.92 489.347C1440.72 527.031 1445.43 570.528 1466.37 607.91C1478.89 630.16 1497.53 648.4 1515.56 666.039C1521.97 672.253 1529.19 679.369 1535.8 686.385L1541.91 692.899C1554.33 706.028 1566.06 718.456 1578.38 730.683C1631.68 783.6 1671.05 831.707 1702.31 882.319C1738.18 940.448 1763.02 1001.58 1778.05 1069.33C1788.27 1115.34 1786.97 1159.43 1774.34 1200.32C1762.52 1238.51 1740.68 1272.58 1711.23 1298.84C1672.65 1333.22 1623.86 1352.96 1570.06 1355.77C1565.65 1355.97 1561.15 1356.17 1556.64 1356.17L1556.84 1356.07ZM507.574 124.638C457.38 124.638 413.397 136.865 373.122 161.921C314.212 198.602 278.545 248.914 270.129 307.444C263.316 354.147 274.237 405.161 300.085 447.454C305.095 455.572 310.405 464.292 316.316 472.71C346.272 515.606 387.449 552.788 430.93 592.176C451.669 610.917 472.909 630.16 493.547 650.505C597.342 753.133 684.304 782.398 816.051 826.596L818.255 827.397C1077.64 914.491 1174.82 1039.17 1260.48 1149.11C1297.35 1196.52 1332.22 1241.22 1377.1 1280.1C1409.36 1308.06 1438.12 1325.8 1467.57 1336.03C1501.63 1347.85 1536.3 1352.96 1570.06 1351.16C1622.76 1348.35 1670.55 1329.11 1708.32 1295.44C1737.18 1269.68 1758.52 1236.4 1770.14 1199.02C1782.56 1158.93 1783.76 1115.64 1773.74 1070.44C1758.82 1003.29 1734.27 942.553 1698.6 884.925C1667.55 834.613 1628.37 786.707 1575.37 734.09C1562.95 721.763 1551.23 709.335 1538.8 696.206L1532.69 689.692C1526.18 682.776 1518.97 675.761 1512.55 669.547C1494.22 651.708 1475.29 633.166 1462.46 610.316C1441.02 572.031 1436.21 527.833 1434.41 489.648C1434.21 485.138 1434.01 480.428 1433.81 475.717V474.214C1432.5 440.439 1431.2 405.562 1415.77 374.893C1371.19 286.297 1303.26 230.172 1195.36 192.89C1135.15 172.043 1071.23 161.52 1005.21 161.52C970.039 161.52 934.473 164.627 899.507 170.64C889.388 172.344 877.366 176.654 863.54 181.565C838.593 190.384 810.24 200.406 780.184 200.406C768.762 200.406 757.742 198.903 747.423 195.896C724.279 189.081 704.442 178.558 685.206 168.335C664.067 157.11 642.226 145.485 616.778 139.571C587.123 132.656 547.949 124.839 507.674 124.839L507.574 124.638Z" fill="url(#paint4_linear_1301_795)"/>
<path d="M1776.23 1070.13C1766.22 1003.68 1746.38 943.648 1715.52 886.421C1686.67 832.802 1648.69 783.092 1599.7 734.384C1590.09 724.862 1580.27 714.74 1570.75 704.918L1557.72 691.589C1550.71 684.473 1543.3 677.457 1535.88 670.442C1516.95 652.702 1497.31 634.261 1484.39 611.511C1462.25 572.524 1458.44 527.424 1457.74 488.438C1457.64 483.226 1457.54 478.015 1457.54 472.102C1457.14 436.523 1456.74 399.741 1439.9 367.269C1416.56 322.169 1386.6 286.289 1348.43 257.526C1312.97 230.766 1270.19 210.12 1217.59 194.285C1166.59 178.951 1112.59 171.234 1056.99 171.234C1013.71 171.234 969.824 176.045 926.543 185.366C916.725 187.47 905.304 192.181 892.079 197.593C866.531 208.016 837.477 219.842 806.819 219.842C795.598 219.842 784.778 218.138 774.759 214.931C751.516 207.415 731.578 195.388 712.342 183.662C691.303 170.934 669.663 157.704 643.614 150.689C608.648 141.168 554.247 131.145 508.561 131.847C467.985 132.548 429.714 144.575 391.542 168.829C363.69 186.468 341.248 207.415 325.018 230.867C310.19 252.114 300.371 275.666 295.763 300.722C285.844 354.641 300.672 414.674 335.537 461.278C341.248 468.995 347.46 477.113 354.272 485.131C383.427 519.707 419.895 549.473 458.668 581.144C486.119 603.593 514.572 626.945 541.723 653.103C641.71 749.617 723.463 785.297 846.193 832.501C1069.31 918.492 1163.39 1032.44 1246.34 1133.07C1286.82 1182.08 1324.99 1228.38 1374.58 1267.87C1406.94 1293.62 1435.2 1309.86 1463.75 1318.88C1492.7 1328.1 1521.76 1332.81 1550.01 1332.81C1554.52 1332.81 1559.03 1332.71 1563.54 1332.41C1574.36 1331.81 1585.28 1330.51 1596 1328.6C1636.07 1321.19 1673.04 1303.75 1702.9 1278.29C1761.91 1227.88 1788.66 1152.11 1776.33 1070.23L1776.23 1070.13ZM1699.69 1274.58C1670.44 1299.54 1634.17 1316.58 1594.99 1323.79C1584.47 1325.7 1573.75 1327 1563.13 1327.5C1531.07 1329.2 1498.01 1324.69 1464.95 1314.17C1437 1305.25 1409.15 1289.31 1377.29 1263.96C1328.1 1224.77 1290.02 1178.67 1249.75 1129.86C1166.39 1028.84 1071.92 914.283 847.596 827.891C725.367 780.787 644.015 745.308 544.729 649.495C517.478 623.237 489.024 599.885 461.272 577.235C422.901 545.865 386.633 516.099 357.679 481.924C351.066 474.006 344.855 465.888 339.144 458.271C305.08 412.67 290.553 354.04 300.271 301.323C304.78 276.969 314.297 254.018 328.724 233.272C344.654 210.321 366.595 189.876 393.946 172.537C431.417 148.784 471.191 136.958 510.865 136.257C554.948 136.257 608.749 145.978 642.211 154.998C667.559 161.914 688.999 174.942 709.838 187.57C729.274 199.397 749.312 211.624 773.156 219.241C783.776 222.648 794.997 224.352 806.719 224.352C838.278 224.352 867.733 212.325 893.782 201.702C906.806 196.39 918.027 191.78 927.445 189.775C970.425 180.455 1014.01 175.744 1056.99 175.744C1112.09 175.744 1165.59 183.461 1216.19 198.595C1268.28 214.23 1310.66 234.675 1345.63 261.033C1383.2 289.396 1412.65 324.775 1435.7 369.274C1452.03 400.743 1452.43 436.924 1452.73 472.402C1452.73 477.915 1452.83 483.126 1452.93 488.338C1453.63 527.926 1457.54 573.727 1480.18 613.616C1493.5 637.068 1513.34 655.709 1532.78 673.949C1539.99 680.664 1547.31 687.58 1554.22 694.696L1567.24 708.025C1576.76 717.847 1586.58 727.969 1596.2 737.49C1644.89 785.898 1682.56 835.308 1711.21 888.425C1741.77 945.151 1761.41 1004.68 1771.32 1070.63C1783.45 1150.91 1757.2 1225.17 1699.49 1274.38L1699.69 1274.58Z" fill="url(#paint5_linear_1301_795)"/>
<path d="M1774.34 1070.92C1765.52 942.438 1713.92 830.39 1620.95 737.985C1614.54 731.57 1608.02 725.056 1601.41 718.441C1594.3 711.325 1587.09 704.009 1579.77 696.693C1572.36 689.377 1564.44 682.161 1556.53 675.045C1536.59 657.105 1515.95 638.464 1502.43 615.012C1479.08 574.422 1476.38 525.513 1476.58 487.429C1476.58 482.117 1476.58 476.905 1476.78 470.792C1477.28 435.413 1477.98 395.324 1460.05 361.85C1415.46 278.465 1345.13 227.151 1238.43 200.191C1149.77 177.742 1050.68 179.345 954.502 204.802C945.585 207.207 934.865 212.118 922.441 217.831C897.294 229.456 866.136 243.888 833.375 243.888C822.054 243.888 811.133 242.084 801.014 238.577C777.17 230.258 757.132 216.528 737.796 203.298C717.157 189.167 695.817 174.535 669.668 166.417C631.998 154.791 586.112 142.864 540.527 142.463C493.94 142.463 451.36 154.59 412.688 179.546C360.991 212.92 329.933 258.421 322.919 311.138C314.103 377.485 344.159 437.919 375.217 472.496C381.329 479.211 388.542 487.128 396.157 494.745C424.209 522.406 456.87 546.259 491.635 571.415C525.499 596.07 560.464 621.526 593.125 652.194C687.301 740.791 762.041 782.684 875.554 833.196C1063.2 916.781 1153.17 1020.31 1232.52 1111.61C1277.41 1163.23 1319.78 1212.04 1374.99 1252.13C1406.75 1275.18 1434.2 1289.61 1461.25 1297.43C1488.7 1305.34 1516.35 1309.35 1543.4 1309.35C1548.11 1309.35 1552.92 1309.25 1557.53 1308.95C1609.13 1306.25 1656.52 1288.51 1694.49 1257.84C1750.29 1212.74 1779.35 1144.79 1774.34 1071.12V1070.92ZM1691.48 1253.93C1654.21 1284 1607.82 1301.33 1557.23 1304.04C1526.37 1305.64 1494.31 1301.84 1462.45 1292.62C1435.9 1285 1408.95 1270.77 1377.69 1248.12C1322.89 1208.33 1280.71 1159.72 1236.03 1108.31C1156.38 1016.6 1066.01 912.672 877.357 828.686C764.446 778.374 689.906 736.682 596.231 648.586C563.369 617.618 528.204 592.061 494.24 567.406C459.776 542.351 427.115 518.598 399.363 491.237C391.748 483.721 384.635 475.903 378.524 469.188C348.167 435.514 318.712 376.382 327.328 311.639C334.14 260.325 364.497 216.027 414.992 183.354C452.863 158.9 494.641 147.074 540.226 147.074C585.21 147.474 630.695 159.301 667.965 170.826C693.413 178.744 714.452 193.176 734.89 207.107C754.427 220.537 774.665 234.367 799.111 242.986C809.731 246.695 821.152 248.599 833.074 248.599C866.837 248.599 898.597 233.966 924.145 222.14C936.367 216.528 946.887 211.617 955.503 209.312C1050.98 184.056 1149.17 182.452 1237.13 204.701C1342.33 231.361 1411.86 281.973 1455.74 364.055C1473.07 396.527 1472.47 435.914 1471.97 470.692C1471.97 476.805 1471.77 482.117 1471.77 487.429C1471.57 526.115 1474.37 575.825 1498.22 617.417C1512.04 641.47 1532.98 660.312 1553.42 678.753C1561.04 685.669 1568.95 692.784 1576.26 700C1583.58 707.216 1590.89 714.533 1597.91 721.648C1604.52 728.263 1611.03 734.878 1617.44 741.192C1709.61 832.795 1760.71 943.741 1769.43 1071.12C1774.34 1143.18 1745.88 1209.73 1691.28 1253.83L1691.48 1253.93Z" fill="url(#paint6_linear_1301_795)"/>
<path d="M1535.68 1285.6C1510.63 1285.6 1484.78 1282.2 1458.83 1275.58C1432.68 1268.87 1406.93 1256.64 1375.48 1236.09C1312.66 1195 1264.87 1142.29 1214.27 1086.46C1140.44 1004.88 1056.68 912.575 904.795 833.6C800.5 779.38 732.372 731.674 644.508 651.196C607.138 616.92 566.161 590.862 526.587 565.606C494.828 545.361 464.872 526.319 438.021 504.069C431.109 498.356 423.695 491.842 414.778 483.423C370.395 442.132 344.747 378.491 349.556 321.264C353.964 268.647 383.019 223.246 433.513 190.072C471.284 165.217 511.659 153.191 556.944 153.191C605.234 153.191 652.022 167.021 695.403 182.055C721.752 191.175 742.792 207.311 763.23 222.945C782.566 237.778 802.503 253.012 826.949 262.233C837.369 266.141 848.49 268.146 860.111 268.146C894.175 268.146 926.536 251.509 952.484 238.079C964.106 232.066 974.225 226.854 982.34 224.349C1041.45 205.707 1100.96 196.286 1159.27 196.286C1193.54 196.286 1227.1 199.594 1259.16 206.208C1310.65 216.732 1353.13 233.369 1388.9 256.921C1427.17 282.177 1456.93 314.749 1479.97 356.542C1499.01 391.119 1497.4 432.811 1495.9 469.593C1495.7 475.806 1495.4 481.218 1495.3 486.63C1494.1 526.118 1496 576.73 1520.35 618.724C1534.37 642.877 1556.11 661.719 1577.05 679.959C1584.87 686.674 1593.58 694.291 1601.5 701.908C1615.63 715.438 1629.35 728.968 1641.97 741.596C1686.36 785.694 1720.02 837.008 1742.16 894.034C1763.8 949.658 1773.82 1009.49 1772.22 1071.73C1770.52 1136.87 1739.16 1197.11 1686.26 1237C1657.2 1258.94 1622.14 1274.08 1584.77 1280.99C1573.45 1283.1 1561.82 1284.4 1550.3 1285C1545.39 1285.3 1540.48 1285.4 1535.58 1285.4L1535.68 1285.6ZM557.044 157.901C512.761 157.901 473.187 169.727 436.218 194.081C386.926 226.453 358.673 270.651 354.365 321.765C349.656 377.589 374.703 439.726 418.084 480.016C427.001 488.334 434.314 494.849 441.127 500.461C467.777 522.51 497.533 541.452 529.092 561.497C568.966 586.853 610.043 613.111 647.814 647.588C735.378 727.765 803.305 775.371 907.099 829.291C1059.78 908.667 1143.74 1001.37 1217.88 1083.15C1268.28 1138.78 1315.86 1191.29 1378.18 1231.98C1409.24 1252.23 1434.49 1264.26 1460.13 1270.87C1490.69 1278.69 1520.95 1281.89 1550.2 1280.39C1561.62 1279.79 1573.05 1278.49 1584.07 1276.38C1620.73 1269.57 1655.2 1254.73 1683.65 1233.19C1735.35 1194.2 1766.01 1135.27 1767.71 1071.53C1769.41 1009.79 1759.39 950.66 1737.95 895.638C1716.11 839.213 1682.75 788.5 1638.87 744.903C1626.14 732.275 1612.52 718.745 1598.39 705.215C1590.58 697.699 1581.86 690.082 1574.15 683.467C1552.81 664.926 1530.77 645.784 1516.44 621.029C1491.39 577.933 1489.59 526.519 1490.69 486.43C1490.79 481.018 1491.09 475.606 1491.29 469.893C1492.8 433.212 1494.4 392.121 1475.96 358.747C1453.32 317.656 1424.07 285.584 1386.4 260.829C1351.13 237.578 1309.15 221.141 1258.26 210.718C1226.5 204.204 1193.23 200.897 1159.27 200.897C1101.46 200.897 1042.45 210.217 983.743 228.758C976.028 231.164 966.11 236.275 954.688 242.188C928.239 255.818 895.377 272.856 860.111 272.856C847.989 272.856 836.267 270.752 825.246 266.642C800.199 257.221 779.961 241.687 760.325 226.654C740.287 211.32 719.448 195.384 693.8 186.465C650.82 171.632 604.533 157.901 556.844 157.901H557.044Z" fill="url(#paint7_linear_1301_795)"/>
<path d="M1527.95 1262.06C1504.61 1262.06 1480.56 1259.36 1456.52 1253.95C1431.47 1248.33 1406.72 1237.91 1376.07 1220.27C1302.93 1177.88 1248.43 1119.15 1190.82 1056.91C1125.1 985.952 1050.66 905.674 934.24 834.116C839.964 776.187 776.044 721.365 696.094 650.207C654.517 613.225 608.03 587.669 563.045 562.914C533.69 546.778 505.938 531.544 480.09 513.604C472.075 508.092 463.759 501.878 454.542 494.562C431.8 476.723 411.562 451.567 397.636 423.905C382.507 393.839 375.094 361.868 376.296 331.5C378.3 278.984 405.45 233.784 454.743 200.81C491.712 176.055 531.186 164.029 575.268 164.029C626.164 164.029 675.656 180.265 721.542 197.704C748.092 207.826 768.931 225.465 789.068 242.503C808.405 258.839 828.342 275.777 853.289 285.799C864.009 290.109 875.43 292.313 887.252 292.313C922.719 292.313 956.081 273.271 982.831 257.937C993.651 251.723 1002.97 246.412 1010.38 243.706C1077.11 219.051 1143.83 206.623 1208.85 206.623C1233.1 206.623 1257.04 208.427 1280.09 211.935C1384.18 227.971 1456.22 273.472 1500.2 350.943C1520.34 386.522 1517.63 429.818 1515.33 468.003C1514.93 474.117 1514.63 479.829 1514.33 485.542C1512.22 526.333 1513.12 578.749 1538.57 622.145C1553.2 647.101 1576.04 666.243 1598.18 684.884C1606.8 692.1 1615.52 699.417 1623.63 706.933C1637.96 720.163 1650.88 732.69 1663.41 745.118C1748.66 830.107 1787.74 949.371 1770.41 1072.54C1762.49 1129.27 1729.03 1181.79 1678.83 1216.66C1640.36 1243.32 1593.67 1258.76 1543.88 1261.46C1538.77 1261.76 1533.46 1261.86 1528.05 1261.86L1527.95 1262.06ZM575.068 168.839C531.887 168.839 493.315 180.565 457.147 204.819C409.157 236.89 382.708 280.788 380.804 331.801C379.702 361.367 386.916 392.536 401.643 421.901C415.269 449.061 435.006 473.515 457.247 491.054C466.465 498.27 474.68 504.384 482.595 509.896C508.243 527.736 535.895 542.869 565.149 559.005C610.334 583.86 657.121 609.517 699.1 646.9C778.949 717.858 842.669 772.579 936.645 830.307C1053.56 902.267 1128.3 982.745 1194.13 1053.8C1251.63 1115.84 1305.84 1174.37 1378.37 1216.36C1408.53 1233.8 1432.97 1244.13 1457.42 1249.54C1481.16 1254.85 1504.81 1257.55 1527.85 1257.55C1533.06 1257.55 1538.27 1257.45 1543.38 1257.15C1592.37 1254.55 1638.16 1239.41 1675.93 1213.26C1725.12 1179.18 1757.78 1127.87 1765.5 1072.34C1782.53 950.674 1744.06 832.813 1659.8 748.927C1647.37 736.499 1634.35 724.071 1620.12 710.842C1612.01 703.325 1603.39 696.109 1594.98 688.993C1572.43 670.051 1549.19 650.508 1534.16 624.951C1508.01 580.453 1507.11 527.134 1509.22 485.743C1509.52 480.03 1509.82 474.317 1510.22 468.204C1512.52 430.62 1515.23 388.026 1495.79 353.75C1452.51 277.581 1381.68 232.781 1279.09 217.046C1256.34 213.539 1232.6 211.735 1208.55 211.735C1144.13 211.735 1077.91 224.162 1011.69 248.516C1004.67 251.122 995.455 256.334 984.935 262.347C957.584 277.982 923.62 297.325 886.952 297.325C874.528 297.325 862.506 295.019 851.185 290.509C825.637 280.187 805.299 263.048 785.762 246.512C765.925 229.674 745.387 212.336 719.639 202.514C674.153 185.176 625.162 169.14 575.068 169.14V168.839Z" fill="url(#paint8_linear_1301_795)"/>
<path d="M1519.75 1238.71C1498.41 1238.71 1476.37 1236.6 1454.13 1232.39C1429.98 1227.88 1406.04 1219.26 1376.68 1204.43C1289.92 1160.83 1227.5 1093.08 1161.48 1021.22C1104.67 959.487 1045.86 895.645 963.507 834.609C909.205 794.42 865.824 755.133 819.838 713.641C796.895 692.895 773.151 671.448 747.503 649.399C702.318 610.512 650.722 586.359 600.928 563.007C573.277 550.078 547.128 537.751 521.981 523.219C512.863 517.907 503.746 512.194 494.128 505.78C468.981 489.043 446.139 464.188 429.708 435.825C412.175 405.457 402.757 372.885 402.557 341.616C402.357 305.135 414.88 252.919 475.594 211.627C512.062 186.772 550.634 174.746 593.514 174.746C599.826 174.746 606.339 175.046 612.851 175.547C660.039 179.356 707.327 196.995 747.302 213.632C774.153 224.757 794.691 243.899 814.628 262.44C833.864 280.38 853.802 298.821 879.149 309.645C889.969 314.255 901.491 316.56 913.513 316.56C951.184 316.56 986.851 294.211 1012.9 277.874C1022.82 271.661 1031.43 266.249 1038.15 263.442C1126.51 225.759 1218.48 209.723 1300.74 218.142C1402.83 228.565 1476.57 271.46 1520.15 345.825C1541.49 382.306 1537.68 427.206 1534.38 466.894C1533.87 473.108 1533.37 479.021 1532.97 484.934C1529.97 527.127 1529.87 581.247 1556.42 626.147C1571.65 651.904 1595.79 671.548 1619.13 690.49C1628.05 697.706 1637.07 705.022 1645.38 712.539C1661.41 726.87 1673.44 738.196 1684.46 749.22C1726.33 790.913 1756.09 843.63 1770.52 901.758C1784.64 958.384 1783.84 1017.92 1768.21 1073.94C1753.59 1126.26 1714.51 1173.36 1661.01 1203.33C1624.24 1223.87 1581.16 1236 1536.58 1238.41C1531.07 1238.71 1525.36 1238.81 1519.65 1238.81L1519.75 1238.71ZM593.514 179.456C551.636 179.456 513.865 191.282 478.199 215.536C419.188 255.725 406.965 306.237 407.166 341.616C407.366 372.083 416.483 403.854 433.615 433.52C449.645 461.281 471.987 485.535 496.533 501.871C506.051 508.185 515.168 513.898 524.185 519.11C549.131 533.642 575.18 545.769 602.832 558.697C653.026 582.149 704.823 606.503 750.508 645.791C776.257 667.94 800.001 689.387 822.944 710.133C868.83 751.625 912.211 790.812 966.312 830.901C1049.07 892.237 1107.98 956.179 1164.88 1018.12C1230.61 1089.58 1292.72 1157.12 1378.68 1200.32C1407.74 1214.85 1431.18 1223.37 1454.93 1227.88C1482.68 1233.09 1510.23 1235.1 1536.28 1233.69C1580.16 1231.39 1622.44 1219.46 1658.71 1199.22C1711.11 1169.95 1749.38 1123.85 1763.6 1072.74C1779.03 1017.52 1779.84 958.785 1765.91 902.961C1751.58 845.734 1722.33 793.719 1681.05 752.628C1670.03 741.703 1658.11 730.378 1642.18 716.147C1633.96 708.73 1624.95 701.414 1616.23 694.298C1592.48 674.955 1567.94 655.111 1552.31 628.653C1525.06 582.751 1525.06 527.628 1528.16 484.733C1528.56 478.82 1529.07 472.907 1529.57 466.693C1532.87 427.707 1536.58 383.609 1515.94 348.431C1473.26 275.469 1400.63 233.275 1300.14 223.053C1218.68 214.835 1127.41 230.569 1039.85 268.053C1033.44 270.759 1025.02 276.07 1015.3 282.184C988.754 298.821 952.486 321.571 913.513 321.571C900.89 321.571 888.667 319.066 877.246 314.255C851.097 303.13 830.859 284.289 811.322 266.148C791.685 247.908 771.447 229.166 745.399 218.242C705.724 201.705 658.937 184.267 612.35 180.559C606.038 180.057 599.626 179.757 593.414 179.757L593.514 179.456Z" fill="url(#paint9_linear_1301_795)"/>
<path d="M1510.03 1215.15C1491 1215.15 1471.36 1213.64 1451.82 1210.74C1428.48 1207.23 1404.73 1200.21 1377.28 1188.59C1272.99 1144.49 1202.45 1063.61 1127.82 978.02C1086.64 930.815 1044.16 882.107 992.863 835.003C963.207 807.742 936.557 780.682 910.909 754.524C874.541 717.442 840.177 682.464 799.1 648.389C750.81 608.3 694.504 586.15 640.103 564.703C614.755 554.681 588.506 544.358 563.96 532.531C553.641 527.52 543.522 522.209 533.804 516.696C506.252 501.162 480.604 476.607 461.669 447.543C441.631 416.875 430.21 383.601 428.807 351.329C427.204 314.949 437.624 263.134 496.734 222.143C539.414 192.677 584.799 180.951 636.696 186.363C684.385 191.274 730.572 209.815 773.352 229.158C800.503 241.386 820.841 261.931 840.478 281.875C859.714 301.318 879.551 321.363 905.399 333.089C916.52 338.1 928.342 340.706 940.665 340.706C979.738 340.706 1016.41 315.65 1043.16 297.31C1052.17 291.096 1059.99 285.784 1066.1 282.777C1152.26 240.584 1241.03 220.138 1321.58 223.947C1370.47 226.252 1413.65 236.976 1449.82 255.617C1487.69 275.16 1518.15 303.724 1540.19 340.305C1562.73 377.688 1557.82 424.191 1553.61 465.282V465.884C1552.91 472.298 1552.31 478.111 1551.81 483.823C1547.9 527.42 1546.9 583.344 1574.55 629.547C1590.58 656.306 1616.03 676.351 1640.68 695.794C1649.69 702.909 1659.01 710.226 1667.43 717.542C1680.05 728.466 1693.37 740.292 1705.8 752.72C1747.17 794.012 1774.93 847.029 1785.85 905.76C1796.67 963.588 1789.65 1023.62 1766.21 1074.83C1745.77 1119.53 1705.6 1158.22 1653.3 1183.58C1615.73 1201.82 1574.15 1212.24 1529.47 1214.54C1523.06 1214.85 1516.54 1215.05 1510.13 1215.05L1510.03 1215.15ZM612.651 189.971C571.574 189.971 534.405 201.798 499.239 226.152C441.831 265.84 431.712 316.051 433.315 351.229C434.718 382.599 445.839 415.071 465.476 445.037C484.01 473.4 509.057 497.454 536.008 512.687C545.626 518.099 555.745 523.411 565.964 528.322C590.409 540.148 616.558 550.371 641.806 560.393C696.508 581.941 753.114 604.19 802.106 644.781C843.383 679.057 877.847 714.034 914.216 751.116C939.964 777.375 966.513 804.335 996.069 831.495C1047.57 878.7 1090.14 927.608 1131.32 974.813C1205.66 1060 1275.89 1140.48 1379.19 1184.18C1406.34 1195.6 1429.58 1202.62 1452.62 1206.03C1478.47 1209.93 1504.12 1211.24 1529.27 1209.83C1573.25 1207.53 1614.33 1197.21 1651.3 1179.27C1702.59 1154.31 1741.96 1116.53 1761.9 1072.73C1784.95 1022.42 1791.76 963.387 1781.24 906.461C1770.42 848.633 1743.27 796.517 1702.49 755.827C1690.17 743.5 1676.84 731.774 1664.32 720.849C1656 713.633 1646.69 706.317 1637.77 699.301C1612.72 679.658 1586.87 659.313 1570.44 631.752C1542.09 584.346 1543.09 527.52 1547.1 483.222C1547.6 477.409 1548.2 471.596 1548.9 465.182V464.581C1553.21 424.291 1557.92 378.59 1536.18 342.51C1514.54 306.63 1484.78 278.768 1447.71 259.526C1412.15 241.085 1369.57 230.662 1321.38 228.357C1241.73 224.648 1153.56 244.994 1068.2 286.786C1062.39 289.592 1054.78 294.904 1045.86 300.918C1018.61 319.559 981.241 345.216 940.665 345.216C927.741 345.216 915.217 342.51 903.495 337.198C876.946 325.171 856.708 304.726 837.171 284.982C817.735 265.339 797.697 245.094 771.448 233.267C728.969 214.125 683.183 195.784 636.195 190.873C628.28 190.072 620.466 189.671 612.851 189.671L612.651 189.971Z" fill="url(#paint10_linear_1301_795)"/>
<path d="M1499.54 1191.91C1483.11 1191.91 1466.28 1191 1449.65 1189.2C1426.6 1186.69 1403.16 1181.28 1378.11 1172.86C1251.58 1129.87 1174.73 1030.35 1093.48 925.014C1070.54 895.248 1046.99 864.78 1022.25 835.515C1009.22 820.081 996.299 804.246 984.878 790.215L984.477 789.714C941.697 737.297 901.322 687.888 850.627 647.598C799.531 607.008 739.218 587.365 680.809 568.322C655.962 560.204 630.415 551.886 605.969 542.064C594.748 537.654 583.827 532.844 573.508 527.833C510.189 497.365 460.196 427.31 454.686 361.163C451.68 325.083 460.196 273.568 517.804 233.079C561.285 202.511 607.472 190.985 660.471 197.6C708.661 203.613 755.749 224.059 799.331 245.105C826.682 258.335 846.82 280.384 866.256 301.831C885.392 322.878 905.229 344.626 931.478 356.953C942.699 362.265 954.722 365.071 967.245 365.071C1008.52 365.071 1047.6 336.007 1073.44 316.764C1081.76 310.651 1088.77 305.439 1094.08 302.433C1177.94 255.729 1263.8 230.673 1342.45 229.972H1345.95C1392.74 229.972 1434.52 238.491 1470.29 255.228C1508.26 273.067 1538.61 299.927 1560.46 335.005C1584.2 373.29 1578.29 421.396 1572.98 463.791V464.592C1572.08 471.207 1571.38 477.02 1570.67 482.933C1565.77 527.833 1563.86 585.561 1592.62 633.166C1609.35 660.928 1636.3 681.574 1662.35 701.418C1671.56 708.433 1680.88 715.549 1689.4 722.765C1702.52 733.79 1715.35 744.714 1727.07 756.44C1767.74 797.03 1794.29 851.952 1801.81 910.983C1809.52 971.517 1796.1 1030.15 1764.04 1076.05C1738.29 1112.83 1696.31 1144.4 1645.82 1164.85C1608.24 1180.08 1566.87 1189 1522.78 1191.3C1515.17 1191.71 1507.46 1191.91 1499.74 1191.91H1499.54ZM632.218 200.506C591.742 200.506 555.074 212.433 520.308 236.887C464.604 276.074 456.289 325.885 459.194 360.762C464.504 425.305 513.396 493.857 575.311 523.623C585.531 528.534 596.351 533.245 607.572 537.654C631.917 547.376 657.365 555.694 682.011 563.712C741.022 582.955 801.836 602.699 853.532 643.89C904.528 684.48 945.104 734.09 988.084 786.707L988.485 787.208C999.906 801.239 1012.83 817.074 1025.85 832.408C1050.7 861.874 1074.25 892.341 1096.99 921.807C1178.04 1026.84 1254.38 1125.76 1379.62 1168.35C1404.36 1176.77 1427.41 1182.08 1450.15 1184.49C1474.49 1187.1 1499.04 1187.9 1522.38 1186.59C1565.97 1184.29 1606.84 1175.47 1643.81 1160.44C1693.5 1140.29 1734.78 1109.32 1759.93 1073.24C1791.39 1028.34 1804.51 970.815 1796.9 911.484C1789.48 853.455 1763.44 799.636 1723.46 759.747C1711.84 748.121 1699.12 737.297 1686.09 726.373C1677.57 719.257 1668.36 712.242 1659.44 705.427C1632.79 685.081 1605.54 664.235 1588.31 635.672C1558.85 586.864 1560.76 528.133 1565.77 482.432C1566.37 476.519 1567.17 470.606 1567.97 463.991V463.189C1573.28 421.497 1579.09 374.292 1556.15 337.41C1534.81 303.034 1505.15 276.776 1467.98 259.437C1432.92 243.001 1391.74 234.582 1345.65 234.582H1342.15C1264.4 235.284 1179.24 260.139 1096.09 306.441C1090.98 309.248 1084.16 314.359 1076.15 320.272C1049.7 340.016 1009.82 369.581 967.045 369.581C953.82 369.581 941.196 366.675 929.274 361.063C902.123 348.234 882.086 326.185 862.549 304.838C843.313 283.791 823.476 262.043 797.026 249.214C753.745 228.268 707.158 208.123 659.569 202.11C650.252 200.907 641.034 200.306 632.118 200.306L632.218 200.506Z" fill="url(#paint11_linear_1301_795)"/>
<path d="M1487.4 1168.87C1474.17 1168.87 1460.65 1168.46 1447.22 1167.56C1356.55 1161.65 1279.61 1126.67 1212.08 1060.63C1152.57 1002.4 1107.29 927.73 1063.5 855.57C1013.51 773.188 966.422 695.415 902.002 646.707C848.001 605.816 786.185 589.58 720.762 572.242C696.417 565.827 671.671 559.313 647.626 551.496C634.701 547.286 623.28 543.177 612.76 538.868C580.3 525.638 548.941 501.585 524.695 471.218C499.849 440.249 484.019 404.47 480.012 370.695C475.804 334.815 482.516 283.802 538.421 243.813C582.604 212.243 629.692 200.818 683.693 208.635C732.584 215.851 780.374 238 824.757 260.851C852.409 275.082 872.446 298.735 891.682 321.586C910.818 344.136 930.455 367.387 957.105 380.617C968.626 386.329 981.05 389.336 993.773 389.336C1036.65 389.336 1076.73 357.165 1103.18 335.817C1110.49 330.004 1116.7 324.993 1121.41 321.987C1167.7 292.822 1214.89 270.572 1261.47 255.84C1306.86 241.508 1350.64 234.492 1391.62 235.294C1432.59 235.996 1469.56 244.314 1501.42 259.949C1534.18 276.085 1560.53 299.537 1579.97 329.704C1605.02 368.69 1597.9 418.4 1591.69 462.298C1590.69 469.313 1589.79 475.728 1588.99 482.142C1583.18 528.445 1580.37 587.876 1610.13 636.985C1627.66 665.95 1656.21 687.096 1683.76 707.542C1693.08 714.457 1702.3 721.272 1710.82 728.188C1723.34 738.31 1736.16 748.733 1747.78 760.259C1769.73 782.207 1787.86 810.27 1800.08 841.339C1812.2 872.107 1818.52 905.381 1818.12 937.452C1817.52 992.975 1797.28 1042.59 1761.11 1077.16C1729.95 1107.03 1687.17 1131.08 1637.38 1146.92C1600.31 1158.74 1559.93 1165.86 1517.35 1168.06C1507.54 1168.56 1497.42 1168.87 1487.2 1168.87H1487.4ZM652.034 210.94C612.059 210.94 575.791 222.967 541.327 247.622C487.225 286.307 480.713 335.617 484.821 370.193C488.728 403.167 504.157 438.044 528.503 468.311C552.347 498.077 582.904 521.529 614.664 534.458C625.083 538.667 636.404 542.776 649.128 546.885C673.073 554.703 697.719 561.217 721.564 567.431C787.888 584.87 850.104 601.306 904.807 642.798C969.829 692.007 1017.22 770.181 1067.41 852.964C1110.99 924.924 1156.18 999.289 1215.29 1057.12C1282.01 1122.36 1357.96 1156.94 1447.52 1162.65C1471.17 1164.15 1494.91 1164.36 1517.35 1163.15C1559.53 1160.95 1599.51 1153.83 1636.18 1142.21C1685.27 1126.57 1727.45 1102.82 1758.1 1073.45C1793.37 1039.78 1813.11 991.371 1813.71 937.151C1814.11 905.681 1807.9 873.009 1795.97 842.742C1783.95 812.274 1766.22 784.713 1744.68 763.265C1733.26 751.84 1720.43 741.517 1708.11 731.495C1699.69 724.68 1690.48 717.865 1681.66 711.25C1653.41 690.304 1624.45 668.856 1606.42 639.09C1575.86 588.778 1578.77 528.344 1584.58 481.24C1585.38 474.826 1586.28 468.411 1587.28 461.596C1593.5 418.3 1600.41 369.492 1576.26 332.009C1557.33 302.543 1531.58 279.693 1499.62 263.958C1468.36 248.624 1432.09 240.406 1391.82 239.804C1351.24 239.103 1308.06 246.018 1263.18 260.149C1216.99 274.782 1170.2 296.831 1124.22 325.795C1119.71 328.601 1113.6 333.612 1106.38 339.325C1079.33 361.073 1038.56 393.846 993.974 393.846C980.448 393.846 967.424 390.739 955.201 384.726C927.75 371.096 907.712 347.443 888.276 324.492C869.24 301.942 849.503 278.69 822.753 264.86C778.671 242.109 731.282 220.161 683.092 213.145C672.472 211.542 661.952 210.84 651.934 210.84L652.034 210.94Z" fill="url(#paint12_linear_1301_795)"/>
<path d="M1586.18 1472.93C1549.32 1472.93 1512.95 1464.71 1477.88 1448.37C1440.21 1430.83 1404.34 1402.07 1371.48 1362.78C1336.42 1320.99 1310.07 1275.69 1282.22 1227.68C1194.15 1076.05 1094.46 904.165 669.268 828.497C649.832 825.09 631.097 822.183 613.063 819.377C602.543 817.773 592.224 816.17 582.005 814.466C389.645 783.197 339.15 747.016 317.51 731.582C207.304 652.707 141.58 582.952 110.122 439.935C81.2676 308.844 153.803 159.613 275.231 100.181C414.992 31.7295 558.861 62.598 574.791 66.3062C650.132 83.9454 682.693 80.3373 720.564 76.2282C733.689 74.8251 747.314 73.3218 763.745 72.52C869.443 67.3084 980.25 96.2727 1092.86 158.611C1149.77 190.081 1192.75 221.751 1228.11 258.332C1266.19 297.619 1296.24 343.822 1319.79 399.445C1330.41 424.501 1336.12 451.26 1341.53 477.118L1341.83 478.32C1342.93 483.331 1344.03 488.543 1345.13 493.654C1352.05 525.224 1360.56 558.799 1376.59 589.768C1388.61 613.019 1405.25 633.765 1421.28 653.709L1426.49 660.224C1442.52 680.268 1457.64 697.306 1472.67 712.139C1500.22 739.399 1529.68 764.756 1558.23 789.31C1639.88 859.666 1724.34 932.428 1787.86 1065.62C1819.32 1131.67 1831.64 1198.72 1823.53 1259.65C1816.11 1315.18 1792.27 1364.59 1754.5 1402.67C1720.13 1437.35 1676.65 1460.3 1628.66 1469.02C1618.85 1470.82 1608.73 1471.92 1598.81 1472.53C1594.6 1472.73 1590.39 1472.83 1586.18 1472.83V1472.93ZM474.904 60.8942C419.501 60.8942 347.867 69.814 277.234 104.491C157.711 163.021 86.2771 309.947 114.63 439.033C145.788 580.547 210.91 649.7 320.115 727.874C341.455 743.108 391.348 778.887 582.606 809.956C592.825 811.66 603.144 813.163 613.664 814.867C631.798 817.673 650.533 820.58 669.969 823.987C1097.27 900.056 1197.66 1072.84 1286.12 1225.38C1313.87 1273.28 1340.12 1318.38 1374.89 1359.88C1407.35 1398.56 1442.62 1426.92 1479.69 1444.16C1518.06 1462 1558.23 1470.12 1598.41 1467.92C1608.23 1467.41 1618.04 1466.21 1627.66 1464.51C1674.65 1455.99 1717.33 1433.54 1750.99 1399.56C1787.96 1362.18 1811.41 1313.67 1818.62 1259.15C1826.63 1199.22 1814.51 1132.97 1783.35 1067.83C1720.24 935.434 1636.18 863.074 1554.93 793.018C1526.37 768.464 1496.82 743.007 1469.17 715.647C1454.04 700.714 1438.81 683.576 1422.58 663.331L1417.37 656.916C1401.04 636.672 1384.31 615.725 1372.08 592.073C1355.75 560.503 1347.14 526.627 1340.22 494.757C1339.12 489.746 1338.02 484.534 1336.92 479.423L1336.62 478.22C1331.21 452.563 1325.6 426.104 1315.08 401.45C1291.73 346.327 1261.98 300.626 1224.31 261.74C1189.24 225.56 1146.56 194.09 1090.06 162.82C978.246 100.883 868.241 72.1191 763.444 77.3307C747.214 78.1325 733.689 79.6358 720.564 81.0389C682.393 85.2482 649.331 88.8562 573.289 71.0167C565.574 69.2127 527.503 60.9944 474.504 60.9944L474.904 60.8942Z" fill="url(#paint13_linear_1301_795)"/>
<path d="M1780.16 1068.54C1760.52 999.692 1730.86 937.354 1689.49 878.122C1649.01 820.194 1600.02 769.281 1557.44 726.987C1542.71 712.354 1528.79 697.221 1514.06 681.185C1508.05 674.671 1501.74 668.257 1495.62 661.943C1478.39 644.404 1460.56 626.163 1448.54 604.315C1428.6 568.335 1423.09 526.442 1420.28 490.262C1419.98 485.852 1419.68 481.242 1419.28 476.732V475.028C1416.98 442.255 1414.77 408.48 1399.84 378.013C1376.2 329.505 1346.14 290.218 1308.17 257.947C1273.01 228.08 1229.73 203.426 1176.03 182.379C1105.59 154.918 1030.65 140.987 953.209 140.987C925.757 140.987 898.105 142.791 870.854 146.399C859.333 147.902 841.8 153.214 827.573 157.524C788.1 169.55 749.828 181.276 696.628 159.929C691.419 157.824 685.007 154.718 677.693 151.11C642.727 133.972 584.218 105.308 493.649 108.315C357.393 110.72 275.039 193.303 245.785 263.359C218.033 334.516 234.163 417.901 291.069 498.179C309.303 523.836 371.72 598.803 440.449 663.446C505.571 724.782 616.478 782.009 737.204 816.385L787.298 831.218C1079.75 917.209 1178.03 1051.11 1264.69 1169.27C1298.96 1216.07 1331.42 1260.17 1373.5 1299.46C1406.16 1329.92 1437.21 1350.37 1468.47 1362C1499.73 1373.62 1531.59 1379.53 1563.25 1379.53C1567.66 1379.53 1571.97 1379.43 1576.37 1379.23C1586.69 1378.73 1597.01 1377.43 1607.13 1375.63C1649.91 1367.71 1688.99 1348.37 1720.14 1319.6C1751.1 1290.94 1773.24 1253.86 1784.16 1212.26C1795.99 1167.26 1794.68 1118.96 1780.36 1068.75L1780.16 1068.54ZM1779.45 1210.96C1768.73 1251.65 1747.09 1288.03 1716.84 1316.09C1686.38 1344.26 1648.11 1363.3 1606.13 1371.02C1596.31 1372.82 1586.19 1374.02 1575.97 1374.52C1540.81 1376.43 1504.84 1370.61 1469.98 1357.59C1439.32 1346.16 1408.76 1326.02 1376.6 1295.95C1334.82 1256.96 1302.56 1212.97 1268.3 1166.36C1181.14 1047.6 1082.45 913 788.4 826.608L738.306 811.775C618.282 777.599 508.075 720.873 443.454 659.938C369.616 590.284 308.602 514.917 294.776 495.373C238.771 416.398 222.942 334.516 250.093 264.962C278.746 196.31 359.698 115.33 493.649 112.925C498.057 112.724 502.465 112.724 506.773 112.724C588.626 112.724 642.627 139.183 675.489 155.219C682.903 158.827 689.315 162.034 694.725 164.138C749.427 186.087 788.4 174.261 828.776 161.934C842.802 157.724 860.235 152.412 871.355 151.009C898.406 147.502 925.958 145.698 953.108 145.698C1029.95 145.698 1104.39 159.528 1174.22 186.789C1227.42 207.535 1270.3 231.989 1305.07 261.555C1342.64 293.425 1372.19 332.211 1395.54 380.118C1409.96 409.783 1412.17 443.157 1414.37 475.429V477.133C1414.77 481.643 1415.07 486.253 1415.47 490.663C1418.28 527.344 1423.89 569.838 1444.33 606.62C1456.75 629.07 1474.78 647.41 1492.22 665.25C1498.33 671.464 1504.64 677.878 1510.55 684.392C1525.28 700.528 1539.21 715.662 1554.03 730.395C1596.51 772.488 1645.3 823.301 1685.48 880.828C1726.56 939.659 1756.01 1001.5 1775.55 1069.85C1789.67 1119.26 1790.88 1166.76 1779.35 1210.96H1779.45Z" fill="url(#paint14_linear_1301_795)"/>
<path d="M1783.96 1067.12C1728.66 925.803 1645.7 845.825 1557.84 761.238L1556.84 760.336C1543.11 747.106 1528.99 733.476 1515.06 719.645C1498.43 703.209 1483.1 685.67 1470.28 670.737C1466.17 665.926 1461.86 661.015 1457.65 656.305L1456.65 655.203C1440.62 637.263 1424.09 618.621 1412.47 596.973C1394.63 563.8 1387.62 526.818 1382.61 491.94C1382.01 487.531 1381.41 483.02 1380.71 478.009V476.907C1376.6 447.341 1372.59 416.773 1359.77 388.711C1314.28 289.09 1246.86 223.845 1134.35 170.427C1056.7 133.645 966.433 113.3 850.315 106.385C837.692 105.583 803.528 105.182 770.065 114.102C716.064 130.538 672.783 123.623 646.935 114.804C500.06 64.3917 410.793 87.5431 381.538 95.0598C380.235 95.3604 250.993 131.24 193.887 239.179C161.326 300.716 159.522 372.876 188.577 453.555C215.928 535.337 347.274 721.149 527.21 780.08C591.431 801.728 725.782 829.389 728.287 829.89C1087.86 911.872 1187.55 1064.91 1275.41 1200.01C1305.87 1246.82 1334.62 1291.01 1372.39 1331.2C1405.45 1366.48 1438.42 1390.63 1473.08 1405.27C1506.34 1419.3 1540.61 1426.41 1574.87 1426.41C1579.18 1426.41 1583.39 1426.31 1587.7 1426.11C1597.81 1425.61 1607.93 1424.41 1617.85 1422.6C1663.24 1414.29 1704.51 1393.04 1737.18 1361.27C1771.34 1327.89 1794.28 1284.6 1803.4 1236.09C1813.42 1182.77 1806.91 1125.95 1783.96 1067.32V1067.12ZM1798.79 1234.99C1789.87 1282.59 1767.43 1324.99 1733.97 1357.66C1702.01 1388.83 1661.53 1409.68 1617.05 1417.79C1607.33 1419.6 1597.31 1420.7 1587.5 1421.3C1549.72 1423.31 1511.65 1416.39 1474.88 1400.86C1440.82 1386.52 1408.46 1362.67 1375.8 1327.89C1338.33 1288.01 1309.68 1244.01 1279.32 1197.41C1190.95 1061.6 1090.77 907.663 729.189 825.28C727.786 824.979 592.933 797.217 528.613 775.569C350.279 717.24 220.036 533.132 192.885 452.052C164.331 372.676 166.034 301.818 197.894 241.485C253.999 135.349 381.237 100.071 382.54 99.7702C397.468 95.9618 427.925 88.0442 473.81 88.0442C517.292 88.0442 574.499 95.16 645.231 119.414C671.781 128.534 715.964 135.55 771.267 118.812C804.029 110.093 837.491 110.594 849.915 111.296C965.431 118.111 1055.1 138.356 1132.24 174.837C1243.65 227.654 1310.48 292.297 1355.36 390.816C1367.88 418.277 1371.89 448.444 1375.8 477.709L1376 479.312C1376.6 483.822 1377.2 488.332 1377.8 492.742C1382.81 528.121 1390.03 565.503 1408.16 599.379C1419.98 621.528 1436.71 640.269 1452.94 658.51L1453.95 659.612C1458.15 664.323 1462.36 669.133 1466.57 673.944C1479.49 688.977 1494.92 706.516 1511.65 723.053C1525.68 736.884 1539.81 750.614 1553.53 763.743L1554.53 764.645C1642 848.932 1724.65 928.509 1779.55 1068.92C1802.2 1126.75 1808.61 1182.67 1798.79 1235.09V1234.99Z" fill="url(#paint15_linear_1301_795)"/>
<path d="M1782.06 1067.82C1729.97 915.184 1639.5 825.586 1543.82 730.775L1536.2 723.259C1520.47 707.724 1505.85 691.288 1492.12 675.853C1486.81 669.84 1481.3 663.927 1475.89 658.114C1459.36 640.475 1442.23 622.134 1430.51 600.486C1411.67 565.809 1405.26 525.62 1401.45 490.943C1400.95 486.132 1400.45 481.222 1399.95 475.91C1396.84 444.741 1393.74 412.569 1379.91 383.204C1356.17 332.893 1326.11 291.902 1288.14 257.926C1253.07 226.456 1209.59 199.797 1155.29 176.345C1058.71 134.552 948.805 117.114 842.907 126.835C830.484 127.938 816.257 131.446 801.128 135.254C778.586 140.867 753.038 147.181 727.39 147.181C716.37 147.181 706.251 146.078 696.433 143.773C675.493 138.962 656.658 131.746 638.224 124.731C616.082 116.312 589.733 107.092 562.682 102.682C554.066 101.279 509.282 94.3633 475.319 97.6707C343.672 106.29 277.549 162.414 245.388 207.915C197.799 275.164 196.597 355.042 211.225 407.258C238.075 502.669 283.46 553.382 323.735 598.382C365.012 644.784 423.622 697.201 463.998 722.457C507.78 753.526 593.34 786.599 711.461 818.269C714.066 818.971 715.869 819.472 716.971 819.773C725.487 821.877 732.901 823.882 740.816 825.987C746.126 827.39 751.636 828.793 757.848 830.396C1084.16 914.783 1183.24 1058.3 1270.81 1184.98C1302.97 1231.59 1333.42 1275.58 1373 1315.17C1405.96 1348.04 1437.92 1370.39 1470.78 1383.52C1503.04 1396.35 1536.1 1402.87 1569.17 1402.87C1573.47 1402.87 1577.78 1402.77 1582.09 1402.57C1592.31 1402.06 1602.63 1400.86 1612.55 1398.96C1656.63 1390.84 1696.81 1370.49 1728.66 1340.23C1761.23 1309.26 1783.67 1269.07 1793.69 1223.97C1804.61 1174.76 1800.7 1122.24 1782.16 1067.82H1782.06ZM1788.98 1222.97C1779.16 1267.07 1757.12 1306.45 1725.26 1336.82C1694 1366.59 1654.73 1386.43 1611.45 1394.35C1601.73 1396.15 1591.71 1397.35 1581.59 1397.86C1545.12 1399.86 1508.05 1393.45 1472.28 1379.21C1440.02 1366.39 1408.47 1344.34 1376.1 1311.96C1336.73 1272.68 1306.47 1228.78 1274.41 1182.38C1186.45 1055.09 1086.76 910.775 758.749 825.987C752.538 824.383 747.127 822.98 741.818 821.577C734.003 819.472 726.489 817.568 718.073 815.363C717.071 815.062 715.168 814.561 712.563 813.86C596.646 782.791 509.282 749.016 466.502 718.648C426.427 693.493 368.218 641.477 327.141 595.375C287.267 550.776 242.182 500.464 215.733 406.055C201.306 354.841 202.608 276.568 249.196 210.721C294.58 146.579 372.827 109.096 475.719 102.381C482.031 101.78 488.644 101.479 495.356 101.479C524.511 101.479 554.968 106.19 561.881 107.292C588.531 111.702 614.579 120.822 636.621 129.14C655.055 136.156 674.091 143.372 695.331 148.283C705.449 150.688 715.969 151.791 727.29 151.791C753.539 151.791 779.388 145.377 802.231 139.764C817.159 136.056 831.185 132.548 843.207 131.446C948.204 121.824 1057.31 139.163 1153.29 180.655C1207.09 203.906 1250.17 230.365 1284.83 261.434C1322.4 295.008 1352.06 335.599 1375.5 385.209C1388.93 413.772 1392.13 445.542 1395.14 476.511C1395.64 481.623 1396.14 486.533 1396.64 491.344C1400.45 526.522 1406.96 567.313 1426.2 602.691C1438.22 624.84 1455.55 643.381 1472.28 661.221C1477.69 666.934 1483.21 672.847 1488.52 678.86C1502.24 694.294 1516.97 710.731 1532.8 726.466L1540.41 733.982C1635.79 828.392 1725.76 917.59 1777.56 1069.23C1795.89 1122.85 1799.7 1174.56 1788.98 1222.87V1222.97Z" fill="url(#paint16_linear_1301_795)"/>
</g>
</g>
<defs>
<linearGradient id="paint0_linear_1301_795" x1="180.862" y1="-0.936743" x2="1641.82" y2="1507.9" gradientUnits="userSpaceOnUse">
<stop stop-color="#AFB388"/>
<stop offset="0.31" stop-color="#41929E"/>
<stop offset="0.49" stop-color="#27758D"/>
<stop offset="0.68" stop-color="#115C7E"/>
<stop offset="0.86" stop-color="#044D76"/>
<stop offset="1" stop-color="#004873"/>
</linearGradient>
<linearGradient id="paint1_linear_1301_795" x1="196.878" y1="-16.3829" x2="1657.84" y2="1492.46" gradientUnits="userSpaceOnUse">
<stop stop-color="#AFB388"/>
<stop offset="0.31" stop-color="#41929E"/>
<stop offset="0.49" stop-color="#27758D"/>
<stop offset="0.68" stop-color="#115C7E"/>
<stop offset="0.86" stop-color="#044D76"/>
<stop offset="1" stop-color="#004873"/>
</linearGradient>
<linearGradient id="paint2_linear_1301_795" x1="216.341" y1="-35.1979" x2="1677.3" y2="1473.64" gradientUnits="userSpaceOnUse">
<stop stop-color="#AFB388"/>
<stop offset="0.31" stop-color="#41929E"/>
<stop offset="0.49" stop-color="#27758D"/>
<stop offset="0.68" stop-color="#115C7E"/>
<stop offset="0.86" stop-color="#044D76"/>
<stop offset="1" stop-color="#004873"/>
</linearGradient>
<linearGradient id="paint3_linear_1301_795" x1="252" y1="-69.7905" x2="1712.96" y2="1439.05" gradientUnits="userSpaceOnUse">
<stop stop-color="#AFB388"/>
<stop offset="0.31" stop-color="#41929E"/>
<stop offset="0.49" stop-color="#27758D"/>
<stop offset="0.68" stop-color="#115C7E"/>
<stop offset="0.86" stop-color="#044D76"/>
<stop offset="1" stop-color="#004873"/>
</linearGradient>
<linearGradient id="paint4_linear_1301_795" x1="326.635" y1="-142.053" x2="1787.59" y2="1366.79" gradientUnits="userSpaceOnUse">
<stop stop-color="#AFB388"/>
<stop offset="0.31" stop-color="#41929E"/>
<stop offset="0.49" stop-color="#27758D"/>
<stop offset="0.68" stop-color="#115C7E"/>
<stop offset="0.86" stop-color="#044D76"/>
<stop offset="1" stop-color="#004873"/>
</linearGradient>
<linearGradient id="paint5_linear_1301_795" x1="342.15" y1="-157.094" x2="1803.11" y2="1351.75" gradientUnits="userSpaceOnUse">
<stop stop-color="#AFB388"/>
<stop offset="0.31" stop-color="#41929E"/>
<stop offset="0.49" stop-color="#27758D"/>
<stop offset="0.68" stop-color="#115C7E"/>
<stop offset="0.86" stop-color="#044D76"/>
<stop offset="1" stop-color="#004873"/>
</linearGradient>
<linearGradient id="paint6_linear_1301_795" x1="356.582" y1="-171.132" x2="1817.64" y2="1337.71" gradientUnits="userSpaceOnUse">
<stop stop-color="#AFB388"/>
<stop offset="0.31" stop-color="#41929E"/>
<stop offset="0.49" stop-color="#27758D"/>
<stop offset="0.68" stop-color="#115C7E"/>
<stop offset="0.86" stop-color="#044D76"/>
<stop offset="1" stop-color="#004873"/>
</linearGradient>
<linearGradient id="paint7_linear_1301_795" x1="369.994" y1="-184.058" x2="1830.95" y2="1324.78" gradientUnits="userSpaceOnUse">
<stop stop-color="#AFB388"/>
<stop offset="0.31" stop-color="#41929E"/>
<stop offset="0.49" stop-color="#27758D"/>
<stop offset="0.68" stop-color="#115C7E"/>
<stop offset="0.86" stop-color="#044D76"/>
<stop offset="1" stop-color="#004873"/>
</linearGradient>
<linearGradient id="paint8_linear_1301_795" x1="382.808" y1="-196.471" x2="1843.77" y2="1312.37" gradientUnits="userSpaceOnUse">
<stop stop-color="#AFB388"/>
<stop offset="0.31" stop-color="#41929E"/>
<stop offset="0.49" stop-color="#27758D"/>
<stop offset="0.68" stop-color="#115C7E"/>
<stop offset="0.86" stop-color="#044D76"/>
<stop offset="1" stop-color="#004873"/>
</linearGradient>
<linearGradient id="paint9_linear_1301_795" x1="395.344" y1="-208.605" x2="1856.3" y2="1300.24" gradientUnits="userSpaceOnUse">
<stop stop-color="#AFB388"/>
<stop offset="0.31" stop-color="#41929E"/>
<stop offset="0.49" stop-color="#27758D"/>
<stop offset="0.68" stop-color="#115C7E"/>
<stop offset="0.86" stop-color="#044D76"/>
<stop offset="1" stop-color="#004873"/>
</linearGradient>
<linearGradient id="paint10_linear_1301_795" x1="407.567" y1="-220.439" x2="1868.53" y2="1288.4" gradientUnits="userSpaceOnUse">
<stop stop-color="#AFB388"/>
<stop offset="0.31" stop-color="#41929E"/>
<stop offset="0.49" stop-color="#27758D"/>
<stop offset="0.68" stop-color="#115C7E"/>
<stop offset="0.86" stop-color="#044D76"/>
<stop offset="1" stop-color="#004873"/>
</linearGradient>
<linearGradient id="paint11_linear_1301_795" x1="419.62" y1="-232.053" x2="1880.58" y2="1276.79" gradientUnits="userSpaceOnUse">
<stop stop-color="#AFB388"/>
<stop offset="0.31" stop-color="#41929E"/>
<stop offset="0.49" stop-color="#27758D"/>
<stop offset="0.68" stop-color="#115C7E"/>
<stop offset="0.86" stop-color="#044D76"/>
<stop offset="1" stop-color="#004873"/>
</linearGradient>
<linearGradient id="paint12_linear_1301_795" x1="431.321" y1="-243.468" x2="1892.38" y2="1265.37" gradientUnits="userSpaceOnUse">
<stop stop-color="#AFB388"/>
<stop offset="0.31" stop-color="#41929E"/>
<stop offset="0.49" stop-color="#27758D"/>
<stop offset="0.68" stop-color="#115C7E"/>
<stop offset="0.86" stop-color="#044D76"/>
<stop offset="1" stop-color="#004873"/>
</linearGradient>
<linearGradient id="paint13_linear_1301_795" x1="233.653" y1="-52.0564" x2="1694.61" y2="1456.78" gradientUnits="userSpaceOnUse">
<stop stop-color="#AFB388"/>
<stop offset="0.31" stop-color="#41929E"/>
<stop offset="0.49" stop-color="#27758D"/>
<stop offset="0.68" stop-color="#115C7E"/>
<stop offset="0.86" stop-color="#044D76"/>
<stop offset="1" stop-color="#004873"/>
</linearGradient>
<linearGradient id="paint14_linear_1301_795" x1="308.402" y1="-124.402" x2="1769.36" y2="1384.44" gradientUnits="userSpaceOnUse">
<stop stop-color="#AFB388"/>
<stop offset="0.31" stop-color="#41929E"/>
<stop offset="0.49" stop-color="#27758D"/>
<stop offset="0.68" stop-color="#115C7E"/>
<stop offset="0.86" stop-color="#044D76"/>
<stop offset="1" stop-color="#004873"/>
</linearGradient>
<linearGradient id="paint15_linear_1301_795" x1="271.331" y1="-88.5476" x2="1732.29" y2="1420.29" gradientUnits="userSpaceOnUse">
<stop stop-color="#AFB388"/>
<stop offset="0.31" stop-color="#41929E"/>
<stop offset="0.49" stop-color="#27758D"/>
<stop offset="0.68" stop-color="#115C7E"/>
<stop offset="0.86" stop-color="#044D76"/>
<stop offset="1" stop-color="#004873"/>
</linearGradient>
<linearGradient id="paint16_linear_1301_795" x1="289.271" y1="-105.881" x2="1750.23" y2="1402.96" gradientUnits="userSpaceOnUse">
<stop stop-color="#AFB388"/>
<stop offset="0.31" stop-color="#41929E"/>
<stop offset="0.49" stop-color="#27758D"/>
<stop offset="0.68" stop-color="#115C7E"/>
<stop offset="0.86" stop-color="#044D76"/>
<stop offset="1" stop-color="#004873"/>
</linearGradient>
<clipPath id="clip0_1301_795">
<rect width="1855" height="1080" fill="white"/>
</clipPath>
</defs>
</svg>
